M48
;Layer_Color=9474304
;FILE_FORMAT=2:5
INCH,LZ
;TYPE=PLATED
T1F00S00C0.01181
T3F00S00C0.02559
T5F00S00C0.03937
T6F00S00C0.04016
T7F00S00C0.04331
;TYPE=NON_PLATED
T8F00S00C0.03150
T9F00S00C0.06299
T10F00S00C0.07087
%
T01
X0314961Y0181103
X0322835
X0330709
X0338583
X0346457
X0354331
X0362205
X0370079
X0377953
X0385827
X0393701
X0401575
X0409449
X0417323
X0425197
X0433071
X0440945
X0444882Y0188977
X0437008
X0440945Y0196851
X0433071
X0437008Y0204725
X0444882
X0440945Y0212598
X0433071
X0437008Y0220473
X0444882
X0440945Y0228347
X0444882Y0236221
X0437008
X0440945Y0244095
X0433071
X0437008Y0251969
X0444882
X0440945Y0259843
X0433071
X0437008Y0267717
X0444882
X0429134
X042126
X0413386
X0405512
X0404272Y0278023
X0401575Y0259843
X0409449
X0417323
X0413386Y0251969
X0405512
X0397638
X0389764
X038189
X0374016
X0377953Y0244095
X0385827
X0401575
X0409449
X0405512Y0236221
X0409449Y0228347
X042126Y0236221
X0425197Y0275591
X0433071
X0437008Y0283465
X0440945Y0291339
X0433071
X0437008Y0299213
X0444882
X0440945Y0307087
X0433071
X042126Y0299213
X0417323Y0291339
X0409449Y0307087
X0386771Y0289023
X0376771Y0292023
X0371772Y0273023
X0386272Y0267523
X0354272Y0264023
X0346457Y0259843
X0350394Y0251969
X0358268
X0362205Y0244095
X0370079
X0346457
X0350394Y0236221
X0354331Y0228347
X0350394Y0220473
X0354331Y0212598
X0358268Y0188977
X0366142
X0374016
X038189
X0389764
X0397638
X0405512
X0413386
X0409449Y0196851
X0401575
X0393701
X0385827
X0350394Y0188977
X034252
X0334646
X0326772
X0318898
Y0204725
X0322835Y0244095
X0330709
X0326772Y0251969
X0329771Y0267523
X0314772Y0273023
X0314961Y0244095
X0346772Y0278023
X0291772Y0277523
X0291339Y0259843
X0297271Y0264023
X030315Y0251969
X0307087Y0244095
X0291339
X0295276Y0236221
X0299213Y0228347
X0291339
X0295276Y0220473
X0299213Y0212598
X0291339
X0295276Y0204725
X0299213Y0196851
X0291339
X0295276Y0188977
X030315
X0311024
X0307087Y0181103
X0299213
X0291339
X0283465
X0275591
X0267717
X0259843
X0251969
X0244095
X0236221
X0228347
X0220473
X0212598
X0204725
X0196851
X0188977
X0181103
X0173228
X0165354
X015748
X0169291Y0188977
X0177165
X0185039
X0192913
X0200787
X0208662
X0216536
X022441
X0232284
X0240158
X0248032
X0255906
X026378
X0271654
X0279528
X0287402
X0275591Y0244095
X0267717
X0259843
X0251969
X0248032Y0251969
X0242271Y0264023
X0236221Y0259843
Y0244095
X0240158Y0236221
X0236221Y0228347
X0244095Y0212598
X0220473Y0244095
X0212598
X0204725
X0196851
X0192913Y0251969
Y0267717
X0198772Y0273023
X0204272
X02195Y02675
X0216536Y0251969
X0177165
X0169291
X0173228Y0259843
X0165354
X015748
X0165354Y0275591
X0173228
X0177165Y0283465
X0169291
X0173228Y0291339
X0169291Y0299213
X0161417
X0188977Y0307087
X0236221
X0244095
Y0291339
X0236272Y0277523
X0259771Y0273023
X0274271Y0267523
X0271654Y0251969
X0275591Y0291339
X0220473
X0181103Y0244095
X0185039Y0236221
X0177165
X0169291
X0165354Y0244095
X0181103Y0228347
Y0196851
X0188977
X0196851
X0204725
X0173228
X0149606
X0141732
X0145669Y0204725
X0149606Y0212598
X0141732
X0145669Y0220473
X0153543
X0149606Y0228347
X0141732
X0145669Y0236221
X0149606Y0244095
X0141732
X0145669Y0251969
X0149606Y0259843
X0141732
X0145669Y0267717
X0149606Y0275591
X0141732
Y0291339
X0149606
Y0307087
X0141732
X0145669Y0188977
X0149606Y0181103
X0141732
Y0322835
X0149606
X0153543Y0314961
X0149606Y0338583
X0141732
Y0354331
X0145669Y0362205
X0153543
X0149606Y0370079
X0141732
X0145669Y0377953
X0153543
X0149606Y0385827
X0141732
X0145669Y0393701
X0153543
X0149606Y0401575
X0141732
X0147783Y0410904
Y0414047
Y041719
Y0420333
Y0423476
Y0426618
Y0429619
Y0432761
Y0435904
Y0439047
Y044219
Y0445333
Y0448476
Y0451618
Y0454619
Y0457761
Y0460904
Y0464047
Y046719
X0141732Y0464567
Y0448819
Y0433071
Y0417323
X0151Y0411
X0154143
X0157286
X0160429
X015748Y0401575
X01685Y03985
Y0393
X0173228Y0385827
X0188977
X0185039Y0377953
X0188977Y0370079
X0196851
X0200787Y0362205
X0208662
X0216536
X022441
X0232284
X0240158
X0248032
X0255906
X026378
X0271654
X0279528
X0282Y03535
X0283465Y0370079
X030315Y0377953
X0311024
X0311Y0359
X030315Y0346457
X0267717Y0338583
X0251969
X0240158Y0314961
X0185039
X0173228Y0322835
X0165354
X0161417Y0330709
X0169291Y0346457
X0177165
X0185039
X0192913
X0200787
X0188977Y0354331
X0181103
X0173228
X0165354
X015748
Y0370079
X0165354
X0173228
X0161417Y0377953
X015748Y0385827
X0176Y0411
X0181103Y0417323
X01875Y0411
X01905
X0194
Y0414
Y0417
X0204725Y0417323
X0208662Y0409449
X0232284
X0240158
Y0393701
X0255906
X0267717Y0385827
X026378Y0377953
X0240158
X0232284
X0228347Y0385827
X0212598
X0208662Y0377953
X0200787Y0393701
X0196851Y0433071
X0193837Y0436449
Y0439592
Y0442734
Y0445877
Y044902
Y0452163
X0194Y0455
Y0458143
Y0461286
Y0464429
Y0467571
X0176186Y0464468
X0161Y04665
X01565Y0441
X0221772Y043411
X0228125Y0444875
X02435Y04565
X0256435Y043776
X0265Y04275
X0276Y0449
Y04535
Y04575
X0273Y04665
X0287402Y0456693
X0295276
Y0440945
X030315
X0307087Y0448819
X0308256Y0462976
X03055Y0465732
X0311012
X0308256Y0468488
X02875Y0444
Y0439
X0303855Y04225
X0316Y04195
X0322835Y0417031
X0330709
X0338583
X0346Y04205
Y043
X0338583Y0433071
X0330709
X0322835
X0313531
X0318898Y0440945
X0326772
X0327Y04485
X0322835Y0448819
X03355Y04485
X0334646Y0440945
X034252
Y0456693
X0334646
X0338583Y0464567
X0346457
X03665Y04555
X038189Y0425197
X03795Y0409
X03825Y0398
X0405512Y0393701
X0413386
X042126Y0377953
X0429134
X0433071Y0385827
X0440945
X0444882Y0393701
Y0377953
Y0362205
X0437008
X0429134
X042126
X0413386
X0405512
X0397638
X0389764
X0393701Y0354331
X0401575
X0397638Y0346457
X0389764
X0385827Y0354331
X0366142Y0362205
X0358268
X0362Y0384
X0326772Y0377953
X0318898
Y0409449
X0326772
X0334646
X034252
X0405512
Y0425197
X0437008
X0444882
Y0440945
X0437008
X0440945Y0448819
X04385Y04665
X0443987
X0433071Y0370079
X0425197
X0433071Y0354331
X0440945
X0444882Y0346457
X0437008
X0440945Y0338583
X0433071
X0437008Y0330709
X0444882
X0440945Y0322835
X0433071
X0437008Y0314961
X0444882
X0405512
X0413386Y0346457
X042126
X0401575Y0370079
X0405512Y0377953
X0354331Y0322835
X0350394Y0314961
X0318898Y0330709
X0316524Y0465732
X0313768Y0462976
Y0468488
X0316524Y0471244
X0313768Y0474
X0322835Y0480315
X0330709
X0346457
X034252Y0472441
X0364Y0483426
X0357739Y0492739
X0358Y04985
X0393701Y0496063
X0401575
X04095Y0475468
X04275Y0472
X0444Y0471
X0311012Y0471244
X03055
X0308256Y0474
X0295276Y0472441
X02895Y04785
X0295978Y0487487
X03075Y049
X0286403Y0495748
X0263Y04925
X0259843Y0496063
X0251969
X0248032Y0488189
X0240158
X0236Y04865
Y0478
X0243481Y0480023
X02475Y048
X02585Y0472
X02765Y04715
X0222Y04865
X0194Y0486286
Y0483143
Y048
Y0477
Y0473857
Y0470714
Y0489429
Y0492571
Y0495714
Y0498857
Y0502
X018475Y049825
X0148Y0498714
Y0501857
Y0495571
Y0492428
Y0489286
Y0486143
Y0483
Y0479857
X0147783Y0476618
Y0473476
Y0470333
X0151Y04745
X0141732Y0480315
Y0496063
T03
X015876Y042365
X016624
T05
X0312746Y0194023
X0322588
X0332431
X0342273
X0352116
X0361959
X0371801
X0381644
X0428271Y0189498
Y019934
Y0209183
Y0219025
Y0228868
Y023871
Y0248553
Y0258395
X0427772Y028384
Y0293683
Y0303525
X0279907Y0194023
X0270065
X0260222
X025038
X0240537
X0230695
X0220852
X021101
X0155838Y0195653
Y0205496
Y0215338
Y0225181
Y0235023
Y0244866
Y0254708
Y0280153
Y0289996
Y0299838
Y0309681
Y018581
Y0319523
Y0329366
Y0339208
Y0349051
X0207323Y0345956
X0217165
X0227008
X023685
X0246693
X0256535
X0266378
X027622
X0276299Y0371523
X0266457
X0256614
X0246772
X0236929
X0227086
X0217244
X0207401
X0309059Y0345956
X0318901
X0328744
X0338586
X0348429
X0358272
X0368114
X0377957
X0427772Y0342895
Y0333053
Y032321
Y0313368
Y0352738
T06
X03055Y036773
Y0395
X03155
X03255
X03355
X03455
Y036773
X03355
X03255
X03155
X03555
X03655
X03755
T07
X0203768Y045382
Y046382
Y047382
Y048382
T08
X0419158Y0486717
X0438842
T09
X0439716Y03935
T10
X0422Y03935
M30
