%TF.GenerationSoftware,Altium Limited,Altium Designer,22.10.1 (41)*%
G04 Layer_Color=16711935*
%FSLAX25Y25*%
%MOIN*%
%TF.SameCoordinates,BEAA4B2D-68BC-4382-99D5-5DCEA874A810*%
%TF.FilePolarity,Negative*%
%TF.FileFunction,Soldermask,Bot*%
%TF.Part,Single*%
G01*
G75*
%TA.AperFunction,SMDPad,CuDef*%
%ADD63R,0.08674X0.08674*%
%ADD64R,0.06706X0.05131*%
%ADD65R,0.06800X0.14800*%
%ADD66R,0.07950X0.06150*%
G04:AMPARAMS|DCode=67|XSize=85.56mil|YSize=31.23mil|CornerRadius=6.9mil|HoleSize=0mil|Usage=FLASHONLY|Rotation=90.000|XOffset=0mil|YOffset=0mil|HoleType=Round|Shape=RoundedRectangle|*
%AMROUNDEDRECTD67*
21,1,0.08556,0.01742,0,0,90.0*
21,1,0.07175,0.03123,0,0,90.0*
1,1,0.01381,0.00871,0.03588*
1,1,0.01381,0.00871,-0.03588*
1,1,0.01381,-0.00871,-0.03588*
1,1,0.01381,-0.00871,0.03588*
%
%ADD67ROUNDEDRECTD67*%
%ADD68R,0.10642X0.07493*%
%ADD69R,0.03950X0.03950*%
%ADD70R,0.09265X0.13595*%
%ADD71R,0.09265X0.04343*%
%ADD72R,0.03950X0.03950*%
%ADD73R,0.02965X0.04343*%
%ADD74R,0.06150X0.07950*%
%TA.AperFunction,ComponentPad*%
%ADD75C,0.07887*%
%ADD76C,0.07099*%
%ADD77C,0.05359*%
%ADD78C,0.06784*%
%ADD79R,0.06784X0.06784*%
%ADD80C,0.06737*%
%ADD81R,0.06737X0.06737*%
%ADD82R,0.06737X0.06737*%
%ADD83O,0.06509X0.08674*%
%ADD84O,0.05328X0.07887*%
%ADD85C,0.03950*%
%ADD86R,0.07099X0.07099*%
%TA.AperFunction,ViaPad*%
%ADD87C,0.03162*%
D63*
X302217Y241154D02*
D03*
Y197846D02*
D03*
X278004Y241154D02*
D03*
Y197846D02*
D03*
D64*
X214822Y281442D02*
D03*
X249861D02*
D03*
D65*
X283841Y275854D02*
D03*
X267300D02*
D03*
D66*
X27827Y269717D02*
D03*
X40727D02*
D03*
X283200Y262673D02*
D03*
X270300D02*
D03*
X27800Y314900D02*
D03*
X40700D02*
D03*
X241800Y262753D02*
D03*
X254700D02*
D03*
D67*
X43000Y303744D02*
D03*
X38000D02*
D03*
X33000D02*
D03*
X28000D02*
D03*
Y284256D02*
D03*
X33000D02*
D03*
X38000D02*
D03*
X43000D02*
D03*
D68*
X282374Y291854D02*
D03*
X266626D02*
D03*
D69*
X217349Y208253D02*
D03*
Y202347D02*
D03*
X215700Y243747D02*
D03*
Y249653D02*
D03*
D70*
X257255Y215000D02*
D03*
Y244000D02*
D03*
D71*
X234184Y224016D02*
D03*
Y215000D02*
D03*
Y205984D02*
D03*
Y234984D02*
D03*
Y244000D02*
D03*
Y253016D02*
D03*
D72*
X241747Y270711D02*
D03*
X247653D02*
D03*
X234826D02*
D03*
X228920D02*
D03*
D73*
X215791Y270255D02*
D03*
X221500D02*
D03*
D74*
X224408Y243800D02*
D03*
Y256700D02*
D03*
X224488Y204300D02*
D03*
Y217200D02*
D03*
D75*
X284500Y219500D02*
D03*
D76*
X302217D02*
D03*
X66268Y299820D02*
D03*
Y289820D02*
D03*
Y279820D02*
D03*
D77*
X28740Y249650D02*
D03*
X21260D02*
D03*
D78*
X188000Y221000D02*
D03*
X178000D02*
D03*
X198000D02*
D03*
X208000D02*
D03*
X188000Y193730D02*
D03*
X198000D02*
D03*
X208000D02*
D03*
X228000D02*
D03*
X218000D02*
D03*
X178000D02*
D03*
X168000D02*
D03*
D79*
Y221000D02*
D03*
X238000Y193730D02*
D03*
D80*
X18338Y106153D02*
D03*
Y115996D02*
D03*
Y125838D02*
D03*
Y135681D02*
D03*
Y165208D02*
D03*
Y145523D02*
D03*
Y155366D02*
D03*
X119035Y171956D02*
D03*
X109193D02*
D03*
X128878D02*
D03*
X99350D02*
D03*
X89508D02*
D03*
X79665D02*
D03*
X69823D02*
D03*
X290271Y129525D02*
D03*
Y139368D02*
D03*
Y119683D02*
D03*
Y149210D02*
D03*
Y159053D02*
D03*
Y168895D02*
D03*
Y178738D02*
D03*
X194931Y20023D02*
D03*
X204773D02*
D03*
X185088D02*
D03*
X214616D02*
D03*
X224459D02*
D03*
X234301D02*
D03*
X244144D02*
D03*
X142407D02*
D03*
X132565D02*
D03*
X122722D02*
D03*
X112880D02*
D03*
X83352D02*
D03*
X103037D02*
D03*
X93195D02*
D03*
X171559Y171956D02*
D03*
X181401D02*
D03*
X191244D02*
D03*
X201086D02*
D03*
X230614D02*
D03*
X210929D02*
D03*
X220772D02*
D03*
X119114Y197523D02*
D03*
X109272D02*
D03*
X128957D02*
D03*
X99429D02*
D03*
X89587D02*
D03*
X79744D02*
D03*
X69901D02*
D03*
X290772Y84395D02*
D03*
Y74553D02*
D03*
Y64710D02*
D03*
Y54868D02*
D03*
Y25340D02*
D03*
Y45025D02*
D03*
Y35183D02*
D03*
X18338Y61023D02*
D03*
Y51181D02*
D03*
Y70866D02*
D03*
Y41338D02*
D03*
Y31496D02*
D03*
Y21653D02*
D03*
Y11811D02*
D03*
D81*
Y175051D02*
D03*
X290271Y109840D02*
D03*
X290772Y15498D02*
D03*
X18338Y80708D02*
D03*
D82*
X138720Y171956D02*
D03*
X175246Y20023D02*
D03*
X73510D02*
D03*
X240457Y171956D02*
D03*
X138799Y197523D02*
D03*
D83*
X306165Y308583D02*
D03*
X276835D02*
D03*
D84*
X306756Y323543D02*
D03*
X276244D02*
D03*
D85*
X301343Y312717D02*
D03*
X281658D02*
D03*
D86*
X66268Y309820D02*
D03*
D87*
X173500Y185000D02*
D03*
X170756Y288976D02*
D03*
X179024Y291732D02*
D03*
X173512D02*
D03*
X168000D02*
D03*
X176268Y288976D02*
D03*
X179024Y297244D02*
D03*
X173512D02*
D03*
X168000D02*
D03*
X170756Y294488D02*
D03*
X176268D02*
D03*
Y300000D02*
D03*
X170756D02*
D03*
%TF.MD5,53f95d0b43579cd1dfae110aa2dad60d*%
M02*
