%TF.GenerationSoftware,Altium Limited,Altium Designer,22.10.1 (41)*%
G04 Layer_Color=16711935*
%FSLAX25Y25*%
%MOIN*%
%TF.SameCoordinates,BEAA4B2D-68BC-4382-99D5-5DCEA874A810*%
%TF.FilePolarity,Positive*%
%TF.FileFunction,Other,Mechanical_17*%
%TF.Part,Single*%
G01*
G75*
%TA.AperFunction,NonConductor*%
%ADD118C,0.00050*%
G36*
X-137054Y-173500D02*
X-137053Y-173501D01*
X-137054D01*
Y-173504D01*
X-137053D01*
X-137054Y-173505D01*
X-137056Y-173506D01*
X-137057Y-173505D01*
X-137058Y-173504D01*
X-137058Y-173501D01*
X-137058D01*
X-137057Y-173500D01*
X-137056Y-173499D01*
X-137054Y-173500D01*
D02*
G37*
G36*
X-137084D02*
X-137084Y-173501D01*
X-137084D01*
Y-173504D01*
X-137084D01*
X-137084Y-173505D01*
X-137086Y-173506D01*
X-137088Y-173505D01*
X-137089Y-173504D01*
X-137089Y-173501D01*
X-137089D01*
X-137088Y-173500D01*
X-137086Y-173499D01*
X-137084Y-173500D01*
D02*
G37*
G36*
X-137293Y-173519D02*
X-137299D01*
Y-173513D01*
X-137293D01*
Y-173519D01*
D02*
G37*
G36*
X-137054Y-173514D02*
X-137053Y-173516D01*
X-137054D01*
Y-173519D01*
X-137053D01*
X-137054Y-173521D01*
X-137056Y-173522D01*
X-137058Y-173521D01*
X-137059Y-173519D01*
X-137059Y-173516D01*
X-137059D01*
X-137058Y-173514D01*
X-137056Y-173513D01*
X-137054Y-173514D01*
D02*
G37*
G36*
X-137083D02*
X-137083Y-173516D01*
X-137083D01*
Y-173519D01*
X-137083D01*
X-137083Y-173521D01*
X-137086Y-173522D01*
X-137088Y-173521D01*
X-137089Y-173519D01*
X-137089Y-173516D01*
X-137089D01*
X-137088Y-173514D01*
X-137086Y-173513D01*
X-137083Y-173514D01*
D02*
G37*
G36*
X-137191Y-173608D02*
X-137197D01*
Y-173602D01*
X-137191D01*
Y-173608D01*
D02*
G37*
G36*
X-137121Y-173635D02*
X-137127D01*
Y-173629D01*
X-137121D01*
Y-173635D01*
D02*
G37*
D118*
X-137079Y-173513D02*
G03*
X-137079Y-173513I-2J0D01*
G01*
X-137060D02*
G03*
X-137060Y-173513I-2J0D01*
G01*
X-137191Y-173632D02*
G03*
X-137191Y-173632I-3J0D01*
G01*
X-137181D02*
G03*
X-137181Y-173632I-3J0D01*
G01*
X-137142D02*
G03*
X-137142Y-173632I-3J0D01*
G01*
X-137132D02*
G03*
X-137132Y-173632I-3J0D01*
G01*
X-137152D02*
G03*
X-137152Y-173632I-3J0D01*
G01*
X-137162D02*
G03*
X-137162Y-173632I-3J0D01*
G01*
X-137171D02*
G03*
X-137171Y-173632I-3J0D01*
G01*
X-137069Y-173791D02*
G03*
X-137069Y-173791I-3J0D01*
G01*
Y-173781D02*
G03*
X-137069Y-173781I-3J0D01*
G01*
Y-173801D02*
G03*
X-137069Y-173801I-3J0D01*
G01*
Y-173771D02*
G03*
X-137069Y-173771I-3J0D01*
G01*
Y-173761D02*
G03*
X-137069Y-173761I-3J0D01*
G01*
Y-173751D02*
G03*
X-137069Y-173751I-3J0D01*
G01*
Y-173742D02*
G03*
X-137069Y-173742I-3J0D01*
G01*
X-137069Y-173647D02*
G03*
X-137069Y-173647I-3J0D01*
G01*
Y-173657D02*
G03*
X-137069Y-173657I-3J0D01*
G01*
Y-173667D02*
G03*
X-137069Y-173667I-3J0D01*
G01*
Y-173677D02*
G03*
X-137069Y-173677I-3J0D01*
G01*
Y-173706D02*
G03*
X-137069Y-173706I-3J0D01*
G01*
Y-173687D02*
G03*
X-137069Y-173687I-3J0D01*
G01*
Y-173696D02*
G03*
X-137069Y-173696I-3J0D01*
G01*
X-137290Y-173628D02*
G03*
X-137290Y-173628I-3J0D01*
G01*
X-137280D02*
G03*
X-137280Y-173628I-3J0D01*
G01*
X-137270D02*
G03*
X-137270Y-173628I-3J0D01*
G01*
X-137260D02*
G03*
X-137260Y-173628I-3J0D01*
G01*
X-137231D02*
G03*
X-137231Y-173628I-3J0D01*
G01*
X-137250D02*
G03*
X-137250Y-173628I-3J0D01*
G01*
X-137240D02*
G03*
X-137240Y-173628I-3J0D01*
G01*
X-137115Y-173806D02*
G03*
X-137115Y-173806I-3J0D01*
G01*
X-137125D02*
G03*
X-137125Y-173806I-3J0D01*
G01*
X-137135D02*
G03*
X-137135Y-173806I-3J0D01*
G01*
X-137145D02*
G03*
X-137145Y-173806I-3J0D01*
G01*
X-137174D02*
G03*
X-137174Y-173806I-3J0D01*
G01*
X-137155D02*
G03*
X-137155Y-173806I-3J0D01*
G01*
X-137165D02*
G03*
X-137165Y-173806I-3J0D01*
G01*
X-137139Y-173654D02*
G03*
X-137139Y-173654I-3J0D01*
G01*
X-137149D02*
G03*
X-137149Y-173654I-3J0D01*
G01*
X-137129D02*
G03*
X-137129Y-173654I-3J0D01*
G01*
X-137158D02*
G03*
X-137158Y-173654I-3J0D01*
G01*
X-137168D02*
G03*
X-137168Y-173654I-3J0D01*
G01*
X-137178D02*
G03*
X-137178Y-173654I-3J0D01*
G01*
X-137188D02*
G03*
X-137188Y-173654I-3J0D01*
G01*
X-137290D02*
G03*
X-137290Y-173654I-3J0D01*
G01*
X-137280D02*
G03*
X-137280Y-173654I-3J0D01*
G01*
X-137270D02*
G03*
X-137270Y-173654I-3J0D01*
G01*
X-137260D02*
G03*
X-137260Y-173654I-3J0D01*
G01*
X-137231D02*
G03*
X-137231Y-173654I-3J0D01*
G01*
X-137250D02*
G03*
X-137250Y-173654I-3J0D01*
G01*
X-137241D02*
G03*
X-137241Y-173654I-3J0D01*
G01*
X-137341Y-173814D02*
G03*
X-137341Y-173814I-3J0D01*
G01*
Y-173804D02*
G03*
X-137341Y-173804I-3J0D01*
G01*
Y-173794D02*
G03*
X-137341Y-173794I-3J0D01*
G01*
Y-173785D02*
G03*
X-137341Y-173785I-3J0D01*
G01*
Y-173755D02*
G03*
X-137341Y-173755I-3J0D01*
G01*
Y-173775D02*
G03*
X-137341Y-173775I-3J0D01*
G01*
Y-173765D02*
G03*
X-137341Y-173765I-3J0D01*
G01*
Y-173671D02*
G03*
X-137341Y-173671I-3J0D01*
G01*
Y-173680D02*
G03*
X-137341Y-173680I-3J0D01*
G01*
Y-173661D02*
G03*
X-137341Y-173661I-3J0D01*
G01*
Y-173690D02*
G03*
X-137341Y-173690I-3J0D01*
G01*
Y-173700D02*
G03*
X-137341Y-173700I-3J0D01*
G01*
Y-173710D02*
G03*
X-137341Y-173710I-3J0D01*
G01*
Y-173720D02*
G03*
X-137341Y-173720I-3J0D01*
G01*
X-137152Y-173605D02*
G03*
X-137152Y-173605I-3J0D01*
G01*
X-137162D02*
G03*
X-137162Y-173605I-3J0D01*
G01*
X-137181D02*
G03*
X-137181Y-173605I-3J0D01*
G01*
X-137171D02*
G03*
X-137171Y-173605I-3J0D01*
G01*
X-137057Y-173607D02*
G03*
X-137057Y-173607I-3J0D01*
G01*
X-137074D02*
G03*
X-137074Y-173607I-4J0D01*
G01*
X-137293Y-173546D02*
G03*
X-137293Y-173546I-3J0D01*
G01*
Y-173536D02*
G03*
X-137293Y-173536I-3J0D01*
G01*
Y-173526D02*
G03*
X-137293Y-173526I-3J0D01*
G01*
X-137339Y-173576D02*
G03*
X-137339Y-173576I-2J0D01*
G01*
X-137331D02*
G03*
X-137331Y-173576I-2J0D01*
G01*
X-137266Y-173806D02*
G03*
X-137266Y-173806I-3J0D01*
G01*
X-137257D02*
G03*
X-137257Y-173806I-3J0D01*
G01*
X-137276D02*
G03*
X-137276Y-173806I-3J0D01*
G01*
X-137247D02*
G03*
X-137247Y-173806I-3J0D01*
G01*
X-137237D02*
G03*
X-137237Y-173806I-3J0D01*
G01*
X-137227D02*
G03*
X-137227Y-173806I-3J0D01*
G01*
X-137217D02*
G03*
X-137217Y-173806I-3J0D01*
G01*
%TF.MD5,3df51ea86a71def9127f0a4bcd9aa8e0*%
M02*
