%TF.GenerationSoftware,Altium Limited,Altium Designer,22.10.1 (41)*%
G04 Layer_Color=32896*
%FSLAX25Y25*%
%MOIN*%
%TF.SameCoordinates,BEAA4B2D-68BC-4382-99D5-5DCEA874A810*%
%TF.FilePolarity,Positive*%
%TF.FileFunction,Other,Top_Courtyard*%
%TF.Part,Single*%
G01*
G75*
%TA.AperFunction,NonConductor*%
%ADD114C,0.00000*%
%TA.AperFunction,SMDPad,CuDef*%
%ADD115C,0.00000*%
%TA.AperFunction,NonConductor*%
%ADD117C,0.00000*%
D114*
X-137063Y-173582D02*
G03*
X-137063Y-173582I-0J0D01*
G01*
D02*
G03*
X-137063Y-173582I0J0D01*
G01*
D02*
G03*
X-137063Y-173582I-0J0D01*
G01*
D02*
G03*
X-137063Y-173582I0J0D01*
G01*
Y-173589D02*
G03*
X-137063Y-173589I-0J0D01*
G01*
D02*
G03*
X-137063Y-173589I0J0D01*
G01*
Y-173631D02*
G03*
X-137063Y-173631I-0J0D01*
G01*
D02*
G03*
X-137063Y-173631I0J0D01*
G01*
Y-173624D02*
G03*
X-137063Y-173624I-0J0D01*
G01*
D02*
G03*
X-137063Y-173624I0J0D01*
G01*
Y-173631D02*
G03*
X-137063Y-173631I-0J0D01*
G01*
D02*
G03*
X-137063Y-173631I0J0D01*
G01*
D115*
X-137041Y-173589D02*
D03*
X-137094D02*
D03*
X-137041D02*
D03*
Y-173624D02*
D03*
X-137099Y-173613D02*
D03*
Y-173624D02*
D03*
X-137094Y-173613D02*
D03*
X-137099D02*
D03*
X-137094Y-173589D02*
D03*
Y-173613D02*
D03*
X-137041Y-173624D02*
D03*
X-137099D02*
D03*
X-137087Y-173582D02*
D03*
Y-173589D02*
D03*
X-137082Y-173582D02*
D03*
X-137087D02*
D03*
X-137082D02*
D03*
Y-173589D02*
D03*
X-137057Y-173582D02*
D03*
Y-173589D02*
D03*
Y-173582D02*
D03*
Y-173624D02*
D03*
Y-173631D02*
D03*
D03*
X-137082Y-173624D02*
D03*
Y-173631D02*
D03*
D03*
X-137087D02*
D03*
Y-173624D02*
D03*
Y-173631D02*
D03*
D117*
X-137094Y-173589D02*
X-137041D01*
Y-173624D02*
Y-173589D01*
X-137099Y-173624D02*
Y-173613D01*
X-137094D01*
Y-173589D01*
X-137099Y-173624D02*
X-137041D01*
X-137087Y-173589D02*
Y-173582D01*
X-137082D01*
Y-173589D02*
Y-173582D01*
X-137057Y-173589D02*
Y-173582D01*
X-137063D02*
X-137057D01*
X-137063Y-173589D02*
Y-173582D01*
X-137057Y-173631D02*
Y-173624D01*
X-137063Y-173631D02*
X-137057D01*
X-137063D02*
Y-173624D01*
X-137082Y-173631D02*
Y-173624D01*
X-137087Y-173631D02*
X-137082D01*
X-137087D02*
Y-173624D01*
%TF.MD5,dbd5580030edceeb9e4314b5f6a8a87e*%
M02*
