%TF.GenerationSoftware,Altium Limited,Altium Designer,22.10.1 (41)*%
G04 Layer_Color=128*
%FSLAX25Y25*%
%MOIN*%
%TF.SameCoordinates,BEAA4B2D-68BC-4382-99D5-5DCEA874A810*%
%TF.FilePolarity,Positive*%
%TF.FileFunction,Paste,Bot*%
%TF.Part,Single*%
G01*
G75*
%TA.AperFunction,SMDPad,CuDef*%
%ADD13R,0.03150X0.03150*%
%ADD21R,0.03150X0.03150*%
%ADD22R,0.02165X0.03543*%
%ADD47R,0.07874X0.07874*%
%ADD48R,0.05906X0.04331*%
%ADD49R,0.06000X0.14000*%
%ADD50R,0.07150X0.05350*%
G04:AMPARAMS|DCode=51|XSize=77.56mil|YSize=23.23mil|CornerRadius=2.9mil|HoleSize=0mil|Usage=FLASHONLY|Rotation=90.000|XOffset=0mil|YOffset=0mil|HoleType=Round|Shape=RoundedRectangle|*
%AMROUNDEDRECTD51*
21,1,0.07756,0.01742,0,0,90.0*
21,1,0.07175,0.02323,0,0,90.0*
1,1,0.00581,0.00871,0.03588*
1,1,0.00581,0.00871,-0.03588*
1,1,0.00581,-0.00871,-0.03588*
1,1,0.00581,-0.00871,0.03588*
%
%ADD51ROUNDEDRECTD51*%
%ADD52R,0.09843X0.06693*%
%ADD53R,0.08465X0.12795*%
%ADD54R,0.08465X0.03543*%
%ADD55R,0.05350X0.07150*%
D13*
X217349Y208253D02*
D03*
Y202347D02*
D03*
X215700Y243747D02*
D03*
Y249653D02*
D03*
D21*
X241747Y270711D02*
D03*
X247653D02*
D03*
X234826D02*
D03*
X228920D02*
D03*
D22*
X215791Y270255D02*
D03*
X221500D02*
D03*
D47*
X302217Y241154D02*
D03*
Y197846D02*
D03*
X278004Y241154D02*
D03*
Y197846D02*
D03*
D48*
X214822Y281442D02*
D03*
X249861D02*
D03*
D49*
X283841Y275854D02*
D03*
X267300D02*
D03*
D50*
X27827Y269717D02*
D03*
X40727D02*
D03*
X283200Y262673D02*
D03*
X270300D02*
D03*
X27800Y314900D02*
D03*
X40700D02*
D03*
X241800Y262753D02*
D03*
X254700D02*
D03*
D51*
X43000Y303744D02*
D03*
X38000D02*
D03*
X33000D02*
D03*
X28000D02*
D03*
Y284256D02*
D03*
X33000D02*
D03*
X38000D02*
D03*
X43000D02*
D03*
D52*
X282374Y291854D02*
D03*
X266626D02*
D03*
D53*
X257255Y215000D02*
D03*
Y244000D02*
D03*
D54*
X234184Y224016D02*
D03*
Y215000D02*
D03*
Y205984D02*
D03*
Y234984D02*
D03*
Y244000D02*
D03*
Y253016D02*
D03*
D55*
X224408Y243800D02*
D03*
Y256700D02*
D03*
X224488Y204300D02*
D03*
Y217200D02*
D03*
%TF.MD5,96d371046310dea5d6297e42b820ac73*%
M02*
