%TF.GenerationSoftware,Altium Limited,Altium Designer,22.10.1 (41)*%
G04 Layer_Color=32896*
%FSLAX25Y25*%
%MOIN*%
%TF.SameCoordinates,BEAA4B2D-68BC-4382-99D5-5DCEA874A810*%
%TF.FilePolarity,Positive*%
%TF.FileFunction,Other,Top_3D_Body*%
%TF.Part,Single*%
G01*
G75*
%TA.AperFunction,NonConductor*%
%ADD114C,0.00000*%
%TA.AperFunction,SMDPad,CuDef*%
%ADD115C,0.00000*%
%ADD116C,0.00002*%
%TA.AperFunction,NonConductor*%
%ADD117C,0.00000*%
G36*
X-137233Y-173552D02*
X-137234D01*
Y-173551D01*
X-137233Y-173552D01*
D02*
G37*
G36*
Y-173554D02*
X-137234Y-173555D01*
Y-173553D01*
X-137233Y-173554D01*
D02*
G37*
D114*
X-137231Y-173555D02*
G03*
X-137231Y-173555I0J-0D01*
G01*
D02*
G03*
X-137231Y-173555I0J0D01*
G01*
D115*
Y-173556D02*
D03*
X-137229Y-173557D02*
D03*
X-137239D02*
D03*
X-137229Y-173544D02*
D03*
Y-173557D02*
D03*
Y-173544D02*
D03*
X-137239D02*
D03*
D03*
Y-173557D02*
D03*
D116*
X-137231Y-173556D02*
D03*
D117*
X-137239Y-173557D02*
X-137229D01*
Y-173544D01*
X-137239D02*
X-137229D01*
X-137239Y-173557D02*
Y-173544D01*
%TF.MD5,6674be79aa7401681d6ba57fdf89a154*%
M02*
