%TF.GenerationSoftware,Altium Limited,Altium Designer,22.10.1 (41)*%
G04 Layer_Color=8388736*
%FSLAX25Y25*%
%MOIN*%
%TF.SameCoordinates,BEAA4B2D-68BC-4382-99D5-5DCEA874A810*%
%TF.FilePolarity,Positive*%
%TF.FileFunction,Other,Mechanical_22*%
%TF.Part,Single*%
G01*
G75*
%TA.AperFunction,NonConductor*%
%ADD118C,0.00050*%
D118*
X-137191Y-173526D02*
G03*
X-137191Y-173526I-1J0D01*
G01*
X-137186D02*
G03*
X-137186Y-173526I-1J0D01*
G01*
Y-173531D02*
G03*
X-137186Y-173531I-1J0D01*
G01*
X-137191D02*
G03*
X-137191Y-173531I-1J0D01*
G01*
X-137194Y-173529D02*
G03*
X-137194Y-173529I-1J0D01*
G01*
X-137188D02*
G03*
X-137188Y-173529I-1J0D01*
G01*
X-137183D02*
G03*
X-137183Y-173529I-1J0D01*
G01*
X-137186Y-173537D02*
G03*
X-137186Y-173537I-1J0D01*
G01*
X-137194Y-173534D02*
G03*
X-137194Y-173534I-1J0D01*
G01*
X-137188D02*
G03*
X-137188Y-173534I-1J0D01*
G01*
X-137183D02*
G03*
X-137183Y-173534I-1J0D01*
G01*
X-137191Y-173537D02*
G03*
X-137191Y-173537I-1J0D01*
G01*
X-137113Y-173732D02*
G03*
X-137113Y-173732I-1J0D01*
G01*
X-137113Y-173711D02*
G03*
X-137113Y-173711I-1J0D01*
G01*
X-137123Y-173708D02*
G03*
X-137123Y-173708I-1J0D01*
G01*
X-137301Y-173727D02*
G03*
X-137301Y-173727I-1J0D01*
G01*
X-137295D02*
G03*
X-137295Y-173727I-1J0D01*
G01*
X-137257Y-173736D02*
G03*
X-137257Y-173736I-1J0D01*
G01*
X-137145D02*
G03*
X-137145Y-173736I-1J0D01*
G01*
X-137202D02*
G03*
X-137202Y-173736I-1J0D01*
G01*
X-137225Y-173732D02*
G03*
X-137225Y-173732I-1J0D01*
G01*
X-137095Y-173722D02*
G03*
X-137095Y-173722I-1J0D01*
G01*
X-137153D02*
G03*
X-137153Y-173722I-1J0D01*
G01*
X-137208Y-173723D02*
G03*
X-137208Y-173723I-1J0D01*
G01*
X-137263D02*
G03*
X-137263Y-173723I-1J0D01*
G01*
X-137240Y-173727D02*
G03*
X-137240Y-173727I-1J0D01*
G01*
X-137170Y-173732D02*
G03*
X-137170Y-173732I-1J0D01*
G01*
X-137128Y-173727D02*
G03*
X-137128Y-173727I-1J0D01*
G01*
X-137185D02*
G03*
X-137185Y-173727I-1J0D01*
G01*
X-137117Y-173602D02*
G03*
X-137117Y-173602I-1J0D01*
G01*
X-137280Y-173732D02*
G03*
X-137280Y-173732I-1J0D01*
G01*
X-137256Y-173544D02*
G03*
X-137256Y-173544I-1J0D01*
G01*
X-137256Y-173520D02*
G03*
X-137256Y-173520I-1J0D01*
G01*
X-137241Y-173528D02*
G03*
X-137241Y-173528I-1J0D01*
G01*
X-137217Y-173646D02*
G03*
X-137217Y-173646I-1J0D01*
G01*
X-137278Y-173566D02*
G03*
X-137278Y-173566I-1J0D01*
G01*
X-137348Y-173526D02*
G03*
X-137348Y-173526I-1J0D01*
G01*
X-137331Y-173601D02*
G03*
X-137331Y-173601I-1J0D01*
G01*
Y-173607D02*
G03*
X-137331Y-173607I-1J0D01*
G01*
X-137343Y-173559D02*
G03*
X-137343Y-173559I-1J0D01*
G01*
X-137055Y-173529D02*
G03*
X-137055Y-173529I-1J0D01*
G01*
X-137061Y-173533D02*
G03*
X-137061Y-173533I-1J0D01*
G01*
X-137190Y-173580D02*
G03*
X-137190Y-173580I-1J0D01*
G01*
X-137135Y-173517D02*
G03*
X-137135Y-173517I-1J0D01*
G01*
X-137196Y-173577D02*
G03*
X-137196Y-173577I-1J0D01*
G01*
X-137236Y-173507D02*
G03*
X-137236Y-173507I-1J0D01*
G01*
X-137164Y-173551D02*
G03*
X-137164Y-173551I-1J0D01*
G01*
X-137172D02*
G03*
X-137172Y-173551I-1J0D01*
G01*
X-137212Y-173556D02*
G03*
X-137212Y-173556I-1J0D01*
G01*
X-137223Y-173525D02*
G03*
X-137223Y-173525I-1J0D01*
G01*
X-137252Y-173520D02*
G03*
X-137252Y-173520I-1J0D01*
G01*
X-137072Y-173528D02*
G03*
X-137072Y-173528I-1J0D01*
G01*
X-137223Y-173547D02*
G03*
X-137223Y-173547I-1J0D01*
G01*
Y-173551D02*
G03*
X-137223Y-173551I-1J0D01*
G01*
Y-173542D02*
G03*
X-137223Y-173542I-1J0D01*
G01*
X-137315Y-173502D02*
G03*
X-137315Y-173502I-1J0D01*
G01*
X-137090Y-173524D02*
G03*
X-137090Y-173524I-1J0D01*
G01*
X-137055Y-173533D02*
G03*
X-137055Y-173533I-1J0D01*
G01*
X-137323Y-173536D02*
G03*
X-137323Y-173536I-1J0D01*
G01*
X-137226Y-173533D02*
G03*
X-137226Y-173533I-1J0D01*
G01*
X-137244Y-173562D02*
G03*
X-137244Y-173562I-1J0D01*
G01*
X-137263Y-173522D02*
G03*
X-137263Y-173522I-1J0D01*
G01*
X-137271Y-173555D02*
G03*
X-137271Y-173555I-1J0D01*
G01*
X-137212Y-173561D02*
G03*
X-137212Y-173561I-1J0D01*
G01*
X-137234Y-173573D02*
G03*
X-137234Y-173573I-1J0D01*
G01*
X-137210Y-173521D02*
G03*
X-137210Y-173521I-1J0D01*
G01*
X-137192Y-173510D02*
G03*
X-137192Y-173510I-1J0D01*
G01*
X-137142Y-173507D02*
G03*
X-137142Y-173507I-1J0D01*
G01*
X-137141Y-173502D02*
G03*
X-137141Y-173502I-1J0D01*
G01*
X-137120Y-173591D02*
G03*
X-137120Y-173591I-1J0D01*
G01*
X-137137Y-173616D02*
G03*
X-137137Y-173616I-1J0D01*
G01*
X-137133Y-173545D02*
G03*
X-137133Y-173545I-1J0D01*
G01*
X-137153Y-173570D02*
G03*
X-137153Y-173570I-1J0D01*
G01*
Y-173580D02*
G03*
X-137153Y-173580I-1J0D01*
G01*
X-137213Y-173504D02*
G03*
X-137213Y-173504I-1J0D01*
G01*
X-137277Y-173513D02*
G03*
X-137277Y-173513I-1J0D01*
G01*
X-137263D02*
G03*
X-137263Y-173513I-1J0D01*
G01*
X-137338Y-173533D02*
G03*
X-137338Y-173533I-1J0D01*
G01*
X-137351Y-173508D02*
G03*
X-137351Y-173508I-1J0D01*
G01*
Y-173520D02*
G03*
X-137351Y-173520I-1J0D01*
G01*
Y-173517D02*
G03*
X-137351Y-173517I-1J0D01*
G01*
Y-173514D02*
G03*
X-137351Y-173514I-1J0D01*
G01*
Y-173511D02*
G03*
X-137351Y-173511I-1J0D01*
G01*
Y-173504D02*
G03*
X-137351Y-173504I-1J0D01*
G01*
Y-173501D02*
G03*
X-137351Y-173501I-1J0D01*
G01*
Y-173498D02*
G03*
X-137351Y-173498I-1J0D01*
G01*
X-137352Y-173533D02*
G03*
X-137352Y-173533I-1J0D01*
G01*
Y-173545D02*
G03*
X-137352Y-173545I-1J0D01*
G01*
Y-173542D02*
G03*
X-137352Y-173542I-1J0D01*
G01*
Y-173539D02*
G03*
X-137352Y-173539I-1J0D01*
G01*
Y-173536D02*
G03*
X-137352Y-173536I-1J0D01*
G01*
Y-173530D02*
G03*
X-137352Y-173530I-1J0D01*
G01*
Y-173527D02*
G03*
X-137352Y-173527I-1J0D01*
G01*
Y-173523D02*
G03*
X-137352Y-173523I-1J0D01*
G01*
Y-173558D02*
G03*
X-137352Y-173558I-1J0D01*
G01*
Y-173570D02*
G03*
X-137352Y-173570I-1J0D01*
G01*
Y-173567D02*
G03*
X-137352Y-173567I-1J0D01*
G01*
Y-173564D02*
G03*
X-137352Y-173564I-1J0D01*
G01*
Y-173561D02*
G03*
X-137352Y-173561I-1J0D01*
G01*
Y-173555D02*
G03*
X-137352Y-173555I-1J0D01*
G01*
Y-173551D02*
G03*
X-137352Y-173551I-1J0D01*
G01*
Y-173548D02*
G03*
X-137352Y-173548I-1J0D01*
G01*
Y-173583D02*
G03*
X-137352Y-173583I-1J0D01*
G01*
Y-173589D02*
G03*
X-137352Y-173589I-1J0D01*
G01*
Y-173586D02*
G03*
X-137352Y-173586I-1J0D01*
G01*
Y-173580D02*
G03*
X-137352Y-173580I-1J0D01*
G01*
Y-173576D02*
G03*
X-137352Y-173576I-1J0D01*
G01*
Y-173573D02*
G03*
X-137352Y-173573I-1J0D01*
G01*
X-137305Y-173586D02*
G03*
X-137305Y-173586I-1J0D01*
G01*
Y-173583D02*
G03*
X-137305Y-173583I-1J0D01*
G01*
X-137326Y-173589D02*
G03*
X-137326Y-173589I-1J0D01*
G01*
X-137348D02*
G03*
X-137348Y-173589I-1J0D01*
G01*
X-137342D02*
G03*
X-137342Y-173589I-1J0D01*
G01*
X-137339D02*
G03*
X-137339Y-173589I-1J0D01*
G01*
X-137345D02*
G03*
X-137345Y-173589I-1J0D01*
G01*
X-137323D02*
G03*
X-137323Y-173589I-1J0D01*
G01*
X-137304Y-173554D02*
G03*
X-137304Y-173554I-1J0D01*
G01*
Y-173557D02*
G03*
X-137304Y-173557I-1J0D01*
G01*
Y-173564D02*
G03*
X-137304Y-173564I-1J0D01*
G01*
Y-173561D02*
G03*
X-137304Y-173561I-1J0D01*
G01*
X-137304Y-173536D02*
G03*
X-137304Y-173536I-1J0D01*
G01*
Y-173526D02*
G03*
X-137304Y-173526I-1J0D01*
G01*
Y-173529D02*
G03*
X-137304Y-173529I-1J0D01*
G01*
Y-173532D02*
G03*
X-137304Y-173532I-1J0D01*
G01*
Y-173539D02*
G03*
X-137304Y-173539I-1J0D01*
G01*
Y-173542D02*
G03*
X-137304Y-173542I-1J0D01*
G01*
Y-173545D02*
G03*
X-137304Y-173545I-1J0D01*
G01*
X-137304Y-173548D02*
G03*
X-137304Y-173548I-1J0D01*
G01*
Y-173551D02*
G03*
X-137304Y-173551I-1J0D01*
G01*
X-137304Y-173501D02*
G03*
X-137304Y-173501I-1J0D01*
G01*
Y-173517D02*
G03*
X-137304Y-173517I-1J0D01*
G01*
Y-173520D02*
G03*
X-137304Y-173520I-1J0D01*
G01*
Y-173523D02*
G03*
X-137304Y-173523I-1J0D01*
G01*
Y-173504D02*
G03*
X-137304Y-173504I-1J0D01*
G01*
Y-173514D02*
G03*
X-137304Y-173514I-1J0D01*
G01*
Y-173511D02*
G03*
X-137304Y-173511I-1J0D01*
G01*
Y-173507D02*
G03*
X-137304Y-173507I-1J0D01*
G01*
X-137313Y-173589D02*
G03*
X-137313Y-173589I-1J0D01*
G01*
X-137305D02*
G03*
X-137305Y-173589I-1J0D01*
G01*
X-137309D02*
G03*
X-137309Y-173589I-1J0D01*
G01*
X-137304Y-173498D02*
G03*
X-137304Y-173498I-1J0D01*
G01*
%TF.MD5,e08107c4629ec14c8e954007987477ed*%
M02*
