%TF.GenerationSoftware,Altium Limited,Altium Designer,22.10.1 (41)*%
G04 Layer_Color=32896*
%FSLAX25Y25*%
%MOIN*%
%TF.SameCoordinates,BEAA4B2D-68BC-4382-99D5-5DCEA874A810*%
%TF.FilePolarity,Positive*%
%TF.FileFunction,Other,Mechanical_20*%
%TF.Part,Single*%
G01*
G75*
%TA.AperFunction,NonConductor*%
%ADD118C,0.00050*%
G36*
X-137054Y-173499D02*
X-137053Y-173501D01*
X-137053D01*
Y-173504D01*
X-137053D01*
X-137054Y-173506D01*
X-137056Y-173507D01*
X-137058Y-173506D01*
X-137059Y-173504D01*
X-137058Y-173501D01*
X-137059D01*
X-137058Y-173499D01*
X-137056Y-173498D01*
X-137054Y-173499D01*
D02*
G37*
G36*
X-137084D02*
X-137083Y-173501D01*
X-137084D01*
Y-173504D01*
X-137083D01*
X-137084Y-173506D01*
X-137086Y-173507D01*
X-137088Y-173506D01*
X-137089Y-173504D01*
X-137089Y-173501D01*
X-137089D01*
X-137088Y-173499D01*
X-137086Y-173498D01*
X-137084Y-173499D01*
D02*
G37*
G36*
X-137318Y-173514D02*
X-137326D01*
Y-173508D01*
X-137318D01*
Y-173514D01*
D02*
G37*
G36*
X-137331Y-173514D02*
D01*
Y-173514D01*
X-137339D01*
Y-173508D01*
Y-173508D01*
X-137331D01*
X-137331Y-173514D01*
D02*
G37*
G36*
X-137318Y-173518D02*
X-137318Y-173519D01*
X-137318Y-173526D01*
X-137318D01*
X-137318Y-173526D01*
X-137319Y-173527D01*
X-137320Y-173527D01*
Y-173527D01*
X-137321Y-173526D01*
X-137321Y-173526D01*
X-137321D01*
Y-173519D01*
X-137321D01*
X-137321Y-173518D01*
X-137320Y-173518D01*
X-137319Y-173518D01*
Y-173518D01*
X-137318Y-173518D01*
D02*
G37*
G36*
X-137323D02*
X-137323Y-173519D01*
X-137323Y-173526D01*
X-137323D01*
X-137323Y-173526D01*
X-137324Y-173527D01*
X-137325Y-173527D01*
Y-173527D01*
X-137326Y-173526D01*
X-137326Y-173526D01*
X-137326D01*
Y-173519D01*
X-137326D01*
X-137326Y-173518D01*
X-137325Y-173518D01*
X-137324Y-173518D01*
Y-173518D01*
X-137323Y-173518D01*
D02*
G37*
G36*
X-137328D02*
X-137328Y-173519D01*
X-137328Y-173526D01*
X-137328D01*
X-137328Y-173526D01*
X-137329Y-173527D01*
X-137330Y-173527D01*
Y-173527D01*
X-137331Y-173526D01*
X-137331Y-173526D01*
X-137331D01*
Y-173519D01*
X-137331D01*
X-137331Y-173518D01*
X-137330Y-173518D01*
X-137329Y-173518D01*
Y-173518D01*
X-137328Y-173518D01*
D02*
G37*
G36*
X-137333D02*
X-137333Y-173519D01*
X-137333Y-173526D01*
X-137333D01*
X-137333Y-173526D01*
X-137334Y-173527D01*
X-137335Y-173527D01*
Y-173527D01*
X-137336Y-173526D01*
X-137336Y-173526D01*
X-137336D01*
Y-173519D01*
X-137336D01*
X-137336Y-173518D01*
X-137335Y-173518D01*
X-137334Y-173518D01*
Y-173518D01*
X-137333Y-173518D01*
D02*
G37*
G36*
X-137293Y-173520D02*
X-137300D01*
Y-173513D01*
X-137293D01*
Y-173520D01*
D02*
G37*
G36*
X-137054Y-173514D02*
X-137053Y-173516D01*
X-137053D01*
Y-173519D01*
X-137053D01*
X-137054Y-173521D01*
X-137056Y-173522D01*
X-137059Y-173521D01*
X-137060Y-173519D01*
X-137060Y-173516D01*
X-137060D01*
X-137059Y-173514D01*
X-137056Y-173513D01*
X-137054Y-173514D01*
D02*
G37*
G36*
X-137083D02*
X-137082Y-173516D01*
X-137082D01*
Y-173519D01*
X-137082D01*
X-137083Y-173521D01*
X-137086Y-173522D01*
X-137088Y-173521D01*
X-137089Y-173519D01*
X-137089Y-173516D01*
X-137089D01*
X-137088Y-173514D01*
X-137086Y-173513D01*
X-137083Y-173514D01*
D02*
G37*
G36*
X-137318Y-173538D02*
X-137318Y-173538D01*
X-137318Y-173545D01*
X-137318D01*
X-137318Y-173546D01*
X-137319Y-173546D01*
X-137320Y-173546D01*
Y-173546D01*
X-137321Y-173546D01*
X-137321Y-173545D01*
X-137321D01*
Y-173538D01*
X-137321D01*
X-137321Y-173538D01*
X-137320Y-173537D01*
X-137319Y-173538D01*
Y-173537D01*
X-137318Y-173538D01*
D02*
G37*
G36*
X-137323D02*
X-137323Y-173538D01*
X-137323Y-173545D01*
X-137323D01*
X-137323Y-173546D01*
X-137324Y-173546D01*
X-137325Y-173546D01*
Y-173546D01*
X-137326Y-173546D01*
X-137326Y-173545D01*
X-137326D01*
Y-173538D01*
X-137326D01*
X-137326Y-173538D01*
X-137325Y-173537D01*
X-137324Y-173538D01*
Y-173537D01*
X-137323Y-173538D01*
D02*
G37*
G36*
X-137328D02*
X-137328Y-173538D01*
X-137328Y-173545D01*
X-137328D01*
X-137328Y-173546D01*
X-137329Y-173546D01*
X-137330Y-173546D01*
Y-173546D01*
X-137331Y-173546D01*
X-137331Y-173545D01*
X-137331D01*
Y-173538D01*
X-137331D01*
X-137331Y-173538D01*
X-137330Y-173537D01*
X-137329Y-173538D01*
Y-173537D01*
X-137328Y-173538D01*
D02*
G37*
G36*
X-137333D02*
X-137333Y-173538D01*
X-137333Y-173545D01*
X-137333D01*
X-137333Y-173546D01*
X-137334Y-173546D01*
X-137335Y-173546D01*
Y-173546D01*
X-137336Y-173546D01*
X-137336Y-173545D01*
X-137336D01*
Y-173538D01*
X-137336D01*
X-137336Y-173538D01*
X-137335Y-173537D01*
X-137334Y-173538D01*
Y-173537D01*
X-137333Y-173538D01*
D02*
G37*
G36*
X-137075Y-173538D02*
X-137085D01*
Y-173530D01*
X-137075D01*
Y-173538D01*
D02*
G37*
G36*
X-137091D02*
X-137101D01*
Y-173530D01*
X-137091D01*
Y-173538D01*
D02*
G37*
G36*
X-137109Y-173547D02*
X-137116D01*
Y-173542D01*
X-137109D01*
Y-173547D01*
D02*
G37*
G36*
X-137144D02*
X-137151D01*
Y-173542D01*
X-137144D01*
Y-173547D01*
D02*
G37*
G36*
X-137113Y-173557D02*
X-137117D01*
Y-173553D01*
X-137113D01*
Y-173557D01*
D02*
G37*
G36*
X-137119D02*
X-137123D01*
Y-173553D01*
X-137119D01*
Y-173557D01*
D02*
G37*
G36*
X-137126D02*
X-137130D01*
Y-173553D01*
X-137126D01*
Y-173557D01*
D02*
G37*
G36*
X-137132D02*
X-137136D01*
Y-173553D01*
X-137132D01*
Y-173557D01*
D02*
G37*
G36*
X-137075Y-173557D02*
X-137082D01*
Y-173543D01*
X-137075D01*
Y-173557D01*
D02*
G37*
G36*
X-137092D02*
X-137099D01*
Y-173543D01*
X-137092D01*
Y-173557D01*
D02*
G37*
G36*
X-137139Y-173558D02*
X-137143D01*
Y-173554D01*
X-137139D01*
Y-173558D01*
D02*
G37*
G36*
X-137145D02*
X-137148D01*
Y-173554D01*
X-137145D01*
Y-173558D01*
D02*
G37*
G36*
X-137318Y-173559D02*
X-137326D01*
Y-173553D01*
X-137318D01*
Y-173559D01*
D02*
G37*
G36*
X-137331Y-173559D02*
D01*
Y-173559D01*
X-137339D01*
Y-173553D01*
Y-173553D01*
X-137331D01*
X-137331Y-173559D01*
D02*
G37*
G36*
X-137104Y-173560D02*
Y-173566D01*
X-137112D01*
Y-173566D01*
X-137112D01*
Y-173563D01*
Y-173560D01*
X-137104D01*
Y-173560D01*
D02*
G37*
G36*
X-137117Y-173566D02*
X-137125D01*
Y-173566D01*
Y-173560D01*
X-137117D01*
Y-173566D01*
D02*
G37*
G36*
X-137075Y-173566D02*
X-137083D01*
Y-173560D01*
X-137075D01*
Y-173566D01*
D02*
G37*
G36*
X-137088Y-173566D02*
D01*
Y-173566D01*
X-137096D01*
Y-173560D01*
D01*
Y-173560D01*
X-137088D01*
X-137088Y-173566D01*
D02*
G37*
G36*
X-137135Y-173573D02*
X-137135D01*
Y-173573D01*
X-137138D01*
X-137141D01*
Y-173565D01*
X-137135D01*
Y-173573D01*
D02*
G37*
G36*
X-137124Y-173575D02*
X-137133D01*
Y-173571D01*
X-137124D01*
Y-173575D01*
D02*
G37*
G36*
X-137145Y-173578D02*
X-137149D01*
Y-173574D01*
X-137145D01*
Y-173578D01*
D02*
G37*
G36*
X-137124Y-173584D02*
X-137133D01*
Y-173580D01*
X-137124D01*
Y-173584D01*
D02*
G37*
G36*
X-137145Y-173584D02*
X-137149D01*
Y-173580D01*
X-137145D01*
Y-173584D01*
D02*
G37*
G36*
X-137135Y-173586D02*
X-137141D01*
Y-173578D01*
X-137135D01*
Y-173586D01*
D02*
G37*
G36*
X-137101Y-173589D02*
X-137110D01*
Y-173575D01*
X-137101D01*
Y-173589D01*
D02*
G37*
G36*
X-137056Y-173589D02*
X-137065D01*
Y-173581D01*
X-137056D01*
Y-173589D01*
D02*
G37*
G36*
X-137080D02*
X-137089D01*
Y-173581D01*
X-137080D01*
Y-173589D01*
D02*
G37*
G36*
X-137124Y-173593D02*
X-137133D01*
Y-173589D01*
X-137124D01*
Y-173593D01*
D02*
G37*
G36*
Y-173604D02*
X-137133D01*
Y-173600D01*
X-137124D01*
Y-173604D01*
D02*
G37*
G36*
X-137191Y-173608D02*
X-137198D01*
Y-173602D01*
X-137191D01*
Y-173608D01*
D02*
G37*
G36*
X-137135Y-173613D02*
X-137141D01*
Y-173605D01*
X-137135D01*
Y-173613D01*
D02*
G37*
G36*
X-137124Y-173613D02*
X-137133D01*
Y-173609D01*
X-137124D01*
Y-173613D01*
D02*
G37*
G36*
X-137135Y-173626D02*
X-137141D01*
Y-173618D01*
X-137135Y-173618D01*
D01*
X-137135D01*
Y-173626D01*
D02*
G37*
G36*
X-137101Y-173618D02*
X-137110D01*
Y-173604D01*
X-137101D01*
Y-173618D01*
D02*
G37*
G36*
X-137143Y-173620D02*
X-137147D01*
Y-173616D01*
X-137143D01*
Y-173620D01*
D02*
G37*
G36*
X-137124Y-173622D02*
X-137133D01*
Y-173618D01*
X-137124D01*
Y-173622D01*
D02*
G37*
G36*
X-137143Y-173626D02*
X-137147D01*
Y-173622D01*
X-137143D01*
Y-173626D01*
D02*
G37*
G36*
X-137220Y-173632D02*
X-137227D01*
Y-173625D01*
X-137220D01*
Y-173632D01*
D02*
G37*
G36*
X-137056Y-173633D02*
X-137065D01*
Y-173624D01*
X-137056D01*
Y-173633D01*
D02*
G37*
G36*
X-137080D02*
X-137089D01*
Y-173624D01*
X-137080D01*
Y-173633D01*
D02*
G37*
G36*
X-137121Y-173636D02*
X-137128D01*
Y-173629D01*
X-137121D01*
Y-173636D01*
D02*
G37*
G36*
X-137341Y-173654D02*
X-137347D01*
Y-173648D01*
X-137341D01*
Y-173654D01*
D02*
G37*
G36*
X-137119Y-173657D02*
X-137125D01*
Y-173651D01*
X-137119D01*
Y-173657D01*
D02*
G37*
G36*
X-137220D02*
X-137227D01*
Y-173651D01*
X-137220D01*
Y-173657D01*
D02*
G37*
G36*
X-137069Y-173720D02*
X-137076D01*
Y-173713D01*
X-137069D01*
Y-173720D01*
D02*
G37*
G36*
X-137341Y-173749D02*
X-137347D01*
Y-173742D01*
X-137341D01*
Y-173749D01*
D02*
G37*
G36*
X-137184Y-173809D02*
X-137191D01*
Y-173803D01*
X-137184D01*
Y-173809D01*
D02*
G37*
G36*
X-137286D02*
X-137292D01*
Y-173803D01*
X-137286D01*
Y-173809D01*
D02*
G37*
G36*
X-137068Y-173814D02*
X-137075D01*
Y-173807D01*
X-137068D01*
Y-173814D01*
D02*
G37*
D118*
X-137079Y-173513D02*
G03*
X-137079Y-173513I-2J0D01*
G01*
X-137059D02*
G03*
X-137059Y-173513I-2J0D01*
G01*
X-137191Y-173632D02*
G03*
X-137191Y-173632I-3J0D01*
G01*
X-137181D02*
G03*
X-137181Y-173632I-3J0D01*
G01*
X-137141D02*
G03*
X-137141Y-173632I-3J0D01*
G01*
X-137131D02*
G03*
X-137131Y-173632I-3J0D01*
G01*
X-137151D02*
G03*
X-137151Y-173632I-3J0D01*
G01*
X-137161D02*
G03*
X-137161Y-173632I-3J0D01*
G01*
X-137171D02*
G03*
X-137171Y-173632I-3J0D01*
G01*
X-137068Y-173791D02*
G03*
X-137068Y-173791I-3J0D01*
G01*
Y-173781D02*
G03*
X-137068Y-173781I-3J0D01*
G01*
Y-173801D02*
G03*
X-137068Y-173801I-3J0D01*
G01*
Y-173771D02*
G03*
X-137068Y-173771I-3J0D01*
G01*
Y-173761D02*
G03*
X-137068Y-173761I-3J0D01*
G01*
Y-173751D02*
G03*
X-137068Y-173751I-3J0D01*
G01*
Y-173742D02*
G03*
X-137068Y-173742I-3J0D01*
G01*
X-137069Y-173647D02*
G03*
X-137069Y-173647I-3J0D01*
G01*
Y-173657D02*
G03*
X-137069Y-173657I-3J0D01*
G01*
Y-173667D02*
G03*
X-137069Y-173667I-3J0D01*
G01*
Y-173677D02*
G03*
X-137069Y-173677I-3J0D01*
G01*
Y-173706D02*
G03*
X-137069Y-173706I-3J0D01*
G01*
Y-173687D02*
G03*
X-137069Y-173687I-3J0D01*
G01*
Y-173696D02*
G03*
X-137069Y-173696I-3J0D01*
G01*
X-137289Y-173628D02*
G03*
X-137289Y-173628I-3J0D01*
G01*
X-137279D02*
G03*
X-137279Y-173628I-3J0D01*
G01*
X-137269D02*
G03*
X-137269Y-173628I-3J0D01*
G01*
X-137260D02*
G03*
X-137260Y-173628I-3J0D01*
G01*
X-137230D02*
G03*
X-137230Y-173628I-3J0D01*
G01*
X-137250D02*
G03*
X-137250Y-173628I-3J0D01*
G01*
X-137240D02*
G03*
X-137240Y-173628I-3J0D01*
G01*
X-137115Y-173806D02*
G03*
X-137115Y-173806I-3J0D01*
G01*
X-137125D02*
G03*
X-137125Y-173806I-3J0D01*
G01*
X-137135D02*
G03*
X-137135Y-173806I-3J0D01*
G01*
X-137144D02*
G03*
X-137144Y-173806I-3J0D01*
G01*
X-137174D02*
G03*
X-137174Y-173806I-3J0D01*
G01*
X-137154D02*
G03*
X-137154Y-173806I-3J0D01*
G01*
X-137164D02*
G03*
X-137164Y-173806I-3J0D01*
G01*
X-137138Y-173654D02*
G03*
X-137138Y-173654I-3J0D01*
G01*
X-137148D02*
G03*
X-137148Y-173654I-3J0D01*
G01*
X-137128D02*
G03*
X-137128Y-173654I-3J0D01*
G01*
X-137158D02*
G03*
X-137158Y-173654I-3J0D01*
G01*
X-137168D02*
G03*
X-137168Y-173654I-3J0D01*
G01*
X-137178D02*
G03*
X-137178Y-173654I-3J0D01*
G01*
X-137188D02*
G03*
X-137188Y-173654I-3J0D01*
G01*
X-137289D02*
G03*
X-137289Y-173654I-3J0D01*
G01*
X-137279D02*
G03*
X-137279Y-173654I-3J0D01*
G01*
X-137270D02*
G03*
X-137270Y-173654I-3J0D01*
G01*
X-137260D02*
G03*
X-137260Y-173654I-3J0D01*
G01*
X-137230D02*
G03*
X-137230Y-173654I-3J0D01*
G01*
X-137250D02*
G03*
X-137250Y-173654I-3J0D01*
G01*
X-137240D02*
G03*
X-137240Y-173654I-3J0D01*
G01*
X-137341Y-173814D02*
G03*
X-137341Y-173814I-3J0D01*
G01*
Y-173804D02*
G03*
X-137341Y-173804I-3J0D01*
G01*
Y-173794D02*
G03*
X-137341Y-173794I-3J0D01*
G01*
Y-173785D02*
G03*
X-137341Y-173785I-3J0D01*
G01*
Y-173755D02*
G03*
X-137341Y-173755I-3J0D01*
G01*
Y-173775D02*
G03*
X-137341Y-173775I-3J0D01*
G01*
Y-173765D02*
G03*
X-137341Y-173765I-3J0D01*
G01*
Y-173671D02*
G03*
X-137341Y-173671I-3J0D01*
G01*
Y-173680D02*
G03*
X-137341Y-173680I-3J0D01*
G01*
Y-173661D02*
G03*
X-137341Y-173661I-3J0D01*
G01*
Y-173690D02*
G03*
X-137341Y-173690I-3J0D01*
G01*
Y-173700D02*
G03*
X-137341Y-173700I-3J0D01*
G01*
Y-173710D02*
G03*
X-137341Y-173710I-3J0D01*
G01*
Y-173720D02*
G03*
X-137341Y-173720I-3J0D01*
G01*
X-137151Y-173605D02*
G03*
X-137151Y-173605I-3J0D01*
G01*
X-137161D02*
G03*
X-137161Y-173605I-3J0D01*
G01*
X-137181D02*
G03*
X-137181Y-173605I-3J0D01*
G01*
X-137171D02*
G03*
X-137171Y-173605I-3J0D01*
G01*
X-137057Y-173607D02*
G03*
X-137057Y-173607I-4J0D01*
G01*
X-137074D02*
G03*
X-137074Y-173607I-4J0D01*
G01*
X-137293Y-173546D02*
G03*
X-137293Y-173546I-4J0D01*
G01*
Y-173536D02*
G03*
X-137293Y-173536I-4J0D01*
G01*
Y-173526D02*
G03*
X-137293Y-173526I-4J0D01*
G01*
X-137339Y-173576D02*
G03*
X-137339Y-173576I-3J0D01*
G01*
X-137331D02*
G03*
X-137331Y-173576I-3J0D01*
G01*
X-137190Y-173526D02*
G03*
X-137190Y-173526I-2J0D01*
G01*
X-137185D02*
G03*
X-137185Y-173526I-2J0D01*
G01*
Y-173531D02*
G03*
X-137185Y-173531I-2J0D01*
G01*
X-137190D02*
G03*
X-137190Y-173531I-2J0D01*
G01*
X-137193Y-173529D02*
G03*
X-137193Y-173529I-2J0D01*
G01*
X-137187D02*
G03*
X-137187Y-173529I-2J0D01*
G01*
X-137182D02*
G03*
X-137182Y-173529I-2J0D01*
G01*
X-137185Y-173537D02*
G03*
X-137185Y-173537I-2J0D01*
G01*
X-137193Y-173534D02*
G03*
X-137193Y-173534I-2J0D01*
G01*
X-137187D02*
G03*
X-137187Y-173534I-2J0D01*
G01*
X-137182D02*
G03*
X-137182Y-173534I-2J0D01*
G01*
X-137190Y-173537D02*
G03*
X-137190Y-173537I-2J0D01*
G01*
X-137266Y-173806D02*
G03*
X-137266Y-173806I-3J0D01*
G01*
X-137256D02*
G03*
X-137256Y-173806I-3J0D01*
G01*
X-137276D02*
G03*
X-137276Y-173806I-3J0D01*
G01*
X-137246D02*
G03*
X-137246Y-173806I-3J0D01*
G01*
X-137236D02*
G03*
X-137236Y-173806I-3J0D01*
G01*
X-137227D02*
G03*
X-137227Y-173806I-3J0D01*
G01*
X-137217D02*
G03*
X-137217Y-173806I-3J0D01*
G01*
%TF.MD5,bed29ef1e968eb9d8edf3acc4f66d19f*%
M02*
