%TF.GenerationSoftware,Altium Limited,Altium Designer,22.10.1 (41)*%
G04 Layer_Color=16711935*
%FSLAX25Y25*%
%MOIN*%
%TF.SameCoordinates,BEAA4B2D-68BC-4382-99D5-5DCEA874A810*%
%TF.FilePolarity,Positive*%
%TF.FileFunction,Other,Mechanical_21*%
%TF.Part,Single*%
G01*
G75*
%TA.AperFunction,NonConductor*%
%ADD118C,0.00050*%
G36*
X-137084Y-173515D02*
X-137084Y-173516D01*
X-137084D01*
Y-173519D01*
X-137084D01*
X-137084Y-173520D01*
X-137086Y-173520D01*
X-137087Y-173520D01*
X-137088Y-173519D01*
X-137087Y-173516D01*
X-137088D01*
X-137087Y-173515D01*
X-137086Y-173514D01*
X-137084Y-173515D01*
D02*
G37*
G36*
X-137085Y-173500D02*
X-137085Y-173501D01*
X-137085D01*
Y-173504D01*
X-137085D01*
X-137085Y-173505D01*
X-137086Y-173505D01*
X-137087Y-173505D01*
X-137087Y-173504D01*
X-137087Y-173501D01*
X-137087D01*
X-137087Y-173500D01*
X-137086Y-173500D01*
X-137085Y-173500D01*
D02*
G37*
G36*
X-137055Y-173515D02*
X-137055Y-173516D01*
X-137055D01*
Y-173519D01*
X-137055D01*
X-137055Y-173520D01*
X-137056Y-173520D01*
X-137058Y-173520D01*
X-137058Y-173519D01*
X-137058Y-173516D01*
X-137058D01*
X-137058Y-173515D01*
X-137056Y-173514D01*
X-137055Y-173515D01*
D02*
G37*
G36*
X-137055Y-173500D02*
X-137055Y-173501D01*
X-137055D01*
Y-173504D01*
X-137055D01*
X-137055Y-173505D01*
X-137056Y-173505D01*
X-137057Y-173505D01*
X-137057Y-173504D01*
X-137057Y-173501D01*
X-137057D01*
X-137057Y-173500D01*
X-137056Y-173500D01*
X-137055Y-173500D01*
D02*
G37*
D118*
X-137079Y-173513D02*
G03*
X-137079Y-173513I-2J0D01*
G01*
X-137060D02*
G03*
X-137060Y-173513I-2J0D01*
G01*
X-137192Y-173632D02*
G03*
X-137192Y-173632I-2J0D01*
G01*
X-137182D02*
G03*
X-137182Y-173632I-2J0D01*
G01*
X-137143D02*
G03*
X-137143Y-173632I-2J0D01*
G01*
X-137122D02*
G03*
X-137122Y-173632I-2J0D01*
G01*
X-137133D02*
G03*
X-137133Y-173632I-2J0D01*
G01*
X-137153D02*
G03*
X-137153Y-173632I-2J0D01*
G01*
X-137162D02*
G03*
X-137162Y-173632I-2J0D01*
G01*
X-137172D02*
G03*
X-137172Y-173632I-2J0D01*
G01*
X-137070Y-173791D02*
G03*
X-137070Y-173791I-2J0D01*
G01*
Y-173781D02*
G03*
X-137070Y-173781I-2J0D01*
G01*
Y-173801D02*
G03*
X-137070Y-173801I-2J0D01*
G01*
Y-173811D02*
G03*
X-137070Y-173811I-2J0D01*
G01*
Y-173771D02*
G03*
X-137070Y-173771I-2J0D01*
G01*
Y-173761D02*
G03*
X-137070Y-173761I-2J0D01*
G01*
Y-173751D02*
G03*
X-137070Y-173751I-2J0D01*
G01*
Y-173742D02*
G03*
X-137070Y-173742I-2J0D01*
G01*
X-137070Y-173647D02*
G03*
X-137070Y-173647I-2J0D01*
G01*
Y-173657D02*
G03*
X-137070Y-173657I-2J0D01*
G01*
Y-173667D02*
G03*
X-137070Y-173667I-2J0D01*
G01*
Y-173677D02*
G03*
X-137070Y-173677I-2J0D01*
G01*
Y-173716D02*
G03*
X-137070Y-173716I-2J0D01*
G01*
Y-173706D02*
G03*
X-137070Y-173706I-2J0D01*
G01*
Y-173687D02*
G03*
X-137070Y-173687I-2J0D01*
G01*
Y-173696D02*
G03*
X-137070Y-173696I-2J0D01*
G01*
X-137291Y-173628D02*
G03*
X-137291Y-173628I-2J0D01*
G01*
X-137281D02*
G03*
X-137281Y-173628I-2J0D01*
G01*
X-137271D02*
G03*
X-137271Y-173628I-2J0D01*
G01*
X-137261D02*
G03*
X-137261Y-173628I-2J0D01*
G01*
X-137222D02*
G03*
X-137222Y-173628I-2J0D01*
G01*
X-137232D02*
G03*
X-137232Y-173628I-2J0D01*
G01*
X-137251D02*
G03*
X-137251Y-173628I-2J0D01*
G01*
X-137241D02*
G03*
X-137241Y-173628I-2J0D01*
G01*
X-137116Y-173806D02*
G03*
X-137116Y-173806I-2J0D01*
G01*
X-137126D02*
G03*
X-137126Y-173806I-2J0D01*
G01*
X-137136D02*
G03*
X-137136Y-173806I-2J0D01*
G01*
X-137146D02*
G03*
X-137146Y-173806I-2J0D01*
G01*
X-137185D02*
G03*
X-137185Y-173806I-2J0D01*
G01*
X-137176D02*
G03*
X-137176Y-173806I-2J0D01*
G01*
X-137156D02*
G03*
X-137156Y-173806I-2J0D01*
G01*
X-137166D02*
G03*
X-137166Y-173806I-2J0D01*
G01*
X-137140Y-173654D02*
G03*
X-137140Y-173654I-2J0D01*
G01*
X-137150D02*
G03*
X-137150Y-173654I-2J0D01*
G01*
X-137130D02*
G03*
X-137130Y-173654I-2J0D01*
G01*
X-137120D02*
G03*
X-137120Y-173654I-2J0D01*
G01*
X-137159D02*
G03*
X-137159Y-173654I-2J0D01*
G01*
X-137169D02*
G03*
X-137169Y-173654I-2J0D01*
G01*
X-137179D02*
G03*
X-137179Y-173654I-2J0D01*
G01*
X-137189D02*
G03*
X-137189Y-173654I-2J0D01*
G01*
X-137291D02*
G03*
X-137291Y-173654I-2J0D01*
G01*
X-137281D02*
G03*
X-137281Y-173654I-2J0D01*
G01*
X-137271D02*
G03*
X-137271Y-173654I-2J0D01*
G01*
X-137261D02*
G03*
X-137261Y-173654I-2J0D01*
G01*
X-137222D02*
G03*
X-137222Y-173654I-2J0D01*
G01*
X-137232D02*
G03*
X-137232Y-173654I-2J0D01*
G01*
X-137251D02*
G03*
X-137251Y-173654I-2J0D01*
G01*
X-137241D02*
G03*
X-137241Y-173654I-2J0D01*
G01*
X-137342Y-173814D02*
G03*
X-137342Y-173814I-2J0D01*
G01*
Y-173804D02*
G03*
X-137342Y-173804I-2J0D01*
G01*
Y-173794D02*
G03*
X-137342Y-173794I-2J0D01*
G01*
Y-173785D02*
G03*
X-137342Y-173785I-2J0D01*
G01*
Y-173745D02*
G03*
X-137342Y-173745I-2J0D01*
G01*
Y-173755D02*
G03*
X-137342Y-173755I-2J0D01*
G01*
Y-173775D02*
G03*
X-137342Y-173775I-2J0D01*
G01*
Y-173765D02*
G03*
X-137342Y-173765I-2J0D01*
G01*
Y-173671D02*
G03*
X-137342Y-173671I-2J0D01*
G01*
Y-173680D02*
G03*
X-137342Y-173680I-2J0D01*
G01*
Y-173661D02*
G03*
X-137342Y-173661I-2J0D01*
G01*
Y-173651D02*
G03*
X-137342Y-173651I-2J0D01*
G01*
Y-173690D02*
G03*
X-137342Y-173690I-2J0D01*
G01*
Y-173700D02*
G03*
X-137342Y-173700I-2J0D01*
G01*
Y-173710D02*
G03*
X-137342Y-173710I-2J0D01*
G01*
Y-173720D02*
G03*
X-137342Y-173720I-2J0D01*
G01*
X-137153Y-173605D02*
G03*
X-137153Y-173605I-2J0D01*
G01*
X-137162D02*
G03*
X-137162Y-173605I-2J0D01*
G01*
X-137182D02*
G03*
X-137182Y-173605I-2J0D01*
G01*
X-137192D02*
G03*
X-137192Y-173605I-2J0D01*
G01*
X-137172D02*
G03*
X-137172Y-173605I-2J0D01*
G01*
X-137057Y-173607D02*
G03*
X-137057Y-173607I-3J0D01*
G01*
X-137074D02*
G03*
X-137074Y-173607I-4J0D01*
G01*
X-137294Y-173546D02*
G03*
X-137294Y-173546I-2J0D01*
G01*
Y-173536D02*
G03*
X-137294Y-173536I-2J0D01*
G01*
Y-173526D02*
G03*
X-137294Y-173526I-2J0D01*
G01*
Y-173516D02*
G03*
X-137294Y-173516I-2J0D01*
G01*
X-137340Y-173576D02*
G03*
X-137340Y-173576I-1J0D01*
G01*
X-137332D02*
G03*
X-137332Y-173576I-1J0D01*
G01*
X-137267Y-173806D02*
G03*
X-137267Y-173806I-2J0D01*
G01*
X-137258D02*
G03*
X-137258Y-173806I-2J0D01*
G01*
X-137277D02*
G03*
X-137277Y-173806I-2J0D01*
G01*
X-137287D02*
G03*
X-137287Y-173806I-2J0D01*
G01*
X-137248D02*
G03*
X-137248Y-173806I-2J0D01*
G01*
X-137238D02*
G03*
X-137238Y-173806I-2J0D01*
G01*
X-137228D02*
G03*
X-137228Y-173806I-2J0D01*
G01*
X-137218D02*
G03*
X-137218Y-173806I-2J0D01*
G01*
%TF.MD5,5e9d80c53e45848220148acd17cbdafc*%
M02*
