%TF.GenerationSoftware,Altium Limited,Altium Designer,22.10.1 (41)*%
G04 Layer_Color=32768*
%FSLAX25Y25*%
%MOIN*%
%TF.SameCoordinates,BEAA4B2D-68BC-4382-99D5-5DCEA874A810*%
%TF.FilePolarity,Positive*%
%TF.FileFunction,Other,Mechanical_19*%
%TF.Part,Single*%
G01*
G75*
%TA.AperFunction,NonConductor*%
%ADD118C,0.00050*%
G36*
X-137144Y-173503D02*
X-137151D01*
Y-173499D01*
X-137144D01*
Y-173503D01*
D02*
G37*
G36*
X-137215D02*
X-137222D01*
Y-173499D01*
X-137215D01*
Y-173503D01*
D02*
G37*
G36*
X-137054Y-173499D02*
X-137053Y-173501D01*
X-137053D01*
Y-173504D01*
X-137053D01*
X-137054Y-173506D01*
X-137056Y-173507D01*
X-137058Y-173506D01*
X-137059Y-173504D01*
X-137058Y-173501D01*
X-137059D01*
X-137058Y-173499D01*
X-137056Y-173498D01*
X-137054Y-173499D01*
D02*
G37*
G36*
X-137084D02*
X-137083Y-173501D01*
X-137084D01*
Y-173504D01*
X-137083D01*
X-137084Y-173506D01*
X-137086Y-173507D01*
X-137088Y-173506D01*
X-137089Y-173504D01*
X-137089Y-173501D01*
X-137089D01*
X-137088Y-173499D01*
X-137086Y-173498D01*
X-137084Y-173499D01*
D02*
G37*
G36*
X-137144Y-173508D02*
X-137151D01*
Y-173504D01*
X-137144D01*
Y-173508D01*
D02*
G37*
G36*
X-137215D02*
X-137222D01*
Y-173504D01*
X-137215D01*
Y-173508D01*
D02*
G37*
G36*
X-137109Y-173509D02*
X-137114D01*
Y-173506D01*
X-137109D01*
Y-173509D01*
D02*
G37*
G36*
X-137135D02*
X-137139D01*
Y-173506D01*
X-137135D01*
Y-173509D01*
D02*
G37*
G36*
X-137103Y-173510D02*
X-137107D01*
Y-173506D01*
X-137103D01*
Y-173510D01*
D02*
G37*
G36*
X-137129D02*
X-137133D01*
Y-173506D01*
X-137129D01*
Y-173510D01*
D02*
G37*
G36*
X-137116Y-173510D02*
X-137125D01*
Y-173505D01*
X-137116D01*
Y-173510D01*
D02*
G37*
G36*
X-137336Y-173510D02*
X-137340D01*
Y-173506D01*
X-137336D01*
Y-173510D01*
D02*
G37*
G36*
X-137342D02*
X-137346D01*
Y-173506D01*
X-137342D01*
Y-173510D01*
D02*
G37*
G36*
X-137092Y-173511D02*
X-137100D01*
Y-173506D01*
X-137092D01*
Y-173511D01*
D02*
G37*
G36*
X-137315Y-173504D02*
X-137314Y-173505D01*
X-137315D01*
Y-173510D01*
X-137314D01*
X-137315Y-173511D01*
X-137316Y-173512D01*
X-137317Y-173511D01*
X-137318Y-173510D01*
X-137318Y-173505D01*
X-137318D01*
X-137317Y-173504D01*
X-137316Y-173503D01*
X-137315Y-173504D01*
D02*
G37*
G36*
X-137320D02*
X-137320Y-173505D01*
X-137320D01*
Y-173510D01*
X-137320D01*
X-137320Y-173511D01*
X-137321Y-173512D01*
X-137322Y-173511D01*
X-137323Y-173510D01*
X-137323Y-173505D01*
X-137323D01*
X-137322Y-173504D01*
X-137321Y-173503D01*
X-137320Y-173504D01*
D02*
G37*
G36*
X-137325D02*
X-137325Y-173505D01*
X-137325D01*
Y-173510D01*
X-137325D01*
X-137325Y-173511D01*
X-137326Y-173512D01*
X-137327Y-173511D01*
X-137328Y-173510D01*
X-137328Y-173505D01*
X-137328D01*
X-137327Y-173504D01*
X-137326Y-173503D01*
X-137325Y-173504D01*
D02*
G37*
G36*
X-137330D02*
X-137329Y-173505D01*
X-137330D01*
Y-173510D01*
X-137329D01*
X-137330Y-173511D01*
X-137331Y-173512D01*
X-137332Y-173511D01*
X-137333Y-173510D01*
X-137333Y-173505D01*
X-137333D01*
X-137332Y-173504D01*
X-137331Y-173503D01*
X-137330Y-173504D01*
D02*
G37*
G36*
X-137144Y-173513D02*
X-137151D01*
Y-173509D01*
X-137144D01*
Y-173513D01*
D02*
G37*
G36*
X-137215D02*
X-137222D01*
Y-173509D01*
X-137215D01*
Y-173513D01*
D02*
G37*
G36*
X-137230Y-173515D02*
X-137233D01*
Y-173511D01*
X-137230D01*
Y-173515D01*
D02*
G37*
G36*
X-137235D02*
X-137238D01*
Y-173511D01*
X-137235D01*
Y-173515D01*
D02*
G37*
G36*
X-137109Y-173515D02*
X-137114D01*
Y-173512D01*
X-137109D01*
Y-173515D01*
D02*
G37*
G36*
X-137135D02*
X-137139D01*
Y-173512D01*
X-137135D01*
Y-173515D01*
D02*
G37*
G36*
X-137280Y-173515D02*
X-137284D01*
Y-173511D01*
X-137280D01*
Y-173515D01*
D02*
G37*
G36*
X-137286D02*
X-137290D01*
Y-173511D01*
X-137286D01*
Y-173515D01*
D02*
G37*
G36*
X-137267Y-173515D02*
X-137270D01*
Y-173512D01*
X-137267D01*
Y-173515D01*
D02*
G37*
G36*
X-137272D02*
X-137276D01*
Y-173512D01*
X-137272D01*
Y-173515D01*
D02*
G37*
G36*
X-137103Y-173516D02*
X-137107D01*
Y-173512D01*
X-137103D01*
Y-173516D01*
D02*
G37*
G36*
X-137129D02*
X-137133D01*
Y-173512D01*
X-137129D01*
Y-173516D01*
D02*
G37*
G36*
X-137336Y-173516D02*
X-137340D01*
Y-173512D01*
X-137336D01*
Y-173516D01*
D02*
G37*
G36*
X-137342D02*
X-137346D01*
Y-173512D01*
X-137342D01*
Y-173516D01*
D02*
G37*
G36*
X-137144Y-173518D02*
X-137151D01*
Y-173514D01*
X-137144D01*
Y-173518D01*
D02*
G37*
G36*
X-137215D02*
X-137222D01*
Y-173514D01*
X-137215D01*
Y-173518D01*
D02*
G37*
G36*
X-137293Y-173520D02*
X-137300D01*
Y-173513D01*
X-137293D01*
Y-173520D01*
D02*
G37*
G36*
X-137065Y-173520D02*
X-137077D01*
Y-173514D01*
X-137065D01*
Y-173520D01*
D02*
G37*
G36*
X-137280Y-173521D02*
X-137284D01*
Y-173517D01*
X-137280D01*
Y-173521D01*
D02*
G37*
G36*
X-137286D02*
X-137290D01*
Y-173517D01*
X-137286D01*
Y-173521D01*
D02*
G37*
G36*
X-137267Y-173521D02*
X-137270D01*
Y-173518D01*
X-137267D01*
Y-173521D01*
D02*
G37*
G36*
X-137272D02*
X-137276D01*
Y-173518D01*
X-137272D01*
Y-173521D01*
D02*
G37*
G36*
X-137342Y-173522D02*
X-137346D01*
Y-173518D01*
X-137342D01*
Y-173522D01*
D02*
G37*
G36*
X-137336Y-173522D02*
X-137340D01*
Y-173518D01*
X-137336D01*
Y-173522D01*
D02*
G37*
G36*
X-137054Y-173514D02*
X-137053Y-173516D01*
X-137053D01*
Y-173519D01*
X-137053D01*
X-137054Y-173521D01*
X-137056Y-173522D01*
X-137059Y-173521D01*
X-137060Y-173519D01*
X-137060Y-173516D01*
X-137060D01*
X-137059Y-173514D01*
X-137056Y-173513D01*
X-137054Y-173514D01*
D02*
G37*
G36*
X-137083D02*
X-137082Y-173516D01*
X-137082D01*
Y-173519D01*
X-137082D01*
X-137083Y-173521D01*
X-137086Y-173522D01*
X-137088Y-173521D01*
X-137089Y-173519D01*
X-137089Y-173516D01*
X-137089D01*
X-137088Y-173514D01*
X-137086Y-173513D01*
X-137083Y-173514D01*
D02*
G37*
G36*
X-137129Y-173522D02*
X-137133D01*
Y-173518D01*
X-137129D01*
Y-173522D01*
D02*
G37*
G36*
X-137135D02*
X-137139D01*
Y-173518D01*
X-137135D01*
Y-173522D01*
D02*
G37*
G36*
X-137230Y-173523D02*
X-137233D01*
Y-173519D01*
X-137230D01*
Y-173523D01*
D02*
G37*
G36*
X-137235D02*
X-137238D01*
Y-173519D01*
X-137235D01*
Y-173523D01*
D02*
G37*
G36*
X-137144Y-173523D02*
X-137151D01*
Y-173519D01*
X-137144D01*
Y-173523D01*
D02*
G37*
G36*
X-137215D02*
X-137222D01*
Y-173519D01*
X-137215D01*
Y-173523D01*
D02*
G37*
G36*
X-137116Y-173524D02*
X-137125D01*
Y-173519D01*
X-137116D01*
Y-173524D01*
D02*
G37*
G36*
X-137092Y-173524D02*
X-137100D01*
Y-173519D01*
X-137092D01*
Y-173524D01*
D02*
G37*
G36*
X-137252Y-173525D02*
X-137252Y-173525D01*
X-137252D01*
Y-173530D01*
X-137252D01*
X-137252Y-173531D01*
X-137253Y-173531D01*
X-137254Y-173531D01*
X-137254Y-173530D01*
X-137254Y-173531D01*
X-137255Y-173531D01*
X-137256Y-173531D01*
X-137256Y-173530D01*
X-137256Y-173531D01*
X-137257Y-173531D01*
X-137258Y-173531D01*
X-137258Y-173530D01*
X-137258Y-173531D01*
X-137259Y-173531D01*
X-137259Y-173531D01*
X-137260Y-173530D01*
X-137260Y-173531D01*
X-137261Y-173531D01*
X-137261Y-173531D01*
X-137262Y-173530D01*
X-137262Y-173531D01*
X-137263Y-173531D01*
X-137263Y-173531D01*
X-137264Y-173530D01*
X-137264Y-173531D01*
X-137265Y-173531D01*
X-137265Y-173531D01*
X-137266Y-173530D01*
X-137266Y-173531D01*
X-137267Y-173531D01*
X-137267Y-173531D01*
X-137268Y-173530D01*
X-137268Y-173531D01*
X-137269Y-173531D01*
X-137269Y-173531D01*
X-137270Y-173530D01*
X-137270Y-173531D01*
X-137271Y-173531D01*
X-137271Y-173531D01*
X-137271Y-173530D01*
X-137272Y-173531D01*
X-137273Y-173531D01*
X-137273Y-173531D01*
X-137274Y-173530D01*
X-137274Y-173531D01*
X-137275Y-173531D01*
X-137275Y-173531D01*
X-137276Y-173530D01*
X-137276Y-173525D01*
X-137276D01*
X-137275Y-173525D01*
X-137275Y-173524D01*
X-137274Y-173525D01*
X-137274Y-173525D01*
X-137273Y-173525D01*
X-137273Y-173524D01*
X-137272Y-173525D01*
X-137271Y-173525D01*
X-137271Y-173525D01*
X-137271Y-173524D01*
X-137270Y-173525D01*
X-137270Y-173525D01*
X-137269Y-173525D01*
X-137269Y-173524D01*
X-137268Y-173525D01*
X-137268Y-173525D01*
X-137267Y-173525D01*
X-137267Y-173524D01*
X-137266Y-173525D01*
X-137266Y-173525D01*
X-137265Y-173525D01*
X-137265Y-173524D01*
X-137264Y-173525D01*
X-137264Y-173525D01*
X-137263Y-173525D01*
X-137263Y-173524D01*
X-137262Y-173525D01*
X-137262Y-173525D01*
X-137261Y-173525D01*
X-137261Y-173524D01*
X-137260Y-173525D01*
X-137260Y-173525D01*
X-137259Y-173525D01*
X-137259Y-173524D01*
X-137258Y-173525D01*
X-137258Y-173525D01*
X-137258Y-173525D01*
X-137257Y-173524D01*
X-137256Y-173525D01*
X-137256Y-173525D01*
X-137256Y-173525D01*
X-137255Y-173524D01*
X-137254Y-173525D01*
X-137254Y-173525D01*
X-137254Y-173525D01*
X-137253Y-173524D01*
X-137252Y-173525D01*
D02*
G37*
G36*
X-137342Y-173528D02*
X-137346D01*
Y-173524D01*
X-137342D01*
Y-173528D01*
D02*
G37*
G36*
X-137336Y-173528D02*
X-137340D01*
Y-173524D01*
X-137336D01*
Y-173528D01*
D02*
G37*
G36*
X-137129Y-173528D02*
X-137133D01*
Y-173524D01*
X-137129D01*
Y-173528D01*
D02*
G37*
G36*
X-137135D02*
X-137139D01*
Y-173524D01*
X-137135D01*
Y-173528D01*
D02*
G37*
G36*
X-137103Y-173528D02*
X-137106D01*
Y-173524D01*
X-137103D01*
Y-173528D01*
D02*
G37*
G36*
X-137109D02*
X-137112D01*
Y-173524D01*
X-137109D01*
Y-173528D01*
D02*
G37*
G36*
X-137181D02*
X-137186D01*
Y-173524D01*
X-137181D01*
Y-173528D01*
D02*
G37*
G36*
X-137187D02*
X-137191D01*
Y-173524D01*
X-137187D01*
Y-173528D01*
D02*
G37*
G36*
X-137192D02*
X-137197D01*
Y-173524D01*
X-137192D01*
Y-173528D01*
D02*
G37*
G36*
X-137144Y-173528D02*
X-137151D01*
Y-173524D01*
X-137144D01*
Y-173528D01*
D02*
G37*
G36*
X-137215D02*
X-137222D01*
Y-173524D01*
X-137215D01*
Y-173528D01*
D02*
G37*
G36*
X-137230Y-173530D02*
X-137233D01*
Y-173526D01*
X-137230D01*
Y-173530D01*
D02*
G37*
G36*
X-137235D02*
X-137239D01*
Y-173526D01*
X-137235D01*
Y-173530D01*
D02*
G37*
G36*
X-137066Y-173530D02*
X-137066Y-173531D01*
X-137066Y-173533D01*
X-137066D01*
X-137066Y-173533D01*
X-137066Y-173533D01*
X-137071Y-173533D01*
Y-173533D01*
X-137071Y-173533D01*
X-137071Y-173533D01*
X-137071Y-173531D01*
X-137071D01*
X-137071Y-173530D01*
X-137071Y-173530D01*
Y-173530D01*
X-137066D01*
Y-173530D01*
X-137066Y-173530D01*
D02*
G37*
G36*
X-137076D02*
X-137076Y-173531D01*
X-137076Y-173533D01*
X-137076D01*
X-137076Y-173533D01*
X-137076Y-173533D01*
X-137081Y-173533D01*
Y-173533D01*
X-137081Y-173533D01*
X-137081Y-173533D01*
X-137081Y-173531D01*
X-137081D01*
X-137081Y-173530D01*
X-137081Y-173530D01*
Y-173530D01*
X-137076D01*
Y-173530D01*
X-137076Y-173530D01*
D02*
G37*
G36*
X-137114Y-173531D02*
X-137119D01*
Y-173527D01*
X-137114D01*
Y-173531D01*
D02*
G37*
G36*
X-137097Y-173531D02*
X-137102D01*
Y-173527D01*
X-137097D01*
Y-173531D01*
D02*
G37*
G36*
X-137244Y-173533D02*
X-137244Y-173533D01*
X-137244Y-173534D01*
X-137245Y-173535D01*
X-137244Y-173535D01*
X-137244Y-173535D01*
X-137244Y-173536D01*
X-137245Y-173536D01*
X-137244Y-173537D01*
X-137244Y-173537D01*
X-137244Y-173538D01*
X-137245Y-173538D01*
X-137244Y-173539D01*
X-137244Y-173539D01*
X-137244Y-173540D01*
X-137245Y-173540D01*
X-137244Y-173541D01*
X-137244Y-173541D01*
X-137244Y-173542D01*
X-137245Y-173542D01*
X-137244Y-173543D01*
X-137244Y-173543D01*
X-137244Y-173544D01*
X-137245Y-173544D01*
X-137244Y-173545D01*
X-137244Y-173545D01*
X-137244Y-173546D01*
X-137245Y-173546D01*
X-137244Y-173547D01*
X-137244Y-173547D01*
X-137244Y-173548D01*
X-137245Y-173548D01*
X-137244Y-173548D01*
X-137244Y-173549D01*
X-137244Y-173550D01*
X-137245Y-173550D01*
X-137244Y-173550D01*
X-137244Y-173551D01*
X-137244Y-173552D01*
X-137245Y-173552D01*
X-137244Y-173552D01*
X-137244Y-173553D01*
X-137244Y-173554D01*
X-137245Y-173554D01*
X-137244Y-173554D01*
X-137244Y-173555D01*
X-137244Y-173556D01*
X-137245Y-173556D01*
X-137249Y-173556D01*
Y-173556D01*
X-137250Y-173556D01*
X-137250Y-173555D01*
X-137250Y-173554D01*
X-137250Y-173554D01*
X-137250Y-173554D01*
X-137250Y-173553D01*
X-137250Y-173552D01*
X-137250Y-173552D01*
X-137250Y-173552D01*
X-137250Y-173551D01*
X-137250Y-173550D01*
X-137250Y-173550D01*
X-137250Y-173550D01*
X-137250Y-173549D01*
X-137250Y-173548D01*
X-137250Y-173548D01*
X-137250Y-173548D01*
X-137250Y-173547D01*
X-137250Y-173547D01*
X-137250Y-173546D01*
X-137250Y-173546D01*
X-137250Y-173545D01*
X-137250Y-173545D01*
X-137250Y-173544D01*
X-137250Y-173544D01*
X-137250Y-173543D01*
X-137250Y-173543D01*
X-137250Y-173542D01*
X-137250Y-173542D01*
X-137250Y-173541D01*
X-137250Y-173541D01*
X-137250Y-173540D01*
X-137250Y-173540D01*
X-137250Y-173539D01*
X-137250Y-173539D01*
X-137250Y-173538D01*
X-137250Y-173538D01*
X-137250Y-173537D01*
X-137250Y-173537D01*
X-137250Y-173536D01*
X-137250Y-173536D01*
X-137250Y-173535D01*
X-137250Y-173535D01*
X-137250Y-173535D01*
X-137250Y-173534D01*
X-137250Y-173533D01*
X-137250Y-173533D01*
X-137249Y-173532D01*
Y-173532D01*
X-137245D01*
Y-173532D01*
X-137244Y-173533D01*
D02*
G37*
G36*
X-137277D02*
X-137277Y-173533D01*
X-137277Y-173534D01*
X-137278Y-173535D01*
X-137277Y-173535D01*
X-137277Y-173535D01*
X-137277Y-173536D01*
X-137278Y-173536D01*
X-137277Y-173537D01*
X-137277Y-173537D01*
X-137277Y-173538D01*
X-137278Y-173538D01*
X-137277Y-173539D01*
X-137277Y-173539D01*
X-137277Y-173540D01*
X-137278Y-173540D01*
X-137277Y-173541D01*
X-137277Y-173541D01*
X-137277Y-173542D01*
X-137278Y-173542D01*
X-137277Y-173543D01*
X-137277Y-173543D01*
X-137277Y-173544D01*
X-137278Y-173544D01*
X-137277Y-173545D01*
X-137277Y-173545D01*
X-137277Y-173546D01*
X-137278Y-173546D01*
X-137277Y-173547D01*
X-137277Y-173547D01*
X-137277Y-173548D01*
X-137278Y-173548D01*
X-137277Y-173548D01*
X-137277Y-173549D01*
X-137277Y-173550D01*
X-137278Y-173550D01*
X-137277Y-173550D01*
X-137277Y-173551D01*
X-137277Y-173552D01*
X-137278Y-173552D01*
X-137277Y-173552D01*
X-137277Y-173553D01*
X-137277Y-173554D01*
X-137278Y-173554D01*
X-137277Y-173554D01*
X-137277Y-173555D01*
X-137277Y-173556D01*
X-137278Y-173556D01*
X-137283Y-173556D01*
Y-173556D01*
X-137283Y-173556D01*
X-137284Y-173555D01*
X-137283Y-173554D01*
X-137283Y-173554D01*
X-137283Y-173554D01*
X-137284Y-173553D01*
X-137283Y-173552D01*
X-137283Y-173552D01*
X-137283Y-173552D01*
X-137284Y-173551D01*
X-137283Y-173550D01*
X-137283Y-173550D01*
X-137283Y-173550D01*
X-137284Y-173549D01*
X-137283Y-173548D01*
X-137283Y-173548D01*
X-137283Y-173548D01*
X-137284Y-173547D01*
X-137283Y-173547D01*
X-137283Y-173546D01*
X-137283Y-173546D01*
X-137284Y-173545D01*
X-137283Y-173545D01*
X-137283Y-173544D01*
X-137283Y-173544D01*
X-137284Y-173543D01*
X-137283Y-173543D01*
X-137283Y-173542D01*
X-137283Y-173542D01*
X-137284Y-173541D01*
X-137283Y-173541D01*
X-137283Y-173540D01*
X-137283Y-173540D01*
X-137284Y-173539D01*
X-137283Y-173539D01*
X-137283Y-173538D01*
X-137283Y-173538D01*
X-137284Y-173537D01*
X-137283Y-173537D01*
X-137283Y-173536D01*
X-137283Y-173536D01*
X-137284Y-173535D01*
X-137283Y-173535D01*
X-137283Y-173535D01*
X-137283Y-173534D01*
X-137284Y-173533D01*
X-137283Y-173533D01*
X-137283Y-173532D01*
Y-173532D01*
X-137278D01*
Y-173532D01*
X-137277Y-173533D01*
D02*
G37*
G36*
X-137144Y-173533D02*
X-137151D01*
Y-173529D01*
X-137144D01*
Y-173533D01*
D02*
G37*
G36*
X-137215D02*
X-137222D01*
Y-173529D01*
X-137215D01*
Y-173533D01*
D02*
G37*
G36*
X-137181Y-173534D02*
X-137186D01*
Y-173529D01*
X-137181D01*
Y-173534D01*
D02*
G37*
G36*
X-137187D02*
X-137191D01*
Y-173529D01*
X-137187D01*
Y-173534D01*
D02*
G37*
G36*
X-137192D02*
X-137197D01*
Y-173529D01*
X-137192D01*
Y-173534D01*
D02*
G37*
G36*
X-137315Y-173526D02*
X-137314Y-173527D01*
X-137315D01*
Y-173532D01*
X-137314D01*
X-137315Y-173533D01*
X-137316Y-173534D01*
X-137317Y-173533D01*
X-137318Y-173532D01*
X-137318Y-173527D01*
X-137318D01*
X-137317Y-173526D01*
X-137316Y-173526D01*
X-137315Y-173526D01*
D02*
G37*
G36*
X-137320D02*
X-137320Y-173527D01*
X-137320D01*
Y-173532D01*
X-137320D01*
X-137320Y-173533D01*
X-137321Y-173534D01*
X-137322Y-173533D01*
X-137323Y-173532D01*
X-137323Y-173527D01*
X-137323D01*
X-137322Y-173526D01*
X-137321Y-173526D01*
X-137320Y-173526D01*
D02*
G37*
G36*
X-137325D02*
X-137325Y-173527D01*
X-137325D01*
Y-173532D01*
X-137325D01*
X-137325Y-173533D01*
X-137326Y-173534D01*
X-137327Y-173533D01*
X-137328Y-173532D01*
X-137328Y-173527D01*
X-137328D01*
X-137327Y-173526D01*
X-137326Y-173526D01*
X-137325Y-173526D01*
D02*
G37*
G36*
X-137330D02*
X-137329Y-173527D01*
X-137330D01*
Y-173532D01*
X-137329D01*
X-137330Y-173533D01*
X-137331Y-173534D01*
X-137332Y-173533D01*
X-137333Y-173532D01*
X-137333Y-173527D01*
X-137333D01*
X-137332Y-173526D01*
X-137331Y-173526D01*
X-137330Y-173526D01*
D02*
G37*
G36*
X-137066Y-173534D02*
X-137066Y-173535D01*
X-137066Y-173536D01*
X-137066D01*
X-137066Y-173537D01*
X-137066Y-173537D01*
X-137071Y-173537D01*
Y-173537D01*
X-137071Y-173537D01*
X-137071Y-173536D01*
X-137071Y-173535D01*
X-137071D01*
X-137071Y-173534D01*
X-137071Y-173534D01*
Y-173534D01*
X-137066D01*
Y-173534D01*
X-137066Y-173534D01*
D02*
G37*
G36*
X-137076D02*
X-137076Y-173535D01*
X-137076Y-173536D01*
X-137076D01*
X-137076Y-173537D01*
X-137076Y-173537D01*
X-137081Y-173537D01*
Y-173537D01*
X-137081Y-173537D01*
X-137081Y-173536D01*
X-137081Y-173535D01*
X-137081D01*
X-137081Y-173534D01*
X-137081Y-173534D01*
Y-173534D01*
X-137076D01*
Y-173534D01*
X-137076Y-173534D01*
D02*
G37*
G36*
X-137123Y-173535D02*
X-137129D01*
Y-173530D01*
X-137123D01*
Y-173535D01*
D02*
G37*
G36*
X-137087Y-173535D02*
X-137092D01*
Y-173530D01*
X-137087D01*
Y-173535D01*
D02*
G37*
G36*
X-137103Y-173535D02*
X-137106D01*
Y-173531D01*
X-137103D01*
Y-173535D01*
D02*
G37*
G36*
X-137109D02*
X-137112D01*
Y-173531D01*
X-137109D01*
Y-173535D01*
D02*
G37*
G36*
X-137230Y-173535D02*
X-137233D01*
Y-173531D01*
X-137230D01*
Y-173535D01*
D02*
G37*
G36*
X-137235D02*
X-137239D01*
Y-173531D01*
X-137235D01*
Y-173535D01*
D02*
G37*
G36*
X-137066Y-173538D02*
X-137066Y-173538D01*
X-137066Y-173540D01*
X-137066D01*
X-137066Y-173541D01*
X-137066Y-173541D01*
X-137071Y-173541D01*
Y-173541D01*
X-137071Y-173541D01*
X-137071Y-173540D01*
X-137071Y-173538D01*
X-137071D01*
X-137071Y-173538D01*
X-137071Y-173538D01*
Y-173538D01*
X-137066D01*
Y-173538D01*
X-137066Y-173538D01*
D02*
G37*
G36*
X-137076D02*
X-137076Y-173538D01*
X-137076Y-173540D01*
X-137076D01*
X-137076Y-173541D01*
X-137076Y-173541D01*
X-137081Y-173541D01*
Y-173541D01*
X-137081Y-173541D01*
X-137081Y-173540D01*
X-137081Y-173538D01*
X-137081D01*
X-137081Y-173538D01*
X-137081Y-173538D01*
Y-173538D01*
X-137076D01*
Y-173538D01*
X-137076Y-173538D01*
D02*
G37*
G36*
X-137114Y-173538D02*
X-137119D01*
Y-173534D01*
X-137114D01*
Y-173538D01*
D02*
G37*
G36*
X-137144Y-173538D02*
X-137151D01*
Y-173534D01*
X-137144D01*
Y-173538D01*
D02*
G37*
G36*
X-137215D02*
X-137222D01*
Y-173534D01*
X-137215D01*
Y-173538D01*
D02*
G37*
G36*
X-137097Y-173538D02*
X-137102D01*
Y-173534D01*
X-137097D01*
Y-173538D01*
D02*
G37*
G36*
X-137181Y-173539D02*
X-137186D01*
Y-173535D01*
X-137181D01*
Y-173539D01*
D02*
G37*
G36*
X-137187D02*
X-137191D01*
Y-173535D01*
X-137187D01*
Y-173539D01*
D02*
G37*
G36*
X-137192D02*
X-137197D01*
Y-173535D01*
X-137192D01*
Y-173539D01*
D02*
G37*
G36*
X-137230Y-173541D02*
X-137233D01*
Y-173538D01*
X-137230D01*
Y-173541D01*
D02*
G37*
G36*
X-137235D02*
X-137239D01*
Y-173538D01*
X-137235D01*
Y-173541D01*
D02*
G37*
G36*
X-137087Y-173542D02*
X-137087Y-173542D01*
Y-173542D01*
X-137087Y-173547D01*
X-137087D01*
X-137087Y-173547D01*
X-137088Y-173548D01*
X-137089Y-173548D01*
Y-173548D01*
X-137090Y-173547D01*
X-137090Y-173547D01*
X-137090D01*
Y-173542D01*
X-137090Y-173542D01*
Y-173542D01*
X-137090Y-173542D01*
X-137089Y-173541D01*
X-137088Y-173542D01*
X-137088Y-173541D01*
X-137087Y-173542D01*
D02*
G37*
G36*
X-137092D02*
X-137092Y-173542D01*
Y-173542D01*
X-137092Y-173547D01*
X-137092D01*
X-137092Y-173547D01*
X-137093Y-173548D01*
X-137094Y-173548D01*
Y-173548D01*
X-137095Y-173547D01*
X-137095Y-173547D01*
X-137095D01*
Y-173542D01*
X-137095Y-173542D01*
Y-173542D01*
X-137095Y-173542D01*
X-137094Y-173541D01*
X-137093Y-173542D01*
X-137093Y-173541D01*
X-137092Y-173542D01*
D02*
G37*
G36*
X-137097D02*
X-137097Y-173542D01*
Y-173542D01*
X-137097Y-173547D01*
X-137097D01*
X-137097Y-173547D01*
X-137098Y-173548D01*
X-137099Y-173548D01*
Y-173548D01*
X-137100Y-173547D01*
X-137100Y-173547D01*
X-137100D01*
Y-173542D01*
X-137100Y-173542D01*
Y-173542D01*
X-137100Y-173542D01*
X-137099Y-173541D01*
X-137098Y-173542D01*
X-137098Y-173541D01*
X-137097Y-173542D01*
D02*
G37*
G36*
X-137102D02*
X-137102Y-173542D01*
Y-173542D01*
X-137102Y-173547D01*
X-137102D01*
X-137102Y-173547D01*
X-137103Y-173548D01*
X-137104Y-173548D01*
Y-173548D01*
X-137105Y-173547D01*
X-137105Y-173547D01*
X-137105D01*
Y-173542D01*
X-137105Y-173542D01*
Y-173542D01*
X-137105Y-173542D01*
X-137104Y-173541D01*
X-137103Y-173542D01*
X-137103Y-173541D01*
X-137102Y-173542D01*
D02*
G37*
G36*
X-137107D02*
X-137107Y-173542D01*
Y-173542D01*
X-137107Y-173547D01*
X-137107D01*
X-137107Y-173547D01*
X-137108Y-173548D01*
X-137109Y-173548D01*
Y-173548D01*
X-137110Y-173547D01*
X-137110Y-173547D01*
X-137110D01*
Y-173542D01*
X-137110Y-173542D01*
Y-173542D01*
X-137110Y-173542D01*
X-137109Y-173541D01*
X-137108Y-173542D01*
X-137108Y-173541D01*
X-137107Y-173542D01*
D02*
G37*
G36*
X-137112D02*
X-137112Y-173542D01*
Y-173542D01*
X-137112Y-173547D01*
X-137112D01*
X-137112Y-173547D01*
X-137113Y-173548D01*
X-137114Y-173548D01*
Y-173548D01*
X-137115Y-173547D01*
X-137115Y-173547D01*
X-137115D01*
Y-173542D01*
X-137115Y-173542D01*
Y-173542D01*
X-137115Y-173542D01*
X-137114Y-173541D01*
X-137113Y-173542D01*
X-137113Y-173541D01*
X-137112Y-173542D01*
D02*
G37*
G36*
X-137117D02*
X-137117Y-173542D01*
Y-173542D01*
X-137117Y-173547D01*
X-137117D01*
X-137117Y-173547D01*
X-137118Y-173548D01*
X-137119Y-173548D01*
Y-173548D01*
X-137120Y-173547D01*
X-137120Y-173547D01*
X-137120D01*
Y-173542D01*
X-137120Y-173542D01*
Y-173542D01*
X-137120Y-173542D01*
X-137119Y-173541D01*
X-137118Y-173542D01*
X-137118Y-173541D01*
X-137117Y-173542D01*
D02*
G37*
G36*
X-137122D02*
X-137122Y-173542D01*
Y-173542D01*
X-137122Y-173547D01*
X-137122D01*
X-137122Y-173547D01*
X-137123Y-173548D01*
X-137124Y-173548D01*
Y-173548D01*
X-137125Y-173547D01*
X-137125Y-173547D01*
X-137125D01*
Y-173542D01*
X-137125Y-173542D01*
Y-173542D01*
X-137125Y-173542D01*
X-137124Y-173541D01*
X-137123Y-173542D01*
X-137123Y-173541D01*
X-137122Y-173542D01*
D02*
G37*
G36*
X-137329Y-173543D02*
X-137333D01*
Y-173540D01*
X-137329D01*
Y-173543D01*
D02*
G37*
G36*
X-137336D02*
X-137340D01*
Y-173540D01*
X-137336D01*
Y-173543D01*
D02*
G37*
G36*
X-137144Y-173543D02*
X-137151D01*
Y-173539D01*
X-137144D01*
Y-173543D01*
D02*
G37*
G36*
X-137215D02*
X-137222D01*
Y-173539D01*
X-137215D01*
Y-173543D01*
D02*
G37*
G36*
X-137308Y-173544D02*
X-137312D01*
Y-173540D01*
X-137308D01*
Y-173544D01*
D02*
G37*
G36*
X-137314D02*
X-137318D01*
Y-173540D01*
X-137314D01*
Y-173544D01*
D02*
G37*
G36*
X-137323D02*
X-137327D01*
Y-173540D01*
X-137323D01*
Y-173544D01*
D02*
G37*
G36*
X-137128Y-173546D02*
X-137132D01*
Y-173542D01*
X-137128D01*
Y-173546D01*
D02*
G37*
G36*
X-137144Y-173548D02*
X-137151D01*
Y-173544D01*
X-137144D01*
Y-173548D01*
D02*
G37*
G36*
X-137215D02*
X-137222D01*
Y-173544D01*
X-137215D01*
Y-173548D01*
D02*
G37*
G36*
X-137329Y-173548D02*
X-137333D01*
Y-173546D01*
X-137329D01*
Y-173548D01*
D02*
G37*
G36*
X-137336D02*
X-137340D01*
Y-173546D01*
X-137336D01*
Y-173548D01*
D02*
G37*
G36*
X-137068Y-173549D02*
X-137072D01*
Y-173546D01*
X-137068D01*
Y-173549D01*
D02*
G37*
G36*
X-137075Y-173549D02*
X-137079D01*
Y-173546D01*
X-137075D01*
Y-173549D01*
D02*
G37*
G36*
X-137308Y-173549D02*
X-137312D01*
Y-173546D01*
X-137308D01*
Y-173549D01*
D02*
G37*
G36*
X-137314D02*
X-137318D01*
Y-173546D01*
X-137314D01*
Y-173549D01*
D02*
G37*
G36*
X-137323D02*
X-137327D01*
Y-173546D01*
X-137323D01*
Y-173549D01*
D02*
G37*
G36*
X-137228Y-173549D02*
X-137233D01*
Y-173543D01*
X-137228D01*
Y-173549D01*
D02*
G37*
G36*
X-137234D02*
X-137240D01*
Y-173543D01*
X-137234D01*
Y-173549D01*
D02*
G37*
G36*
X-137128Y-173552D02*
X-137132D01*
Y-173548D01*
X-137128D01*
Y-173552D01*
D02*
G37*
G36*
X-137144Y-173553D02*
X-137151D01*
Y-173549D01*
X-137144D01*
Y-173553D01*
D02*
G37*
G36*
X-137215D02*
X-137222D01*
Y-173549D01*
X-137215D01*
Y-173553D01*
D02*
G37*
G36*
X-137068Y-173555D02*
X-137072D01*
Y-173552D01*
X-137068D01*
Y-173555D01*
D02*
G37*
G36*
X-137075Y-173555D02*
X-137079D01*
Y-173552D01*
X-137075D01*
Y-173555D01*
D02*
G37*
G36*
X-137329Y-173555D02*
X-137333D01*
Y-173552D01*
X-137329D01*
Y-173555D01*
D02*
G37*
G36*
X-137336D02*
X-137340D01*
Y-173552D01*
X-137336D01*
Y-173555D01*
D02*
G37*
G36*
X-137314Y-173555D02*
X-137319D01*
Y-173552D01*
X-137314D01*
Y-173555D01*
D02*
G37*
G36*
X-137323Y-173555D02*
X-137327D01*
Y-173551D01*
X-137323D01*
Y-173555D01*
D02*
G37*
G36*
X-137285Y-173557D02*
X-137289D01*
Y-173553D01*
X-137285D01*
Y-173557D01*
D02*
G37*
G36*
X-137291D02*
X-137295D01*
Y-173553D01*
X-137291D01*
Y-173557D01*
D02*
G37*
G36*
X-137297D02*
X-137301D01*
Y-173553D01*
X-137297D01*
Y-173557D01*
D02*
G37*
G36*
X-137228Y-173558D02*
X-137233D01*
Y-173552D01*
X-137228D01*
Y-173558D01*
D02*
G37*
G36*
X-137234D02*
X-137240D01*
Y-173552D01*
X-137234D01*
Y-173558D01*
D02*
G37*
G36*
X-137144Y-173558D02*
X-137151D01*
Y-173554D01*
X-137144D01*
Y-173558D01*
D02*
G37*
G36*
X-137215D02*
X-137222D01*
Y-173554D01*
X-137215D01*
Y-173558D01*
D02*
G37*
G36*
X-137252Y-173558D02*
X-137252Y-173559D01*
X-137252D01*
Y-173563D01*
X-137252D01*
X-137252Y-173564D01*
X-137253Y-173564D01*
X-137254Y-173564D01*
X-137254Y-173563D01*
X-137254Y-173564D01*
X-137255Y-173564D01*
X-137256Y-173564D01*
X-137256Y-173563D01*
X-137256Y-173564D01*
X-137257Y-173564D01*
X-137258Y-173564D01*
X-137258Y-173563D01*
X-137258Y-173564D01*
X-137259Y-173564D01*
X-137259Y-173564D01*
X-137260Y-173563D01*
X-137260Y-173564D01*
X-137261Y-173564D01*
X-137261Y-173564D01*
X-137262Y-173563D01*
X-137262Y-173564D01*
X-137263Y-173564D01*
X-137263Y-173564D01*
X-137264Y-173563D01*
X-137264Y-173564D01*
X-137265Y-173564D01*
X-137265Y-173564D01*
X-137266Y-173563D01*
X-137266Y-173564D01*
X-137267Y-173564D01*
X-137267Y-173564D01*
X-137268Y-173563D01*
X-137268Y-173564D01*
X-137269Y-173564D01*
X-137269Y-173564D01*
X-137270Y-173563D01*
X-137270Y-173564D01*
X-137271Y-173564D01*
X-137271Y-173564D01*
X-137271Y-173563D01*
X-137272Y-173564D01*
X-137273Y-173564D01*
X-137273Y-173564D01*
X-137274Y-173563D01*
X-137274Y-173564D01*
X-137275Y-173564D01*
X-137275Y-173564D01*
X-137276Y-173563D01*
X-137276Y-173559D01*
X-137276D01*
X-137275Y-173558D01*
X-137275Y-173558D01*
X-137274Y-173558D01*
X-137274Y-173558D01*
X-137273Y-173558D01*
X-137273Y-173558D01*
X-137272Y-173558D01*
X-137271Y-173558D01*
X-137271Y-173558D01*
X-137271Y-173558D01*
X-137270Y-173558D01*
X-137270Y-173558D01*
X-137269Y-173558D01*
X-137269Y-173558D01*
X-137268Y-173558D01*
X-137268Y-173558D01*
X-137267Y-173558D01*
X-137267Y-173558D01*
X-137266Y-173558D01*
X-137266Y-173558D01*
X-137265Y-173558D01*
X-137265Y-173558D01*
X-137264Y-173558D01*
X-137264Y-173558D01*
X-137263Y-173558D01*
X-137263Y-173558D01*
X-137262Y-173558D01*
X-137262Y-173558D01*
X-137261Y-173558D01*
X-137261Y-173558D01*
X-137260Y-173558D01*
X-137260Y-173558D01*
X-137259Y-173558D01*
X-137259Y-173558D01*
X-137258Y-173558D01*
X-137258Y-173558D01*
X-137258Y-173558D01*
X-137257Y-173558D01*
X-137256Y-173558D01*
X-137256Y-173558D01*
X-137256Y-173558D01*
X-137255Y-173558D01*
X-137254Y-173558D01*
X-137254Y-173558D01*
X-137254Y-173558D01*
X-137253Y-173558D01*
X-137252Y-173558D01*
D02*
G37*
G36*
X-137329Y-173561D02*
X-137333D01*
Y-173558D01*
X-137329D01*
Y-173561D01*
D02*
G37*
G36*
X-137336D02*
X-137340D01*
Y-173558D01*
X-137336D01*
Y-173561D01*
D02*
G37*
G36*
X-137314Y-173561D02*
X-137319D01*
Y-173558D01*
X-137314D01*
Y-173561D01*
D02*
G37*
G36*
X-137323Y-173561D02*
X-137327D01*
Y-173557D01*
X-137323D01*
Y-173561D01*
D02*
G37*
G36*
X-137285Y-173563D02*
X-137289D01*
Y-173559D01*
X-137285D01*
Y-173563D01*
D02*
G37*
G36*
X-137291D02*
X-137295D01*
Y-173559D01*
X-137291D01*
Y-173563D01*
D02*
G37*
G36*
X-137297D02*
X-137301D01*
Y-173559D01*
X-137297D01*
Y-173563D01*
D02*
G37*
G36*
X-137087Y-173563D02*
X-137087Y-173564D01*
X-137087Y-173568D01*
X-137087Y-173568D01*
Y-173568D01*
X-137087Y-173569D01*
X-137088Y-173569D01*
X-137089Y-173569D01*
X-137089Y-173569D01*
X-137090Y-173569D01*
X-137090Y-173568D01*
Y-173568D01*
X-137090Y-173568D01*
Y-173564D01*
X-137090D01*
X-137090Y-173563D01*
X-137089Y-173563D01*
X-137088Y-173563D01*
Y-173563D01*
X-137087Y-173563D01*
D02*
G37*
G36*
X-137092D02*
X-137092Y-173564D01*
X-137092Y-173568D01*
X-137092Y-173568D01*
Y-173568D01*
X-137092Y-173569D01*
X-137093Y-173569D01*
X-137094Y-173569D01*
X-137094Y-173569D01*
X-137095Y-173569D01*
X-137095Y-173568D01*
Y-173568D01*
X-137095Y-173568D01*
Y-173564D01*
X-137095D01*
X-137095Y-173563D01*
X-137094Y-173563D01*
X-137093Y-173563D01*
Y-173563D01*
X-137092Y-173563D01*
D02*
G37*
G36*
X-137097D02*
X-137097Y-173564D01*
X-137097Y-173568D01*
X-137097Y-173568D01*
Y-173568D01*
X-137097Y-173569D01*
X-137098Y-173569D01*
X-137099Y-173569D01*
X-137099Y-173569D01*
X-137100Y-173569D01*
X-137100Y-173568D01*
Y-173568D01*
X-137100Y-173568D01*
Y-173564D01*
X-137100D01*
X-137100Y-173563D01*
X-137099Y-173563D01*
X-137098Y-173563D01*
Y-173563D01*
X-137097Y-173563D01*
D02*
G37*
G36*
X-137102D02*
X-137102Y-173564D01*
X-137102Y-173568D01*
X-137102Y-173568D01*
Y-173568D01*
X-137102Y-173569D01*
X-137103Y-173569D01*
X-137104Y-173569D01*
X-137104Y-173569D01*
X-137105Y-173569D01*
X-137105Y-173568D01*
Y-173568D01*
X-137105Y-173568D01*
Y-173564D01*
X-137105D01*
X-137105Y-173563D01*
X-137104Y-173563D01*
X-137103Y-173563D01*
Y-173563D01*
X-137102Y-173563D01*
D02*
G37*
G36*
X-137107D02*
X-137107Y-173564D01*
X-137107Y-173568D01*
X-137107Y-173568D01*
Y-173568D01*
X-137107Y-173569D01*
X-137108Y-173569D01*
X-137109Y-173569D01*
X-137109Y-173569D01*
X-137110Y-173569D01*
X-137110Y-173568D01*
Y-173568D01*
X-137110Y-173568D01*
Y-173564D01*
X-137110D01*
X-137110Y-173563D01*
X-137109Y-173563D01*
X-137108Y-173563D01*
Y-173563D01*
X-137107Y-173563D01*
D02*
G37*
G36*
X-137112D02*
X-137112Y-173564D01*
X-137112Y-173568D01*
X-137112Y-173568D01*
Y-173568D01*
X-137112Y-173569D01*
X-137113Y-173569D01*
X-137114Y-173569D01*
X-137114Y-173569D01*
X-137115Y-173569D01*
X-137115Y-173568D01*
Y-173568D01*
X-137115Y-173568D01*
Y-173564D01*
X-137115D01*
X-137115Y-173563D01*
X-137114Y-173563D01*
X-137113Y-173563D01*
Y-173563D01*
X-137112Y-173563D01*
D02*
G37*
G36*
X-137117D02*
X-137117Y-173564D01*
X-137117Y-173568D01*
X-137117Y-173568D01*
Y-173568D01*
X-137117Y-173569D01*
X-137118Y-173569D01*
X-137119Y-173569D01*
X-137119Y-173569D01*
X-137120Y-173569D01*
X-137120Y-173568D01*
Y-173568D01*
X-137120Y-173568D01*
Y-173564D01*
X-137120D01*
X-137120Y-173563D01*
X-137119Y-173563D01*
X-137118Y-173563D01*
Y-173563D01*
X-137117Y-173563D01*
D02*
G37*
G36*
X-137122D02*
X-137122Y-173564D01*
X-137122Y-173568D01*
X-137122Y-173568D01*
Y-173568D01*
X-137122Y-173569D01*
X-137123Y-173569D01*
X-137124Y-173569D01*
X-137124Y-173569D01*
X-137125Y-173569D01*
X-137125Y-173568D01*
Y-173568D01*
X-137125Y-173568D01*
Y-173564D01*
X-137125D01*
X-137125Y-173563D01*
X-137124Y-173563D01*
X-137123Y-173563D01*
Y-173563D01*
X-137122Y-173563D01*
D02*
G37*
G36*
X-137144Y-173563D02*
X-137151D01*
Y-173559D01*
X-137144D01*
Y-173563D01*
D02*
G37*
G36*
X-137215D02*
X-137222D01*
Y-173559D01*
X-137215D01*
Y-173563D01*
D02*
G37*
G36*
X-137067Y-173563D02*
X-137072D01*
Y-173558D01*
X-137067D01*
Y-173563D01*
D02*
G37*
G36*
X-137075D02*
X-137081D01*
Y-173558D01*
X-137075D01*
Y-173563D01*
D02*
G37*
G36*
X-137230Y-173564D02*
X-137233D01*
Y-173560D01*
X-137230D01*
Y-173564D01*
D02*
G37*
G36*
X-137235D02*
X-137239D01*
Y-173560D01*
X-137235D01*
Y-173564D01*
D02*
G37*
G36*
X-137144Y-173568D02*
X-137151D01*
Y-173564D01*
X-137144D01*
Y-173568D01*
D02*
G37*
G36*
X-137215D02*
X-137222D01*
Y-173564D01*
X-137215D01*
Y-173568D01*
D02*
G37*
G36*
X-137067Y-173572D02*
X-137072D01*
Y-173567D01*
X-137067D01*
Y-173572D01*
D02*
G37*
G36*
X-137075D02*
X-137081D01*
Y-173567D01*
X-137075D01*
Y-173572D01*
D02*
G37*
G36*
X-137158Y-173575D02*
X-137163D01*
Y-173569D01*
X-137158D01*
Y-173575D01*
D02*
G37*
G36*
X-137163D02*
X-137168D01*
Y-173569D01*
X-137163D01*
Y-173575D01*
D02*
G37*
G36*
X-137168D02*
X-137173D01*
Y-173569D01*
X-137168D01*
Y-173575D01*
D02*
G37*
G36*
X-137173D02*
X-137178D01*
Y-173569D01*
X-137173D01*
Y-173575D01*
D02*
G37*
G36*
X-137178D02*
X-137183D01*
Y-173569D01*
X-137178D01*
Y-173575D01*
D02*
G37*
G36*
X-137183D02*
X-137188D01*
Y-173569D01*
X-137183D01*
Y-173575D01*
D02*
G37*
G36*
X-137188D02*
X-137193D01*
Y-173569D01*
X-137188D01*
Y-173575D01*
D02*
G37*
G36*
X-137193D02*
X-137198D01*
Y-173569D01*
X-137193D01*
Y-173575D01*
D02*
G37*
G36*
X-137198D02*
X-137203D01*
Y-173569D01*
X-137198D01*
Y-173575D01*
D02*
G37*
G36*
X-137203D02*
X-137208D01*
Y-173569D01*
X-137203D01*
Y-173575D01*
D02*
G37*
G36*
X-137306Y-173578D02*
X-137314D01*
Y-173567D01*
X-137306D01*
Y-173578D01*
D02*
G37*
G36*
X-137236Y-173578D02*
X-137241D01*
Y-173575D01*
X-137236D01*
Y-173578D01*
D02*
G37*
G36*
X-137243D02*
X-137247D01*
Y-173575D01*
X-137243D01*
Y-173578D01*
D02*
G37*
G36*
X-137249D02*
X-137254D01*
Y-173575D01*
X-137249D01*
Y-173578D01*
D02*
G37*
G36*
X-137256D02*
X-137260D01*
Y-173575D01*
X-137256D01*
Y-173578D01*
D02*
G37*
G36*
X-137262D02*
X-137267D01*
Y-173575D01*
X-137262D01*
Y-173578D01*
D02*
G37*
G36*
X-137269D02*
X-137273D01*
Y-173575D01*
X-137269D01*
Y-173578D01*
D02*
G37*
G36*
X-137275D02*
X-137280D01*
Y-173575D01*
X-137275D01*
Y-173578D01*
D02*
G37*
G36*
X-137282D02*
X-137286D01*
Y-173575D01*
X-137282D01*
Y-173578D01*
D02*
G37*
G36*
X-137288D02*
X-137293D01*
Y-173575D01*
X-137288D01*
Y-173578D01*
D02*
G37*
G36*
X-137225Y-173579D02*
X-137229D01*
Y-173575D01*
X-137225D01*
Y-173579D01*
D02*
G37*
G36*
X-137231D02*
X-137234D01*
Y-173575D01*
X-137231D01*
Y-173579D01*
D02*
G37*
G36*
X-137067Y-173581D02*
X-137072D01*
Y-173576D01*
X-137067D01*
Y-173581D01*
D02*
G37*
G36*
X-137075D02*
X-137081D01*
Y-173576D01*
X-137075D01*
Y-173581D01*
D02*
G37*
G36*
X-137236Y-173584D02*
X-137241D01*
Y-173581D01*
X-137236D01*
Y-173584D01*
D02*
G37*
G36*
X-137243D02*
X-137247D01*
Y-173581D01*
X-137243D01*
Y-173584D01*
D02*
G37*
G36*
X-137249D02*
X-137254D01*
Y-173581D01*
X-137249D01*
Y-173584D01*
D02*
G37*
G36*
X-137256D02*
X-137260D01*
Y-173581D01*
X-137256D01*
Y-173584D01*
D02*
G37*
G36*
X-137262D02*
X-137267D01*
Y-173581D01*
X-137262D01*
Y-173584D01*
D02*
G37*
G36*
X-137269D02*
X-137273D01*
Y-173581D01*
X-137269D01*
Y-173584D01*
D02*
G37*
G36*
X-137275D02*
X-137280D01*
Y-173581D01*
X-137275D01*
Y-173584D01*
D02*
G37*
G36*
X-137282D02*
X-137286D01*
Y-173581D01*
X-137282D01*
Y-173584D01*
D02*
G37*
G36*
X-137288D02*
X-137293D01*
Y-173581D01*
X-137288D01*
Y-173584D01*
D02*
G37*
G36*
X-137225Y-173585D02*
X-137229D01*
Y-173581D01*
X-137225D01*
Y-173585D01*
D02*
G37*
G36*
X-137231D02*
X-137234D01*
Y-173581D01*
X-137231D01*
Y-173585D01*
D02*
G37*
G36*
X-137067Y-173590D02*
X-137072D01*
Y-173584D01*
X-137067D01*
Y-173590D01*
D02*
G37*
G36*
X-137075D02*
X-137081D01*
Y-173584D01*
X-137075D01*
Y-173590D01*
D02*
G37*
G36*
X-137306Y-173594D02*
X-137314D01*
Y-173583D01*
X-137306D01*
Y-173594D01*
D02*
G37*
G36*
X-137067Y-173594D02*
X-137072D01*
Y-173591D01*
X-137067D01*
Y-173594D01*
D02*
G37*
G36*
X-137076D02*
X-137080D01*
Y-173591D01*
X-137076D01*
Y-173594D01*
D02*
G37*
G36*
X-137067Y-173600D02*
X-137072D01*
Y-173597D01*
X-137067D01*
Y-173600D01*
D02*
G37*
G36*
X-137076D02*
X-137080D01*
Y-173597D01*
X-137076D01*
Y-173600D01*
D02*
G37*
G36*
X-137324Y-173603D02*
X-137328D01*
Y-173600D01*
X-137324D01*
Y-173603D01*
D02*
G37*
G36*
X-137318Y-173603D02*
X-137321D01*
Y-173599D01*
X-137318D01*
Y-173603D01*
D02*
G37*
G36*
X-137216Y-173603D02*
X-137220D01*
Y-173598D01*
X-137216D01*
Y-173603D01*
D02*
G37*
G36*
X-137229D02*
X-137233D01*
Y-173598D01*
X-137229D01*
Y-173603D01*
D02*
G37*
G36*
X-137242D02*
X-137246D01*
Y-173598D01*
X-137242D01*
Y-173603D01*
D02*
G37*
G36*
X-137269D02*
X-137273D01*
Y-173598D01*
X-137269D01*
Y-173603D01*
D02*
G37*
G36*
X-137282D02*
X-137286D01*
Y-173598D01*
X-137282D01*
Y-173603D01*
D02*
G37*
G36*
X-137295D02*
X-137300D01*
Y-173598D01*
X-137295D01*
Y-173603D01*
D02*
G37*
G36*
X-137309D02*
X-137313D01*
Y-173598D01*
X-137309D01*
Y-173603D01*
D02*
G37*
G36*
X-137208Y-173603D02*
X-137212D01*
Y-173598D01*
X-137208D01*
Y-173603D01*
D02*
G37*
G36*
X-137222D02*
X-137226D01*
Y-173598D01*
X-137222D01*
Y-173603D01*
D02*
G37*
G36*
X-137235D02*
X-137239D01*
Y-173598D01*
X-137235D01*
Y-173603D01*
D02*
G37*
G36*
X-137261D02*
X-137266D01*
Y-173598D01*
X-137261D01*
Y-173603D01*
D02*
G37*
G36*
X-137275D02*
X-137279D01*
Y-173598D01*
X-137275D01*
Y-173603D01*
D02*
G37*
G36*
X-137288D02*
X-137292D01*
Y-173598D01*
X-137288D01*
Y-173603D01*
D02*
G37*
G36*
X-137301D02*
X-137305D01*
Y-173598D01*
X-137301D01*
Y-173603D01*
D02*
G37*
G36*
X-137256Y-173604D02*
X-137260D01*
Y-173598D01*
X-137256D01*
Y-173604D01*
D02*
G37*
G36*
X-137248Y-173604D02*
X-137252D01*
Y-173598D01*
X-137248D01*
Y-173604D01*
D02*
G37*
G36*
X-137324Y-173608D02*
X-137328D01*
Y-173605D01*
X-137324D01*
Y-173608D01*
D02*
G37*
G36*
X-137191Y-173608D02*
X-137198D01*
Y-173602D01*
X-137191D01*
Y-173608D01*
D02*
G37*
G36*
X-137318Y-173609D02*
X-137321D01*
Y-173605D01*
X-137318D01*
Y-173609D01*
D02*
G37*
G36*
X-137212Y-173613D02*
X-137216D01*
Y-173608D01*
X-137212D01*
Y-173613D01*
D02*
G37*
G36*
X-137225D02*
X-137229D01*
Y-173608D01*
X-137225D01*
Y-173613D01*
D02*
G37*
G36*
X-137239D02*
X-137243D01*
Y-173608D01*
X-137239D01*
Y-173613D01*
D02*
G37*
G36*
X-137265D02*
X-137269D01*
Y-173608D01*
X-137265D01*
Y-173613D01*
D02*
G37*
G36*
X-137278D02*
X-137283D01*
Y-173608D01*
X-137278D01*
Y-173613D01*
D02*
G37*
G36*
X-137292D02*
X-137296D01*
Y-173608D01*
X-137292D01*
Y-173613D01*
D02*
G37*
G36*
X-137305D02*
X-137309D01*
Y-173608D01*
X-137305D01*
Y-173613D01*
D02*
G37*
G36*
X-137252Y-173613D02*
X-137256D01*
Y-173608D01*
X-137252D01*
Y-173613D01*
D02*
G37*
G36*
X-137317Y-173616D02*
X-137321D01*
Y-173610D01*
X-137317D01*
Y-173616D01*
D02*
G37*
G36*
X-137220Y-173632D02*
X-137227D01*
Y-173625D01*
X-137220D01*
Y-173632D01*
D02*
G37*
G36*
X-137121Y-173636D02*
X-137128D01*
Y-173629D01*
X-137121D01*
Y-173636D01*
D02*
G37*
G36*
X-137317Y-173643D02*
X-137321D01*
Y-173637D01*
X-137317D01*
Y-173643D01*
D02*
G37*
G36*
X-137341Y-173654D02*
X-137347D01*
Y-173648D01*
X-137341D01*
Y-173654D01*
D02*
G37*
G36*
X-137119Y-173657D02*
X-137125D01*
Y-173651D01*
X-137119D01*
Y-173657D01*
D02*
G37*
G36*
X-137220D02*
X-137227D01*
Y-173651D01*
X-137220D01*
Y-173657D01*
D02*
G37*
G36*
X-137265Y-173679D02*
X-137269D01*
Y-173676D01*
X-137265D01*
Y-173679D01*
D02*
G37*
G36*
X-137271D02*
X-137276D01*
Y-173676D01*
X-137271D01*
Y-173679D01*
D02*
G37*
G36*
X-137277D02*
X-137282D01*
Y-173676D01*
X-137277D01*
Y-173679D01*
D02*
G37*
G36*
X-137283D02*
X-137288D01*
Y-173676D01*
X-137283D01*
Y-173679D01*
D02*
G37*
G36*
X-137289D02*
X-137294D01*
Y-173676D01*
X-137289D01*
Y-173679D01*
D02*
G37*
G36*
X-137295D02*
X-137300D01*
Y-173676D01*
X-137295D01*
Y-173679D01*
D02*
G37*
G36*
X-137302D02*
X-137306D01*
Y-173676D01*
X-137302D01*
Y-173679D01*
D02*
G37*
G36*
X-137308D02*
X-137312D01*
Y-173676D01*
X-137308D01*
Y-173679D01*
D02*
G37*
G36*
X-137096Y-173679D02*
X-137101D01*
Y-173676D01*
X-137096D01*
Y-173679D01*
D02*
G37*
G36*
X-137102D02*
X-137107D01*
Y-173676D01*
X-137102D01*
Y-173679D01*
D02*
G37*
G36*
X-137109D02*
X-137113D01*
Y-173676D01*
X-137109D01*
Y-173679D01*
D02*
G37*
G36*
X-137115D02*
X-137119D01*
Y-173676D01*
X-137115D01*
Y-173679D01*
D02*
G37*
G36*
X-137121D02*
X-137125D01*
Y-173676D01*
X-137121D01*
Y-173679D01*
D02*
G37*
G36*
X-137127D02*
X-137131D01*
Y-173676D01*
X-137127D01*
Y-173679D01*
D02*
G37*
G36*
X-137133D02*
X-137138D01*
Y-173676D01*
X-137133D01*
Y-173679D01*
D02*
G37*
G36*
X-137139D02*
X-137144D01*
Y-173676D01*
X-137139D01*
Y-173679D01*
D02*
G37*
G36*
X-137154D02*
X-137159D01*
Y-173676D01*
X-137154D01*
Y-173679D01*
D02*
G37*
G36*
X-137160D02*
X-137165D01*
Y-173676D01*
X-137160D01*
Y-173679D01*
D02*
G37*
G36*
X-137166D02*
X-137171D01*
Y-173676D01*
X-137166D01*
Y-173679D01*
D02*
G37*
G36*
X-137172D02*
X-137177D01*
Y-173676D01*
X-137172D01*
Y-173679D01*
D02*
G37*
G36*
X-137178D02*
X-137182D01*
Y-173676D01*
X-137178D01*
Y-173679D01*
D02*
G37*
G36*
X-137184D02*
X-137188D01*
Y-173676D01*
X-137184D01*
Y-173679D01*
D02*
G37*
G36*
X-137190D02*
X-137194D01*
Y-173676D01*
X-137190D01*
Y-173679D01*
D02*
G37*
G36*
X-137196D02*
X-137200D01*
Y-173676D01*
X-137196D01*
Y-173679D01*
D02*
G37*
G36*
X-137209D02*
X-137213D01*
Y-173676D01*
X-137209D01*
Y-173679D01*
D02*
G37*
G36*
X-137215D02*
X-137219D01*
Y-173676D01*
X-137215D01*
Y-173679D01*
D02*
G37*
G36*
X-137221D02*
X-137225D01*
Y-173676D01*
X-137221D01*
Y-173679D01*
D02*
G37*
G36*
X-137227D02*
X-137231D01*
Y-173676D01*
X-137227D01*
Y-173679D01*
D02*
G37*
G36*
X-137233D02*
X-137238D01*
Y-173676D01*
X-137233D01*
Y-173679D01*
D02*
G37*
G36*
X-137239D02*
X-137244D01*
Y-173676D01*
X-137239D01*
Y-173679D01*
D02*
G37*
G36*
X-137245D02*
X-137250D01*
Y-173676D01*
X-137245D01*
Y-173679D01*
D02*
G37*
G36*
X-137252D02*
X-137256D01*
Y-173676D01*
X-137252D01*
Y-173679D01*
D02*
G37*
G36*
X-137265Y-173685D02*
X-137269D01*
Y-173682D01*
X-137265D01*
Y-173685D01*
D02*
G37*
G36*
X-137271D02*
X-137276D01*
Y-173682D01*
X-137271D01*
Y-173685D01*
D02*
G37*
G36*
X-137277D02*
X-137282D01*
Y-173682D01*
X-137277D01*
Y-173685D01*
D02*
G37*
G36*
X-137283D02*
X-137288D01*
Y-173682D01*
X-137283D01*
Y-173685D01*
D02*
G37*
G36*
X-137289D02*
X-137294D01*
Y-173682D01*
X-137289D01*
Y-173685D01*
D02*
G37*
G36*
X-137295D02*
X-137300D01*
Y-173682D01*
X-137295D01*
Y-173685D01*
D02*
G37*
G36*
X-137302D02*
X-137306D01*
Y-173682D01*
X-137302D01*
Y-173685D01*
D02*
G37*
G36*
X-137308D02*
X-137312D01*
Y-173682D01*
X-137308D01*
Y-173685D01*
D02*
G37*
G36*
X-137096Y-173685D02*
X-137101D01*
Y-173682D01*
X-137096D01*
Y-173685D01*
D02*
G37*
G36*
X-137102D02*
X-137107D01*
Y-173682D01*
X-137102D01*
Y-173685D01*
D02*
G37*
G36*
X-137109D02*
X-137113D01*
Y-173682D01*
X-137109D01*
Y-173685D01*
D02*
G37*
G36*
X-137115D02*
X-137119D01*
Y-173682D01*
X-137115D01*
Y-173685D01*
D02*
G37*
G36*
X-137121D02*
X-137125D01*
Y-173682D01*
X-137121D01*
Y-173685D01*
D02*
G37*
G36*
X-137127D02*
X-137131D01*
Y-173682D01*
X-137127D01*
Y-173685D01*
D02*
G37*
G36*
X-137133D02*
X-137138D01*
Y-173682D01*
X-137133D01*
Y-173685D01*
D02*
G37*
G36*
X-137139D02*
X-137144D01*
Y-173682D01*
X-137139D01*
Y-173685D01*
D02*
G37*
G36*
X-137154D02*
X-137159D01*
Y-173682D01*
X-137154D01*
Y-173685D01*
D02*
G37*
G36*
X-137160D02*
X-137165D01*
Y-173682D01*
X-137160D01*
Y-173685D01*
D02*
G37*
G36*
X-137166D02*
X-137171D01*
Y-173682D01*
X-137166D01*
Y-173685D01*
D02*
G37*
G36*
X-137172D02*
X-137177D01*
Y-173682D01*
X-137172D01*
Y-173685D01*
D02*
G37*
G36*
X-137178D02*
X-137182D01*
Y-173682D01*
X-137178D01*
Y-173685D01*
D02*
G37*
G36*
X-137184D02*
X-137188D01*
Y-173682D01*
X-137184D01*
Y-173685D01*
D02*
G37*
G36*
X-137190D02*
X-137194D01*
Y-173682D01*
X-137190D01*
Y-173685D01*
D02*
G37*
G36*
X-137196D02*
X-137200D01*
Y-173682D01*
X-137196D01*
Y-173685D01*
D02*
G37*
G36*
X-137209D02*
X-137213D01*
Y-173682D01*
X-137209D01*
Y-173685D01*
D02*
G37*
G36*
X-137215D02*
X-137219D01*
Y-173682D01*
X-137215D01*
Y-173685D01*
D02*
G37*
G36*
X-137221D02*
X-137225D01*
Y-173682D01*
X-137221D01*
Y-173685D01*
D02*
G37*
G36*
X-137227D02*
X-137231D01*
Y-173682D01*
X-137227D01*
Y-173685D01*
D02*
G37*
G36*
X-137233D02*
X-137238D01*
Y-173682D01*
X-137233D01*
Y-173685D01*
D02*
G37*
G36*
X-137239D02*
X-137244D01*
Y-173682D01*
X-137239D01*
Y-173685D01*
D02*
G37*
G36*
X-137245D02*
X-137250D01*
Y-173682D01*
X-137245D01*
Y-173685D01*
D02*
G37*
G36*
X-137252D02*
X-137256D01*
Y-173682D01*
X-137252D01*
Y-173685D01*
D02*
G37*
G36*
X-137159Y-173692D02*
X-137159Y-173693D01*
X-137159Y-173699D01*
X-137159D01*
X-137159Y-173700D01*
X-137160Y-173700D01*
X-137161Y-173700D01*
X-137162Y-173699D01*
X-137162D01*
Y-173693D01*
X-137162D01*
X-137161Y-173692D01*
X-137160Y-173691D01*
X-137159Y-173692D01*
D02*
G37*
G36*
X-137164D02*
X-137164Y-173693D01*
X-137164Y-173699D01*
X-137164D01*
X-137164Y-173700D01*
X-137165Y-173700D01*
X-137166Y-173700D01*
X-137167Y-173699D01*
X-137167D01*
Y-173693D01*
X-137167D01*
X-137166Y-173692D01*
X-137165Y-173691D01*
X-137164Y-173692D01*
D02*
G37*
G36*
X-137169D02*
X-137169Y-173693D01*
X-137169Y-173699D01*
X-137169D01*
X-137169Y-173700D01*
X-137170Y-173700D01*
X-137171Y-173700D01*
X-137172Y-173699D01*
X-137172D01*
Y-173693D01*
X-137172D01*
X-137171Y-173692D01*
X-137170Y-173691D01*
X-137169Y-173692D01*
D02*
G37*
G36*
X-137174D02*
X-137174Y-173693D01*
X-137174Y-173699D01*
X-137174D01*
X-137174Y-173700D01*
X-137175Y-173700D01*
X-137176Y-173700D01*
X-137177Y-173699D01*
X-137177D01*
Y-173693D01*
X-137177D01*
X-137176Y-173692D01*
X-137175Y-173691D01*
X-137174Y-173692D01*
D02*
G37*
G36*
X-137179D02*
X-137179Y-173693D01*
X-137179Y-173699D01*
X-137179D01*
X-137179Y-173700D01*
X-137180Y-173700D01*
X-137181Y-173700D01*
X-137182Y-173699D01*
X-137182D01*
Y-173693D01*
X-137182D01*
X-137181Y-173692D01*
X-137180Y-173691D01*
X-137179Y-173692D01*
D02*
G37*
G36*
X-137184D02*
X-137184Y-173693D01*
X-137184Y-173699D01*
X-137184D01*
X-137184Y-173700D01*
X-137185Y-173700D01*
X-137186Y-173700D01*
X-137187Y-173699D01*
X-137187D01*
Y-173693D01*
X-137187D01*
X-137186Y-173692D01*
X-137185Y-173691D01*
X-137184Y-173692D01*
D02*
G37*
G36*
X-137189D02*
X-137189Y-173693D01*
X-137189Y-173699D01*
X-137189D01*
X-137189Y-173700D01*
X-137190Y-173700D01*
X-137191Y-173700D01*
X-137192Y-173699D01*
X-137192D01*
Y-173693D01*
X-137192D01*
X-137191Y-173692D01*
X-137190Y-173691D01*
X-137189Y-173692D01*
D02*
G37*
G36*
X-137194D02*
X-137194Y-173693D01*
X-137194Y-173699D01*
X-137194D01*
X-137194Y-173700D01*
X-137195Y-173700D01*
X-137196Y-173700D01*
X-137197Y-173699D01*
X-137197D01*
Y-173693D01*
X-137197D01*
X-137196Y-173692D01*
X-137195Y-173691D01*
X-137194Y-173692D01*
D02*
G37*
G36*
X-137214D02*
X-137214Y-173693D01*
X-137214Y-173699D01*
X-137214D01*
X-137214Y-173700D01*
X-137215Y-173700D01*
X-137216Y-173700D01*
X-137217Y-173699D01*
X-137217D01*
Y-173693D01*
X-137217D01*
X-137216Y-173692D01*
X-137215Y-173691D01*
X-137214Y-173692D01*
D02*
G37*
G36*
X-137219D02*
X-137219Y-173693D01*
X-137219Y-173699D01*
X-137219D01*
X-137219Y-173700D01*
X-137220Y-173700D01*
X-137221Y-173700D01*
X-137222Y-173699D01*
X-137222D01*
Y-173693D01*
X-137222D01*
X-137221Y-173692D01*
X-137220Y-173691D01*
X-137219Y-173692D01*
D02*
G37*
G36*
X-137224D02*
X-137224Y-173693D01*
X-137224Y-173699D01*
X-137224D01*
X-137224Y-173700D01*
X-137225Y-173700D01*
X-137226Y-173700D01*
X-137227Y-173699D01*
X-137227D01*
Y-173693D01*
X-137227D01*
X-137226Y-173692D01*
X-137225Y-173691D01*
X-137224Y-173692D01*
D02*
G37*
G36*
X-137229D02*
X-137229Y-173693D01*
X-137229Y-173699D01*
X-137229D01*
X-137229Y-173700D01*
X-137230Y-173700D01*
X-137231Y-173700D01*
X-137232Y-173699D01*
X-137232D01*
Y-173693D01*
X-137232D01*
X-137231Y-173692D01*
X-137230Y-173691D01*
X-137229Y-173692D01*
D02*
G37*
G36*
X-137234D02*
X-137234Y-173693D01*
X-137234Y-173699D01*
X-137234D01*
X-137234Y-173700D01*
X-137235Y-173700D01*
X-137236Y-173700D01*
X-137237Y-173699D01*
X-137237D01*
Y-173693D01*
X-137237D01*
X-137236Y-173692D01*
X-137235Y-173691D01*
X-137234Y-173692D01*
D02*
G37*
G36*
X-137239D02*
X-137239Y-173693D01*
X-137239Y-173699D01*
X-137239D01*
X-137239Y-173700D01*
X-137240Y-173700D01*
X-137241Y-173700D01*
X-137242Y-173699D01*
X-137242D01*
Y-173693D01*
X-137242D01*
X-137241Y-173692D01*
X-137240Y-173691D01*
X-137239Y-173692D01*
D02*
G37*
G36*
X-137244D02*
X-137244Y-173693D01*
X-137244Y-173699D01*
X-137244D01*
X-137244Y-173700D01*
X-137245Y-173700D01*
X-137246Y-173700D01*
X-137247Y-173699D01*
X-137247D01*
Y-173693D01*
X-137247D01*
X-137246Y-173692D01*
X-137245Y-173691D01*
X-137244Y-173692D01*
D02*
G37*
G36*
X-137249D02*
X-137249Y-173693D01*
X-137249Y-173699D01*
X-137249D01*
X-137249Y-173700D01*
X-137250Y-173700D01*
X-137251Y-173700D01*
X-137252Y-173699D01*
X-137252D01*
Y-173693D01*
X-137252D01*
X-137251Y-173692D01*
X-137250Y-173691D01*
X-137249Y-173692D01*
D02*
G37*
G36*
X-137102Y-173692D02*
X-137101Y-173693D01*
X-137102Y-173699D01*
X-137101D01*
X-137102Y-173700D01*
X-137103Y-173701D01*
X-137104Y-173700D01*
X-137105Y-173699D01*
X-137105D01*
Y-173693D01*
X-137105D01*
X-137104Y-173692D01*
X-137103Y-173692D01*
X-137102Y-173692D01*
D02*
G37*
G36*
X-137107D02*
X-137107Y-173693D01*
X-137107Y-173699D01*
X-137107D01*
X-137107Y-173700D01*
X-137108Y-173701D01*
X-137109Y-173700D01*
X-137110Y-173699D01*
X-137110D01*
Y-173693D01*
X-137110D01*
X-137109Y-173692D01*
X-137108Y-173692D01*
X-137107Y-173692D01*
D02*
G37*
G36*
X-137112D02*
X-137111Y-173693D01*
X-137112Y-173699D01*
X-137111D01*
X-137112Y-173700D01*
X-137113Y-173701D01*
X-137114Y-173700D01*
X-137115Y-173699D01*
X-137115D01*
Y-173693D01*
X-137115D01*
X-137114Y-173692D01*
X-137113Y-173692D01*
X-137112Y-173692D01*
D02*
G37*
G36*
X-137117D02*
X-137117Y-173693D01*
X-137117Y-173699D01*
X-137117D01*
X-137117Y-173700D01*
X-137118Y-173701D01*
X-137119Y-173700D01*
X-137120Y-173699D01*
X-137120D01*
Y-173693D01*
X-137120D01*
X-137119Y-173692D01*
X-137118Y-173692D01*
X-137117Y-173692D01*
D02*
G37*
G36*
X-137122D02*
X-137121Y-173693D01*
X-137122Y-173699D01*
X-137121D01*
X-137122Y-173700D01*
X-137123Y-173701D01*
X-137124Y-173700D01*
X-137125Y-173699D01*
X-137125D01*
Y-173693D01*
X-137125D01*
X-137124Y-173692D01*
X-137123Y-173692D01*
X-137122Y-173692D01*
D02*
G37*
G36*
X-137127D02*
X-137127Y-173693D01*
X-137127Y-173699D01*
X-137127D01*
X-137127Y-173700D01*
X-137128Y-173701D01*
X-137129Y-173700D01*
X-137130Y-173699D01*
X-137130D01*
Y-173693D01*
X-137130D01*
X-137129Y-173692D01*
X-137128Y-173692D01*
X-137127Y-173692D01*
D02*
G37*
G36*
X-137132D02*
X-137132Y-173693D01*
X-137132Y-173699D01*
X-137132D01*
X-137132Y-173700D01*
X-137133Y-173701D01*
X-137134Y-173700D01*
X-137135Y-173699D01*
X-137135D01*
Y-173693D01*
X-137135D01*
X-137134Y-173692D01*
X-137133Y-173692D01*
X-137132Y-173692D01*
D02*
G37*
G36*
X-137137D02*
X-137136Y-173693D01*
X-137137Y-173699D01*
X-137136D01*
X-137137Y-173700D01*
X-137138Y-173701D01*
X-137139Y-173700D01*
X-137140Y-173699D01*
X-137140D01*
Y-173693D01*
X-137140D01*
X-137139Y-173692D01*
X-137138Y-173692D01*
X-137137Y-173692D01*
D02*
G37*
G36*
X-137270Y-173693D02*
X-137269Y-173694D01*
X-137269Y-173699D01*
X-137269D01*
X-137270Y-173701D01*
X-137271Y-173701D01*
X-137272Y-173701D01*
X-137272Y-173699D01*
X-137272D01*
Y-173694D01*
X-137272D01*
X-137272Y-173693D01*
X-137271Y-173692D01*
X-137270Y-173693D01*
D02*
G37*
G36*
X-137275D02*
X-137274Y-173694D01*
X-137274Y-173699D01*
X-137274D01*
X-137275Y-173701D01*
X-137276Y-173701D01*
X-137277Y-173701D01*
X-137277Y-173699D01*
X-137277D01*
Y-173694D01*
X-137277D01*
X-137277Y-173693D01*
X-137276Y-173692D01*
X-137275Y-173693D01*
D02*
G37*
G36*
X-137280D02*
X-137279Y-173694D01*
X-137279Y-173699D01*
X-137279D01*
X-137280Y-173701D01*
X-137281Y-173701D01*
X-137282Y-173701D01*
X-137282Y-173699D01*
X-137282D01*
Y-173694D01*
X-137282D01*
X-137282Y-173693D01*
X-137281Y-173692D01*
X-137280Y-173693D01*
D02*
G37*
G36*
X-137285D02*
X-137284Y-173694D01*
X-137284Y-173699D01*
X-137284D01*
X-137285Y-173701D01*
X-137286Y-173701D01*
X-137287Y-173701D01*
X-137287Y-173699D01*
X-137287D01*
Y-173694D01*
X-137287D01*
X-137287Y-173693D01*
X-137286Y-173692D01*
X-137285Y-173693D01*
D02*
G37*
G36*
X-137290D02*
X-137289Y-173694D01*
X-137289Y-173699D01*
X-137289D01*
X-137290Y-173701D01*
X-137291Y-173701D01*
X-137292Y-173701D01*
X-137292Y-173699D01*
X-137292D01*
Y-173694D01*
X-137292D01*
X-137292Y-173693D01*
X-137291Y-173692D01*
X-137290Y-173693D01*
D02*
G37*
G36*
X-137295D02*
X-137294Y-173694D01*
X-137294Y-173699D01*
X-137294D01*
X-137295Y-173701D01*
X-137296Y-173701D01*
X-137297Y-173701D01*
X-137297Y-173699D01*
X-137297D01*
Y-173694D01*
X-137297D01*
X-137297Y-173693D01*
X-137296Y-173692D01*
X-137295Y-173693D01*
D02*
G37*
G36*
X-137300D02*
X-137299Y-173694D01*
X-137299Y-173699D01*
X-137299D01*
X-137300Y-173701D01*
X-137301Y-173701D01*
X-137302Y-173701D01*
X-137302Y-173699D01*
X-137302D01*
Y-173694D01*
X-137302D01*
X-137302Y-173693D01*
X-137301Y-173692D01*
X-137300Y-173693D01*
D02*
G37*
G36*
X-137305D02*
X-137304Y-173694D01*
X-137304Y-173699D01*
X-137304D01*
X-137305Y-173701D01*
X-137306Y-173701D01*
X-137307Y-173701D01*
X-137307Y-173699D01*
X-137307D01*
Y-173694D01*
X-137307D01*
X-137307Y-173693D01*
X-137306Y-173692D01*
X-137305Y-173693D01*
D02*
G37*
G36*
X-137151Y-173713D02*
X-137155D01*
Y-173709D01*
X-137151D01*
Y-173713D01*
D02*
G37*
G36*
X-137206D02*
X-137210D01*
Y-173709D01*
X-137206D01*
Y-173713D01*
D02*
G37*
G36*
X-137094Y-173713D02*
X-137098D01*
Y-173709D01*
X-137094D01*
Y-173713D01*
D02*
G37*
G36*
X-137261Y-173714D02*
X-137265D01*
Y-173710D01*
X-137261D01*
Y-173714D01*
D02*
G37*
G36*
X-137151Y-173719D02*
X-137155D01*
Y-173715D01*
X-137151D01*
Y-173719D01*
D02*
G37*
G36*
X-137206D02*
X-137210D01*
Y-173715D01*
X-137206D01*
Y-173719D01*
D02*
G37*
G36*
X-137094Y-173719D02*
X-137098D01*
Y-173715D01*
X-137094D01*
Y-173719D01*
D02*
G37*
G36*
X-137069Y-173720D02*
X-137076D01*
Y-173713D01*
X-137069D01*
Y-173720D01*
D02*
G37*
G36*
X-137261Y-173720D02*
X-137265D01*
Y-173716D01*
X-137261D01*
Y-173720D01*
D02*
G37*
G36*
X-137159Y-173713D02*
X-137159Y-173714D01*
X-137159Y-173720D01*
X-137159D01*
X-137159Y-173721D01*
X-137160Y-173722D01*
X-137161Y-173721D01*
X-137162Y-173720D01*
X-137162D01*
Y-173714D01*
X-137162D01*
X-137161Y-173713D01*
X-137160Y-173713D01*
X-137159Y-173713D01*
D02*
G37*
G36*
X-137164D02*
X-137164Y-173714D01*
X-137164Y-173720D01*
X-137164D01*
X-137164Y-173721D01*
X-137165Y-173722D01*
X-137166Y-173721D01*
X-137167Y-173720D01*
X-137167D01*
Y-173714D01*
X-137167D01*
X-137166Y-173713D01*
X-137165Y-173713D01*
X-137164Y-173713D01*
D02*
G37*
G36*
X-137169D02*
X-137169Y-173714D01*
X-137169Y-173720D01*
X-137169D01*
X-137169Y-173721D01*
X-137170Y-173722D01*
X-137171Y-173721D01*
X-137172Y-173720D01*
X-137172D01*
Y-173714D01*
X-137172D01*
X-137171Y-173713D01*
X-137170Y-173713D01*
X-137169Y-173713D01*
D02*
G37*
G36*
X-137174D02*
X-137174Y-173714D01*
X-137174Y-173720D01*
X-137174D01*
X-137174Y-173721D01*
X-137175Y-173722D01*
X-137176Y-173721D01*
X-137177Y-173720D01*
X-137177D01*
Y-173714D01*
X-137177D01*
X-137176Y-173713D01*
X-137175Y-173713D01*
X-137174Y-173713D01*
D02*
G37*
G36*
X-137179D02*
X-137179Y-173714D01*
X-137179Y-173720D01*
X-137179D01*
X-137179Y-173721D01*
X-137180Y-173722D01*
X-137181Y-173721D01*
X-137182Y-173720D01*
X-137182D01*
Y-173714D01*
X-137182D01*
X-137181Y-173713D01*
X-137180Y-173713D01*
X-137179Y-173713D01*
D02*
G37*
G36*
X-137184D02*
X-137184Y-173714D01*
X-137184Y-173720D01*
X-137184D01*
X-137184Y-173721D01*
X-137185Y-173722D01*
X-137186Y-173721D01*
X-137187Y-173720D01*
X-137187D01*
Y-173714D01*
X-137187D01*
X-137186Y-173713D01*
X-137185Y-173713D01*
X-137184Y-173713D01*
D02*
G37*
G36*
X-137189D02*
X-137189Y-173714D01*
X-137189Y-173720D01*
X-137189D01*
X-137189Y-173721D01*
X-137190Y-173722D01*
X-137191Y-173721D01*
X-137192Y-173720D01*
X-137192D01*
Y-173714D01*
X-137192D01*
X-137191Y-173713D01*
X-137190Y-173713D01*
X-137189Y-173713D01*
D02*
G37*
G36*
X-137194D02*
X-137194Y-173714D01*
X-137194Y-173720D01*
X-137194D01*
X-137194Y-173721D01*
X-137195Y-173722D01*
X-137196Y-173721D01*
X-137197Y-173720D01*
X-137197D01*
Y-173714D01*
X-137197D01*
X-137196Y-173713D01*
X-137195Y-173713D01*
X-137194Y-173713D01*
D02*
G37*
G36*
X-137214D02*
X-137214Y-173714D01*
X-137214Y-173720D01*
X-137214D01*
X-137214Y-173721D01*
X-137215Y-173722D01*
X-137216Y-173721D01*
X-137217Y-173720D01*
X-137217D01*
Y-173714D01*
X-137217D01*
X-137216Y-173713D01*
X-137215Y-173713D01*
X-137214Y-173713D01*
D02*
G37*
G36*
X-137219D02*
X-137219Y-173714D01*
X-137219Y-173720D01*
X-137219D01*
X-137219Y-173721D01*
X-137220Y-173722D01*
X-137221Y-173721D01*
X-137222Y-173720D01*
X-137222D01*
Y-173714D01*
X-137222D01*
X-137221Y-173713D01*
X-137220Y-173713D01*
X-137219Y-173713D01*
D02*
G37*
G36*
X-137224D02*
X-137224Y-173714D01*
X-137224Y-173720D01*
X-137224D01*
X-137224Y-173721D01*
X-137225Y-173722D01*
X-137226Y-173721D01*
X-137227Y-173720D01*
X-137227D01*
Y-173714D01*
X-137227D01*
X-137226Y-173713D01*
X-137225Y-173713D01*
X-137224Y-173713D01*
D02*
G37*
G36*
X-137229D02*
X-137229Y-173714D01*
X-137229Y-173720D01*
X-137229D01*
X-137229Y-173721D01*
X-137230Y-173722D01*
X-137231Y-173721D01*
X-137232Y-173720D01*
X-137232D01*
Y-173714D01*
X-137232D01*
X-137231Y-173713D01*
X-137230Y-173713D01*
X-137229Y-173713D01*
D02*
G37*
G36*
X-137234D02*
X-137234Y-173714D01*
X-137234Y-173720D01*
X-137234D01*
X-137234Y-173721D01*
X-137235Y-173722D01*
X-137236Y-173721D01*
X-137237Y-173720D01*
X-137237D01*
Y-173714D01*
X-137237D01*
X-137236Y-173713D01*
X-137235Y-173713D01*
X-137234Y-173713D01*
D02*
G37*
G36*
X-137239D02*
X-137239Y-173714D01*
X-137239Y-173720D01*
X-137239D01*
X-137239Y-173721D01*
X-137240Y-173722D01*
X-137241Y-173721D01*
X-137242Y-173720D01*
X-137242D01*
Y-173714D01*
X-137242D01*
X-137241Y-173713D01*
X-137240Y-173713D01*
X-137239Y-173713D01*
D02*
G37*
G36*
X-137244D02*
X-137244Y-173714D01*
X-137244Y-173720D01*
X-137244D01*
X-137244Y-173721D01*
X-137245Y-173722D01*
X-137246Y-173721D01*
X-137247Y-173720D01*
X-137247D01*
Y-173714D01*
X-137247D01*
X-137246Y-173713D01*
X-137245Y-173713D01*
X-137244Y-173713D01*
D02*
G37*
G36*
X-137249D02*
X-137249Y-173714D01*
X-137249Y-173720D01*
X-137249D01*
X-137249Y-173721D01*
X-137250Y-173722D01*
X-137251Y-173721D01*
X-137252Y-173720D01*
X-137252D01*
Y-173714D01*
X-137252D01*
X-137251Y-173713D01*
X-137250Y-173713D01*
X-137249Y-173713D01*
D02*
G37*
G36*
X-137102Y-173714D02*
X-137101Y-173715D01*
X-137102Y-173720D01*
X-137101D01*
X-137102Y-173722D01*
X-137103Y-173722D01*
X-137104Y-173722D01*
X-137105Y-173720D01*
X-137105D01*
Y-173715D01*
X-137105D01*
X-137104Y-173714D01*
X-137103Y-173713D01*
X-137102Y-173714D01*
D02*
G37*
G36*
X-137107D02*
X-137107Y-173715D01*
X-137107Y-173720D01*
X-137107D01*
X-137107Y-173722D01*
X-137108Y-173722D01*
X-137109Y-173722D01*
X-137110Y-173720D01*
X-137110D01*
Y-173715D01*
X-137110D01*
X-137109Y-173714D01*
X-137108Y-173713D01*
X-137107Y-173714D01*
D02*
G37*
G36*
X-137112D02*
X-137111Y-173715D01*
X-137112Y-173720D01*
X-137111D01*
X-137112Y-173722D01*
X-137113Y-173722D01*
X-137114Y-173722D01*
X-137115Y-173720D01*
X-137115D01*
Y-173715D01*
X-137115D01*
X-137114Y-173714D01*
X-137113Y-173713D01*
X-137112Y-173714D01*
D02*
G37*
G36*
X-137117D02*
X-137117Y-173715D01*
X-137117Y-173720D01*
X-137117D01*
X-137117Y-173722D01*
X-137118Y-173722D01*
X-137119Y-173722D01*
X-137120Y-173720D01*
X-137120D01*
Y-173715D01*
X-137120D01*
X-137119Y-173714D01*
X-137118Y-173713D01*
X-137117Y-173714D01*
D02*
G37*
G36*
X-137122D02*
X-137121Y-173715D01*
X-137122Y-173720D01*
X-137121D01*
X-137122Y-173722D01*
X-137123Y-173722D01*
X-137124Y-173722D01*
X-137125Y-173720D01*
X-137125D01*
Y-173715D01*
X-137125D01*
X-137124Y-173714D01*
X-137123Y-173713D01*
X-137122Y-173714D01*
D02*
G37*
G36*
X-137127D02*
X-137127Y-173715D01*
X-137127Y-173720D01*
X-137127D01*
X-137127Y-173722D01*
X-137128Y-173722D01*
X-137129Y-173722D01*
X-137130Y-173720D01*
X-137130D01*
Y-173715D01*
X-137130D01*
X-137129Y-173714D01*
X-137128Y-173713D01*
X-137127Y-173714D01*
D02*
G37*
G36*
X-137132D02*
X-137132Y-173715D01*
X-137132Y-173720D01*
X-137132D01*
X-137132Y-173722D01*
X-137133Y-173722D01*
X-137134Y-173722D01*
X-137135Y-173720D01*
X-137135D01*
Y-173715D01*
X-137135D01*
X-137134Y-173714D01*
X-137133Y-173713D01*
X-137132Y-173714D01*
D02*
G37*
G36*
X-137137D02*
X-137136Y-173715D01*
X-137137Y-173720D01*
X-137136D01*
X-137137Y-173722D01*
X-137138Y-173722D01*
X-137139Y-173722D01*
X-137140Y-173720D01*
X-137140D01*
Y-173715D01*
X-137140D01*
X-137139Y-173714D01*
X-137138Y-173713D01*
X-137137Y-173714D01*
D02*
G37*
G36*
X-137270Y-173714D02*
X-137269Y-173715D01*
X-137269Y-173721D01*
X-137269D01*
X-137270Y-173722D01*
X-137271Y-173722D01*
X-137272Y-173722D01*
X-137272Y-173721D01*
X-137272D01*
Y-173715D01*
X-137272D01*
X-137272Y-173714D01*
X-137271Y-173713D01*
X-137270Y-173714D01*
D02*
G37*
G36*
X-137275D02*
X-137274Y-173715D01*
X-137274Y-173721D01*
X-137274D01*
X-137275Y-173722D01*
X-137276Y-173722D01*
X-137277Y-173722D01*
X-137277Y-173721D01*
X-137277D01*
Y-173715D01*
X-137277D01*
X-137277Y-173714D01*
X-137276Y-173713D01*
X-137275Y-173714D01*
D02*
G37*
G36*
X-137280D02*
X-137279Y-173715D01*
X-137279Y-173721D01*
X-137279D01*
X-137280Y-173722D01*
X-137281Y-173722D01*
X-137282Y-173722D01*
X-137282Y-173721D01*
X-137282D01*
Y-173715D01*
X-137282D01*
X-137282Y-173714D01*
X-137281Y-173713D01*
X-137280Y-173714D01*
D02*
G37*
G36*
X-137285D02*
X-137284Y-173715D01*
X-137284Y-173721D01*
X-137284D01*
X-137285Y-173722D01*
X-137286Y-173722D01*
X-137287Y-173722D01*
X-137287Y-173721D01*
X-137287D01*
Y-173715D01*
X-137287D01*
X-137287Y-173714D01*
X-137286Y-173713D01*
X-137285Y-173714D01*
D02*
G37*
G36*
X-137290D02*
X-137289Y-173715D01*
X-137289Y-173721D01*
X-137289D01*
X-137290Y-173722D01*
X-137291Y-173722D01*
X-137292Y-173722D01*
X-137292Y-173721D01*
X-137292D01*
Y-173715D01*
X-137292D01*
X-137292Y-173714D01*
X-137291Y-173713D01*
X-137290Y-173714D01*
D02*
G37*
G36*
X-137295D02*
X-137294Y-173715D01*
X-137294Y-173721D01*
X-137294D01*
X-137295Y-173722D01*
X-137296Y-173722D01*
X-137297Y-173722D01*
X-137297Y-173721D01*
X-137297D01*
Y-173715D01*
X-137297D01*
X-137297Y-173714D01*
X-137296Y-173713D01*
X-137295Y-173714D01*
D02*
G37*
G36*
X-137300D02*
X-137299Y-173715D01*
X-137299Y-173721D01*
X-137299D01*
X-137300Y-173722D01*
X-137301Y-173722D01*
X-137302Y-173722D01*
X-137302Y-173721D01*
X-137302D01*
Y-173715D01*
X-137302D01*
X-137302Y-173714D01*
X-137301Y-173713D01*
X-137300Y-173714D01*
D02*
G37*
G36*
X-137305D02*
X-137304Y-173715D01*
X-137304Y-173721D01*
X-137304D01*
X-137305Y-173722D01*
X-137306Y-173722D01*
X-137307Y-173722D01*
X-137307Y-173721D01*
X-137307D01*
Y-173715D01*
X-137307D01*
X-137307Y-173714D01*
X-137306Y-173713D01*
X-137305Y-173714D01*
D02*
G37*
G36*
X-137144Y-173743D02*
X-137147D01*
Y-173739D01*
X-137144D01*
Y-173743D01*
D02*
G37*
G36*
X-137201D02*
X-137205D01*
Y-173739D01*
X-137201D01*
Y-173743D01*
D02*
G37*
G36*
X-137256Y-173744D02*
X-137259D01*
Y-173740D01*
X-137256D01*
Y-173744D01*
D02*
G37*
G36*
X-137311Y-173744D02*
X-137315D01*
Y-173740D01*
X-137311D01*
Y-173744D01*
D02*
G37*
G36*
X-137102Y-173737D02*
X-137102Y-173739D01*
X-137102D01*
Y-173744D01*
X-137102D01*
X-137102Y-173745D01*
X-137103Y-173746D01*
X-137104Y-173745D01*
X-137105Y-173744D01*
X-137105Y-173739D01*
X-137105D01*
X-137104Y-173737D01*
X-137103Y-173737D01*
X-137102Y-173737D01*
D02*
G37*
G36*
X-137107D02*
X-137107Y-173739D01*
X-137107D01*
Y-173744D01*
X-137107D01*
X-137107Y-173745D01*
X-137108Y-173746D01*
X-137109Y-173745D01*
X-137110Y-173744D01*
X-137110Y-173739D01*
X-137110D01*
X-137109Y-173737D01*
X-137108Y-173737D01*
X-137107Y-173737D01*
D02*
G37*
G36*
X-137112D02*
X-137112Y-173739D01*
X-137112D01*
Y-173744D01*
X-137112D01*
X-137112Y-173745D01*
X-137113Y-173746D01*
X-137115Y-173745D01*
X-137115Y-173744D01*
X-137115Y-173739D01*
X-137115D01*
X-137115Y-173737D01*
X-137113Y-173737D01*
X-137112Y-173737D01*
D02*
G37*
G36*
X-137117D02*
X-137117Y-173739D01*
X-137117D01*
Y-173744D01*
X-137117D01*
X-137117Y-173745D01*
X-137118Y-173746D01*
X-137119Y-173745D01*
X-137120Y-173744D01*
X-137120Y-173739D01*
X-137120D01*
X-137119Y-173737D01*
X-137118Y-173737D01*
X-137117Y-173737D01*
D02*
G37*
G36*
X-137122D02*
X-137122Y-173739D01*
X-137122D01*
Y-173744D01*
X-137122D01*
X-137122Y-173745D01*
X-137123Y-173746D01*
X-137125Y-173745D01*
X-137125Y-173744D01*
X-137125Y-173739D01*
X-137125D01*
X-137125Y-173737D01*
X-137123Y-173737D01*
X-137122Y-173737D01*
D02*
G37*
G36*
X-137127D02*
X-137127Y-173739D01*
X-137127D01*
Y-173744D01*
X-137127D01*
X-137127Y-173745D01*
X-137128Y-173746D01*
X-137129Y-173745D01*
X-137130Y-173744D01*
X-137130Y-173739D01*
X-137130D01*
X-137129Y-173737D01*
X-137128Y-173737D01*
X-137127Y-173737D01*
D02*
G37*
G36*
X-137132D02*
X-137132Y-173739D01*
X-137132D01*
Y-173744D01*
X-137132D01*
X-137132Y-173745D01*
X-137133Y-173746D01*
X-137135Y-173745D01*
X-137135Y-173744D01*
X-137135Y-173739D01*
X-137135D01*
X-137135Y-173737D01*
X-137133Y-173737D01*
X-137132Y-173737D01*
D02*
G37*
G36*
X-137137D02*
X-137137Y-173739D01*
X-137137D01*
Y-173744D01*
X-137137D01*
X-137137Y-173745D01*
X-137138Y-173746D01*
X-137139Y-173745D01*
X-137140Y-173744D01*
X-137140Y-173739D01*
X-137140D01*
X-137139Y-173737D01*
X-137138Y-173737D01*
X-137137Y-173737D01*
D02*
G37*
G36*
X-137159D02*
X-137159Y-173739D01*
X-137159D01*
Y-173744D01*
X-137159D01*
X-137159Y-173745D01*
X-137160Y-173746D01*
X-137162Y-173745D01*
X-137162Y-173744D01*
X-137162Y-173739D01*
X-137162D01*
X-137162Y-173737D01*
X-137160Y-173737D01*
X-137159Y-173737D01*
D02*
G37*
G36*
X-137164D02*
X-137164Y-173739D01*
X-137164D01*
Y-173744D01*
X-137164D01*
X-137164Y-173745D01*
X-137165Y-173746D01*
X-137167Y-173745D01*
X-137167Y-173744D01*
X-137167Y-173739D01*
X-137167D01*
X-137167Y-173737D01*
X-137165Y-173737D01*
X-137164Y-173737D01*
D02*
G37*
G36*
X-137169D02*
X-137169Y-173739D01*
X-137169D01*
Y-173744D01*
X-137169D01*
X-137169Y-173745D01*
X-137170Y-173746D01*
X-137171Y-173745D01*
X-137172Y-173744D01*
X-137172Y-173739D01*
X-137172D01*
X-137171Y-173737D01*
X-137170Y-173737D01*
X-137169Y-173737D01*
D02*
G37*
G36*
X-137174D02*
X-137174Y-173739D01*
X-137174D01*
Y-173744D01*
X-137174D01*
X-137174Y-173745D01*
X-137175Y-173746D01*
X-137177Y-173745D01*
X-137177Y-173744D01*
X-137177Y-173739D01*
X-137177D01*
X-137177Y-173737D01*
X-137175Y-173737D01*
X-137174Y-173737D01*
D02*
G37*
G36*
X-137179D02*
X-137179Y-173739D01*
X-137179D01*
Y-173744D01*
X-137179D01*
X-137179Y-173745D01*
X-137180Y-173746D01*
X-137181Y-173745D01*
X-137182Y-173744D01*
X-137182Y-173739D01*
X-137182D01*
X-137181Y-173737D01*
X-137180Y-173737D01*
X-137179Y-173737D01*
D02*
G37*
G36*
X-137184D02*
X-137184Y-173739D01*
X-137184D01*
Y-173744D01*
X-137184D01*
X-137184Y-173745D01*
X-137185Y-173746D01*
X-137187Y-173745D01*
X-137187Y-173744D01*
X-137187Y-173739D01*
X-137187D01*
X-137187Y-173737D01*
X-137185Y-173737D01*
X-137184Y-173737D01*
D02*
G37*
G36*
X-137189D02*
X-137189Y-173739D01*
X-137189D01*
Y-173744D01*
X-137189D01*
X-137189Y-173745D01*
X-137190Y-173746D01*
X-137191Y-173745D01*
X-137192Y-173744D01*
X-137192Y-173739D01*
X-137192D01*
X-137191Y-173737D01*
X-137190Y-173737D01*
X-137189Y-173737D01*
D02*
G37*
G36*
X-137194D02*
X-137194Y-173739D01*
X-137194D01*
Y-173744D01*
X-137194D01*
X-137194Y-173745D01*
X-137195Y-173746D01*
X-137197Y-173745D01*
X-137197Y-173744D01*
X-137197Y-173739D01*
X-137197D01*
X-137197Y-173737D01*
X-137195Y-173737D01*
X-137194Y-173737D01*
D02*
G37*
G36*
X-137214D02*
X-137214Y-173739D01*
X-137214D01*
Y-173744D01*
X-137214D01*
X-137214Y-173745D01*
X-137215Y-173746D01*
X-137216Y-173745D01*
X-137217Y-173744D01*
X-137217Y-173739D01*
X-137217D01*
X-137216Y-173737D01*
X-137215Y-173737D01*
X-137214Y-173737D01*
D02*
G37*
G36*
X-137219D02*
X-137219Y-173739D01*
X-137219D01*
Y-173744D01*
X-137219D01*
X-137219Y-173745D01*
X-137220Y-173746D01*
X-137222Y-173745D01*
X-137222Y-173744D01*
X-137222Y-173739D01*
X-137222D01*
X-137222Y-173737D01*
X-137220Y-173737D01*
X-137219Y-173737D01*
D02*
G37*
G36*
X-137224D02*
X-137224Y-173739D01*
X-137224D01*
Y-173744D01*
X-137224D01*
X-137224Y-173745D01*
X-137225Y-173746D01*
X-137226Y-173745D01*
X-137227Y-173744D01*
X-137227Y-173739D01*
X-137227D01*
X-137226Y-173737D01*
X-137225Y-173737D01*
X-137224Y-173737D01*
D02*
G37*
G36*
X-137229D02*
X-137229Y-173739D01*
X-137229D01*
Y-173744D01*
X-137229D01*
X-137229Y-173745D01*
X-137230Y-173746D01*
X-137232Y-173745D01*
X-137232Y-173744D01*
X-137232Y-173739D01*
X-137232D01*
X-137232Y-173737D01*
X-137230Y-173737D01*
X-137229Y-173737D01*
D02*
G37*
G36*
X-137234D02*
X-137234Y-173739D01*
X-137234D01*
Y-173744D01*
X-137234D01*
X-137234Y-173745D01*
X-137235Y-173746D01*
X-137236Y-173745D01*
X-137237Y-173744D01*
X-137237Y-173739D01*
X-137237D01*
X-137236Y-173737D01*
X-137235Y-173737D01*
X-137234Y-173737D01*
D02*
G37*
G36*
X-137239D02*
X-137239Y-173739D01*
X-137239D01*
Y-173744D01*
X-137239D01*
X-137239Y-173745D01*
X-137240Y-173746D01*
X-137241Y-173745D01*
X-137242Y-173744D01*
X-137242Y-173739D01*
X-137242D01*
X-137241Y-173737D01*
X-137240Y-173737D01*
X-137239Y-173737D01*
D02*
G37*
G36*
X-137244D02*
X-137244Y-173739D01*
X-137244D01*
Y-173744D01*
X-137244D01*
X-137244Y-173745D01*
X-137245Y-173746D01*
X-137247Y-173745D01*
X-137247Y-173744D01*
X-137247Y-173739D01*
X-137247D01*
X-137247Y-173737D01*
X-137245Y-173737D01*
X-137244Y-173737D01*
D02*
G37*
G36*
X-137249D02*
X-137249Y-173739D01*
X-137249D01*
Y-173744D01*
X-137249D01*
X-137249Y-173745D01*
X-137250Y-173746D01*
X-137251Y-173745D01*
X-137252Y-173744D01*
X-137252Y-173739D01*
X-137252D01*
X-137251Y-173737D01*
X-137250Y-173737D01*
X-137249Y-173737D01*
D02*
G37*
G36*
X-137270Y-173738D02*
X-137269Y-173739D01*
X-137269D01*
Y-173745D01*
X-137269D01*
X-137270Y-173746D01*
X-137271Y-173747D01*
X-137272Y-173746D01*
X-137272Y-173745D01*
X-137272Y-173739D01*
X-137272D01*
X-137272Y-173738D01*
X-137271Y-173738D01*
X-137270Y-173738D01*
D02*
G37*
G36*
X-137275D02*
X-137274Y-173739D01*
X-137274D01*
Y-173745D01*
X-137274D01*
X-137275Y-173746D01*
X-137276Y-173747D01*
X-137277Y-173746D01*
X-137277Y-173745D01*
X-137277Y-173739D01*
X-137277D01*
X-137277Y-173738D01*
X-137276Y-173738D01*
X-137275Y-173738D01*
D02*
G37*
G36*
X-137280D02*
X-137279Y-173739D01*
X-137279D01*
Y-173745D01*
X-137279D01*
X-137280Y-173746D01*
X-137281Y-173747D01*
X-137282Y-173746D01*
X-137282Y-173745D01*
X-137282Y-173739D01*
X-137282D01*
X-137282Y-173738D01*
X-137281Y-173738D01*
X-137280Y-173738D01*
D02*
G37*
G36*
X-137285D02*
X-137284Y-173739D01*
X-137284D01*
Y-173745D01*
X-137284D01*
X-137285Y-173746D01*
X-137286Y-173747D01*
X-137287Y-173746D01*
X-137287Y-173745D01*
X-137287Y-173739D01*
X-137287D01*
X-137287Y-173738D01*
X-137286Y-173738D01*
X-137285Y-173738D01*
D02*
G37*
G36*
X-137290D02*
X-137289Y-173739D01*
X-137289D01*
Y-173745D01*
X-137289D01*
X-137290Y-173746D01*
X-137291Y-173747D01*
X-137292Y-173746D01*
X-137292Y-173745D01*
X-137292Y-173739D01*
X-137292D01*
X-137292Y-173738D01*
X-137291Y-173738D01*
X-137290Y-173738D01*
D02*
G37*
G36*
X-137295D02*
X-137294Y-173739D01*
X-137294D01*
Y-173745D01*
X-137294D01*
X-137295Y-173746D01*
X-137296Y-173747D01*
X-137297Y-173746D01*
X-137297Y-173745D01*
X-137297Y-173739D01*
X-137297D01*
X-137297Y-173738D01*
X-137296Y-173738D01*
X-137295Y-173738D01*
D02*
G37*
G36*
X-137300D02*
X-137299Y-173739D01*
X-137299D01*
Y-173745D01*
X-137299D01*
X-137300Y-173746D01*
X-137301Y-173747D01*
X-137302Y-173746D01*
X-137302Y-173745D01*
X-137302Y-173739D01*
X-137302D01*
X-137302Y-173738D01*
X-137301Y-173738D01*
X-137300Y-173738D01*
D02*
G37*
G36*
X-137305D02*
X-137304Y-173739D01*
X-137304D01*
Y-173745D01*
X-137304D01*
X-137305Y-173746D01*
X-137306Y-173747D01*
X-137307Y-173746D01*
X-137307Y-173745D01*
X-137307Y-173739D01*
X-137307D01*
X-137307Y-173738D01*
X-137306Y-173738D01*
X-137305Y-173738D01*
D02*
G37*
G36*
X-137341Y-173749D02*
X-137347D01*
Y-173742D01*
X-137341D01*
Y-173749D01*
D02*
G37*
G36*
X-137144Y-173749D02*
X-137147D01*
Y-173745D01*
X-137144D01*
Y-173749D01*
D02*
G37*
G36*
X-137201D02*
X-137205D01*
Y-173745D01*
X-137201D01*
Y-173749D01*
D02*
G37*
G36*
X-137256Y-173750D02*
X-137259D01*
Y-173746D01*
X-137256D01*
Y-173750D01*
D02*
G37*
G36*
X-137311Y-173750D02*
X-137315D01*
Y-173746D01*
X-137311D01*
Y-173750D01*
D02*
G37*
G36*
X-137102Y-173759D02*
X-137102Y-173760D01*
X-137102D01*
Y-173766D01*
X-137102D01*
X-137102Y-173767D01*
X-137103Y-173767D01*
X-137104Y-173767D01*
X-137105Y-173766D01*
X-137105Y-173760D01*
X-137105D01*
X-137104Y-173759D01*
X-137103Y-173758D01*
X-137102Y-173759D01*
D02*
G37*
G36*
X-137107D02*
X-137107Y-173760D01*
X-137107D01*
Y-173766D01*
X-137107D01*
X-137107Y-173767D01*
X-137108Y-173767D01*
X-137109Y-173767D01*
X-137110Y-173766D01*
X-137110Y-173760D01*
X-137110D01*
X-137109Y-173759D01*
X-137108Y-173758D01*
X-137107Y-173759D01*
D02*
G37*
G36*
X-137112D02*
X-137112Y-173760D01*
X-137112D01*
Y-173766D01*
X-137112D01*
X-137112Y-173767D01*
X-137113Y-173767D01*
X-137115Y-173767D01*
X-137115Y-173766D01*
X-137115Y-173760D01*
X-137115D01*
X-137115Y-173759D01*
X-137113Y-173758D01*
X-137112Y-173759D01*
D02*
G37*
G36*
X-137117D02*
X-137117Y-173760D01*
X-137117D01*
Y-173766D01*
X-137117D01*
X-137117Y-173767D01*
X-137118Y-173767D01*
X-137119Y-173767D01*
X-137120Y-173766D01*
X-137120Y-173760D01*
X-137120D01*
X-137119Y-173759D01*
X-137118Y-173758D01*
X-137117Y-173759D01*
D02*
G37*
G36*
X-137122D02*
X-137122Y-173760D01*
X-137122D01*
Y-173766D01*
X-137122D01*
X-137122Y-173767D01*
X-137123Y-173767D01*
X-137125Y-173767D01*
X-137125Y-173766D01*
X-137125Y-173760D01*
X-137125D01*
X-137125Y-173759D01*
X-137123Y-173758D01*
X-137122Y-173759D01*
D02*
G37*
G36*
X-137127D02*
X-137127Y-173760D01*
X-137127D01*
Y-173766D01*
X-137127D01*
X-137127Y-173767D01*
X-137128Y-173767D01*
X-137129Y-173767D01*
X-137130Y-173766D01*
X-137130Y-173760D01*
X-137130D01*
X-137129Y-173759D01*
X-137128Y-173758D01*
X-137127Y-173759D01*
D02*
G37*
G36*
X-137132D02*
X-137132Y-173760D01*
X-137132D01*
Y-173766D01*
X-137132D01*
X-137132Y-173767D01*
X-137133Y-173767D01*
X-137135Y-173767D01*
X-137135Y-173766D01*
X-137135Y-173760D01*
X-137135D01*
X-137135Y-173759D01*
X-137133Y-173758D01*
X-137132Y-173759D01*
D02*
G37*
G36*
X-137137D02*
X-137137Y-173760D01*
X-137137D01*
Y-173766D01*
X-137137D01*
X-137137Y-173767D01*
X-137138Y-173767D01*
X-137139Y-173767D01*
X-137140Y-173766D01*
X-137140Y-173760D01*
X-137140D01*
X-137139Y-173759D01*
X-137138Y-173758D01*
X-137137Y-173759D01*
D02*
G37*
G36*
X-137159D02*
X-137159Y-173760D01*
X-137159D01*
Y-173766D01*
X-137159D01*
X-137159Y-173767D01*
X-137160Y-173767D01*
X-137162Y-173767D01*
X-137162Y-173766D01*
X-137162Y-173760D01*
X-137162D01*
X-137162Y-173759D01*
X-137160Y-173758D01*
X-137159Y-173759D01*
D02*
G37*
G36*
X-137164D02*
X-137164Y-173760D01*
X-137164D01*
Y-173766D01*
X-137164D01*
X-137164Y-173767D01*
X-137165Y-173767D01*
X-137167Y-173767D01*
X-137167Y-173766D01*
X-137167Y-173760D01*
X-137167D01*
X-137167Y-173759D01*
X-137165Y-173758D01*
X-137164Y-173759D01*
D02*
G37*
G36*
X-137169D02*
X-137169Y-173760D01*
X-137169D01*
Y-173766D01*
X-137169D01*
X-137169Y-173767D01*
X-137170Y-173767D01*
X-137171Y-173767D01*
X-137172Y-173766D01*
X-137172Y-173760D01*
X-137172D01*
X-137171Y-173759D01*
X-137170Y-173758D01*
X-137169Y-173759D01*
D02*
G37*
G36*
X-137174D02*
X-137174Y-173760D01*
X-137174D01*
Y-173766D01*
X-137174D01*
X-137174Y-173767D01*
X-137175Y-173767D01*
X-137177Y-173767D01*
X-137177Y-173766D01*
X-137177Y-173760D01*
X-137177D01*
X-137177Y-173759D01*
X-137175Y-173758D01*
X-137174Y-173759D01*
D02*
G37*
G36*
X-137179D02*
X-137179Y-173760D01*
X-137179D01*
Y-173766D01*
X-137179D01*
X-137179Y-173767D01*
X-137180Y-173767D01*
X-137181Y-173767D01*
X-137182Y-173766D01*
X-137182Y-173760D01*
X-137182D01*
X-137181Y-173759D01*
X-137180Y-173758D01*
X-137179Y-173759D01*
D02*
G37*
G36*
X-137184D02*
X-137184Y-173760D01*
X-137184D01*
Y-173766D01*
X-137184D01*
X-137184Y-173767D01*
X-137185Y-173767D01*
X-137187Y-173767D01*
X-137187Y-173766D01*
X-137187Y-173760D01*
X-137187D01*
X-137187Y-173759D01*
X-137185Y-173758D01*
X-137184Y-173759D01*
D02*
G37*
G36*
X-137189D02*
X-137189Y-173760D01*
X-137189D01*
Y-173766D01*
X-137189D01*
X-137189Y-173767D01*
X-137190Y-173767D01*
X-137191Y-173767D01*
X-137192Y-173766D01*
X-137192Y-173760D01*
X-137192D01*
X-137191Y-173759D01*
X-137190Y-173758D01*
X-137189Y-173759D01*
D02*
G37*
G36*
X-137194D02*
X-137194Y-173760D01*
X-137194D01*
Y-173766D01*
X-137194D01*
X-137194Y-173767D01*
X-137195Y-173767D01*
X-137197Y-173767D01*
X-137197Y-173766D01*
X-137197Y-173760D01*
X-137197D01*
X-137197Y-173759D01*
X-137195Y-173758D01*
X-137194Y-173759D01*
D02*
G37*
G36*
X-137214D02*
X-137214Y-173760D01*
X-137214D01*
Y-173766D01*
X-137214D01*
X-137214Y-173767D01*
X-137215Y-173767D01*
X-137216Y-173767D01*
X-137217Y-173766D01*
X-137217Y-173760D01*
X-137217D01*
X-137216Y-173759D01*
X-137215Y-173758D01*
X-137214Y-173759D01*
D02*
G37*
G36*
X-137219D02*
X-137219Y-173760D01*
X-137219D01*
Y-173766D01*
X-137219D01*
X-137219Y-173767D01*
X-137220Y-173767D01*
X-137222Y-173767D01*
X-137222Y-173766D01*
X-137222Y-173760D01*
X-137222D01*
X-137222Y-173759D01*
X-137220Y-173758D01*
X-137219Y-173759D01*
D02*
G37*
G36*
X-137224D02*
X-137224Y-173760D01*
X-137224D01*
Y-173766D01*
X-137224D01*
X-137224Y-173767D01*
X-137225Y-173767D01*
X-137226Y-173767D01*
X-137227Y-173766D01*
X-137227Y-173760D01*
X-137227D01*
X-137226Y-173759D01*
X-137225Y-173758D01*
X-137224Y-173759D01*
D02*
G37*
G36*
X-137229D02*
X-137229Y-173760D01*
X-137229D01*
Y-173766D01*
X-137229D01*
X-137229Y-173767D01*
X-137230Y-173767D01*
X-137232Y-173767D01*
X-137232Y-173766D01*
X-137232Y-173760D01*
X-137232D01*
X-137232Y-173759D01*
X-137230Y-173758D01*
X-137229Y-173759D01*
D02*
G37*
G36*
X-137234D02*
X-137234Y-173760D01*
X-137234D01*
Y-173766D01*
X-137234D01*
X-137234Y-173767D01*
X-137235Y-173767D01*
X-137236Y-173767D01*
X-137237Y-173766D01*
X-137237Y-173760D01*
X-137237D01*
X-137236Y-173759D01*
X-137235Y-173758D01*
X-137234Y-173759D01*
D02*
G37*
G36*
X-137239D02*
X-137239Y-173760D01*
X-137239D01*
Y-173766D01*
X-137239D01*
X-137239Y-173767D01*
X-137240Y-173767D01*
X-137241Y-173767D01*
X-137242Y-173766D01*
X-137242Y-173760D01*
X-137242D01*
X-137241Y-173759D01*
X-137240Y-173758D01*
X-137239Y-173759D01*
D02*
G37*
G36*
X-137244D02*
X-137244Y-173760D01*
X-137244D01*
Y-173766D01*
X-137244D01*
X-137244Y-173767D01*
X-137245Y-173767D01*
X-137247Y-173767D01*
X-137247Y-173766D01*
X-137247Y-173760D01*
X-137247D01*
X-137247Y-173759D01*
X-137245Y-173758D01*
X-137244Y-173759D01*
D02*
G37*
G36*
X-137249D02*
X-137249Y-173760D01*
X-137249D01*
Y-173766D01*
X-137249D01*
X-137249Y-173767D01*
X-137250Y-173767D01*
X-137251Y-173767D01*
X-137252Y-173766D01*
X-137252Y-173760D01*
X-137252D01*
X-137251Y-173759D01*
X-137250Y-173758D01*
X-137249Y-173759D01*
D02*
G37*
G36*
X-137270Y-173759D02*
X-137269Y-173760D01*
X-137269D01*
Y-173766D01*
X-137269D01*
X-137270Y-173767D01*
X-137271Y-173768D01*
X-137272Y-173767D01*
X-137272Y-173766D01*
X-137272Y-173760D01*
X-137272D01*
X-137272Y-173759D01*
X-137271Y-173759D01*
X-137270Y-173759D01*
D02*
G37*
G36*
X-137275D02*
X-137274Y-173760D01*
X-137274D01*
Y-173766D01*
X-137274D01*
X-137275Y-173767D01*
X-137276Y-173768D01*
X-137277Y-173767D01*
X-137277Y-173766D01*
X-137277Y-173760D01*
X-137277D01*
X-137277Y-173759D01*
X-137276Y-173759D01*
X-137275Y-173759D01*
D02*
G37*
G36*
X-137280D02*
X-137279Y-173760D01*
X-137279D01*
Y-173766D01*
X-137279D01*
X-137280Y-173767D01*
X-137281Y-173768D01*
X-137282Y-173767D01*
X-137282Y-173766D01*
X-137282Y-173760D01*
X-137282D01*
X-137282Y-173759D01*
X-137281Y-173759D01*
X-137280Y-173759D01*
D02*
G37*
G36*
X-137285D02*
X-137284Y-173760D01*
X-137284D01*
Y-173766D01*
X-137284D01*
X-137285Y-173767D01*
X-137286Y-173768D01*
X-137287Y-173767D01*
X-137287Y-173766D01*
X-137287Y-173760D01*
X-137287D01*
X-137287Y-173759D01*
X-137286Y-173759D01*
X-137285Y-173759D01*
D02*
G37*
G36*
X-137290D02*
X-137289Y-173760D01*
X-137289D01*
Y-173766D01*
X-137289D01*
X-137290Y-173767D01*
X-137291Y-173768D01*
X-137292Y-173767D01*
X-137292Y-173766D01*
X-137292Y-173760D01*
X-137292D01*
X-137292Y-173759D01*
X-137291Y-173759D01*
X-137290Y-173759D01*
D02*
G37*
G36*
X-137295D02*
X-137294Y-173760D01*
X-137294D01*
Y-173766D01*
X-137294D01*
X-137295Y-173767D01*
X-137296Y-173768D01*
X-137297Y-173767D01*
X-137297Y-173766D01*
X-137297Y-173760D01*
X-137297D01*
X-137297Y-173759D01*
X-137296Y-173759D01*
X-137295Y-173759D01*
D02*
G37*
G36*
X-137300D02*
X-137299Y-173760D01*
X-137299D01*
Y-173766D01*
X-137299D01*
X-137300Y-173767D01*
X-137301Y-173768D01*
X-137302Y-173767D01*
X-137302Y-173766D01*
X-137302Y-173760D01*
X-137302D01*
X-137302Y-173759D01*
X-137301Y-173759D01*
X-137300Y-173759D01*
D02*
G37*
G36*
X-137305D02*
X-137304Y-173760D01*
X-137304D01*
Y-173766D01*
X-137304D01*
X-137305Y-173767D01*
X-137306Y-173768D01*
X-137307Y-173767D01*
X-137307Y-173766D01*
X-137307Y-173760D01*
X-137307D01*
X-137307Y-173759D01*
X-137306Y-173759D01*
X-137305Y-173759D01*
D02*
G37*
G36*
X-137097Y-173777D02*
X-137101D01*
Y-173774D01*
X-137097D01*
Y-173777D01*
D02*
G37*
G36*
X-137103D02*
X-137108D01*
Y-173774D01*
X-137103D01*
Y-173777D01*
D02*
G37*
G36*
X-137109D02*
X-137114D01*
Y-173774D01*
X-137109D01*
Y-173777D01*
D02*
G37*
G36*
X-137115D02*
X-137120D01*
Y-173774D01*
X-137115D01*
Y-173777D01*
D02*
G37*
G36*
X-137121D02*
X-137126D01*
Y-173774D01*
X-137121D01*
Y-173777D01*
D02*
G37*
G36*
X-137127D02*
X-137132D01*
Y-173774D01*
X-137127D01*
Y-173777D01*
D02*
G37*
G36*
X-137134D02*
X-137138D01*
Y-173774D01*
X-137134D01*
Y-173777D01*
D02*
G37*
G36*
X-137140D02*
X-137144D01*
Y-173774D01*
X-137140D01*
Y-173777D01*
D02*
G37*
G36*
X-137154D02*
X-137158D01*
Y-173774D01*
X-137154D01*
Y-173777D01*
D02*
G37*
G36*
X-137160D02*
X-137164D01*
Y-173774D01*
X-137160D01*
Y-173777D01*
D02*
G37*
G36*
X-137166D02*
X-137170D01*
Y-173774D01*
X-137166D01*
Y-173777D01*
D02*
G37*
G36*
X-137172D02*
X-137176D01*
Y-173774D01*
X-137172D01*
Y-173777D01*
D02*
G37*
G36*
X-137178D02*
X-137182D01*
Y-173774D01*
X-137178D01*
Y-173777D01*
D02*
G37*
G36*
X-137184D02*
X-137188D01*
Y-173774D01*
X-137184D01*
Y-173777D01*
D02*
G37*
G36*
X-137190D02*
X-137194D01*
Y-173774D01*
X-137190D01*
Y-173777D01*
D02*
G37*
G36*
X-137196D02*
X-137200D01*
Y-173774D01*
X-137196D01*
Y-173777D01*
D02*
G37*
G36*
X-137210D02*
X-137214D01*
Y-173774D01*
X-137210D01*
Y-173777D01*
D02*
G37*
G36*
X-137216D02*
X-137220D01*
Y-173774D01*
X-137216D01*
Y-173777D01*
D02*
G37*
G36*
X-137222D02*
X-137226D01*
Y-173774D01*
X-137222D01*
Y-173777D01*
D02*
G37*
G36*
X-137228D02*
X-137232D01*
Y-173774D01*
X-137228D01*
Y-173777D01*
D02*
G37*
G36*
X-137234D02*
X-137238D01*
Y-173774D01*
X-137234D01*
Y-173777D01*
D02*
G37*
G36*
X-137240D02*
X-137244D01*
Y-173774D01*
X-137240D01*
Y-173777D01*
D02*
G37*
G36*
X-137246D02*
X-137250D01*
Y-173774D01*
X-137246D01*
Y-173777D01*
D02*
G37*
G36*
X-137252D02*
X-137256D01*
Y-173774D01*
X-137252D01*
Y-173777D01*
D02*
G37*
G36*
X-137264Y-173777D02*
X-137268D01*
Y-173775D01*
X-137264D01*
Y-173777D01*
D02*
G37*
G36*
X-137270D02*
X-137275D01*
Y-173775D01*
X-137270D01*
Y-173777D01*
D02*
G37*
G36*
X-137276D02*
X-137281D01*
Y-173775D01*
X-137276D01*
Y-173777D01*
D02*
G37*
G36*
X-137283D02*
X-137287D01*
Y-173775D01*
X-137283D01*
Y-173777D01*
D02*
G37*
G36*
X-137289D02*
X-137293D01*
Y-173775D01*
X-137289D01*
Y-173777D01*
D02*
G37*
G36*
X-137295D02*
X-137299D01*
Y-173775D01*
X-137295D01*
Y-173777D01*
D02*
G37*
G36*
X-137301D02*
X-137305D01*
Y-173775D01*
X-137301D01*
Y-173777D01*
D02*
G37*
G36*
X-137307D02*
X-137311D01*
Y-173775D01*
X-137307D01*
Y-173777D01*
D02*
G37*
G36*
X-137097Y-173783D02*
X-137101D01*
Y-173780D01*
X-137097D01*
Y-173783D01*
D02*
G37*
G36*
X-137103D02*
X-137108D01*
Y-173780D01*
X-137103D01*
Y-173783D01*
D02*
G37*
G36*
X-137109D02*
X-137114D01*
Y-173780D01*
X-137109D01*
Y-173783D01*
D02*
G37*
G36*
X-137115D02*
X-137120D01*
Y-173780D01*
X-137115D01*
Y-173783D01*
D02*
G37*
G36*
X-137121D02*
X-137126D01*
Y-173780D01*
X-137121D01*
Y-173783D01*
D02*
G37*
G36*
X-137127D02*
X-137132D01*
Y-173780D01*
X-137127D01*
Y-173783D01*
D02*
G37*
G36*
X-137134D02*
X-137138D01*
Y-173780D01*
X-137134D01*
Y-173783D01*
D02*
G37*
G36*
X-137140D02*
X-137144D01*
Y-173780D01*
X-137140D01*
Y-173783D01*
D02*
G37*
G36*
X-137154D02*
X-137158D01*
Y-173780D01*
X-137154D01*
Y-173783D01*
D02*
G37*
G36*
X-137160D02*
X-137164D01*
Y-173780D01*
X-137160D01*
Y-173783D01*
D02*
G37*
G36*
X-137166D02*
X-137170D01*
Y-173780D01*
X-137166D01*
Y-173783D01*
D02*
G37*
G36*
X-137172D02*
X-137176D01*
Y-173780D01*
X-137172D01*
Y-173783D01*
D02*
G37*
G36*
X-137178D02*
X-137182D01*
Y-173780D01*
X-137178D01*
Y-173783D01*
D02*
G37*
G36*
X-137184D02*
X-137188D01*
Y-173780D01*
X-137184D01*
Y-173783D01*
D02*
G37*
G36*
X-137190D02*
X-137194D01*
Y-173780D01*
X-137190D01*
Y-173783D01*
D02*
G37*
G36*
X-137196D02*
X-137200D01*
Y-173780D01*
X-137196D01*
Y-173783D01*
D02*
G37*
G36*
X-137210D02*
X-137214D01*
Y-173780D01*
X-137210D01*
Y-173783D01*
D02*
G37*
G36*
X-137216D02*
X-137220D01*
Y-173780D01*
X-137216D01*
Y-173783D01*
D02*
G37*
G36*
X-137222D02*
X-137226D01*
Y-173780D01*
X-137222D01*
Y-173783D01*
D02*
G37*
G36*
X-137228D02*
X-137232D01*
Y-173780D01*
X-137228D01*
Y-173783D01*
D02*
G37*
G36*
X-137234D02*
X-137238D01*
Y-173780D01*
X-137234D01*
Y-173783D01*
D02*
G37*
G36*
X-137240D02*
X-137244D01*
Y-173780D01*
X-137240D01*
Y-173783D01*
D02*
G37*
G36*
X-137246D02*
X-137250D01*
Y-173780D01*
X-137246D01*
Y-173783D01*
D02*
G37*
G36*
X-137252D02*
X-137256D01*
Y-173780D01*
X-137252D01*
Y-173783D01*
D02*
G37*
G36*
X-137264Y-173783D02*
X-137268D01*
Y-173780D01*
X-137264D01*
Y-173783D01*
D02*
G37*
G36*
X-137270D02*
X-137275D01*
Y-173780D01*
X-137270D01*
Y-173783D01*
D02*
G37*
G36*
X-137276D02*
X-137281D01*
Y-173780D01*
X-137276D01*
Y-173783D01*
D02*
G37*
G36*
X-137283D02*
X-137287D01*
Y-173780D01*
X-137283D01*
Y-173783D01*
D02*
G37*
G36*
X-137289D02*
X-137293D01*
Y-173780D01*
X-137289D01*
Y-173783D01*
D02*
G37*
G36*
X-137295D02*
X-137299D01*
Y-173780D01*
X-137295D01*
Y-173783D01*
D02*
G37*
G36*
X-137301D02*
X-137305D01*
Y-173780D01*
X-137301D01*
Y-173783D01*
D02*
G37*
G36*
X-137307D02*
X-137311D01*
Y-173780D01*
X-137307D01*
Y-173783D01*
D02*
G37*
G36*
X-137184Y-173809D02*
X-137191D01*
Y-173803D01*
X-137184D01*
Y-173809D01*
D02*
G37*
G36*
X-137286D02*
X-137292D01*
Y-173803D01*
X-137286D01*
Y-173809D01*
D02*
G37*
G36*
X-137068Y-173814D02*
X-137075D01*
Y-173807D01*
X-137068D01*
Y-173814D01*
D02*
G37*
D118*
X-137079Y-173513D02*
G03*
X-137079Y-173513I-2J0D01*
G01*
X-137059D02*
G03*
X-137059Y-173513I-2J0D01*
G01*
X-137191Y-173632D02*
G03*
X-137191Y-173632I-3J0D01*
G01*
X-137181D02*
G03*
X-137181Y-173632I-3J0D01*
G01*
X-137141D02*
G03*
X-137141Y-173632I-3J0D01*
G01*
X-137131D02*
G03*
X-137131Y-173632I-3J0D01*
G01*
X-137151D02*
G03*
X-137151Y-173632I-3J0D01*
G01*
X-137161D02*
G03*
X-137161Y-173632I-3J0D01*
G01*
X-137171D02*
G03*
X-137171Y-173632I-3J0D01*
G01*
X-137068Y-173791D02*
G03*
X-137068Y-173791I-3J0D01*
G01*
Y-173781D02*
G03*
X-137068Y-173781I-3J0D01*
G01*
Y-173801D02*
G03*
X-137068Y-173801I-3J0D01*
G01*
Y-173771D02*
G03*
X-137068Y-173771I-3J0D01*
G01*
Y-173761D02*
G03*
X-137068Y-173761I-3J0D01*
G01*
Y-173751D02*
G03*
X-137068Y-173751I-3J0D01*
G01*
Y-173742D02*
G03*
X-137068Y-173742I-3J0D01*
G01*
X-137069Y-173647D02*
G03*
X-137069Y-173647I-3J0D01*
G01*
Y-173657D02*
G03*
X-137069Y-173657I-3J0D01*
G01*
Y-173667D02*
G03*
X-137069Y-173667I-3J0D01*
G01*
Y-173677D02*
G03*
X-137069Y-173677I-3J0D01*
G01*
Y-173706D02*
G03*
X-137069Y-173706I-3J0D01*
G01*
Y-173687D02*
G03*
X-137069Y-173687I-3J0D01*
G01*
Y-173696D02*
G03*
X-137069Y-173696I-3J0D01*
G01*
X-137289Y-173628D02*
G03*
X-137289Y-173628I-3J0D01*
G01*
X-137279D02*
G03*
X-137279Y-173628I-3J0D01*
G01*
X-137269D02*
G03*
X-137269Y-173628I-3J0D01*
G01*
X-137260D02*
G03*
X-137260Y-173628I-3J0D01*
G01*
X-137230D02*
G03*
X-137230Y-173628I-3J0D01*
G01*
X-137250D02*
G03*
X-137250Y-173628I-3J0D01*
G01*
X-137240D02*
G03*
X-137240Y-173628I-3J0D01*
G01*
X-137115Y-173806D02*
G03*
X-137115Y-173806I-3J0D01*
G01*
X-137125D02*
G03*
X-137125Y-173806I-3J0D01*
G01*
X-137135D02*
G03*
X-137135Y-173806I-3J0D01*
G01*
X-137144D02*
G03*
X-137144Y-173806I-3J0D01*
G01*
X-137174D02*
G03*
X-137174Y-173806I-3J0D01*
G01*
X-137154D02*
G03*
X-137154Y-173806I-3J0D01*
G01*
X-137164D02*
G03*
X-137164Y-173806I-3J0D01*
G01*
X-137138Y-173654D02*
G03*
X-137138Y-173654I-3J0D01*
G01*
X-137148D02*
G03*
X-137148Y-173654I-3J0D01*
G01*
X-137128D02*
G03*
X-137128Y-173654I-3J0D01*
G01*
X-137158D02*
G03*
X-137158Y-173654I-3J0D01*
G01*
X-137168D02*
G03*
X-137168Y-173654I-3J0D01*
G01*
X-137178D02*
G03*
X-137178Y-173654I-3J0D01*
G01*
X-137188D02*
G03*
X-137188Y-173654I-3J0D01*
G01*
X-137289D02*
G03*
X-137289Y-173654I-3J0D01*
G01*
X-137279D02*
G03*
X-137279Y-173654I-3J0D01*
G01*
X-137270D02*
G03*
X-137270Y-173654I-3J0D01*
G01*
X-137260D02*
G03*
X-137260Y-173654I-3J0D01*
G01*
X-137230D02*
G03*
X-137230Y-173654I-3J0D01*
G01*
X-137250D02*
G03*
X-137250Y-173654I-3J0D01*
G01*
X-137240D02*
G03*
X-137240Y-173654I-3J0D01*
G01*
X-137341Y-173814D02*
G03*
X-137341Y-173814I-3J0D01*
G01*
Y-173804D02*
G03*
X-137341Y-173804I-3J0D01*
G01*
Y-173794D02*
G03*
X-137341Y-173794I-3J0D01*
G01*
Y-173785D02*
G03*
X-137341Y-173785I-3J0D01*
G01*
Y-173755D02*
G03*
X-137341Y-173755I-3J0D01*
G01*
Y-173775D02*
G03*
X-137341Y-173775I-3J0D01*
G01*
Y-173765D02*
G03*
X-137341Y-173765I-3J0D01*
G01*
Y-173671D02*
G03*
X-137341Y-173671I-3J0D01*
G01*
Y-173680D02*
G03*
X-137341Y-173680I-3J0D01*
G01*
Y-173661D02*
G03*
X-137341Y-173661I-3J0D01*
G01*
Y-173690D02*
G03*
X-137341Y-173690I-3J0D01*
G01*
Y-173700D02*
G03*
X-137341Y-173700I-3J0D01*
G01*
Y-173710D02*
G03*
X-137341Y-173710I-3J0D01*
G01*
Y-173720D02*
G03*
X-137341Y-173720I-3J0D01*
G01*
X-137151Y-173605D02*
G03*
X-137151Y-173605I-3J0D01*
G01*
X-137161D02*
G03*
X-137161Y-173605I-3J0D01*
G01*
X-137181D02*
G03*
X-137181Y-173605I-3J0D01*
G01*
X-137171D02*
G03*
X-137171Y-173605I-3J0D01*
G01*
X-137057Y-173607D02*
G03*
X-137057Y-173607I-4J0D01*
G01*
X-137074D02*
G03*
X-137074Y-173607I-4J0D01*
G01*
X-137293Y-173546D02*
G03*
X-137293Y-173546I-4J0D01*
G01*
Y-173536D02*
G03*
X-137293Y-173536I-4J0D01*
G01*
Y-173526D02*
G03*
X-137293Y-173526I-4J0D01*
G01*
X-137339Y-173576D02*
G03*
X-137339Y-173576I-3J0D01*
G01*
X-137331D02*
G03*
X-137331Y-173576I-3J0D01*
G01*
X-137190Y-173526D02*
G03*
X-137190Y-173526I-2J0D01*
G01*
X-137185D02*
G03*
X-137185Y-173526I-2J0D01*
G01*
Y-173531D02*
G03*
X-137185Y-173531I-2J0D01*
G01*
X-137190D02*
G03*
X-137190Y-173531I-2J0D01*
G01*
X-137193Y-173529D02*
G03*
X-137193Y-173529I-2J0D01*
G01*
X-137187D02*
G03*
X-137187Y-173529I-2J0D01*
G01*
X-137182D02*
G03*
X-137182Y-173529I-2J0D01*
G01*
X-137185Y-173537D02*
G03*
X-137185Y-173537I-2J0D01*
G01*
X-137193Y-173534D02*
G03*
X-137193Y-173534I-2J0D01*
G01*
X-137187D02*
G03*
X-137187Y-173534I-2J0D01*
G01*
X-137182D02*
G03*
X-137182Y-173534I-2J0D01*
G01*
X-137190Y-173537D02*
G03*
X-137190Y-173537I-2J0D01*
G01*
X-137266Y-173806D02*
G03*
X-137266Y-173806I-3J0D01*
G01*
X-137256D02*
G03*
X-137256Y-173806I-3J0D01*
G01*
X-137276D02*
G03*
X-137276Y-173806I-3J0D01*
G01*
X-137246D02*
G03*
X-137246Y-173806I-3J0D01*
G01*
X-137236D02*
G03*
X-137236Y-173806I-3J0D01*
G01*
X-137227D02*
G03*
X-137227Y-173806I-3J0D01*
G01*
X-137217D02*
G03*
X-137217Y-173806I-3J0D01*
G01*
%TF.MD5,601f94d742476ddd70b40d6c2a45dc35*%
M02*
