%TF.GenerationSoftware,Altium Limited,Altium Designer,22.10.1 (41)*%
G04 Layer_Color=8388736*
%FSLAX25Y25*%
%MOIN*%
%TF.SameCoordinates,BEAA4B2D-68BC-4382-99D5-5DCEA874A810*%
%TF.FilePolarity,Positive*%
%TF.FileFunction,Other,Mechanical_14*%
%TF.Part,Single*%
G01*
G75*
%TA.AperFunction,NonConductor*%
%ADD114C,0.00000*%
%TA.AperFunction,SMDPad,CuDef*%
%ADD115C,0.00000*%
%TA.AperFunction,NonConductor*%
%ADD117C,0.00000*%
%ADD127C,0.00000*%
G36*
X-137145Y-173503D02*
X-137151D01*
Y-173499D01*
X-137145D01*
Y-173503D01*
D02*
G37*
G36*
X-137216D02*
X-137222D01*
Y-173499D01*
X-137216D01*
Y-173503D01*
D02*
G37*
G36*
X-137145Y-173508D02*
X-137151D01*
Y-173504D01*
X-137145D01*
Y-173508D01*
D02*
G37*
G36*
X-137216D02*
X-137222D01*
Y-173504D01*
X-137216D01*
Y-173508D01*
D02*
G37*
G36*
X-137110Y-173509D02*
X-137113D01*
Y-173507D01*
X-137110D01*
Y-173509D01*
D02*
G37*
G36*
X-137136D02*
X-137139D01*
Y-173507D01*
X-137136D01*
Y-173509D01*
D02*
G37*
G36*
X-137117Y-173509D02*
X-137124D01*
Y-173506D01*
X-137117D01*
Y-173509D01*
D02*
G37*
G36*
X-137104Y-173510D02*
X-137107D01*
Y-173506D01*
X-137104D01*
Y-173510D01*
D02*
G37*
G36*
X-137129D02*
X-137133D01*
Y-173506D01*
X-137129D01*
Y-173510D01*
D02*
G37*
G36*
X-137092Y-173510D02*
X-137100D01*
Y-173507D01*
X-137092D01*
Y-173510D01*
D02*
G37*
G36*
X-137336Y-173510D02*
X-137339D01*
Y-173507D01*
X-137336D01*
Y-173510D01*
D02*
G37*
G36*
X-137342D02*
X-137345D01*
Y-173507D01*
X-137342D01*
Y-173510D01*
D02*
G37*
G36*
X-137315Y-173504D02*
X-137315Y-173505D01*
X-137315D01*
Y-173510D01*
X-137315D01*
X-137315Y-173511D01*
X-137316Y-173511D01*
X-137317Y-173511D01*
X-137318Y-173510D01*
X-137317Y-173505D01*
X-137318D01*
X-137317Y-173504D01*
X-137316Y-173504D01*
X-137315Y-173504D01*
D02*
G37*
G36*
X-137320D02*
X-137320Y-173505D01*
X-137320D01*
Y-173510D01*
X-137320D01*
X-137320Y-173511D01*
X-137321Y-173511D01*
X-137322Y-173511D01*
X-137322Y-173510D01*
X-137322Y-173505D01*
X-137322D01*
X-137322Y-173504D01*
X-137321Y-173504D01*
X-137320Y-173504D01*
D02*
G37*
G36*
X-137325D02*
X-137325Y-173505D01*
X-137325D01*
Y-173510D01*
X-137325D01*
X-137325Y-173511D01*
X-137326Y-173511D01*
X-137327Y-173511D01*
X-137328Y-173510D01*
X-137327Y-173505D01*
X-137328D01*
X-137327Y-173504D01*
X-137326Y-173504D01*
X-137325Y-173504D01*
D02*
G37*
G36*
X-137330D02*
X-137330Y-173505D01*
X-137330D01*
Y-173510D01*
X-137330D01*
X-137330Y-173511D01*
X-137331Y-173511D01*
X-137332Y-173511D01*
X-137332Y-173510D01*
X-137332Y-173505D01*
X-137332D01*
X-137332Y-173504D01*
X-137331Y-173504D01*
X-137330Y-173504D01*
D02*
G37*
G36*
X-137145Y-173513D02*
X-137151D01*
Y-173509D01*
X-137145D01*
Y-173513D01*
D02*
G37*
G36*
X-137216D02*
X-137222D01*
Y-173509D01*
X-137216D01*
Y-173513D01*
D02*
G37*
G36*
X-137230Y-173514D02*
X-137232D01*
Y-173511D01*
X-137230D01*
Y-173514D01*
D02*
G37*
G36*
X-137236D02*
X-137238D01*
Y-173511D01*
X-137236D01*
Y-173514D01*
D02*
G37*
G36*
X-137110Y-173515D02*
X-137113D01*
Y-173512D01*
X-137110D01*
Y-173515D01*
D02*
G37*
G36*
X-137136D02*
X-137139D01*
Y-173512D01*
X-137136D01*
Y-173515D01*
D02*
G37*
G36*
X-137280Y-173515D02*
X-137283D01*
Y-173512D01*
X-137280D01*
Y-173515D01*
D02*
G37*
G36*
X-137286D02*
X-137289D01*
Y-173512D01*
X-137286D01*
Y-173515D01*
D02*
G37*
G36*
X-137267Y-173515D02*
X-137270D01*
Y-173512D01*
X-137267D01*
Y-173515D01*
D02*
G37*
G36*
X-137273D02*
X-137276D01*
Y-173512D01*
X-137273D01*
Y-173515D01*
D02*
G37*
G36*
X-137104Y-173516D02*
X-137107D01*
Y-173512D01*
X-137104D01*
Y-173516D01*
D02*
G37*
G36*
X-137129D02*
X-137133D01*
Y-173512D01*
X-137129D01*
Y-173516D01*
D02*
G37*
G36*
X-137336Y-173516D02*
X-137339D01*
Y-173513D01*
X-137336D01*
Y-173516D01*
D02*
G37*
G36*
X-137342D02*
X-137345D01*
Y-173513D01*
X-137342D01*
Y-173516D01*
D02*
G37*
G36*
X-137145Y-173518D02*
X-137151D01*
Y-173514D01*
X-137145D01*
Y-173518D01*
D02*
G37*
G36*
X-137216D02*
X-137222D01*
Y-173514D01*
X-137216D01*
Y-173518D01*
D02*
G37*
G36*
X-137065Y-173520D02*
X-137067D01*
Y-173515D01*
X-137065D01*
Y-173520D01*
D02*
G37*
G36*
X-137068D02*
X-137069D01*
Y-173515D01*
X-137068D01*
Y-173520D01*
D02*
G37*
G36*
X-137070D02*
X-137072D01*
Y-173515D01*
X-137070D01*
Y-173520D01*
D02*
G37*
G36*
X-137073D02*
X-137074D01*
Y-173515D01*
X-137073D01*
Y-173520D01*
D02*
G37*
G36*
X-137075D02*
X-137077D01*
Y-173515D01*
X-137075D01*
Y-173520D01*
D02*
G37*
G36*
X-137280Y-173521D02*
X-137283D01*
Y-173518D01*
X-137280D01*
Y-173521D01*
D02*
G37*
G36*
X-137286D02*
X-137289D01*
Y-173518D01*
X-137286D01*
Y-173521D01*
D02*
G37*
G36*
X-137267Y-173521D02*
X-137270D01*
Y-173518D01*
X-137267D01*
Y-173521D01*
D02*
G37*
G36*
X-137273D02*
X-137276D01*
Y-173518D01*
X-137273D01*
Y-173521D01*
D02*
G37*
G36*
X-137342Y-173521D02*
X-137345D01*
Y-173518D01*
X-137342D01*
Y-173521D01*
D02*
G37*
G36*
X-137337Y-173521D02*
X-137340D01*
Y-173518D01*
X-137337D01*
Y-173521D01*
D02*
G37*
G36*
X-137129Y-173522D02*
X-137133D01*
Y-173519D01*
X-137129D01*
Y-173522D01*
D02*
G37*
G36*
X-137135D02*
X-137138D01*
Y-173519D01*
X-137135D01*
Y-173522D01*
D02*
G37*
G36*
X-137230Y-173522D02*
X-137232D01*
Y-173519D01*
X-137230D01*
Y-173522D01*
D02*
G37*
G36*
X-137236D02*
X-137238D01*
Y-173519D01*
X-137236D01*
Y-173522D01*
D02*
G37*
G36*
X-137117Y-173523D02*
X-137124D01*
Y-173520D01*
X-137117D01*
Y-173523D01*
D02*
G37*
G36*
X-137145Y-173523D02*
X-137151D01*
Y-173519D01*
X-137145D01*
Y-173523D01*
D02*
G37*
G36*
X-137216D02*
X-137222D01*
Y-173519D01*
X-137216D01*
Y-173523D01*
D02*
G37*
G36*
X-137092Y-173523D02*
X-137100D01*
Y-173520D01*
X-137092D01*
Y-173523D01*
D02*
G37*
G36*
X-137342Y-173527D02*
X-137345D01*
Y-173524D01*
X-137342D01*
Y-173527D01*
D02*
G37*
G36*
X-137337Y-173527D02*
X-137340D01*
Y-173524D01*
X-137337D01*
Y-173527D01*
D02*
G37*
G36*
X-137129Y-173528D02*
X-137133D01*
Y-173524D01*
X-137129D01*
Y-173528D01*
D02*
G37*
G36*
X-137135D02*
X-137138D01*
Y-173524D01*
X-137135D01*
Y-173528D01*
D02*
G37*
G36*
X-137104Y-173528D02*
X-137106D01*
Y-173524D01*
X-137104D01*
Y-173528D01*
D02*
G37*
G36*
X-137109D02*
X-137112D01*
Y-173524D01*
X-137109D01*
Y-173528D01*
D02*
G37*
G36*
X-137182D02*
X-137185D01*
Y-173524D01*
X-137182D01*
Y-173528D01*
D02*
G37*
G36*
X-137187D02*
X-137191D01*
Y-173524D01*
X-137187D01*
Y-173528D01*
D02*
G37*
G36*
X-137193D02*
X-137196D01*
Y-173524D01*
X-137193D01*
Y-173528D01*
D02*
G37*
G36*
X-137145Y-173528D02*
X-137151D01*
Y-173524D01*
X-137145D01*
Y-173528D01*
D02*
G37*
G36*
X-137216D02*
X-137222D01*
Y-173524D01*
X-137216D01*
Y-173528D01*
D02*
G37*
G36*
X-137230Y-173529D02*
X-137233D01*
Y-173526D01*
X-137230D01*
Y-173529D01*
D02*
G37*
G36*
X-137236D02*
X-137239D01*
Y-173526D01*
X-137236D01*
Y-173529D01*
D02*
G37*
G36*
X-137114Y-173530D02*
X-137119D01*
Y-173527D01*
X-137114D01*
Y-173530D01*
D02*
G37*
G36*
X-137097Y-173530D02*
X-137102D01*
Y-173527D01*
X-137097D01*
Y-173530D01*
D02*
G37*
G36*
X-137252Y-173525D02*
X-137252Y-173525D01*
X-137252D01*
Y-173530D01*
X-137252D01*
X-137252Y-173530D01*
X-137253Y-173531D01*
X-137253Y-173530D01*
X-137253Y-173530D01*
X-137253Y-173525D01*
X-137253D01*
X-137253Y-173525D01*
X-137253Y-173525D01*
X-137252Y-173525D01*
D02*
G37*
G36*
X-137254D02*
X-137254Y-173525D01*
X-137254D01*
Y-173530D01*
X-137254D01*
X-137254Y-173530D01*
X-137255Y-173531D01*
X-137255Y-173530D01*
X-137255Y-173530D01*
X-137255Y-173525D01*
X-137255D01*
X-137255Y-173525D01*
X-137255Y-173525D01*
X-137254Y-173525D01*
D02*
G37*
G36*
X-137256D02*
X-137256Y-173525D01*
X-137256D01*
Y-173530D01*
X-137256D01*
X-137256Y-173530D01*
X-137257Y-173531D01*
X-137257Y-173530D01*
X-137257Y-173530D01*
X-137257Y-173525D01*
X-137257D01*
X-137257Y-173525D01*
X-137257Y-173525D01*
X-137256Y-173525D01*
D02*
G37*
G36*
X-137258D02*
X-137258Y-173525D01*
X-137258D01*
Y-173530D01*
X-137258D01*
X-137258Y-173530D01*
X-137259Y-173531D01*
X-137259Y-173530D01*
X-137259Y-173530D01*
X-137259Y-173525D01*
X-137259D01*
X-137259Y-173525D01*
X-137259Y-173525D01*
X-137258Y-173525D01*
D02*
G37*
G36*
X-137260D02*
X-137260Y-173525D01*
X-137260D01*
Y-173530D01*
X-137260D01*
X-137260Y-173530D01*
X-137261Y-173531D01*
X-137261Y-173530D01*
X-137261Y-173530D01*
X-137261Y-173525D01*
X-137261D01*
X-137261Y-173525D01*
X-137261Y-173525D01*
X-137260Y-173525D01*
D02*
G37*
G36*
X-137262D02*
X-137262Y-173525D01*
X-137262D01*
Y-173530D01*
X-137262D01*
X-137262Y-173530D01*
X-137263Y-173531D01*
X-137263Y-173530D01*
X-137263Y-173530D01*
X-137263Y-173525D01*
X-137263D01*
X-137263Y-173525D01*
X-137263Y-173525D01*
X-137262Y-173525D01*
D02*
G37*
G36*
X-137264D02*
X-137264Y-173525D01*
X-137264D01*
Y-173530D01*
X-137264D01*
X-137264Y-173530D01*
X-137265Y-173531D01*
X-137265Y-173530D01*
X-137265Y-173530D01*
X-137265Y-173525D01*
X-137265D01*
X-137265Y-173525D01*
X-137265Y-173525D01*
X-137264Y-173525D01*
D02*
G37*
G36*
X-137266D02*
X-137266Y-173525D01*
X-137266D01*
Y-173530D01*
X-137266D01*
X-137266Y-173530D01*
X-137267Y-173531D01*
X-137267Y-173530D01*
X-137267Y-173530D01*
X-137267Y-173525D01*
X-137267D01*
X-137267Y-173525D01*
X-137267Y-173525D01*
X-137266Y-173525D01*
D02*
G37*
G36*
X-137268D02*
X-137268Y-173525D01*
X-137268D01*
Y-173530D01*
X-137268D01*
X-137268Y-173530D01*
X-137269Y-173531D01*
X-137269Y-173530D01*
X-137269Y-173530D01*
X-137269Y-173525D01*
X-137269D01*
X-137269Y-173525D01*
X-137269Y-173525D01*
X-137268Y-173525D01*
D02*
G37*
G36*
X-137270D02*
X-137270Y-173525D01*
X-137270D01*
Y-173530D01*
X-137270D01*
X-137270Y-173530D01*
X-137271Y-173531D01*
X-137271Y-173530D01*
X-137271Y-173530D01*
X-137271Y-173525D01*
X-137271D01*
X-137271Y-173525D01*
X-137271Y-173525D01*
X-137270Y-173525D01*
D02*
G37*
G36*
X-137272D02*
X-137272Y-173525D01*
X-137272D01*
Y-173530D01*
X-137272D01*
X-137272Y-173530D01*
X-137273Y-173531D01*
X-137273Y-173530D01*
X-137273Y-173530D01*
X-137273Y-173525D01*
X-137273D01*
X-137273Y-173525D01*
X-137273Y-173525D01*
X-137272Y-173525D01*
D02*
G37*
G36*
X-137274D02*
X-137274Y-173525D01*
X-137274D01*
Y-173530D01*
X-137274D01*
X-137274Y-173530D01*
X-137275Y-173531D01*
X-137275Y-173530D01*
X-137275Y-173530D01*
X-137275Y-173525D01*
X-137275D01*
X-137275Y-173525D01*
X-137275Y-173525D01*
X-137274Y-173525D01*
D02*
G37*
G36*
X-137066Y-173531D02*
X-137066Y-173531D01*
X-137066Y-173533D01*
X-137066D01*
X-137066Y-173533D01*
X-137066Y-173533D01*
X-137071Y-173533D01*
Y-173533D01*
X-137071Y-173533D01*
X-137071Y-173533D01*
X-137071Y-173531D01*
X-137071D01*
X-137071Y-173531D01*
X-137071Y-173531D01*
Y-173531D01*
X-137066D01*
Y-173531D01*
X-137066Y-173531D01*
D02*
G37*
G36*
X-137076D02*
X-137076Y-173531D01*
X-137076Y-173533D01*
X-137076D01*
X-137076Y-173533D01*
X-137076Y-173533D01*
X-137081Y-173533D01*
Y-173533D01*
X-137081Y-173533D01*
X-137081Y-173533D01*
X-137081Y-173531D01*
X-137081D01*
X-137081Y-173531D01*
X-137081Y-173531D01*
Y-173531D01*
X-137076D01*
Y-173531D01*
X-137076Y-173531D01*
D02*
G37*
G36*
X-137145Y-173533D02*
X-137151D01*
Y-173529D01*
X-137145D01*
Y-173533D01*
D02*
G37*
G36*
X-137216D02*
X-137222D01*
Y-173529D01*
X-137216D01*
Y-173533D01*
D02*
G37*
G36*
X-137244Y-173533D02*
X-137244Y-173533D01*
X-137244Y-173534D01*
X-137245Y-173534D01*
X-137249Y-173534D01*
Y-173534D01*
X-137250Y-173534D01*
X-137250Y-173533D01*
X-137250Y-173533D01*
X-137249Y-173533D01*
Y-173533D01*
X-137245D01*
Y-173533D01*
X-137244Y-173533D01*
D02*
G37*
G36*
X-137278D02*
X-137277Y-173533D01*
X-137278Y-173534D01*
X-137278Y-173534D01*
X-137283Y-173534D01*
Y-173534D01*
X-137283Y-173534D01*
X-137283Y-173533D01*
X-137283Y-173533D01*
X-137283Y-173533D01*
Y-173533D01*
X-137278D01*
Y-173533D01*
X-137278Y-173533D01*
D02*
G37*
G36*
X-137182Y-173533D02*
X-137185D01*
Y-173530D01*
X-137182D01*
Y-173533D01*
D02*
G37*
G36*
X-137187D02*
X-137191D01*
Y-173530D01*
X-137187D01*
Y-173533D01*
D02*
G37*
G36*
X-137193D02*
X-137196D01*
Y-173530D01*
X-137193D01*
Y-173533D01*
D02*
G37*
G36*
X-137315Y-173527D02*
X-137315Y-173527D01*
X-137315D01*
Y-173532D01*
X-137315D01*
X-137315Y-173533D01*
X-137316Y-173533D01*
X-137317Y-173533D01*
X-137318Y-173532D01*
X-137317Y-173527D01*
X-137318D01*
X-137317Y-173527D01*
X-137316Y-173526D01*
X-137315Y-173527D01*
D02*
G37*
G36*
X-137320D02*
X-137320Y-173527D01*
X-137320D01*
Y-173532D01*
X-137320D01*
X-137320Y-173533D01*
X-137321Y-173533D01*
X-137322Y-173533D01*
X-137322Y-173532D01*
X-137322Y-173527D01*
X-137322D01*
X-137322Y-173527D01*
X-137321Y-173526D01*
X-137320Y-173527D01*
D02*
G37*
G36*
X-137325D02*
X-137325Y-173527D01*
X-137325D01*
Y-173532D01*
X-137325D01*
X-137325Y-173533D01*
X-137326Y-173533D01*
X-137327Y-173533D01*
X-137328Y-173532D01*
X-137327Y-173527D01*
X-137328D01*
X-137327Y-173527D01*
X-137326Y-173526D01*
X-137325Y-173527D01*
D02*
G37*
G36*
X-137330D02*
X-137330Y-173527D01*
X-137330D01*
Y-173532D01*
X-137330D01*
X-137330Y-173533D01*
X-137331Y-173533D01*
X-137332Y-173533D01*
X-137332Y-173532D01*
X-137332Y-173527D01*
X-137332D01*
X-137332Y-173527D01*
X-137331Y-173526D01*
X-137330Y-173527D01*
D02*
G37*
G36*
X-137124Y-173534D02*
X-137128D01*
Y-173531D01*
X-137124D01*
Y-173534D01*
D02*
G37*
G36*
X-137087Y-173534D02*
X-137092D01*
Y-173531D01*
X-137087D01*
Y-173534D01*
D02*
G37*
G36*
X-137066Y-173534D02*
X-137066Y-173535D01*
X-137066Y-173536D01*
X-137066D01*
X-137066Y-173537D01*
X-137066Y-173537D01*
X-137071Y-173537D01*
Y-173537D01*
X-137071Y-173537D01*
X-137071Y-173536D01*
X-137071Y-173535D01*
X-137071D01*
X-137071Y-173534D01*
X-137071Y-173534D01*
Y-173534D01*
X-137066D01*
Y-173534D01*
X-137066Y-173534D01*
D02*
G37*
G36*
X-137076D02*
X-137076Y-173535D01*
X-137076Y-173536D01*
X-137076D01*
X-137076Y-173537D01*
X-137076Y-173537D01*
X-137081Y-173537D01*
Y-173537D01*
X-137081Y-173537D01*
X-137081Y-173536D01*
X-137081Y-173535D01*
X-137081D01*
X-137081Y-173534D01*
X-137081Y-173534D01*
Y-173534D01*
X-137076D01*
Y-173534D01*
X-137076Y-173534D01*
D02*
G37*
G36*
X-137104Y-173535D02*
X-137106D01*
Y-173531D01*
X-137104D01*
Y-173535D01*
D02*
G37*
G36*
X-137109D02*
X-137112D01*
Y-173531D01*
X-137109D01*
Y-173535D01*
D02*
G37*
G36*
X-137244Y-173535D02*
X-137244Y-173535D01*
X-137244Y-173536D01*
X-137245Y-173536D01*
X-137249Y-173536D01*
Y-173536D01*
X-137250Y-173536D01*
X-137250Y-173535D01*
X-137250Y-173535D01*
X-137249Y-173535D01*
Y-173535D01*
X-137245D01*
Y-173535D01*
X-137244Y-173535D01*
D02*
G37*
G36*
X-137278D02*
X-137277Y-173535D01*
X-137278Y-173536D01*
X-137278Y-173536D01*
X-137283Y-173536D01*
Y-173536D01*
X-137283Y-173536D01*
X-137283Y-173535D01*
X-137283Y-173535D01*
X-137283Y-173535D01*
Y-173535D01*
X-137278D01*
Y-173535D01*
X-137278Y-173535D01*
D02*
G37*
G36*
X-137230Y-173535D02*
X-137233D01*
Y-173532D01*
X-137230D01*
Y-173535D01*
D02*
G37*
G36*
X-137236D02*
X-137239D01*
Y-173532D01*
X-137236D01*
Y-173535D01*
D02*
G37*
G36*
X-137244Y-173537D02*
X-137244Y-173537D01*
X-137244Y-173538D01*
X-137245Y-173538D01*
X-137249Y-173538D01*
Y-173538D01*
X-137250Y-173538D01*
X-137250Y-173537D01*
X-137250Y-173537D01*
X-137249Y-173537D01*
Y-173537D01*
X-137245D01*
Y-173537D01*
X-137244Y-173537D01*
D02*
G37*
G36*
X-137278D02*
X-137277Y-173537D01*
X-137278Y-173538D01*
X-137278Y-173538D01*
X-137283Y-173538D01*
Y-173538D01*
X-137283Y-173538D01*
X-137283Y-173537D01*
X-137283Y-173537D01*
X-137283Y-173537D01*
Y-173537D01*
X-137278D01*
Y-173537D01*
X-137278Y-173537D01*
D02*
G37*
G36*
X-137114Y-173538D02*
X-137119D01*
Y-173535D01*
X-137114D01*
Y-173538D01*
D02*
G37*
G36*
X-137145Y-173538D02*
X-137151D01*
Y-173534D01*
X-137145D01*
Y-173538D01*
D02*
G37*
G36*
X-137216D02*
X-137222D01*
Y-173534D01*
X-137216D01*
Y-173538D01*
D02*
G37*
G36*
X-137097Y-173538D02*
X-137102D01*
Y-173535D01*
X-137097D01*
Y-173538D01*
D02*
G37*
G36*
X-137066Y-173538D02*
X-137066Y-173538D01*
X-137066Y-173540D01*
X-137066D01*
X-137066Y-173540D01*
X-137066Y-173540D01*
X-137071Y-173540D01*
Y-173540D01*
X-137071Y-173540D01*
X-137071Y-173540D01*
X-137071Y-173538D01*
X-137071D01*
X-137071Y-173538D01*
X-137071Y-173538D01*
Y-173538D01*
X-137066D01*
Y-173538D01*
X-137066Y-173538D01*
D02*
G37*
G36*
X-137076D02*
X-137076Y-173538D01*
X-137076Y-173540D01*
X-137076D01*
X-137076Y-173540D01*
X-137076Y-173540D01*
X-137081Y-173540D01*
Y-173540D01*
X-137081Y-173540D01*
X-137081Y-173540D01*
X-137081Y-173538D01*
X-137081D01*
X-137081Y-173538D01*
X-137081Y-173538D01*
Y-173538D01*
X-137076D01*
Y-173538D01*
X-137076Y-173538D01*
D02*
G37*
G36*
X-137182Y-173539D02*
X-137185D01*
Y-173535D01*
X-137182D01*
Y-173539D01*
D02*
G37*
G36*
X-137187D02*
X-137191D01*
Y-173535D01*
X-137187D01*
Y-173539D01*
D02*
G37*
G36*
X-137193D02*
X-137196D01*
Y-173535D01*
X-137193D01*
Y-173539D01*
D02*
G37*
G36*
X-137244Y-173539D02*
X-137244Y-173539D01*
X-137244Y-173540D01*
X-137245Y-173540D01*
X-137249Y-173540D01*
Y-173540D01*
X-137250Y-173540D01*
X-137250Y-173539D01*
X-137250Y-173539D01*
X-137249Y-173539D01*
Y-173539D01*
X-137245D01*
Y-173539D01*
X-137244Y-173539D01*
D02*
G37*
G36*
X-137278D02*
X-137277Y-173539D01*
X-137278Y-173540D01*
X-137278Y-173540D01*
X-137283Y-173540D01*
Y-173540D01*
X-137283Y-173540D01*
X-137283Y-173539D01*
X-137283Y-173539D01*
X-137283Y-173539D01*
Y-173539D01*
X-137278D01*
Y-173539D01*
X-137278Y-173539D01*
D02*
G37*
G36*
X-137244Y-173541D02*
X-137244Y-173541D01*
X-137244Y-173542D01*
X-137245Y-173542D01*
X-137249Y-173542D01*
Y-173542D01*
X-137250Y-173542D01*
X-137250Y-173541D01*
X-137250Y-173541D01*
X-137249Y-173541D01*
Y-173541D01*
X-137245D01*
Y-173541D01*
X-137244Y-173541D01*
D02*
G37*
G36*
X-137278D02*
X-137277Y-173541D01*
X-137278Y-173542D01*
X-137278Y-173542D01*
X-137283Y-173542D01*
Y-173542D01*
X-137283Y-173542D01*
X-137283Y-173541D01*
X-137283Y-173541D01*
X-137283Y-173541D01*
Y-173541D01*
X-137278D01*
Y-173541D01*
X-137278Y-173541D01*
D02*
G37*
G36*
X-137230Y-173541D02*
X-137233D01*
Y-173538D01*
X-137230D01*
Y-173541D01*
D02*
G37*
G36*
X-137236D02*
X-137239D01*
Y-173538D01*
X-137236D01*
Y-173541D01*
D02*
G37*
G36*
X-137087Y-173542D02*
X-137087Y-173542D01*
X-137087Y-173542D01*
X-137087Y-173547D01*
X-137087D01*
X-137087Y-173547D01*
X-137088Y-173547D01*
X-137089Y-173547D01*
Y-173547D01*
X-137090Y-173547D01*
X-137090Y-173547D01*
X-137090D01*
Y-173542D01*
X-137090Y-173542D01*
X-137090Y-173542D01*
X-137090Y-173542D01*
X-137089Y-173542D01*
X-137088Y-173542D01*
X-137088Y-173542D01*
X-137087Y-173542D01*
D02*
G37*
G36*
X-137092D02*
X-137092Y-173542D01*
X-137092Y-173542D01*
X-137092Y-173547D01*
X-137092D01*
X-137092Y-173547D01*
X-137093Y-173547D01*
X-137094Y-173547D01*
Y-173547D01*
X-137095Y-173547D01*
X-137095Y-173547D01*
X-137095D01*
Y-173542D01*
X-137095Y-173542D01*
X-137095Y-173542D01*
X-137095Y-173542D01*
X-137094Y-173542D01*
X-137093Y-173542D01*
X-137093Y-173542D01*
X-137092Y-173542D01*
D02*
G37*
G36*
X-137097D02*
X-137097Y-173542D01*
X-137097Y-173542D01*
X-137097Y-173547D01*
X-137097D01*
X-137097Y-173547D01*
X-137098Y-173547D01*
X-137099Y-173547D01*
Y-173547D01*
X-137100Y-173547D01*
X-137100Y-173547D01*
X-137100D01*
Y-173542D01*
X-137100Y-173542D01*
X-137100Y-173542D01*
X-137100Y-173542D01*
X-137099Y-173542D01*
X-137098Y-173542D01*
X-137098Y-173542D01*
X-137097Y-173542D01*
D02*
G37*
G36*
X-137102D02*
X-137102Y-173542D01*
X-137102Y-173542D01*
X-137102Y-173547D01*
X-137102D01*
X-137102Y-173547D01*
X-137103Y-173547D01*
X-137104Y-173547D01*
Y-173547D01*
X-137105Y-173547D01*
X-137105Y-173547D01*
X-137105D01*
Y-173542D01*
X-137105Y-173542D01*
X-137105Y-173542D01*
X-137105Y-173542D01*
X-137104Y-173542D01*
X-137103Y-173542D01*
X-137103Y-173542D01*
X-137102Y-173542D01*
D02*
G37*
G36*
X-137107D02*
X-137107Y-173542D01*
X-137107Y-173542D01*
X-137107Y-173547D01*
X-137107D01*
X-137107Y-173547D01*
X-137108Y-173547D01*
X-137109Y-173547D01*
Y-173547D01*
X-137110Y-173547D01*
X-137110Y-173547D01*
X-137110D01*
Y-173542D01*
X-137110Y-173542D01*
X-137110Y-173542D01*
X-137110Y-173542D01*
X-137109Y-173542D01*
X-137108Y-173542D01*
X-137108Y-173542D01*
X-137107Y-173542D01*
D02*
G37*
G36*
X-137112D02*
X-137112Y-173542D01*
X-137112Y-173542D01*
X-137112Y-173547D01*
X-137112D01*
X-137112Y-173547D01*
X-137113Y-173547D01*
X-137114Y-173547D01*
Y-173547D01*
X-137115Y-173547D01*
X-137115Y-173547D01*
X-137115D01*
Y-173542D01*
X-137115Y-173542D01*
X-137115Y-173542D01*
X-137115Y-173542D01*
X-137114Y-173542D01*
X-137113Y-173542D01*
X-137113Y-173542D01*
X-137112Y-173542D01*
D02*
G37*
G36*
X-137117D02*
X-137117Y-173542D01*
X-137117Y-173542D01*
X-137117Y-173547D01*
X-137117D01*
X-137117Y-173547D01*
X-137118Y-173547D01*
X-137119Y-173547D01*
Y-173547D01*
X-137120Y-173547D01*
X-137120Y-173547D01*
X-137120D01*
Y-173542D01*
X-137120Y-173542D01*
X-137120Y-173542D01*
X-137120Y-173542D01*
X-137119Y-173542D01*
X-137118Y-173542D01*
X-137118Y-173542D01*
X-137117Y-173542D01*
D02*
G37*
G36*
X-137122D02*
X-137122Y-173542D01*
X-137122Y-173542D01*
X-137122Y-173547D01*
X-137122D01*
X-137122Y-173547D01*
X-137123Y-173547D01*
X-137124Y-173547D01*
Y-173547D01*
X-137125Y-173547D01*
X-137125Y-173547D01*
X-137125D01*
Y-173542D01*
X-137125Y-173542D01*
X-137125Y-173542D01*
X-137125Y-173542D01*
X-137124Y-173542D01*
X-137123Y-173542D01*
X-137123Y-173542D01*
X-137122Y-173542D01*
D02*
G37*
G36*
X-137329Y-173542D02*
X-137333D01*
Y-173540D01*
X-137329D01*
Y-173542D01*
D02*
G37*
G36*
X-137336D02*
X-137339D01*
Y-173540D01*
X-137336D01*
Y-173542D01*
D02*
G37*
G36*
X-137244Y-173543D02*
X-137244Y-173543D01*
X-137244Y-173544D01*
X-137245Y-173544D01*
X-137249Y-173544D01*
Y-173544D01*
X-137250Y-173544D01*
X-137250Y-173543D01*
X-137250Y-173543D01*
X-137249Y-173543D01*
Y-173543D01*
X-137245D01*
Y-173543D01*
X-137244Y-173543D01*
D02*
G37*
G36*
X-137278D02*
X-137277Y-173543D01*
X-137278Y-173544D01*
X-137278Y-173544D01*
X-137283Y-173544D01*
Y-173544D01*
X-137283Y-173544D01*
X-137283Y-173543D01*
X-137283Y-173543D01*
X-137283Y-173543D01*
Y-173543D01*
X-137278D01*
Y-173543D01*
X-137278Y-173543D01*
D02*
G37*
G36*
X-137145Y-173543D02*
X-137151D01*
Y-173539D01*
X-137145D01*
Y-173543D01*
D02*
G37*
G36*
X-137216D02*
X-137222D01*
Y-173539D01*
X-137216D01*
Y-173543D01*
D02*
G37*
G36*
X-137309Y-173543D02*
X-137312D01*
Y-173540D01*
X-137309D01*
Y-173543D01*
D02*
G37*
G36*
X-137314D02*
X-137318D01*
Y-173540D01*
X-137314D01*
Y-173543D01*
D02*
G37*
G36*
X-137323D02*
X-137327D01*
Y-173540D01*
X-137323D01*
Y-173543D01*
D02*
G37*
G36*
X-137244Y-173545D02*
X-137244Y-173545D01*
X-137244Y-173546D01*
X-137245Y-173546D01*
X-137249Y-173546D01*
Y-173546D01*
X-137250Y-173546D01*
X-137250Y-173545D01*
X-137250Y-173545D01*
X-137249Y-173545D01*
Y-173545D01*
X-137245D01*
Y-173545D01*
X-137244Y-173545D01*
D02*
G37*
G36*
X-137278D02*
X-137277Y-173545D01*
X-137278Y-173546D01*
X-137278Y-173546D01*
X-137283Y-173546D01*
Y-173546D01*
X-137283Y-173546D01*
X-137283Y-173545D01*
X-137283Y-173545D01*
X-137283Y-173545D01*
Y-173545D01*
X-137278D01*
Y-173545D01*
X-137278Y-173545D01*
D02*
G37*
G36*
X-137128Y-173546D02*
X-137132D01*
Y-173543D01*
X-137128D01*
Y-173546D01*
D02*
G37*
G36*
X-137244Y-173547D02*
X-137244Y-173547D01*
X-137244Y-173548D01*
X-137245Y-173548D01*
X-137249Y-173548D01*
Y-173548D01*
X-137250Y-173548D01*
X-137250Y-173547D01*
X-137250Y-173547D01*
X-137249Y-173547D01*
Y-173547D01*
X-137245D01*
Y-173547D01*
X-137244Y-173547D01*
D02*
G37*
G36*
X-137278D02*
X-137277Y-173547D01*
X-137278Y-173548D01*
X-137278Y-173548D01*
X-137283Y-173548D01*
Y-173548D01*
X-137283Y-173548D01*
X-137283Y-173547D01*
X-137283Y-173547D01*
X-137283Y-173547D01*
Y-173547D01*
X-137278D01*
Y-173547D01*
X-137278Y-173547D01*
D02*
G37*
G36*
X-137145Y-173548D02*
X-137151D01*
Y-173544D01*
X-137145D01*
Y-173548D01*
D02*
G37*
G36*
X-137216D02*
X-137222D01*
Y-173544D01*
X-137216D01*
Y-173548D01*
D02*
G37*
G36*
X-137329Y-173548D02*
X-137333D01*
Y-173546D01*
X-137329D01*
Y-173548D01*
D02*
G37*
G36*
X-137336D02*
X-137339D01*
Y-173546D01*
X-137336D01*
Y-173548D01*
D02*
G37*
G36*
X-137244Y-173549D02*
X-137244Y-173549D01*
X-137244Y-173550D01*
X-137245Y-173550D01*
X-137249Y-173550D01*
Y-173550D01*
X-137250Y-173550D01*
X-137250Y-173549D01*
X-137250Y-173549D01*
X-137249Y-173549D01*
Y-173549D01*
X-137245D01*
Y-173549D01*
X-137244Y-173549D01*
D02*
G37*
G36*
X-137278D02*
X-137277Y-173549D01*
X-137278Y-173550D01*
X-137278Y-173550D01*
X-137283Y-173550D01*
Y-173550D01*
X-137283Y-173550D01*
X-137283Y-173549D01*
X-137283Y-173549D01*
X-137283Y-173549D01*
Y-173549D01*
X-137278D01*
Y-173549D01*
X-137278Y-173549D01*
D02*
G37*
G36*
X-137068Y-173549D02*
X-137072D01*
Y-173547D01*
X-137068D01*
Y-173549D01*
D02*
G37*
G36*
X-137075Y-173549D02*
X-137079D01*
Y-173547D01*
X-137075D01*
Y-173549D01*
D02*
G37*
G36*
X-137309Y-173549D02*
X-137312D01*
Y-173546D01*
X-137309D01*
Y-173549D01*
D02*
G37*
G36*
X-137314D02*
X-137318D01*
Y-173546D01*
X-137314D01*
Y-173549D01*
D02*
G37*
G36*
X-137323D02*
X-137327D01*
Y-173546D01*
X-137323D01*
Y-173549D01*
D02*
G37*
G36*
X-137229Y-173549D02*
X-137233D01*
Y-173544D01*
X-137229D01*
Y-173549D01*
D02*
G37*
G36*
X-137235D02*
X-137239D01*
Y-173544D01*
X-137235D01*
Y-173549D01*
D02*
G37*
G36*
X-137244Y-173551D02*
X-137244Y-173551D01*
X-137244Y-173552D01*
X-137245Y-173552D01*
X-137249Y-173552D01*
Y-173552D01*
X-137250Y-173552D01*
X-137250Y-173551D01*
X-137250Y-173551D01*
X-137249Y-173551D01*
Y-173551D01*
X-137245D01*
Y-173551D01*
X-137244Y-173551D01*
D02*
G37*
G36*
X-137278D02*
X-137277Y-173551D01*
X-137278Y-173552D01*
X-137278Y-173552D01*
X-137283Y-173552D01*
Y-173552D01*
X-137283Y-173552D01*
X-137283Y-173551D01*
X-137283Y-173551D01*
X-137283Y-173551D01*
Y-173551D01*
X-137278D01*
Y-173551D01*
X-137278Y-173551D01*
D02*
G37*
G36*
X-137128Y-173552D02*
X-137132D01*
Y-173549D01*
X-137128D01*
Y-173552D01*
D02*
G37*
G36*
X-137244Y-173553D02*
X-137244Y-173553D01*
X-137244Y-173554D01*
X-137245Y-173554D01*
X-137249Y-173554D01*
Y-173554D01*
X-137250Y-173554D01*
X-137250Y-173553D01*
X-137250Y-173553D01*
X-137249Y-173553D01*
Y-173553D01*
X-137245D01*
Y-173553D01*
X-137244Y-173553D01*
D02*
G37*
G36*
X-137278D02*
X-137277Y-173553D01*
X-137278Y-173554D01*
X-137278Y-173554D01*
X-137283Y-173554D01*
Y-173554D01*
X-137283Y-173554D01*
X-137283Y-173553D01*
X-137283Y-173553D01*
X-137283Y-173553D01*
Y-173553D01*
X-137278D01*
Y-173553D01*
X-137278Y-173553D01*
D02*
G37*
G36*
X-137145Y-173553D02*
X-137151D01*
Y-173549D01*
X-137145D01*
Y-173553D01*
D02*
G37*
G36*
X-137216D02*
X-137222D01*
Y-173549D01*
X-137216D01*
Y-173553D01*
D02*
G37*
G36*
X-137068Y-173554D02*
X-137072D01*
Y-173552D01*
X-137068D01*
Y-173554D01*
D02*
G37*
G36*
X-137075Y-173555D02*
X-137079D01*
Y-173552D01*
X-137075D01*
Y-173555D01*
D02*
G37*
G36*
X-137244Y-173555D02*
X-137244Y-173555D01*
X-137244Y-173556D01*
X-137245Y-173556D01*
X-137249Y-173556D01*
Y-173556D01*
X-137250Y-173556D01*
X-137250Y-173555D01*
X-137250Y-173555D01*
X-137249Y-173555D01*
Y-173555D01*
X-137245D01*
Y-173555D01*
X-137244Y-173555D01*
D02*
G37*
G36*
X-137278D02*
X-137277Y-173555D01*
X-137278Y-173556D01*
X-137278Y-173556D01*
X-137283Y-173556D01*
Y-173556D01*
X-137283Y-173556D01*
X-137283Y-173555D01*
X-137283Y-173555D01*
X-137283Y-173555D01*
Y-173555D01*
X-137278D01*
Y-173555D01*
X-137278Y-173555D01*
D02*
G37*
G36*
X-137329Y-173555D02*
X-137333D01*
Y-173553D01*
X-137329D01*
Y-173555D01*
D02*
G37*
G36*
X-137336D02*
X-137340D01*
Y-173553D01*
X-137336D01*
Y-173555D01*
D02*
G37*
G36*
X-137315Y-173555D02*
X-137318D01*
Y-173553D01*
X-137315D01*
Y-173555D01*
D02*
G37*
G36*
X-137323Y-173555D02*
X-137327D01*
Y-173552D01*
X-137323D01*
Y-173555D01*
D02*
G37*
G36*
X-137286Y-173556D02*
X-137289D01*
Y-173553D01*
X-137286D01*
Y-173556D01*
D02*
G37*
G36*
X-137292D02*
X-137295D01*
Y-173553D01*
X-137292D01*
Y-173556D01*
D02*
G37*
G36*
X-137297D02*
X-137301D01*
Y-173553D01*
X-137297D01*
Y-173556D01*
D02*
G37*
G36*
X-137229Y-173558D02*
X-137233D01*
Y-173552D01*
X-137229D01*
Y-173558D01*
D02*
G37*
G36*
X-137235D02*
X-137239D01*
Y-173552D01*
X-137235D01*
Y-173558D01*
D02*
G37*
G36*
X-137145Y-173558D02*
X-137151D01*
Y-173554D01*
X-137145D01*
Y-173558D01*
D02*
G37*
G36*
X-137216D02*
X-137222D01*
Y-173554D01*
X-137216D01*
Y-173558D01*
D02*
G37*
G36*
X-137329Y-173560D02*
X-137333D01*
Y-173558D01*
X-137329D01*
Y-173560D01*
D02*
G37*
G36*
X-137336D02*
X-137340D01*
Y-173558D01*
X-137336D01*
Y-173560D01*
D02*
G37*
G36*
X-137315Y-173560D02*
X-137318D01*
Y-173558D01*
X-137315D01*
Y-173560D01*
D02*
G37*
G36*
X-137323Y-173561D02*
X-137327D01*
Y-173558D01*
X-137323D01*
Y-173561D01*
D02*
G37*
G36*
X-137286Y-173562D02*
X-137289D01*
Y-173559D01*
X-137286D01*
Y-173562D01*
D02*
G37*
G36*
X-137292D02*
X-137295D01*
Y-173559D01*
X-137292D01*
Y-173562D01*
D02*
G37*
G36*
X-137297D02*
X-137301D01*
Y-173559D01*
X-137297D01*
Y-173562D01*
D02*
G37*
G36*
X-137145Y-173563D02*
X-137151D01*
Y-173559D01*
X-137145D01*
Y-173563D01*
D02*
G37*
G36*
X-137216D02*
X-137222D01*
Y-173559D01*
X-137216D01*
Y-173563D01*
D02*
G37*
G36*
X-137067Y-173563D02*
X-137072D01*
Y-173559D01*
X-137067D01*
Y-173563D01*
D02*
G37*
G36*
X-137075D02*
X-137080D01*
Y-173559D01*
X-137075D01*
Y-173563D01*
D02*
G37*
G36*
X-137230Y-173563D02*
X-137233D01*
Y-173560D01*
X-137230D01*
Y-173563D01*
D02*
G37*
G36*
X-137236D02*
X-137239D01*
Y-173560D01*
X-137236D01*
Y-173563D01*
D02*
G37*
G36*
X-137087Y-173564D02*
X-137087Y-173564D01*
X-137087Y-173568D01*
X-137087Y-173568D01*
X-137087Y-173568D01*
X-137087Y-173569D01*
X-137088Y-173569D01*
X-137089Y-173569D01*
X-137089Y-173569D01*
X-137090Y-173569D01*
X-137090Y-173568D01*
X-137090Y-173568D01*
X-137090Y-173568D01*
Y-173564D01*
X-137090D01*
X-137090Y-173564D01*
X-137089Y-173564D01*
X-137088Y-173564D01*
Y-173564D01*
X-137087Y-173564D01*
D02*
G37*
G36*
X-137092D02*
X-137092Y-173564D01*
X-137092Y-173568D01*
X-137092Y-173568D01*
X-137092Y-173568D01*
X-137092Y-173569D01*
X-137093Y-173569D01*
X-137094Y-173569D01*
X-137094Y-173569D01*
X-137095Y-173569D01*
X-137095Y-173568D01*
X-137095Y-173568D01*
X-137095Y-173568D01*
Y-173564D01*
X-137095D01*
X-137095Y-173564D01*
X-137094Y-173564D01*
X-137093Y-173564D01*
Y-173564D01*
X-137092Y-173564D01*
D02*
G37*
G36*
X-137097D02*
X-137097Y-173564D01*
X-137097Y-173568D01*
X-137097Y-173568D01*
X-137097Y-173568D01*
X-137097Y-173569D01*
X-137098Y-173569D01*
X-137099Y-173569D01*
X-137099Y-173569D01*
X-137100Y-173569D01*
X-137100Y-173568D01*
X-137100Y-173568D01*
X-137100Y-173568D01*
Y-173564D01*
X-137100D01*
X-137100Y-173564D01*
X-137099Y-173564D01*
X-137098Y-173564D01*
Y-173564D01*
X-137097Y-173564D01*
D02*
G37*
G36*
X-137102D02*
X-137102Y-173564D01*
X-137102Y-173568D01*
X-137102Y-173568D01*
X-137102Y-173568D01*
X-137102Y-173569D01*
X-137103Y-173569D01*
X-137104Y-173569D01*
X-137104Y-173569D01*
X-137105Y-173569D01*
X-137105Y-173568D01*
X-137105Y-173568D01*
X-137105Y-173568D01*
Y-173564D01*
X-137105D01*
X-137105Y-173564D01*
X-137104Y-173564D01*
X-137103Y-173564D01*
Y-173564D01*
X-137102Y-173564D01*
D02*
G37*
G36*
X-137107D02*
X-137107Y-173564D01*
X-137107Y-173568D01*
X-137107Y-173568D01*
X-137107Y-173568D01*
X-137107Y-173569D01*
X-137108Y-173569D01*
X-137109Y-173569D01*
X-137109Y-173569D01*
X-137110Y-173569D01*
X-137110Y-173568D01*
X-137110Y-173568D01*
X-137110Y-173568D01*
Y-173564D01*
X-137110D01*
X-137110Y-173564D01*
X-137109Y-173564D01*
X-137108Y-173564D01*
Y-173564D01*
X-137107Y-173564D01*
D02*
G37*
G36*
X-137112D02*
X-137112Y-173564D01*
X-137112Y-173568D01*
X-137112Y-173568D01*
X-137112Y-173568D01*
X-137112Y-173569D01*
X-137113Y-173569D01*
X-137114Y-173569D01*
X-137114Y-173569D01*
X-137115Y-173569D01*
X-137115Y-173568D01*
X-137115Y-173568D01*
X-137115Y-173568D01*
Y-173564D01*
X-137115D01*
X-137115Y-173564D01*
X-137114Y-173564D01*
X-137113Y-173564D01*
Y-173564D01*
X-137112Y-173564D01*
D02*
G37*
G36*
X-137117D02*
X-137117Y-173564D01*
X-137117Y-173568D01*
X-137117Y-173568D01*
X-137117Y-173568D01*
X-137117Y-173569D01*
X-137118Y-173569D01*
X-137119Y-173569D01*
X-137119Y-173569D01*
X-137120Y-173569D01*
X-137120Y-173568D01*
X-137120Y-173568D01*
X-137120Y-173568D01*
Y-173564D01*
X-137120D01*
X-137120Y-173564D01*
X-137119Y-173564D01*
X-137118Y-173564D01*
Y-173564D01*
X-137117Y-173564D01*
D02*
G37*
G36*
X-137122D02*
X-137122Y-173564D01*
X-137122Y-173568D01*
X-137122Y-173568D01*
X-137122Y-173568D01*
X-137122Y-173569D01*
X-137123Y-173569D01*
X-137124Y-173569D01*
X-137124Y-173569D01*
X-137125Y-173569D01*
X-137125Y-173568D01*
X-137125Y-173568D01*
X-137125Y-173568D01*
Y-173564D01*
X-137125D01*
X-137125Y-173564D01*
X-137124Y-173564D01*
X-137123Y-173564D01*
Y-173564D01*
X-137122Y-173564D01*
D02*
G37*
G36*
X-137252Y-173558D02*
X-137252Y-173559D01*
X-137252D01*
Y-173563D01*
X-137252D01*
X-137252Y-173564D01*
X-137253Y-173564D01*
X-137253Y-173564D01*
X-137253Y-173563D01*
X-137253Y-173559D01*
X-137253D01*
X-137253Y-173558D01*
X-137253Y-173558D01*
X-137252Y-173558D01*
D02*
G37*
G36*
X-137254D02*
X-137254Y-173559D01*
X-137254D01*
Y-173563D01*
X-137254D01*
X-137254Y-173564D01*
X-137255Y-173564D01*
X-137255Y-173564D01*
X-137255Y-173563D01*
X-137255Y-173559D01*
X-137255D01*
X-137255Y-173558D01*
X-137255Y-173558D01*
X-137254Y-173558D01*
D02*
G37*
G36*
X-137256D02*
X-137256Y-173559D01*
X-137256D01*
Y-173563D01*
X-137256D01*
X-137256Y-173564D01*
X-137257Y-173564D01*
X-137257Y-173564D01*
X-137257Y-173563D01*
X-137257Y-173559D01*
X-137257D01*
X-137257Y-173558D01*
X-137257Y-173558D01*
X-137256Y-173558D01*
D02*
G37*
G36*
X-137258D02*
X-137258Y-173559D01*
X-137258D01*
Y-173563D01*
X-137258D01*
X-137258Y-173564D01*
X-137259Y-173564D01*
X-137259Y-173564D01*
X-137259Y-173563D01*
X-137259Y-173559D01*
X-137259D01*
X-137259Y-173558D01*
X-137259Y-173558D01*
X-137258Y-173558D01*
D02*
G37*
G36*
X-137260D02*
X-137260Y-173559D01*
X-137260D01*
Y-173563D01*
X-137260D01*
X-137260Y-173564D01*
X-137261Y-173564D01*
X-137261Y-173564D01*
X-137261Y-173563D01*
X-137261Y-173559D01*
X-137261D01*
X-137261Y-173558D01*
X-137261Y-173558D01*
X-137260Y-173558D01*
D02*
G37*
G36*
X-137262D02*
X-137262Y-173559D01*
X-137262D01*
Y-173563D01*
X-137262D01*
X-137262Y-173564D01*
X-137263Y-173564D01*
X-137263Y-173564D01*
X-137263Y-173563D01*
X-137263Y-173559D01*
X-137263D01*
X-137263Y-173558D01*
X-137263Y-173558D01*
X-137262Y-173558D01*
D02*
G37*
G36*
X-137264D02*
X-137264Y-173559D01*
X-137264D01*
Y-173563D01*
X-137264D01*
X-137264Y-173564D01*
X-137265Y-173564D01*
X-137265Y-173564D01*
X-137265Y-173563D01*
X-137265Y-173559D01*
X-137265D01*
X-137265Y-173558D01*
X-137265Y-173558D01*
X-137264Y-173558D01*
D02*
G37*
G36*
X-137266D02*
X-137266Y-173559D01*
X-137266D01*
Y-173563D01*
X-137266D01*
X-137266Y-173564D01*
X-137267Y-173564D01*
X-137267Y-173564D01*
X-137267Y-173563D01*
X-137267Y-173559D01*
X-137267D01*
X-137267Y-173558D01*
X-137267Y-173558D01*
X-137266Y-173558D01*
D02*
G37*
G36*
X-137268D02*
X-137268Y-173559D01*
X-137268D01*
Y-173563D01*
X-137268D01*
X-137268Y-173564D01*
X-137269Y-173564D01*
X-137269Y-173564D01*
X-137269Y-173563D01*
X-137269Y-173559D01*
X-137269D01*
X-137269Y-173558D01*
X-137269Y-173558D01*
X-137268Y-173558D01*
D02*
G37*
G36*
X-137270D02*
X-137270Y-173559D01*
X-137270D01*
Y-173563D01*
X-137270D01*
X-137270Y-173564D01*
X-137271Y-173564D01*
X-137271Y-173564D01*
X-137271Y-173563D01*
X-137271Y-173559D01*
X-137271D01*
X-137271Y-173558D01*
X-137271Y-173558D01*
X-137270Y-173558D01*
D02*
G37*
G36*
X-137272D02*
X-137272Y-173559D01*
X-137272D01*
Y-173563D01*
X-137272D01*
X-137272Y-173564D01*
X-137273Y-173564D01*
X-137273Y-173564D01*
X-137273Y-173563D01*
X-137273Y-173559D01*
X-137273D01*
X-137273Y-173558D01*
X-137273Y-173558D01*
X-137272Y-173558D01*
D02*
G37*
G36*
X-137274D02*
X-137274Y-173559D01*
X-137274D01*
Y-173563D01*
X-137274D01*
X-137274Y-173564D01*
X-137275Y-173564D01*
X-137275Y-173564D01*
X-137275Y-173563D01*
X-137275Y-173559D01*
X-137275D01*
X-137275Y-173558D01*
X-137275Y-173558D01*
X-137274Y-173558D01*
D02*
G37*
G36*
X-137145Y-173568D02*
X-137151D01*
Y-173564D01*
X-137145D01*
Y-173568D01*
D02*
G37*
G36*
X-137216D02*
X-137222D01*
Y-173564D01*
X-137216D01*
Y-173568D01*
D02*
G37*
G36*
X-137067Y-173571D02*
X-137072D01*
Y-173567D01*
X-137067D01*
Y-173571D01*
D02*
G37*
G36*
X-137075D02*
X-137080D01*
Y-173567D01*
X-137075D01*
Y-173571D01*
D02*
G37*
G36*
X-137159Y-173575D02*
X-137162D01*
Y-173569D01*
X-137159D01*
Y-173575D01*
D02*
G37*
G36*
X-137164D02*
X-137167D01*
Y-173569D01*
X-137164D01*
Y-173575D01*
D02*
G37*
G36*
X-137169D02*
X-137172D01*
Y-173569D01*
X-137169D01*
Y-173575D01*
D02*
G37*
G36*
X-137174D02*
X-137177D01*
Y-173569D01*
X-137174D01*
Y-173575D01*
D02*
G37*
G36*
X-137179D02*
X-137182D01*
Y-173569D01*
X-137179D01*
Y-173575D01*
D02*
G37*
G36*
X-137184D02*
X-137187D01*
Y-173569D01*
X-137184D01*
Y-173575D01*
D02*
G37*
G36*
X-137189D02*
X-137192D01*
Y-173569D01*
X-137189D01*
Y-173575D01*
D02*
G37*
G36*
X-137194D02*
X-137197D01*
Y-173569D01*
X-137194D01*
Y-173575D01*
D02*
G37*
G36*
X-137199D02*
X-137202D01*
Y-173569D01*
X-137199D01*
Y-173575D01*
D02*
G37*
G36*
X-137204D02*
X-137207D01*
Y-173569D01*
X-137204D01*
Y-173575D01*
D02*
G37*
G36*
X-137307Y-173577D02*
X-137314D01*
Y-173568D01*
X-137307D01*
Y-173577D01*
D02*
G37*
G36*
X-137237Y-173578D02*
X-137240D01*
Y-173576D01*
X-137237D01*
Y-173578D01*
D02*
G37*
G36*
X-137243D02*
X-137247D01*
Y-173576D01*
X-137243D01*
Y-173578D01*
D02*
G37*
G36*
X-137250D02*
X-137253D01*
Y-173576D01*
X-137250D01*
Y-173578D01*
D02*
G37*
G36*
X-137256D02*
X-137260D01*
Y-173576D01*
X-137256D01*
Y-173578D01*
D02*
G37*
G36*
X-137263D02*
X-137266D01*
Y-173576D01*
X-137263D01*
Y-173578D01*
D02*
G37*
G36*
X-137269D02*
X-137273D01*
Y-173576D01*
X-137269D01*
Y-173578D01*
D02*
G37*
G36*
X-137276D02*
X-137279D01*
Y-173576D01*
X-137276D01*
Y-173578D01*
D02*
G37*
G36*
X-137282D02*
X-137286D01*
Y-173576D01*
X-137282D01*
Y-173578D01*
D02*
G37*
G36*
X-137289D02*
X-137292D01*
Y-173576D01*
X-137289D01*
Y-173578D01*
D02*
G37*
G36*
X-137225Y-173578D02*
X-137228D01*
Y-173575D01*
X-137225D01*
Y-173578D01*
D02*
G37*
G36*
X-137231D02*
X-137234D01*
Y-173575D01*
X-137231D01*
Y-173578D01*
D02*
G37*
G36*
X-137067Y-173581D02*
X-137072D01*
Y-173576D01*
X-137067D01*
Y-173581D01*
D02*
G37*
G36*
X-137075D02*
X-137080D01*
Y-173576D01*
X-137075D01*
Y-173581D01*
D02*
G37*
G36*
X-137237Y-173584D02*
X-137240D01*
Y-173581D01*
X-137237D01*
Y-173584D01*
D02*
G37*
G36*
X-137243D02*
X-137247D01*
Y-173581D01*
X-137243D01*
Y-173584D01*
D02*
G37*
G36*
X-137250D02*
X-137253D01*
Y-173581D01*
X-137250D01*
Y-173584D01*
D02*
G37*
G36*
X-137256D02*
X-137260D01*
Y-173581D01*
X-137256D01*
Y-173584D01*
D02*
G37*
G36*
X-137263D02*
X-137266D01*
Y-173581D01*
X-137263D01*
Y-173584D01*
D02*
G37*
G36*
X-137269D02*
X-137273D01*
Y-173581D01*
X-137269D01*
Y-173584D01*
D02*
G37*
G36*
X-137276D02*
X-137279D01*
Y-173581D01*
X-137276D01*
Y-173584D01*
D02*
G37*
G36*
X-137282D02*
X-137286D01*
Y-173581D01*
X-137282D01*
Y-173584D01*
D02*
G37*
G36*
X-137289D02*
X-137292D01*
Y-173581D01*
X-137289D01*
Y-173584D01*
D02*
G37*
G36*
X-137225Y-173584D02*
X-137228D01*
Y-173581D01*
X-137225D01*
Y-173584D01*
D02*
G37*
G36*
X-137231D02*
X-137234D01*
Y-173581D01*
X-137231D01*
Y-173584D01*
D02*
G37*
G36*
X-137067Y-173589D02*
X-137072D01*
Y-173585D01*
X-137067D01*
Y-173589D01*
D02*
G37*
G36*
X-137075D02*
X-137080D01*
Y-173585D01*
X-137075D01*
Y-173589D01*
D02*
G37*
G36*
X-137307Y-173593D02*
X-137314D01*
Y-173583D01*
X-137307D01*
Y-173593D01*
D02*
G37*
G36*
X-137068Y-173594D02*
X-137071D01*
Y-173592D01*
X-137068D01*
Y-173594D01*
D02*
G37*
G36*
X-137076D02*
X-137080D01*
Y-173592D01*
X-137076D01*
Y-173594D01*
D02*
G37*
G36*
X-137068Y-173600D02*
X-137071D01*
Y-173598D01*
X-137068D01*
Y-173600D01*
D02*
G37*
G36*
X-137076D02*
X-137080D01*
Y-173598D01*
X-137076D01*
Y-173600D01*
D02*
G37*
G36*
X-137324Y-173602D02*
X-137328D01*
Y-173600D01*
X-137324D01*
Y-173602D01*
D02*
G37*
G36*
X-137318Y-173602D02*
X-137321D01*
Y-173599D01*
X-137318D01*
Y-173602D01*
D02*
G37*
G36*
X-137216Y-173603D02*
X-137219D01*
Y-173598D01*
X-137216D01*
Y-173603D01*
D02*
G37*
G36*
X-137229D02*
X-137233D01*
Y-173598D01*
X-137229D01*
Y-173603D01*
D02*
G37*
G36*
X-137243D02*
X-137246D01*
Y-173598D01*
X-137243D01*
Y-173603D01*
D02*
G37*
G36*
X-137269D02*
X-137273D01*
Y-173598D01*
X-137269D01*
Y-173603D01*
D02*
G37*
G36*
X-137283D02*
X-137286D01*
Y-173598D01*
X-137283D01*
Y-173603D01*
D02*
G37*
G36*
X-137296D02*
X-137299D01*
Y-173598D01*
X-137296D01*
Y-173603D01*
D02*
G37*
G36*
X-137309D02*
X-137312D01*
Y-173598D01*
X-137309D01*
Y-173603D01*
D02*
G37*
G36*
X-137209Y-173603D02*
X-137212D01*
Y-173598D01*
X-137209D01*
Y-173603D01*
D02*
G37*
G36*
X-137222D02*
X-137225D01*
Y-173598D01*
X-137222D01*
Y-173603D01*
D02*
G37*
G36*
X-137235D02*
X-137239D01*
Y-173598D01*
X-137235D01*
Y-173603D01*
D02*
G37*
G36*
X-137262D02*
X-137265D01*
Y-173598D01*
X-137262D01*
Y-173603D01*
D02*
G37*
G36*
X-137275D02*
X-137278D01*
Y-173598D01*
X-137275D01*
Y-173603D01*
D02*
G37*
G36*
X-137288D02*
X-137292D01*
Y-173598D01*
X-137288D01*
Y-173603D01*
D02*
G37*
G36*
X-137302D02*
X-137305D01*
Y-173598D01*
X-137302D01*
Y-173603D01*
D02*
G37*
G36*
X-137256Y-173603D02*
X-137259D01*
Y-173599D01*
X-137256D01*
Y-173603D01*
D02*
G37*
G36*
X-137249Y-173603D02*
X-137252D01*
Y-173599D01*
X-137249D01*
Y-173603D01*
D02*
G37*
G36*
X-137324Y-173608D02*
X-137328D01*
Y-173606D01*
X-137324D01*
Y-173608D01*
D02*
G37*
G36*
X-137318Y-173608D02*
X-137321D01*
Y-173605D01*
X-137318D01*
Y-173608D01*
D02*
G37*
G36*
X-137212Y-173613D02*
X-137216D01*
Y-173608D01*
X-137212D01*
Y-173613D01*
D02*
G37*
G36*
X-137226D02*
X-137229D01*
Y-173608D01*
X-137226D01*
Y-173613D01*
D02*
G37*
G36*
X-137239D02*
X-137242D01*
Y-173608D01*
X-137239D01*
Y-173613D01*
D02*
G37*
G36*
X-137266D02*
X-137269D01*
Y-173608D01*
X-137266D01*
Y-173613D01*
D02*
G37*
G36*
X-137279D02*
X-137282D01*
Y-173608D01*
X-137279D01*
Y-173613D01*
D02*
G37*
G36*
X-137292D02*
X-137295D01*
Y-173608D01*
X-137292D01*
Y-173613D01*
D02*
G37*
G36*
X-137305D02*
X-137309D01*
Y-173608D01*
X-137305D01*
Y-173613D01*
D02*
G37*
G36*
X-137252Y-173613D02*
X-137256D01*
Y-173608D01*
X-137252D01*
Y-173613D01*
D02*
G37*
G36*
X-137318Y-173615D02*
X-137321D01*
Y-173610D01*
X-137318D01*
Y-173615D01*
D02*
G37*
G36*
Y-173643D02*
X-137321D01*
Y-173638D01*
X-137318D01*
Y-173643D01*
D02*
G37*
G36*
X-137265Y-173679D02*
X-137269D01*
Y-173676D01*
X-137265D01*
Y-173679D01*
D02*
G37*
G36*
X-137271D02*
X-137275D01*
Y-173676D01*
X-137271D01*
Y-173679D01*
D02*
G37*
G36*
X-137278D02*
X-137281D01*
Y-173676D01*
X-137278D01*
Y-173679D01*
D02*
G37*
G36*
X-137284D02*
X-137287D01*
Y-173676D01*
X-137284D01*
Y-173679D01*
D02*
G37*
G36*
X-137290D02*
X-137293D01*
Y-173676D01*
X-137290D01*
Y-173679D01*
D02*
G37*
G36*
X-137296D02*
X-137299D01*
Y-173676D01*
X-137296D01*
Y-173679D01*
D02*
G37*
G36*
X-137302D02*
X-137305D01*
Y-173676D01*
X-137302D01*
Y-173679D01*
D02*
G37*
G36*
X-137308D02*
X-137311D01*
Y-173676D01*
X-137308D01*
Y-173679D01*
D02*
G37*
G36*
X-137097Y-173679D02*
X-137100D01*
Y-173676D01*
X-137097D01*
Y-173679D01*
D02*
G37*
G36*
X-137103D02*
X-137106D01*
Y-173676D01*
X-137103D01*
Y-173679D01*
D02*
G37*
G36*
X-137109D02*
X-137113D01*
Y-173676D01*
X-137109D01*
Y-173679D01*
D02*
G37*
G36*
X-137115D02*
X-137119D01*
Y-173676D01*
X-137115D01*
Y-173679D01*
D02*
G37*
G36*
X-137121D02*
X-137125D01*
Y-173676D01*
X-137121D01*
Y-173679D01*
D02*
G37*
G36*
X-137127D02*
X-137131D01*
Y-173676D01*
X-137127D01*
Y-173679D01*
D02*
G37*
G36*
X-137134D02*
X-137137D01*
Y-173676D01*
X-137134D01*
Y-173679D01*
D02*
G37*
G36*
X-137140D02*
X-137143D01*
Y-173676D01*
X-137140D01*
Y-173679D01*
D02*
G37*
G36*
X-137155D02*
X-137158D01*
Y-173676D01*
X-137155D01*
Y-173679D01*
D02*
G37*
G36*
X-137161D02*
X-137164D01*
Y-173676D01*
X-137161D01*
Y-173679D01*
D02*
G37*
G36*
X-137167D02*
X-137170D01*
Y-173676D01*
X-137167D01*
Y-173679D01*
D02*
G37*
G36*
X-137173D02*
X-137176D01*
Y-173676D01*
X-137173D01*
Y-173679D01*
D02*
G37*
G36*
X-137179D02*
X-137182D01*
Y-173676D01*
X-137179D01*
Y-173679D01*
D02*
G37*
G36*
X-137184D02*
X-137188D01*
Y-173676D01*
X-137184D01*
Y-173679D01*
D02*
G37*
G36*
X-137190D02*
X-137194D01*
Y-173676D01*
X-137190D01*
Y-173679D01*
D02*
G37*
G36*
X-137196D02*
X-137200D01*
Y-173676D01*
X-137196D01*
Y-173679D01*
D02*
G37*
G36*
X-137209D02*
X-137213D01*
Y-173676D01*
X-137209D01*
Y-173679D01*
D02*
G37*
G36*
X-137215D02*
X-137219D01*
Y-173676D01*
X-137215D01*
Y-173679D01*
D02*
G37*
G36*
X-137221D02*
X-137225D01*
Y-173676D01*
X-137221D01*
Y-173679D01*
D02*
G37*
G36*
X-137227D02*
X-137231D01*
Y-173676D01*
X-137227D01*
Y-173679D01*
D02*
G37*
G36*
X-137233D02*
X-137237D01*
Y-173676D01*
X-137233D01*
Y-173679D01*
D02*
G37*
G36*
X-137240D02*
X-137243D01*
Y-173676D01*
X-137240D01*
Y-173679D01*
D02*
G37*
G36*
X-137246D02*
X-137249D01*
Y-173676D01*
X-137246D01*
Y-173679D01*
D02*
G37*
G36*
X-137252D02*
X-137256D01*
Y-173676D01*
X-137252D01*
Y-173679D01*
D02*
G37*
G36*
X-137265Y-173684D02*
X-137269D01*
Y-173682D01*
X-137265D01*
Y-173684D01*
D02*
G37*
G36*
X-137271D02*
X-137275D01*
Y-173682D01*
X-137271D01*
Y-173684D01*
D02*
G37*
G36*
X-137278D02*
X-137281D01*
Y-173682D01*
X-137278D01*
Y-173684D01*
D02*
G37*
G36*
X-137284D02*
X-137287D01*
Y-173682D01*
X-137284D01*
Y-173684D01*
D02*
G37*
G36*
X-137290D02*
X-137293D01*
Y-173682D01*
X-137290D01*
Y-173684D01*
D02*
G37*
G36*
X-137296D02*
X-137299D01*
Y-173682D01*
X-137296D01*
Y-173684D01*
D02*
G37*
G36*
X-137302D02*
X-137305D01*
Y-173682D01*
X-137302D01*
Y-173684D01*
D02*
G37*
G36*
X-137308D02*
X-137311D01*
Y-173682D01*
X-137308D01*
Y-173684D01*
D02*
G37*
G36*
X-137097Y-173684D02*
X-137100D01*
Y-173682D01*
X-137097D01*
Y-173684D01*
D02*
G37*
G36*
X-137103D02*
X-137106D01*
Y-173682D01*
X-137103D01*
Y-173684D01*
D02*
G37*
G36*
X-137109D02*
X-137113D01*
Y-173682D01*
X-137109D01*
Y-173684D01*
D02*
G37*
G36*
X-137115D02*
X-137119D01*
Y-173682D01*
X-137115D01*
Y-173684D01*
D02*
G37*
G36*
X-137121D02*
X-137125D01*
Y-173682D01*
X-137121D01*
Y-173684D01*
D02*
G37*
G36*
X-137127D02*
X-137131D01*
Y-173682D01*
X-137127D01*
Y-173684D01*
D02*
G37*
G36*
X-137134D02*
X-137137D01*
Y-173682D01*
X-137134D01*
Y-173684D01*
D02*
G37*
G36*
X-137140D02*
X-137143D01*
Y-173682D01*
X-137140D01*
Y-173684D01*
D02*
G37*
G36*
X-137155D02*
X-137158D01*
Y-173682D01*
X-137155D01*
Y-173684D01*
D02*
G37*
G36*
X-137161D02*
X-137164D01*
Y-173682D01*
X-137161D01*
Y-173684D01*
D02*
G37*
G36*
X-137167D02*
X-137170D01*
Y-173682D01*
X-137167D01*
Y-173684D01*
D02*
G37*
G36*
X-137173D02*
X-137176D01*
Y-173682D01*
X-137173D01*
Y-173684D01*
D02*
G37*
G36*
X-137179D02*
X-137182D01*
Y-173682D01*
X-137179D01*
Y-173684D01*
D02*
G37*
G36*
X-137184D02*
X-137188D01*
Y-173682D01*
X-137184D01*
Y-173684D01*
D02*
G37*
G36*
X-137190D02*
X-137194D01*
Y-173682D01*
X-137190D01*
Y-173684D01*
D02*
G37*
G36*
X-137196D02*
X-137200D01*
Y-173682D01*
X-137196D01*
Y-173684D01*
D02*
G37*
G36*
X-137209D02*
X-137213D01*
Y-173682D01*
X-137209D01*
Y-173684D01*
D02*
G37*
G36*
X-137215D02*
X-137219D01*
Y-173682D01*
X-137215D01*
Y-173684D01*
D02*
G37*
G36*
X-137221D02*
X-137225D01*
Y-173682D01*
X-137221D01*
Y-173684D01*
D02*
G37*
G36*
X-137227D02*
X-137231D01*
Y-173682D01*
X-137227D01*
Y-173684D01*
D02*
G37*
G36*
X-137233D02*
X-137237D01*
Y-173682D01*
X-137233D01*
Y-173684D01*
D02*
G37*
G36*
X-137240D02*
X-137243D01*
Y-173682D01*
X-137240D01*
Y-173684D01*
D02*
G37*
G36*
X-137246D02*
X-137249D01*
Y-173682D01*
X-137246D01*
Y-173684D01*
D02*
G37*
G36*
X-137252D02*
X-137256D01*
Y-173682D01*
X-137252D01*
Y-173684D01*
D02*
G37*
G36*
X-137159Y-173692D02*
X-137159Y-173693D01*
X-137159Y-173699D01*
X-137159D01*
X-137159Y-173700D01*
X-137160Y-173700D01*
X-137161Y-173700D01*
X-137161Y-173699D01*
X-137161D01*
Y-173693D01*
X-137161D01*
X-137161Y-173692D01*
X-137160Y-173692D01*
X-137159Y-173692D01*
D02*
G37*
G36*
X-137164D02*
X-137164Y-173693D01*
X-137164Y-173699D01*
X-137164D01*
X-137164Y-173700D01*
X-137165Y-173700D01*
X-137166Y-173700D01*
X-137166Y-173699D01*
X-137166D01*
Y-173693D01*
X-137166D01*
X-137166Y-173692D01*
X-137165Y-173692D01*
X-137164Y-173692D01*
D02*
G37*
G36*
X-137169D02*
X-137169Y-173693D01*
X-137169Y-173699D01*
X-137169D01*
X-137169Y-173700D01*
X-137170Y-173700D01*
X-137171Y-173700D01*
X-137171Y-173699D01*
X-137171D01*
Y-173693D01*
X-137171D01*
X-137171Y-173692D01*
X-137170Y-173692D01*
X-137169Y-173692D01*
D02*
G37*
G36*
X-137174D02*
X-137174Y-173693D01*
X-137174Y-173699D01*
X-137174D01*
X-137174Y-173700D01*
X-137175Y-173700D01*
X-137176Y-173700D01*
X-137176Y-173699D01*
X-137176D01*
Y-173693D01*
X-137176D01*
X-137176Y-173692D01*
X-137175Y-173692D01*
X-137174Y-173692D01*
D02*
G37*
G36*
X-137179D02*
X-137179Y-173693D01*
X-137179Y-173699D01*
X-137179D01*
X-137179Y-173700D01*
X-137180Y-173700D01*
X-137181Y-173700D01*
X-137181Y-173699D01*
X-137181D01*
Y-173693D01*
X-137181D01*
X-137181Y-173692D01*
X-137180Y-173692D01*
X-137179Y-173692D01*
D02*
G37*
G36*
X-137184D02*
X-137184Y-173693D01*
X-137184Y-173699D01*
X-137184D01*
X-137184Y-173700D01*
X-137185Y-173700D01*
X-137186Y-173700D01*
X-137186Y-173699D01*
X-137186D01*
Y-173693D01*
X-137186D01*
X-137186Y-173692D01*
X-137185Y-173692D01*
X-137184Y-173692D01*
D02*
G37*
G36*
X-137189D02*
X-137189Y-173693D01*
X-137189Y-173699D01*
X-137189D01*
X-137189Y-173700D01*
X-137190Y-173700D01*
X-137191Y-173700D01*
X-137191Y-173699D01*
X-137191D01*
Y-173693D01*
X-137191D01*
X-137191Y-173692D01*
X-137190Y-173692D01*
X-137189Y-173692D01*
D02*
G37*
G36*
X-137194D02*
X-137194Y-173693D01*
X-137194Y-173699D01*
X-137194D01*
X-137194Y-173700D01*
X-137195Y-173700D01*
X-137196Y-173700D01*
X-137196Y-173699D01*
X-137196D01*
Y-173693D01*
X-137196D01*
X-137196Y-173692D01*
X-137195Y-173692D01*
X-137194Y-173692D01*
D02*
G37*
G36*
X-137214D02*
X-137214Y-173693D01*
X-137214Y-173699D01*
X-137214D01*
X-137214Y-173700D01*
X-137215Y-173700D01*
X-137216Y-173700D01*
X-137216Y-173699D01*
X-137216D01*
Y-173693D01*
X-137216D01*
X-137216Y-173692D01*
X-137215Y-173692D01*
X-137214Y-173692D01*
D02*
G37*
G36*
X-137219D02*
X-137219Y-173693D01*
X-137219Y-173699D01*
X-137219D01*
X-137219Y-173700D01*
X-137220Y-173700D01*
X-137221Y-173700D01*
X-137221Y-173699D01*
X-137221D01*
Y-173693D01*
X-137221D01*
X-137221Y-173692D01*
X-137220Y-173692D01*
X-137219Y-173692D01*
D02*
G37*
G36*
X-137224D02*
X-137224Y-173693D01*
X-137224Y-173699D01*
X-137224D01*
X-137224Y-173700D01*
X-137225Y-173700D01*
X-137226Y-173700D01*
X-137226Y-173699D01*
X-137226D01*
Y-173693D01*
X-137226D01*
X-137226Y-173692D01*
X-137225Y-173692D01*
X-137224Y-173692D01*
D02*
G37*
G36*
X-137229D02*
X-137229Y-173693D01*
X-137229Y-173699D01*
X-137229D01*
X-137229Y-173700D01*
X-137230Y-173700D01*
X-137231Y-173700D01*
X-137231Y-173699D01*
X-137231D01*
Y-173693D01*
X-137231D01*
X-137231Y-173692D01*
X-137230Y-173692D01*
X-137229Y-173692D01*
D02*
G37*
G36*
X-137234D02*
X-137234Y-173693D01*
X-137234Y-173699D01*
X-137234D01*
X-137234Y-173700D01*
X-137235Y-173700D01*
X-137236Y-173700D01*
X-137236Y-173699D01*
X-137236D01*
Y-173693D01*
X-137236D01*
X-137236Y-173692D01*
X-137235Y-173692D01*
X-137234Y-173692D01*
D02*
G37*
G36*
X-137239D02*
X-137239Y-173693D01*
X-137239Y-173699D01*
X-137239D01*
X-137239Y-173700D01*
X-137240Y-173700D01*
X-137241Y-173700D01*
X-137241Y-173699D01*
X-137241D01*
Y-173693D01*
X-137241D01*
X-137241Y-173692D01*
X-137240Y-173692D01*
X-137239Y-173692D01*
D02*
G37*
G36*
X-137244D02*
X-137244Y-173693D01*
X-137244Y-173699D01*
X-137244D01*
X-137244Y-173700D01*
X-137245Y-173700D01*
X-137246Y-173700D01*
X-137246Y-173699D01*
X-137246D01*
Y-173693D01*
X-137246D01*
X-137246Y-173692D01*
X-137245Y-173692D01*
X-137244Y-173692D01*
D02*
G37*
G36*
X-137249D02*
X-137249Y-173693D01*
X-137249Y-173699D01*
X-137249D01*
X-137249Y-173700D01*
X-137250Y-173700D01*
X-137251Y-173700D01*
X-137251Y-173699D01*
X-137251D01*
Y-173693D01*
X-137251D01*
X-137251Y-173692D01*
X-137250Y-173692D01*
X-137249Y-173692D01*
D02*
G37*
G36*
X-137102Y-173693D02*
X-137102Y-173693D01*
X-137102Y-173699D01*
X-137102D01*
X-137102Y-173700D01*
X-137103Y-173700D01*
X-137104Y-173700D01*
X-137104Y-173699D01*
X-137104D01*
Y-173693D01*
X-137104D01*
X-137104Y-173693D01*
X-137103Y-173692D01*
X-137102Y-173693D01*
D02*
G37*
G36*
X-137107D02*
X-137107Y-173693D01*
X-137107Y-173699D01*
X-137107D01*
X-137107Y-173700D01*
X-137108Y-173700D01*
X-137109Y-173700D01*
X-137109Y-173699D01*
X-137109D01*
Y-173693D01*
X-137109D01*
X-137109Y-173693D01*
X-137108Y-173692D01*
X-137107Y-173693D01*
D02*
G37*
G36*
X-137112D02*
X-137112Y-173693D01*
X-137112Y-173699D01*
X-137112D01*
X-137112Y-173700D01*
X-137113Y-173700D01*
X-137114Y-173700D01*
X-137114Y-173699D01*
X-137114D01*
Y-173693D01*
X-137114D01*
X-137114Y-173693D01*
X-137113Y-173692D01*
X-137112Y-173693D01*
D02*
G37*
G36*
X-137117D02*
X-137117Y-173693D01*
X-137117Y-173699D01*
X-137117D01*
X-137117Y-173700D01*
X-137118Y-173700D01*
X-137119Y-173700D01*
X-137119Y-173699D01*
X-137119D01*
Y-173693D01*
X-137119D01*
X-137119Y-173693D01*
X-137118Y-173692D01*
X-137117Y-173693D01*
D02*
G37*
G36*
X-137122D02*
X-137122Y-173693D01*
X-137122Y-173699D01*
X-137122D01*
X-137122Y-173700D01*
X-137123Y-173700D01*
X-137124Y-173700D01*
X-137124Y-173699D01*
X-137124D01*
Y-173693D01*
X-137124D01*
X-137124Y-173693D01*
X-137123Y-173692D01*
X-137122Y-173693D01*
D02*
G37*
G36*
X-137127D02*
X-137127Y-173693D01*
X-137127Y-173699D01*
X-137127D01*
X-137127Y-173700D01*
X-137128Y-173700D01*
X-137129Y-173700D01*
X-137129Y-173699D01*
X-137129D01*
Y-173693D01*
X-137129D01*
X-137129Y-173693D01*
X-137128Y-173692D01*
X-137127Y-173693D01*
D02*
G37*
G36*
X-137132D02*
X-137132Y-173693D01*
X-137132Y-173699D01*
X-137132D01*
X-137132Y-173700D01*
X-137133Y-173700D01*
X-137134Y-173700D01*
X-137134Y-173699D01*
X-137134D01*
Y-173693D01*
X-137134D01*
X-137134Y-173693D01*
X-137133Y-173692D01*
X-137132Y-173693D01*
D02*
G37*
G36*
X-137137D02*
X-137137Y-173693D01*
X-137137Y-173699D01*
X-137137D01*
X-137137Y-173700D01*
X-137138Y-173700D01*
X-137139Y-173700D01*
X-137139Y-173699D01*
X-137139D01*
Y-173693D01*
X-137139D01*
X-137139Y-173693D01*
X-137138Y-173692D01*
X-137137Y-173693D01*
D02*
G37*
G36*
X-137270Y-173693D02*
X-137270Y-173694D01*
X-137270Y-173699D01*
X-137270D01*
X-137270Y-173700D01*
X-137271Y-173701D01*
X-137272Y-173700D01*
X-137272Y-173699D01*
X-137272D01*
Y-173694D01*
X-137272D01*
X-137272Y-173693D01*
X-137271Y-173693D01*
X-137270Y-173693D01*
D02*
G37*
G36*
X-137275D02*
X-137275Y-173694D01*
X-137275Y-173699D01*
X-137275D01*
X-137275Y-173700D01*
X-137276Y-173701D01*
X-137277Y-173700D01*
X-137277Y-173699D01*
X-137277D01*
Y-173694D01*
X-137277D01*
X-137277Y-173693D01*
X-137276Y-173693D01*
X-137275Y-173693D01*
D02*
G37*
G36*
X-137280D02*
X-137280Y-173694D01*
X-137280Y-173699D01*
X-137280D01*
X-137280Y-173700D01*
X-137281Y-173701D01*
X-137282Y-173700D01*
X-137282Y-173699D01*
X-137282D01*
Y-173694D01*
X-137282D01*
X-137282Y-173693D01*
X-137281Y-173693D01*
X-137280Y-173693D01*
D02*
G37*
G36*
X-137285D02*
X-137285Y-173694D01*
X-137285Y-173699D01*
X-137285D01*
X-137285Y-173700D01*
X-137286Y-173701D01*
X-137287Y-173700D01*
X-137287Y-173699D01*
X-137287D01*
Y-173694D01*
X-137287D01*
X-137287Y-173693D01*
X-137286Y-173693D01*
X-137285Y-173693D01*
D02*
G37*
G36*
X-137290D02*
X-137290Y-173694D01*
X-137290Y-173699D01*
X-137290D01*
X-137290Y-173700D01*
X-137291Y-173701D01*
X-137292Y-173700D01*
X-137292Y-173699D01*
X-137292D01*
Y-173694D01*
X-137292D01*
X-137292Y-173693D01*
X-137291Y-173693D01*
X-137290Y-173693D01*
D02*
G37*
G36*
X-137295D02*
X-137295Y-173694D01*
X-137295Y-173699D01*
X-137295D01*
X-137295Y-173700D01*
X-137296Y-173701D01*
X-137297Y-173700D01*
X-137297Y-173699D01*
X-137297D01*
Y-173694D01*
X-137297D01*
X-137297Y-173693D01*
X-137296Y-173693D01*
X-137295Y-173693D01*
D02*
G37*
G36*
X-137300D02*
X-137300Y-173694D01*
X-137300Y-173699D01*
X-137300D01*
X-137300Y-173700D01*
X-137301Y-173701D01*
X-137302Y-173700D01*
X-137302Y-173699D01*
X-137302D01*
Y-173694D01*
X-137302D01*
X-137302Y-173693D01*
X-137301Y-173693D01*
X-137300Y-173693D01*
D02*
G37*
G36*
X-137305D02*
X-137305Y-173694D01*
X-137305Y-173699D01*
X-137305D01*
X-137305Y-173700D01*
X-137306Y-173701D01*
X-137307Y-173700D01*
X-137307Y-173699D01*
X-137307D01*
Y-173694D01*
X-137307D01*
X-137307Y-173693D01*
X-137306Y-173693D01*
X-137305Y-173693D01*
D02*
G37*
G36*
X-137152Y-173713D02*
X-137155D01*
Y-173709D01*
X-137152D01*
Y-173713D01*
D02*
G37*
G36*
X-137207D02*
X-137210D01*
Y-173709D01*
X-137207D01*
Y-173713D01*
D02*
G37*
G36*
X-137094Y-173713D02*
X-137098D01*
Y-173710D01*
X-137094D01*
Y-173713D01*
D02*
G37*
G36*
X-137262Y-173713D02*
X-137265D01*
Y-173710D01*
X-137262D01*
Y-173713D01*
D02*
G37*
G36*
X-137152Y-173719D02*
X-137155D01*
Y-173715D01*
X-137152D01*
Y-173719D01*
D02*
G37*
G36*
X-137207D02*
X-137210D01*
Y-173715D01*
X-137207D01*
Y-173719D01*
D02*
G37*
G36*
X-137094Y-173719D02*
X-137098D01*
Y-173716D01*
X-137094D01*
Y-173719D01*
D02*
G37*
G36*
X-137262Y-173719D02*
X-137265D01*
Y-173716D01*
X-137262D01*
Y-173719D01*
D02*
G37*
G36*
X-137159Y-173714D02*
X-137159Y-173714D01*
X-137159Y-173720D01*
X-137159D01*
X-137159Y-173721D01*
X-137160Y-173721D01*
X-137161Y-173721D01*
X-137161Y-173720D01*
X-137161D01*
Y-173714D01*
X-137161D01*
X-137161Y-173714D01*
X-137160Y-173713D01*
X-137159Y-173714D01*
D02*
G37*
G36*
X-137164D02*
X-137164Y-173714D01*
X-137164Y-173720D01*
X-137164D01*
X-137164Y-173721D01*
X-137165Y-173721D01*
X-137166Y-173721D01*
X-137166Y-173720D01*
X-137166D01*
Y-173714D01*
X-137166D01*
X-137166Y-173714D01*
X-137165Y-173713D01*
X-137164Y-173714D01*
D02*
G37*
G36*
X-137169D02*
X-137169Y-173714D01*
X-137169Y-173720D01*
X-137169D01*
X-137169Y-173721D01*
X-137170Y-173721D01*
X-137171Y-173721D01*
X-137171Y-173720D01*
X-137171D01*
Y-173714D01*
X-137171D01*
X-137171Y-173714D01*
X-137170Y-173713D01*
X-137169Y-173714D01*
D02*
G37*
G36*
X-137174D02*
X-137174Y-173714D01*
X-137174Y-173720D01*
X-137174D01*
X-137174Y-173721D01*
X-137175Y-173721D01*
X-137176Y-173721D01*
X-137176Y-173720D01*
X-137176D01*
Y-173714D01*
X-137176D01*
X-137176Y-173714D01*
X-137175Y-173713D01*
X-137174Y-173714D01*
D02*
G37*
G36*
X-137179D02*
X-137179Y-173714D01*
X-137179Y-173720D01*
X-137179D01*
X-137179Y-173721D01*
X-137180Y-173721D01*
X-137181Y-173721D01*
X-137181Y-173720D01*
X-137181D01*
Y-173714D01*
X-137181D01*
X-137181Y-173714D01*
X-137180Y-173713D01*
X-137179Y-173714D01*
D02*
G37*
G36*
X-137184D02*
X-137184Y-173714D01*
X-137184Y-173720D01*
X-137184D01*
X-137184Y-173721D01*
X-137185Y-173721D01*
X-137186Y-173721D01*
X-137186Y-173720D01*
X-137186D01*
Y-173714D01*
X-137186D01*
X-137186Y-173714D01*
X-137185Y-173713D01*
X-137184Y-173714D01*
D02*
G37*
G36*
X-137189D02*
X-137189Y-173714D01*
X-137189Y-173720D01*
X-137189D01*
X-137189Y-173721D01*
X-137190Y-173721D01*
X-137191Y-173721D01*
X-137191Y-173720D01*
X-137191D01*
Y-173714D01*
X-137191D01*
X-137191Y-173714D01*
X-137190Y-173713D01*
X-137189Y-173714D01*
D02*
G37*
G36*
X-137194D02*
X-137194Y-173714D01*
X-137194Y-173720D01*
X-137194D01*
X-137194Y-173721D01*
X-137195Y-173721D01*
X-137196Y-173721D01*
X-137196Y-173720D01*
X-137196D01*
Y-173714D01*
X-137196D01*
X-137196Y-173714D01*
X-137195Y-173713D01*
X-137194Y-173714D01*
D02*
G37*
G36*
X-137214D02*
X-137214Y-173714D01*
X-137214Y-173720D01*
X-137214D01*
X-137214Y-173721D01*
X-137215Y-173721D01*
X-137216Y-173721D01*
X-137216Y-173720D01*
X-137216D01*
Y-173714D01*
X-137216D01*
X-137216Y-173714D01*
X-137215Y-173713D01*
X-137214Y-173714D01*
D02*
G37*
G36*
X-137219D02*
X-137219Y-173714D01*
X-137219Y-173720D01*
X-137219D01*
X-137219Y-173721D01*
X-137220Y-173721D01*
X-137221Y-173721D01*
X-137221Y-173720D01*
X-137221D01*
Y-173714D01*
X-137221D01*
X-137221Y-173714D01*
X-137220Y-173713D01*
X-137219Y-173714D01*
D02*
G37*
G36*
X-137224D02*
X-137224Y-173714D01*
X-137224Y-173720D01*
X-137224D01*
X-137224Y-173721D01*
X-137225Y-173721D01*
X-137226Y-173721D01*
X-137226Y-173720D01*
X-137226D01*
Y-173714D01*
X-137226D01*
X-137226Y-173714D01*
X-137225Y-173713D01*
X-137224Y-173714D01*
D02*
G37*
G36*
X-137229D02*
X-137229Y-173714D01*
X-137229Y-173720D01*
X-137229D01*
X-137229Y-173721D01*
X-137230Y-173721D01*
X-137231Y-173721D01*
X-137231Y-173720D01*
X-137231D01*
Y-173714D01*
X-137231D01*
X-137231Y-173714D01*
X-137230Y-173713D01*
X-137229Y-173714D01*
D02*
G37*
G36*
X-137234D02*
X-137234Y-173714D01*
X-137234Y-173720D01*
X-137234D01*
X-137234Y-173721D01*
X-137235Y-173721D01*
X-137236Y-173721D01*
X-137236Y-173720D01*
X-137236D01*
Y-173714D01*
X-137236D01*
X-137236Y-173714D01*
X-137235Y-173713D01*
X-137234Y-173714D01*
D02*
G37*
G36*
X-137239D02*
X-137239Y-173714D01*
X-137239Y-173720D01*
X-137239D01*
X-137239Y-173721D01*
X-137240Y-173721D01*
X-137241Y-173721D01*
X-137241Y-173720D01*
X-137241D01*
Y-173714D01*
X-137241D01*
X-137241Y-173714D01*
X-137240Y-173713D01*
X-137239Y-173714D01*
D02*
G37*
G36*
X-137244D02*
X-137244Y-173714D01*
X-137244Y-173720D01*
X-137244D01*
X-137244Y-173721D01*
X-137245Y-173721D01*
X-137246Y-173721D01*
X-137246Y-173720D01*
X-137246D01*
Y-173714D01*
X-137246D01*
X-137246Y-173714D01*
X-137245Y-173713D01*
X-137244Y-173714D01*
D02*
G37*
G36*
X-137249D02*
X-137249Y-173714D01*
X-137249Y-173720D01*
X-137249D01*
X-137249Y-173721D01*
X-137250Y-173721D01*
X-137251Y-173721D01*
X-137251Y-173720D01*
X-137251D01*
Y-173714D01*
X-137251D01*
X-137251Y-173714D01*
X-137250Y-173713D01*
X-137249Y-173714D01*
D02*
G37*
G36*
X-137102Y-173714D02*
X-137102Y-173715D01*
X-137102Y-173720D01*
X-137102D01*
X-137102Y-173721D01*
X-137103Y-173722D01*
X-137104Y-173721D01*
X-137104Y-173720D01*
X-137104D01*
Y-173715D01*
X-137104D01*
X-137104Y-173714D01*
X-137103Y-173713D01*
X-137102Y-173714D01*
D02*
G37*
G36*
X-137107D02*
X-137107Y-173715D01*
X-137107Y-173720D01*
X-137107D01*
X-137107Y-173721D01*
X-137108Y-173722D01*
X-137109Y-173721D01*
X-137109Y-173720D01*
X-137109D01*
Y-173715D01*
X-137109D01*
X-137109Y-173714D01*
X-137108Y-173713D01*
X-137107Y-173714D01*
D02*
G37*
G36*
X-137112D02*
X-137112Y-173715D01*
X-137112Y-173720D01*
X-137112D01*
X-137112Y-173721D01*
X-137113Y-173722D01*
X-137114Y-173721D01*
X-137114Y-173720D01*
X-137114D01*
Y-173715D01*
X-137114D01*
X-137114Y-173714D01*
X-137113Y-173713D01*
X-137112Y-173714D01*
D02*
G37*
G36*
X-137117D02*
X-137117Y-173715D01*
X-137117Y-173720D01*
X-137117D01*
X-137117Y-173721D01*
X-137118Y-173722D01*
X-137119Y-173721D01*
X-137119Y-173720D01*
X-137119D01*
Y-173715D01*
X-137119D01*
X-137119Y-173714D01*
X-137118Y-173713D01*
X-137117Y-173714D01*
D02*
G37*
G36*
X-137122D02*
X-137122Y-173715D01*
X-137122Y-173720D01*
X-137122D01*
X-137122Y-173721D01*
X-137123Y-173722D01*
X-137124Y-173721D01*
X-137124Y-173720D01*
X-137124D01*
Y-173715D01*
X-137124D01*
X-137124Y-173714D01*
X-137123Y-173713D01*
X-137122Y-173714D01*
D02*
G37*
G36*
X-137127D02*
X-137127Y-173715D01*
X-137127Y-173720D01*
X-137127D01*
X-137127Y-173721D01*
X-137128Y-173722D01*
X-137129Y-173721D01*
X-137129Y-173720D01*
X-137129D01*
Y-173715D01*
X-137129D01*
X-137129Y-173714D01*
X-137128Y-173713D01*
X-137127Y-173714D01*
D02*
G37*
G36*
X-137132D02*
X-137132Y-173715D01*
X-137132Y-173720D01*
X-137132D01*
X-137132Y-173721D01*
X-137133Y-173722D01*
X-137134Y-173721D01*
X-137134Y-173720D01*
X-137134D01*
Y-173715D01*
X-137134D01*
X-137134Y-173714D01*
X-137133Y-173713D01*
X-137132Y-173714D01*
D02*
G37*
G36*
X-137137D02*
X-137137Y-173715D01*
X-137137Y-173720D01*
X-137137D01*
X-137137Y-173721D01*
X-137138Y-173722D01*
X-137139Y-173721D01*
X-137139Y-173720D01*
X-137139D01*
Y-173715D01*
X-137139D01*
X-137139Y-173714D01*
X-137138Y-173713D01*
X-137137Y-173714D01*
D02*
G37*
G36*
X-137270Y-173714D02*
X-137270Y-173715D01*
X-137270Y-173721D01*
X-137270D01*
X-137270Y-173722D01*
X-137271Y-173722D01*
X-137272Y-173722D01*
X-137272Y-173721D01*
X-137272D01*
Y-173715D01*
X-137272D01*
X-137272Y-173714D01*
X-137271Y-173714D01*
X-137270Y-173714D01*
D02*
G37*
G36*
X-137275D02*
X-137275Y-173715D01*
X-137275Y-173721D01*
X-137275D01*
X-137275Y-173722D01*
X-137276Y-173722D01*
X-137277Y-173722D01*
X-137277Y-173721D01*
X-137277D01*
Y-173715D01*
X-137277D01*
X-137277Y-173714D01*
X-137276Y-173714D01*
X-137275Y-173714D01*
D02*
G37*
G36*
X-137280D02*
X-137280Y-173715D01*
X-137280Y-173721D01*
X-137280D01*
X-137280Y-173722D01*
X-137281Y-173722D01*
X-137282Y-173722D01*
X-137282Y-173721D01*
X-137282D01*
Y-173715D01*
X-137282D01*
X-137282Y-173714D01*
X-137281Y-173714D01*
X-137280Y-173714D01*
D02*
G37*
G36*
X-137285D02*
X-137285Y-173715D01*
X-137285Y-173721D01*
X-137285D01*
X-137285Y-173722D01*
X-137286Y-173722D01*
X-137287Y-173722D01*
X-137287Y-173721D01*
X-137287D01*
Y-173715D01*
X-137287D01*
X-137287Y-173714D01*
X-137286Y-173714D01*
X-137285Y-173714D01*
D02*
G37*
G36*
X-137290D02*
X-137290Y-173715D01*
X-137290Y-173721D01*
X-137290D01*
X-137290Y-173722D01*
X-137291Y-173722D01*
X-137292Y-173722D01*
X-137292Y-173721D01*
X-137292D01*
Y-173715D01*
X-137292D01*
X-137292Y-173714D01*
X-137291Y-173714D01*
X-137290Y-173714D01*
D02*
G37*
G36*
X-137295D02*
X-137295Y-173715D01*
X-137295Y-173721D01*
X-137295D01*
X-137295Y-173722D01*
X-137296Y-173722D01*
X-137297Y-173722D01*
X-137297Y-173721D01*
X-137297D01*
Y-173715D01*
X-137297D01*
X-137297Y-173714D01*
X-137296Y-173714D01*
X-137295Y-173714D01*
D02*
G37*
G36*
X-137300D02*
X-137300Y-173715D01*
X-137300Y-173721D01*
X-137300D01*
X-137300Y-173722D01*
X-137301Y-173722D01*
X-137302Y-173722D01*
X-137302Y-173721D01*
X-137302D01*
Y-173715D01*
X-137302D01*
X-137302Y-173714D01*
X-137301Y-173714D01*
X-137300Y-173714D01*
D02*
G37*
G36*
X-137305D02*
X-137305Y-173715D01*
X-137305Y-173721D01*
X-137305D01*
X-137305Y-173722D01*
X-137306Y-173722D01*
X-137307Y-173722D01*
X-137307Y-173721D01*
X-137307D01*
Y-173715D01*
X-137307D01*
X-137307Y-173714D01*
X-137306Y-173714D01*
X-137305Y-173714D01*
D02*
G37*
G36*
X-137144Y-173743D02*
X-137147D01*
Y-173740D01*
X-137144D01*
Y-173743D01*
D02*
G37*
G36*
X-137201D02*
X-137204D01*
Y-173740D01*
X-137201D01*
Y-173743D01*
D02*
G37*
G36*
X-137256Y-173743D02*
X-137259D01*
Y-173740D01*
X-137256D01*
Y-173743D01*
D02*
G37*
G36*
X-137311Y-173744D02*
X-137315D01*
Y-173741D01*
X-137311D01*
Y-173744D01*
D02*
G37*
G36*
X-137103Y-173738D02*
X-137102Y-173739D01*
X-137102D01*
Y-173744D01*
X-137102D01*
X-137103Y-173745D01*
X-137103Y-173745D01*
X-137104Y-173745D01*
X-137105Y-173744D01*
X-137104Y-173739D01*
X-137105D01*
X-137104Y-173738D01*
X-137103Y-173737D01*
X-137103Y-173738D01*
D02*
G37*
G36*
X-137108D02*
X-137107Y-173739D01*
X-137107D01*
Y-173744D01*
X-137107D01*
X-137108Y-173745D01*
X-137108Y-173745D01*
X-137109Y-173745D01*
X-137110Y-173744D01*
X-137109Y-173739D01*
X-137110D01*
X-137109Y-173738D01*
X-137108Y-173737D01*
X-137108Y-173738D01*
D02*
G37*
G36*
X-137113D02*
X-137112Y-173739D01*
X-137112D01*
Y-173744D01*
X-137112D01*
X-137113Y-173745D01*
X-137113Y-173745D01*
X-137114Y-173745D01*
X-137115Y-173744D01*
X-137115Y-173739D01*
X-137115D01*
X-137114Y-173738D01*
X-137113Y-173737D01*
X-137113Y-173738D01*
D02*
G37*
G36*
X-137118D02*
X-137117Y-173739D01*
X-137117D01*
Y-173744D01*
X-137117D01*
X-137118Y-173745D01*
X-137118Y-173745D01*
X-137119Y-173745D01*
X-137120Y-173744D01*
X-137119Y-173739D01*
X-137120D01*
X-137119Y-173738D01*
X-137118Y-173737D01*
X-137118Y-173738D01*
D02*
G37*
G36*
X-137123D02*
X-137122Y-173739D01*
X-137122D01*
Y-173744D01*
X-137122D01*
X-137123Y-173745D01*
X-137123Y-173745D01*
X-137124Y-173745D01*
X-137125Y-173744D01*
X-137125Y-173739D01*
X-137125D01*
X-137124Y-173738D01*
X-137123Y-173737D01*
X-137123Y-173738D01*
D02*
G37*
G36*
X-137128D02*
X-137127Y-173739D01*
X-137127D01*
Y-173744D01*
X-137127D01*
X-137128Y-173745D01*
X-137128Y-173745D01*
X-137129Y-173745D01*
X-137130Y-173744D01*
X-137129Y-173739D01*
X-137130D01*
X-137129Y-173738D01*
X-137128Y-173737D01*
X-137128Y-173738D01*
D02*
G37*
G36*
X-137133D02*
X-137132Y-173739D01*
X-137132D01*
Y-173744D01*
X-137132D01*
X-137133Y-173745D01*
X-137133Y-173745D01*
X-137134Y-173745D01*
X-137135Y-173744D01*
X-137135Y-173739D01*
X-137135D01*
X-137134Y-173738D01*
X-137133Y-173737D01*
X-137133Y-173738D01*
D02*
G37*
G36*
X-137138D02*
X-137137Y-173739D01*
X-137137D01*
Y-173744D01*
X-137137D01*
X-137138Y-173745D01*
X-137138Y-173745D01*
X-137139Y-173745D01*
X-137140Y-173744D01*
X-137139Y-173739D01*
X-137140D01*
X-137139Y-173738D01*
X-137138Y-173737D01*
X-137138Y-173738D01*
D02*
G37*
G36*
X-137160D02*
X-137159Y-173739D01*
X-137159D01*
Y-173744D01*
X-137159D01*
X-137160Y-173745D01*
X-137160Y-173745D01*
X-137161Y-173745D01*
X-137162Y-173744D01*
X-137162Y-173739D01*
X-137162D01*
X-137161Y-173738D01*
X-137160Y-173737D01*
X-137160Y-173738D01*
D02*
G37*
G36*
X-137165D02*
X-137164Y-173739D01*
X-137164D01*
Y-173744D01*
X-137164D01*
X-137165Y-173745D01*
X-137165Y-173745D01*
X-137166Y-173745D01*
X-137167Y-173744D01*
X-137167Y-173739D01*
X-137167D01*
X-137166Y-173738D01*
X-137165Y-173737D01*
X-137165Y-173738D01*
D02*
G37*
G36*
X-137170D02*
X-137169Y-173739D01*
X-137169D01*
Y-173744D01*
X-137169D01*
X-137170Y-173745D01*
X-137170Y-173745D01*
X-137171Y-173745D01*
X-137172Y-173744D01*
X-137171Y-173739D01*
X-137172D01*
X-137171Y-173738D01*
X-137170Y-173737D01*
X-137170Y-173738D01*
D02*
G37*
G36*
X-137175D02*
X-137174Y-173739D01*
X-137174D01*
Y-173744D01*
X-137174D01*
X-137175Y-173745D01*
X-137175Y-173745D01*
X-137176Y-173745D01*
X-137177Y-173744D01*
X-137177Y-173739D01*
X-137177D01*
X-137176Y-173738D01*
X-137175Y-173737D01*
X-137175Y-173738D01*
D02*
G37*
G36*
X-137180D02*
X-137179Y-173739D01*
X-137179D01*
Y-173744D01*
X-137179D01*
X-137180Y-173745D01*
X-137180Y-173745D01*
X-137181Y-173745D01*
X-137182Y-173744D01*
X-137181Y-173739D01*
X-137182D01*
X-137181Y-173738D01*
X-137180Y-173737D01*
X-137180Y-173738D01*
D02*
G37*
G36*
X-137185D02*
X-137184Y-173739D01*
X-137184D01*
Y-173744D01*
X-137184D01*
X-137185Y-173745D01*
X-137185Y-173745D01*
X-137186Y-173745D01*
X-137187Y-173744D01*
X-137187Y-173739D01*
X-137187D01*
X-137186Y-173738D01*
X-137185Y-173737D01*
X-137185Y-173738D01*
D02*
G37*
G36*
X-137190D02*
X-137189Y-173739D01*
X-137189D01*
Y-173744D01*
X-137189D01*
X-137190Y-173745D01*
X-137190Y-173745D01*
X-137191Y-173745D01*
X-137192Y-173744D01*
X-137191Y-173739D01*
X-137192D01*
X-137191Y-173738D01*
X-137190Y-173737D01*
X-137190Y-173738D01*
D02*
G37*
G36*
X-137195D02*
X-137194Y-173739D01*
X-137194D01*
Y-173744D01*
X-137194D01*
X-137195Y-173745D01*
X-137195Y-173745D01*
X-137196Y-173745D01*
X-137197Y-173744D01*
X-137197Y-173739D01*
X-137197D01*
X-137196Y-173738D01*
X-137195Y-173737D01*
X-137195Y-173738D01*
D02*
G37*
G36*
X-137215D02*
X-137214Y-173739D01*
X-137214D01*
Y-173744D01*
X-137214D01*
X-137215Y-173745D01*
X-137215Y-173745D01*
X-137216Y-173745D01*
X-137217Y-173744D01*
X-137216Y-173739D01*
X-137217D01*
X-137216Y-173738D01*
X-137215Y-173737D01*
X-137215Y-173738D01*
D02*
G37*
G36*
X-137220D02*
X-137219Y-173739D01*
X-137219D01*
Y-173744D01*
X-137219D01*
X-137220Y-173745D01*
X-137220Y-173745D01*
X-137221Y-173745D01*
X-137222Y-173744D01*
X-137222Y-173739D01*
X-137222D01*
X-137221Y-173738D01*
X-137220Y-173737D01*
X-137220Y-173738D01*
D02*
G37*
G36*
X-137225D02*
X-137224Y-173739D01*
X-137224D01*
Y-173744D01*
X-137224D01*
X-137225Y-173745D01*
X-137225Y-173745D01*
X-137226Y-173745D01*
X-137227Y-173744D01*
X-137226Y-173739D01*
X-137227D01*
X-137226Y-173738D01*
X-137225Y-173737D01*
X-137225Y-173738D01*
D02*
G37*
G36*
X-137230D02*
X-137229Y-173739D01*
X-137229D01*
Y-173744D01*
X-137229D01*
X-137230Y-173745D01*
X-137230Y-173745D01*
X-137231Y-173745D01*
X-137232Y-173744D01*
X-137232Y-173739D01*
X-137232D01*
X-137231Y-173738D01*
X-137230Y-173737D01*
X-137230Y-173738D01*
D02*
G37*
G36*
X-137235D02*
X-137234Y-173739D01*
X-137234D01*
Y-173744D01*
X-137234D01*
X-137235Y-173745D01*
X-137235Y-173745D01*
X-137236Y-173745D01*
X-137237Y-173744D01*
X-137236Y-173739D01*
X-137237D01*
X-137236Y-173738D01*
X-137235Y-173737D01*
X-137235Y-173738D01*
D02*
G37*
G36*
X-137240D02*
X-137239Y-173739D01*
X-137239D01*
Y-173744D01*
X-137239D01*
X-137240Y-173745D01*
X-137240Y-173745D01*
X-137241Y-173745D01*
X-137242Y-173744D01*
X-137241Y-173739D01*
X-137242D01*
X-137241Y-173738D01*
X-137240Y-173737D01*
X-137240Y-173738D01*
D02*
G37*
G36*
X-137245D02*
X-137244Y-173739D01*
X-137244D01*
Y-173744D01*
X-137244D01*
X-137245Y-173745D01*
X-137245Y-173745D01*
X-137246Y-173745D01*
X-137247Y-173744D01*
X-137247Y-173739D01*
X-137247D01*
X-137246Y-173738D01*
X-137245Y-173737D01*
X-137245Y-173738D01*
D02*
G37*
G36*
X-137250D02*
X-137249Y-173739D01*
X-137249D01*
Y-173744D01*
X-137249D01*
X-137250Y-173745D01*
X-137250Y-173745D01*
X-137251Y-173745D01*
X-137252Y-173744D01*
X-137251Y-173739D01*
X-137252D01*
X-137251Y-173738D01*
X-137250Y-173737D01*
X-137250Y-173738D01*
D02*
G37*
G36*
X-137270Y-173738D02*
X-137270Y-173739D01*
X-137270D01*
Y-173745D01*
X-137270D01*
X-137270Y-173746D01*
X-137271Y-173746D01*
X-137272Y-173746D01*
X-137272Y-173745D01*
X-137272Y-173739D01*
X-137272D01*
X-137272Y-173738D01*
X-137271Y-173738D01*
X-137270Y-173738D01*
D02*
G37*
G36*
X-137275D02*
X-137275Y-173739D01*
X-137275D01*
Y-173745D01*
X-137275D01*
X-137275Y-173746D01*
X-137276Y-173746D01*
X-137277Y-173746D01*
X-137277Y-173745D01*
X-137277Y-173739D01*
X-137277D01*
X-137277Y-173738D01*
X-137276Y-173738D01*
X-137275Y-173738D01*
D02*
G37*
G36*
X-137280D02*
X-137280Y-173739D01*
X-137280D01*
Y-173745D01*
X-137280D01*
X-137280Y-173746D01*
X-137281Y-173746D01*
X-137282Y-173746D01*
X-137282Y-173745D01*
X-137282Y-173739D01*
X-137282D01*
X-137282Y-173738D01*
X-137281Y-173738D01*
X-137280Y-173738D01*
D02*
G37*
G36*
X-137285D02*
X-137285Y-173739D01*
X-137285D01*
Y-173745D01*
X-137285D01*
X-137285Y-173746D01*
X-137286Y-173746D01*
X-137287Y-173746D01*
X-137287Y-173745D01*
X-137287Y-173739D01*
X-137287D01*
X-137287Y-173738D01*
X-137286Y-173738D01*
X-137285Y-173738D01*
D02*
G37*
G36*
X-137290D02*
X-137290Y-173739D01*
X-137290D01*
Y-173745D01*
X-137290D01*
X-137290Y-173746D01*
X-137291Y-173746D01*
X-137292Y-173746D01*
X-137292Y-173745D01*
X-137292Y-173739D01*
X-137292D01*
X-137292Y-173738D01*
X-137291Y-173738D01*
X-137290Y-173738D01*
D02*
G37*
G36*
X-137295D02*
X-137295Y-173739D01*
X-137295D01*
Y-173745D01*
X-137295D01*
X-137295Y-173746D01*
X-137296Y-173746D01*
X-137297Y-173746D01*
X-137297Y-173745D01*
X-137297Y-173739D01*
X-137297D01*
X-137297Y-173738D01*
X-137296Y-173738D01*
X-137295Y-173738D01*
D02*
G37*
G36*
X-137300D02*
X-137300Y-173739D01*
X-137300D01*
Y-173745D01*
X-137300D01*
X-137300Y-173746D01*
X-137301Y-173746D01*
X-137302Y-173746D01*
X-137302Y-173745D01*
X-137302Y-173739D01*
X-137302D01*
X-137302Y-173738D01*
X-137301Y-173738D01*
X-137300Y-173738D01*
D02*
G37*
G36*
X-137305D02*
X-137305Y-173739D01*
X-137305D01*
Y-173745D01*
X-137305D01*
X-137305Y-173746D01*
X-137306Y-173746D01*
X-137307Y-173746D01*
X-137307Y-173745D01*
X-137307Y-173739D01*
X-137307D01*
X-137307Y-173738D01*
X-137306Y-173738D01*
X-137305Y-173738D01*
D02*
G37*
G36*
X-137144Y-173749D02*
X-137147D01*
Y-173746D01*
X-137144D01*
Y-173749D01*
D02*
G37*
G36*
X-137201D02*
X-137204D01*
Y-173746D01*
X-137201D01*
Y-173749D01*
D02*
G37*
G36*
X-137256Y-173749D02*
X-137259D01*
Y-173746D01*
X-137256D01*
Y-173749D01*
D02*
G37*
G36*
X-137311Y-173750D02*
X-137315D01*
Y-173747D01*
X-137311D01*
Y-173750D01*
D02*
G37*
G36*
X-137103Y-173759D02*
X-137102Y-173760D01*
X-137102D01*
Y-173766D01*
X-137102D01*
X-137103Y-173766D01*
X-137103Y-173767D01*
X-137104Y-173766D01*
X-137105Y-173766D01*
X-137104Y-173760D01*
X-137105D01*
X-137104Y-173759D01*
X-137103Y-173759D01*
X-137103Y-173759D01*
D02*
G37*
G36*
X-137108D02*
X-137107Y-173760D01*
X-137107D01*
Y-173766D01*
X-137107D01*
X-137108Y-173766D01*
X-137108Y-173767D01*
X-137109Y-173766D01*
X-137110Y-173766D01*
X-137109Y-173760D01*
X-137110D01*
X-137109Y-173759D01*
X-137108Y-173759D01*
X-137108Y-173759D01*
D02*
G37*
G36*
X-137113D02*
X-137112Y-173760D01*
X-137112D01*
Y-173766D01*
X-137112D01*
X-137113Y-173766D01*
X-137113Y-173767D01*
X-137114Y-173766D01*
X-137115Y-173766D01*
X-137115Y-173760D01*
X-137115D01*
X-137114Y-173759D01*
X-137113Y-173759D01*
X-137113Y-173759D01*
D02*
G37*
G36*
X-137118D02*
X-137117Y-173760D01*
X-137117D01*
Y-173766D01*
X-137117D01*
X-137118Y-173766D01*
X-137118Y-173767D01*
X-137119Y-173766D01*
X-137120Y-173766D01*
X-137119Y-173760D01*
X-137120D01*
X-137119Y-173759D01*
X-137118Y-173759D01*
X-137118Y-173759D01*
D02*
G37*
G36*
X-137123D02*
X-137122Y-173760D01*
X-137122D01*
Y-173766D01*
X-137122D01*
X-137123Y-173766D01*
X-137123Y-173767D01*
X-137124Y-173766D01*
X-137125Y-173766D01*
X-137125Y-173760D01*
X-137125D01*
X-137124Y-173759D01*
X-137123Y-173759D01*
X-137123Y-173759D01*
D02*
G37*
G36*
X-137128D02*
X-137127Y-173760D01*
X-137127D01*
Y-173766D01*
X-137127D01*
X-137128Y-173766D01*
X-137128Y-173767D01*
X-137129Y-173766D01*
X-137130Y-173766D01*
X-137129Y-173760D01*
X-137130D01*
X-137129Y-173759D01*
X-137128Y-173759D01*
X-137128Y-173759D01*
D02*
G37*
G36*
X-137133D02*
X-137132Y-173760D01*
X-137132D01*
Y-173766D01*
X-137132D01*
X-137133Y-173766D01*
X-137133Y-173767D01*
X-137134Y-173766D01*
X-137135Y-173766D01*
X-137135Y-173760D01*
X-137135D01*
X-137134Y-173759D01*
X-137133Y-173759D01*
X-137133Y-173759D01*
D02*
G37*
G36*
X-137138D02*
X-137137Y-173760D01*
X-137137D01*
Y-173766D01*
X-137137D01*
X-137138Y-173766D01*
X-137138Y-173767D01*
X-137139Y-173766D01*
X-137140Y-173766D01*
X-137139Y-173760D01*
X-137140D01*
X-137139Y-173759D01*
X-137138Y-173759D01*
X-137138Y-173759D01*
D02*
G37*
G36*
X-137160D02*
X-137159Y-173760D01*
X-137159D01*
Y-173766D01*
X-137159D01*
X-137160Y-173766D01*
X-137160Y-173767D01*
X-137161Y-173766D01*
X-137162Y-173766D01*
X-137162Y-173760D01*
X-137162D01*
X-137161Y-173759D01*
X-137160Y-173759D01*
X-137160Y-173759D01*
D02*
G37*
G36*
X-137165D02*
X-137164Y-173760D01*
X-137164D01*
Y-173766D01*
X-137164D01*
X-137165Y-173766D01*
X-137165Y-173767D01*
X-137166Y-173766D01*
X-137167Y-173766D01*
X-137167Y-173760D01*
X-137167D01*
X-137166Y-173759D01*
X-137165Y-173759D01*
X-137165Y-173759D01*
D02*
G37*
G36*
X-137170D02*
X-137169Y-173760D01*
X-137169D01*
Y-173766D01*
X-137169D01*
X-137170Y-173766D01*
X-137170Y-173767D01*
X-137171Y-173766D01*
X-137172Y-173766D01*
X-137171Y-173760D01*
X-137172D01*
X-137171Y-173759D01*
X-137170Y-173759D01*
X-137170Y-173759D01*
D02*
G37*
G36*
X-137175D02*
X-137174Y-173760D01*
X-137174D01*
Y-173766D01*
X-137174D01*
X-137175Y-173766D01*
X-137175Y-173767D01*
X-137176Y-173766D01*
X-137177Y-173766D01*
X-137177Y-173760D01*
X-137177D01*
X-137176Y-173759D01*
X-137175Y-173759D01*
X-137175Y-173759D01*
D02*
G37*
G36*
X-137180D02*
X-137179Y-173760D01*
X-137179D01*
Y-173766D01*
X-137179D01*
X-137180Y-173766D01*
X-137180Y-173767D01*
X-137181Y-173766D01*
X-137182Y-173766D01*
X-137181Y-173760D01*
X-137182D01*
X-137181Y-173759D01*
X-137180Y-173759D01*
X-137180Y-173759D01*
D02*
G37*
G36*
X-137185D02*
X-137184Y-173760D01*
X-137184D01*
Y-173766D01*
X-137184D01*
X-137185Y-173766D01*
X-137185Y-173767D01*
X-137186Y-173766D01*
X-137187Y-173766D01*
X-137187Y-173760D01*
X-137187D01*
X-137186Y-173759D01*
X-137185Y-173759D01*
X-137185Y-173759D01*
D02*
G37*
G36*
X-137190D02*
X-137189Y-173760D01*
X-137189D01*
Y-173766D01*
X-137189D01*
X-137190Y-173766D01*
X-137190Y-173767D01*
X-137191Y-173766D01*
X-137192Y-173766D01*
X-137191Y-173760D01*
X-137192D01*
X-137191Y-173759D01*
X-137190Y-173759D01*
X-137190Y-173759D01*
D02*
G37*
G36*
X-137195D02*
X-137194Y-173760D01*
X-137194D01*
Y-173766D01*
X-137194D01*
X-137195Y-173766D01*
X-137195Y-173767D01*
X-137196Y-173766D01*
X-137197Y-173766D01*
X-137197Y-173760D01*
X-137197D01*
X-137196Y-173759D01*
X-137195Y-173759D01*
X-137195Y-173759D01*
D02*
G37*
G36*
X-137215D02*
X-137214Y-173760D01*
X-137214D01*
Y-173766D01*
X-137214D01*
X-137215Y-173766D01*
X-137215Y-173767D01*
X-137216Y-173766D01*
X-137217Y-173766D01*
X-137216Y-173760D01*
X-137217D01*
X-137216Y-173759D01*
X-137215Y-173759D01*
X-137215Y-173759D01*
D02*
G37*
G36*
X-137220D02*
X-137219Y-173760D01*
X-137219D01*
Y-173766D01*
X-137219D01*
X-137220Y-173766D01*
X-137220Y-173767D01*
X-137221Y-173766D01*
X-137222Y-173766D01*
X-137222Y-173760D01*
X-137222D01*
X-137221Y-173759D01*
X-137220Y-173759D01*
X-137220Y-173759D01*
D02*
G37*
G36*
X-137225D02*
X-137224Y-173760D01*
X-137224D01*
Y-173766D01*
X-137224D01*
X-137225Y-173766D01*
X-137225Y-173767D01*
X-137226Y-173766D01*
X-137227Y-173766D01*
X-137226Y-173760D01*
X-137227D01*
X-137226Y-173759D01*
X-137225Y-173759D01*
X-137225Y-173759D01*
D02*
G37*
G36*
X-137230D02*
X-137229Y-173760D01*
X-137229D01*
Y-173766D01*
X-137229D01*
X-137230Y-173766D01*
X-137230Y-173767D01*
X-137231Y-173766D01*
X-137232Y-173766D01*
X-137232Y-173760D01*
X-137232D01*
X-137231Y-173759D01*
X-137230Y-173759D01*
X-137230Y-173759D01*
D02*
G37*
G36*
X-137235D02*
X-137234Y-173760D01*
X-137234D01*
Y-173766D01*
X-137234D01*
X-137235Y-173766D01*
X-137235Y-173767D01*
X-137236Y-173766D01*
X-137237Y-173766D01*
X-137236Y-173760D01*
X-137237D01*
X-137236Y-173759D01*
X-137235Y-173759D01*
X-137235Y-173759D01*
D02*
G37*
G36*
X-137240D02*
X-137239Y-173760D01*
X-137239D01*
Y-173766D01*
X-137239D01*
X-137240Y-173766D01*
X-137240Y-173767D01*
X-137241Y-173766D01*
X-137242Y-173766D01*
X-137241Y-173760D01*
X-137242D01*
X-137241Y-173759D01*
X-137240Y-173759D01*
X-137240Y-173759D01*
D02*
G37*
G36*
X-137245D02*
X-137244Y-173760D01*
X-137244D01*
Y-173766D01*
X-137244D01*
X-137245Y-173766D01*
X-137245Y-173767D01*
X-137246Y-173766D01*
X-137247Y-173766D01*
X-137247Y-173760D01*
X-137247D01*
X-137246Y-173759D01*
X-137245Y-173759D01*
X-137245Y-173759D01*
D02*
G37*
G36*
X-137250D02*
X-137249Y-173760D01*
X-137249D01*
Y-173766D01*
X-137249D01*
X-137250Y-173766D01*
X-137250Y-173767D01*
X-137251Y-173766D01*
X-137252Y-173766D01*
X-137251Y-173760D01*
X-137252D01*
X-137251Y-173759D01*
X-137250Y-173759D01*
X-137250Y-173759D01*
D02*
G37*
G36*
X-137270Y-173760D02*
X-137270Y-173760D01*
X-137270D01*
Y-173766D01*
X-137270D01*
X-137270Y-173767D01*
X-137271Y-173767D01*
X-137272Y-173767D01*
X-137272Y-173766D01*
X-137272Y-173760D01*
X-137272D01*
X-137272Y-173760D01*
X-137271Y-173759D01*
X-137270Y-173760D01*
D02*
G37*
G36*
X-137275D02*
X-137275Y-173760D01*
X-137275D01*
Y-173766D01*
X-137275D01*
X-137275Y-173767D01*
X-137276Y-173767D01*
X-137277Y-173767D01*
X-137277Y-173766D01*
X-137277Y-173760D01*
X-137277D01*
X-137277Y-173760D01*
X-137276Y-173759D01*
X-137275Y-173760D01*
D02*
G37*
G36*
X-137280D02*
X-137280Y-173760D01*
X-137280D01*
Y-173766D01*
X-137280D01*
X-137280Y-173767D01*
X-137281Y-173767D01*
X-137282Y-173767D01*
X-137282Y-173766D01*
X-137282Y-173760D01*
X-137282D01*
X-137282Y-173760D01*
X-137281Y-173759D01*
X-137280Y-173760D01*
D02*
G37*
G36*
X-137285D02*
X-137285Y-173760D01*
X-137285D01*
Y-173766D01*
X-137285D01*
X-137285Y-173767D01*
X-137286Y-173767D01*
X-137287Y-173767D01*
X-137287Y-173766D01*
X-137287Y-173760D01*
X-137287D01*
X-137287Y-173760D01*
X-137286Y-173759D01*
X-137285Y-173760D01*
D02*
G37*
G36*
X-137290D02*
X-137290Y-173760D01*
X-137290D01*
Y-173766D01*
X-137290D01*
X-137290Y-173767D01*
X-137291Y-173767D01*
X-137292Y-173767D01*
X-137292Y-173766D01*
X-137292Y-173760D01*
X-137292D01*
X-137292Y-173760D01*
X-137291Y-173759D01*
X-137290Y-173760D01*
D02*
G37*
G36*
X-137295D02*
X-137295Y-173760D01*
X-137295D01*
Y-173766D01*
X-137295D01*
X-137295Y-173767D01*
X-137296Y-173767D01*
X-137297Y-173767D01*
X-137297Y-173766D01*
X-137297Y-173760D01*
X-137297D01*
X-137297Y-173760D01*
X-137296Y-173759D01*
X-137295Y-173760D01*
D02*
G37*
G36*
X-137300D02*
X-137300Y-173760D01*
X-137300D01*
Y-173766D01*
X-137300D01*
X-137300Y-173767D01*
X-137301Y-173767D01*
X-137302Y-173767D01*
X-137302Y-173766D01*
X-137302Y-173760D01*
X-137302D01*
X-137302Y-173760D01*
X-137301Y-173759D01*
X-137300Y-173760D01*
D02*
G37*
G36*
X-137305D02*
X-137305Y-173760D01*
X-137305D01*
Y-173766D01*
X-137305D01*
X-137305Y-173767D01*
X-137306Y-173767D01*
X-137307Y-173767D01*
X-137307Y-173766D01*
X-137307Y-173760D01*
X-137307D01*
X-137307Y-173760D01*
X-137306Y-173759D01*
X-137305Y-173760D01*
D02*
G37*
G36*
X-137098Y-173777D02*
X-137101D01*
Y-173774D01*
X-137098D01*
Y-173777D01*
D02*
G37*
G36*
X-137103D02*
X-137107D01*
Y-173774D01*
X-137103D01*
Y-173777D01*
D02*
G37*
G36*
X-137110D02*
X-137113D01*
Y-173774D01*
X-137110D01*
Y-173777D01*
D02*
G37*
G36*
X-137116D02*
X-137119D01*
Y-173774D01*
X-137116D01*
Y-173777D01*
D02*
G37*
G36*
X-137122D02*
X-137125D01*
Y-173774D01*
X-137122D01*
Y-173777D01*
D02*
G37*
G36*
X-137128D02*
X-137131D01*
Y-173774D01*
X-137128D01*
Y-173777D01*
D02*
G37*
G36*
X-137134D02*
X-137137D01*
Y-173774D01*
X-137134D01*
Y-173777D01*
D02*
G37*
G36*
X-137140D02*
X-137144D01*
Y-173774D01*
X-137140D01*
Y-173777D01*
D02*
G37*
G36*
X-137154D02*
X-137157D01*
Y-173774D01*
X-137154D01*
Y-173777D01*
D02*
G37*
G36*
X-137160D02*
X-137164D01*
Y-173774D01*
X-137160D01*
Y-173777D01*
D02*
G37*
G36*
X-137166D02*
X-137170D01*
Y-173774D01*
X-137166D01*
Y-173777D01*
D02*
G37*
G36*
X-137172D02*
X-137176D01*
Y-173774D01*
X-137172D01*
Y-173777D01*
D02*
G37*
G36*
X-137178D02*
X-137182D01*
Y-173774D01*
X-137178D01*
Y-173777D01*
D02*
G37*
G36*
X-137184D02*
X-137188D01*
Y-173774D01*
X-137184D01*
Y-173777D01*
D02*
G37*
G36*
X-137190D02*
X-137194D01*
Y-173774D01*
X-137190D01*
Y-173777D01*
D02*
G37*
G36*
X-137197D02*
X-137200D01*
Y-173774D01*
X-137197D01*
Y-173777D01*
D02*
G37*
G36*
X-137210D02*
X-137214D01*
Y-173774D01*
X-137210D01*
Y-173777D01*
D02*
G37*
G36*
X-137216D02*
X-137220D01*
Y-173774D01*
X-137216D01*
Y-173777D01*
D02*
G37*
G36*
X-137222D02*
X-137225D01*
Y-173774D01*
X-137222D01*
Y-173777D01*
D02*
G37*
G36*
X-137228D02*
X-137232D01*
Y-173774D01*
X-137228D01*
Y-173777D01*
D02*
G37*
G36*
X-137234D02*
X-137238D01*
Y-173774D01*
X-137234D01*
Y-173777D01*
D02*
G37*
G36*
X-137240D02*
X-137243D01*
Y-173774D01*
X-137240D01*
Y-173777D01*
D02*
G37*
G36*
X-137246D02*
X-137250D01*
Y-173774D01*
X-137246D01*
Y-173777D01*
D02*
G37*
G36*
X-137252D02*
X-137256D01*
Y-173774D01*
X-137252D01*
Y-173777D01*
D02*
G37*
G36*
X-137265Y-173777D02*
X-137268D01*
Y-173775D01*
X-137265D01*
Y-173777D01*
D02*
G37*
G36*
X-137271D02*
X-137274D01*
Y-173775D01*
X-137271D01*
Y-173777D01*
D02*
G37*
G36*
X-137277D02*
X-137280D01*
Y-173775D01*
X-137277D01*
Y-173777D01*
D02*
G37*
G36*
X-137283D02*
X-137286D01*
Y-173775D01*
X-137283D01*
Y-173777D01*
D02*
G37*
G36*
X-137289D02*
X-137293D01*
Y-173775D01*
X-137289D01*
Y-173777D01*
D02*
G37*
G36*
X-137295D02*
X-137299D01*
Y-173775D01*
X-137295D01*
Y-173777D01*
D02*
G37*
G36*
X-137301D02*
X-137305D01*
Y-173775D01*
X-137301D01*
Y-173777D01*
D02*
G37*
G36*
X-137308D02*
X-137311D01*
Y-173775D01*
X-137308D01*
Y-173777D01*
D02*
G37*
G36*
X-137098Y-173782D02*
X-137101D01*
Y-173780D01*
X-137098D01*
Y-173782D01*
D02*
G37*
G36*
X-137103D02*
X-137107D01*
Y-173780D01*
X-137103D01*
Y-173782D01*
D02*
G37*
G36*
X-137110D02*
X-137113D01*
Y-173780D01*
X-137110D01*
Y-173782D01*
D02*
G37*
G36*
X-137116D02*
X-137119D01*
Y-173780D01*
X-137116D01*
Y-173782D01*
D02*
G37*
G36*
X-137122D02*
X-137125D01*
Y-173780D01*
X-137122D01*
Y-173782D01*
D02*
G37*
G36*
X-137128D02*
X-137131D01*
Y-173780D01*
X-137128D01*
Y-173782D01*
D02*
G37*
G36*
X-137134D02*
X-137137D01*
Y-173780D01*
X-137134D01*
Y-173782D01*
D02*
G37*
G36*
X-137140D02*
X-137144D01*
Y-173780D01*
X-137140D01*
Y-173782D01*
D02*
G37*
G36*
X-137154D02*
X-137157D01*
Y-173780D01*
X-137154D01*
Y-173782D01*
D02*
G37*
G36*
X-137160D02*
X-137164D01*
Y-173780D01*
X-137160D01*
Y-173782D01*
D02*
G37*
G36*
X-137166D02*
X-137170D01*
Y-173780D01*
X-137166D01*
Y-173782D01*
D02*
G37*
G36*
X-137172D02*
X-137176D01*
Y-173780D01*
X-137172D01*
Y-173782D01*
D02*
G37*
G36*
X-137178D02*
X-137182D01*
Y-173780D01*
X-137178D01*
Y-173782D01*
D02*
G37*
G36*
X-137184D02*
X-137188D01*
Y-173780D01*
X-137184D01*
Y-173782D01*
D02*
G37*
G36*
X-137190D02*
X-137194D01*
Y-173780D01*
X-137190D01*
Y-173782D01*
D02*
G37*
G36*
X-137197D02*
X-137200D01*
Y-173780D01*
X-137197D01*
Y-173782D01*
D02*
G37*
G36*
X-137210D02*
X-137214D01*
Y-173780D01*
X-137210D01*
Y-173782D01*
D02*
G37*
G36*
X-137216D02*
X-137220D01*
Y-173780D01*
X-137216D01*
Y-173782D01*
D02*
G37*
G36*
X-137222D02*
X-137225D01*
Y-173780D01*
X-137222D01*
Y-173782D01*
D02*
G37*
G36*
X-137228D02*
X-137232D01*
Y-173780D01*
X-137228D01*
Y-173782D01*
D02*
G37*
G36*
X-137234D02*
X-137238D01*
Y-173780D01*
X-137234D01*
Y-173782D01*
D02*
G37*
G36*
X-137240D02*
X-137243D01*
Y-173780D01*
X-137240D01*
Y-173782D01*
D02*
G37*
G36*
X-137246D02*
X-137250D01*
Y-173780D01*
X-137246D01*
Y-173782D01*
D02*
G37*
G36*
X-137252D02*
X-137256D01*
Y-173780D01*
X-137252D01*
Y-173782D01*
D02*
G37*
G36*
X-137265Y-173783D02*
X-137268D01*
Y-173781D01*
X-137265D01*
Y-173783D01*
D02*
G37*
G36*
X-137271D02*
X-137274D01*
Y-173781D01*
X-137271D01*
Y-173783D01*
D02*
G37*
G36*
X-137277D02*
X-137280D01*
Y-173781D01*
X-137277D01*
Y-173783D01*
D02*
G37*
G36*
X-137283D02*
X-137286D01*
Y-173781D01*
X-137283D01*
Y-173783D01*
D02*
G37*
G36*
X-137289D02*
X-137293D01*
Y-173781D01*
X-137289D01*
Y-173783D01*
D02*
G37*
G36*
X-137295D02*
X-137299D01*
Y-173781D01*
X-137295D01*
Y-173783D01*
D02*
G37*
G36*
X-137301D02*
X-137305D01*
Y-173781D01*
X-137301D01*
Y-173783D01*
D02*
G37*
G36*
X-137308D02*
X-137311D01*
Y-173781D01*
X-137308D01*
Y-173783D01*
D02*
G37*
D114*
X-137117Y-173522D02*
G03*
X-137117Y-173522I0J-0D01*
G01*
D02*
G03*
X-137117Y-173522I0J0D01*
G01*
X-137124D02*
G03*
X-137124Y-173522I0J-0D01*
G01*
D02*
G03*
X-137124Y-173522I0J0D01*
G01*
Y-173506D02*
G03*
X-137124Y-173507I0J-0D01*
G01*
D02*
G03*
X-137124Y-173506I0J0D01*
G01*
X-137117D02*
G03*
X-137117Y-173507I0J-0D01*
G01*
D02*
G03*
X-137117Y-173506I0J0D01*
G01*
Y-173522D02*
G03*
X-137117Y-173522I0J-0D01*
G01*
D02*
G03*
X-137117Y-173522I0J0D01*
G01*
X-137124D02*
G03*
X-137124Y-173522I0J-0D01*
G01*
D02*
G03*
X-137124Y-173522I0J0D01*
G01*
X-137117Y-173506D02*
G03*
X-137117Y-173507I0J-0D01*
G01*
D02*
G03*
X-137117Y-173506I0J0D01*
G01*
X-137124D02*
G03*
X-137124Y-173507I0J-0D01*
G01*
D02*
G03*
X-137124Y-173506I0J0D01*
G01*
X-137092Y-173523D02*
G03*
X-137092Y-173523I0J-0D01*
G01*
D02*
G03*
X-137092Y-173523I0J0D01*
G01*
X-137100D02*
G03*
X-137100Y-173523I0J-0D01*
G01*
D02*
G03*
X-137100Y-173523I0J0D01*
G01*
Y-173507D02*
G03*
X-137100Y-173507I0J-0D01*
G01*
D02*
G03*
X-137100Y-173507I0J0D01*
G01*
X-137092D02*
G03*
X-137092Y-173507I0J-0D01*
G01*
D02*
G03*
X-137092Y-173507I0J0D01*
G01*
Y-173523D02*
G03*
X-137092Y-173523I0J-0D01*
G01*
D02*
G03*
X-137092Y-173523I0J0D01*
G01*
X-137100D02*
G03*
X-137100Y-173523I0J-0D01*
G01*
D02*
G03*
X-137100Y-173523I0J0D01*
G01*
X-137092Y-173507D02*
G03*
X-137092Y-173507I0J-0D01*
G01*
D02*
G03*
X-137092Y-173507I0J0D01*
G01*
X-137100D02*
G03*
X-137100Y-173507I0J-0D01*
G01*
D02*
G03*
X-137100Y-173507I0J0D01*
G01*
D115*
X-137117Y-173520D02*
D03*
X-137118Y-173520D02*
D03*
Y-173523D02*
D03*
X-137124D02*
D03*
Y-173520D02*
D03*
X-137124Y-173520D02*
D03*
X-137118Y-173509D02*
D03*
X-137117Y-173509D02*
D03*
X-137124D02*
D03*
X-137124Y-173509D02*
D03*
Y-173506D02*
D03*
X-137118D02*
D03*
Y-173520D02*
D03*
X-137124D02*
D03*
X-137117Y-173520D02*
D03*
X-137118Y-173523D02*
D03*
X-137124D02*
D03*
X-137124Y-173520D02*
D03*
X-137117Y-173509D02*
D03*
X-137118Y-173509D02*
D03*
X-137124D02*
D03*
X-137124Y-173509D02*
D03*
X-137118Y-173506D02*
D03*
X-137124D02*
D03*
X-137092Y-173521D02*
D03*
X-137093Y-173520D02*
D03*
Y-173523D02*
D03*
X-137099D02*
D03*
Y-173520D02*
D03*
X-137100Y-173521D02*
D03*
X-137093Y-173510D02*
D03*
X-137092Y-173510D02*
D03*
X-137100D02*
D03*
X-137099Y-173510D02*
D03*
Y-173507D02*
D03*
X-137093D02*
D03*
Y-173520D02*
D03*
X-137099D02*
D03*
X-137092Y-173521D02*
D03*
X-137093Y-173523D02*
D03*
X-137099D02*
D03*
X-137100Y-173521D02*
D03*
X-137092Y-173510D02*
D03*
X-137093Y-173510D02*
D03*
X-137099D02*
D03*
X-137100Y-173510D02*
D03*
X-137093Y-173507D02*
D03*
X-137099D02*
D03*
D117*
X-137117Y-173520D02*
G03*
X-137118Y-173520I-0J0D01*
G01*
Y-173523D02*
G03*
X-137117Y-173522I-0J0D01*
G01*
X-137124D02*
G03*
X-137124Y-173523I0J-0D01*
G01*
X-137118Y-173509D02*
G03*
X-137117Y-173509I0J0D01*
G01*
X-137124Y-173506D02*
G03*
X-137124Y-173507I0J-0D01*
G01*
X-137117D02*
G03*
X-137118Y-173506I-0J0D01*
G01*
X-137092Y-173521D02*
G03*
X-137093Y-173520I-0J0D01*
G01*
Y-173523D02*
G03*
X-137092Y-173523I-0J0D01*
G01*
X-137100D02*
G03*
X-137099Y-173523I0J-0D01*
G01*
Y-173520D02*
G03*
X-137100Y-173521I0J-0D01*
G01*
X-137093Y-173510D02*
G03*
X-137092Y-173510I0J0D01*
G01*
X-137100D02*
G03*
X-137099Y-173510I0J0D01*
G01*
Y-173507D02*
G03*
X-137100Y-173507I0J-0D01*
G01*
X-137092D02*
G03*
X-137093Y-173507I-0J0D01*
G01*
X-137124Y-173520D02*
X-137118D01*
X-137117Y-173522D02*
Y-173520D01*
X-137124Y-173523D02*
X-137118D01*
X-137124Y-173522D02*
Y-173520D01*
X-137117Y-173509D02*
Y-173507D01*
X-137124Y-173509D02*
X-137118D01*
X-137124Y-173509D02*
Y-173507D01*
X-137124Y-173506D02*
X-137118D01*
X-137099Y-173520D02*
X-137093D01*
X-137092Y-173523D02*
Y-173521D01*
X-137099Y-173523D02*
X-137093D01*
X-137100Y-173523D02*
Y-173521D01*
X-137092Y-173510D02*
Y-173507D01*
X-137099Y-173510D02*
X-137093D01*
X-137100Y-173510D02*
Y-173507D01*
X-137099Y-173507D02*
X-137093D01*
D127*
X-137124Y-173520D02*
D03*
X-137124Y-173509D02*
D03*
%TF.MD5,de6f9ab86598b3fd56a7edbff102dd6f*%
M02*
