%TF.GenerationSoftware,Altium Limited,Altium Designer,22.10.1 (41)*%
G04 Layer_Color=8388736*
%FSLAX25Y25*%
%MOIN*%
%TF.SameCoordinates,BEAA4B2D-68BC-4382-99D5-5DCEA874A810*%
%TF.FilePolarity,Positive*%
%TF.FileFunction,Other,Bottom_Tenting*%
%TF.Part,Single*%
G01*
G75*
%TA.AperFunction,NonConductor*%
%ADD114C,0.00000*%
%TA.AperFunction,SMDPad,CuDef*%
%ADD115C,0.00000*%
%TA.AperFunction,NonConductor*%
%ADD117C,0.00000*%
%ADD129C,0.00001*%
%ADD130C,0.00000*%
%TA.AperFunction,SMDPad,CuDef*%
%ADD133C,0.00000*%
%ADD134C,0.00000*%
%TA.AperFunction,NonConductor*%
%ADD139C,0.00001*%
%TA.AperFunction,SMDPad,CuDef*%
%ADD140C,0.02362*%
%ADD144C,0.00001*%
%ADD145C,0.00024*%
%ADD150C,0.00004*%
%ADD151C,0.00004*%
G36*
X-137304Y-173574D02*
X-137316D01*
Y-173571D01*
X-137304D01*
Y-173574D01*
D02*
G37*
G36*
X-137095Y-173540D02*
X-137097D01*
Y-173528D01*
X-137095D01*
Y-173540D01*
D02*
G37*
D114*
X-137075Y-173561D02*
G03*
X-137075Y-173561I0J0D01*
G01*
D02*
G03*
X-137075Y-173561I0J-0D01*
G01*
X-137080D02*
G03*
X-137080Y-173561I0J0D01*
G01*
D02*
G03*
X-137080Y-173561I0J-0D01*
G01*
X-137075Y-173569D02*
G03*
X-137075Y-173569I0J0D01*
G01*
D02*
G03*
X-137075Y-173569I0J-0D01*
G01*
X-137080D02*
G03*
X-137080Y-173569I0J0D01*
G01*
D02*
G03*
X-137080Y-173569I0J-0D01*
G01*
X-137075Y-173561D02*
G03*
X-137075Y-173561I0J0D01*
G01*
D02*
G03*
X-137075Y-173561I0J-0D01*
G01*
Y-173569D02*
G03*
X-137075Y-173569I0J0D01*
G01*
D02*
G03*
X-137075Y-173569I0J-0D01*
G01*
X-137080Y-173561D02*
G03*
X-137080Y-173561I0J0D01*
G01*
D02*
G03*
X-137080Y-173561I0J-0D01*
G01*
Y-173569D02*
G03*
X-137080Y-173569I0J0D01*
G01*
D02*
G03*
X-137080Y-173569I0J-0D01*
G01*
X-137304Y-173571D02*
G03*
X-137304Y-173571I0J-0D01*
G01*
D02*
G03*
X-137304Y-173571I0J0D01*
G01*
Y-173589D02*
G03*
X-137304Y-173590I0J-0D01*
G01*
D02*
G03*
X-137304Y-173589I0J0D01*
G01*
X-137316Y-173571D02*
G03*
X-137316Y-173571I0J-0D01*
G01*
D02*
G03*
X-137316Y-173571I0J0D01*
G01*
Y-173589D02*
G03*
X-137316Y-173590I0J-0D01*
G01*
D02*
G03*
X-137316Y-173589I0J0D01*
G01*
X-137304Y-173571D02*
G03*
X-137304Y-173571I0J-0D01*
G01*
D02*
G03*
X-137304Y-173571I0J0D01*
G01*
X-137316D02*
G03*
X-137316Y-173571I0J-0D01*
G01*
D02*
G03*
X-137316Y-173571I0J0D01*
G01*
X-137304Y-173589D02*
G03*
X-137304Y-173590I0J-0D01*
G01*
D02*
G03*
X-137304Y-173589I0J0D01*
G01*
X-137316D02*
G03*
X-137316Y-173590I0J-0D01*
G01*
D02*
G03*
X-137316Y-173589I0J0D01*
G01*
X-137079Y-173540D02*
G03*
X-137079Y-173540I0J0D01*
G01*
D02*
G03*
X-137079Y-173540I-0J0D01*
G01*
X-137097D02*
G03*
X-137097Y-173540I0J0D01*
G01*
D02*
G03*
X-137097Y-173540I-0J0D01*
G01*
X-137079Y-173528D02*
G03*
X-137079Y-173528I0J0D01*
G01*
D02*
G03*
X-137079Y-173528I-0J0D01*
G01*
X-137097D02*
G03*
X-137097Y-173528I0J0D01*
G01*
D02*
G03*
X-137097Y-173528I-0J0D01*
G01*
D02*
G03*
X-137097Y-173528I0J0D01*
G01*
D02*
G03*
X-137097Y-173528I-0J0D01*
G01*
Y-173540D02*
G03*
X-137097Y-173540I0J0D01*
G01*
D02*
G03*
X-137097Y-173540I-0J0D01*
G01*
X-137079Y-173528D02*
G03*
X-137079Y-173528I0J0D01*
G01*
D02*
G03*
X-137079Y-173528I-0J0D01*
G01*
Y-173540D02*
G03*
X-137079Y-173540I0J0D01*
G01*
D02*
G03*
X-137079Y-173540I-0J0D01*
G01*
X-137067Y-173579D02*
G03*
X-137067Y-173579I0J-0D01*
G01*
D02*
G03*
X-137067Y-173579I0J0D01*
G01*
Y-173587D02*
G03*
X-137067Y-173587I0J-0D01*
G01*
D02*
G03*
X-137067Y-173587I0J0D01*
G01*
X-137072Y-173579D02*
G03*
X-137072Y-173579I0J-0D01*
G01*
D02*
G03*
X-137072Y-173579I0J0D01*
G01*
Y-173587D02*
G03*
X-137072Y-173587I0J-0D01*
G01*
D02*
G03*
X-137072Y-173587I0J0D01*
G01*
X-137067Y-173579D02*
G03*
X-137067Y-173579I0J-0D01*
G01*
D02*
G03*
X-137067Y-173579I0J0D01*
G01*
X-137072D02*
G03*
X-137072Y-173579I0J-0D01*
G01*
D02*
G03*
X-137072Y-173579I0J0D01*
G01*
X-137067Y-173587D02*
G03*
X-137067Y-173587I0J-0D01*
G01*
D02*
G03*
X-137067Y-173587I0J0D01*
G01*
X-137072D02*
G03*
X-137072Y-173587I0J-0D01*
G01*
D02*
G03*
X-137072Y-173587I0J0D01*
G01*
X-137075Y-173579D02*
G03*
X-137075Y-173579I0J-0D01*
G01*
D02*
G03*
X-137075Y-173579I0J0D01*
G01*
Y-173587D02*
G03*
X-137075Y-173587I0J-0D01*
G01*
D02*
G03*
X-137075Y-173587I0J0D01*
G01*
X-137080Y-173579D02*
G03*
X-137080Y-173579I0J-0D01*
G01*
D02*
G03*
X-137080Y-173579I0J0D01*
G01*
Y-173587D02*
G03*
X-137080Y-173587I0J-0D01*
G01*
D02*
G03*
X-137080Y-173587I0J0D01*
G01*
X-137075Y-173579D02*
G03*
X-137075Y-173579I0J-0D01*
G01*
D02*
G03*
X-137075Y-173579I0J0D01*
G01*
X-137080D02*
G03*
X-137080Y-173579I0J-0D01*
G01*
D02*
G03*
X-137080Y-173579I0J0D01*
G01*
X-137075Y-173587D02*
G03*
X-137075Y-173587I0J-0D01*
G01*
D02*
G03*
X-137075Y-173587I0J0D01*
G01*
X-137080D02*
G03*
X-137080Y-173587I0J-0D01*
G01*
D02*
G03*
X-137080Y-173587I0J0D01*
G01*
X-137314Y-173526D02*
G03*
X-137314Y-173527I0J-0D01*
G01*
D02*
G03*
X-137314Y-173526I0J0D01*
G01*
X-137334D02*
G03*
X-137334Y-173527I0J-0D01*
G01*
D02*
G03*
X-137334Y-173526I0J0D01*
G01*
X-137314Y-173511D02*
G03*
X-137314Y-173511I0J-0D01*
G01*
D02*
G03*
X-137314Y-173511I0J0D01*
G01*
X-137334D02*
G03*
X-137334Y-173511I0J-0D01*
G01*
D02*
G03*
X-137334Y-173511I0J0D01*
G01*
D02*
G03*
X-137334Y-173511I0J-0D01*
G01*
D02*
G03*
X-137334Y-173511I0J0D01*
G01*
Y-173526D02*
G03*
X-137334Y-173527I0J-0D01*
G01*
D02*
G03*
X-137334Y-173526I0J0D01*
G01*
X-137314Y-173511D02*
G03*
X-137314Y-173511I0J-0D01*
G01*
D02*
G03*
X-137314Y-173511I0J0D01*
G01*
Y-173526D02*
G03*
X-137314Y-173527I0J-0D01*
G01*
D02*
G03*
X-137314Y-173526I0J0D01*
G01*
X-137119Y-173627D02*
G03*
X-137118Y-173627I0J0D01*
G01*
D02*
G03*
X-137119Y-173627I-0J0D01*
G01*
Y-173637D02*
G03*
X-137118Y-173637I0J0D01*
G01*
D02*
G03*
X-137119Y-173637I-0J0D01*
G01*
Y-173627D02*
G03*
X-137118Y-173627I0J0D01*
G01*
D02*
G03*
X-137119Y-173627I-0J0D01*
G01*
X-137201D02*
G03*
X-137200Y-173627I0J0D01*
G01*
D02*
G03*
X-137201Y-173627I-0J0D01*
G01*
D02*
G03*
X-137200Y-173627I0J0D01*
G01*
D02*
G03*
X-137201Y-173627I-0J0D01*
G01*
Y-173637D02*
G03*
X-137200Y-173637I0J0D01*
G01*
D02*
G03*
X-137201Y-173637I-0J0D01*
G01*
X-137119D02*
G03*
X-137118Y-173637I0J0D01*
G01*
D02*
G03*
X-137119Y-173637I-0J0D01*
G01*
X-137201D02*
G03*
X-137200Y-173637I0J0D01*
G01*
D02*
G03*
X-137201Y-173637I-0J0D01*
G01*
X-137067Y-173561D02*
G03*
X-137067Y-173561I0J0D01*
G01*
D02*
G03*
X-137067Y-173561I0J-0D01*
G01*
X-137072D02*
G03*
X-137072Y-173561I0J0D01*
G01*
D02*
G03*
X-137072Y-173561I0J-0D01*
G01*
X-137067Y-173569D02*
G03*
X-137067Y-173569I0J0D01*
G01*
D02*
G03*
X-137067Y-173569I0J-0D01*
G01*
X-137072D02*
G03*
X-137072Y-173569I0J0D01*
G01*
D02*
G03*
X-137072Y-173569I0J-0D01*
G01*
X-137067Y-173561D02*
G03*
X-137067Y-173561I0J0D01*
G01*
D02*
G03*
X-137067Y-173561I0J-0D01*
G01*
Y-173569D02*
G03*
X-137067Y-173569I0J0D01*
G01*
D02*
G03*
X-137067Y-173569I0J-0D01*
G01*
X-137072Y-173561D02*
G03*
X-137072Y-173561I0J0D01*
G01*
D02*
G03*
X-137072Y-173561I0J-0D01*
G01*
Y-173569D02*
G03*
X-137072Y-173569I0J0D01*
G01*
D02*
G03*
X-137072Y-173569I0J-0D01*
G01*
D115*
X-137086Y-173498D02*
D03*
X-137087D02*
D03*
X-137086Y-173493D02*
D03*
Y-173498D02*
D03*
X-137056Y-173493D02*
D03*
X-137086D02*
D03*
X-137056D02*
D03*
Y-173498D02*
D03*
X-137055D02*
D03*
X-137056D02*
D03*
X-137055Y-173519D02*
D03*
X-137087D02*
D03*
X-137055Y-173498D02*
D03*
Y-173519D02*
D03*
X-137087Y-173498D02*
D03*
Y-173519D02*
D03*
X-137238Y-173560D02*
D03*
Y-173563D02*
D03*
X-137231Y-173560D02*
D03*
Y-173563D02*
D03*
Y-173560D02*
D03*
X-137238D02*
D03*
X-137231Y-173563D02*
D03*
X-137238D02*
D03*
X-137231Y-173538D02*
D03*
Y-173541D02*
D03*
X-137238Y-173538D02*
D03*
Y-173541D02*
D03*
X-137231D02*
D03*
X-137238D02*
D03*
X-137231Y-173538D02*
D03*
X-137238D02*
D03*
X-137318Y-173601D02*
D03*
X-137321D02*
D03*
X-137318Y-173607D02*
D03*
X-137321D02*
D03*
X-137318Y-173601D02*
D03*
Y-173607D02*
D03*
X-137321Y-173601D02*
D03*
Y-173607D02*
D03*
X-137231Y-173526D02*
D03*
X-137238D02*
D03*
X-137231Y-173529D02*
D03*
X-137238D02*
D03*
Y-173526D02*
D03*
Y-173529D02*
D03*
X-137231Y-173526D02*
D03*
Y-173529D02*
D03*
Y-173532D02*
D03*
Y-173535D02*
D03*
X-137238Y-173532D02*
D03*
Y-173535D02*
D03*
X-137231D02*
D03*
X-137238D02*
D03*
X-137231Y-173532D02*
D03*
X-137238D02*
D03*
X-137225Y-173583D02*
D03*
X-137228D02*
D03*
X-137225Y-173577D02*
D03*
X-137228D02*
D03*
D03*
Y-173583D02*
D03*
X-137225Y-173577D02*
D03*
Y-173583D02*
D03*
X-137231Y-173577D02*
D03*
Y-173583D02*
D03*
X-137234Y-173577D02*
D03*
Y-173583D02*
D03*
X-137231Y-173577D02*
D03*
X-137234D02*
D03*
X-137231Y-173583D02*
D03*
X-137234D02*
D03*
X-137297Y-173561D02*
D03*
X-137301D02*
D03*
X-137297Y-173555D02*
D03*
X-137301D02*
D03*
D03*
Y-173561D02*
D03*
X-137297Y-173555D02*
D03*
Y-173561D02*
D03*
X-137286D02*
D03*
X-137289D02*
D03*
X-137286Y-173555D02*
D03*
X-137289D02*
D03*
D03*
Y-173561D02*
D03*
X-137286Y-173555D02*
D03*
Y-173561D02*
D03*
X-137292D02*
D03*
X-137295D02*
D03*
X-137292Y-173555D02*
D03*
X-137295D02*
D03*
D03*
Y-173561D02*
D03*
X-137292Y-173555D02*
D03*
Y-173561D02*
D03*
X-137282Y-173518D02*
D03*
Y-173521D02*
D03*
X-137288Y-173518D02*
D03*
Y-173521D02*
D03*
X-137282D02*
D03*
X-137288D02*
D03*
X-137282Y-173518D02*
D03*
X-137288D02*
D03*
X-137282Y-173512D02*
D03*
Y-173515D02*
D03*
X-137288Y-173512D02*
D03*
Y-173515D02*
D03*
X-137282D02*
D03*
X-137288D02*
D03*
X-137282Y-173512D02*
D03*
X-137288D02*
D03*
X-137129Y-173508D02*
D03*
X-137133D02*
D03*
X-137129Y-173514D02*
D03*
X-137133D02*
D03*
X-137129Y-173508D02*
D03*
Y-173514D02*
D03*
X-137133Y-173508D02*
D03*
Y-173514D02*
D03*
X-137107Y-173508D02*
D03*
Y-173514D02*
D03*
X-137104Y-173508D02*
D03*
Y-173514D02*
D03*
D03*
X-137107D02*
D03*
X-137104Y-173508D02*
D03*
X-137107D02*
D03*
X-137129Y-173520D02*
D03*
Y-173526D02*
D03*
X-137133Y-173520D02*
D03*
Y-173526D02*
D03*
X-137129Y-173520D02*
D03*
X-137133D02*
D03*
X-137129Y-173526D02*
D03*
X-137133D02*
D03*
X-137135Y-173520D02*
D03*
Y-173526D02*
D03*
X-137138Y-173520D02*
D03*
Y-173526D02*
D03*
X-137135Y-173520D02*
D03*
X-137138D02*
D03*
X-137135Y-173526D02*
D03*
X-137138D02*
D03*
X-137128Y-173550D02*
D03*
X-137132D02*
D03*
X-137128Y-173544D02*
D03*
X-137132D02*
D03*
D03*
Y-173550D02*
D03*
X-137128Y-173544D02*
D03*
Y-173550D02*
D03*
X-137098Y-173711D02*
D03*
Y-173717D02*
D03*
X-137094Y-173711D02*
D03*
Y-173717D02*
D03*
D03*
X-137098D02*
D03*
X-137094Y-173711D02*
D03*
X-137098D02*
D03*
X-137155Y-173711D02*
D03*
Y-173717D02*
D03*
X-137152Y-173711D02*
D03*
Y-173717D02*
D03*
D03*
X-137155D02*
D03*
X-137152Y-173711D02*
D03*
X-137155D02*
D03*
X-137210D02*
D03*
Y-173717D02*
D03*
X-137207Y-173711D02*
D03*
Y-173717D02*
D03*
D03*
X-137210D02*
D03*
X-137207Y-173711D02*
D03*
X-137210D02*
D03*
X-137265Y-173712D02*
D03*
Y-173718D02*
D03*
X-137262Y-173712D02*
D03*
Y-173718D02*
D03*
D03*
X-137265D02*
D03*
X-137262Y-173712D02*
D03*
X-137265D02*
D03*
X-137201Y-173747D02*
D03*
X-137204D02*
D03*
X-137201Y-173741D02*
D03*
X-137204D02*
D03*
D03*
Y-173747D02*
D03*
X-137201Y-173741D02*
D03*
Y-173747D02*
D03*
X-137144D02*
D03*
X-137147D02*
D03*
X-137144Y-173741D02*
D03*
X-137147D02*
D03*
D03*
Y-173747D02*
D03*
X-137144Y-173741D02*
D03*
Y-173747D02*
D03*
X-137256Y-173748D02*
D03*
X-137259D02*
D03*
X-137256Y-173741D02*
D03*
X-137259D02*
D03*
D03*
Y-173748D02*
D03*
X-137256Y-173741D02*
D03*
Y-173748D02*
D03*
X-137311Y-173748D02*
D03*
X-137315D02*
D03*
X-137311Y-173742D02*
D03*
X-137315D02*
D03*
D03*
Y-173748D02*
D03*
X-137311Y-173742D02*
D03*
Y-173748D02*
D03*
X-137337Y-173526D02*
D03*
X-137340D02*
D03*
X-137337Y-173520D02*
D03*
X-137340D02*
D03*
D03*
Y-173526D02*
D03*
X-137337Y-173520D02*
D03*
Y-173526D02*
D03*
X-137336Y-173508D02*
D03*
X-137339D02*
D03*
X-137336Y-173514D02*
D03*
X-137339D02*
D03*
X-137336Y-173508D02*
D03*
Y-173514D02*
D03*
X-137339Y-173508D02*
D03*
Y-173514D02*
D03*
X-137323Y-173548D02*
D03*
X-137327D02*
D03*
X-137323Y-173541D02*
D03*
X-137327D02*
D03*
D03*
Y-173548D02*
D03*
X-137323Y-173541D02*
D03*
Y-173548D02*
D03*
Y-173553D02*
D03*
Y-173559D02*
D03*
X-137327Y-173553D02*
D03*
Y-173559D02*
D03*
X-137323D02*
D03*
X-137327D02*
D03*
X-137323Y-173553D02*
D03*
X-137327D02*
D03*
X-137115Y-173554D02*
D03*
Y-173557D02*
D03*
X-137121Y-173554D02*
D03*
Y-173557D02*
D03*
X-137115Y-173554D02*
D03*
X-137121D02*
D03*
X-137115Y-173557D02*
D03*
X-137121D02*
D03*
X-137145Y-173576D02*
D03*
X-137148D02*
D03*
X-137145Y-173582D02*
D03*
X-137148D02*
D03*
Y-173576D02*
D03*
Y-173582D02*
D03*
X-137145Y-173576D02*
D03*
Y-173582D02*
D03*
X-137144Y-173624D02*
D03*
X-137147D02*
D03*
X-137144Y-173618D02*
D03*
X-137147D02*
D03*
X-137144D02*
D03*
Y-173624D02*
D03*
X-137147Y-173618D02*
D03*
Y-173624D02*
D03*
X-137330Y-173525D02*
D03*
Y-173521D02*
D03*
X-137148Y-173600D02*
D03*
X-137200D02*
D03*
X-137148D02*
D03*
Y-173610D02*
D03*
D03*
X-137200D02*
D03*
Y-173600D02*
D03*
Y-173610D02*
D03*
X-137250Y-173583D02*
D03*
X-137253D02*
D03*
X-137250Y-173576D02*
D03*
X-137253D02*
D03*
D03*
Y-173583D02*
D03*
X-137250Y-173576D02*
D03*
Y-173583D02*
D03*
X-137324Y-173601D02*
D03*
Y-173607D02*
D03*
X-137328Y-173601D02*
D03*
Y-173607D02*
D03*
X-137324Y-173601D02*
D03*
X-137328D02*
D03*
X-137324Y-173607D02*
D03*
X-137328D02*
D03*
X-137075Y-173547D02*
D03*
X-137079D02*
D03*
X-137075Y-173554D02*
D03*
X-137079D02*
D03*
X-137075Y-173547D02*
D03*
Y-173554D02*
D03*
X-137079Y-173547D02*
D03*
Y-173554D02*
D03*
X-137068Y-173547D02*
D03*
X-137072D02*
D03*
X-137068Y-173554D02*
D03*
X-137072D02*
D03*
X-137068Y-173547D02*
D03*
Y-173554D02*
D03*
X-137072Y-173547D02*
D03*
Y-173554D02*
D03*
X-137231Y-173511D02*
D03*
Y-173514D02*
D03*
X-137237Y-173511D02*
D03*
Y-173514D02*
D03*
X-137231D02*
D03*
X-137237D02*
D03*
X-137231Y-173511D02*
D03*
X-137237D02*
D03*
X-137237Y-173519D02*
D03*
Y-173522D02*
D03*
X-137231Y-173519D02*
D03*
Y-173522D02*
D03*
Y-173519D02*
D03*
X-137237D02*
D03*
X-137231Y-173522D02*
D03*
X-137237D02*
D03*
X-137136Y-173514D02*
D03*
X-137139D02*
D03*
X-137136Y-173507D02*
D03*
X-137139D02*
D03*
D03*
Y-173514D02*
D03*
X-137136Y-173507D02*
D03*
Y-173514D02*
D03*
X-137110Y-173507D02*
D03*
Y-173514D02*
D03*
X-137113Y-173507D02*
D03*
Y-173514D02*
D03*
X-137110Y-173507D02*
D03*
X-137113D02*
D03*
X-137110Y-173514D02*
D03*
X-137113D02*
D03*
X-137105Y-173531D02*
D03*
Y-173535D02*
D03*
X-137111Y-173531D02*
D03*
Y-173535D02*
D03*
X-137105D02*
D03*
X-137111D02*
D03*
X-137105Y-173531D02*
D03*
X-137111D02*
D03*
X-137105Y-173528D02*
D03*
X-137111D02*
D03*
X-137105Y-173524D02*
D03*
X-137111D02*
D03*
X-137105D02*
D03*
Y-173528D02*
D03*
X-137111Y-173524D02*
D03*
Y-173528D02*
D03*
X-137289Y-173576D02*
D03*
Y-173583D02*
D03*
X-137292Y-173576D02*
D03*
Y-173583D02*
D03*
X-137289Y-173576D02*
D03*
X-137292D02*
D03*
X-137289Y-173583D02*
D03*
X-137292D02*
D03*
X-137144Y-173775D02*
D03*
Y-173782D02*
D03*
X-137140Y-173775D02*
D03*
Y-173782D02*
D03*
D03*
X-137144D02*
D03*
X-137140Y-173775D02*
D03*
X-137144D02*
D03*
X-137097Y-173677D02*
D03*
Y-173684D02*
D03*
X-137100Y-173677D02*
D03*
Y-173684D02*
D03*
X-137097Y-173677D02*
D03*
X-137100D02*
D03*
X-137097Y-173684D02*
D03*
X-137100D02*
D03*
X-137137Y-173775D02*
D03*
Y-173782D02*
D03*
X-137134Y-173775D02*
D03*
Y-173782D02*
D03*
D03*
X-137137D02*
D03*
X-137134Y-173775D02*
D03*
X-137137D02*
D03*
X-137103Y-173677D02*
D03*
Y-173684D02*
D03*
X-137106Y-173677D02*
D03*
Y-173684D02*
D03*
X-137103Y-173677D02*
D03*
X-137106D02*
D03*
X-137103Y-173684D02*
D03*
X-137106D02*
D03*
X-137131Y-173775D02*
D03*
Y-173782D02*
D03*
X-137128Y-173775D02*
D03*
Y-173782D02*
D03*
D03*
X-137131D02*
D03*
X-137128Y-173775D02*
D03*
X-137131D02*
D03*
X-137109Y-173677D02*
D03*
Y-173684D02*
D03*
X-137113Y-173677D02*
D03*
Y-173684D02*
D03*
X-137109Y-173677D02*
D03*
X-137113D02*
D03*
X-137109Y-173684D02*
D03*
X-137113D02*
D03*
X-137125Y-173775D02*
D03*
Y-173782D02*
D03*
X-137122Y-173775D02*
D03*
Y-173782D02*
D03*
D03*
X-137125D02*
D03*
X-137122Y-173775D02*
D03*
X-137125D02*
D03*
X-137115Y-173677D02*
D03*
Y-173684D02*
D03*
X-137119Y-173677D02*
D03*
Y-173684D02*
D03*
X-137115Y-173677D02*
D03*
X-137119D02*
D03*
X-137115Y-173684D02*
D03*
X-137119D02*
D03*
X-137119Y-173775D02*
D03*
Y-173782D02*
D03*
X-137116Y-173775D02*
D03*
Y-173782D02*
D03*
D03*
X-137119D02*
D03*
X-137116Y-173775D02*
D03*
X-137119D02*
D03*
X-137121Y-173677D02*
D03*
Y-173684D02*
D03*
X-137125Y-173677D02*
D03*
Y-173684D02*
D03*
X-137121Y-173677D02*
D03*
X-137125D02*
D03*
X-137121Y-173684D02*
D03*
X-137125D02*
D03*
X-137113Y-173775D02*
D03*
Y-173782D02*
D03*
X-137110Y-173775D02*
D03*
Y-173782D02*
D03*
D03*
X-137113D02*
D03*
X-137110Y-173775D02*
D03*
X-137113D02*
D03*
X-137127Y-173677D02*
D03*
Y-173684D02*
D03*
X-137131Y-173677D02*
D03*
Y-173684D02*
D03*
X-137127Y-173677D02*
D03*
X-137131D02*
D03*
X-137127Y-173684D02*
D03*
X-137131D02*
D03*
X-137107Y-173775D02*
D03*
Y-173782D02*
D03*
X-137103Y-173775D02*
D03*
Y-173782D02*
D03*
D03*
X-137107D02*
D03*
X-137103Y-173775D02*
D03*
X-137107D02*
D03*
X-137134Y-173677D02*
D03*
Y-173684D02*
D03*
X-137137Y-173677D02*
D03*
Y-173684D02*
D03*
X-137134Y-173677D02*
D03*
X-137137D02*
D03*
X-137134Y-173684D02*
D03*
X-137137D02*
D03*
X-137101Y-173775D02*
D03*
Y-173782D02*
D03*
X-137098Y-173775D02*
D03*
Y-173782D02*
D03*
D03*
X-137101D02*
D03*
X-137098Y-173775D02*
D03*
X-137101D02*
D03*
X-137140Y-173677D02*
D03*
Y-173684D02*
D03*
X-137143Y-173677D02*
D03*
Y-173684D02*
D03*
X-137140Y-173677D02*
D03*
X-137143D02*
D03*
X-137140Y-173684D02*
D03*
X-137143D02*
D03*
X-137282Y-173576D02*
D03*
Y-173583D02*
D03*
X-137286Y-173576D02*
D03*
Y-173583D02*
D03*
X-137282Y-173576D02*
D03*
X-137286D02*
D03*
X-137282Y-173583D02*
D03*
X-137286D02*
D03*
X-137200Y-173775D02*
D03*
Y-173782D02*
D03*
X-137197Y-173775D02*
D03*
Y-173782D02*
D03*
D03*
X-137200D02*
D03*
X-137197Y-173775D02*
D03*
X-137200D02*
D03*
X-137155Y-173677D02*
D03*
Y-173684D02*
D03*
X-137158Y-173677D02*
D03*
Y-173684D02*
D03*
X-137155Y-173677D02*
D03*
X-137158D02*
D03*
X-137155Y-173684D02*
D03*
X-137158D02*
D03*
X-137276Y-173576D02*
D03*
Y-173583D02*
D03*
X-137279Y-173576D02*
D03*
Y-173583D02*
D03*
X-137276Y-173576D02*
D03*
X-137279D02*
D03*
X-137276Y-173583D02*
D03*
X-137279D02*
D03*
X-137194Y-173775D02*
D03*
Y-173782D02*
D03*
X-137190Y-173775D02*
D03*
Y-173782D02*
D03*
D03*
X-137194D02*
D03*
X-137190Y-173775D02*
D03*
X-137194D02*
D03*
X-137161Y-173677D02*
D03*
Y-173684D02*
D03*
X-137164Y-173677D02*
D03*
Y-173684D02*
D03*
X-137161Y-173677D02*
D03*
X-137164D02*
D03*
X-137161Y-173684D02*
D03*
X-137164D02*
D03*
X-137188Y-173775D02*
D03*
Y-173782D02*
D03*
X-137184Y-173775D02*
D03*
Y-173782D02*
D03*
D03*
X-137188D02*
D03*
X-137184Y-173775D02*
D03*
X-137188D02*
D03*
X-137167Y-173677D02*
D03*
Y-173684D02*
D03*
X-137170Y-173677D02*
D03*
Y-173684D02*
D03*
X-137167Y-173677D02*
D03*
X-137170D02*
D03*
X-137167Y-173684D02*
D03*
X-137170D02*
D03*
X-137182Y-173775D02*
D03*
Y-173782D02*
D03*
X-137178Y-173775D02*
D03*
Y-173782D02*
D03*
D03*
X-137182D02*
D03*
X-137178Y-173775D02*
D03*
X-137182D02*
D03*
X-137173Y-173677D02*
D03*
Y-173684D02*
D03*
X-137176Y-173677D02*
D03*
Y-173684D02*
D03*
X-137173Y-173677D02*
D03*
X-137176D02*
D03*
X-137173Y-173684D02*
D03*
X-137176D02*
D03*
X-137176Y-173775D02*
D03*
Y-173782D02*
D03*
X-137172Y-173775D02*
D03*
Y-173782D02*
D03*
D03*
X-137176D02*
D03*
X-137172Y-173775D02*
D03*
X-137176D02*
D03*
X-137179Y-173677D02*
D03*
Y-173684D02*
D03*
X-137182Y-173677D02*
D03*
Y-173684D02*
D03*
X-137179Y-173677D02*
D03*
X-137182D02*
D03*
X-137179Y-173684D02*
D03*
X-137182D02*
D03*
X-137170Y-173775D02*
D03*
Y-173782D02*
D03*
X-137166Y-173775D02*
D03*
Y-173782D02*
D03*
D03*
X-137170D02*
D03*
X-137166Y-173775D02*
D03*
X-137170D02*
D03*
X-137184Y-173677D02*
D03*
Y-173684D02*
D03*
X-137188Y-173677D02*
D03*
Y-173684D02*
D03*
X-137184Y-173677D02*
D03*
X-137188D02*
D03*
X-137184Y-173684D02*
D03*
X-137188D02*
D03*
X-137164Y-173775D02*
D03*
Y-173782D02*
D03*
X-137160Y-173775D02*
D03*
Y-173782D02*
D03*
D03*
X-137164D02*
D03*
X-137160Y-173775D02*
D03*
X-137164D02*
D03*
X-137190Y-173677D02*
D03*
Y-173684D02*
D03*
X-137194Y-173677D02*
D03*
Y-173684D02*
D03*
X-137190Y-173677D02*
D03*
X-137194D02*
D03*
X-137190Y-173684D02*
D03*
X-137194D02*
D03*
X-137157Y-173775D02*
D03*
Y-173782D02*
D03*
X-137154Y-173775D02*
D03*
Y-173782D02*
D03*
D03*
X-137157D02*
D03*
X-137154Y-173775D02*
D03*
X-137157D02*
D03*
X-137196Y-173677D02*
D03*
Y-173684D02*
D03*
X-137200Y-173677D02*
D03*
Y-173684D02*
D03*
X-137196Y-173677D02*
D03*
X-137200D02*
D03*
X-137196Y-173684D02*
D03*
X-137200D02*
D03*
X-137269Y-173576D02*
D03*
Y-173583D02*
D03*
X-137273Y-173576D02*
D03*
Y-173583D02*
D03*
X-137269Y-173576D02*
D03*
X-137273D02*
D03*
X-137269Y-173583D02*
D03*
X-137273D02*
D03*
X-137256Y-173775D02*
D03*
Y-173782D02*
D03*
X-137252Y-173775D02*
D03*
Y-173782D02*
D03*
D03*
X-137256D02*
D03*
X-137252Y-173775D02*
D03*
X-137256D02*
D03*
X-137209Y-173677D02*
D03*
Y-173684D02*
D03*
X-137213Y-173677D02*
D03*
Y-173684D02*
D03*
X-137209Y-173677D02*
D03*
X-137213D02*
D03*
X-137209Y-173684D02*
D03*
X-137213D02*
D03*
X-137250Y-173775D02*
D03*
Y-173782D02*
D03*
X-137246Y-173775D02*
D03*
Y-173782D02*
D03*
D03*
X-137250D02*
D03*
X-137246Y-173775D02*
D03*
X-137250D02*
D03*
X-137215Y-173677D02*
D03*
Y-173684D02*
D03*
X-137219Y-173677D02*
D03*
Y-173684D02*
D03*
X-137215Y-173677D02*
D03*
X-137219D02*
D03*
X-137215Y-173684D02*
D03*
X-137219D02*
D03*
X-137263Y-173576D02*
D03*
Y-173583D02*
D03*
X-137266Y-173576D02*
D03*
Y-173583D02*
D03*
X-137263Y-173576D02*
D03*
X-137266D02*
D03*
X-137263Y-173583D02*
D03*
X-137266D02*
D03*
X-137243Y-173775D02*
D03*
Y-173782D02*
D03*
X-137240Y-173775D02*
D03*
Y-173782D02*
D03*
D03*
X-137243D02*
D03*
X-137240Y-173775D02*
D03*
X-137243D02*
D03*
X-137221Y-173677D02*
D03*
Y-173684D02*
D03*
X-137225Y-173677D02*
D03*
Y-173684D02*
D03*
X-137221Y-173677D02*
D03*
X-137225D02*
D03*
X-137221Y-173684D02*
D03*
X-137225D02*
D03*
X-137238Y-173775D02*
D03*
Y-173782D02*
D03*
X-137234Y-173775D02*
D03*
Y-173782D02*
D03*
D03*
X-137238D02*
D03*
X-137234Y-173775D02*
D03*
X-137238D02*
D03*
X-137227Y-173677D02*
D03*
Y-173684D02*
D03*
X-137231Y-173677D02*
D03*
Y-173684D02*
D03*
X-137227Y-173677D02*
D03*
X-137231D02*
D03*
X-137227Y-173684D02*
D03*
X-137231D02*
D03*
X-137232Y-173775D02*
D03*
Y-173782D02*
D03*
X-137228Y-173775D02*
D03*
Y-173782D02*
D03*
D03*
X-137232D02*
D03*
X-137228Y-173775D02*
D03*
X-137232D02*
D03*
X-137233Y-173677D02*
D03*
Y-173684D02*
D03*
X-137237Y-173677D02*
D03*
Y-173684D02*
D03*
X-137233Y-173677D02*
D03*
X-137237D02*
D03*
X-137233Y-173684D02*
D03*
X-137237D02*
D03*
X-137225Y-173775D02*
D03*
Y-173782D02*
D03*
X-137222Y-173775D02*
D03*
Y-173782D02*
D03*
D03*
X-137225D02*
D03*
X-137222Y-173775D02*
D03*
X-137225D02*
D03*
X-137240Y-173677D02*
D03*
Y-173684D02*
D03*
X-137243Y-173677D02*
D03*
Y-173684D02*
D03*
X-137240Y-173677D02*
D03*
X-137243D02*
D03*
X-137240Y-173684D02*
D03*
X-137243D02*
D03*
X-137220Y-173775D02*
D03*
Y-173782D02*
D03*
X-137216Y-173775D02*
D03*
Y-173782D02*
D03*
D03*
X-137220D02*
D03*
X-137216Y-173775D02*
D03*
X-137220D02*
D03*
X-137246Y-173677D02*
D03*
Y-173684D02*
D03*
X-137249Y-173677D02*
D03*
Y-173684D02*
D03*
X-137246Y-173677D02*
D03*
X-137249D02*
D03*
X-137246Y-173684D02*
D03*
X-137249D02*
D03*
X-137214Y-173775D02*
D03*
Y-173782D02*
D03*
X-137210Y-173775D02*
D03*
Y-173782D02*
D03*
D03*
X-137214D02*
D03*
X-137210Y-173775D02*
D03*
X-137214D02*
D03*
X-137252Y-173677D02*
D03*
Y-173684D02*
D03*
X-137256Y-173677D02*
D03*
Y-173684D02*
D03*
X-137252Y-173677D02*
D03*
X-137256D02*
D03*
X-137252Y-173684D02*
D03*
X-137256D02*
D03*
X-137256Y-173576D02*
D03*
Y-173583D02*
D03*
X-137260Y-173576D02*
D03*
Y-173583D02*
D03*
X-137256Y-173576D02*
D03*
X-137260D02*
D03*
X-137256Y-173583D02*
D03*
X-137260D02*
D03*
X-137311Y-173776D02*
D03*
Y-173782D02*
D03*
X-137308Y-173776D02*
D03*
Y-173782D02*
D03*
D03*
X-137311D02*
D03*
X-137308Y-173776D02*
D03*
X-137311D02*
D03*
X-137265Y-173677D02*
D03*
Y-173683D02*
D03*
X-137269Y-173677D02*
D03*
Y-173683D02*
D03*
X-137265Y-173677D02*
D03*
X-137269D02*
D03*
X-137265Y-173683D02*
D03*
X-137269D02*
D03*
X-137305Y-173776D02*
D03*
Y-173782D02*
D03*
X-137301Y-173776D02*
D03*
Y-173782D02*
D03*
D03*
X-137305D02*
D03*
X-137301Y-173776D02*
D03*
X-137305D02*
D03*
X-137271Y-173677D02*
D03*
Y-173683D02*
D03*
X-137275Y-173677D02*
D03*
Y-173683D02*
D03*
X-137271Y-173677D02*
D03*
X-137275D02*
D03*
X-137271Y-173683D02*
D03*
X-137275D02*
D03*
X-137299Y-173776D02*
D03*
Y-173782D02*
D03*
X-137295Y-173776D02*
D03*
Y-173782D02*
D03*
D03*
X-137299D02*
D03*
X-137295Y-173776D02*
D03*
X-137299D02*
D03*
X-137278Y-173677D02*
D03*
Y-173683D02*
D03*
X-137281Y-173677D02*
D03*
Y-173683D02*
D03*
X-137278Y-173677D02*
D03*
X-137281D02*
D03*
X-137278Y-173683D02*
D03*
X-137281D02*
D03*
X-137243Y-173583D02*
D03*
X-137247D02*
D03*
X-137243Y-173576D02*
D03*
X-137247D02*
D03*
D03*
Y-173583D02*
D03*
X-137243Y-173576D02*
D03*
Y-173583D02*
D03*
X-137293Y-173776D02*
D03*
Y-173782D02*
D03*
X-137289Y-173776D02*
D03*
Y-173782D02*
D03*
D03*
X-137293D02*
D03*
X-137289Y-173776D02*
D03*
X-137293D02*
D03*
X-137284Y-173677D02*
D03*
Y-173683D02*
D03*
X-137287Y-173677D02*
D03*
Y-173683D02*
D03*
X-137284Y-173677D02*
D03*
X-137287D02*
D03*
X-137284Y-173683D02*
D03*
X-137287D02*
D03*
X-137286Y-173776D02*
D03*
Y-173782D02*
D03*
X-137283Y-173776D02*
D03*
Y-173782D02*
D03*
D03*
X-137286D02*
D03*
X-137283Y-173776D02*
D03*
X-137286D02*
D03*
X-137290Y-173677D02*
D03*
Y-173683D02*
D03*
X-137293Y-173677D02*
D03*
Y-173683D02*
D03*
X-137290Y-173677D02*
D03*
X-137293D02*
D03*
X-137290Y-173683D02*
D03*
X-137293D02*
D03*
X-137280Y-173776D02*
D03*
Y-173782D02*
D03*
X-137277Y-173776D02*
D03*
Y-173782D02*
D03*
D03*
X-137280D02*
D03*
X-137277Y-173776D02*
D03*
X-137280D02*
D03*
X-137296Y-173677D02*
D03*
Y-173683D02*
D03*
X-137299Y-173677D02*
D03*
Y-173683D02*
D03*
X-137296Y-173677D02*
D03*
X-137299D02*
D03*
X-137296Y-173683D02*
D03*
X-137299D02*
D03*
X-137274Y-173776D02*
D03*
Y-173782D02*
D03*
X-137271Y-173776D02*
D03*
Y-173782D02*
D03*
D03*
X-137274D02*
D03*
X-137271Y-173776D02*
D03*
X-137274D02*
D03*
X-137302Y-173683D02*
D03*
X-137305D02*
D03*
X-137302Y-173677D02*
D03*
X-137305D02*
D03*
D03*
Y-173683D02*
D03*
X-137302Y-173677D02*
D03*
Y-173683D02*
D03*
X-137268Y-173776D02*
D03*
Y-173782D02*
D03*
X-137265Y-173776D02*
D03*
Y-173782D02*
D03*
D03*
X-137268D02*
D03*
X-137265Y-173776D02*
D03*
X-137268D02*
D03*
X-137308Y-173677D02*
D03*
Y-173683D02*
D03*
X-137311Y-173677D02*
D03*
Y-173683D02*
D03*
X-137308Y-173677D02*
D03*
X-137311D02*
D03*
X-137308Y-173683D02*
D03*
X-137311D02*
D03*
X-137237Y-173576D02*
D03*
Y-173583D02*
D03*
X-137240Y-173576D02*
D03*
Y-173583D02*
D03*
X-137237Y-173576D02*
D03*
X-137240D02*
D03*
X-137237Y-173583D02*
D03*
X-137240D02*
D03*
X-137336Y-173547D02*
D03*
X-137339D02*
D03*
X-137336Y-173541D02*
D03*
X-137339D02*
D03*
D03*
Y-173547D02*
D03*
X-137336Y-173541D02*
D03*
Y-173547D02*
D03*
X-137329D02*
D03*
X-137333D02*
D03*
X-137329Y-173541D02*
D03*
X-137333D02*
D03*
D03*
Y-173547D02*
D03*
X-137329Y-173541D02*
D03*
Y-173547D02*
D03*
X-137336Y-173553D02*
D03*
X-137340D02*
D03*
X-137336Y-173560D02*
D03*
X-137340D02*
D03*
Y-173553D02*
D03*
Y-173560D02*
D03*
X-137336Y-173553D02*
D03*
Y-173560D02*
D03*
X-137315Y-173560D02*
D03*
X-137318D02*
D03*
X-137315Y-173553D02*
D03*
X-137318D02*
D03*
X-137315D02*
D03*
Y-173560D02*
D03*
X-137318Y-173553D02*
D03*
Y-173560D02*
D03*
X-137329Y-173560D02*
D03*
X-137333D02*
D03*
X-137329Y-173553D02*
D03*
X-137333D02*
D03*
X-137329D02*
D03*
Y-173560D02*
D03*
X-137333Y-173553D02*
D03*
Y-173560D02*
D03*
X-137071Y-173593D02*
D03*
Y-173599D02*
D03*
X-137068Y-173593D02*
D03*
Y-173599D02*
D03*
D03*
X-137071D02*
D03*
X-137068Y-173593D02*
D03*
X-137071D02*
D03*
X-137080D02*
D03*
Y-173599D02*
D03*
X-137076Y-173593D02*
D03*
Y-173599D02*
D03*
D03*
X-137080D02*
D03*
X-137076Y-173593D02*
D03*
X-137080D02*
D03*
X-137251Y-173555D02*
D03*
X-137255D02*
D03*
X-137250Y-173530D02*
D03*
Y-173558D02*
D03*
X-137277Y-173530D02*
D03*
Y-173558D02*
D03*
X-137250D02*
D03*
X-137277D02*
D03*
X-137250Y-173530D02*
D03*
X-137277D02*
D03*
X-137137Y-173758D02*
D03*
Y-173754D02*
D03*
X-137101Y-173760D02*
D03*
X-137140D02*
D03*
X-137101Y-173744D02*
D03*
X-137140D02*
D03*
D03*
Y-173760D02*
D03*
X-137101Y-173744D02*
D03*
Y-173760D02*
D03*
X-137105Y-173701D02*
D03*
Y-173705D02*
D03*
X-137140Y-173699D02*
D03*
Y-173714D02*
D03*
X-137101Y-173699D02*
D03*
Y-173714D02*
D03*
D03*
X-137140D02*
D03*
X-137101Y-173699D02*
D03*
X-137140D02*
D03*
X-137194Y-173758D02*
D03*
Y-173754D02*
D03*
X-137158Y-173760D02*
D03*
X-137197D02*
D03*
X-137158Y-173744D02*
D03*
X-137197D02*
D03*
D03*
Y-173760D02*
D03*
X-137158Y-173744D02*
D03*
Y-173760D02*
D03*
X-137162Y-173700D02*
D03*
Y-173704D02*
D03*
X-137158Y-173699D02*
D03*
X-137197D02*
D03*
X-137158Y-173714D02*
D03*
X-137197D02*
D03*
X-137158Y-173699D02*
D03*
Y-173714D02*
D03*
X-137197Y-173699D02*
D03*
Y-173714D02*
D03*
X-137249Y-173758D02*
D03*
Y-173754D02*
D03*
X-137213Y-173760D02*
D03*
X-137252D02*
D03*
X-137213Y-173744D02*
D03*
X-137252D02*
D03*
D03*
Y-173760D02*
D03*
X-137213Y-173744D02*
D03*
Y-173760D02*
D03*
X-137217Y-173700D02*
D03*
Y-173704D02*
D03*
X-137213Y-173699D02*
D03*
X-137252D02*
D03*
X-137213Y-173714D02*
D03*
X-137252D02*
D03*
X-137213Y-173699D02*
D03*
Y-173714D02*
D03*
X-137252Y-173699D02*
D03*
Y-173714D02*
D03*
X-137304Y-173759D02*
D03*
Y-173755D02*
D03*
X-137269Y-173745D02*
D03*
Y-173760D02*
D03*
X-137308Y-173745D02*
D03*
Y-173760D02*
D03*
X-137269Y-173745D02*
D03*
X-137308D02*
D03*
X-137269Y-173760D02*
D03*
X-137308D02*
D03*
X-137272Y-173701D02*
D03*
Y-173705D02*
D03*
X-137269Y-173699D02*
D03*
X-137308D02*
D03*
X-137269Y-173715D02*
D03*
X-137308D02*
D03*
X-137269Y-173699D02*
D03*
Y-173715D02*
D03*
X-137308Y-173699D02*
D03*
Y-173715D02*
D03*
X-137109Y-173569D02*
D03*
X-137124D02*
D03*
X-137109Y-173595D02*
D03*
X-137124D02*
D03*
X-137109Y-173569D02*
D03*
Y-173595D02*
D03*
X-137124Y-173569D02*
D03*
Y-173595D02*
D03*
Y-173598D02*
D03*
Y-173624D02*
D03*
X-137109Y-173598D02*
D03*
Y-173624D02*
D03*
D03*
X-137124D02*
D03*
X-137109Y-173598D02*
D03*
X-137124D02*
D03*
X-137239Y-173544D02*
D03*
Y-173557D02*
D03*
X-137229Y-173544D02*
D03*
X-137239D02*
D03*
X-137229D02*
D03*
Y-173557D02*
D03*
D03*
X-137239D02*
D03*
X-137268Y-173518D02*
D03*
X-137275D02*
D03*
X-137268Y-173521D02*
D03*
X-137275D02*
D03*
Y-173518D02*
D03*
Y-173521D02*
D03*
X-137268Y-173518D02*
D03*
Y-173521D02*
D03*
Y-173512D02*
D03*
Y-173515D02*
D03*
X-137275Y-173512D02*
D03*
Y-173515D02*
D03*
X-137268D02*
D03*
X-137275D02*
D03*
X-137268Y-173512D02*
D03*
X-137275D02*
D03*
X-137309Y-173548D02*
D03*
X-137312D02*
D03*
X-137309Y-173541D02*
D03*
X-137312D02*
D03*
D03*
Y-173548D02*
D03*
X-137309Y-173541D02*
D03*
Y-173548D02*
D03*
X-137314D02*
D03*
X-137318D02*
D03*
X-137314Y-173541D02*
D03*
X-137318D02*
D03*
D03*
Y-173548D02*
D03*
X-137314Y-173541D02*
D03*
Y-173548D02*
D03*
X-137342Y-173508D02*
D03*
Y-173514D02*
D03*
X-137345Y-173508D02*
D03*
Y-173514D02*
D03*
X-137342Y-173508D02*
D03*
X-137345D02*
D03*
X-137342Y-173514D02*
D03*
X-137345D02*
D03*
Y-173520D02*
D03*
Y-173526D02*
D03*
X-137342Y-173520D02*
D03*
Y-173526D02*
D03*
D03*
X-137345D02*
D03*
X-137342Y-173520D02*
D03*
X-137345D02*
D03*
X-137127Y-173557D02*
D03*
X-137134D02*
D03*
X-137127Y-173554D02*
D03*
X-137134D02*
D03*
D03*
Y-173557D02*
D03*
X-137127Y-173554D02*
D03*
Y-173557D02*
D03*
X-137141Y-173554D02*
D03*
Y-173557D02*
D03*
X-137147Y-173554D02*
D03*
Y-173557D02*
D03*
X-137141Y-173554D02*
D03*
X-137147D02*
D03*
X-137141Y-173557D02*
D03*
X-137147D02*
D03*
D117*
X-137072Y-173824D02*
G03*
X-137072Y-173823I0J0D01*
G01*
D02*
G03*
X-137072Y-173824I0J-0D01*
G01*
X-137072Y-173730D02*
G03*
X-137072Y-173729I0J0D01*
G01*
D02*
G03*
X-137072Y-173730I0J-0D01*
G01*
X-137210Y-173628D02*
G03*
X-137211Y-173628I-0J0D01*
G01*
D02*
G03*
X-137210Y-173628I0J0D01*
G01*
X-137201Y-173806D02*
G03*
X-137200Y-173806I0J0D01*
G01*
D02*
G03*
X-137201Y-173806I-0J0D01*
G01*
X-137109Y-173654D02*
G03*
X-137109Y-173654I-0J0D01*
G01*
D02*
G03*
X-137109Y-173654I0J0D01*
G01*
X-137210D02*
G03*
X-137211Y-173654I-0J0D01*
G01*
D02*
G03*
X-137210Y-173654I0J0D01*
G01*
X-137344Y-173732D02*
G03*
X-137344Y-173732I0J-0D01*
G01*
D02*
G03*
X-137344Y-173732I0J0D01*
G01*
Y-173638D02*
G03*
X-137344Y-173638I0J-0D01*
G01*
D02*
G03*
X-137344Y-173638I0J0D01*
G01*
X-137317Y-173550D02*
G03*
X-137317Y-173550I0J-0D01*
G01*
D02*
G03*
X-137317Y-173550I0J0D01*
G01*
X-137302Y-173806D02*
G03*
X-137302Y-173806I0J0D01*
G01*
D02*
G03*
X-137302Y-173806I-0J0D01*
G01*
X-137087Y-173498D02*
X-137086D01*
Y-173493D01*
X-137056D01*
Y-173498D02*
Y-173493D01*
Y-173498D02*
X-137055D01*
X-137087Y-173519D02*
X-137055D01*
Y-173498D01*
X-137087Y-173519D02*
Y-173498D01*
X-137238Y-173563D02*
Y-173560D01*
X-137231Y-173563D02*
Y-173560D01*
X-137238D02*
X-137231D01*
X-137238Y-173563D02*
X-137231D01*
Y-173541D02*
Y-173538D01*
X-137238Y-173541D02*
Y-173538D01*
Y-173541D02*
X-137231D01*
X-137238Y-173538D02*
X-137231D01*
X-137321Y-173601D02*
X-137318D01*
X-137321Y-173607D02*
X-137318D01*
Y-173601D01*
X-137321Y-173607D02*
Y-173601D01*
X-137238Y-173526D02*
X-137231D01*
X-137238Y-173529D02*
X-137231D01*
X-137238D02*
Y-173526D01*
X-137231Y-173529D02*
Y-173526D01*
Y-173535D02*
Y-173532D01*
X-137238Y-173535D02*
Y-173532D01*
Y-173535D02*
X-137231D01*
X-137238Y-173532D02*
X-137231D01*
X-137228Y-173583D02*
X-137225D01*
X-137228Y-173577D02*
X-137225D01*
X-137228Y-173583D02*
Y-173577D01*
X-137225Y-173583D02*
Y-173577D01*
X-137231Y-173583D02*
Y-173577D01*
X-137234Y-173583D02*
Y-173577D01*
X-137231D01*
X-137234Y-173583D02*
X-137231D01*
X-137301Y-173561D02*
X-137297D01*
X-137301Y-173555D02*
X-137297D01*
X-137301Y-173561D02*
Y-173555D01*
X-137297Y-173561D02*
Y-173555D01*
X-137289Y-173561D02*
X-137286D01*
X-137289Y-173555D02*
X-137286D01*
X-137289Y-173561D02*
Y-173555D01*
X-137286Y-173561D02*
Y-173555D01*
X-137295Y-173561D02*
X-137292D01*
X-137295Y-173555D02*
X-137292D01*
X-137295Y-173561D02*
Y-173555D01*
X-137292Y-173561D02*
Y-173555D01*
X-137282Y-173521D02*
Y-173518D01*
X-137288Y-173521D02*
Y-173518D01*
Y-173521D02*
X-137282D01*
X-137288Y-173518D02*
X-137282D01*
Y-173515D02*
Y-173512D01*
X-137288Y-173515D02*
Y-173512D01*
Y-173515D02*
X-137282D01*
X-137288Y-173512D02*
X-137282D01*
X-137133Y-173508D02*
X-137129D01*
X-137133Y-173514D02*
X-137129D01*
Y-173508D01*
X-137133Y-173514D02*
Y-173508D01*
X-137107Y-173514D02*
Y-173508D01*
X-137104Y-173514D02*
Y-173508D01*
X-137107Y-173514D02*
X-137104D01*
X-137107Y-173508D02*
X-137104D01*
X-137129Y-173526D02*
Y-173520D01*
X-137133Y-173526D02*
Y-173520D01*
X-137129D01*
X-137133Y-173526D02*
X-137129D01*
X-137135D02*
Y-173520D01*
X-137138Y-173526D02*
Y-173520D01*
X-137135D01*
X-137138Y-173526D02*
X-137135D01*
X-137132Y-173550D02*
X-137128D01*
X-137132Y-173544D02*
X-137128D01*
X-137132Y-173550D02*
Y-173544D01*
X-137128Y-173550D02*
Y-173544D01*
X-137098Y-173717D02*
Y-173711D01*
X-137094Y-173717D02*
Y-173711D01*
X-137098Y-173717D02*
X-137094D01*
X-137098Y-173711D02*
X-137094D01*
X-137155Y-173717D02*
Y-173711D01*
X-137152Y-173717D02*
Y-173711D01*
X-137155Y-173717D02*
X-137152D01*
X-137155Y-173711D02*
X-137152D01*
X-137210Y-173717D02*
Y-173711D01*
X-137207Y-173717D02*
Y-173711D01*
X-137210Y-173717D02*
X-137207D01*
X-137210Y-173711D02*
X-137207D01*
X-137265Y-173718D02*
Y-173712D01*
X-137262Y-173718D02*
Y-173712D01*
X-137265Y-173718D02*
X-137262D01*
X-137265Y-173712D02*
X-137262D01*
X-137204Y-173747D02*
X-137201D01*
X-137204Y-173741D02*
X-137201D01*
X-137204Y-173747D02*
Y-173741D01*
X-137201Y-173747D02*
Y-173741D01*
X-137147Y-173747D02*
X-137144D01*
X-137147Y-173741D02*
X-137144D01*
X-137147Y-173747D02*
Y-173741D01*
X-137144Y-173747D02*
Y-173741D01*
X-137259Y-173748D02*
X-137256D01*
X-137259Y-173741D02*
X-137256D01*
X-137259Y-173748D02*
Y-173741D01*
X-137256Y-173748D02*
Y-173741D01*
X-137315Y-173748D02*
X-137311D01*
X-137315Y-173742D02*
X-137311D01*
X-137315Y-173748D02*
Y-173742D01*
X-137311Y-173748D02*
Y-173742D01*
X-137340Y-173526D02*
X-137337D01*
X-137340Y-173520D02*
X-137337D01*
X-137340Y-173526D02*
Y-173520D01*
X-137337Y-173526D02*
Y-173520D01*
X-137339Y-173508D02*
X-137336D01*
X-137339Y-173514D02*
X-137336D01*
Y-173508D01*
X-137339Y-173514D02*
Y-173508D01*
X-137327Y-173548D02*
X-137323D01*
X-137327Y-173541D02*
X-137323D01*
X-137327Y-173548D02*
Y-173541D01*
X-137323Y-173548D02*
Y-173541D01*
Y-173559D02*
Y-173553D01*
X-137327Y-173559D02*
Y-173553D01*
Y-173559D02*
X-137323D01*
X-137327Y-173553D02*
X-137323D01*
X-137115Y-173557D02*
Y-173554D01*
X-137121Y-173557D02*
Y-173554D01*
X-137115D01*
X-137121Y-173557D02*
X-137115D01*
X-137148Y-173576D02*
X-137145D01*
X-137148Y-173582D02*
X-137145D01*
X-137148D02*
Y-173576D01*
X-137145Y-173582D02*
Y-173576D01*
X-137147Y-173624D02*
X-137144D01*
X-137147Y-173618D02*
X-137144D01*
Y-173624D02*
Y-173618D01*
X-137147Y-173624D02*
Y-173618D01*
X-137080Y-173561D02*
X-137075D01*
X-137080Y-173569D02*
X-137075D01*
Y-173561D01*
X-137080Y-173569D02*
Y-173561D01*
X-137304Y-173589D02*
Y-173571D01*
X-137316Y-173589D02*
Y-173571D01*
X-137304D01*
X-137316Y-173589D02*
X-137304D01*
X-137097Y-173540D02*
X-137079D01*
X-137097Y-173528D02*
X-137079D01*
X-137097Y-173540D02*
Y-173528D01*
X-137079Y-173540D02*
Y-173528D01*
X-137067Y-173587D02*
Y-173579D01*
X-137072Y-173587D02*
Y-173579D01*
X-137067D01*
X-137072Y-173587D02*
X-137067D01*
X-137075D02*
Y-173579D01*
X-137080Y-173587D02*
Y-173579D01*
X-137075D01*
X-137080Y-173587D02*
X-137075D01*
X-137334Y-173527D02*
X-137314D01*
X-137334Y-173511D02*
X-137314D01*
X-137334Y-173527D02*
Y-173511D01*
X-137314Y-173527D02*
Y-173511D01*
X-137118Y-173637D02*
Y-173627D01*
X-137200D02*
X-137118D01*
X-137200Y-173637D02*
Y-173627D01*
Y-173637D02*
X-137118D01*
X-137200Y-173600D02*
X-137148D01*
Y-173610D02*
Y-173600D01*
X-137200Y-173610D02*
X-137148D01*
X-137200D02*
Y-173600D01*
X-137253Y-173583D02*
X-137250D01*
X-137253Y-173576D02*
X-137250D01*
X-137253Y-173583D02*
Y-173576D01*
X-137250Y-173583D02*
Y-173576D01*
X-137324Y-173607D02*
Y-173601D01*
X-137328Y-173607D02*
Y-173601D01*
X-137324D01*
X-137328Y-173607D02*
X-137324D01*
X-137079Y-173547D02*
X-137075D01*
X-137079Y-173554D02*
X-137075D01*
Y-173547D01*
X-137079Y-173554D02*
Y-173547D01*
X-137072Y-173547D02*
X-137068D01*
X-137072Y-173554D02*
X-137068D01*
Y-173547D01*
X-137072Y-173554D02*
Y-173547D01*
X-137231Y-173514D02*
Y-173511D01*
X-137237Y-173514D02*
Y-173511D01*
Y-173514D02*
X-137231D01*
X-137237Y-173511D02*
X-137231D01*
X-137237Y-173522D02*
Y-173519D01*
X-137231Y-173522D02*
Y-173519D01*
X-137237D02*
X-137231D01*
X-137237Y-173522D02*
X-137231D01*
X-137139Y-173514D02*
X-137136D01*
X-137139Y-173507D02*
X-137136D01*
X-137139Y-173514D02*
Y-173507D01*
X-137136Y-173514D02*
Y-173507D01*
X-137110Y-173514D02*
Y-173507D01*
X-137113Y-173514D02*
Y-173507D01*
X-137110D01*
X-137113Y-173514D02*
X-137110D01*
X-137105Y-173535D02*
Y-173531D01*
X-137111Y-173535D02*
Y-173531D01*
Y-173535D02*
X-137105D01*
X-137111Y-173531D02*
X-137105D01*
X-137111Y-173528D02*
X-137105D01*
X-137111Y-173524D02*
X-137105D01*
Y-173528D02*
Y-173524D01*
X-137111Y-173528D02*
Y-173524D01*
X-137289Y-173583D02*
Y-173576D01*
X-137292Y-173583D02*
Y-173576D01*
X-137289D01*
X-137292Y-173583D02*
X-137289D01*
X-137144Y-173782D02*
Y-173775D01*
X-137140Y-173782D02*
Y-173775D01*
X-137144Y-173782D02*
X-137140D01*
X-137144Y-173775D02*
X-137140D01*
X-137097Y-173684D02*
Y-173677D01*
X-137100Y-173684D02*
Y-173677D01*
X-137097D01*
X-137100Y-173684D02*
X-137097D01*
X-137137Y-173782D02*
Y-173775D01*
X-137134Y-173782D02*
Y-173775D01*
X-137137Y-173782D02*
X-137134D01*
X-137137Y-173775D02*
X-137134D01*
X-137103Y-173684D02*
Y-173677D01*
X-137106Y-173684D02*
Y-173677D01*
X-137103D01*
X-137106Y-173684D02*
X-137103D01*
X-137131Y-173782D02*
Y-173775D01*
X-137128Y-173782D02*
Y-173775D01*
X-137131Y-173782D02*
X-137128D01*
X-137131Y-173775D02*
X-137128D01*
X-137109Y-173684D02*
Y-173677D01*
X-137113Y-173684D02*
Y-173677D01*
X-137109D01*
X-137113Y-173684D02*
X-137109D01*
X-137125Y-173782D02*
Y-173775D01*
X-137122Y-173782D02*
Y-173775D01*
X-137125Y-173782D02*
X-137122D01*
X-137125Y-173775D02*
X-137122D01*
X-137115Y-173684D02*
Y-173677D01*
X-137119Y-173684D02*
Y-173677D01*
X-137115D01*
X-137119Y-173684D02*
X-137115D01*
X-137119Y-173782D02*
Y-173775D01*
X-137116Y-173782D02*
Y-173775D01*
X-137119Y-173782D02*
X-137116D01*
X-137119Y-173775D02*
X-137116D01*
X-137121Y-173684D02*
Y-173677D01*
X-137125Y-173684D02*
Y-173677D01*
X-137121D01*
X-137125Y-173684D02*
X-137121D01*
X-137113Y-173782D02*
Y-173775D01*
X-137110Y-173782D02*
Y-173775D01*
X-137113Y-173782D02*
X-137110D01*
X-137113Y-173775D02*
X-137110D01*
X-137127Y-173684D02*
Y-173677D01*
X-137131Y-173684D02*
Y-173677D01*
X-137127D01*
X-137131Y-173684D02*
X-137127D01*
X-137107Y-173782D02*
Y-173775D01*
X-137103Y-173782D02*
Y-173775D01*
X-137107Y-173782D02*
X-137103D01*
X-137107Y-173775D02*
X-137103D01*
X-137134Y-173684D02*
Y-173677D01*
X-137137Y-173684D02*
Y-173677D01*
X-137134D01*
X-137137Y-173684D02*
X-137134D01*
X-137101Y-173782D02*
Y-173775D01*
X-137098Y-173782D02*
Y-173775D01*
X-137101Y-173782D02*
X-137098D01*
X-137101Y-173775D02*
X-137098D01*
X-137140Y-173684D02*
Y-173677D01*
X-137143Y-173684D02*
Y-173677D01*
X-137140D01*
X-137143Y-173684D02*
X-137140D01*
X-137282Y-173583D02*
Y-173576D01*
X-137286Y-173583D02*
Y-173576D01*
X-137282D01*
X-137286Y-173583D02*
X-137282D01*
X-137200Y-173782D02*
Y-173775D01*
X-137197Y-173782D02*
Y-173775D01*
X-137200Y-173782D02*
X-137197D01*
X-137200Y-173775D02*
X-137197D01*
X-137155Y-173684D02*
Y-173677D01*
X-137158Y-173684D02*
Y-173677D01*
X-137155D01*
X-137158Y-173684D02*
X-137155D01*
X-137276Y-173583D02*
Y-173576D01*
X-137279Y-173583D02*
Y-173576D01*
X-137276D01*
X-137279Y-173583D02*
X-137276D01*
X-137194Y-173782D02*
Y-173775D01*
X-137190Y-173782D02*
Y-173775D01*
X-137194Y-173782D02*
X-137190D01*
X-137194Y-173775D02*
X-137190D01*
X-137161Y-173684D02*
Y-173677D01*
X-137164Y-173684D02*
Y-173677D01*
X-137161D01*
X-137164Y-173684D02*
X-137161D01*
X-137188Y-173782D02*
Y-173775D01*
X-137184Y-173782D02*
Y-173775D01*
X-137188Y-173782D02*
X-137184D01*
X-137188Y-173775D02*
X-137184D01*
X-137167Y-173684D02*
Y-173677D01*
X-137170Y-173684D02*
Y-173677D01*
X-137167D01*
X-137170Y-173684D02*
X-137167D01*
X-137182Y-173782D02*
Y-173775D01*
X-137178Y-173782D02*
Y-173775D01*
X-137182Y-173782D02*
X-137178D01*
X-137182Y-173775D02*
X-137178D01*
X-137173Y-173684D02*
Y-173677D01*
X-137176Y-173684D02*
Y-173677D01*
X-137173D01*
X-137176Y-173684D02*
X-137173D01*
X-137176Y-173782D02*
Y-173775D01*
X-137172Y-173782D02*
Y-173775D01*
X-137176Y-173782D02*
X-137172D01*
X-137176Y-173775D02*
X-137172D01*
X-137179Y-173684D02*
Y-173677D01*
X-137182Y-173684D02*
Y-173677D01*
X-137179D01*
X-137182Y-173684D02*
X-137179D01*
X-137170Y-173782D02*
Y-173775D01*
X-137166Y-173782D02*
Y-173775D01*
X-137170Y-173782D02*
X-137166D01*
X-137170Y-173775D02*
X-137166D01*
X-137184Y-173684D02*
Y-173677D01*
X-137188Y-173684D02*
Y-173677D01*
X-137184D01*
X-137188Y-173684D02*
X-137184D01*
X-137164Y-173782D02*
Y-173775D01*
X-137160Y-173782D02*
Y-173775D01*
X-137164Y-173782D02*
X-137160D01*
X-137164Y-173775D02*
X-137160D01*
X-137190Y-173684D02*
Y-173677D01*
X-137194Y-173684D02*
Y-173677D01*
X-137190D01*
X-137194Y-173684D02*
X-137190D01*
X-137157Y-173782D02*
Y-173775D01*
X-137154Y-173782D02*
Y-173775D01*
X-137157Y-173782D02*
X-137154D01*
X-137157Y-173775D02*
X-137154D01*
X-137196Y-173684D02*
Y-173677D01*
X-137200Y-173684D02*
Y-173677D01*
X-137196D01*
X-137200Y-173684D02*
X-137196D01*
X-137269Y-173583D02*
Y-173576D01*
X-137273Y-173583D02*
Y-173576D01*
X-137269D01*
X-137273Y-173583D02*
X-137269D01*
X-137256Y-173782D02*
Y-173775D01*
X-137252Y-173782D02*
Y-173775D01*
X-137256Y-173782D02*
X-137252D01*
X-137256Y-173775D02*
X-137252D01*
X-137209Y-173684D02*
Y-173677D01*
X-137213Y-173684D02*
Y-173677D01*
X-137209D01*
X-137213Y-173684D02*
X-137209D01*
X-137250Y-173782D02*
Y-173775D01*
X-137246Y-173782D02*
Y-173775D01*
X-137250Y-173782D02*
X-137246D01*
X-137250Y-173775D02*
X-137246D01*
X-137215Y-173684D02*
Y-173677D01*
X-137219Y-173684D02*
Y-173677D01*
X-137215D01*
X-137219Y-173684D02*
X-137215D01*
X-137263Y-173583D02*
Y-173576D01*
X-137266Y-173583D02*
Y-173576D01*
X-137263D01*
X-137266Y-173583D02*
X-137263D01*
X-137243Y-173782D02*
Y-173775D01*
X-137240Y-173782D02*
Y-173775D01*
X-137243Y-173782D02*
X-137240D01*
X-137243Y-173775D02*
X-137240D01*
X-137221Y-173684D02*
Y-173677D01*
X-137225Y-173684D02*
Y-173677D01*
X-137221D01*
X-137225Y-173684D02*
X-137221D01*
X-137238Y-173782D02*
Y-173775D01*
X-137234Y-173782D02*
Y-173775D01*
X-137238Y-173782D02*
X-137234D01*
X-137238Y-173775D02*
X-137234D01*
X-137227Y-173684D02*
Y-173677D01*
X-137231Y-173684D02*
Y-173677D01*
X-137227D01*
X-137231Y-173684D02*
X-137227D01*
X-137232Y-173782D02*
Y-173775D01*
X-137228Y-173782D02*
Y-173775D01*
X-137232Y-173782D02*
X-137228D01*
X-137232Y-173775D02*
X-137228D01*
X-137233Y-173684D02*
Y-173677D01*
X-137237Y-173684D02*
Y-173677D01*
X-137233D01*
X-137237Y-173684D02*
X-137233D01*
X-137225Y-173782D02*
Y-173775D01*
X-137222Y-173782D02*
Y-173775D01*
X-137225Y-173782D02*
X-137222D01*
X-137225Y-173775D02*
X-137222D01*
X-137240Y-173684D02*
Y-173677D01*
X-137243Y-173684D02*
Y-173677D01*
X-137240D01*
X-137243Y-173684D02*
X-137240D01*
X-137220Y-173782D02*
Y-173775D01*
X-137216Y-173782D02*
Y-173775D01*
X-137220Y-173782D02*
X-137216D01*
X-137220Y-173775D02*
X-137216D01*
X-137246Y-173684D02*
Y-173677D01*
X-137249Y-173684D02*
Y-173677D01*
X-137246D01*
X-137249Y-173684D02*
X-137246D01*
X-137214Y-173782D02*
Y-173775D01*
X-137210Y-173782D02*
Y-173775D01*
X-137214Y-173782D02*
X-137210D01*
X-137214Y-173775D02*
X-137210D01*
X-137252Y-173684D02*
Y-173677D01*
X-137256Y-173684D02*
Y-173677D01*
X-137252D01*
X-137256Y-173684D02*
X-137252D01*
X-137256Y-173583D02*
Y-173576D01*
X-137260Y-173583D02*
Y-173576D01*
X-137256D01*
X-137260Y-173583D02*
X-137256D01*
X-137311Y-173782D02*
Y-173776D01*
X-137308Y-173782D02*
Y-173776D01*
X-137311Y-173782D02*
X-137308D01*
X-137311Y-173776D02*
X-137308D01*
X-137265Y-173683D02*
Y-173677D01*
X-137269Y-173683D02*
Y-173677D01*
X-137265D01*
X-137269Y-173683D02*
X-137265D01*
X-137305Y-173782D02*
Y-173776D01*
X-137301Y-173782D02*
Y-173776D01*
X-137305Y-173782D02*
X-137301D01*
X-137305Y-173776D02*
X-137301D01*
X-137271Y-173683D02*
Y-173677D01*
X-137275Y-173683D02*
Y-173677D01*
X-137271D01*
X-137275Y-173683D02*
X-137271D01*
X-137299Y-173782D02*
Y-173776D01*
X-137295Y-173782D02*
Y-173776D01*
X-137299Y-173782D02*
X-137295D01*
X-137299Y-173776D02*
X-137295D01*
X-137278Y-173683D02*
Y-173677D01*
X-137281Y-173683D02*
Y-173677D01*
X-137278D01*
X-137281Y-173683D02*
X-137278D01*
X-137247Y-173583D02*
X-137243D01*
X-137247Y-173576D02*
X-137243D01*
X-137247Y-173583D02*
Y-173576D01*
X-137243Y-173583D02*
Y-173576D01*
X-137293Y-173782D02*
Y-173776D01*
X-137289Y-173782D02*
Y-173776D01*
X-137293Y-173782D02*
X-137289D01*
X-137293Y-173776D02*
X-137289D01*
X-137284Y-173683D02*
Y-173677D01*
X-137287Y-173683D02*
Y-173677D01*
X-137284D01*
X-137287Y-173683D02*
X-137284D01*
X-137286Y-173782D02*
Y-173776D01*
X-137283Y-173782D02*
Y-173776D01*
X-137286Y-173782D02*
X-137283D01*
X-137286Y-173776D02*
X-137283D01*
X-137290Y-173683D02*
Y-173677D01*
X-137293Y-173683D02*
Y-173677D01*
X-137290D01*
X-137293Y-173683D02*
X-137290D01*
X-137280Y-173782D02*
Y-173776D01*
X-137277Y-173782D02*
Y-173776D01*
X-137280Y-173782D02*
X-137277D01*
X-137280Y-173776D02*
X-137277D01*
X-137296Y-173683D02*
Y-173677D01*
X-137299Y-173683D02*
Y-173677D01*
X-137296D01*
X-137299Y-173683D02*
X-137296D01*
X-137274Y-173782D02*
Y-173776D01*
X-137271Y-173782D02*
Y-173776D01*
X-137274Y-173782D02*
X-137271D01*
X-137274Y-173776D02*
X-137271D01*
X-137305Y-173683D02*
X-137302D01*
X-137305Y-173677D02*
X-137302D01*
X-137305Y-173683D02*
Y-173677D01*
X-137302Y-173683D02*
Y-173677D01*
X-137268Y-173782D02*
Y-173776D01*
X-137265Y-173782D02*
Y-173776D01*
X-137268Y-173782D02*
X-137265D01*
X-137268Y-173776D02*
X-137265D01*
X-137308Y-173683D02*
Y-173677D01*
X-137311Y-173683D02*
Y-173677D01*
X-137308D01*
X-137311Y-173683D02*
X-137308D01*
X-137237Y-173583D02*
Y-173576D01*
X-137240Y-173583D02*
Y-173576D01*
X-137237D01*
X-137240Y-173583D02*
X-137237D01*
X-137339Y-173547D02*
X-137336D01*
X-137339Y-173541D02*
X-137336D01*
X-137339Y-173547D02*
Y-173541D01*
X-137336Y-173547D02*
Y-173541D01*
X-137333Y-173547D02*
X-137329D01*
X-137333Y-173541D02*
X-137329D01*
X-137333Y-173547D02*
Y-173541D01*
X-137329Y-173547D02*
Y-173541D01*
X-137340Y-173553D02*
X-137336D01*
X-137340Y-173560D02*
X-137336D01*
X-137340D02*
Y-173553D01*
X-137336Y-173560D02*
Y-173553D01*
X-137318Y-173560D02*
X-137315D01*
X-137318Y-173553D02*
X-137315D01*
Y-173560D02*
Y-173553D01*
X-137318Y-173560D02*
Y-173553D01*
X-137333Y-173560D02*
X-137329D01*
X-137333Y-173553D02*
X-137329D01*
Y-173560D02*
Y-173553D01*
X-137333Y-173560D02*
Y-173553D01*
X-137071Y-173599D02*
Y-173593D01*
X-137068Y-173599D02*
Y-173593D01*
X-137071Y-173599D02*
X-137068D01*
X-137071Y-173593D02*
X-137068D01*
X-137080Y-173599D02*
Y-173593D01*
X-137076Y-173599D02*
Y-173593D01*
X-137080Y-173599D02*
X-137076D01*
X-137080Y-173593D02*
X-137076D01*
X-137250Y-173558D02*
Y-173530D01*
X-137277Y-173558D02*
Y-173530D01*
Y-173558D02*
X-137250D01*
X-137277Y-173530D02*
X-137250D01*
X-137140Y-173760D02*
X-137101D01*
X-137140Y-173744D02*
X-137101D01*
X-137140Y-173760D02*
Y-173744D01*
X-137101Y-173760D02*
Y-173744D01*
X-137140Y-173714D02*
Y-173699D01*
X-137101Y-173714D02*
Y-173699D01*
X-137140Y-173714D02*
X-137101D01*
X-137140Y-173699D02*
X-137101D01*
X-137197Y-173760D02*
X-137158D01*
X-137197Y-173744D02*
X-137158D01*
X-137197Y-173760D02*
Y-173744D01*
X-137158Y-173760D02*
Y-173744D01*
X-137197Y-173699D02*
X-137158D01*
X-137197Y-173714D02*
X-137158D01*
Y-173699D01*
X-137197Y-173714D02*
Y-173699D01*
X-137252Y-173760D02*
X-137213D01*
X-137252Y-173744D02*
X-137213D01*
X-137252Y-173760D02*
Y-173744D01*
X-137213Y-173760D02*
Y-173744D01*
X-137252Y-173699D02*
X-137213D01*
X-137252Y-173714D02*
X-137213D01*
Y-173699D01*
X-137252Y-173714D02*
Y-173699D01*
X-137269Y-173760D02*
Y-173745D01*
X-137308Y-173760D02*
Y-173745D01*
X-137269D01*
X-137308Y-173760D02*
X-137269D01*
X-137308Y-173699D02*
X-137269D01*
X-137308Y-173715D02*
X-137269D01*
Y-173699D01*
X-137308Y-173715D02*
Y-173699D01*
X-137124Y-173569D02*
X-137109D01*
X-137124Y-173595D02*
X-137109D01*
Y-173569D01*
X-137124Y-173595D02*
Y-173569D01*
Y-173624D02*
Y-173598D01*
X-137109Y-173624D02*
Y-173598D01*
X-137124Y-173624D02*
X-137109D01*
X-137124Y-173598D02*
X-137109D01*
X-137239Y-173557D02*
Y-173544D01*
X-137229D01*
Y-173557D02*
Y-173544D01*
X-137239Y-173557D02*
X-137229D01*
X-137275Y-173518D02*
X-137268D01*
X-137275Y-173521D02*
X-137268D01*
X-137275D02*
Y-173518D01*
X-137268Y-173521D02*
Y-173518D01*
Y-173515D02*
Y-173512D01*
X-137275Y-173515D02*
Y-173512D01*
Y-173515D02*
X-137268D01*
X-137275Y-173512D02*
X-137268D01*
X-137312Y-173548D02*
X-137309D01*
X-137312Y-173541D02*
X-137309D01*
X-137312Y-173548D02*
Y-173541D01*
X-137309Y-173548D02*
Y-173541D01*
X-137318Y-173548D02*
X-137314D01*
X-137318Y-173541D02*
X-137314D01*
X-137318Y-173548D02*
Y-173541D01*
X-137314Y-173548D02*
Y-173541D01*
X-137342Y-173514D02*
Y-173508D01*
X-137345Y-173514D02*
Y-173508D01*
X-137342D01*
X-137345Y-173514D02*
X-137342D01*
X-137345Y-173526D02*
Y-173520D01*
X-137342Y-173526D02*
Y-173520D01*
X-137345Y-173526D02*
X-137342D01*
X-137345Y-173520D02*
X-137342D01*
X-137134Y-173557D02*
X-137127D01*
X-137134Y-173554D02*
X-137127D01*
X-137134Y-173557D02*
Y-173554D01*
X-137127Y-173557D02*
Y-173554D01*
X-137141Y-173557D02*
Y-173554D01*
X-137147Y-173557D02*
Y-173554D01*
X-137141D01*
X-137147Y-173557D02*
X-137141D01*
X-137072Y-173561D02*
X-137067D01*
X-137072Y-173569D02*
X-137067D01*
Y-173561D01*
X-137072Y-173569D02*
Y-173561D01*
D129*
X-137084Y-173532D02*
G03*
X-137083Y-173532I0J0D01*
G01*
D02*
G03*
X-137084Y-173532I-0J0D01*
G01*
X-137317Y-173550D02*
G03*
X-137317Y-173549I0J0D01*
G01*
D02*
G03*
X-137317Y-173550I0J-0D01*
G01*
X-137107Y-173545D02*
G03*
X-137107Y-173545I-0J0D01*
G01*
D02*
G03*
X-137107Y-173545I0J0D01*
G01*
X-137126Y-173520D02*
X-137116D01*
Y-173509D01*
X-137126D02*
X-137116D01*
X-137126Y-173520D02*
Y-173509D01*
X-137101Y-173521D02*
X-137091D01*
Y-173509D01*
X-137101D02*
X-137091D01*
X-137101Y-173521D02*
Y-173509D01*
D130*
X-137357Y-173577D02*
G03*
X-137358Y-173577I-0J0D01*
G01*
D02*
G03*
X-137357Y-173577I0J0D01*
G01*
X-137320Y-173574D02*
G03*
X-137320Y-173574I-0J0D01*
G01*
D02*
G03*
X-137320Y-173574I0J0D01*
G01*
Y-173580D02*
G03*
X-137320Y-173580I-0J0D01*
G01*
D02*
G03*
X-137320Y-173580I0J0D01*
G01*
X-137317Y-173577D02*
G03*
X-137318Y-173577I-0J0D01*
G01*
D02*
G03*
X-137317Y-173577I0J0D01*
G01*
X-137077Y-173530D02*
G03*
X-137077Y-173530I-0J0D01*
G01*
D02*
G03*
X-137077Y-173530I0J0D01*
G01*
Y-173541D02*
G03*
X-137077Y-173541I-0J0D01*
G01*
D02*
G03*
X-137077Y-173541I0J0D01*
G01*
X-137070D02*
G03*
X-137070Y-173541I-0J0D01*
G01*
D02*
G03*
X-137070Y-173541I0J0D01*
G01*
X-137077D02*
G03*
X-137077Y-173541I-0J0D01*
G01*
D02*
G03*
X-137077Y-173541I0J0D01*
G01*
X-137070Y-173530D02*
G03*
X-137070Y-173530I-0J0D01*
G01*
D02*
G03*
X-137070Y-173530I0J0D01*
G01*
Y-173541D02*
G03*
X-137070Y-173541I-0J0D01*
G01*
D02*
G03*
X-137070Y-173541I0J0D01*
G01*
Y-173530D02*
G03*
X-137070Y-173530I-0J0D01*
G01*
D02*
G03*
X-137070Y-173530I0J0D01*
G01*
X-137077D02*
G03*
X-137077Y-173530I-0J0D01*
G01*
D02*
G03*
X-137077Y-173530I0J0D01*
G01*
X-137118Y-173538D02*
G03*
X-137118Y-173538I0J0D01*
G01*
D02*
G03*
X-137118Y-173538I-0J0D01*
G01*
X-137143D02*
G03*
X-137142Y-173538I0J0D01*
G01*
D02*
G03*
X-137143Y-173538I-0J0D01*
G01*
D02*
G03*
X-137142Y-173538I0J0D01*
G01*
D02*
G03*
X-137143Y-173538I-0J0D01*
G01*
Y-173552D02*
G03*
X-137142Y-173552I0J0D01*
G01*
D02*
G03*
X-137143Y-173552I-0J0D01*
G01*
X-137118D02*
G03*
X-137118Y-173552I0J0D01*
G01*
D02*
G03*
X-137118Y-173552I-0J0D01*
G01*
X-137143D02*
G03*
X-137142Y-173552I0J0D01*
G01*
D02*
G03*
X-137143Y-173552I-0J0D01*
G01*
X-137118Y-173538D02*
G03*
X-137118Y-173538I0J0D01*
G01*
D02*
G03*
X-137118Y-173538I-0J0D01*
G01*
Y-173552D02*
G03*
X-137118Y-173552I0J0D01*
G01*
D02*
G03*
X-137118Y-173552I-0J0D01*
G01*
D133*
X-137116Y-173520D02*
D03*
X-137126D02*
D03*
X-137116Y-173509D02*
D03*
Y-173520D02*
D03*
Y-173509D02*
D03*
X-137126D02*
D03*
D03*
Y-173520D02*
D03*
X-137091Y-173521D02*
D03*
X-137101D02*
D03*
X-137091Y-173509D02*
D03*
Y-173521D02*
D03*
Y-173509D02*
D03*
X-137101D02*
D03*
D03*
Y-173521D02*
D03*
X-137072Y-173823D02*
D03*
X-137072Y-173729D02*
D03*
X-137211Y-173628D02*
D03*
X-137200Y-173806D02*
D03*
X-137110Y-173654D02*
D03*
X-137211D02*
D03*
X-137344Y-173733D02*
D03*
Y-173639D02*
D03*
X-137129Y-173567D02*
D03*
Y-173566D02*
D03*
X-137084Y-173532D02*
D03*
X-137083D02*
D03*
X-137317Y-173549D02*
D03*
X-137107Y-173545D02*
D03*
X-137107D02*
D03*
X-137301Y-173806D02*
D03*
D134*
X-137058Y-173732D02*
D03*
Y-173820D02*
D03*
D03*
X-137081D02*
D03*
Y-173732D02*
D03*
Y-173820D02*
D03*
X-137058Y-173732D02*
D03*
X-137081D02*
D03*
X-137059Y-173638D02*
D03*
X-137082D02*
D03*
D03*
Y-173726D02*
D03*
X-137059D02*
D03*
X-137082D02*
D03*
X-137059Y-173638D02*
D03*
Y-173726D02*
D03*
X-137302Y-173615D02*
D03*
Y-173638D02*
D03*
X-137214D02*
D03*
X-137302D02*
D03*
X-137214Y-173615D02*
D03*
Y-173638D02*
D03*
Y-173615D02*
D03*
X-137302D02*
D03*
X-137109Y-173797D02*
D03*
Y-173819D02*
D03*
Y-173797D02*
D03*
X-137197D02*
D03*
D03*
Y-173819D02*
D03*
X-137109D02*
D03*
X-137197D02*
D03*
X-137112Y-173641D02*
D03*
X-137201D02*
D03*
X-137112D02*
D03*
Y-173663D02*
D03*
D03*
X-137201D02*
D03*
Y-173641D02*
D03*
Y-173663D02*
D03*
X-137302Y-173641D02*
D03*
Y-173663D02*
D03*
X-137214D02*
D03*
X-137302D02*
D03*
X-137214Y-173641D02*
D03*
Y-173663D02*
D03*
Y-173641D02*
D03*
X-137302D02*
D03*
X-137335Y-173824D02*
D03*
X-137357D02*
D03*
X-137335Y-173736D02*
D03*
Y-173824D02*
D03*
Y-173736D02*
D03*
X-137357D02*
D03*
D03*
Y-173824D02*
D03*
Y-173641D02*
D03*
Y-173730D02*
D03*
X-137335Y-173641D02*
D03*
X-137357D02*
D03*
X-137335D02*
D03*
Y-173730D02*
D03*
D03*
X-137357D02*
D03*
X-137349Y-173580D02*
D03*
X-137326D02*
D03*
X-137353Y-173577D02*
D03*
X-137322D02*
D03*
X-137086Y-173548D02*
D03*
X-137126D02*
D03*
X-137086Y-173563D02*
D03*
X-137126D02*
D03*
X-137086Y-173548D02*
D03*
Y-173563D02*
D03*
X-137126Y-173548D02*
D03*
Y-173563D02*
D03*
X-137317Y-173524D02*
D03*
Y-173540D02*
D03*
X-137337Y-173524D02*
D03*
Y-173540D02*
D03*
X-137317D02*
D03*
X-137337D02*
D03*
X-137317Y-173524D02*
D03*
X-137337D02*
D03*
X-137210Y-173819D02*
D03*
X-137299D02*
D03*
Y-173797D02*
D03*
Y-173819D02*
D03*
X-137210Y-173797D02*
D03*
X-137299D02*
D03*
X-137210D02*
D03*
Y-173819D02*
D03*
D139*
X-137058Y-173820D02*
Y-173732D01*
X-137081Y-173820D02*
X-137058D01*
X-137081D02*
Y-173732D01*
X-137058D01*
X-137082Y-173638D02*
X-137059D01*
X-137082Y-173726D02*
Y-173638D01*
Y-173726D02*
X-137059D01*
Y-173638D01*
X-137302Y-173638D02*
Y-173615D01*
Y-173638D02*
X-137214D01*
Y-173615D01*
X-137302D02*
X-137214D01*
X-137109Y-173819D02*
Y-173797D01*
X-137197D02*
X-137109D01*
X-137197Y-173819D02*
Y-173797D01*
Y-173819D02*
X-137109D01*
X-137201Y-173641D02*
X-137112D01*
Y-173663D02*
Y-173641D01*
X-137201Y-173663D02*
X-137112D01*
X-137201D02*
Y-173641D01*
X-137302Y-173663D02*
Y-173641D01*
Y-173663D02*
X-137214D01*
Y-173641D01*
X-137302D02*
X-137214D01*
X-137357Y-173824D02*
X-137335D01*
Y-173736D01*
X-137357D02*
X-137335D01*
X-137357Y-173824D02*
Y-173736D01*
Y-173730D02*
Y-173641D01*
X-137335D01*
Y-173730D02*
Y-173641D01*
X-137357Y-173730D02*
X-137335D01*
X-137357Y-173577D02*
X-137353D01*
X-137320Y-173580D02*
Y-173574D01*
X-137322Y-173577D02*
X-137318D01*
X-137126Y-173548D02*
X-137086D01*
X-137126Y-173563D02*
X-137086D01*
Y-173548D01*
X-137126Y-173563D02*
Y-173548D01*
X-137077Y-173541D02*
Y-173530D01*
Y-173541D02*
X-137070D01*
Y-173530D01*
X-137077D02*
X-137070D01*
X-137317Y-173540D02*
Y-173524D01*
X-137337Y-173540D02*
Y-173524D01*
Y-173540D02*
X-137317D01*
X-137337Y-173524D02*
X-137317D01*
X-137143Y-173538D02*
X-137118D01*
X-137143Y-173552D02*
Y-173538D01*
Y-173552D02*
X-137118D01*
Y-173538D01*
X-137299Y-173819D02*
X-137210D01*
X-137299D02*
Y-173797D01*
X-137210D01*
Y-173819D02*
Y-173797D01*
D140*
X248772Y93523D02*
D03*
X249271Y115023D02*
D03*
X239271Y118023D02*
D03*
X61272Y99023D02*
D03*
X66772D02*
D03*
X104771Y90023D02*
D03*
X216772D02*
D03*
X159772D02*
D03*
X136772Y93523D02*
D03*
X266772Y104023D02*
D03*
X209272D02*
D03*
X154271Y103523D02*
D03*
X98772D02*
D03*
X122272Y99023D02*
D03*
X192271Y93523D02*
D03*
X234272Y99023D02*
D03*
X177271D02*
D03*
X245000Y224000D02*
D03*
X82000Y93500D02*
D03*
X106000Y282500D02*
D03*
X105981Y306023D02*
D03*
X121000Y298000D02*
D03*
X144500Y179500D02*
D03*
X84272Y260111D02*
D03*
X13500Y300500D02*
D03*
X31000Y224500D02*
D03*
Y219000D02*
D03*
X19000Y267000D02*
D03*
X306500Y297000D02*
D03*
X301000Y292500D02*
D03*
X226500Y309426D02*
D03*
X166355Y248500D02*
D03*
X125500Y318500D02*
D03*
X198000Y274500D02*
D03*
X189500D02*
D03*
X150000Y270000D02*
D03*
X110000Y306000D02*
D03*
X290000Y298000D02*
D03*
X138500Y279500D02*
D03*
Y275000D02*
D03*
Y283500D02*
D03*
X272000Y301468D02*
D03*
X306487Y292500D02*
D03*
X38686Y290469D02*
D03*
X135500Y292500D02*
D03*
X98500Y304000D02*
D03*
X90625Y270875D02*
D03*
X150000Y265000D02*
D03*
X127500Y253500D02*
D03*
X152000Y304500D02*
D03*
X170000Y316000D02*
D03*
X220500Y324500D02*
D03*
X242000Y235000D02*
D03*
X224500Y210000D02*
D03*
X229000Y281500D02*
D03*
X208500Y256000D02*
D03*
Y246500D02*
D03*
X84500Y312500D02*
D03*
X98500D02*
D03*
X23500Y292500D02*
D03*
X10500Y318428D02*
D03*
Y305857D02*
D03*
Y309000D02*
D03*
Y312143D02*
D03*
Y315286D02*
D03*
Y321571D02*
D03*
Y324714D02*
D03*
Y327857D02*
D03*
X10283Y293190D02*
D03*
Y280619D02*
D03*
Y283761D02*
D03*
Y286904D02*
D03*
Y290047D02*
D03*
Y296333D02*
D03*
Y299476D02*
D03*
Y302618D02*
D03*
Y268190D02*
D03*
Y255619D02*
D03*
Y258761D02*
D03*
Y261904D02*
D03*
Y265047D02*
D03*
Y271333D02*
D03*
Y274476D02*
D03*
Y277618D02*
D03*
Y243190D02*
D03*
Y236904D02*
D03*
Y240047D02*
D03*
Y246333D02*
D03*
Y249476D02*
D03*
Y252618D02*
D03*
X56500Y240000D02*
D03*
Y243000D02*
D03*
X13500Y237000D02*
D03*
X19786D02*
D03*
X22929D02*
D03*
X16643D02*
D03*
X56500D02*
D03*
X178500Y245500D02*
D03*
X50000Y237000D02*
D03*
X53000D02*
D03*
X38500D02*
D03*
X220239Y318739D02*
D03*
X56337Y265592D02*
D03*
Y262449D02*
D03*
X56500Y299857D02*
D03*
Y328000D02*
D03*
Y315429D02*
D03*
Y324857D02*
D03*
Y318571D02*
D03*
Y321714D02*
D03*
Y296714D02*
D03*
Y303000D02*
D03*
Y293571D02*
D03*
Y306000D02*
D03*
Y312286D02*
D03*
Y309143D02*
D03*
Y290429D02*
D03*
Y287286D02*
D03*
X56337Y268734D02*
D03*
Y275020D02*
D03*
X56500Y284143D02*
D03*
Y281000D02*
D03*
X56337Y278163D02*
D03*
Y271877D02*
D03*
X118935Y263760D02*
D03*
X139000Y297500D02*
D03*
X148903Y321748D02*
D03*
X4232Y7102D02*
D03*
X8169Y14976D02*
D03*
X4232Y22851D02*
D03*
X8169Y30724D02*
D03*
X4232Y38598D02*
D03*
X8169Y46473D02*
D03*
X4232Y54347D02*
D03*
X8169Y62221D02*
D03*
X4232Y70095D02*
D03*
X8169Y77969D02*
D03*
X4232Y85843D02*
D03*
X8169Y93717D02*
D03*
X4232Y101591D02*
D03*
Y117339D02*
D03*
Y133087D02*
D03*
Y148835D02*
D03*
Y164583D02*
D03*
Y180331D02*
D03*
X8169Y188205D02*
D03*
X4232Y196079D02*
D03*
X8169Y203953D02*
D03*
X4232Y211827D02*
D03*
X8169Y219701D02*
D03*
X4232Y227575D02*
D03*
Y243323D02*
D03*
Y259071D02*
D03*
Y274819D02*
D03*
Y290567D02*
D03*
Y306315D02*
D03*
Y322063D02*
D03*
X12106Y7102D02*
D03*
Y22851D02*
D03*
Y38598D02*
D03*
X16043Y46473D02*
D03*
X12106Y54347D02*
D03*
Y70095D02*
D03*
Y85843D02*
D03*
Y101591D02*
D03*
Y117339D02*
D03*
Y133087D02*
D03*
X16043Y140961D02*
D03*
X12106Y148835D02*
D03*
Y164583D02*
D03*
X16043Y188205D02*
D03*
X12106Y196079D02*
D03*
X16043Y203953D02*
D03*
X12106Y211827D02*
D03*
X16043Y219701D02*
D03*
X12106Y227575D02*
D03*
X19980Y7102D02*
D03*
Y85843D02*
D03*
X23917Y125213D02*
D03*
Y156709D02*
D03*
X19980Y180331D02*
D03*
Y196079D02*
D03*
X23917Y203953D02*
D03*
X19980Y211827D02*
D03*
Y227575D02*
D03*
X27854Y7102D02*
D03*
X31791Y14976D02*
D03*
Y62221D02*
D03*
X27854Y70095D02*
D03*
X31791Y77969D02*
D03*
X27854Y85843D02*
D03*
Y101591D02*
D03*
X31791Y109465D02*
D03*
Y125213D02*
D03*
X27854Y148835D02*
D03*
X31791Y172457D02*
D03*
X27854Y180331D02*
D03*
Y196079D02*
D03*
X35728Y7102D02*
D03*
X39665Y14976D02*
D03*
X35728Y22851D02*
D03*
X39665Y62221D02*
D03*
Y77969D02*
D03*
X35728Y85843D02*
D03*
Y101591D02*
D03*
X39665Y109465D02*
D03*
X35728Y117339D02*
D03*
Y148835D02*
D03*
X39665Y172457D02*
D03*
X35728Y180331D02*
D03*
Y196079D02*
D03*
Y211827D02*
D03*
X43602Y7102D02*
D03*
X47539Y14976D02*
D03*
X43602Y22851D02*
D03*
Y54347D02*
D03*
X47539Y62221D02*
D03*
X43602Y70095D02*
D03*
X47539Y140961D02*
D03*
Y172457D02*
D03*
X43602Y180331D02*
D03*
X47539Y203953D02*
D03*
X43602Y243323D02*
D03*
X51477Y7102D02*
D03*
X55414Y14976D02*
D03*
X51477Y22851D02*
D03*
X55414Y77969D02*
D03*
Y93717D02*
D03*
X51477Y133087D02*
D03*
X55414Y172457D02*
D03*
X51477Y180331D02*
D03*
Y196079D02*
D03*
Y211827D02*
D03*
X59351Y7102D02*
D03*
X63288Y14976D02*
D03*
X59351Y22851D02*
D03*
Y70095D02*
D03*
X63288Y172457D02*
D03*
Y188205D02*
D03*
X59351Y196079D02*
D03*
X63288Y219701D02*
D03*
X59351Y259071D02*
D03*
X67225Y7102D02*
D03*
X71162Y14976D02*
D03*
X67225Y22851D02*
D03*
Y70095D02*
D03*
X71162Y188205D02*
D03*
Y203953D02*
D03*
Y235449D02*
D03*
X67225Y243323D02*
D03*
X75099Y7102D02*
D03*
X79036Y14976D02*
D03*
X75099Y70095D02*
D03*
X79036Y77969D02*
D03*
Y188205D02*
D03*
X75099Y211827D02*
D03*
X82973Y7102D02*
D03*
X86910Y14976D02*
D03*
X82973Y70095D02*
D03*
Y117339D02*
D03*
X86910Y188205D02*
D03*
X90847Y7102D02*
D03*
X94784Y14976D02*
D03*
Y188205D02*
D03*
Y203953D02*
D03*
X90847Y211827D02*
D03*
X94784Y235449D02*
D03*
X98721Y7102D02*
D03*
X102658Y14976D02*
D03*
X98721Y54347D02*
D03*
X102658Y62221D02*
D03*
X98721Y70095D02*
D03*
Y85843D02*
D03*
Y133087D02*
D03*
X102658Y140961D02*
D03*
Y188205D02*
D03*
Y203953D02*
D03*
Y219701D02*
D03*
Y235449D02*
D03*
Y314189D02*
D03*
X106595Y7102D02*
D03*
X110532Y14976D02*
D03*
X106595Y38598D02*
D03*
X110532Y77969D02*
D03*
X106595Y117339D02*
D03*
Y133087D02*
D03*
X110532Y188205D02*
D03*
Y314189D02*
D03*
X114469Y7102D02*
D03*
X118406Y14976D02*
D03*
X114469Y70095D02*
D03*
Y164583D02*
D03*
X118406Y188205D02*
D03*
Y219701D02*
D03*
X114469Y322063D02*
D03*
X122343Y7102D02*
D03*
X126280Y14976D02*
D03*
X122343Y70095D02*
D03*
X126280Y188205D02*
D03*
Y203953D02*
D03*
X122343Y322063D02*
D03*
X130217Y7102D02*
D03*
X134154Y14976D02*
D03*
X130217Y70095D02*
D03*
X134154Y77969D02*
D03*
X130217Y164583D02*
D03*
X134154Y188205D02*
D03*
X130217Y211827D02*
D03*
X138091Y7102D02*
D03*
X142028Y14976D02*
D03*
X138091Y70095D02*
D03*
Y117339D02*
D03*
X142028Y188205D02*
D03*
X145965Y7102D02*
D03*
X149902Y14976D02*
D03*
X145965Y196079D02*
D03*
X149902Y282693D02*
D03*
X153839Y7102D02*
D03*
X157776Y14976D02*
D03*
X153839Y22851D02*
D03*
X157776Y30724D02*
D03*
X153839Y38598D02*
D03*
X157776Y46473D02*
D03*
X153839Y54347D02*
D03*
X157776Y62221D02*
D03*
X153839Y70095D02*
D03*
Y85843D02*
D03*
X157776Y266945D02*
D03*
Y282693D02*
D03*
Y298441D02*
D03*
X161713Y7102D02*
D03*
X165650Y14976D02*
D03*
X161713Y22851D02*
D03*
Y38598D02*
D03*
Y54347D02*
D03*
X165650Y77969D02*
D03*
Y172457D02*
D03*
Y203953D02*
D03*
Y266945D02*
D03*
X169587Y7102D02*
D03*
X173524Y14976D02*
D03*
X169587Y70095D02*
D03*
X173524Y203953D02*
D03*
X177461Y7102D02*
D03*
X181398Y14976D02*
D03*
Y30724D02*
D03*
X177461Y70095D02*
D03*
X181398Y156709D02*
D03*
Y203953D02*
D03*
Y235449D02*
D03*
X185335Y7102D02*
D03*
X189272Y14976D02*
D03*
X185335Y70095D02*
D03*
X189272Y77969D02*
D03*
Y203953D02*
D03*
Y235449D02*
D03*
X185335Y259071D02*
D03*
X189272Y266945D02*
D03*
X185335Y274819D02*
D03*
Y306315D02*
D03*
X193209Y7102D02*
D03*
X197146Y14976D02*
D03*
X193209Y70095D02*
D03*
X197146Y235449D02*
D03*
X193209Y259071D02*
D03*
X197146Y266945D02*
D03*
Y282693D02*
D03*
X193209Y306315D02*
D03*
X201083Y7102D02*
D03*
X205020Y14976D02*
D03*
Y235449D02*
D03*
X201083Y259071D02*
D03*
X205020Y266945D02*
D03*
Y282693D02*
D03*
X201083Y290567D02*
D03*
X205020Y298441D02*
D03*
X208957Y7102D02*
D03*
X212894Y14976D02*
D03*
Y46473D02*
D03*
Y62221D02*
D03*
X208957Y70095D02*
D03*
X212894Y77969D02*
D03*
X208957Y85843D02*
D03*
X212894Y140961D02*
D03*
X208957Y290567D02*
D03*
X216831Y7102D02*
D03*
X220768Y14976D02*
D03*
X216831Y38598D02*
D03*
Y54347D02*
D03*
X220768Y77969D02*
D03*
X216831Y148835D02*
D03*
X220768Y188205D02*
D03*
X224705Y7102D02*
D03*
X228642Y14976D02*
D03*
X224705Y70095D02*
D03*
X228642Y188205D02*
D03*
X232579Y7102D02*
D03*
X236516Y14976D02*
D03*
X232579Y70095D02*
D03*
X236516Y77969D02*
D03*
X240453Y7102D02*
D03*
X244390Y14976D02*
D03*
X240453Y70095D02*
D03*
X244390Y77969D02*
D03*
Y251197D02*
D03*
X248327Y7102D02*
D03*
X252264Y14976D02*
D03*
X248327Y22851D02*
D03*
Y70095D02*
D03*
X252264Y77969D02*
D03*
Y172457D02*
D03*
X248327Y180331D02*
D03*
X252264Y188205D02*
D03*
X256201Y7102D02*
D03*
X260138Y14976D02*
D03*
X256201Y22851D02*
D03*
X260138Y77969D02*
D03*
Y172457D02*
D03*
X256201Y180331D02*
D03*
X260138Y188205D02*
D03*
X256201Y322063D02*
D03*
X264075Y7102D02*
D03*
X268012Y14976D02*
D03*
X264075Y22851D02*
D03*
X268012Y62221D02*
D03*
X264075Y70095D02*
D03*
X268012Y77969D02*
D03*
X264075Y85843D02*
D03*
X268012Y93717D02*
D03*
Y140961D02*
D03*
X264075Y180331D02*
D03*
X268012Y188205D02*
D03*
X264075Y196079D02*
D03*
X268012Y203953D02*
D03*
Y219701D02*
D03*
Y235449D02*
D03*
Y251197D02*
D03*
X264075Y322063D02*
D03*
X271949Y7102D02*
D03*
X275886Y14976D02*
D03*
X271949Y22851D02*
D03*
Y54347D02*
D03*
Y70095D02*
D03*
X275886Y77969D02*
D03*
X271949Y85843D02*
D03*
X275886Y93717D02*
D03*
X271949Y133087D02*
D03*
X275886Y172457D02*
D03*
Y188205D02*
D03*
Y219701D02*
D03*
X279823Y7102D02*
D03*
X283760Y62221D02*
D03*
X279823Y85843D02*
D03*
X283760Y93717D02*
D03*
X279823Y117339D02*
D03*
X283760Y125213D02*
D03*
Y172457D02*
D03*
Y188205D02*
D03*
Y203953D02*
D03*
X287697Y7102D02*
D03*
X291634Y93717D02*
D03*
X287697Y101591D02*
D03*
X291634Y188205D02*
D03*
X287697Y196079D02*
D03*
X291634Y203953D02*
D03*
X295571Y7102D02*
D03*
X299508Y14976D02*
D03*
X295571Y22851D02*
D03*
X299508Y30724D02*
D03*
X295571Y38598D02*
D03*
X299508Y46473D02*
D03*
Y62221D02*
D03*
X295571Y70095D02*
D03*
X299508Y77969D02*
D03*
X295571Y85843D02*
D03*
X299508Y93717D02*
D03*
X295571Y101591D02*
D03*
X299508Y109465D02*
D03*
X295571Y117339D02*
D03*
X299508Y125213D02*
D03*
X295571Y133087D02*
D03*
X299508Y140961D02*
D03*
X295571Y148835D02*
D03*
X299508Y156709D02*
D03*
X295571Y164583D02*
D03*
X299508Y172457D02*
D03*
X295571Y180331D02*
D03*
X299508Y188205D02*
D03*
X295571Y196079D02*
D03*
Y211827D02*
D03*
X299508Y251197D02*
D03*
Y266945D02*
D03*
X303445Y7102D02*
D03*
X307382Y14976D02*
D03*
X303445Y22851D02*
D03*
X307382Y30724D02*
D03*
X303445Y38598D02*
D03*
X307382Y46473D02*
D03*
X303445Y54347D02*
D03*
X307382Y62221D02*
D03*
X303445Y70095D02*
D03*
X307382Y77969D02*
D03*
X303445Y85843D02*
D03*
X307382Y93717D02*
D03*
X303445Y117339D02*
D03*
X307382Y125213D02*
D03*
X303445Y133087D02*
D03*
X307382Y140961D02*
D03*
X303445Y148835D02*
D03*
X307382Y156709D02*
D03*
X303445Y164583D02*
D03*
X307382Y172457D02*
D03*
X303445Y180331D02*
D03*
X307382Y188205D02*
D03*
Y203953D02*
D03*
X303445Y211827D02*
D03*
X307382Y219701D02*
D03*
Y251197D02*
D03*
Y266945D02*
D03*
X303445Y274819D02*
D03*
X201083Y243032D02*
D03*
X193209D02*
D03*
X185335D02*
D03*
X181398Y266945D02*
D03*
X176031Y259071D02*
D03*
X169587Y274819D02*
D03*
X208957Y306315D02*
D03*
X158478Y313487D02*
D03*
X47250Y324250D02*
D03*
D144*
X-137072Y-173823D02*
D03*
X-137072Y-173729D02*
D03*
X-137211Y-173628D02*
D03*
X-137200Y-173806D02*
D03*
X-137109Y-173654D02*
D03*
X-137211D02*
D03*
X-137344Y-173732D02*
D03*
Y-173638D02*
D03*
X-137129Y-173566D02*
D03*
X-137302Y-173806D02*
D03*
D145*
X-137338Y-173580D02*
D03*
D150*
X-137330Y-173523D02*
D03*
D151*
X-137253Y-173555D02*
D03*
X-137137Y-173756D02*
D03*
X-137105Y-173703D02*
D03*
X-137194Y-173756D02*
D03*
X-137162Y-173702D02*
D03*
X-137249Y-173756D02*
D03*
X-137217Y-173702D02*
D03*
X-137304Y-173757D02*
D03*
X-137272Y-173703D02*
D03*
%TF.MD5,38955ac4aeb3ae59f596461091d94348*%
M02*
