%TF.GenerationSoftware,Altium Limited,Altium Designer,22.10.1 (41)*%
G04 Layer_Color=8388736*
%FSLAX25Y25*%
%MOIN*%
%TF.SameCoordinates,BEAA4B2D-68BC-4382-99D5-5DCEA874A810*%
%TF.FilePolarity,Negative*%
%TF.FileFunction,Soldermask,Top*%
%TF.Part,Single*%
G01*
G75*
%TA.AperFunction,SMDPad,CuDef*%
%ADD69R,0.03950X0.03950*%
%ADD72R,0.03950X0.03950*%
%ADD73R,0.02965X0.04343*%
%TA.AperFunction,ComponentPad*%
%ADD75C,0.07887*%
%ADD76C,0.07099*%
%ADD77C,0.05359*%
%ADD78C,0.06784*%
%ADD79R,0.06784X0.06784*%
%ADD80C,0.06737*%
%ADD81R,0.06737X0.06737*%
%ADD82R,0.06737X0.06737*%
%ADD83O,0.06509X0.08674*%
%ADD84O,0.05328X0.07887*%
%ADD85C,0.03950*%
%ADD86R,0.07099X0.07099*%
%TA.AperFunction,ViaPad*%
%ADD87C,0.03162*%
%TA.AperFunction,SMDPad,CuDef*%
%ADD95O,0.01981X0.06509*%
%ADD96O,0.06509X0.01981*%
%ADD97R,0.05524X0.05131*%
%ADD98R,0.07493X0.10642*%
%TA.AperFunction,BGAPad,CuDef*%
%ADD99R,0.04343X0.04343*%
%TA.AperFunction,ConnectorPad*%
%ADD100R,0.04343X0.06706*%
%ADD101R,0.06706X0.04343*%
%TA.AperFunction,SMDPad,CuDef*%
%ADD102R,0.02572X0.05918*%
%ADD103R,0.04343X0.02965*%
%ADD104R,0.08674X0.04737*%
%ADD105R,0.05524X0.04147*%
G04:AMPARAMS|DCode=106|XSize=59.58mil|YSize=32.41mil|CornerRadius=7.05mil|HoleSize=0mil|Usage=FLASHONLY|Rotation=90.000|XOffset=0mil|YOffset=0mil|HoleType=Round|Shape=RoundedRectangle|*
%AMROUNDEDRECTD106*
21,1,0.05958,0.01831,0,0,90.0*
21,1,0.04547,0.03241,0,0,90.0*
1,1,0.01410,0.00915,0.02274*
1,1,0.01410,0.00915,-0.02274*
1,1,0.01410,-0.00915,-0.02274*
1,1,0.01410,-0.00915,0.02274*
%
%ADD106ROUNDEDRECTD106*%
G04:AMPARAMS|DCode=107|XSize=55.64mil|YSize=31.23mil|CornerRadius=6.9mil|HoleSize=0mil|Usage=FLASHONLY|Rotation=0.000|XOffset=0mil|YOffset=0mil|HoleType=Round|Shape=RoundedRectangle|*
%AMROUNDEDRECTD107*
21,1,0.05564,0.01742,0,0,0.0*
21,1,0.04183,0.03123,0,0,0.0*
1,1,0.01381,0.02092,-0.00871*
1,1,0.01381,-0.02092,-0.00871*
1,1,0.01381,-0.02092,0.00871*
1,1,0.01381,0.02092,0.00871*
%
%ADD107ROUNDEDRECTD107*%
%ADD108O,0.03162X0.07887*%
%ADD109R,0.03950X0.05524*%
%ADD110R,0.04147X0.05524*%
%ADD111O,0.02965X0.08674*%
%ADD112R,0.05328X0.06312*%
D69*
X135674Y249226D02*
D03*
Y243320D02*
D03*
X37498Y272661D02*
D03*
Y266756D02*
D03*
Y284407D02*
D03*
Y278502D02*
D03*
X52200Y284407D02*
D03*
Y278502D02*
D03*
X46498Y284407D02*
D03*
Y278502D02*
D03*
X257071Y317905D02*
D03*
Y311999D02*
D03*
X18971Y311763D02*
D03*
Y317668D02*
D03*
X24572Y311770D02*
D03*
Y317676D02*
D03*
X24472Y306276D02*
D03*
Y300370D02*
D03*
X18971Y306283D02*
D03*
Y300378D02*
D03*
X43071Y219270D02*
D03*
Y225176D02*
D03*
X63474Y271073D02*
D03*
Y265168D02*
D03*
X75174Y271073D02*
D03*
Y265168D02*
D03*
X69324Y271073D02*
D03*
Y265168D02*
D03*
X129974Y243320D02*
D03*
Y249226D02*
D03*
X266571Y114676D02*
D03*
Y108770D02*
D03*
X209272Y114929D02*
D03*
Y109023D02*
D03*
X154271Y114929D02*
D03*
Y109023D02*
D03*
X99072Y114176D02*
D03*
Y108270D02*
D03*
X216971Y84776D02*
D03*
Y78870D02*
D03*
X159971Y84776D02*
D03*
Y78870D02*
D03*
X104972Y84276D02*
D03*
Y78370D02*
D03*
X49472Y83776D02*
D03*
Y77870D02*
D03*
X232572Y281753D02*
D03*
Y275847D02*
D03*
X231572Y311999D02*
D03*
Y317905D02*
D03*
X225700Y300023D02*
D03*
Y305929D02*
D03*
X231572Y300023D02*
D03*
Y305929D02*
D03*
D72*
X125150Y292520D02*
D03*
X131056D02*
D03*
X88127Y312520D02*
D03*
X94033D02*
D03*
X74721Y306620D02*
D03*
X80627D02*
D03*
X74721Y312620D02*
D03*
X80627D02*
D03*
X131056Y298220D02*
D03*
X125150D02*
D03*
X94033Y306520D02*
D03*
X88127D02*
D03*
X125150Y286520D02*
D03*
X131056D02*
D03*
X131048Y264120D02*
D03*
X125143D02*
D03*
D73*
X125620Y313320D02*
D03*
X131329D02*
D03*
X131350Y305320D02*
D03*
X125641D02*
D03*
X251896Y293023D02*
D03*
X257605D02*
D03*
X251917Y300000D02*
D03*
X257626D02*
D03*
D75*
X284500Y219500D02*
D03*
D76*
X302217D02*
D03*
X66268Y299820D02*
D03*
Y289820D02*
D03*
Y279820D02*
D03*
D77*
X28740Y249650D02*
D03*
X21260D02*
D03*
D78*
X188000Y221000D02*
D03*
X178000D02*
D03*
X198000D02*
D03*
X208000D02*
D03*
X188000Y193730D02*
D03*
X198000D02*
D03*
X208000D02*
D03*
X228000D02*
D03*
X218000D02*
D03*
X178000D02*
D03*
X168000D02*
D03*
D79*
Y221000D02*
D03*
X238000Y193730D02*
D03*
D80*
X18338Y106153D02*
D03*
Y115996D02*
D03*
Y125838D02*
D03*
Y135681D02*
D03*
Y165208D02*
D03*
Y145523D02*
D03*
Y155366D02*
D03*
X119035Y171956D02*
D03*
X109193D02*
D03*
X128878D02*
D03*
X99350D02*
D03*
X89508D02*
D03*
X79665D02*
D03*
X69823D02*
D03*
X290271Y129525D02*
D03*
Y139368D02*
D03*
Y119683D02*
D03*
Y149210D02*
D03*
Y159053D02*
D03*
Y168895D02*
D03*
Y178738D02*
D03*
X194931Y20023D02*
D03*
X204773D02*
D03*
X185088D02*
D03*
X214616D02*
D03*
X224459D02*
D03*
X234301D02*
D03*
X244144D02*
D03*
X142407D02*
D03*
X132565D02*
D03*
X122722D02*
D03*
X112880D02*
D03*
X83352D02*
D03*
X103037D02*
D03*
X93195D02*
D03*
X171559Y171956D02*
D03*
X181401D02*
D03*
X191244D02*
D03*
X201086D02*
D03*
X230614D02*
D03*
X210929D02*
D03*
X220772D02*
D03*
X119114Y197523D02*
D03*
X109272D02*
D03*
X128957D02*
D03*
X99429D02*
D03*
X89587D02*
D03*
X79744D02*
D03*
X69901D02*
D03*
X290772Y84395D02*
D03*
Y74553D02*
D03*
Y64710D02*
D03*
Y54868D02*
D03*
Y25340D02*
D03*
Y45025D02*
D03*
Y35183D02*
D03*
X18338Y61023D02*
D03*
Y51181D02*
D03*
Y70866D02*
D03*
Y41338D02*
D03*
Y31496D02*
D03*
Y21653D02*
D03*
Y11811D02*
D03*
D81*
Y175051D02*
D03*
X290271Y109840D02*
D03*
X290772Y15498D02*
D03*
X18338Y80708D02*
D03*
D82*
X138720Y171956D02*
D03*
X175246Y20023D02*
D03*
X73510D02*
D03*
X240457Y171956D02*
D03*
X138799Y197523D02*
D03*
D83*
X306165Y308583D02*
D03*
X276835D02*
D03*
D84*
X306756Y323543D02*
D03*
X276244D02*
D03*
D85*
X301343Y312717D02*
D03*
X281658D02*
D03*
D86*
X66268Y309820D02*
D03*
D87*
X173500Y185000D02*
D03*
X170756Y288976D02*
D03*
X179024Y291732D02*
D03*
X173512D02*
D03*
X168000D02*
D03*
X176268Y288976D02*
D03*
X179024Y297244D02*
D03*
X173512D02*
D03*
X168000D02*
D03*
X170756Y294488D02*
D03*
X176268D02*
D03*
Y300000D02*
D03*
X170756D02*
D03*
D95*
X109659Y265053D02*
D03*
X107691D02*
D03*
X105722D02*
D03*
X103754D02*
D03*
X101785D02*
D03*
X99817D02*
D03*
X97848D02*
D03*
X95880D02*
D03*
X93911D02*
D03*
X91943D02*
D03*
X89974D02*
D03*
X88006D02*
D03*
Y298320D02*
D03*
X89974D02*
D03*
X91943D02*
D03*
X93911D02*
D03*
X95880D02*
D03*
X97848D02*
D03*
X99817D02*
D03*
X101785D02*
D03*
X103754D02*
D03*
X105722D02*
D03*
X107691D02*
D03*
X109659D02*
D03*
D96*
X82199Y270860D02*
D03*
Y272828D02*
D03*
Y274797D02*
D03*
Y276765D02*
D03*
Y278734D02*
D03*
Y280702D02*
D03*
Y282671D02*
D03*
Y284639D02*
D03*
Y286608D02*
D03*
Y288576D02*
D03*
Y290545D02*
D03*
Y292513D02*
D03*
X115466D02*
D03*
Y290545D02*
D03*
Y288576D02*
D03*
Y286608D02*
D03*
Y284639D02*
D03*
Y282671D02*
D03*
Y280702D02*
D03*
Y278734D02*
D03*
Y276765D02*
D03*
Y274797D02*
D03*
Y272828D02*
D03*
Y270860D02*
D03*
D97*
X293000Y256866D02*
D03*
Y265134D02*
D03*
X284750Y256866D02*
D03*
Y265134D02*
D03*
X293000Y239115D02*
D03*
Y247383D02*
D03*
X284750Y239115D02*
D03*
Y247383D02*
D03*
D98*
X52263Y237752D02*
D03*
Y253500D02*
D03*
D99*
X179024Y300000D02*
D03*
X173512Y288976D02*
D03*
X179024D02*
D03*
Y294488D02*
D03*
X173512D02*
D03*
X168000D02*
D03*
Y288976D02*
D03*
X173512Y300000D02*
D03*
X168000D02*
D03*
D100*
X191898Y253976D02*
D03*
X156898D02*
D03*
X161898D02*
D03*
X166898D02*
D03*
X171898D02*
D03*
X196898D02*
D03*
X176898D02*
D03*
X181898D02*
D03*
X186898D02*
D03*
X201898D02*
D03*
D101*
X214850Y259882D02*
D03*
Y264882D02*
D03*
Y269882D02*
D03*
Y274882D02*
D03*
Y279882D02*
D03*
Y284882D02*
D03*
Y289882D02*
D03*
Y294882D02*
D03*
Y299882D02*
D03*
Y304882D02*
D03*
Y309882D02*
D03*
Y314882D02*
D03*
Y319882D02*
D03*
Y324882D02*
D03*
X143984Y259882D02*
D03*
Y264882D02*
D03*
Y269882D02*
D03*
Y274882D02*
D03*
Y279882D02*
D03*
Y284882D02*
D03*
Y289882D02*
D03*
Y294882D02*
D03*
Y299882D02*
D03*
Y304882D02*
D03*
Y309882D02*
D03*
Y314882D02*
D03*
Y319882D02*
D03*
Y324882D02*
D03*
D102*
X296618Y308583D02*
D03*
X286382D02*
D03*
X294059D02*
D03*
X291500D02*
D03*
X288941D02*
D03*
D103*
X31298Y272363D02*
D03*
Y266654D02*
D03*
X24798Y284709D02*
D03*
Y279000D02*
D03*
X24298Y266654D02*
D03*
Y272363D02*
D03*
X46027Y272340D02*
D03*
Y266631D02*
D03*
X31298Y284709D02*
D03*
Y279000D02*
D03*
X176399Y50500D02*
D03*
Y44791D02*
D03*
X188541Y50500D02*
D03*
Y44791D02*
D03*
X200684Y50500D02*
D03*
Y44791D02*
D03*
X285444Y272553D02*
D03*
Y278262D02*
D03*
X284500Y233131D02*
D03*
Y227422D02*
D03*
X293000Y233131D02*
D03*
Y227422D02*
D03*
X36772Y219169D02*
D03*
Y224878D02*
D03*
X123974Y243466D02*
D03*
Y249175D02*
D03*
X117474D02*
D03*
Y243466D02*
D03*
X104474D02*
D03*
Y249175D02*
D03*
X110974D02*
D03*
Y243466D02*
D03*
X97974D02*
D03*
Y249175D02*
D03*
X91474Y243466D02*
D03*
Y249175D02*
D03*
X84974Y243466D02*
D03*
Y249175D02*
D03*
X78474Y243466D02*
D03*
Y249175D02*
D03*
X71974Y243466D02*
D03*
Y249175D02*
D03*
X220970Y142791D02*
D03*
Y148500D02*
D03*
X176327Y142791D02*
D03*
Y148500D02*
D03*
X89222Y142876D02*
D03*
Y148584D02*
D03*
X77079Y142876D02*
D03*
Y148584D02*
D03*
X64936Y142876D02*
D03*
Y148584D02*
D03*
X52793Y142876D02*
D03*
Y148584D02*
D03*
X108756Y142791D02*
D03*
Y148500D02*
D03*
X121042Y142791D02*
D03*
Y148500D02*
D03*
X133327Y142791D02*
D03*
Y148500D02*
D03*
X145613Y142791D02*
D03*
Y148500D02*
D03*
X164399Y142791D02*
D03*
Y148500D02*
D03*
X188184Y142791D02*
D03*
Y148500D02*
D03*
X200042Y142791D02*
D03*
Y148500D02*
D03*
X233256Y142791D02*
D03*
Y148500D02*
D03*
X245542Y142791D02*
D03*
Y148500D02*
D03*
X257827Y142791D02*
D03*
Y148500D02*
D03*
X263970Y142791D02*
D03*
Y148500D02*
D03*
X251684Y142791D02*
D03*
Y148500D02*
D03*
X239399Y142791D02*
D03*
Y148500D02*
D03*
X227113Y142791D02*
D03*
Y148500D02*
D03*
X205899Y142791D02*
D03*
Y148500D02*
D03*
X194113Y142791D02*
D03*
Y148500D02*
D03*
X182256Y142791D02*
D03*
Y148500D02*
D03*
X170399Y142791D02*
D03*
Y148500D02*
D03*
X151756Y142791D02*
D03*
Y148500D02*
D03*
X139470Y142791D02*
D03*
Y148500D02*
D03*
X127184Y142791D02*
D03*
Y148500D02*
D03*
X114899Y142791D02*
D03*
Y148500D02*
D03*
X95293Y142876D02*
D03*
Y148584D02*
D03*
X83150Y142876D02*
D03*
Y148584D02*
D03*
X71007Y142876D02*
D03*
Y148584D02*
D03*
X58864D02*
D03*
Y142876D02*
D03*
X257184Y50500D02*
D03*
Y44791D02*
D03*
X263256Y50500D02*
D03*
Y44791D02*
D03*
X245041Y50500D02*
D03*
Y44791D02*
D03*
X251113Y50500D02*
D03*
Y44791D02*
D03*
X238970Y50500D02*
D03*
Y44791D02*
D03*
X232899Y50500D02*
D03*
Y44791D02*
D03*
X220756Y50500D02*
D03*
Y44791D02*
D03*
X226827Y50500D02*
D03*
Y44791D02*
D03*
X206756Y50500D02*
D03*
Y44791D02*
D03*
X194613Y50500D02*
D03*
Y44791D02*
D03*
X182470Y50500D02*
D03*
Y44791D02*
D03*
X164256Y50500D02*
D03*
Y44791D02*
D03*
X170327Y50500D02*
D03*
Y44791D02*
D03*
X144756Y50500D02*
D03*
Y44791D02*
D03*
X150756Y50500D02*
D03*
Y44791D02*
D03*
X138756Y50500D02*
D03*
Y44791D02*
D03*
X132756Y50500D02*
D03*
Y44791D02*
D03*
X126756Y50500D02*
D03*
Y44791D02*
D03*
X120756Y50500D02*
D03*
Y44791D02*
D03*
X90113Y50000D02*
D03*
Y44291D02*
D03*
X77827Y50000D02*
D03*
Y44291D02*
D03*
X65541Y50000D02*
D03*
Y44291D02*
D03*
X53256Y50000D02*
D03*
Y44291D02*
D03*
X108756Y50500D02*
D03*
Y44791D02*
D03*
X114756Y50500D02*
D03*
Y44791D02*
D03*
X96256Y50000D02*
D03*
Y44291D02*
D03*
X83970Y50000D02*
D03*
Y44291D02*
D03*
X71684Y50000D02*
D03*
Y44291D02*
D03*
X59399Y50000D02*
D03*
Y44291D02*
D03*
X292500Y272646D02*
D03*
Y278354D02*
D03*
X251107Y312490D02*
D03*
Y318199D02*
D03*
X225272D02*
D03*
Y312490D02*
D03*
D104*
X266500Y317693D02*
D03*
Y304307D02*
D03*
X241772Y318176D02*
D03*
Y304790D02*
D03*
D105*
X246193Y297403D02*
D03*
X246171Y289823D02*
D03*
X236350Y293543D02*
D03*
X273047Y293503D02*
D03*
X263226Y297223D02*
D03*
X263205Y289643D02*
D03*
D106*
X259000Y259768D02*
D03*
X264000D02*
D03*
X239000D02*
D03*
X244000D02*
D03*
X249000D02*
D03*
X254000D02*
D03*
X269000D02*
D03*
X274000D02*
D03*
Y281421D02*
D03*
X269000D02*
D03*
X264000D02*
D03*
X259000D02*
D03*
X254000D02*
D03*
X249000D02*
D03*
X244000D02*
D03*
X239000D02*
D03*
D107*
X284059Y294240D02*
D03*
Y290500D02*
D03*
Y286760D02*
D03*
X293941D02*
D03*
Y290500D02*
D03*
Y294240D02*
D03*
D108*
X46271Y318469D02*
D03*
X41271D02*
D03*
X36272D02*
D03*
X31271D02*
D03*
X46271Y296224D02*
D03*
X41271D02*
D03*
X36272D02*
D03*
X31271D02*
D03*
D109*
X43271Y185744D02*
D03*
Y213303D02*
D03*
D110*
X148474Y215399D02*
D03*
X152174Y225220D02*
D03*
X144734Y225242D02*
D03*
X135188Y215399D02*
D03*
X138889Y225220D02*
D03*
X131448Y225242D02*
D03*
X121903Y215399D02*
D03*
X125603Y225220D02*
D03*
X118163Y225242D02*
D03*
X108617Y215320D02*
D03*
X112317Y225142D02*
D03*
X104877Y225163D02*
D03*
X95331Y215399D02*
D03*
X99031Y225220D02*
D03*
X91591Y225242D02*
D03*
X82046Y215399D02*
D03*
X85746Y225220D02*
D03*
X78306Y225242D02*
D03*
X68760Y215399D02*
D03*
X72460Y225220D02*
D03*
X65020Y225242D02*
D03*
X55474Y215399D02*
D03*
X59174Y225220D02*
D03*
X51734Y225242D02*
D03*
D111*
X259106Y84661D02*
D03*
X254106D02*
D03*
X249106D02*
D03*
X244106D02*
D03*
X239106D02*
D03*
X234106D02*
D03*
X229106D02*
D03*
X224106D02*
D03*
X259106Y63402D02*
D03*
X254106D02*
D03*
X249106D02*
D03*
X244106D02*
D03*
X239106D02*
D03*
X234106D02*
D03*
X229106D02*
D03*
X224106D02*
D03*
X202106Y84661D02*
D03*
X197106D02*
D03*
X192106D02*
D03*
X187106D02*
D03*
X182106D02*
D03*
X177106D02*
D03*
X172106D02*
D03*
X167106D02*
D03*
X202106Y63402D02*
D03*
X197106D02*
D03*
X192106D02*
D03*
X187106D02*
D03*
X182106D02*
D03*
X177106D02*
D03*
X172106D02*
D03*
X167106D02*
D03*
X147106Y84661D02*
D03*
X142106D02*
D03*
X137106D02*
D03*
X132106D02*
D03*
X127106D02*
D03*
X122106D02*
D03*
X117106D02*
D03*
X112106D02*
D03*
X147106Y63402D02*
D03*
X142106D02*
D03*
X137106D02*
D03*
X132106D02*
D03*
X127106D02*
D03*
X122106D02*
D03*
X117106D02*
D03*
X112106D02*
D03*
X56756Y62661D02*
D03*
X61756D02*
D03*
X66756D02*
D03*
X71756D02*
D03*
X76756D02*
D03*
X81756D02*
D03*
X86756D02*
D03*
X91756D02*
D03*
X56756Y83921D02*
D03*
X61756D02*
D03*
X66756D02*
D03*
X71756D02*
D03*
X76756D02*
D03*
X81756D02*
D03*
X86756D02*
D03*
X91756D02*
D03*
X259405Y129791D02*
D03*
X254405D02*
D03*
X249405D02*
D03*
X244405D02*
D03*
X239405D02*
D03*
X234405D02*
D03*
X229405D02*
D03*
X224405D02*
D03*
X259405Y108531D02*
D03*
X254405D02*
D03*
X249405D02*
D03*
X244405D02*
D03*
X239405D02*
D03*
X234405D02*
D03*
X229405D02*
D03*
X224405D02*
D03*
X167256Y108791D02*
D03*
X172256D02*
D03*
X177256D02*
D03*
X182256D02*
D03*
X187256D02*
D03*
X192256D02*
D03*
X197256D02*
D03*
X202256D02*
D03*
X167256Y130051D02*
D03*
X172256D02*
D03*
X177256D02*
D03*
X182256D02*
D03*
X187256D02*
D03*
X192256D02*
D03*
X197256D02*
D03*
X202256D02*
D03*
X112256Y108791D02*
D03*
X117256D02*
D03*
X122256D02*
D03*
X127256D02*
D03*
X132256D02*
D03*
X137256D02*
D03*
X142256D02*
D03*
X147256D02*
D03*
X112256Y130051D02*
D03*
X117256D02*
D03*
X122256D02*
D03*
X127256D02*
D03*
X132256D02*
D03*
X137256D02*
D03*
X142256D02*
D03*
X147256D02*
D03*
X56756Y108161D02*
D03*
X61756D02*
D03*
X66756D02*
D03*
X71756D02*
D03*
X76756D02*
D03*
X81756D02*
D03*
X86756D02*
D03*
X91756D02*
D03*
X56756Y129421D02*
D03*
X61756D02*
D03*
X66756D02*
D03*
X71756D02*
D03*
X76756D02*
D03*
X81756D02*
D03*
X86756D02*
D03*
X91756D02*
D03*
D112*
X125325Y270990D02*
D03*
Y279651D02*
D03*
X131624D02*
D03*
Y270990D02*
D03*
%TF.MD5,12aa524326cd297e4487783b15ea1a2d*%
M02*
