%TF.GenerationSoftware,Altium Limited,Altium Designer,22.10.1 (41)*%
G04 Layer_Color=16711935*
%FSLAX25Y25*%
%MOIN*%
%TF.SameCoordinates,BEAA4B2D-68BC-4382-99D5-5DCEA874A810*%
%TF.FilePolarity,Positive*%
%TF.FileFunction,Other,Mechanical_13*%
%TF.Part,Single*%
G01*
G75*
%TA.AperFunction,NonConductor*%
%ADD56C,0.00787*%
%ADD59C,0.00500*%
%ADD93C,0.00394*%
%ADD118C,0.00050*%
%ADD119C,0.00001*%
%TA.AperFunction,SMDPad,CuDef*%
%ADD121C,0.00001*%
%TA.AperFunction,NonConductor*%
%ADD148R,0.11496X0.02436*%
%ADD149R,0.02436X0.11496*%
D56*
X256003Y281442D02*
G03*
X256003Y281442I-394J0D01*
G01*
X18732Y187846D02*
G03*
X18732Y187846I-394J0D01*
G01*
X151909Y171956D02*
G03*
X151909Y171956I-394J0D01*
G01*
X290665Y97045D02*
G03*
X290665Y97045I-394J0D01*
G01*
X162844Y20023D02*
G03*
X162844Y20023I-394J0D01*
G01*
X45717Y276500D02*
G03*
X45717Y276500I-394J0D01*
G01*
X234236Y259768D02*
G03*
X234236Y259768I-394J0D01*
G01*
X279335Y294220D02*
G03*
X279335Y294220I-394J0D01*
G01*
X61108Y20023D02*
G03*
X61108Y20023I-394J0D01*
G01*
X253645Y171956D02*
G03*
X253645Y171956I-394J0D01*
G01*
X151988Y197523D02*
G03*
X151988Y197523I-394J0D01*
G01*
X291165Y2702D02*
G03*
X291165Y2702I-394J0D01*
G01*
X18732Y93503D02*
G03*
X18732Y93503I-394J0D01*
G01*
X261579Y305095D02*
Y316905D01*
X271421D01*
Y305095D02*
Y316905D01*
X261579Y305095D02*
X271421D01*
X236850Y305577D02*
Y317389D01*
X246693D01*
Y305577D02*
Y317389D01*
X236850Y305577D02*
X246693D01*
D59*
X36811Y246500D02*
G03*
X36811Y246500I-11811J0D01*
G01*
X40000Y249000D02*
X45000D01*
X42500Y246500D02*
Y251500D01*
X5000Y249000D02*
X10000D01*
X244743Y274395D02*
Y288489D01*
X219940Y274395D02*
X244743D01*
X219940D02*
Y288489D01*
X244743D01*
X4953Y96507D02*
X27590D01*
Y184696D01*
X4953D02*
X27590D01*
X4953Y96507D02*
Y184696D01*
X60177Y185342D02*
X148366D01*
Y162704D02*
Y185342D01*
X60177Y162704D02*
X148366D01*
X60177D02*
Y185342D01*
X303657Y100194D02*
Y188383D01*
X281019Y100194D02*
X303657D01*
X281019D02*
Y188383D01*
X303657D01*
X165600Y6637D02*
X253789D01*
X165600D02*
Y29275D01*
X253789D01*
Y6637D02*
Y29275D01*
X25657Y301874D02*
X45342D01*
X25657Y286126D02*
X45342D01*
X25657D02*
Y301874D01*
X45342Y286126D02*
Y301874D01*
X236815Y262917D02*
Y278272D01*
X276185Y262917D02*
Y278272D01*
X236815Y262917D02*
X276185D01*
X236815Y278272D02*
X276185D01*
X285801Y296258D02*
X292199D01*
Y284742D02*
Y296258D01*
X285801Y284742D02*
X292199D01*
X285801D02*
Y296258D01*
X152053Y6637D02*
Y29275D01*
X63864D02*
X152053D01*
X63864Y6637D02*
Y29275D01*
Y6637D02*
X152053D01*
X161913Y162704D02*
Y185342D01*
Y162704D02*
X250102D01*
Y185342D01*
X161913D02*
X250102D01*
X60256Y210909D02*
X148445D01*
Y188271D02*
Y210909D01*
X60256Y188271D02*
X148445D01*
X60256D02*
Y210909D01*
X281520Y94041D02*
X304157D01*
X281520Y5852D02*
Y94041D01*
Y5852D02*
X304157D01*
Y94041D01*
X4953Y2165D02*
Y90354D01*
X27590D01*
Y2165D02*
Y90354D01*
X4953Y2165D02*
X27590D01*
D93*
X111037Y271450D02*
G03*
X111037Y271450I-1969J0D01*
G01*
X34244Y303016D02*
G03*
X34244Y303016I-1969J0D01*
G01*
X227630Y69898D02*
G03*
X227630Y69898I-1969J0D01*
G01*
X170630D02*
G03*
X170630Y69898I-1969J0D01*
G01*
X115630D02*
G03*
X115630Y69898I-1969J0D01*
G01*
X60279Y69157D02*
G03*
X60279Y69157I-1969J0D01*
G01*
X259819Y123295D02*
G03*
X259819Y123295I-1969J0D01*
G01*
X202669Y123555D02*
G03*
X202669Y123555I-1969J0D01*
G01*
X147669D02*
G03*
X147669Y123555I-1969J0D01*
G01*
X92169Y122925D02*
G03*
X92169Y122925I-1969J0D01*
G01*
X85053Y295466D02*
X112612D01*
X85053Y267907D02*
X112612D01*
X85053D02*
Y295466D01*
X112612Y267907D02*
Y295466D01*
X162016Y216079D02*
Y225921D01*
Y216079D02*
X213984D01*
Y225921D01*
X162016D02*
X213984D01*
X137249Y243124D02*
Y249423D01*
X134099Y243124D02*
Y249423D01*
X137249D01*
X134099Y243124D02*
X137249D01*
X290342Y256866D02*
Y265134D01*
X295657Y256866D02*
Y265134D01*
X290342Y256866D02*
X295657D01*
X290342Y265134D02*
X295657D01*
X46515Y236571D02*
X58011D01*
X46515Y254681D02*
X58011D01*
X46515Y236571D02*
Y254681D01*
X58011Y236571D02*
Y254681D01*
X275752Y307008D02*
Y328268D01*
X307248Y307008D02*
Y328268D01*
X275752Y307008D02*
X307248D01*
X306067Y328268D02*
X307248D01*
X306067D02*
Y332992D01*
X276933D02*
X306067D01*
X276933Y328268D02*
Y332992D01*
X275752Y328268D02*
X276933D01*
X29527Y266359D02*
Y272658D01*
X33070Y266359D02*
Y272658D01*
X29527D02*
X33070D01*
X29527Y266359D02*
X33070D01*
X26570Y278705D02*
Y285004D01*
X23027Y278705D02*
Y285004D01*
X26570D01*
X23027Y278705D02*
X26570D01*
X26070Y266359D02*
Y272658D01*
X22527Y266359D02*
Y272658D01*
Y266359D02*
X26070D01*
X22527Y272658D02*
X26070D01*
X44255Y266336D02*
Y272635D01*
X47799Y266336D02*
Y272635D01*
X44255D02*
X47799D01*
X44255Y266336D02*
X47799D01*
X35924Y272858D02*
X39073D01*
X35924Y266559D02*
X39073D01*
X35924D02*
Y272858D01*
X39073Y266559D02*
Y272858D01*
Y278305D02*
Y284604D01*
X35924Y278305D02*
Y284604D01*
X39073D01*
X35924Y278305D02*
X39073D01*
X33070Y278705D02*
Y285004D01*
X29527Y278705D02*
Y285004D01*
X33070D01*
X29527Y278705D02*
X33070D01*
X53775Y278305D02*
Y284604D01*
X50625Y278305D02*
Y284604D01*
X53775D01*
X50625Y278305D02*
X53775D01*
X48073D02*
Y284604D01*
X44924Y278305D02*
Y284604D01*
X48073D01*
X44924Y278305D02*
X48073D01*
X124953Y294095D02*
X131253D01*
X124953Y290946D02*
X131253D01*
X124953D02*
Y294095D01*
X131253Y290946D02*
Y294095D01*
X125325Y315092D02*
X131624D01*
X125325Y311549D02*
X131624D01*
X125325D02*
Y315092D01*
X131624Y311549D02*
Y315092D01*
X125346Y303549D02*
X131645D01*
X125346Y307092D02*
X131645D01*
Y303549D02*
Y307092D01*
X125346Y303549D02*
Y307092D01*
X174627Y50795D02*
X178170D01*
X174627Y44496D02*
X178170D01*
Y50795D01*
X174627Y44496D02*
Y50795D01*
X186770D02*
X190313D01*
X186770Y44496D02*
X190313D01*
Y50795D01*
X186770Y44496D02*
Y50795D01*
X198913D02*
X202456D01*
X198913Y44496D02*
X202456D01*
Y50795D01*
X198913Y44496D02*
Y50795D01*
X87930Y314095D02*
X94229D01*
X87930Y310946D02*
X94229D01*
X87930D02*
Y314095D01*
X94229Y310946D02*
Y314095D01*
X74525Y308195D02*
X80824D01*
X74525Y305046D02*
X80824D01*
X74525D02*
Y308195D01*
X80824Y305046D02*
Y308195D01*
X74525Y314195D02*
X80824D01*
X74525Y311046D02*
X80824D01*
X74525D02*
Y314195D01*
X80824Y311046D02*
Y314195D01*
X283555Y286106D02*
Y297602D01*
X265445Y286106D02*
Y297602D01*
X283555D01*
X265445Y286106D02*
X283555D01*
X255497Y318102D02*
X258646D01*
X255497Y311802D02*
X258646D01*
Y318102D01*
X255497Y311802D02*
Y318102D01*
X251601Y294795D02*
X257900D01*
X251601Y291251D02*
X257900D01*
X251601D02*
Y294795D01*
X257900Y291251D02*
Y294795D01*
X251622Y298228D02*
Y301772D01*
X257921Y298228D02*
Y301772D01*
X251622D02*
X257921D01*
X251622Y298228D02*
X257921D01*
X283672Y272258D02*
Y278557D01*
X287216Y272258D02*
Y278557D01*
X283672Y272258D02*
X287216D01*
X283672Y278557D02*
X287216D01*
X282092Y256866D02*
Y265134D01*
X287407Y256866D02*
Y265134D01*
X282092Y256866D02*
X287407D01*
X282092Y265134D02*
X287407D01*
X290342Y239115D02*
X295657D01*
X290342Y247383D02*
X295657D01*
X290342Y239115D02*
Y247383D01*
X295657Y239115D02*
Y247383D01*
X282092Y239115D02*
X287407D01*
X282092Y247383D02*
X287407D01*
X282092Y239115D02*
Y247383D01*
X287407Y239115D02*
Y247383D01*
X282728Y233426D02*
X286272D01*
X282728Y227127D02*
X286272D01*
Y233426D01*
X282728Y227127D02*
Y233426D01*
X291228D02*
X294772D01*
X291228Y227127D02*
X294772D01*
Y233426D01*
X291228Y227127D02*
Y233426D01*
X17397Y311566D02*
X20546D01*
X17397Y317865D02*
X20546D01*
X17397Y311566D02*
Y317865D01*
X20546Y311566D02*
Y317865D01*
X48811Y299472D02*
Y315220D01*
X28732Y299472D02*
Y315220D01*
X48811D01*
X28732Y299472D02*
X48811D01*
X22997Y311574D02*
Y317873D01*
X26146Y311574D02*
Y317873D01*
X22997Y311574D02*
X26146D01*
X22997Y317873D02*
X26146D01*
X26046Y300173D02*
Y306473D01*
X22897Y300173D02*
Y306473D01*
X26046D01*
X22897Y300173D02*
X26046D01*
X17397Y306480D02*
X20546D01*
X17397Y300181D02*
X20546D01*
Y306480D01*
X17397Y300181D02*
Y306480D01*
X35000Y218874D02*
X38543D01*
X35000Y225173D02*
X38543D01*
X35000Y218874D02*
Y225173D01*
X38543Y218874D02*
Y225173D01*
X41497Y219074D02*
Y225373D01*
X44646Y219074D02*
Y225373D01*
X41497Y219074D02*
X44646D01*
X41497Y225373D02*
X44646D01*
X65049Y264971D02*
Y271270D01*
X61900Y264971D02*
Y271270D01*
X65049D01*
X61900Y264971D02*
X65049D01*
X76749D02*
Y271270D01*
X73599Y264971D02*
Y271270D01*
X76749D01*
X73599Y264971D02*
X76749D01*
X70899D02*
Y271270D01*
X67750Y264971D02*
Y271270D01*
X70899D01*
X67750Y264971D02*
X70899D01*
X128400Y243124D02*
X131549D01*
X128400Y249423D02*
X131549D01*
X128400Y243124D02*
Y249423D01*
X131549Y243124D02*
Y249423D01*
X122203Y243171D02*
X125746D01*
X122203Y249470D02*
X125746D01*
X122203Y243171D02*
Y249470D01*
X125746Y243171D02*
Y249470D01*
X119246Y243171D02*
Y249470D01*
X115703Y243171D02*
Y249470D01*
X119246D01*
X115703Y243171D02*
X119246D01*
X102703D02*
X106246D01*
X102703Y249470D02*
X106246D01*
X102703Y243171D02*
Y249470D01*
X106246Y243171D02*
Y249470D01*
X112746Y243171D02*
Y249470D01*
X109203Y243171D02*
Y249470D01*
X112746D01*
X109203Y243171D02*
X112746D01*
X96203D02*
X99746D01*
X96203Y249470D02*
X99746D01*
X96203Y243171D02*
Y249470D01*
X99746Y243171D02*
Y249470D01*
X89703Y243171D02*
X93246D01*
X89703Y249470D02*
X93246D01*
X89703Y243171D02*
Y249470D01*
X93246Y243171D02*
Y249470D01*
X83203Y243171D02*
X86746D01*
X83203Y249470D02*
X86746D01*
X83203Y243171D02*
Y249470D01*
X86746Y243171D02*
Y249470D01*
X76703Y243171D02*
X80246D01*
X76703Y249470D02*
X80246D01*
X76703Y243171D02*
Y249470D01*
X80246Y243171D02*
Y249470D01*
X70203Y243171D02*
X73746D01*
X70203Y249470D02*
X73746D01*
X70203Y243171D02*
Y249470D01*
X73746Y243171D02*
Y249470D01*
X219198Y142496D02*
X222742D01*
X219198Y148795D02*
X222742D01*
X219198Y142496D02*
Y148795D01*
X222742Y142496D02*
Y148795D01*
X174556Y142496D02*
X178099D01*
X174556Y148795D02*
X178099D01*
X174556Y142496D02*
Y148795D01*
X178099Y142496D02*
Y148795D01*
X87450Y142580D02*
X90993D01*
X87450Y148879D02*
X90993D01*
X87450Y142580D02*
Y148879D01*
X90993Y142580D02*
Y148879D01*
X75307Y142580D02*
X78850D01*
X75307Y148879D02*
X78850D01*
X75307Y142580D02*
Y148879D01*
X78850Y142580D02*
Y148879D01*
X63164Y142580D02*
X66708D01*
X63164Y148879D02*
X66708D01*
X63164Y142580D02*
Y148879D01*
X66708Y142580D02*
Y148879D01*
X51021Y142580D02*
X54565D01*
X51021Y148879D02*
X54565D01*
X51021Y142580D02*
Y148879D01*
X54565Y142580D02*
Y148879D01*
X106984Y142496D02*
X110527D01*
X106984Y148795D02*
X110527D01*
X106984Y142496D02*
Y148795D01*
X110527Y142496D02*
Y148795D01*
X119270Y142496D02*
X122813D01*
X119270Y148795D02*
X122813D01*
X119270Y142496D02*
Y148795D01*
X122813Y142496D02*
Y148795D01*
X131555Y142496D02*
X135099D01*
X131555Y148795D02*
X135099D01*
X131555Y142496D02*
Y148795D01*
X135099Y142496D02*
Y148795D01*
X143841Y142496D02*
X147385D01*
X143841Y148795D02*
X147385D01*
X143841Y142496D02*
Y148795D01*
X147385Y142496D02*
Y148795D01*
X162627Y142496D02*
X166170D01*
X162627Y148795D02*
X166170D01*
X162627Y142496D02*
Y148795D01*
X166170Y142496D02*
Y148795D01*
X186413Y142496D02*
X189956D01*
X186413Y148795D02*
X189956D01*
X186413Y142496D02*
Y148795D01*
X189956Y142496D02*
Y148795D01*
X198270Y142496D02*
X201813D01*
X198270Y148795D02*
X201813D01*
X198270Y142496D02*
Y148795D01*
X201813Y142496D02*
Y148795D01*
X231484Y142496D02*
X235027D01*
X231484Y148795D02*
X235027D01*
X231484Y142496D02*
Y148795D01*
X235027Y142496D02*
Y148795D01*
X243770Y142496D02*
X247313D01*
X243770Y148795D02*
X247313D01*
X243770Y142496D02*
Y148795D01*
X247313Y142496D02*
Y148795D01*
X256055Y142496D02*
X259599D01*
X256055Y148795D02*
X259599D01*
X256055Y142496D02*
Y148795D01*
X259599Y142496D02*
Y148795D01*
X262198Y142496D02*
X265742D01*
X262198Y148795D02*
X265742D01*
X262198Y142496D02*
Y148795D01*
X265742Y142496D02*
Y148795D01*
X249913Y142496D02*
X253456D01*
X249913Y148795D02*
X253456D01*
X249913Y142496D02*
Y148795D01*
X253456Y142496D02*
Y148795D01*
X237627Y142496D02*
X241170D01*
X237627Y148795D02*
X241170D01*
X237627Y142496D02*
Y148795D01*
X241170Y142496D02*
Y148795D01*
X225341Y142496D02*
X228885D01*
X225341Y148795D02*
X228885D01*
X225341Y142496D02*
Y148795D01*
X228885Y142496D02*
Y148795D01*
X204127Y142496D02*
X207670D01*
X204127Y148795D02*
X207670D01*
X204127Y142496D02*
Y148795D01*
X207670Y142496D02*
Y148795D01*
X192341Y142496D02*
X195885D01*
X192341Y148795D02*
X195885D01*
X192341Y142496D02*
Y148795D01*
X195885Y142496D02*
Y148795D01*
X180484Y142496D02*
X184027D01*
X180484Y148795D02*
X184027D01*
X180484Y142496D02*
Y148795D01*
X184027Y142496D02*
Y148795D01*
X168627Y142496D02*
X172170D01*
X168627Y148795D02*
X172170D01*
X168627Y142496D02*
Y148795D01*
X172170Y142496D02*
Y148795D01*
X149984Y142496D02*
X153527D01*
X149984Y148795D02*
X153527D01*
X149984Y142496D02*
Y148795D01*
X153527Y142496D02*
Y148795D01*
X137698Y142496D02*
X141242D01*
X137698Y148795D02*
X141242D01*
X137698Y142496D02*
Y148795D01*
X141242Y142496D02*
Y148795D01*
X125413Y142496D02*
X128956D01*
X125413Y148795D02*
X128956D01*
X125413Y142496D02*
Y148795D01*
X128956Y142496D02*
Y148795D01*
X113127Y142496D02*
X116670D01*
X113127Y148795D02*
X116670D01*
X113127Y142496D02*
Y148795D01*
X116670Y142496D02*
Y148795D01*
X93521Y142580D02*
X97065D01*
X93521Y148879D02*
X97065D01*
X93521Y142580D02*
Y148879D01*
X97065Y142580D02*
Y148879D01*
X81379Y142580D02*
X84922D01*
X81379Y148879D02*
X84922D01*
X81379Y142580D02*
Y148879D01*
X84922Y142580D02*
Y148879D01*
X69236Y142580D02*
X72779D01*
X69236Y148879D02*
X72779D01*
X69236Y142580D02*
Y148879D01*
X72779Y142580D02*
Y148879D01*
X60636Y142580D02*
Y148879D01*
X57093Y142580D02*
Y148879D01*
X60636D01*
X57093Y142580D02*
X60636D01*
X255413Y50795D02*
X258956D01*
X255413Y44496D02*
X258956D01*
Y50795D01*
X255413Y44496D02*
Y50795D01*
X261484D02*
X265027D01*
X261484Y44496D02*
X265027D01*
Y50795D01*
X261484Y44496D02*
Y50795D01*
X243270D02*
X246813D01*
X243270Y44496D02*
X246813D01*
Y50795D01*
X243270Y44496D02*
Y50795D01*
X249341D02*
X252885D01*
X249341Y44496D02*
X252885D01*
Y50795D01*
X249341Y44496D02*
Y50795D01*
X237198D02*
X240742D01*
X237198Y44496D02*
X240742D01*
Y50795D01*
X237198Y44496D02*
Y50795D01*
X231127D02*
X234670D01*
X231127Y44496D02*
X234670D01*
Y50795D01*
X231127Y44496D02*
Y50795D01*
X218984D02*
X222527D01*
X218984Y44496D02*
X222527D01*
Y50795D01*
X218984Y44496D02*
Y50795D01*
X225056D02*
X228599D01*
X225056Y44496D02*
X228599D01*
Y50795D01*
X225056Y44496D02*
Y50795D01*
X204984D02*
X208527D01*
X204984Y44496D02*
X208527D01*
Y50795D01*
X204984Y44496D02*
Y50795D01*
X192841D02*
X196385D01*
X192841Y44496D02*
X196385D01*
Y50795D01*
X192841Y44496D02*
Y50795D01*
X180698D02*
X184242D01*
X180698Y44496D02*
X184242D01*
Y50795D01*
X180698Y44496D02*
Y50795D01*
X162484D02*
X166027D01*
X162484Y44496D02*
X166027D01*
Y50795D01*
X162484Y44496D02*
Y50795D01*
X168555D02*
X172099D01*
X168555Y44496D02*
X172099D01*
Y50795D01*
X168555Y44496D02*
Y50795D01*
X142984D02*
X146527D01*
X142984Y44496D02*
X146527D01*
Y50795D01*
X142984Y44496D02*
Y50795D01*
X148984D02*
X152527D01*
X148984Y44496D02*
X152527D01*
Y50795D01*
X148984Y44496D02*
Y50795D01*
X136984D02*
X140527D01*
X136984Y44496D02*
X140527D01*
Y50795D01*
X136984Y44496D02*
Y50795D01*
X130984D02*
X134527D01*
X130984Y44496D02*
X134527D01*
Y50795D01*
X130984Y44496D02*
Y50795D01*
X124984D02*
X128527D01*
X124984Y44496D02*
X128527D01*
Y50795D01*
X124984Y44496D02*
Y50795D01*
X118984D02*
X122527D01*
X118984Y44496D02*
X122527D01*
Y50795D01*
X118984Y44496D02*
Y50795D01*
X88341Y50295D02*
X91885D01*
X88341Y43996D02*
X91885D01*
Y50295D01*
X88341Y43996D02*
Y50295D01*
X76056D02*
X79599D01*
X76056Y43996D02*
X79599D01*
Y50295D01*
X76056Y43996D02*
Y50295D01*
X63770D02*
X67313D01*
X63770Y43996D02*
X67313D01*
Y50295D01*
X63770Y43996D02*
Y50295D01*
X51484D02*
X55028D01*
X51484Y43996D02*
X55028D01*
Y50295D01*
X51484Y43996D02*
Y50295D01*
X106984Y50795D02*
X110527D01*
X106984Y44496D02*
X110527D01*
Y50795D01*
X106984Y44496D02*
Y50795D01*
X112984D02*
X116527D01*
X112984Y44496D02*
X116527D01*
Y50795D01*
X112984Y44496D02*
Y50795D01*
X94484Y50295D02*
X98027D01*
X94484Y43996D02*
X98027D01*
Y50295D01*
X94484Y43996D02*
Y50295D01*
X82198D02*
X85742D01*
X82198Y43996D02*
X85742D01*
Y50295D01*
X82198Y43996D02*
Y50295D01*
X69913D02*
X73456D01*
X69913Y43996D02*
X73456D01*
Y50295D01*
X69913Y43996D02*
Y50295D01*
X57627D02*
X61170D01*
X57627Y43996D02*
X61170D01*
Y50295D01*
X57627Y43996D02*
Y50295D01*
X162016Y188809D02*
X243984D01*
X162016D02*
Y198651D01*
X243984D01*
Y188809D02*
Y198651D01*
X264997Y114873D02*
X268146D01*
X264997Y108574D02*
X268146D01*
Y114873D01*
X264997Y108574D02*
Y114873D01*
X207697Y115126D02*
X210846D01*
X207697Y108826D02*
X210846D01*
Y115126D01*
X207697Y108826D02*
Y115126D01*
X152697D02*
X155846D01*
X152697Y108826D02*
X155846D01*
Y115126D01*
X152697Y108826D02*
Y115126D01*
X97497Y114373D02*
X100646D01*
X97497Y108074D02*
X100646D01*
Y114373D01*
X97497Y108074D02*
Y114373D01*
X218546Y78673D02*
Y84973D01*
X215397Y78673D02*
Y84973D01*
X218546D01*
X215397Y78673D02*
X218546D01*
X161546D02*
Y84973D01*
X158397Y78673D02*
Y84973D01*
X161546D01*
X158397Y78673D02*
X161546D01*
X106546Y78174D02*
Y84473D01*
X103397Y78174D02*
Y84473D01*
X106546D01*
X103397Y78174D02*
X106546D01*
X51046Y77674D02*
Y83973D01*
X47897Y77674D02*
Y83973D01*
X51046D01*
X47897Y77674D02*
X51046D01*
X261094Y66354D02*
Y81709D01*
X222118Y66354D02*
Y81709D01*
X261094D01*
X222118Y66354D02*
X261094D01*
X204094D02*
Y81709D01*
X165118Y66354D02*
Y81709D01*
X204094D01*
X165118Y66354D02*
X204094D01*
X149094D02*
Y81709D01*
X110118Y66354D02*
Y81709D01*
X149094D01*
X110118Y66354D02*
X149094D01*
X54768Y65614D02*
X93744D01*
X54768Y80968D02*
X93744D01*
X54768Y65614D02*
Y80968D01*
X93744Y65614D02*
Y80968D01*
X222417Y126839D02*
X261394D01*
X222417Y111484D02*
X261394D01*
Y126839D01*
X222417Y111484D02*
Y126839D01*
X165268Y111744D02*
Y127098D01*
X204244Y111744D02*
Y127098D01*
X165268Y111744D02*
X204244D01*
X165268Y127098D02*
X204244D01*
X110268Y111744D02*
Y127098D01*
X149244Y111744D02*
Y127098D01*
X110268Y111744D02*
X149244D01*
X110268Y127098D02*
X149244D01*
X54768Y111114D02*
Y126468D01*
X93744Y111114D02*
Y126468D01*
X54768Y111114D02*
X93744D01*
X54768Y126468D02*
X93744D01*
X215774Y202150D02*
Y208450D01*
X218924Y202150D02*
Y208450D01*
X215774D02*
X218924D01*
X215774Y202150D02*
X218924D01*
X238416Y228209D02*
X253023D01*
X238416Y201791D02*
X253023D01*
Y228209D01*
X238416Y201791D02*
Y228209D01*
Y230791D02*
Y257209D01*
X253023Y230791D02*
Y257209D01*
X238416Y230791D02*
X253023D01*
X238416Y257209D02*
X253023D01*
X241550Y269136D02*
X247850D01*
X241550Y272286D02*
X247850D01*
X241550Y269136D02*
Y272286D01*
X247850Y269136D02*
Y272286D01*
X235022Y269136D02*
Y272286D01*
X228723Y269136D02*
Y272286D01*
X235022D01*
X228723Y269136D02*
X235022D01*
X215496Y268484D02*
X221795D01*
X215496Y272027D02*
X221795D01*
X215496Y268484D02*
Y272027D01*
X221795Y268484D02*
Y272027D01*
X217275Y243550D02*
Y249850D01*
X214125Y243550D02*
Y249850D01*
Y243550D02*
X217275D01*
X214125Y249850D02*
X217275D01*
X234146Y275650D02*
Y281950D01*
X230997Y275650D02*
Y281950D01*
X234146D01*
X230997Y275650D02*
X234146D01*
X290728Y272350D02*
Y278650D01*
X294272Y272350D02*
Y278650D01*
X290728Y272350D02*
X294272D01*
X290728Y278650D02*
X294272D01*
X131253Y296646D02*
Y299795D01*
X124953Y296646D02*
Y299795D01*
Y296646D02*
X131253D01*
X124953Y299795D02*
X131253D01*
X229997Y311802D02*
Y318102D01*
X233146Y311802D02*
Y318102D01*
X229997Y311802D02*
X233146D01*
X229997Y318102D02*
X233146D01*
X94229Y304946D02*
Y308095D01*
X87930Y304946D02*
Y308095D01*
Y304946D02*
X94229D01*
X87930Y308095D02*
X94229D01*
X123159Y268628D02*
X133789D01*
Y282013D01*
X123159D02*
X133789D01*
X123159Y268628D02*
Y282013D01*
X249335Y312195D02*
X252879D01*
X249335Y318494D02*
X252879D01*
X249335Y312195D02*
Y318494D01*
X252879Y312195D02*
Y318494D01*
X227043Y312195D02*
Y318494D01*
X223500Y312195D02*
Y318494D01*
X227043D01*
X223500Y312195D02*
X227043D01*
X224125Y299826D02*
X227275D01*
X224125Y306125D02*
X227275D01*
X224125Y299826D02*
Y306125D01*
X227275Y299826D02*
Y306125D01*
X229997Y299826D02*
X233146D01*
X229997Y306125D02*
X233146D01*
X229997Y299826D02*
Y306125D01*
X233146Y299826D02*
Y306125D01*
X124953Y288095D02*
X131253D01*
X124953Y284946D02*
X131253D01*
X124953D02*
Y288095D01*
X131253Y284946D02*
Y288095D01*
X124946Y262546D02*
X131245D01*
X124946Y265695D02*
X131245D01*
Y262546D02*
Y265695D01*
X124946Y262546D02*
Y265695D01*
D118*
X-137123Y-173513D02*
G03*
X-137123Y-173510I0J2D01*
G01*
D02*
G03*
X-137123Y-173513I0J-2D01*
G01*
X-137119Y-173519D02*
G03*
X-137119Y-173516I0J2D01*
G01*
D02*
G03*
X-137119Y-173519I0J-2D01*
G01*
X-137098Y-173514D02*
G03*
X-137098Y-173511I0J2D01*
G01*
D02*
G03*
X-137098Y-173514I0J-2D01*
G01*
X-137094Y-173519D02*
G03*
X-137094Y-173516I0J2D01*
G01*
D02*
G03*
X-137094Y-173519I0J-2D01*
G01*
D119*
X-137362Y-173495D02*
X-137049D01*
X-137362Y-173826D02*
X-137049D01*
Y-173495D01*
X-137362Y-173826D02*
Y-173495D01*
D121*
X-137049D02*
D03*
X-137362D02*
D03*
X-137049Y-173826D02*
D03*
X-137362D02*
D03*
X-137049Y-173495D02*
D03*
Y-173826D02*
D03*
X-137362D02*
D03*
Y-173495D02*
D03*
D148*
X52263Y253463D02*
D03*
D149*
X266663Y291854D02*
D03*
%TF.MD5,4589a2e89a0c5c37f98fa1dc17fa7625*%
M02*
