%TF.GenerationSoftware,Altium Limited,Altium Designer,22.10.1 (41)*%
G04 Layer_Color=8388736*
%FSLAX25Y25*%
%MOIN*%
%TF.SameCoordinates,BEAA4B2D-68BC-4382-99D5-5DCEA874A810*%
%TF.FilePolarity,Positive*%
%TF.FileFunction,Other,Bottom_Designator*%
%TF.Part,Single*%
G01*
G75*
%TA.AperFunction,NonConductor*%
%ADD89C,0.00591*%
%ADD114C,0.00000*%
%TA.AperFunction,SMDPad,CuDef*%
%ADD115C,0.00000*%
%TA.AperFunction,NonConductor*%
%ADD117C,0.00000*%
D89*
X291981Y222944D02*
Y224912D01*
Y223928D01*
X296901D01*
X297885Y224912D01*
Y225896D01*
X296901Y226880D01*
X297885Y220976D02*
Y219008D01*
Y219992D01*
X291981D01*
X292965Y220976D01*
Y216056D02*
X291981Y215072D01*
Y213104D01*
X292965Y212121D01*
X293949D01*
X294933Y213104D01*
Y214088D01*
Y213104D01*
X295917Y212121D01*
X296901D01*
X297885Y213104D01*
Y215072D01*
X296901Y216056D01*
D114*
X-137063Y-173624D02*
G03*
X-137063Y-173624I-0J0D01*
G01*
D02*
G03*
X-137063Y-173624I0J0D01*
G01*
Y-173631D02*
G03*
X-137063Y-173631I-0J0D01*
G01*
D02*
G03*
X-137063Y-173631I0J0D01*
G01*
D02*
G03*
X-137063Y-173631I-0J0D01*
G01*
D02*
G03*
X-137063Y-173631I0J0D01*
G01*
Y-173582D02*
G03*
X-137063Y-173582I-0J0D01*
G01*
D02*
G03*
X-137063Y-173582I0J0D01*
G01*
Y-173589D02*
G03*
X-137063Y-173589I-0J0D01*
G01*
D02*
G03*
X-137063Y-173589I0J0D01*
G01*
Y-173582D02*
G03*
X-137063Y-173582I-0J0D01*
G01*
D02*
G03*
X-137063Y-173582I0J0D01*
G01*
D115*
X-137087Y-173624D02*
D03*
Y-173631D02*
D03*
X-137082D02*
D03*
X-137087D02*
D03*
X-137082Y-173624D02*
D03*
Y-173631D02*
D03*
X-137057D02*
D03*
Y-173624D02*
D03*
Y-173631D02*
D03*
Y-173582D02*
D03*
D03*
Y-173589D02*
D03*
X-137082Y-173582D02*
D03*
Y-173589D02*
D03*
Y-173582D02*
D03*
X-137087D02*
D03*
D03*
Y-173589D02*
D03*
X-137041Y-173624D02*
D03*
X-137099D02*
D03*
X-137094Y-173589D02*
D03*
Y-173613D02*
D03*
D03*
X-137099D02*
D03*
D03*
Y-173624D02*
D03*
X-137041Y-173589D02*
D03*
Y-173624D02*
D03*
Y-173589D02*
D03*
X-137094D02*
D03*
D117*
X-137087Y-173631D02*
Y-173624D01*
Y-173631D02*
X-137082D01*
Y-173624D01*
X-137063Y-173631D02*
Y-173624D01*
Y-173631D02*
X-137057D01*
Y-173624D01*
X-137063Y-173589D02*
Y-173582D01*
X-137057D01*
Y-173589D02*
Y-173582D01*
X-137082Y-173589D02*
Y-173582D01*
X-137087D02*
X-137082D01*
X-137087Y-173589D02*
Y-173582D01*
X-137099Y-173624D02*
X-137041D01*
X-137094Y-173613D02*
Y-173589D01*
X-137099Y-173613D02*
X-137094D01*
X-137099Y-173624D02*
Y-173613D01*
X-137041Y-173624D02*
Y-173589D01*
X-137094D02*
X-137041D01*
%TF.MD5,afe76879da07ad0e79b731b155dfc08b*%
M02*
