%TF.GenerationSoftware,Altium Limited,Altium Designer,22.10.1 (41)*%
G04 Layer_Color=32768*
%FSLAX25Y25*%
%MOIN*%
%TF.SameCoordinates,BEAA4B2D-68BC-4382-99D5-5DCEA874A810*%
%TF.FilePolarity,Positive*%
%TF.FileFunction,Other,Mechanical_15*%
%TF.Part,Single*%
G01*
G75*
%TA.AperFunction,NonConductor*%
%ADD58C,0.00197*%
%ADD93C,0.00394*%
%ADD117C,0.00000*%
%ADD119C,0.00001*%
%ADD120C,0.00001*%
%TA.AperFunction,SMDPad,CuDef*%
%ADD121C,0.00001*%
%ADD123C,0.00001*%
%TA.AperFunction,NonConductor*%
%ADD125C,0.00001*%
%ADD129C,0.00001*%
%ADD130C,0.00000*%
%TA.AperFunction,SMDPad,CuDef*%
%ADD132C,0.00000*%
%ADD133C,0.00000*%
%ADD134C,0.00000*%
%ADD135C,0.00001*%
%TA.AperFunction,NonConductor*%
%ADD138C,0.00001*%
%ADD139C,0.00001*%
%ADD141C,0.00000*%
%TA.AperFunction,SMDPad,CuDef*%
%ADD142C,0.00001*%
%ADD143C,0.00002*%
%ADD144C,0.00001*%
%ADD145C,0.00024*%
%TA.AperFunction,NonConductor*%
%ADD146C,0.00001*%
%ADD147C,0.00001*%
G36*
X-137317Y-173632D02*
X-137322D01*
Y-173621D01*
X-137317D01*
Y-173632D01*
D02*
G37*
G36*
X-137188Y-173595D02*
X-137189D01*
Y-173594D01*
X-137188D01*
Y-173595D01*
D02*
G37*
G36*
X-137191D02*
X-137192D01*
Y-173593D01*
X-137191D01*
Y-173595D01*
D02*
G37*
G36*
X-137099Y-173503D02*
D01*
Y-173504D01*
Y-173505D01*
X-137100D01*
Y-173505D01*
Y-173504D01*
Y-173503D01*
X-137099D01*
Y-173503D01*
D02*
G37*
G36*
X-137225Y-173562D02*
Y-173561D01*
X-137224D01*
X-137225Y-173562D01*
D02*
G37*
G36*
X-137224Y-173540D02*
Y-173539D01*
X-137223D01*
X-137224Y-173540D01*
D02*
G37*
G36*
Y-173541D02*
X-137225D01*
Y-173540D01*
X-137224D01*
Y-173541D01*
D02*
G37*
G36*
X-137317Y-173598D02*
X-137318D01*
Y-173597D01*
X-137317D01*
Y-173598D01*
D02*
G37*
G36*
X-137223Y-173529D02*
X-137224D01*
Y-173528D01*
X-137223D01*
Y-173529D01*
D02*
G37*
G36*
X-137224Y-173534D02*
Y-173535D01*
X-137225D01*
Y-173534D01*
X-137224Y-173533D01*
X-137223D01*
X-137224Y-173534D01*
D02*
G37*
G36*
X-137226Y-173588D02*
X-137227D01*
Y-173587D01*
X-137226D01*
Y-173588D01*
D02*
G37*
G36*
X-137231D02*
Y-173589D01*
X-137232D01*
Y-173588D01*
X-137233D01*
Y-173587D01*
X-137232D01*
X-137231Y-173588D01*
D02*
G37*
G36*
X-137300Y-173566D02*
Y-173565D01*
X-137299D01*
X-137300Y-173566D01*
D02*
G37*
G36*
X-137297Y-173567D02*
Y-173566D01*
X-137296D01*
X-137297Y-173567D01*
D02*
G37*
G36*
X-137284Y-173566D02*
Y-173565D01*
X-137283D01*
X-137284Y-173566D01*
D02*
G37*
G36*
X-137286D02*
Y-173565D01*
X-137285D01*
X-137286Y-173566D01*
D02*
G37*
G36*
X-137290D02*
Y-173565D01*
X-137289D01*
X-137290Y-173566D01*
D02*
G37*
G36*
X-137293D02*
Y-173565D01*
X-137292D01*
X-137293Y-173566D01*
D02*
G37*
G36*
X-137290Y-173567D02*
X-137291D01*
Y-173566D01*
X-137290D01*
Y-173567D01*
D02*
G37*
G36*
X-137285Y-173524D02*
Y-173523D01*
X-137284D01*
X-137285Y-173524D01*
D02*
G37*
G36*
X-137280Y-173525D02*
X-137282D01*
Y-173524D01*
X-137280D01*
Y-173525D01*
D02*
G37*
G36*
X-137285Y-173509D02*
Y-173508D01*
X-137284D01*
X-137285Y-173509D01*
D02*
G37*
G36*
X-137281Y-173510D02*
X-137283D01*
Y-173509D01*
X-137281D01*
Y-173510D01*
D02*
G37*
G36*
X-137131Y-173503D02*
Y-173502D01*
X-137130D01*
X-137131Y-173503D01*
D02*
G37*
G36*
X-137127Y-173504D02*
X-137128D01*
Y-173503D01*
X-137127D01*
Y-173504D01*
D02*
G37*
G36*
X-137105Y-173503D02*
Y-173502D01*
X-137104D01*
X-137105Y-173503D01*
D02*
G37*
G36*
X-137101Y-173504D02*
X-137102D01*
Y-173503D01*
X-137101D01*
Y-173504D01*
D02*
G37*
G36*
X-137132Y-173531D02*
Y-173530D01*
X-137130D01*
X-137132Y-173531D01*
D02*
G37*
G36*
X-137128D02*
Y-173532D01*
X-137129D01*
Y-173531D01*
X-137128Y-173530D01*
X-137127D01*
X-137128Y-173531D01*
D02*
G37*
G36*
X-137139D02*
Y-173530D01*
X-137138D01*
X-137139Y-173531D01*
D02*
G37*
G36*
X-137135Y-173532D02*
X-137136D01*
Y-173531D01*
X-137135D01*
Y-173532D01*
D02*
G37*
G36*
X-137133Y-173544D02*
Y-173545D01*
X-137134D01*
Y-173544D01*
X-137135D01*
Y-173543D01*
X-137134D01*
X-137133Y-173544D01*
D02*
G37*
G36*
X-137134Y-173547D02*
X-137135D01*
Y-173546D01*
X-137134Y-173547D01*
D02*
G37*
G36*
X-137095Y-173702D02*
X-137096D01*
Y-173701D01*
X-137095Y-173702D01*
D02*
G37*
G36*
X-137096Y-173704D02*
X-137097D01*
Y-173703D01*
X-137096Y-173704D01*
D02*
G37*
G36*
X-137095Y-173705D02*
X-137096D01*
Y-173704D01*
X-137095D01*
Y-173705D01*
D02*
G37*
G36*
X-137153Y-173702D02*
X-137154D01*
Y-173701D01*
X-137153Y-173702D01*
D02*
G37*
G36*
Y-173703D02*
X-137154D01*
Y-173702D01*
X-137153Y-173703D01*
D02*
G37*
G36*
X-137152Y-173704D02*
X-137153D01*
Y-173703D01*
X-137152D01*
Y-173704D01*
D02*
G37*
G36*
X-137208Y-173702D02*
X-137209D01*
Y-173701D01*
X-137208Y-173702D01*
D02*
G37*
G36*
X-137207Y-173703D02*
X-137208D01*
Y-173702D01*
X-137207D01*
Y-173703D01*
D02*
G37*
G36*
X-137208Y-173704D02*
X-137209D01*
Y-173703D01*
X-137208Y-173704D01*
D02*
G37*
G36*
X-137207Y-173705D02*
X-137208D01*
Y-173704D01*
X-137207D01*
Y-173705D01*
D02*
G37*
G36*
X-137262Y-173702D02*
X-137263D01*
Y-173701D01*
X-137262D01*
Y-173702D01*
D02*
G37*
G36*
X-137263Y-173704D02*
X-137264D01*
Y-173703D01*
X-137263Y-173704D01*
D02*
G37*
G36*
X-137262Y-173705D02*
X-137263D01*
Y-173704D01*
X-137262D01*
Y-173705D01*
D02*
G37*
G36*
X-137201Y-173752D02*
X-137202D01*
Y-173750D01*
X-137201D01*
Y-173752D01*
D02*
G37*
G36*
X-137202Y-173753D02*
X-137203D01*
Y-173752D01*
X-137202Y-173753D01*
D02*
G37*
G36*
X-137201Y-173755D02*
X-137202D01*
Y-173753D01*
X-137201D01*
Y-173755D01*
D02*
G37*
G36*
X-137144Y-173752D02*
X-137145D01*
Y-173751D01*
X-137144D01*
Y-173752D01*
D02*
G37*
G36*
X-137145Y-173754D02*
X-137146D01*
Y-173753D01*
X-137145Y-173754D01*
D02*
G37*
G36*
X-137144Y-173755D02*
X-137145D01*
Y-173754D01*
X-137144D01*
Y-173755D01*
D02*
G37*
G36*
X-137256Y-173751D02*
X-137257D01*
Y-173750D01*
X-137256D01*
Y-173751D01*
D02*
G37*
G36*
X-137257Y-173753D02*
X-137258D01*
Y-173752D01*
X-137257Y-173753D01*
D02*
G37*
G36*
X-137256Y-173755D02*
X-137257D01*
Y-173753D01*
X-137256D01*
Y-173755D01*
D02*
G37*
G36*
X-137313Y-173751D02*
X-137312D01*
Y-173752D01*
X-137313D01*
X-137314Y-173751D01*
Y-173750D01*
X-137313Y-173751D01*
D02*
G37*
G36*
Y-173753D02*
X-137314D01*
Y-173752D01*
X-137313Y-173753D01*
D02*
G37*
G36*
X-137312Y-173755D02*
X-137313D01*
Y-173753D01*
X-137312D01*
Y-173755D01*
D02*
G37*
G36*
X-137338Y-173530D02*
Y-173529D01*
X-137337D01*
X-137338Y-173530D01*
D02*
G37*
G36*
X-137335Y-173531D02*
X-137336D01*
Y-173530D01*
X-137335D01*
Y-173531D01*
D02*
G37*
G36*
X-137338D02*
X-137339D01*
Y-173530D01*
X-137338D01*
Y-173531D01*
D02*
G37*
G36*
Y-173504D02*
Y-173503D01*
X-137337D01*
X-137338Y-173504D01*
D02*
G37*
G36*
X-137335D02*
X-137336Y-173505D01*
X-137337D01*
Y-173504D01*
X-137336D01*
Y-173503D01*
X-137335D01*
Y-173504D01*
D02*
G37*
G36*
X-137338Y-173505D02*
X-137339D01*
Y-173504D01*
X-137338D01*
Y-173505D01*
D02*
G37*
G36*
X-137322Y-173538D02*
Y-173537D01*
X-137321D01*
X-137322Y-173538D01*
D02*
G37*
G36*
X-137323D02*
X-137324D01*
Y-173537D01*
X-137323D01*
Y-173538D01*
D02*
G37*
G36*
X-137322Y-173564D02*
Y-173563D01*
X-137321D01*
X-137322Y-173564D01*
D02*
G37*
G36*
Y-173565D02*
X-137323D01*
Y-173564D01*
X-137322D01*
Y-173565D01*
D02*
G37*
G36*
X-137083Y-173560D02*
X-137082D01*
D01*
X-137082D01*
Y-173561D01*
Y-173562D01*
X-137083D01*
D01*
X-137083D01*
Y-173561D01*
Y-173560D01*
X-137084D01*
D01*
X-137084D01*
Y-173559D01*
X-137084Y-173559D01*
Y-173559D01*
X-137083Y-173560D01*
D02*
G37*
G36*
X-137082Y-173564D02*
X-137084D01*
D01*
X-137084D01*
Y-173563D01*
X-137082D01*
D01*
X-137082D01*
Y-173564D01*
D02*
G37*
G36*
Y-173570D02*
X-137083D01*
D01*
X-137083D01*
Y-173569D01*
X-137082D01*
D01*
X-137082D01*
Y-173570D01*
D02*
G37*
G36*
X-137300Y-173573D02*
X-137301D01*
Y-173572D01*
X-137300D01*
Y-173573D01*
D02*
G37*
G36*
X-137297Y-173574D02*
X-137298D01*
Y-173573D01*
X-137297D01*
Y-173574D01*
D02*
G37*
G36*
X-137062Y-173580D02*
X-137063D01*
D01*
X-137063D01*
Y-173579D01*
X-137062D01*
D01*
X-137062D01*
Y-173580D01*
D02*
G37*
G36*
Y-173585D02*
X-137063D01*
D01*
X-137063D01*
Y-173584D01*
X-137062D01*
D01*
X-137062D01*
Y-173585D01*
D02*
G37*
G36*
X-137082Y-173584D02*
X-137083D01*
D01*
X-137083D01*
Y-173583D01*
X-137082D01*
D01*
X-137082D01*
Y-173584D01*
D02*
G37*
G36*
X-137322Y-173502D02*
Y-173501D01*
X-137321D01*
X-137322Y-173502D01*
D02*
G37*
G36*
X-137156Y-173595D02*
X-137157D01*
Y-173594D01*
X-137156D01*
Y-173595D01*
D02*
G37*
G36*
X-137121Y-173622D02*
X-137122D01*
X-137120Y-173621D01*
X-137121Y-173622D01*
D02*
G37*
G36*
X-137157D02*
X-137158D01*
Y-173621D01*
X-137157D01*
Y-173622D01*
D02*
G37*
G36*
X-137337Y-173627D02*
X-137338D01*
X-137340Y-173624D01*
Y-173627D01*
X-137341D01*
Y-173622D01*
X-137340D01*
X-137338Y-173626D01*
Y-173622D01*
X-137337D01*
Y-173627D01*
D02*
G37*
G36*
X-137332D02*
X-137333D01*
Y-173625D01*
Y-173622D01*
X-137332D01*
Y-173627D01*
D02*
G37*
G36*
X-137335Y-173625D02*
Y-173627D01*
X-137336D01*
Y-173622D01*
X-137335D01*
Y-173625D01*
D02*
G37*
G36*
X-137342Y-173627D02*
X-137343D01*
Y-173622D01*
X-137342D01*
Y-173627D01*
D02*
G37*
G36*
X-137346D02*
X-137347D01*
Y-173622D01*
X-137346D01*
Y-173627D01*
D02*
G37*
G36*
X-137201Y-173624D02*
X-137203D01*
Y-173623D01*
X-137201D01*
Y-173624D01*
D02*
G37*
G36*
X-137206D02*
X-137207D01*
Y-173623D01*
X-137206D01*
Y-173624D01*
D02*
G37*
G36*
X-137143Y-173594D02*
X-137144D01*
X-137142Y-173593D01*
X-137143Y-173594D01*
D02*
G37*
G36*
X-137357Y-173618D02*
X-137355Y-173620D01*
X-137356D01*
X-137357Y-173618D01*
X-137358Y-173619D01*
Y-173620D01*
X-137359D01*
Y-173616D01*
X-137358D01*
Y-173618D01*
X-137356Y-173616D01*
X-137355D01*
X-137357Y-173618D01*
D02*
G37*
G36*
X-137340Y-173620D02*
X-137341D01*
X-137343Y-173617D01*
Y-173620D01*
X-137344D01*
Y-173616D01*
X-137343D01*
X-137341Y-173619D01*
Y-173616D01*
X-137340D01*
Y-173620D01*
D02*
G37*
G36*
X-137335D02*
X-137336D01*
Y-173618D01*
Y-173616D01*
X-137335D01*
Y-173620D01*
D02*
G37*
G36*
X-137338Y-173618D02*
Y-173620D01*
X-137339D01*
Y-173616D01*
X-137338D01*
Y-173618D01*
D02*
G37*
G36*
X-137345Y-173620D02*
X-137346D01*
Y-173619D01*
X-137348D01*
X-137349Y-173620D01*
X-137348Y-173616D01*
X-137347D01*
X-137345Y-173620D01*
D02*
G37*
G36*
X-137350D02*
X-137351D01*
Y-173618D01*
Y-173616D01*
X-137350D01*
Y-173620D01*
D02*
G37*
G36*
X-137353Y-173618D02*
Y-173620D01*
X-137354D01*
Y-173616D01*
X-137353D01*
Y-173618D01*
D02*
G37*
G36*
X-137107Y-173624D02*
X-137108D01*
Y-173623D01*
X-137107D01*
Y-173624D01*
D02*
G37*
G36*
X-137111D02*
X-137112D01*
Y-173623D01*
X-137111D01*
Y-173624D01*
D02*
G37*
G36*
X-137308Y-173526D02*
X-137309D01*
Y-173524D01*
X-137308D01*
Y-173526D01*
D02*
G37*
G36*
Y-173530D02*
X-137309D01*
Y-173530D01*
X-137308D01*
Y-173530D01*
D02*
G37*
G36*
X-137201Y-173595D02*
X-137202D01*
Y-173594D01*
X-137201D01*
Y-173595D01*
D02*
G37*
G36*
X-137293Y-173517D02*
Y-173516D01*
X-137292D01*
X-137293Y-173517D01*
D02*
G37*
G36*
X-137309Y-173508D02*
Y-173509D01*
X-137310Y-173507D01*
X-137309Y-173508D01*
D02*
G37*
G36*
X-137128Y-173536D02*
X-137129D01*
Y-173535D01*
X-137128Y-173536D01*
D02*
G37*
G36*
X-137087Y-173539D02*
X-137088D01*
Y-173538D01*
X-137087D01*
Y-173539D01*
D02*
G37*
G36*
X-137086Y-173540D02*
X-137087Y-173539D01*
X-137086D01*
Y-173540D01*
D02*
G37*
G36*
X-137251Y-173589D02*
X-137252D01*
Y-173588D01*
X-137251Y-173589D01*
D02*
G37*
G36*
X-137250Y-173591D02*
X-137251D01*
Y-173590D01*
X-137250D01*
Y-173591D01*
D02*
G37*
G36*
X-137324Y-173597D02*
Y-173596D01*
X-137323D01*
X-137324Y-173597D01*
D02*
G37*
G36*
Y-173598D02*
X-137325D01*
Y-173597D01*
X-137324D01*
Y-173598D01*
D02*
G37*
G36*
X-137326D02*
X-137327D01*
Y-173597D01*
X-137326D01*
Y-173598D01*
D02*
G37*
G36*
X-137081Y-173548D02*
X-137082D01*
Y-173547D01*
X-137081D01*
Y-173548D01*
D02*
G37*
G36*
Y-173551D02*
X-137082D01*
Y-173550D01*
X-137081D01*
Y-173551D01*
D02*
G37*
G36*
X-137064Y-173549D02*
X-137065D01*
Y-173547D01*
X-137064D01*
Y-173549D01*
D02*
G37*
G36*
Y-173551D02*
X-137065D01*
Y-173550D01*
X-137064D01*
Y-173551D01*
D02*
G37*
G36*
X-137223Y-173514D02*
X-137224D01*
Y-173513D01*
X-137223D01*
Y-173514D01*
D02*
G37*
G36*
X-137226D02*
X-137227D01*
Y-173513D01*
X-137226D01*
Y-173514D01*
D02*
G37*
G36*
X-137223Y-173522D02*
X-137224D01*
Y-173521D01*
X-137223D01*
Y-173522D01*
D02*
G37*
G36*
X-137226D02*
X-137227D01*
Y-173521D01*
X-137226D01*
Y-173522D01*
D02*
G37*
G36*
X-137135Y-173503D02*
Y-173504D01*
X-137136D01*
Y-173503D01*
X-137135Y-173502D01*
X-137134D01*
X-137135Y-173503D01*
D02*
G37*
G36*
X-137137Y-173504D02*
X-137138D01*
Y-173503D01*
X-137137D01*
Y-173504D01*
D02*
G37*
G36*
X-137109Y-173504D02*
X-137109D01*
Y-173503D01*
X-137109D01*
Y-173504D01*
D02*
G37*
G36*
X-137111D02*
X-137112D01*
Y-173503D01*
X-137111D01*
Y-173504D01*
D02*
G37*
G36*
X-137105Y-173538D02*
X-137106Y-173539D01*
X-137107D01*
Y-173538D01*
X-137106D01*
Y-173537D01*
X-137105D01*
Y-173538D01*
D02*
G37*
G36*
X-137108Y-173539D02*
X-137109D01*
Y-173538D01*
X-137108D01*
Y-173539D01*
D02*
G37*
G36*
X-137108Y-173521D02*
Y-173520D01*
X-137107D01*
X-137108Y-173521D01*
D02*
G37*
G36*
X-137105Y-173522D02*
Y-173521D01*
X-137104D01*
X-137105Y-173522D01*
D02*
G37*
G36*
X-137109D02*
X-137110D01*
Y-173521D01*
X-137109D01*
Y-173522D01*
D02*
G37*
G36*
X-137290Y-173586D02*
X-137291D01*
Y-173585D01*
X-137290Y-173586D01*
D02*
G37*
G36*
Y-173589D02*
X-137291D01*
Y-173588D01*
X-137290Y-173589D01*
D02*
G37*
G36*
X-137289Y-173591D02*
X-137290D01*
Y-173590D01*
X-137289D01*
Y-173591D01*
D02*
G37*
G36*
X-137141Y-173784D02*
X-137142D01*
Y-173784D01*
X-137141Y-173784D01*
D02*
G37*
G36*
X-137140Y-173785D02*
X-137141D01*
Y-173784D01*
X-137140D01*
Y-173785D01*
D02*
G37*
G36*
X-137141Y-173787D02*
X-137142D01*
Y-173786D01*
X-137141Y-173787D01*
D02*
G37*
G36*
X-137140Y-173790D02*
X-137141D01*
Y-173788D01*
X-137140D01*
Y-173790D01*
D02*
G37*
G36*
X-137097Y-173669D02*
X-137098D01*
Y-173668D01*
X-137097D01*
Y-173669D01*
D02*
G37*
G36*
X-137098Y-173671D02*
X-137099D01*
Y-173670D01*
X-137098Y-173671D01*
D02*
G37*
G36*
X-137097Y-173673D02*
X-137098D01*
Y-173672D01*
X-137097D01*
Y-173673D01*
D02*
G37*
G36*
X-137134Y-173785D02*
X-137135D01*
Y-173784D01*
X-137134D01*
Y-173785D01*
D02*
G37*
G36*
X-137135Y-173787D02*
X-137136D01*
Y-173786D01*
X-137135Y-173787D01*
D02*
G37*
G36*
X-137134Y-173790D02*
X-137135D01*
Y-173788D01*
X-137134D01*
Y-173790D01*
D02*
G37*
G36*
X-137103Y-173669D02*
X-137104D01*
Y-173668D01*
X-137103D01*
Y-173669D01*
D02*
G37*
G36*
X-137104Y-173671D02*
X-137105D01*
Y-173670D01*
X-137104Y-173671D01*
D02*
G37*
G36*
X-137103Y-173673D02*
X-137104D01*
Y-173672D01*
X-137103D01*
Y-173673D01*
D02*
G37*
G36*
X-137128Y-173784D02*
X-137129D01*
Y-173784D01*
X-137128D01*
Y-173784D01*
D02*
G37*
G36*
X-137129Y-173787D02*
X-137130D01*
Y-173786D01*
X-137129Y-173787D01*
D02*
G37*
G36*
X-137128Y-173790D02*
X-137129D01*
Y-173788D01*
X-137128D01*
Y-173790D01*
D02*
G37*
G36*
X-137111Y-173669D02*
X-137110D01*
Y-173670D01*
X-137111D01*
X-137112Y-173669D01*
Y-173668D01*
X-137111Y-173669D01*
D02*
G37*
G36*
Y-173671D02*
X-137112D01*
Y-173670D01*
X-137111Y-173671D01*
D02*
G37*
G36*
X-137110Y-173673D02*
X-137111D01*
Y-173672D01*
X-137110D01*
Y-173673D01*
D02*
G37*
G36*
X-137122Y-173784D02*
X-137123D01*
Y-173784D01*
X-137122D01*
Y-173784D01*
D02*
G37*
G36*
X-137123Y-173787D02*
X-137124D01*
Y-173786D01*
X-137123Y-173787D01*
D02*
G37*
G36*
X-137122Y-173790D02*
X-137123D01*
Y-173788D01*
X-137122D01*
Y-173790D01*
D02*
G37*
G36*
X-137116Y-173669D02*
Y-173670D01*
X-137117D01*
Y-173669D01*
X-137118D01*
Y-173668D01*
X-137117D01*
X-137116Y-173669D01*
D02*
G37*
G36*
X-137117Y-173671D02*
X-137118D01*
Y-173670D01*
X-137117Y-173671D01*
D02*
G37*
G36*
X-137116Y-173673D02*
X-137117D01*
Y-173672D01*
X-137116D01*
Y-173673D01*
D02*
G37*
G36*
X-137116Y-173784D02*
X-137117D01*
Y-173784D01*
X-137116Y-173784D01*
D02*
G37*
G36*
X-137117Y-173786D02*
X-137118D01*
Y-173785D01*
X-137117Y-173786D01*
D02*
G37*
G36*
X-137116Y-173787D02*
X-137117D01*
Y-173786D01*
X-137116D01*
Y-173787D01*
D02*
G37*
G36*
Y-173790D02*
X-137117D01*
Y-173788D01*
X-137116D01*
Y-173790D01*
D02*
G37*
G36*
X-137123Y-173669D02*
X-137124D01*
X-137123Y-173670D01*
X-137124D01*
Y-173669D01*
Y-173668D01*
X-137123Y-173669D01*
D02*
G37*
G36*
X-137122Y-173671D02*
X-137123D01*
Y-173670D01*
X-137122D01*
Y-173671D01*
D02*
G37*
G36*
Y-173673D02*
X-137123D01*
Y-173672D01*
X-137122D01*
Y-173673D01*
D02*
G37*
G36*
X-137111Y-173784D02*
X-137112D01*
Y-173784D01*
X-137111Y-173784D01*
D02*
G37*
G36*
X-137110Y-173785D02*
X-137111D01*
Y-173784D01*
X-137110D01*
Y-173785D01*
D02*
G37*
G36*
X-137111Y-173786D02*
X-137112D01*
Y-173785D01*
X-137111Y-173786D01*
D02*
G37*
G36*
X-137110Y-173787D02*
X-137111D01*
Y-173786D01*
X-137110D01*
Y-173787D01*
D02*
G37*
G36*
Y-173790D02*
X-137111D01*
Y-173788D01*
X-137110D01*
Y-173790D01*
D02*
G37*
G36*
X-137128Y-173669D02*
X-137129D01*
Y-173668D01*
X-137128D01*
Y-173669D01*
D02*
G37*
G36*
X-137129Y-173670D02*
X-137130D01*
Y-173670D01*
X-137129Y-173670D01*
D02*
G37*
G36*
X-137128Y-173671D02*
X-137129D01*
Y-173670D01*
X-137128D01*
Y-173671D01*
D02*
G37*
G36*
Y-173673D02*
X-137129D01*
Y-173672D01*
X-137128D01*
Y-173673D01*
D02*
G37*
G36*
X-137104Y-173785D02*
X-137105D01*
Y-173784D01*
X-137104D01*
Y-173785D01*
D02*
G37*
G36*
X-137105Y-173786D02*
X-137106D01*
Y-173785D01*
X-137105Y-173786D01*
D02*
G37*
G36*
X-137104Y-173787D02*
X-137105D01*
Y-173786D01*
X-137104D01*
Y-173787D01*
D02*
G37*
G36*
Y-173790D02*
X-137105D01*
Y-173788D01*
X-137104D01*
Y-173790D01*
D02*
G37*
G36*
X-137134Y-173669D02*
X-137135D01*
Y-173668D01*
X-137134D01*
Y-173669D01*
D02*
G37*
G36*
X-137135Y-173670D02*
X-137136D01*
Y-173670D01*
X-137135Y-173670D01*
D02*
G37*
G36*
X-137134Y-173671D02*
X-137135D01*
Y-173670D01*
X-137134D01*
Y-173671D01*
D02*
G37*
G36*
Y-173673D02*
X-137135D01*
Y-173672D01*
X-137134D01*
Y-173673D01*
D02*
G37*
G36*
X-137098Y-173784D02*
X-137099D01*
Y-173784D01*
X-137098D01*
Y-173784D01*
D02*
G37*
G36*
X-137099Y-173786D02*
X-137100D01*
Y-173785D01*
X-137099Y-173786D01*
D02*
G37*
G36*
X-137098Y-173787D02*
X-137099D01*
Y-173786D01*
X-137098D01*
Y-173787D01*
D02*
G37*
G36*
Y-173790D02*
X-137099D01*
Y-173788D01*
X-137098D01*
Y-173790D01*
D02*
G37*
G36*
X-137141Y-173669D02*
X-137140D01*
Y-173670D01*
X-137141D01*
X-137142Y-173669D01*
Y-173668D01*
X-137141Y-173669D01*
D02*
G37*
G36*
Y-173670D02*
X-137142D01*
Y-173670D01*
X-137141Y-173670D01*
D02*
G37*
G36*
X-137140Y-173671D02*
X-137141D01*
Y-173670D01*
X-137140D01*
Y-173671D01*
D02*
G37*
G36*
Y-173673D02*
X-137141D01*
Y-173672D01*
X-137140D01*
Y-173673D01*
D02*
G37*
G36*
X-137283Y-173585D02*
X-137284D01*
Y-173584D01*
X-137283D01*
Y-173585D01*
D02*
G37*
G36*
X-137284Y-173588D02*
X-137285D01*
Y-173586D01*
X-137284Y-173588D01*
D02*
G37*
G36*
X-137283Y-173589D02*
X-137284D01*
Y-173588D01*
X-137283D01*
Y-173589D01*
D02*
G37*
G36*
Y-173591D02*
X-137284D01*
Y-173590D01*
X-137283D01*
Y-173591D01*
D02*
G37*
G36*
X-137197Y-173784D02*
Y-173785D01*
X-137198D01*
Y-173784D01*
X-137199D01*
Y-173784D01*
X-137198D01*
X-137197Y-173784D01*
D02*
G37*
G36*
X-137198Y-173786D02*
X-137199D01*
Y-173785D01*
X-137198Y-173786D01*
D02*
G37*
G36*
X-137197Y-173787D02*
X-137198D01*
Y-173786D01*
X-137197D01*
Y-173787D01*
D02*
G37*
G36*
Y-173790D02*
X-137198D01*
Y-173788D01*
X-137197D01*
Y-173790D01*
D02*
G37*
G36*
X-137155Y-173669D02*
X-137156D01*
Y-173668D01*
X-137155Y-173669D01*
D02*
G37*
G36*
Y-173670D02*
X-137156D01*
Y-173670D01*
X-137155D01*
Y-173670D01*
D02*
G37*
G36*
Y-173673D02*
X-137156D01*
Y-173672D01*
X-137155D01*
Y-173673D01*
D02*
G37*
G36*
X-137277Y-173586D02*
X-137276D01*
Y-173587D01*
X-137277D01*
Y-173586D01*
X-137278D01*
Y-173585D01*
X-137277Y-173586D01*
D02*
G37*
G36*
X-137276Y-173590D02*
X-137277D01*
Y-173589D01*
X-137276D01*
Y-173590D01*
D02*
G37*
G36*
X-137192Y-173784D02*
X-137193D01*
Y-173784D01*
X-137192Y-173784D01*
D02*
G37*
G36*
X-137191Y-173785D02*
Y-173786D01*
X-137192D01*
Y-173785D01*
Y-173784D01*
X-137191D01*
Y-173785D01*
D02*
G37*
G36*
Y-173790D02*
X-137192D01*
Y-173788D01*
X-137191D01*
Y-173790D01*
D02*
G37*
G36*
X-137161Y-173669D02*
X-137162D01*
Y-173668D01*
X-137161D01*
Y-173669D01*
D02*
G37*
G36*
Y-173670D02*
X-137162D01*
Y-173670D01*
X-137161D01*
Y-173670D01*
D02*
G37*
G36*
Y-173673D02*
X-137162D01*
Y-173672D01*
X-137161D01*
Y-173673D01*
D02*
G37*
G36*
X-137185Y-173785D02*
Y-173786D01*
X-137186D01*
Y-173785D01*
Y-173784D01*
X-137185D01*
Y-173785D01*
D02*
G37*
G36*
Y-173790D02*
X-137186D01*
Y-173788D01*
X-137185D01*
Y-173790D01*
D02*
G37*
G36*
X-137167Y-173669D02*
X-137168D01*
Y-173668D01*
X-137167D01*
Y-173669D01*
D02*
G37*
G36*
Y-173670D02*
X-137168D01*
Y-173670D01*
X-137167D01*
Y-173670D01*
D02*
G37*
G36*
Y-173673D02*
X-137168D01*
Y-173672D01*
X-137167D01*
Y-173673D01*
D02*
G37*
G36*
X-137179Y-173784D02*
X-137180D01*
Y-173784D01*
X-137179D01*
Y-173784D01*
D02*
G37*
G36*
Y-173786D02*
X-137180D01*
Y-173785D01*
X-137179D01*
Y-173786D01*
D02*
G37*
G36*
Y-173790D02*
X-137180D01*
Y-173788D01*
X-137179D01*
Y-173790D01*
D02*
G37*
G36*
X-137174Y-173669D02*
X-137173D01*
Y-173670D01*
Y-173670D01*
X-137174D01*
Y-173670D01*
X-137175Y-173669D01*
Y-173668D01*
X-137174Y-173669D01*
D02*
G37*
G36*
X-137173Y-173673D02*
X-137174D01*
Y-173672D01*
X-137173D01*
Y-173673D01*
D02*
G37*
G36*
X-137173Y-173784D02*
X-137174D01*
Y-173784D01*
X-137173D01*
Y-173784D01*
D02*
G37*
G36*
Y-173786D02*
X-137174D01*
Y-173785D01*
X-137173D01*
Y-173786D01*
D02*
G37*
G36*
Y-173790D02*
X-137174D01*
Y-173788D01*
X-137173D01*
Y-173790D01*
D02*
G37*
G36*
X-137179Y-173669D02*
Y-173670D01*
Y-173670D01*
X-137180D01*
Y-173670D01*
Y-173669D01*
X-137181D01*
Y-173668D01*
X-137180D01*
X-137179Y-173669D01*
D02*
G37*
G36*
Y-173673D02*
X-137180D01*
Y-173672D01*
X-137179D01*
Y-173673D01*
D02*
G37*
G36*
X-137167Y-173784D02*
X-137168D01*
Y-173784D01*
X-137167Y-173784D01*
D02*
G37*
G36*
Y-173787D02*
X-137168D01*
Y-173785D01*
X-137167D01*
Y-173787D01*
D02*
G37*
G36*
Y-173790D02*
X-137168D01*
Y-173788D01*
X-137167D01*
Y-173790D01*
D02*
G37*
G36*
X-137186Y-173670D02*
X-137187D01*
Y-173669D01*
X-137186Y-173670D01*
D02*
G37*
G36*
X-137185Y-173671D02*
X-137186D01*
Y-173670D01*
X-137185D01*
Y-173671D01*
D02*
G37*
G36*
Y-173673D02*
X-137186D01*
Y-173672D01*
X-137185D01*
Y-173673D01*
D02*
G37*
G36*
X-137162Y-173784D02*
X-137163D01*
Y-173784D01*
X-137162Y-173784D01*
D02*
G37*
G36*
X-137161Y-173785D02*
X-137162D01*
Y-173784D01*
X-137161D01*
Y-173785D01*
D02*
G37*
G36*
Y-173787D02*
X-137162D01*
Y-173785D01*
X-137161D01*
Y-173787D01*
D02*
G37*
G36*
Y-173790D02*
X-137162D01*
Y-173788D01*
X-137161D01*
Y-173790D01*
D02*
G37*
G36*
X-137191Y-173669D02*
X-137192D01*
Y-173668D01*
X-137191D01*
Y-173669D01*
D02*
G37*
G36*
Y-173671D02*
X-137192D01*
Y-173670D01*
X-137191D01*
Y-173671D01*
D02*
G37*
G36*
Y-173673D02*
X-137192D01*
Y-173672D01*
X-137191D01*
Y-173673D01*
D02*
G37*
G36*
X-137155Y-173785D02*
X-137156D01*
Y-173784D01*
X-137155D01*
Y-173785D01*
D02*
G37*
G36*
Y-173787D02*
X-137156D01*
Y-173785D01*
X-137155D01*
Y-173787D01*
D02*
G37*
G36*
Y-173790D02*
X-137156D01*
Y-173788D01*
X-137155D01*
Y-173790D01*
D02*
G37*
G36*
X-137197Y-173669D02*
X-137198D01*
Y-173668D01*
X-137197D01*
Y-173669D01*
D02*
G37*
G36*
Y-173671D02*
X-137198D01*
Y-173670D01*
X-137197D01*
Y-173671D01*
D02*
G37*
G36*
Y-173673D02*
X-137198D01*
Y-173672D01*
X-137197D01*
Y-173673D01*
D02*
G37*
G36*
X-137270Y-173585D02*
X-137271D01*
Y-173584D01*
X-137270D01*
Y-173585D01*
D02*
G37*
G36*
Y-173589D02*
X-137271D01*
Y-173586D01*
X-137270D01*
Y-173589D01*
D02*
G37*
G36*
Y-173591D02*
X-137271D01*
Y-173590D01*
X-137270D01*
Y-173591D01*
D02*
G37*
G36*
X-137254Y-173784D02*
X-137253D01*
Y-173785D01*
Y-173787D01*
X-137254D01*
Y-173785D01*
X-137255Y-173784D01*
Y-173784D01*
X-137254Y-173784D01*
D02*
G37*
G36*
X-137253Y-173790D02*
X-137254D01*
Y-173788D01*
X-137253D01*
Y-173790D01*
D02*
G37*
G36*
X-137209Y-173669D02*
X-137210D01*
Y-173668D01*
X-137209D01*
Y-173669D01*
D02*
G37*
G36*
Y-173671D02*
X-137210D01*
Y-173670D01*
X-137209D01*
Y-173671D01*
D02*
G37*
G36*
Y-173673D02*
X-137210D01*
Y-173672D01*
X-137209D01*
Y-173673D01*
D02*
G37*
G36*
X-137247Y-173784D02*
Y-173785D01*
Y-173787D01*
X-137248D01*
Y-173785D01*
Y-173784D01*
X-137249D01*
Y-173784D01*
X-137248D01*
X-137247Y-173784D01*
D02*
G37*
G36*
Y-173790D02*
X-137248D01*
Y-173788D01*
X-137247D01*
Y-173790D01*
D02*
G37*
G36*
X-137216Y-173669D02*
X-137217D01*
Y-173668D01*
X-137216Y-173669D01*
D02*
G37*
G36*
Y-173670D02*
X-137217D01*
Y-173670D01*
X-137216D01*
Y-173670D01*
D02*
G37*
G36*
Y-173673D02*
X-137217D01*
Y-173672D01*
X-137216D01*
Y-173673D01*
D02*
G37*
G36*
X-137264Y-173586D02*
X-137265D01*
Y-173585D01*
X-137264Y-173586D01*
D02*
G37*
G36*
X-137263Y-173588D02*
X-137264D01*
Y-173586D01*
X-137263D01*
Y-173588D01*
D02*
G37*
G36*
Y-173591D02*
X-137264D01*
Y-173590D01*
X-137263D01*
Y-173591D01*
D02*
G37*
G36*
X-137242Y-173784D02*
X-137243D01*
Y-173784D01*
X-137242Y-173784D01*
D02*
G37*
G36*
X-137241Y-173785D02*
Y-173786D01*
X-137242D01*
Y-173785D01*
Y-173784D01*
X-137241D01*
Y-173785D01*
D02*
G37*
G36*
Y-173790D02*
X-137242D01*
Y-173788D01*
X-137241D01*
Y-173790D01*
D02*
G37*
G36*
X-137222Y-173669D02*
X-137223D01*
Y-173668D01*
X-137222D01*
Y-173669D01*
D02*
G37*
G36*
Y-173670D02*
X-137223D01*
Y-173670D01*
X-137222D01*
Y-173670D01*
D02*
G37*
G36*
Y-173673D02*
X-137223D01*
Y-173672D01*
X-137222D01*
Y-173673D01*
D02*
G37*
G36*
X-137235Y-173785D02*
Y-173786D01*
X-137236D01*
Y-173785D01*
Y-173784D01*
X-137235D01*
Y-173785D01*
D02*
G37*
G36*
Y-173790D02*
X-137236D01*
Y-173788D01*
X-137235D01*
Y-173790D01*
D02*
G37*
G36*
X-137228Y-173669D02*
X-137229D01*
Y-173668D01*
X-137228D01*
Y-173669D01*
D02*
G37*
G36*
Y-173670D02*
X-137229D01*
Y-173670D01*
X-137228D01*
Y-173670D01*
D02*
G37*
G36*
Y-173673D02*
X-137229D01*
Y-173672D01*
X-137228D01*
Y-173673D01*
D02*
G37*
G36*
X-137229Y-173784D02*
X-137230D01*
Y-173784D01*
X-137229D01*
Y-173784D01*
D02*
G37*
G36*
Y-173786D02*
X-137230D01*
Y-173785D01*
X-137229D01*
Y-173786D01*
D02*
G37*
G36*
Y-173790D02*
X-137230D01*
Y-173788D01*
X-137229D01*
Y-173790D01*
D02*
G37*
G36*
X-137235Y-173669D02*
X-137234D01*
Y-173670D01*
Y-173670D01*
X-137235D01*
Y-173670D01*
X-137236Y-173669D01*
Y-173668D01*
X-137235Y-173669D01*
D02*
G37*
G36*
X-137234Y-173673D02*
X-137235D01*
Y-173672D01*
X-137234D01*
Y-173673D01*
D02*
G37*
G36*
X-137223Y-173784D02*
X-137224D01*
Y-173784D01*
X-137223D01*
Y-173784D01*
D02*
G37*
G36*
Y-173786D02*
X-137224D01*
Y-173785D01*
X-137223D01*
Y-173786D01*
D02*
G37*
G36*
Y-173790D02*
X-137224D01*
Y-173788D01*
X-137223D01*
Y-173790D01*
D02*
G37*
G36*
X-137240Y-173669D02*
Y-173670D01*
Y-173670D01*
X-137241D01*
Y-173670D01*
Y-173669D01*
X-137242D01*
Y-173668D01*
X-137241D01*
X-137240Y-173669D01*
D02*
G37*
G36*
Y-173673D02*
X-137241D01*
Y-173672D01*
X-137240D01*
Y-173673D01*
D02*
G37*
G36*
X-137217Y-173784D02*
X-137218D01*
Y-173784D01*
X-137217Y-173784D01*
D02*
G37*
G36*
Y-173786D02*
X-137218D01*
Y-173785D01*
X-137217D01*
Y-173786D01*
D02*
G37*
G36*
Y-173790D02*
X-137218D01*
Y-173788D01*
X-137217D01*
Y-173790D01*
D02*
G37*
G36*
X-137247Y-173669D02*
X-137248D01*
Y-173668D01*
X-137247Y-173669D01*
D02*
G37*
G36*
X-137246Y-173670D02*
X-137247D01*
Y-173669D01*
X-137246D01*
Y-173670D01*
D02*
G37*
G36*
Y-173673D02*
X-137247D01*
Y-173672D01*
X-137246D01*
Y-173673D01*
D02*
G37*
G36*
X-137212Y-173784D02*
X-137213D01*
Y-173784D01*
X-137212Y-173784D01*
D02*
G37*
G36*
X-137211Y-173785D02*
Y-173786D01*
X-137212D01*
Y-173785D01*
Y-173784D01*
X-137211D01*
Y-173785D01*
D02*
G37*
G36*
Y-173790D02*
X-137212D01*
Y-173788D01*
X-137211D01*
Y-173790D01*
D02*
G37*
G36*
X-137253Y-173669D02*
X-137254D01*
Y-173668D01*
X-137253D01*
Y-173669D01*
D02*
G37*
G36*
Y-173670D02*
X-137254D01*
Y-173670D01*
X-137253D01*
Y-173670D01*
D02*
G37*
G36*
Y-173673D02*
X-137254D01*
Y-173672D01*
X-137253D01*
Y-173673D01*
D02*
G37*
G36*
X-137257Y-173586D02*
X-137258D01*
Y-173584D01*
X-137257D01*
Y-173586D01*
D02*
G37*
G36*
Y-173588D02*
X-137258D01*
Y-173586D01*
X-137257D01*
Y-173588D01*
D02*
G37*
G36*
Y-173591D02*
X-137258D01*
Y-173590D01*
X-137257D01*
Y-173591D01*
D02*
G37*
G36*
X-137308Y-173784D02*
X-137309D01*
Y-173784D01*
X-137308D01*
Y-173784D01*
D02*
G37*
G36*
Y-173786D02*
X-137309D01*
Y-173785D01*
X-137308D01*
Y-173786D01*
D02*
G37*
G36*
Y-173790D02*
X-137309D01*
Y-173788D01*
X-137308D01*
Y-173790D01*
D02*
G37*
G36*
X-137266Y-173669D02*
X-137267D01*
Y-173668D01*
X-137266D01*
Y-173669D01*
D02*
G37*
G36*
Y-173670D02*
X-137267D01*
Y-173670D01*
X-137266D01*
Y-173670D01*
D02*
G37*
G36*
Y-173673D02*
X-137267D01*
Y-173672D01*
X-137266D01*
Y-173673D01*
D02*
G37*
G36*
X-137303Y-173784D02*
X-137302D01*
Y-173785D01*
Y-173786D01*
X-137303D01*
Y-173785D01*
X-137304Y-173784D01*
Y-173784D01*
X-137303Y-173784D01*
D02*
G37*
G36*
X-137302Y-173790D02*
X-137303D01*
Y-173788D01*
X-137302D01*
Y-173790D01*
D02*
G37*
G36*
X-137272Y-173669D02*
X-137273D01*
Y-173668D01*
X-137272D01*
Y-173669D01*
D02*
G37*
G36*
Y-173670D02*
X-137273D01*
Y-173670D01*
X-137272D01*
Y-173670D01*
D02*
G37*
G36*
Y-173673D02*
X-137273D01*
Y-173672D01*
X-137272D01*
Y-173673D01*
D02*
G37*
G36*
X-137296Y-173784D02*
Y-173785D01*
Y-173786D01*
X-137297D01*
Y-173785D01*
Y-173784D01*
X-137298D01*
Y-173784D01*
X-137297D01*
X-137296Y-173784D01*
D02*
G37*
G36*
Y-173790D02*
X-137297D01*
Y-173788D01*
X-137296D01*
Y-173790D01*
D02*
G37*
G36*
X-137278Y-173669D02*
X-137279D01*
Y-173668D01*
X-137278Y-173669D01*
D02*
G37*
G36*
X-137279Y-173670D02*
X-137278D01*
Y-173671D01*
X-137279D01*
X-137280Y-173670D01*
Y-173670D01*
X-137279Y-173670D01*
D02*
G37*
G36*
X-137278Y-173673D02*
X-137279D01*
Y-173672D01*
X-137278D01*
Y-173673D01*
D02*
G37*
G36*
X-137244Y-173586D02*
X-137245D01*
Y-173585D01*
X-137244Y-173586D01*
D02*
G37*
G36*
Y-173588D02*
X-137243D01*
Y-173589D01*
X-137244D01*
X-137245Y-173588D01*
Y-173586D01*
X-137244Y-173588D01*
D02*
G37*
G36*
X-137243Y-173591D02*
X-137244D01*
Y-173590D01*
X-137243D01*
Y-173591D01*
D02*
G37*
G36*
X-137291Y-173784D02*
X-137292D01*
Y-173784D01*
X-137291Y-173784D01*
D02*
G37*
G36*
X-137290Y-173785D02*
X-137291D01*
Y-173784D01*
X-137290D01*
Y-173785D01*
D02*
G37*
G36*
X-137291Y-173786D02*
X-137290D01*
Y-173787D01*
X-137291D01*
X-137292Y-173786D01*
Y-173785D01*
X-137291Y-173786D01*
D02*
G37*
G36*
X-137290Y-173790D02*
X-137291D01*
Y-173788D01*
X-137290D01*
Y-173790D01*
D02*
G37*
G36*
X-137284Y-173669D02*
X-137285D01*
Y-173668D01*
X-137284D01*
Y-173669D01*
D02*
G37*
G36*
X-137285Y-173670D02*
X-137284D01*
Y-173671D01*
X-137285D01*
X-137286Y-173670D01*
Y-173670D01*
X-137285Y-173670D01*
D02*
G37*
G36*
X-137284Y-173673D02*
X-137285D01*
Y-173672D01*
X-137284D01*
Y-173673D01*
D02*
G37*
G36*
X-137284Y-173785D02*
X-137285D01*
Y-173784D01*
X-137284D01*
Y-173785D01*
D02*
G37*
G36*
X-137285Y-173786D02*
X-137284D01*
Y-173787D01*
X-137285D01*
X-137286Y-173786D01*
Y-173785D01*
X-137285Y-173786D01*
D02*
G37*
G36*
X-137284Y-173790D02*
X-137285D01*
Y-173788D01*
X-137284D01*
Y-173790D01*
D02*
G37*
G36*
X-137290Y-173669D02*
X-137291D01*
Y-173668D01*
X-137290D01*
Y-173669D01*
D02*
G37*
G36*
X-137291Y-173670D02*
X-137290D01*
Y-173671D01*
X-137291D01*
X-137292Y-173670D01*
Y-173670D01*
X-137291Y-173670D01*
D02*
G37*
G36*
X-137290Y-173673D02*
X-137291D01*
Y-173672D01*
X-137290D01*
Y-173673D01*
D02*
G37*
G36*
X-137277Y-173784D02*
X-137278D01*
Y-173784D01*
X-137277D01*
Y-173784D01*
D02*
G37*
G36*
X-137278Y-173786D02*
X-137277D01*
Y-173787D01*
X-137278D01*
X-137279Y-173786D01*
Y-173785D01*
X-137278Y-173786D01*
D02*
G37*
G36*
X-137277Y-173790D02*
X-137278D01*
Y-173788D01*
X-137277D01*
Y-173790D01*
D02*
G37*
G36*
X-137297Y-173669D02*
X-137296D01*
Y-173670D01*
X-137297D01*
X-137298Y-173669D01*
Y-173668D01*
X-137297Y-173669D01*
D02*
G37*
G36*
Y-173670D02*
X-137296D01*
Y-173671D01*
X-137297D01*
X-137298Y-173670D01*
Y-173670D01*
X-137297Y-173670D01*
D02*
G37*
G36*
X-137296Y-173673D02*
X-137297D01*
Y-173672D01*
X-137296D01*
Y-173673D01*
D02*
G37*
G36*
X-137271Y-173784D02*
X-137272D01*
Y-173784D01*
X-137271D01*
Y-173784D01*
D02*
G37*
G36*
X-137272Y-173786D02*
X-137271D01*
Y-173787D01*
X-137272D01*
X-137273Y-173786D01*
Y-173785D01*
X-137272Y-173786D01*
D02*
G37*
G36*
X-137271Y-173790D02*
X-137272D01*
Y-173788D01*
X-137271D01*
Y-173790D01*
D02*
G37*
G36*
X-137302Y-173669D02*
Y-173670D01*
X-137303D01*
Y-173669D01*
X-137304D01*
Y-173668D01*
X-137303D01*
X-137302Y-173669D01*
D02*
G37*
G36*
X-137303Y-173670D02*
X-137302D01*
Y-173671D01*
X-137303D01*
X-137304Y-173670D01*
Y-173670D01*
X-137303Y-173670D01*
D02*
G37*
G36*
X-137302Y-173673D02*
X-137303D01*
Y-173672D01*
X-137302D01*
Y-173673D01*
D02*
G37*
G36*
X-137265Y-173784D02*
X-137266D01*
Y-173784D01*
X-137265Y-173784D01*
D02*
G37*
G36*
Y-173786D02*
X-137266D01*
Y-173785D01*
X-137265D01*
Y-173786D01*
D02*
G37*
G36*
Y-173790D02*
X-137266D01*
Y-173788D01*
X-137265D01*
Y-173790D01*
D02*
G37*
G36*
X-137310Y-173669D02*
X-137311D01*
Y-173668D01*
X-137310Y-173669D01*
D02*
G37*
G36*
X-137309Y-173670D02*
X-137310D01*
Y-173669D01*
X-137309D01*
Y-173670D01*
D02*
G37*
G36*
Y-173673D02*
X-137310D01*
Y-173672D01*
X-137309D01*
Y-173673D01*
D02*
G37*
G36*
X-137238Y-173585D02*
X-137239D01*
Y-173584D01*
X-137238Y-173585D01*
D02*
G37*
G36*
X-137237Y-173586D02*
D01*
Y-173588D01*
X-137238D01*
Y-173586D01*
D01*
Y-173585D01*
X-137237D01*
Y-173586D01*
D02*
G37*
G36*
Y-173591D02*
X-137238D01*
Y-173590D01*
X-137237D01*
Y-173591D01*
D02*
G37*
G36*
X-137335Y-173538D02*
X-137336D01*
Y-173537D01*
X-137335D01*
Y-173538D01*
D02*
G37*
G36*
X-137337D02*
X-137338D01*
Y-173537D01*
X-137337D01*
Y-173538D01*
D02*
G37*
G36*
X-137339D02*
X-137340D01*
Y-173537D01*
X-137339D01*
Y-173538D01*
D02*
G37*
G36*
X-137328D02*
X-137330D01*
Y-173537D01*
X-137328D01*
Y-173538D01*
D02*
G37*
G36*
X-137332D02*
X-137334D01*
Y-173537D01*
X-137332D01*
Y-173538D01*
D02*
G37*
G36*
X-137335Y-173565D02*
X-137336D01*
Y-173564D01*
X-137335D01*
Y-173565D01*
D02*
G37*
G36*
X-137337D02*
X-137338D01*
Y-173564D01*
X-137337D01*
Y-173565D01*
D02*
G37*
G36*
X-137339D02*
X-137340D01*
Y-173564D01*
X-137339D01*
Y-173565D01*
D02*
G37*
G36*
X-137312D02*
X-137313D01*
Y-173564D01*
X-137312D01*
Y-173565D01*
D02*
G37*
G36*
X-137314D02*
X-137315D01*
Y-173564D01*
X-137314D01*
Y-173565D01*
D02*
G37*
G36*
X-137318D02*
X-137319D01*
Y-173564D01*
X-137318D01*
Y-173565D01*
D02*
G37*
G36*
X-137328Y-173564D02*
Y-173565D01*
X-137330D01*
Y-173564D01*
X-137329D01*
X-137328Y-173563D01*
X-137327D01*
X-137328Y-173564D01*
D02*
G37*
G36*
X-137332Y-173565D02*
X-137333D01*
Y-173564D01*
X-137332D01*
Y-173565D01*
D02*
G37*
G36*
X-137063Y-173593D02*
X-137064D01*
Y-173592D01*
X-137063D01*
Y-173593D01*
D02*
G37*
G36*
Y-173595D02*
X-137064D01*
Y-173594D01*
X-137063D01*
Y-173595D01*
D02*
G37*
G36*
Y-173598D02*
X-137064D01*
Y-173597D01*
X-137063D01*
Y-173598D01*
D02*
G37*
G36*
X-137082Y-173593D02*
X-137083D01*
Y-173592D01*
X-137082Y-173593D01*
D02*
G37*
G36*
Y-173595D02*
Y-173596D01*
X-137083D01*
Y-173595D01*
X-137084D01*
Y-173594D01*
X-137083D01*
X-137082Y-173595D01*
D02*
G37*
G36*
Y-173598D02*
X-137083D01*
Y-173597D01*
X-137082D01*
Y-173598D01*
D02*
G37*
G36*
X-137308Y-173626D02*
X-137309D01*
Y-173625D01*
X-137308D01*
Y-173626D01*
D02*
G37*
G36*
Y-173632D02*
X-137309D01*
Y-173631D01*
X-137308D01*
Y-173632D01*
D02*
G37*
G36*
X-137309Y-173504D02*
X-137310D01*
Y-173503D01*
X-137309D01*
Y-173504D01*
D02*
G37*
G36*
Y-173517D02*
X-137310D01*
Y-173516D01*
X-137309D01*
Y-173517D01*
D02*
G37*
G36*
X-137170Y-173595D02*
X-137171D01*
Y-173594D01*
X-137170D01*
Y-173595D01*
D02*
G37*
G36*
X-137174D02*
X-137176D01*
Y-173593D01*
X-137174D01*
Y-173595D01*
D02*
G37*
G36*
X-137121Y-173755D02*
X-137122D01*
Y-173754D01*
X-137121D01*
Y-173755D01*
D02*
G37*
G36*
X-137136Y-173623D02*
X-137136D01*
Y-173622D01*
X-137136D01*
Y-173623D01*
D02*
G37*
G36*
X-137141D02*
X-137142D01*
Y-173621D01*
X-137141D01*
Y-173623D01*
D02*
G37*
G36*
X-137180Y-173751D02*
Y-173752D01*
X-137181D01*
Y-173751D01*
X-137180Y-173750D01*
X-137180D01*
X-137180Y-173751D01*
D02*
G37*
G36*
X-137185Y-173623D02*
X-137186D01*
Y-173622D01*
X-137185D01*
Y-173623D01*
D02*
G37*
G36*
X-137235Y-173753D02*
X-137236Y-173754D01*
X-137238D01*
Y-173753D01*
X-137236D01*
Y-173752D01*
X-137235D01*
Y-173753D01*
D02*
G37*
G36*
X-137230Y-173708D02*
Y-173707D01*
X-137229D01*
X-137230Y-173708D01*
D02*
G37*
G36*
X-137227Y-173709D02*
Y-173708D01*
X-137226D01*
X-137227Y-173709D01*
D02*
G37*
G36*
X-137291Y-173751D02*
Y-173750D01*
X-137290D01*
X-137291Y-173751D01*
D02*
G37*
G36*
X-137293D02*
Y-173750D01*
X-137292D01*
X-137293Y-173751D01*
D02*
G37*
G36*
X-137172Y-173623D02*
X-137173D01*
Y-173622D01*
X-137172D01*
Y-173623D01*
D02*
G37*
G36*
X-137176D02*
X-137177D01*
Y-173622D01*
X-137176D01*
Y-173623D01*
D02*
G37*
G36*
X-137225Y-173556D02*
Y-173555D01*
X-137224D01*
X-137225Y-173556D01*
D02*
G37*
G36*
X-137227D02*
X-137228Y-173555D01*
X-137226D01*
X-137227Y-173556D01*
D02*
G37*
G36*
X-137275Y-173525D02*
X-137277D01*
Y-173524D01*
X-137275D01*
Y-173525D01*
D02*
G37*
G36*
X-137275Y-173510D02*
X-137276D01*
Y-173509D01*
X-137275D01*
Y-173510D01*
D02*
G37*
G36*
X-137308Y-173537D02*
Y-173536D01*
X-137306D01*
X-137308Y-173537D01*
D02*
G37*
G36*
Y-173538D02*
X-137310D01*
Y-173537D01*
X-137308D01*
Y-173538D01*
D02*
G37*
G36*
X-137314D02*
X-137315D01*
Y-173537D01*
X-137314D01*
Y-173538D01*
D02*
G37*
G36*
X-137316D02*
X-137317D01*
Y-173537D01*
X-137316D01*
Y-173538D01*
D02*
G37*
G36*
X-137343Y-173505D02*
X-137346D01*
Y-173504D01*
X-137343D01*
Y-173505D01*
D02*
G37*
G36*
Y-173531D02*
X-137344D01*
Y-173530D01*
X-137343D01*
Y-173531D01*
D02*
G37*
G36*
X-137345D02*
X-137346D01*
Y-173530D01*
X-137345D01*
Y-173531D01*
D02*
G37*
G36*
X-137192Y-173623D02*
X-137193D01*
Y-173622D01*
X-137192D01*
Y-173623D01*
D02*
G37*
G36*
X-137063Y-173559D02*
X-137062D01*
D01*
X-137062D01*
Y-173560D01*
Y-173561D01*
X-137063D01*
D01*
X-137063D01*
Y-173560D01*
Y-173559D01*
X-137064D01*
D01*
X-137064D01*
Y-173558D01*
X-137064Y-173558D01*
Y-173558D01*
X-137063Y-173559D01*
D02*
G37*
G36*
X-137062Y-173567D02*
X-137063D01*
D01*
X-137063D01*
Y-173566D01*
X-137062D01*
D01*
X-137062D01*
Y-173567D01*
D02*
G37*
%LPC*%
G36*
X-137347Y-173617D02*
X-137348Y-173617D01*
Y-173618D01*
X-137346D01*
X-137347Y-173617D01*
Y-173617D01*
D02*
G37*
%LPD*%
D58*
X37795Y246500D02*
G03*
X37795Y246500I-12795J0D01*
G01*
X267484Y311000D02*
G03*
X267484Y311000I-984J0D01*
G01*
X242756Y311483D02*
G03*
X242756Y311483I-984J0D01*
G01*
X78360Y302159D02*
X119305D01*
X78360Y261214D02*
X119305D01*
X78360D02*
Y302159D01*
X119305Y261214D02*
Y302159D01*
X160736Y214898D02*
Y227102D01*
Y214898D02*
X215264D01*
Y227102D01*
X160736D02*
X215264D01*
X186031Y221000D02*
X189969D01*
X188000Y219032D02*
Y222969D01*
X135674Y244305D02*
Y248242D01*
X133706Y246273D02*
X137643D01*
X133115Y240958D02*
Y251588D01*
X138233D01*
Y240958D02*
Y251588D01*
X133115Y240958D02*
X138233D01*
X253798Y273411D02*
Y289474D01*
X210885Y273411D02*
X253798D01*
X210885D02*
Y289474D01*
X253798D01*
X3968Y95523D02*
X28575D01*
Y185681D01*
X3968D02*
X28575D01*
X3968Y95523D02*
Y185681D01*
X59193Y186326D02*
X149350D01*
Y161720D02*
Y186326D01*
X59193Y161720D02*
X149350D01*
X59193D02*
Y186326D01*
X45373Y231626D02*
X59153D01*
X45373Y259626D02*
X59153D01*
X45373Y231626D02*
Y259626D01*
X59153Y231626D02*
Y259626D01*
X304642Y99210D02*
Y189368D01*
X280035Y99210D02*
X304642D01*
X280035D02*
Y189368D01*
X304642D01*
X291500Y318032D02*
Y321969D01*
X289531Y320000D02*
X293468D01*
X28543Y264587D02*
Y274430D01*
X34054Y264587D02*
Y274430D01*
X28543D02*
X34054D01*
X28543Y264587D02*
X34054D01*
X27554Y276933D02*
Y286776D01*
X22042Y276933D02*
Y286776D01*
X27554D01*
X22042Y276933D02*
X27554D01*
X27054Y264587D02*
Y274430D01*
X21542Y264587D02*
Y274430D01*
Y264587D02*
X27054D01*
X21542Y274430D02*
X27054D01*
X43271Y264564D02*
Y274407D01*
X48783Y264564D02*
Y274407D01*
X43271D02*
X48783D01*
X43271Y264564D02*
X48783D01*
X34939Y275024D02*
X40058D01*
Y264394D02*
Y275024D01*
X34939Y264394D02*
X40058D01*
X34939D02*
Y275024D01*
X35530Y269709D02*
X39467D01*
X37498Y267740D02*
Y271677D01*
Y279486D02*
Y283423D01*
X35530Y281454D02*
X39467D01*
X34939Y276139D02*
Y286769D01*
X40058D01*
Y276139D02*
Y286769D01*
X34939Y276139D02*
X40058D01*
X34054Y276933D02*
Y286776D01*
X28543Y276933D02*
Y286776D01*
X34054D01*
X28543Y276933D02*
X34054D01*
X52200Y279486D02*
Y283423D01*
X50231Y281454D02*
X54168D01*
X49641Y276139D02*
Y286769D01*
X54759D01*
Y276139D02*
Y286769D01*
X49641Y276139D02*
X54759D01*
X46498Y279486D02*
Y283423D01*
X44530Y281454D02*
X48467D01*
X43939Y276139D02*
Y286769D01*
X49057D01*
Y276139D02*
Y286769D01*
X43939Y276139D02*
X49057D01*
X126135Y292520D02*
X130072D01*
X128103Y290552D02*
Y294489D01*
X122788Y289961D02*
X133418D01*
X122788D02*
Y295079D01*
X133418D01*
Y289961D02*
Y295079D01*
X164616Y5653D02*
X254773D01*
X164616D02*
Y30259D01*
X254773D01*
Y5653D02*
Y30259D01*
X123553Y316076D02*
X133396D01*
X123553Y310564D02*
X133396D01*
X123553D02*
Y316076D01*
X133396Y310564D02*
Y316076D01*
X123574Y302565D02*
X133417D01*
X123574Y308076D02*
X133417D01*
Y302565D02*
Y308076D01*
X123574Y302565D02*
Y308076D01*
X173643Y52567D02*
X179155D01*
X173643Y42724D02*
X179155D01*
Y52567D01*
X173643Y42724D02*
Y52567D01*
X185785D02*
X191297D01*
X185785Y42724D02*
X191297D01*
Y52567D01*
X185785Y42724D02*
Y52567D01*
X197928D02*
X203440D01*
X197928Y42724D02*
X203440D01*
Y52567D01*
X197928Y42724D02*
Y52567D01*
X24673Y308606D02*
X46327D01*
X24673Y279394D02*
X46327D01*
X24673D02*
Y308606D01*
X46327Y279394D02*
Y308606D01*
X89111Y312520D02*
X93048D01*
X91080Y310552D02*
Y314489D01*
X85765Y309961D02*
X96395D01*
X85765D02*
Y315079D01*
X96395D01*
Y309961D02*
Y315079D01*
X75706Y306620D02*
X79643D01*
X77674Y304652D02*
Y308589D01*
X72359Y304061D02*
X82989D01*
X72359D02*
Y309179D01*
X82989D01*
Y304061D02*
Y309179D01*
X75706Y312620D02*
X79643D01*
X77674Y310652D02*
Y314589D01*
X72359Y310061D02*
X82989D01*
X72359D02*
Y315179D01*
X82989D01*
Y310061D02*
Y315179D01*
X288500Y284964D02*
Y298743D01*
X260500Y284964D02*
Y298743D01*
X288500D01*
X260500Y284964D02*
X288500D01*
X265122Y311000D02*
X267878D01*
X266500Y309622D02*
Y312378D01*
X272406Y301354D02*
Y320646D01*
X260595D02*
X272406D01*
X260595Y301354D02*
Y320646D01*
Y301354D02*
X272406D01*
X254513Y320267D02*
X259631D01*
X254513Y309637D02*
Y320267D01*
Y309637D02*
X259631D01*
Y320267D01*
X255103Y314952D02*
X259040D01*
X257071Y312983D02*
Y316920D01*
X249829Y295779D02*
X259671D01*
X249829Y290267D02*
X259671D01*
X249829D02*
Y295779D01*
X259671Y290267D02*
Y295779D01*
X249850Y297244D02*
Y302756D01*
X259693Y297244D02*
Y302756D01*
X249850D02*
X259693D01*
X249850Y297244D02*
X259693D01*
X235831Y256205D02*
X277169D01*
Y284984D01*
X235831D02*
X277169D01*
X235831Y256205D02*
Y284984D01*
X282688Y270486D02*
Y280329D01*
X288200Y270486D02*
Y280329D01*
X282688Y270486D02*
X288200D01*
X282688Y280329D02*
X288200D01*
X281744Y235198D02*
X287256D01*
X281744Y225356D02*
X287256D01*
Y235198D01*
X281744Y225356D02*
Y235198D01*
X290244D02*
X295756D01*
X290244Y225356D02*
X295756D01*
Y235198D01*
X290244Y225356D02*
Y235198D01*
X280693Y283758D02*
Y297242D01*
Y283758D02*
X297307D01*
Y297242D01*
X280693D02*
X297307D01*
X16412Y309401D02*
X21531D01*
Y320031D01*
X16412D02*
X21531D01*
X16412Y309401D02*
Y320031D01*
X17003Y314716D02*
X20940D01*
X18971Y312747D02*
Y316684D01*
X49992Y291846D02*
Y322847D01*
X27551Y291846D02*
Y322847D01*
X49992D01*
X27551Y291846D02*
X49992D01*
X24572Y312755D02*
Y316692D01*
X22603Y314723D02*
X26540D01*
X27131Y309408D02*
Y320038D01*
X22013Y309408D02*
X27131D01*
X22013D02*
Y320038D01*
X27131D01*
X24472Y301355D02*
Y305292D01*
X22503Y303323D02*
X26440D01*
X21913Y298008D02*
Y308638D01*
X27031D01*
Y298008D02*
Y308638D01*
X21913Y298008D02*
X27031D01*
X16412Y308646D02*
X21531D01*
X16412Y298016D02*
Y308646D01*
Y298016D02*
X21531D01*
Y308646D01*
X17003Y303331D02*
X20940D01*
X18971Y301362D02*
Y305299D01*
X34016Y217102D02*
X39527D01*
X34016Y226944D02*
X39527D01*
X34016Y217102D02*
Y226944D01*
X39527Y217102D02*
Y226944D01*
X43071Y220255D02*
Y224192D01*
X41103Y222223D02*
X45040D01*
X45631Y216908D02*
Y227538D01*
X40512Y216908D02*
X45631D01*
X40512D02*
Y227538D01*
X45631D01*
X63474Y266152D02*
Y270089D01*
X61506Y268120D02*
X65443D01*
X60915Y262805D02*
Y273435D01*
X66033D01*
Y262805D02*
Y273435D01*
X60915Y262805D02*
X66033D01*
X75174Y266152D02*
Y270089D01*
X73206Y268120D02*
X77143D01*
X72615Y262805D02*
Y273435D01*
X77733D01*
Y262805D02*
Y273435D01*
X72615Y262805D02*
X77733D01*
X69324Y266152D02*
Y270089D01*
X67356Y268120D02*
X71293D01*
X66765Y262805D02*
Y273435D01*
X71883D01*
Y262805D02*
Y273435D01*
X66765Y262805D02*
X71883D01*
X127415Y240958D02*
X132533D01*
Y251588D01*
X127415D02*
X132533D01*
X127415Y240958D02*
Y251588D01*
X128006Y246273D02*
X131943D01*
X129974Y244305D02*
Y248242D01*
X121218Y241399D02*
X126730D01*
X121218Y251242D02*
X126730D01*
X121218Y241399D02*
Y251242D01*
X126730Y241399D02*
Y251242D01*
X120230Y241399D02*
Y251242D01*
X114718Y241399D02*
Y251242D01*
X120230D01*
X114718Y241399D02*
X120230D01*
X101718D02*
X107230D01*
X101718Y251242D02*
X107230D01*
X101718Y241399D02*
Y251242D01*
X107230Y241399D02*
Y251242D01*
X113730Y241399D02*
Y251242D01*
X108218Y241399D02*
Y251242D01*
X113730D01*
X108218Y241399D02*
X113730D01*
X95218D02*
X100730D01*
X95218Y251242D02*
X100730D01*
X95218Y241399D02*
Y251242D01*
X100730Y241399D02*
Y251242D01*
X88718Y241399D02*
X94230D01*
X88718Y251242D02*
X94230D01*
X88718Y241399D02*
Y251242D01*
X94230Y241399D02*
Y251242D01*
X82218Y241399D02*
X87730D01*
X82218Y251242D02*
X87730D01*
X82218Y241399D02*
Y251242D01*
X87730Y241399D02*
Y251242D01*
X75718Y241399D02*
X81230D01*
X75718Y251242D02*
X81230D01*
X75718Y241399D02*
Y251242D01*
X81230Y241399D02*
Y251242D01*
X69218Y241399D02*
X74730D01*
X69218Y251242D02*
X74730D01*
X69218Y241399D02*
Y251242D01*
X74730Y241399D02*
Y251242D01*
X218214Y140724D02*
X223726D01*
X218214Y150567D02*
X223726D01*
X218214Y140724D02*
Y150567D01*
X223726Y140724D02*
Y150567D01*
X173571Y140724D02*
X179083D01*
X173571Y150567D02*
X179083D01*
X173571Y140724D02*
Y150567D01*
X179083Y140724D02*
Y150567D01*
X86466Y140809D02*
X91978D01*
X86466Y150651D02*
X91978D01*
X86466Y140809D02*
Y150651D01*
X91978Y140809D02*
Y150651D01*
X74323Y140809D02*
X79835D01*
X74323Y150651D02*
X79835D01*
X74323Y140809D02*
Y150651D01*
X79835Y140809D02*
Y150651D01*
X62180Y140809D02*
X67692D01*
X62180Y150651D02*
X67692D01*
X62180Y140809D02*
Y150651D01*
X67692Y140809D02*
Y150651D01*
X50037Y140809D02*
X55549D01*
X50037Y150651D02*
X55549D01*
X50037Y140809D02*
Y150651D01*
X55549Y140809D02*
Y150651D01*
X106000Y140724D02*
X111512D01*
X106000Y150567D02*
X111512D01*
X106000Y140724D02*
Y150567D01*
X111512Y140724D02*
Y150567D01*
X118286Y140724D02*
X123797D01*
X118286Y150567D02*
X123797D01*
X118286Y140724D02*
Y150567D01*
X123797Y140724D02*
Y150567D01*
X130571Y140724D02*
X136083D01*
X130571Y150567D02*
X136083D01*
X130571Y140724D02*
Y150567D01*
X136083Y140724D02*
Y150567D01*
X142857Y140724D02*
X148369D01*
X142857Y150567D02*
X148369D01*
X142857Y140724D02*
Y150567D01*
X148369Y140724D02*
Y150567D01*
X161643Y140724D02*
X167155D01*
X161643Y150567D02*
X167155D01*
X161643Y140724D02*
Y150567D01*
X167155Y140724D02*
Y150567D01*
X185428Y140724D02*
X190940D01*
X185428Y150567D02*
X190940D01*
X185428Y140724D02*
Y150567D01*
X190940Y140724D02*
Y150567D01*
X197286Y140724D02*
X202797D01*
X197286Y150567D02*
X202797D01*
X197286Y140724D02*
Y150567D01*
X202797Y140724D02*
Y150567D01*
X230500Y140724D02*
X236012D01*
X230500Y150567D02*
X236012D01*
X230500Y140724D02*
Y150567D01*
X236012Y140724D02*
Y150567D01*
X242786Y140724D02*
X248297D01*
X242786Y150567D02*
X248297D01*
X242786Y140724D02*
Y150567D01*
X248297Y140724D02*
Y150567D01*
X255071Y140724D02*
X260583D01*
X255071Y150567D02*
X260583D01*
X255071Y140724D02*
Y150567D01*
X260583Y140724D02*
Y150567D01*
X261214Y140724D02*
X266726D01*
X261214Y150567D02*
X266726D01*
X261214Y140724D02*
Y150567D01*
X266726Y140724D02*
Y150567D01*
X248928Y140724D02*
X254440D01*
X248928Y150567D02*
X254440D01*
X248928Y140724D02*
Y150567D01*
X254440Y140724D02*
Y150567D01*
X236643Y140724D02*
X242155D01*
X236643Y150567D02*
X242155D01*
X236643Y140724D02*
Y150567D01*
X242155Y140724D02*
Y150567D01*
X224357Y140724D02*
X229869D01*
X224357Y150567D02*
X229869D01*
X224357Y140724D02*
Y150567D01*
X229869Y140724D02*
Y150567D01*
X203143Y140724D02*
X208655D01*
X203143Y150567D02*
X208655D01*
X203143Y140724D02*
Y150567D01*
X208655Y140724D02*
Y150567D01*
X191357Y140724D02*
X196869D01*
X191357Y150567D02*
X196869D01*
X191357Y140724D02*
Y150567D01*
X196869Y140724D02*
Y150567D01*
X179500Y140724D02*
X185012D01*
X179500Y150567D02*
X185012D01*
X179500Y140724D02*
Y150567D01*
X185012Y140724D02*
Y150567D01*
X167643Y140724D02*
X173154D01*
X167643Y150567D02*
X173154D01*
X167643Y140724D02*
Y150567D01*
X173154Y140724D02*
Y150567D01*
X149000Y140724D02*
X154512D01*
X149000Y150567D02*
X154512D01*
X149000Y140724D02*
Y150567D01*
X154512Y140724D02*
Y150567D01*
X136714Y140724D02*
X142226D01*
X136714Y150567D02*
X142226D01*
X136714Y140724D02*
Y150567D01*
X142226Y140724D02*
Y150567D01*
X124428Y140724D02*
X129940D01*
X124428Y150567D02*
X129940D01*
X124428Y140724D02*
Y150567D01*
X129940Y140724D02*
Y150567D01*
X112143Y140724D02*
X117655D01*
X112143Y150567D02*
X117655D01*
X112143Y140724D02*
Y150567D01*
X117655Y140724D02*
Y150567D01*
X92537Y140809D02*
X98049D01*
X92537Y150651D02*
X98049D01*
X92537Y140809D02*
Y150651D01*
X98049Y140809D02*
Y150651D01*
X80394Y140809D02*
X85906D01*
X80394Y150651D02*
X85906D01*
X80394Y140809D02*
Y150651D01*
X85906Y140809D02*
Y150651D01*
X68252Y140809D02*
X73763D01*
X68252Y150651D02*
X73763D01*
X68252Y140809D02*
Y150651D01*
X73763Y140809D02*
Y150651D01*
X61620Y140809D02*
Y150651D01*
X56109Y140809D02*
Y150651D01*
X61620D01*
X56109Y140809D02*
X61620D01*
X254428Y52567D02*
X259940D01*
X254428Y42724D02*
X259940D01*
Y52567D01*
X254428Y42724D02*
Y52567D01*
X260500D02*
X266012D01*
X260500Y42724D02*
X266012D01*
Y52567D01*
X260500Y42724D02*
Y52567D01*
X242286D02*
X247797D01*
X242286Y42724D02*
X247797D01*
Y52567D01*
X242286Y42724D02*
Y52567D01*
X248357D02*
X253869D01*
X248357Y42724D02*
X253869D01*
Y52567D01*
X248357Y42724D02*
Y52567D01*
X236214D02*
X241726D01*
X236214Y42724D02*
X241726D01*
Y52567D01*
X236214Y42724D02*
Y52567D01*
X230143D02*
X235654D01*
X230143Y42724D02*
X235654D01*
Y52567D01*
X230143Y42724D02*
Y52567D01*
X218000D02*
X223512D01*
X218000Y42724D02*
X223512D01*
Y52567D01*
X218000Y42724D02*
Y52567D01*
X224071D02*
X229583D01*
X224071Y42724D02*
X229583D01*
Y52567D01*
X224071Y42724D02*
Y52567D01*
X204000D02*
X209512D01*
X204000Y42724D02*
X209512D01*
Y52567D01*
X204000Y42724D02*
Y52567D01*
X191857D02*
X197369D01*
X191857Y42724D02*
X197369D01*
Y52567D01*
X191857Y42724D02*
Y52567D01*
X179714D02*
X185226D01*
X179714Y42724D02*
X185226D01*
Y52567D01*
X179714Y42724D02*
Y52567D01*
X161500D02*
X167012D01*
X161500Y42724D02*
X167012D01*
Y52567D01*
X161500Y42724D02*
Y52567D01*
X167571D02*
X173083D01*
X167571Y42724D02*
X173083D01*
Y52567D01*
X167571Y42724D02*
Y52567D01*
X142000D02*
X147512D01*
X142000Y42724D02*
X147512D01*
Y52567D01*
X142000Y42724D02*
Y52567D01*
X148000D02*
X153512D01*
X148000Y42724D02*
X153512D01*
Y52567D01*
X148000Y42724D02*
Y52567D01*
X136000D02*
X141512D01*
X136000Y42724D02*
X141512D01*
Y52567D01*
X136000Y42724D02*
Y52567D01*
X130000D02*
X135512D01*
X130000Y42724D02*
X135512D01*
Y52567D01*
X130000Y42724D02*
Y52567D01*
X124000D02*
X129512D01*
X124000Y42724D02*
X129512D01*
Y52567D01*
X124000Y42724D02*
Y52567D01*
X118000D02*
X123512D01*
X118000Y42724D02*
X123512D01*
Y52567D01*
X118000Y42724D02*
Y52567D01*
X87357Y52067D02*
X92869D01*
X87357Y42224D02*
X92869D01*
Y52067D01*
X87357Y42224D02*
Y52067D01*
X75071D02*
X80583D01*
X75071Y42224D02*
X80583D01*
Y52067D01*
X75071Y42224D02*
Y52067D01*
X62786D02*
X68297D01*
X62786Y42224D02*
X68297D01*
Y52067D01*
X62786Y42224D02*
Y52067D01*
X50500D02*
X56012D01*
X50500Y42224D02*
X56012D01*
Y52067D01*
X50500Y42224D02*
Y52067D01*
X106000Y52567D02*
X111512D01*
X106000Y42724D02*
X111512D01*
Y52567D01*
X106000Y42724D02*
Y52567D01*
X112000D02*
X117512D01*
X112000Y42724D02*
X117512D01*
Y52567D01*
X112000Y42724D02*
Y52567D01*
X93500Y52067D02*
X99012D01*
X93500Y42224D02*
X99012D01*
Y52067D01*
X93500Y42224D02*
Y52067D01*
X81214D02*
X86726D01*
X81214Y42224D02*
X86726D01*
Y52067D01*
X81214Y42224D02*
Y52067D01*
X68928D02*
X74440D01*
X68928Y42224D02*
X74440D01*
Y52067D01*
X68928Y42224D02*
Y52067D01*
X153037Y5653D02*
Y30259D01*
X62880D02*
X153037D01*
X62880Y5653D02*
Y30259D01*
Y5653D02*
X153037D01*
X56643Y52067D02*
X62155D01*
X56643Y42224D02*
X62155D01*
Y52067D01*
X56643Y42224D02*
Y52067D01*
X160929Y161720D02*
Y186326D01*
Y161720D02*
X251086D01*
Y186326D01*
X160929D02*
X251086D01*
X203000Y191761D02*
Y195698D01*
X201031Y193730D02*
X204969D01*
X160736Y187627D02*
X245264D01*
X160736D02*
Y199832D01*
X245264D01*
Y187627D02*
Y199832D01*
X59272Y211893D02*
X149429D01*
Y187287D02*
Y211893D01*
X59272Y187287D02*
X149429D01*
X59272D02*
Y211893D01*
X280535Y95025D02*
X305142D01*
X280535Y4868D02*
Y95025D01*
Y4868D02*
X305142D01*
Y95025D01*
X3968Y1181D02*
Y91338D01*
X28575D01*
Y1181D02*
Y91338D01*
X3968Y1181D02*
X28575D01*
X264013Y117038D02*
X269131D01*
X264013Y106408D02*
Y117038D01*
Y106408D02*
X269131D01*
Y117038D01*
X264603Y111723D02*
X268540D01*
X266571Y109755D02*
Y113692D01*
X206713Y117291D02*
X211831D01*
X206713Y106661D02*
Y117291D01*
Y106661D02*
X211831D01*
Y117291D01*
X207303Y111976D02*
X211240D01*
X209272Y110007D02*
Y113944D01*
X151713Y117291D02*
X156831D01*
X151713Y106661D02*
Y117291D01*
Y106661D02*
X156831D01*
Y117291D01*
X152303Y111976D02*
X156240D01*
X154271Y110007D02*
Y113944D01*
X96513Y116538D02*
X101631D01*
X96513Y105908D02*
Y116538D01*
Y105908D02*
X101631D01*
Y116538D01*
X97103Y111223D02*
X101040D01*
X99072Y109255D02*
Y113192D01*
X216971Y79855D02*
Y83792D01*
X215003Y81823D02*
X218940D01*
X214412Y76508D02*
Y87138D01*
X219531D01*
Y76508D02*
Y87138D01*
X214412Y76508D02*
X219531D01*
X159971Y79855D02*
Y83792D01*
X158003Y81823D02*
X161940D01*
X157413Y76508D02*
Y87138D01*
X162531D01*
Y76508D02*
Y87138D01*
X157413Y76508D02*
X162531D01*
X104972Y79355D02*
Y83292D01*
X103003Y81323D02*
X106940D01*
X102412Y76008D02*
Y86638D01*
X107531D01*
Y76008D02*
Y86638D01*
X102412Y76008D02*
X107531D01*
X49472Y78855D02*
Y82792D01*
X47503Y80823D02*
X51440D01*
X46913Y75508D02*
Y86138D01*
X52031D01*
Y75508D02*
Y86138D01*
X46913Y75508D02*
X52031D01*
X262079Y59031D02*
Y89031D01*
X221134Y59031D02*
Y89031D01*
X262079D01*
X221134Y59031D02*
X262079D01*
X205079D02*
Y89031D01*
X164134Y59031D02*
Y89031D01*
X205079D01*
X164134Y59031D02*
X205079D01*
X150079D02*
Y89031D01*
X109134Y59031D02*
Y89031D01*
X150079D01*
X109134Y59031D02*
X150079D01*
X53783Y58291D02*
X94728D01*
X53783Y88291D02*
X94728D01*
X53783Y58291D02*
Y88291D01*
X94728Y58291D02*
Y88291D01*
X221433Y134161D02*
X262378D01*
X221433Y104161D02*
X262378D01*
Y134161D01*
X221433Y104161D02*
Y134161D01*
X164283Y104421D02*
Y134421D01*
X205228Y104421D02*
Y134421D01*
X164283Y104421D02*
X205228D01*
X164283Y134421D02*
X205228D01*
X109283Y104421D02*
Y134421D01*
X150228Y104421D02*
Y134421D01*
X109283Y104421D02*
X150228D01*
X109283Y134421D02*
X150228D01*
X53783Y103791D02*
Y133791D01*
X94728Y103791D02*
Y133791D01*
X53783Y103791D02*
X94728D01*
X53783Y133791D02*
X94728D01*
X217349Y203331D02*
Y207269D01*
X215381Y205300D02*
X219318D01*
X219908Y199985D02*
Y210615D01*
X214790D02*
X219908D01*
X214790Y199985D02*
Y210615D01*
Y199985D02*
X219908D01*
X228987Y229173D02*
X262452D01*
X228987Y200827D02*
X262452D01*
Y229173D01*
X228987Y200827D02*
Y229173D01*
Y229827D02*
Y258173D01*
X262452Y229827D02*
Y258173D01*
X228987Y229827D02*
X262452D01*
X228987Y258173D02*
X262452D01*
X242731Y270711D02*
X246669D01*
X244700Y268743D02*
Y272680D01*
X239385Y273270D02*
X250015D01*
X239385Y268152D02*
Y273270D01*
Y268152D02*
X250015D01*
Y273270D01*
X237188Y268152D02*
Y273270D01*
X226558Y268152D02*
X237188D01*
X226558D02*
Y273270D01*
X237188D01*
X231873Y268743D02*
Y272680D01*
X229904Y270711D02*
X233841D01*
X213724Y267499D02*
X223567D01*
X213724Y273011D02*
X223567D01*
X213724Y267499D02*
Y273011D01*
X223567Y267499D02*
Y273011D01*
X215700Y244731D02*
Y248669D01*
X213732Y246700D02*
X217669D01*
X213141Y241385D02*
Y252015D01*
Y241385D02*
X218259D01*
Y252015D01*
X213141D02*
X218259D01*
X240394Y311483D02*
X243149D01*
X241772Y310105D02*
Y312861D01*
X247677Y301837D02*
Y321129D01*
X235866D02*
X247677D01*
X235866Y301837D02*
Y321129D01*
Y301837D02*
X247677D01*
X232572Y276832D02*
Y280768D01*
X230603Y278800D02*
X234540D01*
X230012Y273485D02*
Y284115D01*
X235131D01*
Y273485D02*
Y284115D01*
X230012Y273485D02*
X235131D01*
X289744Y270579D02*
Y280421D01*
X295256Y270579D02*
Y280421D01*
X289744Y270579D02*
X295256D01*
X289744Y280421D02*
X295256D01*
X133418Y295661D02*
Y300779D01*
X122788D02*
X133418D01*
X122788Y295661D02*
Y300779D01*
Y295661D02*
X133418D01*
X128103Y296252D02*
Y300189D01*
X126135Y298220D02*
X130072D01*
X231572Y312983D02*
Y316920D01*
X229603Y314952D02*
X233540D01*
X234131Y309637D02*
Y320267D01*
X229012Y309637D02*
X234131D01*
X229012D02*
Y320267D01*
X234131D01*
X96395Y303961D02*
Y309079D01*
X85765D02*
X96395D01*
X85765Y303961D02*
Y309079D01*
Y303961D02*
X96395D01*
X91080Y304552D02*
Y308489D01*
X89111Y306520D02*
X93048D01*
X122274Y267446D02*
X134675D01*
Y283194D01*
X122274D02*
X134675D01*
X122274Y267446D02*
Y283194D01*
X128474Y273352D02*
Y277289D01*
X126506Y275320D02*
X130443D01*
X248351Y310423D02*
X253863D01*
X248351Y320266D02*
X253863D01*
X248351Y310423D02*
Y320266D01*
X253863Y310423D02*
Y320266D01*
X228027Y310423D02*
Y320266D01*
X222516Y310423D02*
Y320266D01*
X228027D01*
X222516Y310423D02*
X228027D01*
X223141Y297661D02*
X228259D01*
Y308291D01*
X223141D02*
X228259D01*
X223141Y297661D02*
Y308291D01*
X223731Y302976D02*
X227668D01*
X225700Y301007D02*
Y304944D01*
X229012Y297661D02*
X234131D01*
Y308291D01*
X229012D02*
X234131D01*
X229012Y297661D02*
Y308291D01*
X229603Y302976D02*
X233540D01*
X231572Y301007D02*
Y304944D01*
X126135Y286520D02*
X130072D01*
X128103Y284552D02*
Y288489D01*
X122788Y283961D02*
X133418D01*
X122788D02*
Y289079D01*
X133418D01*
Y283961D02*
Y289079D01*
X126127Y264120D02*
X130064D01*
X128095Y262152D02*
Y266089D01*
X122781Y266679D02*
X133411D01*
Y261561D02*
Y266679D01*
X122781Y261561D02*
X133411D01*
X122781D02*
Y266679D01*
D93*
X98833Y279718D02*
Y283655D01*
X96864Y281686D02*
X100801D01*
X291032Y261000D02*
X294969D01*
X293000Y259032D02*
Y262968D01*
X289500Y253000D02*
Y268500D01*
X296500Y253000D02*
Y268500D01*
X289500Y253000D02*
X296500D01*
X289500Y268500D02*
X296500D01*
X52263Y243657D02*
Y247594D01*
X50294Y245626D02*
X54231D01*
X29527Y269509D02*
X33070D01*
X31298Y267737D02*
Y271280D01*
X23027Y281854D02*
X26570D01*
X24798Y280083D02*
Y283626D01*
X22527Y269509D02*
X26070D01*
X24298Y267737D02*
Y271280D01*
X44255Y269485D02*
X47799D01*
X46027Y267714D02*
Y271257D01*
X29527Y281854D02*
X33070D01*
X31298Y280083D02*
Y283626D01*
X128474Y311549D02*
Y315092D01*
X126703Y313320D02*
X130246D01*
X128496Y303549D02*
Y307092D01*
X126724Y305320D02*
X130267D01*
X176399Y45874D02*
Y49417D01*
X174627Y47646D02*
X178170D01*
X188541Y45874D02*
Y49417D01*
X186770Y47646D02*
X190313D01*
X200684Y45874D02*
Y49417D01*
X198913Y47646D02*
X202456D01*
X272532Y291854D02*
X276468D01*
X274500Y289885D02*
Y293822D01*
X254750Y291251D02*
Y294795D01*
X252979Y293023D02*
X256522D01*
X253000Y300000D02*
X256543D01*
X254771Y298228D02*
Y301772D01*
X283672Y275408D02*
X287216D01*
X285444Y273636D02*
Y277179D01*
X282782Y261000D02*
X286719D01*
X284750Y259032D02*
Y262968D01*
X281250Y253000D02*
Y268500D01*
X288250Y253000D02*
Y268500D01*
X281250Y253000D02*
X288250D01*
X281250Y268500D02*
X288250D01*
X289500Y235749D02*
X296500D01*
X289500Y251249D02*
X296500D01*
X289500Y235749D02*
Y251249D01*
X296500Y235749D02*
Y251249D01*
X293000Y241281D02*
Y245217D01*
X291032Y243249D02*
X294969D01*
X281250Y235749D02*
X288250D01*
X281250Y251249D02*
X288250D01*
X281250Y235749D02*
Y251249D01*
X288250Y235749D02*
Y251249D01*
X284750Y241281D02*
Y245217D01*
X282782Y243249D02*
X286719D01*
X284500Y228505D02*
Y232048D01*
X282728Y230277D02*
X286272D01*
X293000Y228505D02*
Y232048D01*
X291228Y230277D02*
X294772D01*
X36803Y307347D02*
X40740D01*
X38772Y305378D02*
Y309315D01*
X36772Y220251D02*
Y223795D01*
X35000Y222023D02*
X38543D01*
X123974Y244549D02*
Y248092D01*
X122203Y246320D02*
X125746D01*
X115703D02*
X119246D01*
X117474Y244549D02*
Y248092D01*
X104474Y244549D02*
Y248092D01*
X102703Y246320D02*
X106246D01*
X109203D02*
X112746D01*
X110974Y244549D02*
Y248092D01*
X97974Y244549D02*
Y248092D01*
X96203Y246320D02*
X99746D01*
X91474Y244549D02*
Y248092D01*
X89703Y246320D02*
X93246D01*
X84974Y244549D02*
Y248092D01*
X83203Y246320D02*
X86746D01*
X78474Y244549D02*
Y248092D01*
X76703Y246320D02*
X80246D01*
X71974Y244549D02*
Y248092D01*
X70203Y246320D02*
X73746D01*
X220970Y143874D02*
Y147417D01*
X219198Y145646D02*
X222742D01*
X176327Y143874D02*
Y147417D01*
X174556Y145646D02*
X178099D01*
X89222Y143958D02*
Y147502D01*
X87450Y145730D02*
X90993D01*
X77079Y143958D02*
Y147502D01*
X75307Y145730D02*
X78850D01*
X64936Y143958D02*
Y147502D01*
X63164Y145730D02*
X66708D01*
X52793Y143958D02*
Y147502D01*
X51021Y145730D02*
X54565D01*
X108756Y143874D02*
Y147417D01*
X106984Y145646D02*
X110527D01*
X121042Y143874D02*
Y147417D01*
X119270Y145646D02*
X122813D01*
X133327Y143874D02*
Y147417D01*
X131555Y145646D02*
X135099D01*
X145613Y143874D02*
Y147417D01*
X143841Y145646D02*
X147385D01*
X164399Y143874D02*
Y147417D01*
X162627Y145646D02*
X166170D01*
X188184Y143874D02*
Y147417D01*
X186413Y145646D02*
X189956D01*
X200042Y143874D02*
Y147417D01*
X198270Y145646D02*
X201813D01*
X233256Y143874D02*
Y147417D01*
X231484Y145646D02*
X235027D01*
X245542Y143874D02*
Y147417D01*
X243770Y145646D02*
X247313D01*
X257827Y143874D02*
Y147417D01*
X256055Y145646D02*
X259599D01*
X263970Y143874D02*
Y147417D01*
X262198Y145646D02*
X265742D01*
X251684Y143874D02*
Y147417D01*
X249913Y145646D02*
X253456D01*
X239399Y143874D02*
Y147417D01*
X237627Y145646D02*
X241170D01*
X227113Y143874D02*
Y147417D01*
X225341Y145646D02*
X228885D01*
X205899Y143874D02*
Y147417D01*
X204127Y145646D02*
X207670D01*
X194113Y143874D02*
Y147417D01*
X192341Y145646D02*
X195885D01*
X182256Y143874D02*
Y147417D01*
X180484Y145646D02*
X184027D01*
X170399Y143874D02*
Y147417D01*
X168627Y145646D02*
X172170D01*
X151756Y143874D02*
Y147417D01*
X149984Y145646D02*
X153527D01*
X139470Y143874D02*
Y147417D01*
X137698Y145646D02*
X141242D01*
X127184Y143874D02*
Y147417D01*
X125413Y145646D02*
X128956D01*
X114899Y143874D02*
Y147417D01*
X113127Y145646D02*
X116670D01*
X95293Y143958D02*
Y147502D01*
X93521Y145730D02*
X97065D01*
X83150Y143958D02*
Y147502D01*
X81379Y145730D02*
X84922D01*
X71007Y143958D02*
Y147502D01*
X69236Y145730D02*
X72779D01*
X57093D02*
X60636D01*
X58864Y143958D02*
Y147502D01*
X257184Y45874D02*
Y49417D01*
X255413Y47646D02*
X258956D01*
X263256Y45874D02*
Y49417D01*
X261484Y47646D02*
X265027D01*
X245041Y45874D02*
Y49417D01*
X243270Y47646D02*
X246813D01*
X251113Y45874D02*
Y49417D01*
X249341Y47646D02*
X252885D01*
X238970Y45874D02*
Y49417D01*
X237198Y47646D02*
X240742D01*
X232899Y45874D02*
Y49417D01*
X231127Y47646D02*
X234670D01*
X220756Y45874D02*
Y49417D01*
X218984Y47646D02*
X222527D01*
X226827Y45874D02*
Y49417D01*
X225056Y47646D02*
X228599D01*
X206756Y45874D02*
Y49417D01*
X204984Y47646D02*
X208527D01*
X194613Y45874D02*
Y49417D01*
X192841Y47646D02*
X196385D01*
X182470Y45874D02*
Y49417D01*
X180698Y47646D02*
X184242D01*
X164256Y45874D02*
Y49417D01*
X162484Y47646D02*
X166027D01*
X170327Y45874D02*
Y49417D01*
X168555Y47646D02*
X172099D01*
X144756Y45874D02*
Y49417D01*
X142984Y47646D02*
X146527D01*
X150756Y45874D02*
Y49417D01*
X148984Y47646D02*
X152527D01*
X138756Y45874D02*
Y49417D01*
X136984Y47646D02*
X140527D01*
X132756Y45874D02*
Y49417D01*
X130984Y47646D02*
X134527D01*
X126756Y45874D02*
Y49417D01*
X124984Y47646D02*
X128527D01*
X120756Y45874D02*
Y49417D01*
X118984Y47646D02*
X122527D01*
X90113Y45374D02*
Y48917D01*
X88341Y47146D02*
X91885D01*
X77827Y45374D02*
Y48917D01*
X76056Y47146D02*
X79599D01*
X65541Y45374D02*
Y48917D01*
X63770Y47146D02*
X67313D01*
X53256Y45374D02*
Y48917D01*
X51484Y47146D02*
X55028D01*
X108756Y45874D02*
Y49417D01*
X106984Y47646D02*
X110527D01*
X114756Y45874D02*
Y49417D01*
X112984Y47646D02*
X116527D01*
X96256Y45374D02*
Y48917D01*
X94484Y47146D02*
X98027D01*
X83970Y45374D02*
Y48917D01*
X82198Y47146D02*
X85742D01*
X71684Y45374D02*
Y48917D01*
X69913Y47146D02*
X73456D01*
X59399Y45374D02*
Y48917D01*
X57627Y47146D02*
X61170D01*
X239638Y74031D02*
X243575D01*
X241606Y72063D02*
Y76000D01*
X182638Y74031D02*
X186575D01*
X184606Y72063D02*
Y76000D01*
X127638Y74031D02*
X131575D01*
X129606Y72063D02*
Y76000D01*
X74256Y71323D02*
Y75260D01*
X72287Y73291D02*
X76224D01*
X241905Y117193D02*
Y121130D01*
X239937Y119161D02*
X243874D01*
X182787Y119421D02*
X186724D01*
X184756Y117453D02*
Y121390D01*
X127787Y119421D02*
X131724D01*
X129756Y117453D02*
Y121390D01*
X72287Y118791D02*
X76224D01*
X74256Y116823D02*
Y120760D01*
X245720Y213032D02*
Y216968D01*
X243751Y215000D02*
X247688D01*
X243751Y244000D02*
X247688D01*
X245720Y242032D02*
Y245969D01*
X218646Y268484D02*
Y272027D01*
X216874Y270255D02*
X220417D01*
X290728Y275500D02*
X294272D01*
X292500Y273728D02*
Y277272D01*
X251107Y313573D02*
Y317116D01*
X249335Y315344D02*
X252879D01*
X223500D02*
X227043D01*
X225272Y313573D02*
Y317116D01*
D117*
X-137310Y-173579D02*
G03*
X-137310Y-173579I0J-0D01*
G01*
D02*
G03*
X-137310Y-173579I0J0D01*
G01*
D02*
G03*
X-137310Y-173579I0J-0D01*
G01*
D02*
G03*
X-137310Y-173579I0J0D01*
G01*
D02*
G03*
X-137310Y-173579I0J-0D01*
G01*
D02*
G03*
X-137310Y-173579I0J0D01*
G01*
X-137308D02*
G03*
X-137308Y-173579I0J-0D01*
G01*
D02*
G03*
X-137308Y-173579I0J0D01*
G01*
X-137312D02*
G03*
X-137312Y-173579I0J-0D01*
G01*
D02*
G03*
X-137312Y-173579I0J0D01*
G01*
X-137072Y-173824D02*
G03*
X-137072Y-173823I0J0D01*
G01*
D02*
G03*
X-137072Y-173824I0J-0D01*
G01*
X-137072Y-173730D02*
G03*
X-137072Y-173729I0J0D01*
G01*
D02*
G03*
X-137072Y-173730I0J-0D01*
G01*
X-137210Y-173628D02*
G03*
X-137211Y-173628I-0J0D01*
G01*
D02*
G03*
X-137210Y-173628I0J0D01*
G01*
X-137201Y-173806D02*
G03*
X-137200Y-173806I0J0D01*
G01*
D02*
G03*
X-137201Y-173806I-0J0D01*
G01*
X-137109Y-173654D02*
G03*
X-137109Y-173654I-0J0D01*
G01*
D02*
G03*
X-137109Y-173654I0J0D01*
G01*
X-137210D02*
G03*
X-137211Y-173654I-0J0D01*
G01*
D02*
G03*
X-137210Y-173654I0J0D01*
G01*
X-137344Y-173732D02*
G03*
X-137344Y-173732I0J-0D01*
G01*
D02*
G03*
X-137344Y-173732I0J0D01*
G01*
Y-173638D02*
G03*
X-137344Y-173638I0J-0D01*
G01*
D02*
G03*
X-137344Y-173638I0J0D01*
G01*
X-137148Y-173600D02*
G03*
X-137148Y-173600I-0J0D01*
G01*
D02*
G03*
X-137148Y-173600I0J0D01*
G01*
X-137201D02*
G03*
X-137201Y-173600I-0J0D01*
G01*
D02*
G03*
X-137201Y-173600I0J0D01*
G01*
X-137148D02*
G03*
X-137148Y-173600I-0J0D01*
G01*
D02*
G03*
X-137148Y-173600I0J0D01*
G01*
Y-173610D02*
G03*
X-137148Y-173610I-0J0D01*
G01*
D02*
G03*
X-137148Y-173610I0J0D01*
G01*
D02*
G03*
X-137148Y-173610I-0J0D01*
G01*
D02*
G03*
X-137148Y-173610I0J0D01*
G01*
X-137201D02*
G03*
X-137201Y-173610I-0J0D01*
G01*
D02*
G03*
X-137201Y-173610I0J0D01*
G01*
Y-173600D02*
G03*
X-137201Y-173600I-0J0D01*
G01*
D02*
G03*
X-137201Y-173600I0J0D01*
G01*
Y-173610D02*
G03*
X-137201Y-173610I-0J0D01*
G01*
D02*
G03*
X-137201Y-173610I0J0D01*
G01*
X-137252Y-173532D02*
G03*
X-137251Y-173532I0J0D01*
G01*
D02*
G03*
X-137252Y-173532I-0J0D01*
G01*
Y-173556D02*
G03*
X-137251Y-173556I0J0D01*
G01*
D02*
G03*
X-137252Y-173556I-0J0D01*
G01*
X-137276Y-173532D02*
G03*
X-137276Y-173532I0J0D01*
G01*
D02*
G03*
X-137276Y-173532I-0J0D01*
G01*
Y-173556D02*
G03*
X-137276Y-173556I0J0D01*
G01*
D02*
G03*
X-137276Y-173556I-0J0D01*
G01*
X-137252D02*
G03*
X-137251Y-173556I0J0D01*
G01*
D02*
G03*
X-137252Y-173556I-0J0D01*
G01*
X-137276D02*
G03*
X-137276Y-173556I0J0D01*
G01*
D02*
G03*
X-137276Y-173556I-0J0D01*
G01*
X-137252Y-173532D02*
G03*
X-137251Y-173532I0J0D01*
G01*
D02*
G03*
X-137252Y-173532I-0J0D01*
G01*
X-137276D02*
G03*
X-137276Y-173532I0J0D01*
G01*
D02*
G03*
X-137276Y-173532I-0J0D01*
G01*
X-137302Y-173806D02*
G03*
X-137302Y-173806I0J0D01*
G01*
D02*
G03*
X-137302Y-173806I-0J0D01*
G01*
D119*
X-137316Y-173638D02*
X-137312D01*
X-137322Y-173632D02*
X-137317D01*
X-137312Y-173638D02*
Y-173615D01*
X-137327D02*
X-137322D01*
X-137316D02*
X-137312D01*
X-137327Y-173638D02*
Y-173615D01*
X-137322Y-173632D02*
Y-173621D01*
X-137317D01*
X-137327Y-173638D02*
X-137322D01*
X-137317Y-173632D02*
Y-173621D01*
X-137211Y-173626D02*
Y-173618D01*
Y-173626D02*
X-137106D01*
Y-173618D01*
X-137211D02*
X-137106D01*
X-137200Y-173626D02*
Y-173618D01*
X-137191Y-173626D02*
Y-173619D01*
X-137180Y-173626D02*
Y-173618D01*
X-137161Y-173626D02*
Y-173619D01*
X-137145Y-173626D02*
Y-173618D01*
X-137129Y-173626D02*
Y-173618D01*
X-137116Y-173626D02*
Y-173618D01*
X-137210Y-173599D02*
Y-173590D01*
Y-173599D02*
X-137136D01*
Y-173590D01*
X-137210D02*
X-137136D01*
X-137210Y-173590D02*
Y-173590D01*
X-137196Y-173599D02*
Y-173590D01*
X-137180Y-173599D02*
Y-173590D01*
X-137163Y-173599D02*
Y-173590D01*
X-137152Y-173598D02*
Y-173590D01*
D120*
X-137194Y-173475D02*
G03*
X-137195Y-173475I-0J0D01*
G01*
D02*
G03*
X-137194Y-173475I0J0D01*
G01*
Y-173483D02*
G03*
X-137195Y-173483I-0J0D01*
G01*
D02*
G03*
X-137194Y-173483I0J0D01*
G01*
X-137184Y-173475D02*
G03*
X-137185Y-173475I-0J0D01*
G01*
D02*
G03*
X-137184Y-173475I0J0D01*
G01*
Y-173483D02*
G03*
X-137185Y-173483I-0J0D01*
G01*
D02*
G03*
X-137184Y-173483I0J0D01*
G01*
D02*
G03*
X-137185Y-173483I-0J0D01*
G01*
D02*
G03*
X-137184Y-173483I0J0D01*
G01*
X-137194D02*
G03*
X-137195Y-173483I-0J0D01*
G01*
D02*
G03*
X-137194Y-173483I0J0D01*
G01*
X-137184Y-173475D02*
G03*
X-137185Y-173475I-0J0D01*
G01*
D02*
G03*
X-137184Y-173475I0J0D01*
G01*
X-137194D02*
G03*
X-137195Y-173475I-0J0D01*
G01*
D02*
G03*
X-137194Y-173475I0J0D01*
G01*
D121*
X-137335Y-173530D02*
D03*
Y-173529D02*
D03*
X-137121Y-173536D02*
D03*
Y-173535D02*
D03*
X-137095Y-173529D02*
D03*
Y-173530D02*
D03*
X-137304Y-173605D02*
D03*
X-137303D02*
D03*
X-137291D02*
D03*
X-137290D02*
D03*
X-137277D02*
D03*
X-137276D02*
D03*
X-137264D02*
D03*
X-137263D02*
D03*
X-137251Y-173605D02*
D03*
X-137250D02*
D03*
X-137238Y-173605D02*
D03*
X-137237D02*
D03*
X-137224D02*
D03*
X-137223D02*
D03*
X-137211D02*
D03*
X-137210D02*
D03*
X-137312Y-173638D02*
D03*
X-137316D02*
D03*
X-137317Y-173632D02*
D03*
X-137322D02*
D03*
X-137312Y-173615D02*
D03*
Y-173638D02*
D03*
X-137322Y-173615D02*
D03*
X-137327D02*
D03*
X-137312D02*
D03*
X-137316D02*
D03*
X-137327D02*
D03*
Y-173638D02*
D03*
X-137322Y-173621D02*
D03*
Y-173632D02*
D03*
X-137317Y-173621D02*
D03*
X-137322D02*
D03*
X-137322Y-173638D02*
D03*
X-137327D02*
D03*
X-137317Y-173621D02*
D03*
Y-173632D02*
D03*
X-137247Y-173558D02*
D03*
X-137248D02*
D03*
X-137142Y-173763D02*
D03*
Y-173762D02*
D03*
X-137100Y-173696D02*
D03*
Y-173697D02*
D03*
X-137199Y-173763D02*
D03*
Y-173762D02*
D03*
X-137157Y-173696D02*
D03*
Y-173696D02*
D03*
X-137254Y-173763D02*
D03*
Y-173762D02*
D03*
X-137212Y-173696D02*
D03*
Y-173696D02*
D03*
X-137309Y-173764D02*
D03*
Y-173763D02*
D03*
X-137267Y-173696D02*
D03*
Y-173697D02*
D03*
X-137211Y-173618D02*
D03*
Y-173626D02*
D03*
X-137106D02*
D03*
X-137211D02*
D03*
X-137106Y-173618D02*
D03*
Y-173626D02*
D03*
Y-173618D02*
D03*
X-137211D02*
D03*
X-137200D02*
D03*
Y-173626D02*
D03*
X-137191Y-173619D02*
D03*
Y-173626D02*
D03*
X-137180Y-173618D02*
D03*
Y-173626D02*
D03*
X-137161Y-173619D02*
D03*
Y-173626D02*
D03*
X-137145Y-173618D02*
D03*
Y-173626D02*
D03*
X-137129Y-173618D02*
D03*
Y-173626D02*
D03*
X-137116Y-173618D02*
D03*
Y-173626D02*
D03*
X-137210Y-173590D02*
D03*
Y-173599D02*
D03*
X-137136D02*
D03*
X-137210D02*
D03*
X-137136Y-173590D02*
D03*
Y-173599D02*
D03*
Y-173590D02*
D03*
X-137210D02*
D03*
D03*
Y-173590D02*
D03*
X-137196Y-173590D02*
D03*
Y-173599D02*
D03*
X-137180Y-173590D02*
D03*
Y-173599D02*
D03*
X-137163Y-173590D02*
D03*
Y-173599D02*
D03*
X-137152Y-173590D02*
D03*
Y-173598D02*
D03*
D123*
X-137175Y-173475D02*
D03*
Y-173483D02*
D03*
X-137155Y-173475D02*
D03*
Y-173493D02*
D03*
X-137204Y-173475D02*
D03*
X-137212D02*
D03*
X-137175Y-173483D02*
D03*
X-137204Y-173475D02*
D03*
Y-173483D02*
D03*
X-137165Y-173475D02*
D03*
X-137175D02*
D03*
X-137155D02*
D03*
X-137165D02*
D03*
X-137204Y-173483D02*
D03*
X-137212Y-173475D02*
D03*
Y-173493D02*
D03*
X-137165Y-173475D02*
D03*
Y-173493D02*
D03*
D125*
X-137175Y-173483D02*
Y-173475D01*
X-137195Y-173483D02*
Y-173475D01*
X-137155Y-173493D02*
Y-173475D01*
X-137185Y-173483D02*
Y-173475D01*
X-137212D02*
X-137204D01*
X-137185Y-173483D02*
X-137175D01*
X-137204D02*
Y-173475D01*
X-137175D02*
X-137165D01*
X-137155D01*
X-137204Y-173483D02*
X-137195D01*
X-137212Y-173493D02*
Y-173475D01*
X-137165Y-173493D02*
Y-173475D01*
X-137195D02*
X-137185D01*
D129*
X-137084Y-173532D02*
G03*
X-137083Y-173532I0J0D01*
G01*
D02*
G03*
X-137084Y-173532I-0J0D01*
G01*
X-137231Y-173560D02*
G03*
X-137231Y-173559I0J0D01*
G01*
D02*
G03*
X-137231Y-173560I0J-0D01*
G01*
X-137082Y-173519D02*
X-137078D01*
X-137087Y-173512D02*
Y-173507D01*
X-137055Y-173512D02*
Y-173507D01*
X-137064Y-173519D02*
X-137060D01*
X-137126Y-173520D02*
X-137125D01*
X-137126D02*
Y-173509D01*
X-137125D01*
X-137116Y-173520D02*
X-137116D01*
Y-173509D01*
X-137116D02*
X-137116D01*
X-137101Y-173521D02*
X-137100D01*
X-137101D02*
Y-173509D01*
X-137100D01*
X-137092Y-173521D02*
X-137091D01*
Y-173509D01*
X-137092D02*
X-137091D01*
X-137310Y-173582D02*
Y-173582D01*
Y-173579D02*
Y-173578D01*
X-137312Y-173582D02*
X-137308D01*
X-137310Y-173579D02*
X-137308Y-173582D01*
X-137312D02*
X-137310Y-173579D01*
X-137312D02*
X-137308D01*
X-137309Y-173566D02*
X-137304D01*
Y-173595D02*
Y-173566D01*
X-137309Y-173566D02*
Y-173566D01*
Y-173566D02*
X-137304D01*
X-137317D02*
X-137311D01*
Y-173566D01*
X-137306Y-173595D02*
X-137304D01*
X-137317Y-173566D02*
X-137311D01*
X-137317Y-173595D02*
X-137315D01*
X-137317D02*
Y-173566D01*
X-137334Y-173525D02*
X-137314D01*
X-137334Y-173512D02*
X-137314D01*
X-137334Y-173525D02*
Y-173512D01*
X-137314Y-173525D02*
Y-173512D01*
X-137118Y-173638D02*
Y-173627D01*
X-137201D02*
X-137118D01*
X-137201Y-173638D02*
Y-173627D01*
Y-173638D02*
X-137118D01*
X-137201Y-173600D02*
X-137148D01*
Y-173610D02*
Y-173600D01*
X-137201Y-173610D02*
X-137148D01*
X-137201D02*
Y-173600D01*
X-137301Y-173521D02*
X-137291D01*
X-137301Y-173511D02*
X-137291D01*
Y-173551D02*
Y-173511D01*
X-137301Y-173551D02*
Y-173511D01*
Y-173551D02*
X-137291D01*
X-137251Y-173556D02*
Y-173532D01*
X-137276Y-173556D02*
Y-173532D01*
Y-173556D02*
X-137251D01*
X-137276Y-173532D02*
X-137251D01*
X-137140Y-173758D02*
X-137101D01*
X-137140Y-173746D02*
X-137101D01*
X-137140Y-173758D02*
Y-173746D01*
X-137101Y-173758D02*
Y-173746D01*
X-137140Y-173713D02*
Y-173701D01*
X-137101Y-173713D02*
Y-173701D01*
X-137140Y-173713D02*
X-137101D01*
X-137140Y-173701D02*
X-137101D01*
X-137197Y-173758D02*
X-137158D01*
X-137197Y-173746D02*
X-137158D01*
X-137197Y-173758D02*
Y-173746D01*
X-137158Y-173758D02*
Y-173746D01*
X-137197Y-173700D02*
X-137158D01*
X-137197Y-173713D02*
X-137158D01*
Y-173700D01*
X-137197Y-173713D02*
Y-173700D01*
X-137252Y-173758D02*
X-137213D01*
X-137252Y-173746D02*
X-137213D01*
X-137252Y-173758D02*
Y-173746D01*
X-137213Y-173758D02*
Y-173746D01*
X-137252Y-173700D02*
X-137213D01*
X-137252Y-173713D02*
X-137213D01*
Y-173700D01*
X-137252Y-173713D02*
Y-173700D01*
X-137269Y-173759D02*
Y-173747D01*
X-137308Y-173759D02*
Y-173747D01*
X-137269D01*
X-137308Y-173759D02*
X-137269D01*
X-137308Y-173701D02*
X-137269D01*
X-137308Y-173713D02*
X-137269D01*
Y-173701D01*
X-137308Y-173713D02*
Y-173701D01*
D130*
X-137081Y-173567D02*
G03*
X-137081Y-173567I0J0D01*
G01*
D02*
G03*
X-137081Y-173567I0J-0D01*
G01*
Y-173572D02*
G03*
X-137081Y-173572I0J0D01*
G01*
D02*
G03*
X-137081Y-173572I0J-0D01*
G01*
Y-173563D02*
G03*
X-137081Y-173563I0J0D01*
G01*
D02*
G03*
X-137081Y-173563I0J-0D01*
G01*
X-137074Y-173567D02*
G03*
X-137074Y-173567I0J0D01*
G01*
D02*
G03*
X-137074Y-173567I0J-0D01*
G01*
Y-173572D02*
G03*
X-137074Y-173572I0J0D01*
G01*
D02*
G03*
X-137074Y-173572I0J-0D01*
G01*
Y-173563D02*
G03*
X-137074Y-173563I0J0D01*
G01*
D02*
G03*
X-137074Y-173563I0J-0D01*
G01*
X-137075Y-173573D02*
G03*
X-137075Y-173573I0J0D01*
G01*
D02*
G03*
X-137075Y-173573I0J-0D01*
G01*
X-137080D02*
G03*
X-137080Y-173573I0J0D01*
G01*
D02*
G03*
X-137080Y-173573I0J-0D01*
G01*
D02*
G03*
X-137080Y-173573I0J0D01*
G01*
D02*
G03*
X-137080Y-173573I0J-0D01*
G01*
X-137081Y-173572D02*
G03*
X-137081Y-173572I0J0D01*
G01*
D02*
G03*
X-137081Y-173572I0J-0D01*
G01*
X-137074D02*
G03*
X-137074Y-173572I0J0D01*
G01*
D02*
G03*
X-137074Y-173572I0J-0D01*
G01*
X-137075Y-173573D02*
G03*
X-137075Y-173573I0J0D01*
G01*
D02*
G03*
X-137075Y-173573I0J-0D01*
G01*
X-137072Y-173575D02*
G03*
X-137072Y-173575I0J-0D01*
G01*
D02*
G03*
X-137072Y-173575I0J0D01*
G01*
X-137073Y-173576D02*
G03*
X-137073Y-173576I0J-0D01*
G01*
D02*
G03*
X-137073Y-173576I0J0D01*
G01*
X-137066D02*
G03*
X-137066Y-173576I0J-0D01*
G01*
D02*
G03*
X-137066Y-173576I0J0D01*
G01*
X-137067Y-173575D02*
G03*
X-137067Y-173575I0J-0D01*
G01*
D02*
G03*
X-137067Y-173575I0J0D01*
G01*
D02*
G03*
X-137067Y-173575I0J-0D01*
G01*
D02*
G03*
X-137067Y-173575I0J0D01*
G01*
X-137072D02*
G03*
X-137072Y-173575I0J-0D01*
G01*
D02*
G03*
X-137072Y-173575I0J0D01*
G01*
X-137073Y-173585D02*
G03*
X-137073Y-173585I0J-0D01*
G01*
D02*
G03*
X-137073Y-173585I0J0D01*
G01*
Y-173576D02*
G03*
X-137073Y-173576I0J-0D01*
G01*
D02*
G03*
X-137073Y-173576I0J0D01*
G01*
Y-173581D02*
G03*
X-137073Y-173581I0J-0D01*
G01*
D02*
G03*
X-137073Y-173581I0J0D01*
G01*
X-137066Y-173585D02*
G03*
X-137066Y-173585I0J-0D01*
G01*
D02*
G03*
X-137066Y-173585I0J0D01*
G01*
Y-173576D02*
G03*
X-137066Y-173576I0J-0D01*
G01*
D02*
G03*
X-137066Y-173576I0J0D01*
G01*
Y-173581D02*
G03*
X-137066Y-173581I0J-0D01*
G01*
D02*
G03*
X-137066Y-173581I0J0D01*
G01*
X-137080Y-173575D02*
G03*
X-137080Y-173575I0J-0D01*
G01*
D02*
G03*
X-137080Y-173575I0J0D01*
G01*
X-137081Y-173576D02*
G03*
X-137081Y-173576I0J-0D01*
G01*
D02*
G03*
X-137081Y-173576I0J0D01*
G01*
X-137074D02*
G03*
X-137074Y-173576I0J-0D01*
G01*
D02*
G03*
X-137074Y-173576I0J0D01*
G01*
X-137075Y-173575D02*
G03*
X-137075Y-173575I0J-0D01*
G01*
D02*
G03*
X-137075Y-173575I0J0D01*
G01*
D02*
G03*
X-137075Y-173575I0J-0D01*
G01*
D02*
G03*
X-137075Y-173575I0J0D01*
G01*
X-137080D02*
G03*
X-137080Y-173575I0J-0D01*
G01*
D02*
G03*
X-137080Y-173575I0J0D01*
G01*
X-137081Y-173585D02*
G03*
X-137081Y-173585I0J-0D01*
G01*
D02*
G03*
X-137081Y-173585I0J0D01*
G01*
Y-173576D02*
G03*
X-137081Y-173576I0J-0D01*
G01*
D02*
G03*
X-137081Y-173576I0J0D01*
G01*
Y-173581D02*
G03*
X-137081Y-173581I0J-0D01*
G01*
D02*
G03*
X-137081Y-173581I0J0D01*
G01*
X-137074Y-173585D02*
G03*
X-137074Y-173585I0J-0D01*
G01*
D02*
G03*
X-137074Y-173585I0J0D01*
G01*
Y-173576D02*
G03*
X-137074Y-173576I0J-0D01*
G01*
D02*
G03*
X-137074Y-173576I0J0D01*
G01*
Y-173581D02*
G03*
X-137074Y-173581I0J-0D01*
G01*
D02*
G03*
X-137074Y-173581I0J0D01*
G01*
X-137357Y-173577D02*
G03*
X-137358Y-173577I-0J0D01*
G01*
D02*
G03*
X-137357Y-173577I0J0D01*
G01*
X-137320Y-173574D02*
G03*
X-137320Y-173574I-0J0D01*
G01*
D02*
G03*
X-137320Y-173574I0J0D01*
G01*
Y-173580D02*
G03*
X-137320Y-173580I-0J0D01*
G01*
D02*
G03*
X-137320Y-173580I0J0D01*
G01*
X-137317Y-173577D02*
G03*
X-137318Y-173577I-0J0D01*
G01*
D02*
G03*
X-137317Y-173577I0J0D01*
G01*
X-137086Y-173548D02*
G03*
X-137086Y-173549I0J-0D01*
G01*
D02*
G03*
X-137086Y-173548I0J0D01*
G01*
Y-173562D02*
G03*
X-137086Y-173563I0J-0D01*
G01*
D02*
G03*
X-137086Y-173562I0J0D01*
G01*
X-137126Y-173548D02*
G03*
X-137126Y-173549I0J-0D01*
G01*
D02*
G03*
X-137126Y-173548I0J0D01*
G01*
Y-173562D02*
G03*
X-137126Y-173563I0J-0D01*
G01*
D02*
G03*
X-137126Y-173562I0J0D01*
G01*
X-137086Y-173548D02*
G03*
X-137086Y-173549I0J-0D01*
G01*
D02*
G03*
X-137086Y-173548I0J0D01*
G01*
Y-173562D02*
G03*
X-137086Y-173563I0J-0D01*
G01*
D02*
G03*
X-137086Y-173562I0J0D01*
G01*
X-137126Y-173548D02*
G03*
X-137126Y-173549I0J-0D01*
G01*
D02*
G03*
X-137126Y-173548I0J0D01*
G01*
Y-173562D02*
G03*
X-137126Y-173563I0J-0D01*
G01*
D02*
G03*
X-137126Y-173562I0J0D01*
G01*
X-137070Y-173542D02*
G03*
X-137070Y-173542I-0J0D01*
G01*
D02*
G03*
X-137070Y-173542I0J0D01*
G01*
X-137077D02*
G03*
X-137077Y-173542I-0J0D01*
G01*
D02*
G03*
X-137077Y-173542I0J0D01*
G01*
X-137070Y-173529D02*
G03*
X-137070Y-173529I-0J0D01*
G01*
D02*
G03*
X-137070Y-173529I0J0D01*
G01*
X-137077D02*
G03*
X-137077Y-173529I-0J0D01*
G01*
D02*
G03*
X-137077Y-173529I0J0D01*
G01*
X-137073Y-173567D02*
G03*
X-137073Y-173567I0J0D01*
G01*
D02*
G03*
X-137073Y-173567I0J-0D01*
G01*
Y-173572D02*
G03*
X-137073Y-173572I0J0D01*
G01*
D02*
G03*
X-137073Y-173572I0J-0D01*
G01*
Y-173563D02*
G03*
X-137073Y-173563I0J0D01*
G01*
D02*
G03*
X-137073Y-173563I0J-0D01*
G01*
X-137066Y-173567D02*
G03*
X-137066Y-173567I0J0D01*
G01*
D02*
G03*
X-137066Y-173567I0J-0D01*
G01*
Y-173572D02*
G03*
X-137066Y-173572I0J0D01*
G01*
D02*
G03*
X-137066Y-173572I0J-0D01*
G01*
Y-173563D02*
G03*
X-137066Y-173563I0J0D01*
G01*
D02*
G03*
X-137066Y-173563I0J-0D01*
G01*
X-137067Y-173573D02*
G03*
X-137067Y-173573I0J0D01*
G01*
D02*
G03*
X-137067Y-173573I0J-0D01*
G01*
X-137072D02*
G03*
X-137072Y-173573I0J0D01*
G01*
D02*
G03*
X-137072Y-173573I0J-0D01*
G01*
D02*
G03*
X-137072Y-173573I0J0D01*
G01*
D02*
G03*
X-137072Y-173573I0J-0D01*
G01*
X-137073Y-173572D02*
G03*
X-137073Y-173572I0J0D01*
G01*
D02*
G03*
X-137073Y-173572I0J-0D01*
G01*
X-137066D02*
G03*
X-137066Y-173572I0J0D01*
G01*
D02*
G03*
X-137066Y-173572I0J-0D01*
G01*
X-137067Y-173573D02*
G03*
X-137067Y-173573I0J0D01*
G01*
D02*
G03*
X-137067Y-173573I0J-0D01*
G01*
D132*
X-137229Y-173560D02*
D03*
X-137239D02*
D03*
X-137229D02*
D03*
Y-173564D02*
D03*
D03*
X-137240D02*
D03*
Y-173560D02*
D03*
Y-173564D02*
D03*
X-137239Y-173560D02*
D03*
X-137240D02*
D03*
X-137230Y-173542D02*
D03*
X-137240D02*
D03*
Y-173537D02*
D03*
Y-173542D02*
D03*
X-137229Y-173537D02*
D03*
X-137240D02*
D03*
X-137229D02*
D03*
Y-173542D02*
D03*
D03*
X-137230D02*
D03*
X-137317Y-173599D02*
D03*
Y-173609D02*
D03*
D03*
X-137322D02*
D03*
Y-173599D02*
D03*
Y-173609D02*
D03*
X-137317Y-173599D02*
D03*
X-137322D02*
D03*
X-137317D02*
D03*
Y-173599D02*
D03*
X-137229Y-173530D02*
D03*
X-137230D02*
D03*
X-137229Y-173526D02*
D03*
Y-173530D02*
D03*
Y-173526D02*
D03*
X-137240D02*
D03*
D03*
Y-173530D02*
D03*
X-137230D02*
D03*
X-137240D02*
D03*
X-137230Y-173536D02*
D03*
X-137240D02*
D03*
Y-173531D02*
D03*
Y-173536D02*
D03*
X-137229Y-173531D02*
D03*
X-137240D02*
D03*
X-137229D02*
D03*
Y-173536D02*
D03*
D03*
X-137230D02*
D03*
X-137229Y-173574D02*
D03*
Y-173584D02*
D03*
X-137224Y-173574D02*
D03*
X-137229D02*
D03*
X-137224D02*
D03*
Y-173585D02*
D03*
D03*
X-137229D02*
D03*
Y-173584D02*
D03*
Y-173585D02*
D03*
X-137235Y-173584D02*
D03*
Y-173585D02*
D03*
X-137230D02*
D03*
X-137235D02*
D03*
X-137230Y-173574D02*
D03*
Y-173585D02*
D03*
Y-173574D02*
D03*
X-137235D02*
D03*
D03*
Y-173584D02*
D03*
X-137301Y-173553D02*
D03*
Y-173563D02*
D03*
X-137297Y-173553D02*
D03*
X-137301D02*
D03*
X-137297D02*
D03*
Y-173563D02*
D03*
D03*
X-137301D02*
D03*
Y-173563D02*
D03*
Y-173563D02*
D03*
X-137290Y-173553D02*
D03*
Y-173563D02*
D03*
X-137285Y-173553D02*
D03*
X-137290D02*
D03*
X-137285D02*
D03*
Y-173563D02*
D03*
D03*
X-137290D02*
D03*
Y-173563D02*
D03*
Y-173563D02*
D03*
X-137295Y-173553D02*
D03*
Y-173563D02*
D03*
X-137291Y-173553D02*
D03*
X-137295D02*
D03*
X-137291D02*
D03*
Y-173563D02*
D03*
D03*
X-137295D02*
D03*
Y-173563D02*
D03*
Y-173563D02*
D03*
X-137280Y-173522D02*
D03*
X-137290D02*
D03*
Y-173517D02*
D03*
Y-173522D02*
D03*
X-137279Y-173517D02*
D03*
X-137290D02*
D03*
X-137279D02*
D03*
Y-173522D02*
D03*
D03*
X-137280D02*
D03*
Y-173516D02*
D03*
X-137290D02*
D03*
Y-173511D02*
D03*
Y-173516D02*
D03*
X-137279Y-173511D02*
D03*
X-137290D02*
D03*
X-137279D02*
D03*
Y-173516D02*
D03*
D03*
X-137280D02*
D03*
X-137129Y-173506D02*
D03*
Y-173516D02*
D03*
D03*
X-137133D02*
D03*
Y-173506D02*
D03*
Y-173516D02*
D03*
X-137129Y-173506D02*
D03*
X-137133D02*
D03*
X-137129D02*
D03*
Y-173506D02*
D03*
X-137103Y-173506D02*
D03*
Y-173506D02*
D03*
Y-173506D02*
D03*
X-137108D02*
D03*
D03*
Y-173516D02*
D03*
X-137103D02*
D03*
X-137108D02*
D03*
X-137103Y-173506D02*
D03*
Y-173516D02*
D03*
X-137133Y-173528D02*
D03*
Y-173528D02*
D03*
X-137129D02*
D03*
X-137133D02*
D03*
X-137129Y-173518D02*
D03*
Y-173528D02*
D03*
Y-173518D02*
D03*
X-137133D02*
D03*
D03*
Y-173528D02*
D03*
X-137139D02*
D03*
Y-173528D02*
D03*
X-137135D02*
D03*
X-137139D02*
D03*
X-137135Y-173518D02*
D03*
Y-173528D02*
D03*
Y-173518D02*
D03*
X-137139D02*
D03*
D03*
Y-173528D02*
D03*
X-137132Y-173542D02*
D03*
Y-173552D02*
D03*
X-137128Y-173542D02*
D03*
X-137132D02*
D03*
X-137128D02*
D03*
Y-173553D02*
D03*
D03*
X-137132D02*
D03*
Y-173552D02*
D03*
Y-173553D02*
D03*
X-137094Y-173709D02*
D03*
Y-173710D02*
D03*
Y-173709D02*
D03*
X-137098D02*
D03*
D03*
Y-173720D02*
D03*
X-137094D02*
D03*
X-137098D02*
D03*
X-137094Y-173710D02*
D03*
Y-173720D02*
D03*
X-137151Y-173709D02*
D03*
Y-173709D02*
D03*
Y-173709D02*
D03*
X-137155D02*
D03*
D03*
Y-173719D02*
D03*
X-137151D02*
D03*
X-137155D02*
D03*
X-137151Y-173709D02*
D03*
Y-173719D02*
D03*
X-137206Y-173709D02*
D03*
Y-173709D02*
D03*
Y-173709D02*
D03*
X-137211D02*
D03*
D03*
Y-173719D02*
D03*
X-137206D02*
D03*
X-137211D02*
D03*
X-137206Y-173709D02*
D03*
Y-173719D02*
D03*
X-137261Y-173709D02*
D03*
Y-173710D02*
D03*
Y-173709D02*
D03*
X-137266D02*
D03*
D03*
Y-173720D02*
D03*
X-137261D02*
D03*
X-137266D02*
D03*
X-137261Y-173710D02*
D03*
Y-173720D02*
D03*
X-137205Y-173739D02*
D03*
Y-173749D02*
D03*
X-137200Y-173739D02*
D03*
X-137205D02*
D03*
X-137200D02*
D03*
Y-173749D02*
D03*
D03*
X-137205D02*
D03*
Y-173749D02*
D03*
Y-173749D02*
D03*
X-137148Y-173739D02*
D03*
Y-173749D02*
D03*
X-137143Y-173739D02*
D03*
X-137148D02*
D03*
X-137143D02*
D03*
Y-173749D02*
D03*
D03*
X-137148D02*
D03*
Y-173749D02*
D03*
Y-173749D02*
D03*
X-137260Y-173739D02*
D03*
Y-173749D02*
D03*
X-137255Y-173739D02*
D03*
X-137260D02*
D03*
X-137255D02*
D03*
Y-173750D02*
D03*
D03*
X-137260D02*
D03*
Y-173749D02*
D03*
Y-173750D02*
D03*
X-137315Y-173740D02*
D03*
Y-173750D02*
D03*
X-137311Y-173740D02*
D03*
X-137315D02*
D03*
X-137311D02*
D03*
Y-173750D02*
D03*
D03*
X-137315D02*
D03*
Y-173750D02*
D03*
Y-173750D02*
D03*
X-137340Y-173517D02*
D03*
Y-173527D02*
D03*
X-137336Y-173517D02*
D03*
X-137340D02*
D03*
X-137336D02*
D03*
Y-173528D02*
D03*
D03*
X-137340D02*
D03*
Y-173527D02*
D03*
Y-173528D02*
D03*
X-137336Y-173507D02*
D03*
Y-173517D02*
D03*
D03*
X-137340D02*
D03*
Y-173506D02*
D03*
Y-173517D02*
D03*
X-137336Y-173506D02*
D03*
X-137340D02*
D03*
X-137336D02*
D03*
Y-173507D02*
D03*
X-137327Y-173539D02*
D03*
Y-173549D02*
D03*
X-137323Y-173539D02*
D03*
X-137327D02*
D03*
X-137323D02*
D03*
Y-173550D02*
D03*
D03*
X-137327D02*
D03*
Y-173549D02*
D03*
Y-173550D02*
D03*
Y-173551D02*
D03*
Y-173552D02*
D03*
X-137323Y-173551D02*
D03*
X-137327D02*
D03*
X-137323D02*
D03*
Y-173562D02*
D03*
D03*
X-137327D02*
D03*
Y-173552D02*
D03*
Y-173562D02*
D03*
X-137249Y-173585D02*
D03*
X-137254D02*
D03*
X-137249Y-173575D02*
D03*
Y-173585D02*
D03*
Y-173575D02*
D03*
X-137254D02*
D03*
D03*
Y-173585D02*
D03*
X-137329Y-173599D02*
D03*
Y-173609D02*
D03*
X-137323Y-173599D02*
D03*
X-137329D02*
D03*
X-137323D02*
D03*
Y-173609D02*
D03*
D03*
X-137329D02*
D03*
X-137074Y-173546D02*
D03*
X-137080D02*
D03*
D03*
Y-173556D02*
D03*
X-137074D02*
D03*
X-137080D02*
D03*
X-137074Y-173546D02*
D03*
Y-173556D02*
D03*
X-137067Y-173546D02*
D03*
X-137073D02*
D03*
D03*
Y-173555D02*
D03*
X-137067D02*
D03*
X-137073D02*
D03*
X-137067Y-173546D02*
D03*
Y-173555D02*
D03*
X-137229Y-173510D02*
D03*
Y-173515D02*
D03*
Y-173510D02*
D03*
X-137239D02*
D03*
D03*
Y-173515D02*
D03*
X-137229D02*
D03*
X-137239D02*
D03*
X-137239Y-173518D02*
D03*
Y-173523D02*
D03*
X-137229D02*
D03*
X-137239D02*
D03*
X-137229Y-173518D02*
D03*
Y-173523D02*
D03*
Y-173518D02*
D03*
X-137239D02*
D03*
X-137135Y-173516D02*
D03*
X-137140D02*
D03*
X-137135Y-173506D02*
D03*
Y-173516D02*
D03*
Y-173506D02*
D03*
X-137140D02*
D03*
D03*
Y-173516D02*
D03*
X-137114Y-173506D02*
D03*
Y-173516D02*
D03*
X-137109Y-173506D02*
D03*
X-137114D02*
D03*
X-137109D02*
D03*
Y-173516D02*
D03*
D03*
X-137114D02*
D03*
X-137103Y-173530D02*
D03*
Y-173536D02*
D03*
Y-173530D02*
D03*
X-137113D02*
D03*
D03*
Y-173536D02*
D03*
X-137103D02*
D03*
X-137113D02*
D03*
X-137103Y-173523D02*
D03*
X-137113D02*
D03*
X-137103D02*
D03*
Y-173529D02*
D03*
D03*
X-137113D02*
D03*
Y-173523D02*
D03*
Y-173529D02*
D03*
X-137293Y-173575D02*
D03*
Y-173585D02*
D03*
X-137288Y-173575D02*
D03*
X-137293D02*
D03*
X-137288D02*
D03*
Y-173585D02*
D03*
D03*
X-137293D02*
D03*
X-137139Y-173773D02*
D03*
Y-173783D02*
D03*
D03*
X-137144D02*
D03*
Y-173773D02*
D03*
Y-173783D02*
D03*
X-137139Y-173773D02*
D03*
X-137144D02*
D03*
X-137101Y-173676D02*
D03*
Y-173685D02*
D03*
X-137096Y-173676D02*
D03*
X-137101D02*
D03*
X-137096D02*
D03*
Y-173685D02*
D03*
D03*
X-137101D02*
D03*
X-137133Y-173773D02*
D03*
Y-173783D02*
D03*
D03*
X-137138D02*
D03*
Y-173773D02*
D03*
Y-173783D02*
D03*
X-137133Y-173773D02*
D03*
X-137138D02*
D03*
X-137107Y-173676D02*
D03*
Y-173685D02*
D03*
X-137102Y-173676D02*
D03*
X-137107D02*
D03*
X-137102D02*
D03*
Y-173685D02*
D03*
D03*
X-137107D02*
D03*
X-137127Y-173773D02*
D03*
Y-173783D02*
D03*
D03*
X-137132D02*
D03*
Y-173773D02*
D03*
Y-173783D02*
D03*
X-137127Y-173773D02*
D03*
X-137132D02*
D03*
X-137114Y-173676D02*
D03*
Y-173685D02*
D03*
X-137108Y-173676D02*
D03*
X-137114D02*
D03*
X-137108D02*
D03*
Y-173685D02*
D03*
D03*
X-137114D02*
D03*
X-137121Y-173773D02*
D03*
Y-173783D02*
D03*
D03*
X-137126D02*
D03*
Y-173773D02*
D03*
Y-173783D02*
D03*
X-137121Y-173773D02*
D03*
X-137126D02*
D03*
X-137120Y-173676D02*
D03*
Y-173685D02*
D03*
X-137114Y-173676D02*
D03*
X-137120D02*
D03*
X-137114D02*
D03*
Y-173685D02*
D03*
D03*
X-137120D02*
D03*
X-137115Y-173773D02*
D03*
Y-173783D02*
D03*
D03*
X-137120D02*
D03*
Y-173773D02*
D03*
Y-173783D02*
D03*
X-137115Y-173773D02*
D03*
X-137120D02*
D03*
X-137126Y-173676D02*
D03*
Y-173685D02*
D03*
X-137120Y-173676D02*
D03*
X-137126D02*
D03*
X-137120D02*
D03*
Y-173685D02*
D03*
D03*
X-137126D02*
D03*
X-137109Y-173773D02*
D03*
Y-173783D02*
D03*
D03*
X-137114D02*
D03*
Y-173773D02*
D03*
Y-173783D02*
D03*
X-137109Y-173773D02*
D03*
X-137114D02*
D03*
X-137132Y-173676D02*
D03*
Y-173685D02*
D03*
X-137127Y-173676D02*
D03*
X-137132D02*
D03*
X-137127D02*
D03*
Y-173685D02*
D03*
D03*
X-137132D02*
D03*
X-137103Y-173773D02*
D03*
Y-173783D02*
D03*
D03*
X-137108D02*
D03*
Y-173773D02*
D03*
Y-173783D02*
D03*
X-137103Y-173773D02*
D03*
X-137108D02*
D03*
X-137138Y-173676D02*
D03*
Y-173685D02*
D03*
X-137133Y-173676D02*
D03*
X-137138D02*
D03*
X-137133D02*
D03*
Y-173685D02*
D03*
D03*
X-137138D02*
D03*
X-137097Y-173773D02*
D03*
Y-173783D02*
D03*
D03*
X-137102D02*
D03*
Y-173773D02*
D03*
Y-173783D02*
D03*
X-137097Y-173773D02*
D03*
X-137102D02*
D03*
X-137144Y-173676D02*
D03*
Y-173685D02*
D03*
X-137139Y-173676D02*
D03*
X-137144D02*
D03*
X-137139D02*
D03*
Y-173685D02*
D03*
D03*
X-137144D02*
D03*
X-137287Y-173575D02*
D03*
Y-173585D02*
D03*
X-137281Y-173575D02*
D03*
X-137287D02*
D03*
X-137281D02*
D03*
Y-173585D02*
D03*
D03*
X-137287D02*
D03*
X-137196Y-173773D02*
D03*
Y-173783D02*
D03*
D03*
X-137201D02*
D03*
Y-173773D02*
D03*
Y-173783D02*
D03*
X-137196Y-173773D02*
D03*
X-137201D02*
D03*
X-137159Y-173676D02*
D03*
Y-173685D02*
D03*
X-137154Y-173676D02*
D03*
X-137159D02*
D03*
X-137154D02*
D03*
Y-173685D02*
D03*
D03*
X-137159D02*
D03*
X-137280Y-173575D02*
D03*
Y-173585D02*
D03*
X-137275Y-173575D02*
D03*
X-137280D02*
D03*
X-137275D02*
D03*
Y-173585D02*
D03*
D03*
X-137280D02*
D03*
X-137189Y-173773D02*
D03*
Y-173783D02*
D03*
D03*
X-137195D02*
D03*
Y-173773D02*
D03*
Y-173783D02*
D03*
X-137189Y-173773D02*
D03*
X-137195D02*
D03*
X-137165Y-173676D02*
D03*
Y-173685D02*
D03*
X-137160Y-173676D02*
D03*
X-137165D02*
D03*
X-137160D02*
D03*
Y-173685D02*
D03*
D03*
X-137165D02*
D03*
X-137183Y-173773D02*
D03*
Y-173783D02*
D03*
D03*
X-137189D02*
D03*
Y-173773D02*
D03*
Y-173783D02*
D03*
X-137183Y-173773D02*
D03*
X-137189D02*
D03*
X-137171Y-173676D02*
D03*
Y-173685D02*
D03*
X-137166Y-173676D02*
D03*
X-137171D02*
D03*
X-137166D02*
D03*
Y-173685D02*
D03*
D03*
X-137171D02*
D03*
X-137177Y-173773D02*
D03*
Y-173783D02*
D03*
D03*
X-137183D02*
D03*
Y-173773D02*
D03*
Y-173783D02*
D03*
X-137177Y-173773D02*
D03*
X-137183D02*
D03*
X-137177Y-173676D02*
D03*
Y-173685D02*
D03*
X-137172Y-173676D02*
D03*
X-137177D02*
D03*
X-137172D02*
D03*
Y-173685D02*
D03*
D03*
X-137177D02*
D03*
X-137171Y-173773D02*
D03*
Y-173783D02*
D03*
D03*
X-137177D02*
D03*
Y-173773D02*
D03*
Y-173783D02*
D03*
X-137171Y-173773D02*
D03*
X-137177D02*
D03*
X-137183Y-173676D02*
D03*
Y-173685D02*
D03*
X-137178Y-173676D02*
D03*
X-137183D02*
D03*
X-137178D02*
D03*
Y-173685D02*
D03*
D03*
X-137183D02*
D03*
X-137165Y-173773D02*
D03*
Y-173783D02*
D03*
D03*
X-137171D02*
D03*
Y-173773D02*
D03*
Y-173783D02*
D03*
X-137165Y-173773D02*
D03*
X-137171D02*
D03*
X-137189Y-173676D02*
D03*
Y-173685D02*
D03*
X-137183Y-173676D02*
D03*
X-137189D02*
D03*
X-137183D02*
D03*
Y-173685D02*
D03*
D03*
X-137189D02*
D03*
X-137159Y-173773D02*
D03*
Y-173783D02*
D03*
D03*
X-137164D02*
D03*
Y-173773D02*
D03*
Y-173783D02*
D03*
X-137159Y-173773D02*
D03*
X-137164D02*
D03*
X-137195Y-173676D02*
D03*
Y-173685D02*
D03*
X-137189Y-173676D02*
D03*
X-137195D02*
D03*
X-137189D02*
D03*
Y-173685D02*
D03*
D03*
X-137195D02*
D03*
X-137153Y-173773D02*
D03*
Y-173783D02*
D03*
D03*
X-137158D02*
D03*
Y-173773D02*
D03*
Y-173783D02*
D03*
X-137153Y-173773D02*
D03*
X-137158D02*
D03*
X-137201Y-173676D02*
D03*
Y-173685D02*
D03*
X-137195Y-173676D02*
D03*
X-137201D02*
D03*
X-137195D02*
D03*
Y-173685D02*
D03*
D03*
X-137201D02*
D03*
X-137274Y-173575D02*
D03*
Y-173585D02*
D03*
X-137268Y-173575D02*
D03*
X-137274D02*
D03*
X-137268D02*
D03*
Y-173585D02*
D03*
D03*
X-137274D02*
D03*
X-137251Y-173773D02*
D03*
Y-173783D02*
D03*
D03*
X-137256D02*
D03*
Y-173773D02*
D03*
Y-173783D02*
D03*
X-137251Y-173773D02*
D03*
X-137256D02*
D03*
X-137214Y-173676D02*
D03*
Y-173685D02*
D03*
X-137208Y-173676D02*
D03*
X-137214D02*
D03*
X-137208D02*
D03*
Y-173685D02*
D03*
D03*
X-137214D02*
D03*
X-137245Y-173773D02*
D03*
Y-173783D02*
D03*
D03*
X-137250D02*
D03*
Y-173773D02*
D03*
Y-173783D02*
D03*
X-137245Y-173773D02*
D03*
X-137250D02*
D03*
X-137220Y-173676D02*
D03*
Y-173685D02*
D03*
X-137214Y-173676D02*
D03*
X-137220D02*
D03*
X-137214D02*
D03*
Y-173685D02*
D03*
D03*
X-137220D02*
D03*
X-137267Y-173575D02*
D03*
Y-173585D02*
D03*
X-137262Y-173575D02*
D03*
X-137267D02*
D03*
X-137262D02*
D03*
Y-173585D02*
D03*
D03*
X-137267D02*
D03*
X-137239Y-173773D02*
D03*
Y-173783D02*
D03*
D03*
X-137244D02*
D03*
Y-173773D02*
D03*
Y-173783D02*
D03*
X-137239Y-173773D02*
D03*
X-137244D02*
D03*
X-137226Y-173676D02*
D03*
Y-173685D02*
D03*
X-137220Y-173676D02*
D03*
X-137226D02*
D03*
X-137220D02*
D03*
Y-173685D02*
D03*
D03*
X-137226D02*
D03*
X-137233Y-173773D02*
D03*
Y-173783D02*
D03*
D03*
X-137238D02*
D03*
Y-173773D02*
D03*
Y-173783D02*
D03*
X-137233Y-173773D02*
D03*
X-137238D02*
D03*
X-137232Y-173676D02*
D03*
Y-173685D02*
D03*
X-137226Y-173676D02*
D03*
X-137232D02*
D03*
X-137226D02*
D03*
Y-173685D02*
D03*
D03*
X-137232D02*
D03*
X-137227Y-173773D02*
D03*
Y-173783D02*
D03*
D03*
X-137232D02*
D03*
Y-173773D02*
D03*
Y-173783D02*
D03*
X-137227Y-173773D02*
D03*
X-137232D02*
D03*
X-137238Y-173676D02*
D03*
Y-173685D02*
D03*
X-137233Y-173676D02*
D03*
X-137238D02*
D03*
X-137233D02*
D03*
Y-173685D02*
D03*
D03*
X-137238D02*
D03*
X-137221Y-173773D02*
D03*
Y-173783D02*
D03*
D03*
X-137226D02*
D03*
Y-173773D02*
D03*
Y-173783D02*
D03*
X-137221Y-173773D02*
D03*
X-137226D02*
D03*
X-137244Y-173676D02*
D03*
Y-173685D02*
D03*
X-137239Y-173676D02*
D03*
X-137244D02*
D03*
X-137239D02*
D03*
Y-173685D02*
D03*
D03*
X-137244D02*
D03*
X-137215Y-173773D02*
D03*
Y-173783D02*
D03*
D03*
X-137220D02*
D03*
Y-173773D02*
D03*
Y-173783D02*
D03*
X-137215Y-173773D02*
D03*
X-137220D02*
D03*
X-137250Y-173676D02*
D03*
Y-173685D02*
D03*
X-137245Y-173676D02*
D03*
X-137250D02*
D03*
X-137245D02*
D03*
Y-173685D02*
D03*
D03*
X-137250D02*
D03*
X-137209Y-173773D02*
D03*
Y-173783D02*
D03*
D03*
X-137214D02*
D03*
Y-173773D02*
D03*
Y-173783D02*
D03*
X-137209Y-173773D02*
D03*
X-137214D02*
D03*
X-137257Y-173676D02*
D03*
Y-173685D02*
D03*
X-137251Y-173676D02*
D03*
X-137257D02*
D03*
X-137251D02*
D03*
Y-173685D02*
D03*
D03*
X-137257D02*
D03*
X-137261Y-173575D02*
D03*
Y-173585D02*
D03*
X-137255Y-173575D02*
D03*
X-137261D02*
D03*
X-137255D02*
D03*
Y-173585D02*
D03*
D03*
X-137261D02*
D03*
X-137306Y-173774D02*
D03*
Y-173784D02*
D03*
D03*
X-137312D02*
D03*
Y-173774D02*
D03*
Y-173784D02*
D03*
X-137306Y-173774D02*
D03*
X-137312D02*
D03*
X-137270Y-173675D02*
D03*
Y-173685D02*
D03*
X-137265Y-173675D02*
D03*
X-137270D02*
D03*
X-137265D02*
D03*
Y-173685D02*
D03*
D03*
X-137270D02*
D03*
X-137300Y-173774D02*
D03*
Y-173784D02*
D03*
D03*
X-137306D02*
D03*
Y-173774D02*
D03*
Y-173784D02*
D03*
X-137300Y-173774D02*
D03*
X-137306D02*
D03*
X-137276Y-173675D02*
D03*
Y-173685D02*
D03*
X-137271Y-173675D02*
D03*
X-137276D02*
D03*
X-137271D02*
D03*
Y-173685D02*
D03*
D03*
X-137276D02*
D03*
X-137294Y-173774D02*
D03*
Y-173784D02*
D03*
D03*
X-137300D02*
D03*
Y-173774D02*
D03*
Y-173784D02*
D03*
X-137294Y-173774D02*
D03*
X-137300D02*
D03*
X-137282Y-173675D02*
D03*
Y-173685D02*
D03*
X-137277Y-173675D02*
D03*
X-137282D02*
D03*
X-137277D02*
D03*
Y-173685D02*
D03*
D03*
X-137282D02*
D03*
X-137242Y-173585D02*
D03*
X-137248D02*
D03*
X-137242Y-173575D02*
D03*
Y-173585D02*
D03*
Y-173575D02*
D03*
X-137248D02*
D03*
D03*
Y-173585D02*
D03*
X-137288Y-173774D02*
D03*
Y-173784D02*
D03*
D03*
X-137294D02*
D03*
Y-173774D02*
D03*
Y-173784D02*
D03*
X-137288Y-173774D02*
D03*
X-137294D02*
D03*
X-137288Y-173675D02*
D03*
Y-173685D02*
D03*
X-137283Y-173675D02*
D03*
X-137288D02*
D03*
X-137283D02*
D03*
Y-173685D02*
D03*
D03*
X-137288D02*
D03*
X-137282Y-173774D02*
D03*
Y-173784D02*
D03*
D03*
X-137287D02*
D03*
Y-173774D02*
D03*
Y-173784D02*
D03*
X-137282Y-173774D02*
D03*
X-137287D02*
D03*
X-137294Y-173675D02*
D03*
Y-173685D02*
D03*
X-137289Y-173675D02*
D03*
X-137294D02*
D03*
X-137289D02*
D03*
Y-173685D02*
D03*
D03*
X-137294D02*
D03*
X-137276Y-173774D02*
D03*
Y-173784D02*
D03*
D03*
X-137281D02*
D03*
Y-173774D02*
D03*
Y-173784D02*
D03*
X-137276Y-173774D02*
D03*
X-137281D02*
D03*
X-137300Y-173675D02*
D03*
Y-173685D02*
D03*
X-137295Y-173675D02*
D03*
X-137300D02*
D03*
X-137295D02*
D03*
Y-173685D02*
D03*
D03*
X-137300D02*
D03*
X-137270Y-173774D02*
D03*
Y-173784D02*
D03*
D03*
X-137275D02*
D03*
Y-173774D02*
D03*
Y-173784D02*
D03*
X-137270Y-173774D02*
D03*
X-137275D02*
D03*
X-137301Y-173685D02*
D03*
X-137306D02*
D03*
X-137301Y-173675D02*
D03*
Y-173685D02*
D03*
Y-173675D02*
D03*
X-137306D02*
D03*
D03*
Y-173685D02*
D03*
X-137264Y-173774D02*
D03*
Y-173784D02*
D03*
D03*
X-137269D02*
D03*
Y-173774D02*
D03*
Y-173784D02*
D03*
X-137264Y-173774D02*
D03*
X-137269D02*
D03*
X-137312Y-173675D02*
D03*
Y-173685D02*
D03*
X-137307Y-173675D02*
D03*
X-137312D02*
D03*
X-137307D02*
D03*
Y-173685D02*
D03*
D03*
X-137312D02*
D03*
X-137241Y-173575D02*
D03*
Y-173585D02*
D03*
X-137236Y-173575D02*
D03*
X-137241D02*
D03*
X-137236D02*
D03*
Y-173585D02*
D03*
D03*
X-137241D02*
D03*
X-137335Y-173549D02*
D03*
X-137340D02*
D03*
X-137335Y-173539D02*
D03*
Y-173549D02*
D03*
Y-173539D02*
D03*
X-137340D02*
D03*
D03*
Y-173549D02*
D03*
X-137329D02*
D03*
X-137334D02*
D03*
X-137329Y-173539D02*
D03*
Y-173549D02*
D03*
Y-173539D02*
D03*
X-137334D02*
D03*
D03*
Y-173549D02*
D03*
X-137336Y-173552D02*
D03*
X-137341D02*
D03*
X-137336D02*
D03*
Y-173561D02*
D03*
D03*
X-137341D02*
D03*
Y-173552D02*
D03*
Y-173561D02*
D03*
X-137314Y-173561D02*
D03*
X-137319D02*
D03*
Y-173552D02*
D03*
Y-173561D02*
D03*
X-137314Y-173552D02*
D03*
X-137319D02*
D03*
X-137314D02*
D03*
Y-173561D02*
D03*
X-137328Y-173561D02*
D03*
X-137334D02*
D03*
Y-173552D02*
D03*
Y-173561D02*
D03*
X-137328Y-173552D02*
D03*
X-137334D02*
D03*
X-137328D02*
D03*
Y-173561D02*
D03*
X-137067Y-173591D02*
D03*
Y-173601D02*
D03*
D03*
X-137072D02*
D03*
Y-173591D02*
D03*
Y-173601D02*
D03*
X-137067Y-173591D02*
D03*
X-137072D02*
D03*
X-137075D02*
D03*
Y-173601D02*
D03*
D03*
X-137081D02*
D03*
Y-173591D02*
D03*
Y-173601D02*
D03*
X-137075Y-173591D02*
D03*
X-137081D02*
D03*
X-137266Y-173522D02*
D03*
X-137267D02*
D03*
X-137266Y-173517D02*
D03*
Y-173522D02*
D03*
Y-173517D02*
D03*
X-137277D02*
D03*
D03*
Y-173522D02*
D03*
X-137267D02*
D03*
X-137277D02*
D03*
X-137267Y-173516D02*
D03*
X-137277D02*
D03*
Y-173511D02*
D03*
Y-173516D02*
D03*
X-137266Y-173511D02*
D03*
X-137277D02*
D03*
X-137266D02*
D03*
Y-173516D02*
D03*
D03*
X-137267D02*
D03*
X-137313Y-173539D02*
D03*
Y-173549D02*
D03*
X-137308Y-173539D02*
D03*
X-137313D02*
D03*
X-137308D02*
D03*
Y-173550D02*
D03*
D03*
X-137313D02*
D03*
Y-173549D02*
D03*
Y-173550D02*
D03*
X-137318Y-173539D02*
D03*
Y-173549D02*
D03*
X-137314Y-173539D02*
D03*
X-137318D02*
D03*
X-137314D02*
D03*
Y-173550D02*
D03*
D03*
X-137318D02*
D03*
Y-173549D02*
D03*
Y-173550D02*
D03*
X-137346Y-173516D02*
D03*
Y-173517D02*
D03*
X-137341D02*
D03*
X-137346D02*
D03*
X-137341Y-173506D02*
D03*
Y-173517D02*
D03*
Y-173506D02*
D03*
X-137346D02*
D03*
D03*
Y-173516D02*
D03*
X-137341Y-173517D02*
D03*
Y-173518D02*
D03*
Y-173517D02*
D03*
X-137346D02*
D03*
D03*
Y-173528D02*
D03*
X-137341D02*
D03*
X-137346D02*
D03*
X-137341Y-173518D02*
D03*
Y-173528D02*
D03*
X-137307Y-173506D02*
D03*
Y-173497D02*
D03*
Y-173524D02*
D03*
Y-173515D02*
D03*
Y-173533D02*
D03*
Y-173497D02*
D03*
Y-173533D02*
D03*
D133*
X-137078Y-173519D02*
D03*
X-137082D02*
D03*
X-137087Y-173507D02*
D03*
Y-173512D02*
D03*
X-137055Y-173507D02*
D03*
Y-173512D02*
D03*
X-137060Y-173519D02*
D03*
X-137064D02*
D03*
X-137125Y-173520D02*
D03*
X-137126D02*
D03*
Y-173509D02*
D03*
Y-173520D02*
D03*
X-137125Y-173509D02*
D03*
X-137126D02*
D03*
X-137116Y-173520D02*
D03*
X-137116D02*
D03*
X-137116Y-173509D02*
D03*
Y-173520D02*
D03*
Y-173509D02*
D03*
X-137116D02*
D03*
X-137100Y-173521D02*
D03*
X-137101D02*
D03*
Y-173509D02*
D03*
Y-173521D02*
D03*
X-137100Y-173509D02*
D03*
X-137101D02*
D03*
X-137091Y-173521D02*
D03*
X-137092D02*
D03*
X-137091Y-173509D02*
D03*
Y-173521D02*
D03*
Y-173509D02*
D03*
X-137092D02*
D03*
X-137310Y-173582D02*
D03*
Y-173582D02*
D03*
Y-173578D02*
D03*
X-137308Y-173582D02*
D03*
X-137312D02*
D03*
X-137308D02*
D03*
X-137312D02*
D03*
X-137304Y-173566D02*
D03*
X-137309D02*
D03*
X-137304D02*
D03*
Y-173595D02*
D03*
X-137309Y-173566D02*
D03*
Y-173566D02*
D03*
X-137304D02*
D03*
X-137309D02*
D03*
X-137311D02*
D03*
X-137317D02*
D03*
X-137311Y-173566D02*
D03*
Y-173566D02*
D03*
X-137304Y-173595D02*
D03*
X-137306D02*
D03*
X-137311Y-173566D02*
D03*
X-137317D02*
D03*
X-137315Y-173595D02*
D03*
X-137317D02*
D03*
Y-173566D02*
D03*
Y-173595D02*
D03*
X-137314Y-173525D02*
D03*
X-137334D02*
D03*
X-137314Y-173512D02*
D03*
X-137334D02*
D03*
D03*
Y-173525D02*
D03*
X-137314Y-173512D02*
D03*
Y-173525D02*
D03*
X-137118Y-173627D02*
D03*
Y-173638D02*
D03*
Y-173627D02*
D03*
X-137201D02*
D03*
D03*
Y-173638D02*
D03*
X-137118D02*
D03*
X-137201D02*
D03*
X-137072Y-173823D02*
D03*
X-137072Y-173729D02*
D03*
X-137211Y-173628D02*
D03*
X-137200Y-173806D02*
D03*
X-137110Y-173654D02*
D03*
X-137211D02*
D03*
X-137344Y-173733D02*
D03*
Y-173639D02*
D03*
X-137291Y-173521D02*
D03*
X-137301D02*
D03*
X-137291Y-173511D02*
D03*
X-137301D02*
D03*
X-137291D02*
D03*
Y-173551D02*
D03*
X-137301Y-173511D02*
D03*
Y-173551D02*
D03*
X-137291D02*
D03*
X-137301D02*
D03*
X-137126Y-173535D02*
D03*
Y-173539D02*
D03*
X-137116D02*
D03*
X-137126D02*
D03*
Y-173526D02*
D03*
Y-173530D02*
D03*
X-137116Y-173526D02*
D03*
X-137126D02*
D03*
X-137089Y-173539D02*
D03*
X-137099D02*
D03*
X-137089Y-173535D02*
D03*
Y-173539D02*
D03*
Y-173526D02*
D03*
X-137099D02*
D03*
X-137089D02*
D03*
Y-173530D02*
D03*
X-137148Y-173572D02*
D03*
X-137157D02*
D03*
X-137148Y-173569D02*
D03*
Y-173572D02*
D03*
Y-173495D02*
D03*
X-137218D02*
D03*
Y-173472D02*
D03*
Y-173495D02*
D03*
X-137148Y-173472D02*
D03*
X-137218D02*
D03*
X-137148D02*
D03*
Y-173495D02*
D03*
X-137218D02*
D03*
Y-173497D02*
D03*
X-137148Y-173495D02*
D03*
Y-173497D02*
D03*
X-137209Y-173572D02*
D03*
X-137218D02*
D03*
Y-173569D02*
D03*
Y-173572D02*
D03*
X-137129Y-173567D02*
D03*
Y-173566D02*
D03*
X-137084Y-173532D02*
D03*
X-137083D02*
D03*
X-137101Y-173758D02*
D03*
X-137140D02*
D03*
X-137101Y-173746D02*
D03*
X-137140D02*
D03*
D03*
Y-173758D02*
D03*
X-137101Y-173746D02*
D03*
Y-173758D02*
D03*
X-137140Y-173701D02*
D03*
Y-173713D02*
D03*
X-137101Y-173701D02*
D03*
Y-173713D02*
D03*
D03*
X-137140D02*
D03*
X-137101Y-173701D02*
D03*
X-137140D02*
D03*
X-137158Y-173758D02*
D03*
X-137197D02*
D03*
X-137158Y-173746D02*
D03*
X-137197D02*
D03*
D03*
Y-173758D02*
D03*
X-137158Y-173746D02*
D03*
Y-173758D02*
D03*
X-137158Y-173700D02*
D03*
X-137197D02*
D03*
X-137158Y-173713D02*
D03*
X-137197D02*
D03*
X-137158Y-173700D02*
D03*
Y-173713D02*
D03*
X-137197Y-173700D02*
D03*
Y-173713D02*
D03*
X-137213Y-173758D02*
D03*
X-137252D02*
D03*
X-137213Y-173746D02*
D03*
X-137252D02*
D03*
D03*
Y-173758D02*
D03*
X-137213Y-173746D02*
D03*
Y-173758D02*
D03*
X-137213Y-173700D02*
D03*
X-137252D02*
D03*
X-137213Y-173713D02*
D03*
X-137252D02*
D03*
X-137213Y-173700D02*
D03*
Y-173713D02*
D03*
X-137252Y-173700D02*
D03*
Y-173713D02*
D03*
X-137269Y-173747D02*
D03*
Y-173759D02*
D03*
X-137308Y-173747D02*
D03*
Y-173759D02*
D03*
X-137269Y-173747D02*
D03*
X-137308D02*
D03*
X-137269Y-173759D02*
D03*
X-137308D02*
D03*
X-137269Y-173701D02*
D03*
X-137308D02*
D03*
X-137269Y-173713D02*
D03*
X-137308D02*
D03*
X-137269Y-173701D02*
D03*
Y-173713D02*
D03*
X-137308Y-173701D02*
D03*
Y-173713D02*
D03*
X-137231Y-173560D02*
D03*
Y-173559D02*
D03*
X-137301Y-173806D02*
D03*
D134*
X-137081Y-173557D02*
D03*
X-137074D02*
D03*
D03*
X-137081D02*
D03*
X-137066Y-173590D02*
D03*
X-137073D02*
D03*
D03*
X-137066D02*
D03*
X-137074D02*
D03*
X-137081D02*
D03*
D03*
X-137074D02*
D03*
X-137058Y-173732D02*
D03*
Y-173820D02*
D03*
D03*
X-137081D02*
D03*
Y-173732D02*
D03*
Y-173820D02*
D03*
X-137058Y-173732D02*
D03*
X-137081D02*
D03*
X-137059Y-173638D02*
D03*
X-137082D02*
D03*
D03*
Y-173726D02*
D03*
X-137059D02*
D03*
X-137082D02*
D03*
X-137059Y-173638D02*
D03*
Y-173726D02*
D03*
X-137302Y-173615D02*
D03*
Y-173638D02*
D03*
X-137214D02*
D03*
X-137302D02*
D03*
X-137214Y-173615D02*
D03*
Y-173638D02*
D03*
Y-173615D02*
D03*
X-137302D02*
D03*
X-137109Y-173797D02*
D03*
Y-173819D02*
D03*
Y-173797D02*
D03*
X-137197D02*
D03*
D03*
Y-173819D02*
D03*
X-137109D02*
D03*
X-137197D02*
D03*
X-137112Y-173641D02*
D03*
X-137201D02*
D03*
X-137112D02*
D03*
Y-173663D02*
D03*
D03*
X-137201D02*
D03*
Y-173641D02*
D03*
Y-173663D02*
D03*
X-137302Y-173641D02*
D03*
Y-173663D02*
D03*
X-137214D02*
D03*
X-137302D02*
D03*
X-137214Y-173641D02*
D03*
Y-173663D02*
D03*
Y-173641D02*
D03*
X-137302D02*
D03*
X-137335Y-173824D02*
D03*
X-137357D02*
D03*
X-137335Y-173736D02*
D03*
Y-173824D02*
D03*
Y-173736D02*
D03*
X-137357D02*
D03*
D03*
Y-173824D02*
D03*
Y-173641D02*
D03*
Y-173730D02*
D03*
X-137335Y-173641D02*
D03*
X-137357D02*
D03*
X-137335D02*
D03*
Y-173730D02*
D03*
D03*
X-137357D02*
D03*
X-137349Y-173580D02*
D03*
X-137326D02*
D03*
X-137353Y-173577D02*
D03*
X-137322D02*
D03*
X-137210Y-173819D02*
D03*
X-137299D02*
D03*
Y-173797D02*
D03*
Y-173819D02*
D03*
X-137210Y-173797D02*
D03*
X-137299D02*
D03*
X-137210D02*
D03*
Y-173819D02*
D03*
X-137073Y-173557D02*
D03*
X-137066D02*
D03*
D03*
X-137073D02*
D03*
D135*
X-137335Y-173530D02*
D03*
X-137121Y-173536D02*
D03*
X-137095Y-173530D02*
D03*
X-137303Y-173605D02*
D03*
X-137290D02*
D03*
X-137277D02*
D03*
X-137264D02*
D03*
X-137250Y-173605D02*
D03*
X-137237Y-173605D02*
D03*
X-137224D02*
D03*
X-137211D02*
D03*
X-137247Y-173558D02*
D03*
X-137142Y-173763D02*
D03*
X-137100Y-173696D02*
D03*
X-137199Y-173763D02*
D03*
X-137157Y-173696D02*
D03*
X-137254Y-173763D02*
D03*
X-137212Y-173696D02*
D03*
X-137309Y-173763D02*
D03*
X-137267Y-173697D02*
D03*
D138*
X-137239Y-173560D02*
X-137229D01*
Y-173564D02*
Y-173560D01*
X-137240Y-173564D02*
X-137229D01*
X-137240D02*
Y-173560D01*
X-137239D01*
X-137240Y-173542D02*
X-137230D01*
X-137240D02*
Y-173537D01*
X-137229D01*
Y-173542D02*
Y-173537D01*
X-137230Y-173542D02*
X-137229D01*
X-137317Y-173609D02*
Y-173599D01*
X-137322Y-173609D02*
X-137317D01*
X-137322D02*
Y-173599D01*
X-137317D01*
Y-173599D02*
Y-173599D01*
X-137230Y-173530D02*
X-137229D01*
Y-173526D01*
X-137240D02*
X-137229D01*
X-137240Y-173530D02*
Y-173526D01*
Y-173530D02*
X-137230D01*
X-137240Y-173536D02*
X-137230D01*
X-137240D02*
Y-173531D01*
X-137229D01*
Y-173536D02*
Y-173531D01*
X-137230Y-173536D02*
X-137229D01*
X-137229Y-173584D02*
Y-173574D01*
X-137224D01*
Y-173585D02*
Y-173574D01*
X-137229Y-173585D02*
X-137224D01*
X-137229D02*
Y-173584D01*
X-137235Y-173585D02*
Y-173584D01*
Y-173585D02*
X-137230D01*
Y-173574D01*
X-137235D02*
X-137230D01*
X-137235Y-173584D02*
Y-173574D01*
X-137301Y-173563D02*
Y-173553D01*
X-137297D01*
Y-173563D02*
Y-173553D01*
X-137301Y-173563D02*
X-137297D01*
X-137301D02*
Y-173563D01*
X-137290D02*
Y-173553D01*
X-137285D01*
Y-173563D02*
Y-173553D01*
X-137290Y-173563D02*
X-137285D01*
X-137290D02*
Y-173563D01*
X-137295D02*
Y-173553D01*
X-137291D01*
Y-173563D02*
Y-173553D01*
X-137295Y-173563D02*
X-137291D01*
X-137295D02*
Y-173563D01*
X-137290Y-173522D02*
X-137280D01*
X-137290D02*
Y-173517D01*
X-137279D01*
Y-173522D02*
Y-173517D01*
X-137280Y-173522D02*
X-137279D01*
X-137290Y-173516D02*
X-137280D01*
X-137290D02*
Y-173511D01*
X-137279D01*
Y-173516D02*
Y-173511D01*
X-137280Y-173516D02*
X-137279D01*
X-137129Y-173516D02*
Y-173506D01*
X-137133Y-173516D02*
X-137129D01*
X-137133D02*
Y-173506D01*
X-137129D01*
Y-173506D02*
Y-173506D01*
X-137103Y-173506D02*
Y-173506D01*
X-137108D02*
X-137103D01*
X-137108Y-173516D02*
Y-173506D01*
Y-173516D02*
X-137103D01*
Y-173506D01*
X-137133Y-173528D02*
Y-173528D01*
Y-173528D02*
X-137129D01*
Y-173518D01*
X-137133D02*
X-137129D01*
X-137133Y-173528D02*
Y-173518D01*
X-137139Y-173528D02*
Y-173528D01*
Y-173528D02*
X-137135D01*
Y-173518D01*
X-137139D02*
X-137135D01*
X-137139Y-173528D02*
Y-173518D01*
X-137132Y-173552D02*
Y-173542D01*
X-137128D01*
Y-173553D02*
Y-173542D01*
X-137132Y-173553D02*
X-137128D01*
X-137132D02*
Y-173552D01*
X-137094Y-173710D02*
Y-173709D01*
X-137098D02*
X-137094D01*
X-137098Y-173720D02*
Y-173709D01*
Y-173720D02*
X-137094D01*
Y-173710D01*
X-137151Y-173709D02*
Y-173709D01*
X-137155D02*
X-137151D01*
X-137155Y-173719D02*
Y-173709D01*
Y-173719D02*
X-137151D01*
Y-173709D01*
X-137206D02*
Y-173709D01*
X-137211D02*
X-137206D01*
X-137211Y-173719D02*
Y-173709D01*
Y-173719D02*
X-137206D01*
Y-173709D01*
X-137261Y-173710D02*
Y-173709D01*
X-137266D02*
X-137261D01*
X-137266Y-173720D02*
Y-173709D01*
Y-173720D02*
X-137261D01*
Y-173710D01*
X-137205Y-173749D02*
Y-173739D01*
X-137200D01*
Y-173749D02*
Y-173739D01*
X-137205Y-173749D02*
X-137200D01*
X-137205D02*
Y-173749D01*
X-137148D02*
Y-173739D01*
X-137143D01*
Y-173749D02*
Y-173739D01*
X-137148Y-173749D02*
X-137143D01*
X-137148D02*
Y-173749D01*
X-137260Y-173749D02*
Y-173739D01*
X-137255D01*
Y-173750D02*
Y-173739D01*
X-137260Y-173750D02*
X-137255D01*
X-137260D02*
Y-173749D01*
X-137315Y-173750D02*
Y-173740D01*
X-137311D01*
Y-173750D02*
Y-173740D01*
X-137315Y-173750D02*
X-137311D01*
X-137315D02*
Y-173750D01*
X-137340Y-173527D02*
Y-173517D01*
X-137336D01*
Y-173528D02*
Y-173517D01*
X-137340Y-173528D02*
X-137336D01*
X-137340D02*
Y-173527D01*
X-137336Y-173517D02*
Y-173507D01*
X-137340Y-173517D02*
X-137336D01*
X-137340D02*
Y-173506D01*
X-137336D01*
Y-173507D02*
Y-173506D01*
X-137327Y-173549D02*
Y-173539D01*
X-137323D01*
Y-173550D02*
Y-173539D01*
X-137327Y-173550D02*
X-137323D01*
X-137327D02*
Y-173549D01*
Y-173552D02*
Y-173551D01*
X-137323D01*
Y-173562D02*
Y-173551D01*
X-137327Y-173562D02*
X-137323D01*
X-137327D02*
Y-173552D01*
X-137254Y-173585D02*
X-137249D01*
Y-173575D01*
X-137254D02*
X-137249D01*
X-137254Y-173585D02*
Y-173575D01*
X-137329Y-173609D02*
Y-173599D01*
X-137323D01*
Y-173609D02*
Y-173599D01*
X-137329Y-173609D02*
X-137323D01*
X-137080Y-173546D02*
X-137074D01*
X-137080Y-173556D02*
Y-173546D01*
Y-173556D02*
X-137074D01*
Y-173546D01*
X-137073Y-173546D02*
X-137067D01*
X-137073Y-173555D02*
Y-173546D01*
Y-173555D02*
X-137067D01*
Y-173546D01*
X-137229Y-173515D02*
Y-173510D01*
X-137239D02*
X-137229D01*
X-137239Y-173515D02*
Y-173510D01*
Y-173515D02*
X-137229D01*
X-137239Y-173523D02*
Y-173518D01*
Y-173523D02*
X-137229D01*
Y-173518D01*
X-137239D02*
X-137229D01*
X-137140Y-173516D02*
X-137135D01*
Y-173506D01*
X-137140D02*
X-137135D01*
X-137140Y-173516D02*
Y-173506D01*
X-137114Y-173516D02*
Y-173506D01*
X-137109D01*
Y-173516D02*
Y-173506D01*
X-137114Y-173516D02*
X-137109D01*
X-137103Y-173536D02*
Y-173530D01*
X-137113D02*
X-137103D01*
X-137113Y-173536D02*
Y-173530D01*
Y-173536D02*
X-137103D01*
X-137113Y-173523D02*
X-137103D01*
Y-173529D02*
Y-173523D01*
X-137113Y-173529D02*
X-137103D01*
X-137113D02*
Y-173523D01*
X-137293Y-173585D02*
Y-173575D01*
X-137288D01*
Y-173585D02*
Y-173575D01*
X-137293Y-173585D02*
X-137288D01*
X-137139Y-173783D02*
Y-173773D01*
X-137144Y-173783D02*
X-137139D01*
X-137144D02*
Y-173773D01*
X-137139D01*
X-137101Y-173685D02*
Y-173676D01*
X-137096D01*
Y-173685D02*
Y-173676D01*
X-137101Y-173685D02*
X-137096D01*
X-137133Y-173783D02*
Y-173773D01*
X-137138Y-173783D02*
X-137133D01*
X-137138D02*
Y-173773D01*
X-137133D01*
X-137107Y-173685D02*
Y-173676D01*
X-137102D01*
Y-173685D02*
Y-173676D01*
X-137107Y-173685D02*
X-137102D01*
X-137127Y-173783D02*
Y-173773D01*
X-137132Y-173783D02*
X-137127D01*
X-137132D02*
Y-173773D01*
X-137127D01*
X-137114Y-173685D02*
Y-173676D01*
X-137108D01*
Y-173685D02*
Y-173676D01*
X-137114Y-173685D02*
X-137108D01*
X-137121Y-173783D02*
Y-173773D01*
X-137126Y-173783D02*
X-137121D01*
X-137126D02*
Y-173773D01*
X-137121D01*
X-137120Y-173685D02*
Y-173676D01*
X-137114D01*
Y-173685D02*
Y-173676D01*
X-137120Y-173685D02*
X-137114D01*
X-137115Y-173783D02*
Y-173773D01*
X-137120Y-173783D02*
X-137115D01*
X-137120D02*
Y-173773D01*
X-137115D01*
X-137126Y-173685D02*
Y-173676D01*
X-137120D01*
Y-173685D02*
Y-173676D01*
X-137126Y-173685D02*
X-137120D01*
X-137109Y-173783D02*
Y-173773D01*
X-137114Y-173783D02*
X-137109D01*
X-137114D02*
Y-173773D01*
X-137109D01*
X-137132Y-173685D02*
Y-173676D01*
X-137127D01*
Y-173685D02*
Y-173676D01*
X-137132Y-173685D02*
X-137127D01*
X-137103Y-173783D02*
Y-173773D01*
X-137108Y-173783D02*
X-137103D01*
X-137108D02*
Y-173773D01*
X-137103D01*
X-137138Y-173685D02*
Y-173676D01*
X-137133D01*
Y-173685D02*
Y-173676D01*
X-137138Y-173685D02*
X-137133D01*
X-137097Y-173783D02*
Y-173773D01*
X-137102Y-173783D02*
X-137097D01*
X-137102D02*
Y-173773D01*
X-137097D01*
X-137144Y-173685D02*
Y-173676D01*
X-137139D01*
Y-173685D02*
Y-173676D01*
X-137144Y-173685D02*
X-137139D01*
X-137287Y-173585D02*
Y-173575D01*
X-137281D01*
Y-173585D02*
Y-173575D01*
X-137287Y-173585D02*
X-137281D01*
X-137196Y-173783D02*
Y-173773D01*
X-137201Y-173783D02*
X-137196D01*
X-137201D02*
Y-173773D01*
X-137196D01*
X-137159Y-173685D02*
Y-173676D01*
X-137154D01*
Y-173685D02*
Y-173676D01*
X-137159Y-173685D02*
X-137154D01*
X-137280Y-173585D02*
Y-173575D01*
X-137275D01*
Y-173585D02*
Y-173575D01*
X-137280Y-173585D02*
X-137275D01*
X-137189Y-173783D02*
Y-173773D01*
X-137195Y-173783D02*
X-137189D01*
X-137195D02*
Y-173773D01*
X-137189D01*
X-137165Y-173685D02*
Y-173676D01*
X-137160D01*
Y-173685D02*
Y-173676D01*
X-137165Y-173685D02*
X-137160D01*
X-137183Y-173783D02*
Y-173773D01*
X-137189Y-173783D02*
X-137183D01*
X-137189D02*
Y-173773D01*
X-137183D01*
X-137171Y-173685D02*
Y-173676D01*
X-137166D01*
Y-173685D02*
Y-173676D01*
X-137171Y-173685D02*
X-137166D01*
X-137177Y-173783D02*
Y-173773D01*
X-137183Y-173783D02*
X-137177D01*
X-137183D02*
Y-173773D01*
X-137177D01*
X-137177Y-173685D02*
Y-173676D01*
X-137172D01*
Y-173685D02*
Y-173676D01*
X-137177Y-173685D02*
X-137172D01*
X-137171Y-173783D02*
Y-173773D01*
X-137177Y-173783D02*
X-137171D01*
X-137177D02*
Y-173773D01*
X-137171D01*
X-137183Y-173685D02*
Y-173676D01*
X-137178D01*
Y-173685D02*
Y-173676D01*
X-137183Y-173685D02*
X-137178D01*
X-137165Y-173783D02*
Y-173773D01*
X-137171Y-173783D02*
X-137165D01*
X-137171D02*
Y-173773D01*
X-137165D01*
X-137189Y-173685D02*
Y-173676D01*
X-137183D01*
Y-173685D02*
Y-173676D01*
X-137189Y-173685D02*
X-137183D01*
X-137159Y-173783D02*
Y-173773D01*
X-137164Y-173783D02*
X-137159D01*
X-137164D02*
Y-173773D01*
X-137159D01*
X-137195Y-173685D02*
Y-173676D01*
X-137189D01*
Y-173685D02*
Y-173676D01*
X-137195Y-173685D02*
X-137189D01*
X-137153Y-173783D02*
Y-173773D01*
X-137158Y-173783D02*
X-137153D01*
X-137158D02*
Y-173773D01*
X-137153D01*
X-137201Y-173685D02*
Y-173676D01*
X-137195D01*
Y-173685D02*
Y-173676D01*
X-137201Y-173685D02*
X-137195D01*
X-137274Y-173585D02*
Y-173575D01*
X-137268D01*
Y-173585D02*
Y-173575D01*
X-137274Y-173585D02*
X-137268D01*
X-137251Y-173783D02*
Y-173773D01*
X-137256Y-173783D02*
X-137251D01*
X-137256D02*
Y-173773D01*
X-137251D01*
X-137214Y-173685D02*
Y-173676D01*
X-137208D01*
Y-173685D02*
Y-173676D01*
X-137214Y-173685D02*
X-137208D01*
X-137245Y-173783D02*
Y-173773D01*
X-137250Y-173783D02*
X-137245D01*
X-137250D02*
Y-173773D01*
X-137245D01*
X-137220Y-173685D02*
Y-173676D01*
X-137214D01*
Y-173685D02*
Y-173676D01*
X-137220Y-173685D02*
X-137214D01*
X-137267Y-173585D02*
Y-173575D01*
X-137262D01*
Y-173585D02*
Y-173575D01*
X-137267Y-173585D02*
X-137262D01*
X-137239Y-173783D02*
Y-173773D01*
X-137244Y-173783D02*
X-137239D01*
X-137244D02*
Y-173773D01*
X-137239D01*
X-137226Y-173685D02*
Y-173676D01*
X-137220D01*
Y-173685D02*
Y-173676D01*
X-137226Y-173685D02*
X-137220D01*
X-137233Y-173783D02*
Y-173773D01*
X-137238Y-173783D02*
X-137233D01*
X-137238D02*
Y-173773D01*
X-137233D01*
X-137232Y-173685D02*
Y-173676D01*
X-137226D01*
Y-173685D02*
Y-173676D01*
X-137232Y-173685D02*
X-137226D01*
X-137227Y-173783D02*
Y-173773D01*
X-137232Y-173783D02*
X-137227D01*
X-137232D02*
Y-173773D01*
X-137227D01*
X-137238Y-173685D02*
Y-173676D01*
X-137233D01*
Y-173685D02*
Y-173676D01*
X-137238Y-173685D02*
X-137233D01*
X-137221Y-173783D02*
Y-173773D01*
X-137226Y-173783D02*
X-137221D01*
X-137226D02*
Y-173773D01*
X-137221D01*
X-137244Y-173685D02*
Y-173676D01*
X-137239D01*
Y-173685D02*
Y-173676D01*
X-137244Y-173685D02*
X-137239D01*
X-137215Y-173783D02*
Y-173773D01*
X-137220Y-173783D02*
X-137215D01*
X-137220D02*
Y-173773D01*
X-137215D01*
X-137250Y-173685D02*
Y-173676D01*
X-137245D01*
Y-173685D02*
Y-173676D01*
X-137250Y-173685D02*
X-137245D01*
X-137209Y-173783D02*
Y-173773D01*
X-137214Y-173783D02*
X-137209D01*
X-137214D02*
Y-173773D01*
X-137209D01*
X-137257Y-173685D02*
Y-173676D01*
X-137251D01*
Y-173685D02*
Y-173676D01*
X-137257Y-173685D02*
X-137251D01*
X-137261Y-173585D02*
Y-173575D01*
X-137255D01*
Y-173585D02*
Y-173575D01*
X-137261Y-173585D02*
X-137255D01*
X-137306Y-173784D02*
Y-173774D01*
X-137312Y-173784D02*
X-137306D01*
X-137312D02*
Y-173774D01*
X-137306D01*
X-137270Y-173685D02*
Y-173675D01*
X-137265D01*
Y-173685D02*
Y-173675D01*
X-137270Y-173685D02*
X-137265D01*
X-137300Y-173784D02*
Y-173774D01*
X-137306Y-173784D02*
X-137300D01*
X-137306D02*
Y-173774D01*
X-137300D01*
X-137276Y-173685D02*
Y-173675D01*
X-137271D01*
Y-173685D02*
Y-173675D01*
X-137276Y-173685D02*
X-137271D01*
X-137294Y-173784D02*
Y-173774D01*
X-137300Y-173784D02*
X-137294D01*
X-137300D02*
Y-173774D01*
X-137294D01*
X-137282Y-173685D02*
Y-173675D01*
X-137277D01*
Y-173685D02*
Y-173675D01*
X-137282Y-173685D02*
X-137277D01*
X-137248Y-173585D02*
X-137242D01*
Y-173575D01*
X-137248D02*
X-137242D01*
X-137248Y-173585D02*
Y-173575D01*
X-137288Y-173784D02*
Y-173774D01*
X-137294Y-173784D02*
X-137288D01*
X-137294D02*
Y-173774D01*
X-137288D01*
X-137288Y-173685D02*
Y-173675D01*
X-137283D01*
Y-173685D02*
Y-173675D01*
X-137288Y-173685D02*
X-137283D01*
X-137282Y-173784D02*
Y-173774D01*
X-137287Y-173784D02*
X-137282D01*
X-137287D02*
Y-173774D01*
X-137282D01*
X-137294Y-173685D02*
Y-173675D01*
X-137289D01*
Y-173685D02*
Y-173675D01*
X-137294Y-173685D02*
X-137289D01*
X-137276Y-173784D02*
Y-173774D01*
X-137281Y-173784D02*
X-137276D01*
X-137281D02*
Y-173774D01*
X-137276D01*
X-137300Y-173685D02*
Y-173675D01*
X-137295D01*
Y-173685D02*
Y-173675D01*
X-137300Y-173685D02*
X-137295D01*
X-137270Y-173784D02*
Y-173774D01*
X-137275Y-173784D02*
X-137270D01*
X-137275D02*
Y-173774D01*
X-137270D01*
X-137306Y-173685D02*
X-137301D01*
Y-173675D01*
X-137306D02*
X-137301D01*
X-137306Y-173685D02*
Y-173675D01*
X-137264Y-173784D02*
Y-173774D01*
X-137269Y-173784D02*
X-137264D01*
X-137269D02*
Y-173774D01*
X-137264D01*
X-137312Y-173685D02*
Y-173675D01*
X-137307D01*
Y-173685D02*
Y-173675D01*
X-137312Y-173685D02*
X-137307D01*
X-137241Y-173585D02*
Y-173575D01*
X-137236D01*
Y-173585D02*
Y-173575D01*
X-137241Y-173585D02*
X-137236D01*
X-137340Y-173549D02*
X-137335D01*
Y-173539D01*
X-137340D02*
X-137335D01*
X-137340Y-173549D02*
Y-173539D01*
X-137334Y-173549D02*
X-137329D01*
Y-173539D01*
X-137334D02*
X-137329D01*
X-137334Y-173549D02*
Y-173539D01*
X-137341Y-173552D02*
X-137336D01*
Y-173561D02*
Y-173552D01*
X-137341Y-173561D02*
X-137336D01*
X-137341D02*
Y-173552D01*
X-137319Y-173561D02*
X-137314D01*
X-137319D02*
Y-173552D01*
X-137314D01*
Y-173561D02*
Y-173552D01*
X-137334Y-173561D02*
X-137328D01*
X-137334D02*
Y-173552D01*
X-137328D01*
Y-173561D02*
Y-173552D01*
X-137067Y-173601D02*
Y-173591D01*
X-137072Y-173601D02*
X-137067D01*
X-137072D02*
Y-173591D01*
X-137067D01*
X-137075Y-173601D02*
Y-173591D01*
X-137081Y-173601D02*
X-137075D01*
X-137081D02*
Y-173591D01*
X-137075D01*
X-137267Y-173522D02*
X-137266D01*
Y-173517D01*
X-137277D02*
X-137266D01*
X-137277Y-173522D02*
Y-173517D01*
Y-173522D02*
X-137267D01*
X-137277Y-173516D02*
X-137267D01*
X-137277D02*
Y-173511D01*
X-137266D01*
Y-173516D02*
Y-173511D01*
X-137267Y-173516D02*
X-137266D01*
X-137313Y-173549D02*
Y-173539D01*
X-137308D01*
Y-173550D02*
Y-173539D01*
X-137313Y-173550D02*
X-137308D01*
X-137313D02*
Y-173549D01*
X-137318D02*
Y-173539D01*
X-137314D01*
Y-173550D02*
Y-173539D01*
X-137318Y-173550D02*
X-137314D01*
X-137318D02*
Y-173549D01*
X-137346Y-173517D02*
Y-173516D01*
Y-173517D02*
X-137341D01*
Y-173506D01*
X-137346D02*
X-137341D01*
X-137346Y-173516D02*
Y-173506D01*
X-137341Y-173518D02*
Y-173517D01*
X-137346D02*
X-137341D01*
X-137346Y-173528D02*
Y-173517D01*
Y-173528D02*
X-137341D01*
Y-173518D01*
D139*
X-137081Y-173572D02*
Y-173567D01*
Y-173563D02*
Y-173557D01*
X-137074Y-173572D02*
Y-173567D01*
Y-173563D02*
Y-173557D01*
X-137080Y-173573D02*
X-137075D01*
X-137081Y-173572D02*
X-137080Y-173573D01*
X-137075D02*
X-137074Y-173572D01*
X-137081Y-173557D02*
X-137074D01*
X-137073Y-173590D02*
X-137066D01*
X-137073Y-173576D02*
X-137072Y-173575D01*
X-137067D02*
X-137066Y-173576D01*
X-137072Y-173575D02*
X-137067D01*
X-137073Y-173590D02*
Y-173585D01*
Y-173581D02*
Y-173576D01*
X-137066Y-173590D02*
Y-173585D01*
Y-173581D02*
Y-173576D01*
X-137081Y-173590D02*
X-137074D01*
X-137081Y-173576D02*
X-137080Y-173575D01*
X-137075D02*
X-137074Y-173576D01*
X-137080Y-173575D02*
X-137075D01*
X-137081Y-173590D02*
Y-173585D01*
Y-173581D02*
Y-173576D01*
X-137074Y-173590D02*
Y-173585D01*
Y-173581D02*
Y-173576D01*
X-137058Y-173820D02*
Y-173732D01*
X-137081Y-173820D02*
X-137058D01*
X-137081D02*
Y-173732D01*
X-137058D01*
X-137082Y-173638D02*
X-137059D01*
X-137082Y-173726D02*
Y-173638D01*
Y-173726D02*
X-137059D01*
Y-173638D01*
X-137302Y-173638D02*
Y-173615D01*
Y-173638D02*
X-137214D01*
Y-173615D01*
X-137302D02*
X-137214D01*
X-137109Y-173819D02*
Y-173797D01*
X-137197D02*
X-137109D01*
X-137197Y-173819D02*
Y-173797D01*
Y-173819D02*
X-137109D01*
X-137201Y-173641D02*
X-137112D01*
Y-173663D02*
Y-173641D01*
X-137201Y-173663D02*
X-137112D01*
X-137201D02*
Y-173641D01*
X-137302Y-173663D02*
Y-173641D01*
Y-173663D02*
X-137214D01*
Y-173641D01*
X-137302D02*
X-137214D01*
X-137357Y-173824D02*
X-137335D01*
Y-173736D01*
X-137357D02*
X-137335D01*
X-137357Y-173824D02*
Y-173736D01*
Y-173730D02*
Y-173641D01*
X-137335D01*
Y-173730D02*
Y-173641D01*
X-137357Y-173730D02*
X-137335D01*
X-137357Y-173577D02*
X-137353D01*
X-137320Y-173580D02*
Y-173574D01*
X-137322Y-173577D02*
X-137318D01*
X-137086Y-173562D02*
Y-173548D01*
X-137126Y-173562D02*
Y-173548D01*
X-137086Y-173562D02*
Y-173548D01*
X-137126Y-173562D02*
Y-173548D01*
X-137077Y-173542D02*
X-137070D01*
X-137077Y-173529D02*
X-137070D01*
X-137299Y-173819D02*
X-137210D01*
X-137299D02*
Y-173797D01*
X-137210D01*
Y-173819D02*
Y-173797D01*
X-137073Y-173572D02*
Y-173567D01*
Y-173563D02*
Y-173557D01*
X-137066Y-173572D02*
Y-173567D01*
Y-173563D02*
Y-173557D01*
X-137072Y-173573D02*
X-137067D01*
X-137073Y-173572D02*
X-137072Y-173573D01*
X-137067D02*
X-137066Y-173572D01*
X-137073Y-173557D02*
X-137066D01*
D141*
X-137311Y-173506D02*
G03*
X-137312Y-173506I-0J0D01*
G01*
D02*
G03*
X-137311Y-173506I0J0D01*
G01*
Y-173533D02*
G03*
X-137312Y-173533I-0J0D01*
G01*
D02*
G03*
X-137311Y-173533I0J0D01*
G01*
X-137312Y-173497D02*
G03*
X-137312Y-173497I-0J0D01*
G01*
D02*
G03*
X-137312Y-173497I0J0D01*
G01*
D02*
G03*
X-137312Y-173497I-0J0D01*
G01*
D02*
G03*
X-137312Y-173497I0J0D01*
G01*
X-137311Y-173524D02*
G03*
X-137312Y-173524I-0J0D01*
G01*
D02*
G03*
X-137311Y-173524I0J0D01*
G01*
Y-173515D02*
G03*
X-137312Y-173515I-0J0D01*
G01*
D02*
G03*
X-137311Y-173515I0J0D01*
G01*
X-137308Y-173533D02*
G03*
X-137308Y-173533I-0J0D01*
G01*
D02*
G03*
X-137308Y-173533I0J0D01*
G01*
X-137311D02*
G03*
X-137312Y-173533I-0J0D01*
G01*
D02*
G03*
X-137311Y-173533I0J0D01*
G01*
X-137308D02*
G03*
X-137308Y-173533I-0J0D01*
G01*
D02*
G03*
X-137308Y-173533I0J0D01*
G01*
D142*
X-137330Y-173522D02*
D03*
Y-173520D02*
D03*
X-137254Y-173553D02*
D03*
X-137257D02*
D03*
X-137136Y-173755D02*
D03*
Y-173753D02*
D03*
X-137105Y-173704D02*
D03*
Y-173706D02*
D03*
X-137193Y-173755D02*
D03*
Y-173753D02*
D03*
X-137162Y-173703D02*
D03*
Y-173706D02*
D03*
X-137248Y-173755D02*
D03*
Y-173753D02*
D03*
X-137217Y-173703D02*
D03*
Y-173706D02*
D03*
X-137304Y-173756D02*
D03*
Y-173754D02*
D03*
X-137273Y-173704D02*
D03*
Y-173706D02*
D03*
D143*
X-137330Y-173521D02*
D03*
X-137255Y-173553D02*
D03*
X-137136Y-173754D02*
D03*
X-137105Y-173705D02*
D03*
X-137193Y-173754D02*
D03*
X-137162Y-173704D02*
D03*
X-137248Y-173754D02*
D03*
X-137217Y-173704D02*
D03*
X-137304Y-173755D02*
D03*
X-137273Y-173705D02*
D03*
D144*
X-137072Y-173823D02*
D03*
X-137072Y-173729D02*
D03*
X-137211Y-173628D02*
D03*
X-137200Y-173806D02*
D03*
X-137109Y-173654D02*
D03*
X-137211D02*
D03*
X-137344Y-173732D02*
D03*
Y-173638D02*
D03*
X-137129Y-173566D02*
D03*
X-137302Y-173806D02*
D03*
D145*
X-137338Y-173580D02*
D03*
D146*
X-137126Y-173539D02*
Y-173535D01*
Y-173539D02*
X-137116D01*
X-137126Y-173530D02*
Y-173526D01*
X-137116D01*
X-137099Y-173539D02*
X-137089D01*
Y-173535D01*
X-137099Y-173526D02*
X-137089D01*
Y-173530D02*
Y-173526D01*
X-137157Y-173572D02*
X-137148D01*
Y-173569D01*
X-137218Y-173495D02*
X-137148D01*
X-137218D02*
Y-173472D01*
X-137148D01*
Y-173495D02*
Y-173472D01*
X-137218Y-173497D02*
Y-173495D01*
X-137148Y-173497D02*
Y-173495D01*
X-137218Y-173572D02*
X-137209D01*
X-137218D02*
Y-173569D01*
D147*
X-137312Y-173506D02*
X-137307D01*
X-137312Y-173497D02*
X-137312Y-173533D01*
X-137312Y-173497D02*
X-137307D01*
X-137312Y-173524D02*
X-137307D01*
X-137312Y-173515D02*
X-137307D01*
X-137312Y-173533D02*
X-137308D01*
X-137307D01*
Y-173497D01*
%TF.MD5,8ea7b48eb79cb353daf1f9b0862a8a06*%
M02*
