%TF.GenerationSoftware,Altium Limited,Altium Designer,22.10.1 (41)*%
G04 Layer_Color=8388736*
%FSLAX25Y25*%
%MOIN*%
%TF.SameCoordinates,BEAA4B2D-68BC-4382-99D5-5DCEA874A810*%
%TF.FilePolarity,Positive*%
%TF.FileFunction,Other,Mechanical_18*%
%TF.Part,Single*%
G01*
G75*
G36*
X-137318Y-173514D02*
X-137325D01*
Y-173508D01*
Y-173508D01*
X-137318D01*
Y-173514D01*
D02*
G37*
G36*
X-137331D02*
X-137338D01*
Y-173508D01*
Y-173508D01*
X-137331D01*
Y-173514D01*
D02*
G37*
G36*
X-137318Y-173519D02*
X-137318Y-173519D01*
X-137318Y-173526D01*
X-137318D01*
X-137318Y-173526D01*
X-137319Y-173526D01*
X-137320Y-173526D01*
Y-173526D01*
X-137321Y-173526D01*
X-137321Y-173526D01*
X-137321D01*
Y-173519D01*
X-137321D01*
X-137321Y-173519D01*
X-137320Y-173518D01*
X-137319Y-173518D01*
Y-173518D01*
X-137318Y-173519D01*
D02*
G37*
G36*
X-137323D02*
X-137323Y-173519D01*
X-137323Y-173526D01*
X-137323D01*
X-137323Y-173526D01*
X-137324Y-173526D01*
X-137325Y-173526D01*
Y-173526D01*
X-137326Y-173526D01*
X-137326Y-173526D01*
X-137326D01*
Y-173519D01*
X-137326D01*
X-137326Y-173519D01*
X-137325Y-173518D01*
X-137324Y-173518D01*
Y-173518D01*
X-137323Y-173519D01*
D02*
G37*
G36*
X-137328D02*
X-137328Y-173519D01*
X-137328Y-173526D01*
X-137328D01*
X-137328Y-173526D01*
X-137329Y-173526D01*
X-137330Y-173526D01*
Y-173526D01*
X-137331Y-173526D01*
X-137331Y-173526D01*
X-137331D01*
Y-173519D01*
X-137331D01*
X-137331Y-173519D01*
X-137330Y-173518D01*
X-137329Y-173518D01*
Y-173518D01*
X-137328Y-173519D01*
D02*
G37*
G36*
X-137333D02*
X-137333Y-173519D01*
X-137333Y-173526D01*
X-137333D01*
X-137333Y-173526D01*
X-137334Y-173526D01*
X-137335Y-173526D01*
Y-173526D01*
X-137336Y-173526D01*
X-137336Y-173526D01*
X-137336D01*
Y-173519D01*
X-137336D01*
X-137336Y-173519D01*
X-137335Y-173518D01*
X-137334Y-173518D01*
Y-173518D01*
X-137333Y-173519D01*
D02*
G37*
G36*
X-137075Y-173538D02*
X-137085D01*
Y-173531D01*
X-137075D01*
Y-173538D01*
D02*
G37*
G36*
X-137091D02*
X-137101D01*
Y-173531D01*
X-137091D01*
Y-173538D01*
D02*
G37*
G36*
X-137318Y-173538D02*
X-137318Y-173538D01*
X-137318Y-173545D01*
X-137318D01*
X-137318Y-173546D01*
X-137319Y-173546D01*
X-137320Y-173546D01*
Y-173546D01*
X-137321Y-173546D01*
X-137321Y-173545D01*
X-137321D01*
Y-173538D01*
X-137321D01*
X-137321Y-173538D01*
X-137320Y-173538D01*
X-137319Y-173538D01*
Y-173538D01*
X-137318Y-173538D01*
D02*
G37*
G36*
X-137323D02*
X-137323Y-173538D01*
X-137323Y-173545D01*
X-137323D01*
X-137323Y-173546D01*
X-137324Y-173546D01*
X-137325Y-173546D01*
Y-173546D01*
X-137326Y-173546D01*
X-137326Y-173545D01*
X-137326D01*
Y-173538D01*
X-137326D01*
X-137326Y-173538D01*
X-137325Y-173538D01*
X-137324Y-173538D01*
Y-173538D01*
X-137323Y-173538D01*
D02*
G37*
G36*
X-137328D02*
X-137328Y-173538D01*
X-137328Y-173545D01*
X-137328D01*
X-137328Y-173546D01*
X-137329Y-173546D01*
X-137330Y-173546D01*
Y-173546D01*
X-137331Y-173546D01*
X-137331Y-173545D01*
X-137331D01*
Y-173538D01*
X-137331D01*
X-137331Y-173538D01*
X-137330Y-173538D01*
X-137329Y-173538D01*
Y-173538D01*
X-137328Y-173538D01*
D02*
G37*
G36*
X-137333D02*
X-137333Y-173538D01*
X-137333Y-173545D01*
X-137333D01*
X-137333Y-173546D01*
X-137334Y-173546D01*
X-137335Y-173546D01*
Y-173546D01*
X-137336Y-173546D01*
X-137336Y-173545D01*
X-137336D01*
Y-173538D01*
X-137336D01*
X-137336Y-173538D01*
X-137335Y-173538D01*
X-137334Y-173538D01*
Y-173538D01*
X-137333Y-173538D01*
D02*
G37*
G36*
X-137110Y-173547D02*
X-137116D01*
Y-173542D01*
X-137110D01*
Y-173547D01*
D02*
G37*
G36*
X-137145D02*
X-137151D01*
Y-173542D01*
X-137145D01*
Y-173547D01*
D02*
G37*
G36*
X-137113Y-173557D02*
X-137116D01*
Y-173554D01*
X-137113D01*
Y-173557D01*
D02*
G37*
G36*
X-137119D02*
X-137122D01*
Y-173554D01*
X-137119D01*
Y-173557D01*
D02*
G37*
G36*
X-137126D02*
X-137129D01*
Y-173554D01*
X-137126D01*
Y-173557D01*
D02*
G37*
G36*
X-137132D02*
X-137135D01*
Y-173554D01*
X-137132D01*
Y-173557D01*
D02*
G37*
G36*
X-137076Y-173557D02*
X-137082D01*
Y-173543D01*
X-137076D01*
Y-173557D01*
D02*
G37*
G36*
X-137092D02*
X-137098D01*
Y-173543D01*
X-137092D01*
Y-173557D01*
D02*
G37*
G36*
X-137140Y-173557D02*
X-137142D01*
Y-173554D01*
X-137140D01*
Y-173557D01*
D02*
G37*
G36*
X-137146D02*
X-137148D01*
Y-173554D01*
X-137146D01*
Y-173557D01*
D02*
G37*
G36*
X-137318Y-173559D02*
X-137325D01*
Y-173554D01*
X-137318D01*
Y-173559D01*
D02*
G37*
G36*
X-137331D02*
X-137338D01*
Y-173554D01*
Y-173554D01*
X-137331D01*
Y-173559D01*
D02*
G37*
G36*
X-137104Y-173566D02*
X-137111D01*
Y-173561D01*
X-137104D01*
Y-173566D01*
D02*
G37*
G36*
X-137117D02*
X-137124D01*
Y-173561D01*
X-137117D01*
Y-173566D01*
D02*
G37*
G36*
X-137076Y-173566D02*
X-137083D01*
Y-173561D01*
X-137076D01*
Y-173566D01*
D02*
G37*
G36*
X-137089D02*
X-137096D01*
Y-173561D01*
Y-173561D01*
X-137089D01*
Y-173566D01*
D02*
G37*
G36*
X-137135Y-173573D02*
X-137141D01*
Y-173566D01*
X-137135D01*
Y-173573D01*
D02*
G37*
G36*
X-137124Y-173575D02*
X-137133D01*
Y-173571D01*
X-137124D01*
Y-173575D01*
D02*
G37*
G36*
X-137145Y-173578D02*
X-137148D01*
Y-173575D01*
X-137145D01*
Y-173578D01*
D02*
G37*
G36*
X-137124Y-173584D02*
X-137133D01*
Y-173580D01*
X-137124D01*
Y-173584D01*
D02*
G37*
G36*
X-137145Y-173584D02*
X-137148D01*
Y-173581D01*
X-137145D01*
Y-173584D01*
D02*
G37*
G36*
X-137135Y-173586D02*
X-137141D01*
Y-173579D01*
X-137135D01*
Y-173586D01*
D02*
G37*
G36*
X-137101Y-173588D02*
X-137109D01*
Y-173576D01*
X-137101D01*
Y-173588D01*
D02*
G37*
G36*
X-137056Y-173589D02*
X-137064D01*
Y-173581D01*
X-137056D01*
Y-173589D01*
D02*
G37*
G36*
X-137081D02*
X-137088D01*
Y-173581D01*
X-137081D01*
Y-173589D01*
D02*
G37*
G36*
X-137124Y-173593D02*
X-137133D01*
Y-173589D01*
X-137124D01*
Y-173593D01*
D02*
G37*
G36*
Y-173604D02*
X-137133D01*
Y-173600D01*
X-137124D01*
Y-173604D01*
D02*
G37*
G36*
X-137135Y-173612D02*
X-137141D01*
Y-173605D01*
X-137135D01*
Y-173612D01*
D02*
G37*
G36*
X-137124Y-173613D02*
X-137133D01*
Y-173609D01*
X-137124D01*
Y-173613D01*
D02*
G37*
G36*
X-137101Y-173617D02*
X-137109D01*
Y-173605D01*
X-137101D01*
Y-173617D01*
D02*
G37*
G36*
X-137144Y-173619D02*
X-137147D01*
Y-173616D01*
X-137144D01*
Y-173619D01*
D02*
G37*
G36*
X-137124Y-173622D02*
X-137133D01*
Y-173618D01*
X-137124D01*
Y-173622D01*
D02*
G37*
G36*
X-137144Y-173625D02*
X-137147D01*
Y-173622D01*
X-137144D01*
Y-173625D01*
D02*
G37*
G36*
X-137135Y-173625D02*
X-137141D01*
Y-173618D01*
X-137135D01*
Y-173625D01*
D02*
G37*
G36*
X-137056Y-173632D02*
X-137064D01*
Y-173624D01*
X-137056D01*
Y-173632D01*
D02*
G37*
G36*
X-137081D02*
X-137088D01*
Y-173624D01*
X-137081D01*
Y-173632D01*
D02*
G37*
%TF.MD5,f0d195f8871ee9483639917ecdd47c73*%
M02*
