999
"DXF R12 Output" (www.mydxf.blogspot.com)
 0 
SECTION
 2 
HEADER
 9 
$ACADVER
 1 
AC1009
 9 
$EXTMIN
 10 
 0 
 20 
 0 
 9 
$EXTMAX
 10 
 8.5 
 20 
 11 
 0 
ENDSEC
 0 
SECTION
 2 
ENTITIES
0
LINE
8
Layer 1
10
210.079299
20
427.359102
11
157.515377
21
396.951049
0
LINE
8
Layer 1
10
157.515377
20
396.951049
11
106.362567
21
367.386136
0
LINE
8
Layer 1
10
106.362567
20
367.386136
11
106.273314
21
306.283223
0
LINE
8
Layer 1
10
106.273314
20
306.283223
11
106.331523
21
245.180662
0
LINE
8
Layer 1
10
106.331523
20
245.180662
11
127.763844
21
257.477445
0
LINE
8
Layer 1
10
127.763844
20
257.477445
11
179.583405
21
287.410305
0
LINE
8
Layer 1
10
179.583405
20
287.410305
11
211.004636
21
305.627408
0
LINE
8
Layer 1
10
211.004636
20
305.627408
11
211.410065
21
305.751557
0
LINE
8
Layer 1
10
211.410065
20
305.751557
11
212.361062
21
305.472368
0
LINE
8
Layer 1
10
212.361062
20
305.472368
11
218.265645
21
302.388157
0
LINE
8
Layer 1
10
218.265645
20
302.388157
11
233.450164
21
293.743128
0
LINE
8
Layer 1
10
233.450164
20
293.743128
11
262.646396
21
276.905635
0
LINE
8
Layer 1
10
262.646396
20
276.905635
11
315.447385
21
246.479943
0
LINE
8
Layer 1
10
315.447385
20
246.479943
11
317.493497
21
245.357051
0
LINE
8
Layer 1
10
317.493497
20
245.357051
11
317.408478
21
184.036121
0
LINE
8
Layer 1
10
317.408478
20
184.036121
11
317.323811
21
122.715543
0
LINE
8
Layer 1
10
317.323811
20
122.715543
11
306.211304
21
116.271347
0
LINE
8
Layer 1
10
306.211304
20
116.271347
11
222.250140
21
67.800709
0
LINE
8
Layer 1
10
222.250140
20
67.800709
11
212.937859
21
62.421197
0
LINE
8
Layer 1
10
212.937859
20
62.421197
11
211.915508
21
61.810538
0
LINE
8
Layer 1
10
211.915508
20
61.810538
11
213.290637
21
60.944115
0
LINE
8
Layer 1
10
213.290637
20
60.944115
11
264.936278
21
31.062408
0
LINE
8
Layer 1
10
264.936278
20
31.062408
11
316.484552
21
1.224797
0
LINE
8
Layer 1
10
316.484552
20
1.224797
11
317.537374
21
0.692411
0
LINE
8
Layer 1
10
317.537374
20
0.692411
11
317.885175
21
0.653247
0
LINE
8
Layer 1
10
317.885175
20
0.653247
11
318.122148
21
0.763011
0
LINE
8
Layer 1
10
318.122148
20
0.763011
11
370.819772
21
31.699525
0
LINE
8
Layer 1
10
370.819772
20
31.699525
11
423.157211
21
62.276205
0
LINE
8
Layer 1
10
423.157211
20
62.276205
11
423.246464
21
123.174860
0
LINE
8
Layer 1
10
423.246464
20
123.174860
11
423.335717
21
184.073868
0
LINE
8
Layer 1
10
423.335717
20
184.073868
11
420.600629
21
185.632088
0
LINE
8
Layer 1
10
420.600629
20
185.632088
11
325.437705
21
240.595959
0
LINE
8
Layer 1
10
325.437705
20
240.595959
11
318.999506
21
244.263792
0
LINE
8
Layer 1
10
318.999506
20
244.263792
11
317.852978
21
244.845876
0
LINE
8
Layer 1
10
317.852978
20
244.845876
11
317.847686
21
305.779456
0
LINE
8
Layer 1
10
317.847686
20
305.779456
11
317.767650
21
348.924337
0
LINE
8
Layer 1
10
317.767650
20
348.924337
11
317.583103
21
367.090155
0
LINE
8
Layer 1
10
317.583103
20
367.090155
11
312.218584
21
370.345370
0
LINE
8
Layer 1
10
312.218584
20
370.345370
11
299.684911
21
377.642098
0
LINE
8
Layer 1
10
299.684911
20
377.642098
11
247.033500
21
408.044506
0
LINE
8
Layer 1
10
247.033500
20
408.044506
11
211.755700
21
428.237166
0
LINE
8
Layer 1
10
211.755700
20
428.237166
11
210.079299
21
427.359102
0
LINE
8
Layer 1
10
332.801946
20
227.595384
11
338.843269
21
224.184727
0
LINE
8
Layer 1
10
338.843269
20
224.184727
11
340.959937
21
222.955648
0
LINE
8
Layer 1
10
340.959937
20
222.955648
11
342.900216
21
221.816881
0
LINE
8
Layer 1
10
342.900216
20
221.816881
11
351.190499
21
217.139397
0
LINE
8
Layer 1
10
351.190499
20
217.139397
11
360.539116
21
211.859016
0
LINE
8
Layer 1
10
360.539116
20
211.859016
11
404.812755
21
186.583883
0
LINE
8
Layer 1
10
404.812755
20
186.583883
11
415.748873
21
180.320663
0
LINE
8
Layer 1
10
415.748873
20
180.320663
11
415.838126
21
127.878096
0
LINE
8
Layer 1
10
415.838126
20
127.878096
11
415.927731
21
75.435530
0
LINE
8
Layer 1
10
415.927731
20
75.435530
11
414.779792
21
76.133678
0
LINE
8
Layer 1
10
414.779792
20
76.133678
11
406.223867
21
80.979436
0
LINE
8
Layer 1
10
406.223867
20
80.979436
11
394.758582
21
87.409168
0
LINE
8
Layer 1
10
394.758582
20
87.409168
11
383.293297
21
93.838547
0
LINE
8
Layer 1
10
383.293297
20
93.838547
11
371.651623
21
100.379757
0
LINE
8
Layer 1
10
371.651623
20
100.379757
11
365.654397
21
103.738203
0
LINE
8
Layer 1
10
365.654397
20
103.738203
11
358.605893
21
107.743998
0
LINE
8
Layer 1
10
358.605893
20
107.743998
11
354.736756
21
109.839455
0
LINE
8
Layer 1
10
354.736756
20
109.839455
11
352.854906
21
110.606438
0
LINE
8
Layer 1
10
352.854906
20
110.606438
11
352.580577
21
110.569176
0
LINE
8
Layer 1
10
352.580577
20
110.569176
11
352.575858
21
110.730616
0
LINE
8
Layer 1
10
352.575858
20
110.730616
11
351.648140
21
111.541300
0
LINE
8
Layer 1
10
351.648140
20
111.541300
11
349.154617
21
113.064243
0
LINE
8
Layer 1
10
349.154617
20
113.064243
11
341.665493
21
117.299695
0
LINE
8
Layer 1
10
341.665493
20
117.299695
11
332.316876
21
122.573374
0
LINE
8
Layer 1
10
332.316876
20
122.573374
11
326.444181
21
126.056704
0
LINE
8
Layer 1
10
326.444181
20
126.056704
11
326.288814
21
127.510471
0
LINE
8
Layer 1
10
326.288814
20
127.510471
11
326.143360
21
131.500818
0
LINE
8
Layer 1
10
326.143360
20
131.500818
11
325.885204
21
146.830830
0
LINE
8
Layer 1
10
325.885204
20
146.830830
11
325.520961
21
205.065217
0
LINE
8
Layer 1
10
325.520961
20
205.065217
11
325.543935
21
225.462312
0
LINE
8
Layer 1
10
325.543935
20
225.462312
11
325.680256
21
229.228768
0
LINE
8
Layer 1
10
325.680256
20
229.228768
11
325.925950
21
230.338939
0
LINE
8
Layer 1
10
325.925950
20
230.338939
11
326.681584
21
230.479675
0
LINE
8
Layer 1
10
326.681584
20
230.479675
11
327.934006
21
230.127360
0
LINE
8
Layer 1
10
327.934006
20
230.127360
11
329.901400
21
229.194946
0
LINE
8
Layer 1
10
329.901400
20
229.194946
11
332.801946
21
227.595384
0
LINE
8
Layer 1
10
203.552906
20
361.642205
11
203.552906
21
309.828994
0
LINE
8
Layer 1
10
203.552906
20
309.828994
11
201.877210
21
308.972449
0
LINE
8
Layer 1
10
201.877210
20
308.972449
11
195.887393
21
305.576256
0
LINE
8
Layer 1
10
195.887393
20
305.576256
11
191.293518
21
303.036254
0
LINE
8
Layer 1
10
191.293518
20
303.036254
11
189.080894
21
301.762725
0
LINE
8
Layer 1
10
189.080894
20
301.762725
11
184.679283
21
299.248124
0
LINE
8
Layer 1
10
184.679283
20
299.248124
11
182.033448
21
297.745995
0
LINE
8
Layer 1
10
182.033448
20
297.745995
11
179.916780
21
296.509861
0
LINE
8
Layer 1
10
179.916780
20
296.509861
11
177.800112
21
295.274432
0
LINE
8
Layer 1
10
177.800112
20
295.274432
11
175.330666
21
293.862615
0
LINE
8
Layer 1
10
175.330666
20
293.862615
11
171.626497
21
291.772052
0
LINE
8
Layer 1
10
171.626497
20
291.772052
11
167.922328
21
289.645154
0
LINE
8
Layer 1
10
167.922328
20
289.645154
11
164.787895
21
287.809650
0
LINE
8
Layer 1
10
164.787895
20
287.809650
11
163.622670
21
287.161244
0
LINE
8
Layer 1
10
163.622670
20
287.161244
11
160.866768
21
285.573743
0
LINE
8
Layer 1
10
160.866768
20
285.573743
11
158.121450
21
283.986242
0
LINE
8
Layer 1
10
158.121450
20
283.986242
11
154.876950
21
282.205771
0
LINE
8
Layer 1
10
154.876950
20
282.205771
11
150.686300
21
279.899309
0
LINE
8
Layer 1
10
150.686300
20
279.899309
11
148.885369
21
278.892480
0
LINE
8
Layer 1
10
148.885369
20
278.892480
11
146.579259
21
277.446796
0
LINE
8
Layer 1
10
146.579259
20
277.446796
11
143.349224
21
275.505459
0
LINE
8
Layer 1
10
143.349224
20
275.505459
11
141.056167
21
274.278850
0
LINE
8
Layer 1
10
141.056167
20
274.278850
11
139.103893
21
273.350250
0
LINE
8
Layer 1
10
139.103893
20
273.350250
11
137.583420
21
272.324812
0
LINE
8
Layer 1
10
137.583420
20
272.324812
11
134.937585
21
270.767298
0
LINE
8
Layer 1
10
134.937585
20
270.767298
11
130.880638
21
268.513752
0
LINE
8
Layer 1
10
130.880638
20
268.513752
11
128.345223
21
267.054309
0
LINE
8
Layer 1
10
128.345223
20
267.054309
11
120.826465
21
262.729604
0
LINE
8
Layer 1
10
120.826465
20
262.729604
11
116.392531
21
260.257115
0
LINE
8
Layer 1
10
116.392531
20
260.257115
11
113.576524
21
258.939004
0
LINE
8
Layer 1
10
113.576524
20
258.939004
11
113.439950
21
262.420184
0
LINE
8
Layer 1
10
113.439950
20
262.420184
11
113.351496
21
272.532422
0
LINE
8
Layer 1
10
113.351496
20
272.532422
11
113.328874
21
310.662256
0
LINE
8
Layer 1
10
113.328874
20
310.662256
11
113.418127
21
362.385508
0
LINE
8
Layer 1
10
113.418127
20
362.385508
11
116.416740
21
364.153631
0
LINE
8
Layer 1
10
116.416740
20
364.153631
11
122.281321
21
367.640136
0
LINE
8
Layer 1
10
122.281321
20
367.640136
11
125.375185
21
369.358518
0
LINE
8
Layer 1
10
125.375185
20
369.358518
11
127.095330
21
370.305021
0
LINE
8
Layer 1
10
127.095330
20
370.305021
11
135.466752
21
375.174063
0
LINE
8
Layer 1
10
135.466752
20
375.174063
11
139.876477
21
377.715829
0
LINE
8
Layer 1
10
139.876477
20
377.715829
11
144.286202
21
380.294989
0
LINE
8
Layer 1
10
144.286202
20
380.294989
11
149.499203
21
383.341932
0
LINE
8
Layer 1
10
149.499203
20
383.341932
11
152.329540
21
384.880750
0
LINE
8
Layer 1
10
152.329540
20
384.880750
11
154.524878
21
386.154279
0
LINE
8
Layer 1
10
154.524878
20
386.154279
11
158.552192
21
388.485788
0
LINE
8
Layer 1
10
158.552192
20
388.485788
11
161.550805
21
390.157956
0
LINE
8
Layer 1
10
161.550805
20
390.157956
11
169.509829
21
394.834734
0
LINE
8
Layer 1
10
169.509829
20
394.834734
11
173.213998
21
396.953871
0
LINE
8
Layer 1
10
173.213998
20
396.953871
11
178.505668
21
400.069607
0
LINE
8
Layer 1
10
178.505668
20
400.069607
11
183.703146
21
403.115139
0
LINE
8
Layer 1
10
183.703146
20
403.115139
11
186.531720
21
404.636318
0
LINE
8
Layer 1
10
186.531720
20
404.636318
11
188.194010
21
405.577882
0
LINE
8
Layer 1
10
188.194010
20
405.577882
11
194.502034
21
409.290871
0
LINE
8
Layer 1
10
194.502034
20
409.290871
11
200.342273
21
412.747743
0
LINE
8
Layer 1
10
200.342273
20
412.747743
11
201.327230
21
413.235282
0
LINE
8
Layer 1
10
201.327230
20
413.235282
11
202.406377
21
413.444479
0
LINE
8
Layer 1
10
202.406377
20
413.444479
11
203.552906
21
413.455768
0
LINE
8
Layer 1
10
203.552906
20
413.455768
11
203.552906
21
361.642205
0
LINE
8
Layer 1
10
95.922455
20
239.128050
11
11.641674
21
189.799455
0
LINE
8
Layer 1
10
11.641674
20
189.799455
11
0.986015
21
183.492137
0
LINE
8
Layer 1
10
0.986015
20
183.492137
11
0.795911
21
165.409222
0
LINE
8
Layer 1
10
0.795911
20
165.409222
11
0.688623
21
122.253051
0
LINE
8
Layer 1
10
0.688623
20
122.253051
11
0.640292
21
61.241860
0
LINE
8
Layer 1
10
0.640292
20
61.241860
11
53.232084
21
31.202108
0
LINE
8
Layer 1
10
53.232084
20
31.202108
11
105.823875
21
1.162356
0
LINE
8
Layer 1
10
105.823875
20
1.162356
11
134.315285
21
17.433535
0
LINE
8
Layer 1
10
134.315285
20
17.433535
11
187.235160
21
47.616163
0
LINE
8
Layer 1
10
187.235160
20
47.616163
11
204.410377
21
57.518288
0
LINE
8
Layer 1
10
204.410377
20
57.518288
11
209.575019
21
60.590511
0
LINE
8
Layer 1
10
209.575019
20
60.590511
11
211.400453
21
61.790077
0
LINE
8
Layer 1
10
211.400453
20
61.790077
11
113.908488
21
118.200338
0
LINE
8
Layer 1
10
113.908488
20
118.200338
11
106.284956
21
122.590307
0
LINE
8
Layer 1
10
106.284956
20
122.590307
11
106.081756
21
132.820869
0
LINE
8
Layer 1
10
106.081756
20
132.820869
11
105.946995
21
193.795371
0
LINE
8
Layer 1
10
105.946995
20
193.795371
11
105.932839
21
229.671659
0
LINE
8
Layer 1
10
105.932839
20
229.671659
11
105.803061
21
244.670192
0
LINE
8
Layer 1
10
105.803061
20
244.670192
11
102.813135
21
243.096361
0
LINE
8
Layer 1
10
102.813135
20
243.096361
11
95.922455
21
239.128050
0
LINE
8
Layer 1
10
110.423395
20
112.130087
11
117.193204
21
108.286217
0
LINE
8
Layer 1
10
117.193204
20
108.286217
11
120.598923
21
106.222466
0
LINE
8
Layer 1
10
120.598923
20
106.222466
11
121.908435
21
105.480574
0
LINE
8
Layer 1
10
121.908435
20
105.480574
11
123.794034
21
104.479743
0
LINE
8
Layer 1
10
123.794034
20
104.479743
11
128.058414
21
101.961613
0
LINE
8
Layer 1
10
128.058414
20
101.961613
11
133.271415
21
98.905498
0
LINE
8
Layer 1
10
133.271415
20
98.905498
11
135.969461
21
97.366680
0
LINE
8
Layer 1
10
135.969461
20
97.366680
11
138.423032
21
95.955568
0
LINE
8
Layer 1
10
138.423032
20
95.955568
11
140.953155
21
94.544456
0
LINE
8
Layer 1
10
140.953155
20
94.544456
11
142.635201
21
93.543978
0
LINE
8
Layer 1
10
142.635201
20
93.543978
11
145.168147
21
92.003749
0
LINE
8
Layer 1
10
145.168147
20
92.003749
11
149.401483
21
89.599214
0
LINE
8
Layer 1
10
149.401483
20
89.599214
11
163.810348
21
81.263775
0
LINE
8
Layer 1
10
163.810348
20
81.263775
11
166.863288
21
79.375355
0
LINE
8
Layer 1
10
166.863288
20
79.375355
11
168.186559
21
78.669446
0
LINE
8
Layer 1
10
168.186559
20
78.669446
11
170.601677
21
77.325715
0
LINE
8
Layer 1
10
170.601677
20
77.325715
11
173.743165
21
75.432355
0
LINE
8
Layer 1
10
173.743165
20
75.432355
11
180.415961
21
71.642814
0
LINE
8
Layer 1
10
180.415961
20
71.642814
11
182.386226
21
70.465946
0
LINE
8
Layer 1
10
182.386226
20
70.465946
11
194.137967
21
63.606178
0
LINE
8
Layer 1
10
194.137967
20
63.606178
11
194.892772
21
63.064188
0
LINE
8
Layer 1
10
194.892772
20
63.064188
11
195.328444
21
62.549768
0
LINE
8
Layer 1
10
195.328444
20
62.549768
11
195.408557
21
62.018125
0
LINE
8
Layer 1
10
195.408557
20
62.018125
11
195.096685
21
61.424467
0
LINE
8
Layer 1
10
195.096685
20
61.424467
11
194.356403
21
60.723999
0
LINE
8
Layer 1
10
194.356403
20
60.723999
11
193.151285
21
59.871929
0
LINE
8
Layer 1
10
193.151285
20
59.871929
11
189.200839
21
57.533810
0
LINE
8
Layer 1
10
189.200839
20
57.533810
11
184.502894
21
54.846700
0
LINE
8
Layer 1
10
184.502894
20
54.846700
11
174.095943
21
48.865349
0
LINE
8
Layer 1
10
174.095943
20
48.865349
11
162.983436
21
42.505115
0
LINE
8
Layer 1
10
162.983436
20
42.505115
11
146.755648
21
33.158262
0
LINE
8
Layer 1
10
146.755648
20
33.158262
11
142.169534
21
30.515249
0
LINE
8
Layer 1
10
142.169534
20
30.515249
11
137.583420
21
27.869414
0
LINE
8
Layer 1
10
137.583420
20
27.869414
11
132.997306
21
25.224637
0
LINE
8
Layer 1
10
132.997306
20
25.224637
11
127.176469
21
21.878185
0
LINE
8
Layer 1
10
127.176469
20
21.878185
11
121.532021
21
18.580064
0
LINE
8
Layer 1
10
121.532021
20
18.580064
11
119.022006
21
17.287132
0
LINE
8
Layer 1
10
119.022006
20
17.287132
11
118.496719
21
17.091693
0
LINE
8
Layer 1
10
118.496719
20
17.091693
11
117.786224
21
16.623204
0
LINE
8
Layer 1
10
117.786224
20
16.623204
11
115.533737
21
15.172228
0
LINE
8
Layer 1
10
115.533737
20
15.172228
11
110.193031
21
12.130929
0
LINE
8
Layer 1
10
110.193031
20
12.130929
11
107.254169
21
10.539592
0
LINE
8
Layer 1
10
107.254169
20
10.539592
11
105.707811
21
9.877736
0
LINE
8
Layer 1
10
105.707811
20
9.877736
11
104.301770
21
10.465861
0
LINE
8
Layer 1
10
104.301770
20
10.465861
11
101.700606
21
11.879751
0
LINE
8
Layer 1
10
101.700606
20
11.879751
11
82.902830
21
22.759425
0
LINE
8
Layer 1
10
82.902830
20
22.759425
11
66.851431
21
32.096047
0
LINE
8
Layer 1
10
66.851431
20
32.096047
11
62.088928
21
34.838896
0
LINE
8
Layer 1
10
62.088928
20
34.838896
11
58.561148
21
36.869486
0
LINE
8
Layer 1
10
58.561148
20
36.869486
11
53.269478
21
39.951355
0
LINE
8
Layer 1
10
53.269478
20
39.951355
11
44.273639
21
45.159769
0
LINE
8
Layer 1
10
44.273639
20
45.159769
11
37.394468
21
49.126052
0
LINE
8
Layer 1
10
37.394468
20
49.126052
11
32.984743
21
51.677343
0
LINE
8
Layer 1
10
32.984743
20
51.677343
11
28.575018
21
54.240628
0
LINE
8
Layer 1
10
28.575018
20
54.240628
11
24.165293
21
56.797210
0
LINE
8
Layer 1
10
24.165293
20
56.797210
11
19.755568
21
59.346737
0
LINE
8
Layer 1
10
19.755568
20
59.346737
11
17.179445
21
60.912261
0
LINE
8
Layer 1
10
17.179445
20
60.912261
11
16.521934
21
61.497125
0
LINE
8
Layer 1
10
16.521934
20
61.497125
11
16.280220
21
62.015458
0
LINE
8
Layer 1
10
16.280220
20
62.015458
11
16.450875
21
62.516313
0
LINE
8
Layer 1
10
16.450875
20
62.516313
11
17.030474
21
63.048739
0
LINE
8
Layer 1
10
17.030474
20
63.048739
11
19.402790
21
64.404515
0
LINE
8
Layer 1
10
19.402790
20
64.404515
11
22.401403
21
66.131363
0
LINE
8
Layer 1
10
22.401403
20
66.131363
11
25.047238
21
67.652189
0
LINE
8
Layer 1
10
25.047238
20
67.652189
11
29.809741
21
70.404210
0
LINE
8
Layer 1
10
29.809741
20
70.404210
11
33.759443
21
72.673984
0
LINE
8
Layer 1
10
33.759443
20
72.673984
11
36.228889
21
74.171879
0
LINE
8
Layer 1
10
36.228889
20
74.171879
11
39.158358
21
75.965050
0
LINE
8
Layer 1
10
39.158358
20
75.965050
11
42.032088
21
77.535970
0
LINE
8
Layer 1
10
42.032088
20
77.535970
11
47.676536
21
80.834797
0
LINE
8
Layer 1
10
47.676536
20
80.834797
11
52.740311
21
83.762502
0
LINE
8
Layer 1
10
52.740311
20
83.762502
11
55.738924
21
85.510164
0
LINE
8
Layer 1
10
55.738924
20
85.510164
11
61.559761
21
88.866847
0
LINE
8
Layer 1
10
61.559761
20
88.866847
11
67.066626
21
92.113463
0
LINE
8
Layer 1
10
67.066626
20
92.113463
11
70.202822
21
93.972956
0
LINE
8
Layer 1
10
70.202822
20
93.972956
11
73.025046
21
95.583034
0
LINE
8
Layer 1
10
73.025046
20
95.583034
11
83.508197
21
101.647288
0
LINE
8
Layer 1
10
83.508197
20
101.647288
11
88.700384
21
104.686824
0
LINE
8
Layer 1
10
88.700384
20
104.686824
11
92.617631
21
106.891686
0
LINE
8
Layer 1
10
92.617631
20
106.891686
11
94.365998
21
107.948609
0
LINE
8
Layer 1
10
94.365998
20
107.948609
11
96.722555
21
109.373126
0
LINE
8
Layer 1
10
96.722555
20
109.373126
11
101.600064
21
112.175948
0
LINE
8
Layer 1
10
101.600064
20
112.175948
11
105.837281
21
114.632341
0
LINE
8
Layer 1
10
105.837281
20
114.632341
11
110.423395
21
112.130087
0
LINE
8
Layer 1
10
244.984918
20
243.755792
11
242.435352
21
243.518478
0
LINE
8
Layer 1
10
242.435352
20
243.518478
11
240.126184
21
243.160953
0
LINE
8
Layer 1
10
240.126184
20
243.160953
11
238.031180
21
242.673104
0
LINE
8
Layer 1
10
238.031180
20
242.673104
11
236.124105
21
242.044818
0
LINE
8
Layer 1
10
236.124105
20
242.044818
11
234.378723
21
241.265985
0
LINE
8
Layer 1
10
234.378723
20
241.265985
11
232.768800
21
240.326492
0
LINE
8
Layer 1
10
232.768800
20
240.326492
11
231.268101
21
239.216226
0
LINE
8
Layer 1
10
231.268101
20
239.216226
11
229.850389
21
237.925077
0
LINE
8
Layer 1
10
229.850389
20
237.925077
11
228.603998
21
236.558010
0
LINE
8
Layer 1
10
228.603998
20
236.558010
11
227.518344
21
235.117040
0
LINE
8
Layer 1
10
227.518344
20
235.117040
11
226.593647
21
233.612452
0
LINE
8
Layer 1
10
226.593647
20
233.612452
11
225.830126
21
232.054531
0
LINE
8
Layer 1
10
225.830126
20
232.054531
11
225.227998
21
230.453562
0
LINE
8
Layer 1
10
225.227998
20
230.453562
11
224.787483
21
228.819828
0
LINE
8
Layer 1
10
224.787483
20
228.819828
11
224.508798
21
227.163616
0
LINE
8
Layer 1
10
224.508798
20
227.163616
11
224.392164
21
225.495209
0
LINE
8
Layer 1
10
224.392164
20
225.495209
11
224.437798
21
223.824891
0
LINE
8
Layer 1
10
224.437798
20
223.824891
11
224.645918
21
222.162949
0
LINE
8
Layer 1
10
224.645918
20
222.162949
11
225.016744
21
220.519666
0
LINE
8
Layer 1
10
225.016744
20
220.519666
11
225.550494
21
218.905327
0
LINE
8
Layer 1
10
225.550494
20
218.905327
11
226.247386
21
217.330216
0
LINE
8
Layer 1
10
226.247386
20
217.330216
11
227.107640
21
215.804619
0
LINE
8
Layer 1
10
227.107640
20
215.804619
11
228.131474
21
214.338820
0
LINE
8
Layer 1
10
228.131474
20
214.338820
11
229.319106
21
212.943103
0
LINE
8
Layer 1
10
229.319106
20
212.943103
11
231.258944
21
211.122548
0
LINE
8
Layer 1
10
231.258944
20
211.122548
11
232.999286
21
209.870054
0
LINE
8
Layer 1
10
232.999286
20
209.870054
11
234.127867
21
209.201583
0
LINE
8
Layer 1
10
234.127867
20
209.201583
11
234.597370
21
208.785261
0
LINE
8
Layer 1
10
234.597370
20
208.785261
11
234.085710
21
208.448138
0
LINE
8
Layer 1
10
234.085710
20
208.448138
11
232.855705
21
207.969991
0
LINE
8
Layer 1
10
232.855705
20
207.969991
11
230.959694
21
207.151728
0
LINE
8
Layer 1
10
230.959694
20
207.151728
11
228.960463
21
205.962552
0
LINE
8
Layer 1
10
228.960463
20
205.962552
11
227.036571
21
204.522088
0
LINE
8
Layer 1
10
227.036571
20
204.522088
11
225.366581
21
202.949960
0
LINE
8
Layer 1
10
225.366581
20
202.949960
11
224.282849
21
201.667184
0
LINE
8
Layer 1
10
224.282849
20
201.667184
11
223.352588
21
200.315624
0
LINE
8
Layer 1
10
223.352588
20
200.315624
11
222.573032
21
198.887583
0
LINE
8
Layer 1
10
222.573032
20
198.887583
11
221.941415
21
197.375362
0
LINE
8
Layer 1
10
221.941415
20
197.375362
11
221.454972
21
195.771266
0
LINE
8
Layer 1
10
221.454972
20
195.771266
11
221.110937
21
194.067595
0
LINE
8
Layer 1
10
221.110937
20
194.067595
11
220.839028
21
190.330739
0
LINE
8
Layer 1
10
220.839028
20
190.330739
11
221.109736
21
186.780909
0
LINE
8
Layer 1
10
221.109736
20
186.780909
11
221.899462
21
183.422496
0
LINE
8
Layer 1
10
221.899462
20
183.422496
11
223.174608
21
180.301862
0
LINE
8
Layer 1
10
223.174608
20
180.301862
11
224.901575
21
177.465366
0
LINE
8
Layer 1
10
224.901575
20
177.465366
11
227.046767
21
174.959367
0
LINE
8
Layer 1
10
227.046767
20
174.959367
11
229.576584
21
172.830227
0
LINE
8
Layer 1
10
229.576584
20
172.830227
11
232.457429
21
171.124304
0
LINE
8
Layer 1
10
232.457429
20
171.124304
11
235.655704
21
169.887959
0
LINE
8
Layer 1
10
235.655704
20
169.887959
11
238.965577
21
169.299779
0
LINE
8
Layer 1
10
238.965577
20
169.299779
11
244.604447
21
168.913410
0
LINE
8
Layer 1
10
244.604447
20
168.913410
11
253.243429
21
168.700607
0
LINE
8
Layer 1
10
253.243429
20
168.700607
11
265.553639
21
168.633128
0
LINE
8
Layer 1
10
265.553639
20
168.633128
11
283.633512
21
168.627836
0
LINE
8
Layer 1
10
283.633512
20
168.627836
11
283.633512
21
206.375082
0
LINE
8
Layer 1
10
283.633512
20
206.375082
11
283.633512
21
244.122328
0
LINE
8
Layer 1
10
283.633512
20
244.122328
11
266.259195
21
244.070470
0
LINE
8
Layer 1
10
266.259195
20
244.070470
11
252.843004
21
243.956655
0
LINE
8
Layer 1
10
252.843004
20
243.956655
11
244.984918
21
243.755792
0
LINE
8
Layer 1
10
268.640447
20
191.499492
11
268.464058
21
181.268930
0
LINE
8
Layer 1
10
268.464058
20
181.268930
11
255.940439
21
181.356066
0
LINE
8
Layer 1
10
255.940439
20
181.356066
11
247.865736
21
181.532196
0
LINE
8
Layer 1
10
247.865736
20
181.532196
11
243.383747
21
181.877957
0
LINE
8
Layer 1
10
243.383747
20
181.877957
11
242.019950
21
182.189825
0
LINE
8
Layer 1
10
242.019950
20
182.189825
11
240.990248
21
182.634550
0
LINE
8
Layer 1
10
240.990248
20
182.634550
11
240.106612
21
183.242284
0
LINE
8
Layer 1
10
240.106612
20
183.242284
11
239.181015
21
184.043176
0
LINE
8
Layer 1
10
239.181015
20
184.043176
11
237.814606
21
185.504984
0
LINE
8
Layer 1
10
237.814606
20
185.504984
11
236.919090
21
187.079933
0
LINE
8
Layer 1
10
236.919090
20
187.079933
11
236.427990
21
188.932233
0
LINE
8
Layer 1
10
236.427990
20
188.932233
11
236.274829
21
191.226089
0
LINE
8
Layer 1
10
236.274829
20
191.226089
11
236.427400
21
193.477011
0
LINE
8
Layer 1
10
236.427400
20
193.477011
11
236.935274
21
195.343097
0
LINE
8
Layer 1
10
236.935274
20
195.343097
11
237.855435
21
196.963516
0
LINE
8
Layer 1
10
237.855435
20
196.963516
11
239.244867
21
198.477441
0
LINE
8
Layer 1
10
239.244867
20
198.477441
11
240.400913
21
199.392524
0
LINE
8
Layer 1
10
240.400913
20
199.392524
11
241.739939
21
200.123387
0
LINE
8
Layer 1
10
241.739939
20
200.123387
11
243.382186
21
200.688117
0
LINE
8
Layer 1
10
243.382186
20
200.688117
11
245.447895
21
201.104799
0
LINE
8
Layer 1
10
245.447895
20
201.104799
11
248.057307
21
201.391522
0
LINE
8
Layer 1
10
248.057307
20
201.391522
11
251.330661
21
201.566371
0
LINE
8
Layer 1
10
251.330661
20
201.566371
11
260.350164
21
201.652796
0
LINE
8
Layer 1
10
260.350164
20
201.652796
11
268.640447
21
201.612579
0
LINE
8
Layer 1
10
268.640447
20
201.612579
11
268.640447
21
191.499492
0
LINE
8
Layer 1
10
268.592469
20
230.138208
11
268.750955
21
226.865972
0
LINE
8
Layer 1
10
268.750955
20
226.865972
11
268.816836
21
221.296886
0
LINE
8
Layer 1
10
268.816836
20
221.296886
11
268.816836
21
214.092101
0
LINE
8
Layer 1
10
268.816836
20
214.092101
11
257.439745
21
214.202167
0
LINE
8
Layer 1
10
257.439745
20
214.202167
11
247.379928
21
214.408851
0
LINE
8
Layer 1
10
247.379928
20
214.408851
11
245.523665
21
214.664279
0
LINE
8
Layer 1
10
245.523665
20
214.664279
11
244.298765
21
215.125388
0
LINE
8
Layer 1
10
244.298765
20
215.125388
11
242.323743
21
216.244725
0
LINE
8
Layer 1
10
242.323743
20
216.244725
11
240.872365
21
217.587734
0
LINE
8
Layer 1
10
240.872365
20
217.587734
11
239.854308
21
219.264846
0
LINE
8
Layer 1
10
239.854308
20
219.264846
11
239.179251
21
221.386491
0
LINE
8
Layer 1
10
239.179251
20
221.386491
11
238.994606
21
222.744245
0
LINE
8
Layer 1
10
238.994606
20
222.744245
11
239.036453
21
224.096637
0
LINE
8
Layer 1
10
239.036453
20
224.096637
11
239.290810
21
225.412871
0
LINE
8
Layer 1
10
239.290810
20
225.412871
11
239.743695
21
226.662154
0
LINE
8
Layer 1
10
239.743695
20
226.662154
11
240.381128
21
227.813690
0
LINE
8
Layer 1
10
240.381128
20
227.813690
11
241.189126
21
228.836683
0
LINE
8
Layer 1
10
241.189126
20
228.836683
11
242.153708
21
229.700340
0
LINE
8
Layer 1
10
242.153708
20
229.700340
11
243.260892
21
230.373864
0
LINE
8
Layer 1
10
243.260892
20
230.373864
11
245.145101
21
231.010253
0
LINE
8
Layer 1
10
245.145101
20
231.010253
11
248.056821
21
231.409973
0
LINE
8
Layer 1
10
248.056821
20
231.409973
11
252.676559
21
231.628982
0
LINE
8
Layer 1
10
252.676559
20
231.628982
11
259.684825
21
231.723240
0
LINE
8
Layer 1
10
259.684825
20
231.723240
11
268.368102
21
231.775098
0
LINE
8
Layer 1
10
268.368102
20
231.775098
11
268.592469
21
230.138208
0
LINE
8
Layer 1
10
139.200554
20
241.564688
11
153.358947
21
226.873600
0
LINE
8
Layer 1
10
153.358947
20
226.873600
11
161.630709
21
218.129469
0
LINE
8
Layer 1
10
161.630709
20
218.129469
11
164.038661
21
215.437839
0
LINE
8
Layer 1
10
164.038661
20
215.437839
11
164.851043
21
214.349981
0
LINE
8
Layer 1
10
164.851043
20
214.349981
11
150.044950
21
191.462803
0
LINE
8
Layer 1
10
150.044950
20
191.462803
11
135.466752
21
168.796817
0
LINE
8
Layer 1
10
135.466752
20
168.796817
11
145.079952
21
168.627836
0
LINE
8
Layer 1
10
145.079952
20
168.627836
11
154.693153
21
168.628189
0
LINE
8
Layer 1
10
154.693153
20
168.628189
11
164.642551
21
185.649375
0
LINE
8
Layer 1
10
164.642551
20
185.649375
11
175.097127
21
203.359536
0
LINE
8
Layer 1
10
175.097127
20
203.359536
11
175.281914
21
203.549072
0
LINE
8
Layer 1
10
175.281914
20
203.549072
11
175.522445
21
203.593058
0
LINE
8
Layer 1
10
175.522445
20
203.593058
11
176.432480
21
203.024000
0
LINE
8
Layer 1
10
176.432480
20
203.024000
11
181.800615
21
197.715088
0
LINE
8
Layer 1
10
181.800615
20
197.715088
11
187.999630
21
191.382017
0
LINE
8
Layer 1
10
187.999630
20
191.382017
11
188.015152
21
180.004927
0
LINE
8
Layer 1
10
188.015152
20
180.004927
11
188.030674
21
168.627836
0
LINE
8
Layer 1
10
188.030674
20
168.627836
11
195.439012
21
168.627836
0
LINE
8
Layer 1
10
195.439012
20
168.627836
11
202.847350
21
168.627836
0
LINE
8
Layer 1
10
202.847350
20
168.627836
11
202.847350
21
206.375082
0
LINE
8
Layer 1
10
202.847350
20
206.375082
11
202.847350
21
244.122328
0
LINE
8
Layer 1
10
202.847350
20
244.122328
11
195.439012
21
244.122328
0
LINE
8
Layer 1
10
195.439012
20
244.122328
11
188.030674
21
244.122328
0
LINE
8
Layer 1
10
188.030674
20
244.122328
11
188.030674
21
227.365373
0
LINE
8
Layer 1
10
188.030674
20
227.365373
11
187.953019
21
215.538182
0
LINE
8
Layer 1
10
187.953019
20
215.538182
11
187.766090
21
210.633818
0
LINE
8
Layer 1
10
187.766090
20
210.633818
11
172.178242
21
227.390773
0
LINE
8
Layer 1
10
172.178242
20
227.390773
11
156.854977
21
244.122328
0
LINE
8
Layer 1
10
156.854977
20
244.122328
11
146.808565
21
244.122328
0
LINE
8
Layer 1
10
146.808565
20
244.122328
11
136.762153
21
244.122328
0
LINE
8
Layer 1
10
136.762153
20
244.122328
11
139.200554
21
241.564688
0
LINE
8
Layer 1
10
135.819530
20
139.523651
11
135.819530
21
124.883364
0
LINE
8
Layer 1
10
135.819530
20
124.883364
11
138.465365
21
124.883364
0
LINE
8
Layer 1
10
138.465365
20
124.883364
11
141.111200
21
124.883364
0
LINE
8
Layer 1
10
141.111200
20
124.883364
11
141.135189
21
136.260455
0
LINE
8
Layer 1
10
141.135189
20
136.260455
11
141.237803
21
144.496983
0
LINE
8
Layer 1
10
141.237803
20
144.496983
11
141.345086
21
146.479347
0
LINE
8
Layer 1
10
141.345086
20
146.479347
11
141.411579
21
146.901842
0
LINE
8
Layer 1
10
141.411579
20
146.901842
11
141.486203
21
146.931989
0
LINE
8
Layer 1
10
141.486203
20
146.931989
11
144.394417
21
135.926109
0
LINE
8
Layer 1
10
144.394417
20
135.926109
11
147.108426
21
125.000134
0
LINE
8
Layer 1
10
147.108426
20
125.000134
11
149.905603
21
124.883364
0
LINE
8
Layer 1
10
149.905603
20
124.883364
11
152.702780
21
124.883364
0
LINE
8
Layer 1
10
152.702780
20
124.883364
11
153.239355
21
126.735449
0
LINE
8
Layer 1
10
153.239355
20
126.735449
11
155.917645
21
137.406983
0
LINE
8
Layer 1
10
155.917645
20
137.406983
11
158.380741
21
146.931989
0
LINE
8
Layer 1
10
158.380741
20
146.931989
11
158.453011
21
146.894101
0
LINE
8
Layer 1
10
158.453011
20
146.894101
11
158.517900
21
146.457370
0
LINE
8
Layer 1
10
158.517900
20
146.457370
11
158.623673
21
144.444463
0
LINE
8
Layer 1
10
158.623673
20
144.444463
11
158.726111
21
136.260455
0
LINE
8
Layer 1
10
158.726111
20
136.260455
11
158.750100
21
124.883364
0
LINE
8
Layer 1
10
158.750100
20
124.883364
11
161.395935
21
124.883364
0
LINE
8
Layer 1
10
161.395935
20
124.883364
11
164.041770
21
124.883364
0
LINE
8
Layer 1
10
164.041770
20
124.883364
11
164.041770
21
139.523651
0
LINE
8
Layer 1
10
164.041770
20
139.523651
11
164.041770
21
154.163938
0
LINE
8
Layer 1
10
164.041770
20
154.163938
11
159.689195
21
154.163938
0
LINE
8
Layer 1
10
159.689195
20
154.163938
11
155.336620
21
154.163938
0
LINE
8
Layer 1
10
155.336620
20
154.163938
11
152.721830
21
144.128109
0
LINE
8
Layer 1
10
152.721830
20
144.128109
11
150.808714
21
137.112546
0
LINE
8
Layer 1
10
150.808714
20
137.112546
11
149.880908
21
134.338520
0
LINE
8
Layer 1
10
149.880908
20
134.338520
11
148.726354
21
138.296910
0
LINE
8
Layer 1
10
148.726354
20
138.296910
11
144.951894
21
152.841021
0
LINE
8
Layer 1
10
144.951894
20
152.841021
11
144.611816
21
154.163938
0
LINE
8
Layer 1
10
144.611816
20
154.163938
11
140.215497
21
154.163938
0
LINE
8
Layer 1
10
140.215497
20
154.163938
11
135.819530
21
154.163938
0
LINE
8
Layer 1
10
135.819530
20
154.163938
11
135.819530
21
139.523651
0
LINE
8
Layer 1
10
242.125653
20
153.827388
11
239.837887
21
153.436245
0
LINE
8
Layer 1
10
239.837887
20
153.436245
11
238.159722
21
152.641348
0
LINE
8
Layer 1
10
238.159722
20
152.641348
11
236.836584
21
151.536618
0
LINE
8
Layer 1
10
236.836584
20
151.536618
11
235.786491
21
150.186184
0
LINE
8
Layer 1
10
235.786491
20
150.186184
11
235.019627
21
148.644449
0
LINE
8
Layer 1
10
235.019627
20
148.644449
11
234.546173
21
146.965812
0
LINE
8
Layer 1
10
234.546173
20
146.965812
11
234.376313
21
145.204674
0
LINE
8
Layer 1
10
234.376313
20
145.204674
11
234.520227
21
143.415437
0
LINE
8
Layer 1
10
234.520227
20
143.415437
11
234.988100
21
141.652502
0
LINE
8
Layer 1
10
234.988100
20
141.652502
11
235.790112
21
139.970268
0
LINE
8
Layer 1
10
235.790112
20
139.970268
11
236.418779
21
139.027072
0
LINE
8
Layer 1
10
236.418779
20
139.027072
11
237.077708
21
138.298982
0
LINE
8
Layer 1
10
237.077708
20
138.298982
11
237.870979
21
137.690220
0
LINE
8
Layer 1
10
237.870979
20
137.690220
11
238.902673
21
137.105005
0
LINE
8
Layer 1
10
238.902673
20
137.105005
11
240.132314
21
136.537677
0
LINE
8
Layer 1
10
240.132314
20
136.537677
11
241.362946
21
136.206524
0
LINE
8
Layer 1
10
241.362946
20
136.206524
11
245.870038
21
135.898857
0
LINE
8
Layer 1
10
245.870038
20
135.898857
11
250.825158
21
135.720704
0
LINE
8
Layer 1
10
250.825158
20
135.720704
11
250.825158
21
130.302034
0
LINE
8
Layer 1
10
250.825158
20
130.302034
11
250.825158
21
124.883364
0
LINE
8
Layer 1
10
250.825158
20
124.883364
11
253.873865
21
124.883364
0
LINE
8
Layer 1
10
253.873865
20
124.883364
11
256.922926
21
124.883364
0
LINE
8
Layer 1
10
256.922926
20
124.883364
11
256.696089
21
127.051890
0
LINE
8
Layer 1
10
256.696089
20
127.051890
11
256.536149
21
132.246767
0
LINE
8
Layer 1
10
256.536149
20
132.246767
11
256.469606
21
141.692177
0
LINE
8
Layer 1
10
256.469606
20
141.692177
11
256.469606
21
154.163938
0
LINE
8
Layer 1
10
256.469606
20
154.163938
11
250.560574
21
154.112080
0
LINE
8
Layer 1
10
250.560574
20
154.112080
11
242.125653
21
153.827388
0
LINE
8
Layer 1
10
250.825158
20
144.961371
11
250.825158
21
140.697696
0
LINE
8
Layer 1
10
250.825158
20
140.697696
11
246.774208
21
140.816230
0
LINE
8
Layer 1
10
246.774208
20
140.816230
11
244.417817
21
140.903024
0
LINE
8
Layer 1
10
244.417817
20
140.903024
11
243.087943
21
141.065026
0
LINE
8
Layer 1
10
243.087943
20
141.065026
11
242.300333
21
141.420571
0
LINE
8
Layer 1
10
242.300333
20
141.420571
11
241.570733
21
142.087994
0
LINE
8
Layer 1
10
241.570733
20
142.087994
11
240.974527
21
142.746410
0
LINE
8
Layer 1
10
240.974527
20
142.746410
11
240.624582
21
143.342914
0
LINE
8
Layer 1
10
240.624582
20
143.342914
11
240.459581
21
144.030302
0
LINE
8
Layer 1
10
240.459581
20
144.030302
11
240.418207
21
144.961371
0
LINE
8
Layer 1
10
240.418207
20
144.961371
11
240.504466
21
146.047107
0
LINE
8
Layer 1
10
240.504466
20
146.047107
11
240.776161
21
146.950785
0
LINE
8
Layer 1
10
240.776161
20
146.950785
11
241.252668
21
147.684221
0
LINE
8
Layer 1
10
241.252668
20
147.684221
11
241.953365
21
148.259228
0
LINE
8
Layer 1
10
241.953365
20
148.259228
11
242.897627
21
148.687623
0
LINE
8
Layer 1
10
242.897627
20
148.687623
11
244.104831
21
148.981221
0
LINE
8
Layer 1
10
244.104831
20
148.981221
11
247.385572
21
149.211288
0
LINE
8
Layer 1
10
247.385572
20
149.211288
11
250.825158
21
149.225046
0
LINE
8
Layer 1
10
250.825158
20
149.225046
11
250.825158
21
144.961371
0
LINE
8
Layer 1
10
200.025126
20
139.523651
11
200.025126
21
124.883364
0
LINE
8
Layer 1
10
200.025126
20
124.883364
11
202.847350
21
124.883364
0
LINE
8
Layer 1
10
202.847350
20
124.883364
11
205.669574
21
124.883364
0
LINE
8
Layer 1
10
205.669574
20
124.883364
11
205.669574
21
131.233368
0
LINE
8
Layer 1
10
205.669574
20
131.233368
11
205.669574
21
137.583372
0
LINE
8
Layer 1
10
205.669574
20
137.583372
11
211.458661
21
137.583372
0
LINE
8
Layer 1
10
211.458661
20
137.583372
11
217.247748
21
137.583372
0
LINE
8
Layer 1
10
217.247748
20
137.583372
11
217.497868
21
134.583348
0
LINE
8
Layer 1
10
217.497868
20
134.583348
11
217.600482
21
131.480577
0
LINE
8
Layer 1
10
217.600482
20
131.480577
11
217.496456
21
128.233344
0
LINE
8
Layer 1
10
217.496456
20
128.233344
11
217.245279
21
124.883364
0
LINE
8
Layer 1
10
217.245279
20
124.883364
11
220.277053
21
124.883364
0
LINE
8
Layer 1
10
220.277053
20
124.883364
11
223.308474
21
124.883364
0
LINE
8
Layer 1
10
223.308474
20
124.883364
11
223.308474
21
139.537762
0
LINE
8
Layer 1
10
223.308474
20
139.537762
11
223.308474
21
154.192513
0
LINE
8
Layer 1
10
223.308474
20
154.192513
11
220.398055
21
154.089855
0
LINE
8
Layer 1
10
220.398055
20
154.089855
11
217.487637
21
153.987549
0
LINE
8
Layer 1
10
217.487637
20
153.987549
11
217.618518
21
149.019729
0
LINE
8
Layer 1
10
217.618518
20
149.019729
11
217.639420
21
145.286368
0
LINE
8
Layer 1
10
217.639420
20
145.286368
11
217.506334
21
143.287087
0
LINE
8
Layer 1
10
217.506334
20
143.287087
11
217.255696
21
142.853853
0
LINE
8
Layer 1
10
217.255696
20
142.853853
11
216.511677
21
142.625804
0
LINE
8
Layer 1
10
216.511677
20
142.625804
11
211.466775
21
142.522264
0
LINE
8
Layer 1
10
211.466775
20
142.522264
11
205.669574
21
142.522264
0
LINE
8
Layer 1
10
205.669574
20
142.522264
11
205.669574
21
148.343101
0
LINE
8
Layer 1
10
205.669574
20
148.343101
11
205.669574
21
154.163938
0
LINE
8
Layer 1
10
205.669574
20
154.163938
11
202.847350
21
154.163938
0
LINE
8
Layer 1
10
202.847350
20
154.163938
11
200.025126
21
154.163938
0
LINE
8
Layer 1
10
200.025126
20
154.163938
11
200.025126
21
139.523651
0
LINE
8
Layer 1
10
176.918167
20
154.023180
11
175.394679
21
153.465338
0
LINE
8
Layer 1
10
175.394679
20
153.465338
11
174.144670
21
152.818002
0
LINE
8
Layer 1
10
174.144670
20
152.818002
11
173.052156
21
152.009137
0
LINE
8
Layer 1
10
173.052156
20
152.009137
11
172.001147
21
150.966711
0
LINE
8
Layer 1
10
172.001147
20
150.966711
11
171.043410
21
149.706230
0
LINE
8
Layer 1
10
171.043410
20
149.706230
11
170.132835
21
148.209442
0
LINE
8
Layer 1
10
170.132835
20
148.209442
11
169.505100
21
146.905338
0
LINE
8
Layer 1
10
169.505100
20
146.905338
11
169.395882
21
146.222905
0
LINE
8
Layer 1
10
169.395882
20
146.222905
11
172.159192
21
145.431624
0
LINE
8
Layer 1
10
172.159192
20
145.431624
11
174.801499
21
144.761346
0
LINE
8
Layer 1
10
174.801499
20
144.761346
11
175.683444
21
146.366486
0
LINE
8
Layer 1
10
175.683444
20
146.366486
11
176.755773
21
147.871277
0
LINE
8
Layer 1
10
176.755773
20
147.871277
11
178.075588
21
148.868961
0
LINE
8
Layer 1
10
178.075588
20
148.868961
11
179.715746
21
149.397075
0
LINE
8
Layer 1
10
179.715746
20
149.397075
11
181.749109
21
149.493157
0
LINE
8
Layer 1
10
181.749109
20
149.493157
11
183.925044
21
149.207054
0
LINE
8
Layer 1
10
183.925044
20
149.207054
11
184.675667
21
148.866690
0
LINE
8
Layer 1
10
184.675667
20
148.866690
11
185.453278
21
148.314526
0
LINE
8
Layer 1
10
185.453278
20
148.314526
11
186.787027
21
146.973126
0
LINE
8
Layer 1
10
186.787027
20
146.973126
11
187.740470
21
145.332449
0
LINE
8
Layer 1
10
187.740470
20
145.332449
11
188.348036
21
143.311765
0
LINE
8
Layer 1
10
188.348036
20
143.311765
11
188.644155
21
140.830341
0
LINE
8
Layer 1
10
188.644155
20
140.830341
11
188.688304
21
138.748193
0
LINE
8
Layer 1
10
188.688304
20
138.748193
11
188.576262
21
136.881564
0
LINE
8
Layer 1
10
188.576262
20
136.881564
11
188.306023
21
135.225148
0
LINE
8
Layer 1
10
188.306023
20
135.225148
11
187.875584
21
133.773634
0
LINE
8
Layer 1
10
187.875584
20
133.773634
11
187.282938
21
132.521716
0
LINE
8
Layer 1
10
187.282938
20
132.521716
11
186.526081
21
131.464085
0
LINE
8
Layer 1
10
186.526081
20
131.464085
11
185.603008
21
130.595432
0
LINE
8
Layer 1
10
185.603008
20
130.595432
11
184.511713
21
129.910451
0
LINE
8
Layer 1
10
184.511713
20
129.910451
11
183.053394
21
129.369228
0
LINE
8
Layer 1
10
183.053394
20
129.369228
11
181.576347
21
129.179274
0
LINE
8
Layer 1
10
181.576347
20
129.179274
11
180.130868
21
129.317866
0
LINE
8
Layer 1
10
180.130868
20
129.317866
11
178.767253
21
129.762284
0
LINE
8
Layer 1
10
178.767253
20
129.762284
11
177.535797
21
130.489806
0
LINE
8
Layer 1
10
177.535797
20
130.489806
11
176.486797
21
131.477711
0
LINE
8
Layer 1
10
176.486797
20
131.477711
11
175.670547
21
132.703278
0
LINE
8
Layer 1
10
175.670547
20
132.703278
11
175.137344
21
134.143787
0
LINE
8
Layer 1
10
175.137344
20
134.143787
11
174.837350
21
134.828881
0
LINE
8
Layer 1
10
174.837350
20
134.828881
11
174.447663
21
135.113926
0
LINE
8
Layer 1
10
174.447663
20
135.113926
11
173.260719
21
134.882355
0
LINE
8
Layer 1
10
173.260719
20
134.882355
11
171.545799
21
134.349059
0
LINE
8
Layer 1
10
171.545799
20
134.349059
11
170.003255
21
133.756166
0
LINE
8
Layer 1
10
170.003255
20
133.756166
11
169.333440
21
133.345803
0
LINE
8
Layer 1
10
169.333440
20
133.345803
11
169.636300
21
132.288141
0
LINE
8
Layer 1
10
169.636300
20
132.288141
11
170.387364
21
130.715666
0
LINE
8
Layer 1
10
170.387364
20
130.715666
11
171.350360
21
129.071754
0
LINE
8
Layer 1
10
171.350360
20
129.071754
11
172.289014
21
127.799780
0
LINE
8
Layer 1
10
172.289014
20
127.799780
11
173.827788
21
126.506363
0
LINE
8
Layer 1
10
173.827788
20
126.506363
11
175.767405
21
125.379370
0
LINE
8
Layer 1
10
175.767405
20
125.379370
11
177.042483
21
124.843296
0
LINE
8
Layer 1
10
177.042483
20
124.843296
11
178.169691
21
124.537509
0
LINE
8
Layer 1
10
178.169691
20
124.537509
11
179.485878
21
124.401122
0
LINE
8
Layer 1
10
179.485878
20
124.401122
11
181.327892
21
124.373247
0
LINE
8
Layer 1
10
181.327892
20
124.373247
11
184.436395
21
124.546814
0
LINE
8
Layer 1
10
184.436395
20
124.546814
11
185.526237
21
124.828959
0
LINE
8
Layer 1
10
185.526237
20
124.828959
11
186.681298
21
125.306698
0
LINE
8
Layer 1
10
186.681298
20
125.306698
11
188.741764
21
126.487402
0
LINE
8
Layer 1
10
188.741764
20
126.487402
11
190.515549
21
127.980319
0
LINE
8
Layer 1
10
190.515549
20
127.980319
11
191.990478
21
129.759260
0
LINE
8
Layer 1
10
191.990478
20
129.759260
11
193.154378
21
131.798033
0
LINE
8
Layer 1
10
193.154378
20
131.798033
11
193.995072
21
134.070451
0
LINE
8
Layer 1
10
193.995072
20
134.070451
11
194.500385
21
136.550322
0
LINE
8
Layer 1
10
194.500385
20
136.550322
11
194.658144
21
139.211458
0
LINE
8
Layer 1
10
194.658144
20
139.211458
11
194.456172
21
142.027669
0
LINE
8
Layer 1
10
194.456172
20
142.027669
11
194.032181
21
144.268118
0
LINE
8
Layer 1
10
194.032181
20
144.268118
11
193.389532
21
146.306359
0
LINE
8
Layer 1
10
193.389532
20
146.306359
11
192.532810
21
148.136472
0
LINE
8
Layer 1
10
192.532810
20
148.136472
11
191.466599
21
149.752537
0
LINE
8
Layer 1
10
191.466599
20
149.752537
11
190.195486
21
151.148634
0
LINE
8
Layer 1
10
190.195486
20
151.148634
11
188.724054
21
152.318843
0
LINE
8
Layer 1
10
188.724054
20
152.318843
11
187.056888
21
153.257243
0
LINE
8
Layer 1
10
187.056888
20
153.257243
11
185.198572
21
153.957916
0
LINE
8
Layer 1
10
185.198572
20
153.957916
11
183.245003
21
154.335124
0
LINE
8
Layer 1
10
183.245003
20
154.335124
11
180.968014
21
154.473677
0
LINE
8
Layer 1
10
180.968014
20
154.473677
11
178.736203
21
154.370666
0
LINE
8
Layer 1
10
178.736203
20
154.370666
11
176.918167
21
154.023180
0
LINE
8
Layer 1
10
260.702942
20
151.705428
11
260.702942
21
149.246918
0
LINE
8
Layer 1
10
260.702942
20
149.246918
11
265.024473
21
149.147788
0
LINE
8
Layer 1
10
265.024473
20
149.147788
11
269.346003
21
149.048657
0
LINE
8
Layer 1
10
269.346003
20
149.048657
11
269.438784
21
136.966011
0
LINE
8
Layer 1
10
269.438784
20
136.966011
11
269.531564
21
124.883364
0
LINE
8
Layer 1
10
269.531564
20
124.883364
11
272.349202
21
124.883364
0
LINE
8
Layer 1
10
272.349202
20
124.883364
11
275.166840
21
124.883364
0
LINE
8
Layer 1
10
275.166840
20
124.883364
11
275.166840
21
137.054205
0
LINE
8
Layer 1
10
275.166840
20
137.054205
11
275.166840
21
149.225046
0
LINE
8
Layer 1
10
275.166840
20
149.225046
11
279.400176
21
149.225046
0
LINE
8
Layer 1
10
279.400176
20
149.225046
11
283.633512
21
149.225046
0
LINE
8
Layer 1
10
283.633512
20
149.225046
11
283.633512
21
151.694492
0
LINE
8
Layer 1
10
283.633512
20
151.694492
11
283.633512
21
154.163938
0
LINE
8
Layer 1
10
283.633512
20
154.163938
11
272.168227
21
154.163938
0
LINE
8
Layer 1
10
272.168227
20
154.163938
11
260.702942
21
154.163938
0
LINE
8
Layer 1
10
260.702942
20
154.163938
11
260.702942
21
151.705428
0
LINE
8
Layer 1
10
229.305700
20
127.529199
11
229.305700
21
124.883364
0
LINE
8
Layer 1
10
229.305700
20
124.883364
11
231.951535
21
124.883364
0
LINE
8
Layer 1
10
231.951535
20
124.883364
11
234.597370
21
124.883364
0
LINE
8
Layer 1
10
234.597370
20
124.883364
11
234.597370
21
127.529199
0
LINE
8
Layer 1
10
234.597370
20
127.529199
11
234.597370
21
130.175034
0
LINE
8
Layer 1
10
234.597370
20
130.175034
11
231.951535
21
130.175034
0
LINE
8
Layer 1
10
231.951535
20
130.175034
11
229.305700
21
130.175034
0
LINE
8
Layer 1
10
229.305700
20
130.175034
11
229.305700
21
127.529199
 0 
ENDSEC
 0 
EOF