999
"DXF R12 Output" (www.mydxf.blogspot.com)
 0 
SECTION
 2 
HEADER
 9 
$ACADVER
 1 
AC1009
 9 
$EXTMIN
 10 
 0 
 20 
 0 
 9 
$EXTMAX
 10 
 8.5 
 20 
 11 
 0 
ENDSEC
 0 
SECTION
 2 
ENTITIES
0
LINE
8
Layer 1
10
192.969566
20
417.296109
11
140.405644
21
386.911693
0
LINE
8
Layer 1
10
140.405644
20
386.911693
11
116.535670
21
373.070360
0
LINE
8
Layer 1
10
116.535670
20
373.070360
11
106.456053
21
367.091919
0
LINE
8
Layer 1
10
106.456053
20
367.091919
11
106.271506
21
348.924955
0
LINE
8
Layer 1
10
106.271506
20
348.924955
11
106.191470
21
305.779456
0
LINE
8
Layer 1
10
106.191470
20
305.779456
11
106.186178
21
244.845876
0
LINE
8
Layer 1
10
106.186178
20
244.845876
11
105.039649
21
244.263792
0
LINE
8
Layer 1
10
105.039649
20
244.263792
11
98.601451
21
240.595959
0
LINE
8
Layer 1
10
98.601451
20
240.595959
11
3.438527
21
185.632088
0
LINE
8
Layer 1
10
3.438527
20
185.632088
11
0.703439
21
184.073868
0
LINE
8
Layer 1
10
0.703439
20
184.073868
11
0.792692
21
123.174860
0
LINE
8
Layer 1
10
0.792692
20
123.174860
11
0.881945
21
62.276205
0
LINE
8
Layer 1
10
0.881945
20
62.276205
11
53.219384
21
31.699525
0
LINE
8
Layer 1
10
53.219384
20
31.699525
11
105.917008
21
0.763011
0
LINE
8
Layer 1
10
105.917008
20
0.763011
11
106.153981
21
0.653247
0
LINE
8
Layer 1
10
106.153981
20
0.653247
11
106.501782
21
0.692411
0
LINE
8
Layer 1
10
106.501782
20
0.692411
11
107.554604
21
1.224797
0
LINE
8
Layer 1
10
107.554604
20
1.224797
11
159.102878
21
31.062408
0
LINE
8
Layer 1
10
159.102878
20
31.062408
11
210.748519
21
60.944115
0
LINE
8
Layer 1
10
210.748519
20
60.944115
11
212.123648
21
61.810538
0
LINE
8
Layer 1
10
212.123648
20
61.810538
11
211.101297
21
62.421197
0
LINE
8
Layer 1
10
211.101297
20
62.421197
11
201.789016
21
67.800709
0
LINE
8
Layer 1
10
201.789016
20
67.800709
11
117.827852
21
116.271347
0
LINE
8
Layer 1
10
117.827852
20
116.271347
11
106.715345
21
122.715543
0
LINE
8
Layer 1
10
106.715345
20
122.715543
11
106.630678
21
184.036121
0
LINE
8
Layer 1
10
106.630678
20
184.036121
11
106.545659
21
245.357051
0
LINE
8
Layer 1
10
106.545659
20
245.357051
11
108.591771
21
246.479943
0
LINE
8
Layer 1
10
108.591771
20
246.479943
11
161.392760
21
276.905635
0
LINE
8
Layer 1
10
161.392760
20
276.905635
11
190.588992
21
293.743128
0
LINE
8
Layer 1
10
190.588992
20
293.743128
11
205.773511
21
302.388157
0
LINE
8
Layer 1
10
205.773511
20
302.388157
11
211.678094
21
305.472368
0
LINE
8
Layer 1
10
211.678094
20
305.472368
11
212.629091
21
305.751557
0
LINE
8
Layer 1
10
212.629091
20
305.751557
11
213.034520
21
305.627408
0
LINE
8
Layer 1
10
213.034520
20
305.627408
11
244.455751
21
287.410305
0
LINE
8
Layer 1
10
244.455751
20
287.410305
11
296.275312
21
257.477445
0
LINE
8
Layer 1
10
296.275312
20
257.477445
11
317.707633
21
245.180662
0
LINE
8
Layer 1
10
317.707633
20
245.180662
11
317.765842
21
306.279695
0
LINE
8
Layer 1
10
317.765842
20
306.279695
11
317.676589
21
367.378728
0
LINE
8
Layer 1
10
317.676589
20
367.378728
11
293.511296
21
381.342387
0
LINE
8
Layer 1
10
293.511296
20
381.342387
11
240.976302
21
411.701403
0
LINE
8
Layer 1
10
240.976302
20
411.701403
11
212.224895
21
428.167669
0
LINE
8
Layer 1
10
212.224895
20
428.167669
11
206.411202
21
425.003735
0
LINE
8
Layer 1
10
206.411202
20
425.003735
11
192.969566
21
417.296109
0
LINE
8
Layer 1
10
98.504790
20
229.722283
11
98.563704
21
213.783420
0
LINE
8
Layer 1
10
98.563704
20
213.783420
11
98.061833
21
139.012873
0
LINE
8
Layer 1
10
98.061833
20
139.012873
11
97.868726
21
128.287810
0
LINE
8
Layer 1
10
97.868726
20
128.287810
11
97.753653
21
126.545489
0
LINE
8
Layer 1
10
97.753653
20
126.545489
11
97.613673
21
126.056704
0
LINE
8
Layer 1
10
97.613673
20
126.056704
11
91.722280
21
122.573374
0
LINE
8
Layer 1
10
91.722280
20
122.573374
11
82.373663
21
117.299695
0
LINE
8
Layer 1
10
82.373663
20
117.299695
11
74.884539
21
113.064243
0
LINE
8
Layer 1
10
74.884539
20
113.064243
11
72.391016
21
111.541300
0
LINE
8
Layer 1
10
72.391016
20
111.541300
11
71.463298
21
110.730616
0
LINE
8
Layer 1
10
71.463298
20
110.730616
11
71.458579
21
110.569176
0
LINE
8
Layer 1
10
71.458579
20
110.569176
11
71.184250
21
110.606438
0
LINE
8
Layer 1
10
71.184250
20
110.606438
11
69.302400
21
109.839455
0
LINE
8
Layer 1
10
69.302400
20
109.839455
11
65.433263
21
107.743998
0
LINE
8
Layer 1
10
65.433263
20
107.743998
11
58.384759
21
103.738203
0
LINE
8
Layer 1
10
58.384759
20
103.738203
11
52.387533
21
100.379757
0
LINE
8
Layer 1
10
52.387533
20
100.379757
11
40.745859
21
93.838547
0
LINE
8
Layer 1
10
40.745859
20
93.838547
11
29.280574
21
87.409168
0
LINE
8
Layer 1
10
29.280574
20
87.409168
11
17.815289
21
80.979436
0
LINE
8
Layer 1
10
17.815289
20
80.979436
11
9.259364
21
76.133678
0
LINE
8
Layer 1
10
9.259364
20
76.133678
11
8.111425
21
75.435530
0
LINE
8
Layer 1
10
8.111425
20
75.435530
11
8.201030
21
127.878096
0
LINE
8
Layer 1
10
8.201030
20
127.878096
11
8.290283
21
180.320663
0
LINE
8
Layer 1
10
8.290283
20
180.320663
11
19.226401
21
186.583883
0
LINE
8
Layer 1
10
19.226401
20
186.583883
11
63.500040
21
211.859016
0
LINE
8
Layer 1
10
63.500040
20
211.859016
11
72.848657
21
217.139397
0
LINE
8
Layer 1
10
72.848657
20
217.139397
11
81.138940
21
221.816881
0
LINE
8
Layer 1
10
81.138940
20
221.816881
11
83.079219
21
222.955648
0
LINE
8
Layer 1
10
83.079219
20
222.955648
11
85.195887
21
224.182257
0
LINE
8
Layer 1
10
85.195887
20
224.182257
11
91.013902
21
227.475440
0
LINE
8
Layer 1
10
91.013902
20
227.475440
11
94.511927
21
229.391983
0
LINE
8
Layer 1
10
94.511927
20
229.391983
11
96.738166
21
230.348817
0
LINE
8
Layer 1
10
96.738166
20
230.348817
11
97.462608
21
230.493821
0
LINE
8
Layer 1
10
97.462608
20
230.493821
11
97.974994
21
230.430672
0
LINE
8
Layer 1
10
97.974994
20
230.430672
11
98.310623
21
230.169962
0
LINE
8
Layer 1
10
98.310623
20
230.169962
11
98.504790
21
229.722283
0
LINE
8
Layer 1
10
224.126919
20
412.461287
11
229.658478
21
409.219610
0
LINE
8
Layer 1
10
229.658478
20
409.219610
11
235.474729
21
405.804366
0
LINE
8
Layer 1
10
235.474729
20
405.804366
11
237.509200
21
404.636318
0
LINE
8
Layer 1
10
237.509200
20
404.636318
11
240.336010
21
403.115139
0
LINE
8
Layer 1
10
240.336010
20
403.115139
11
245.533488
21
400.069607
0
LINE
8
Layer 1
10
245.533488
20
400.069607
11
250.825158
21
396.953871
0
LINE
8
Layer 1
10
250.825158
20
396.953871
11
254.529327
21
394.834734
0
LINE
8
Layer 1
10
254.529327
20
394.834734
11
262.488351
21
390.157956
0
LINE
8
Layer 1
10
262.488351
20
390.157956
11
265.486964
21
388.485788
0
LINE
8
Layer 1
10
265.486964
20
388.485788
11
269.514278
21
386.154279
0
LINE
8
Layer 1
10
269.514278
20
386.154279
11
271.709616
21
384.880750
0
LINE
8
Layer 1
10
271.709616
20
384.880750
11
274.539953
21
383.341932
0
LINE
8
Layer 1
10
274.539953
20
383.341932
11
279.752954
21
380.294989
0
LINE
8
Layer 1
10
279.752954
20
380.294989
11
284.162679
21
377.715829
0
LINE
8
Layer 1
10
284.162679
20
377.715829
11
288.572404
21
375.174063
0
LINE
8
Layer 1
10
288.572404
20
375.174063
11
296.943826
21
370.305021
0
LINE
8
Layer 1
10
296.943826
20
370.305021
11
298.663971
21
369.358518
0
LINE
8
Layer 1
10
298.663971
20
369.358518
11
301.757835
21
367.640136
0
LINE
8
Layer 1
10
301.757835
20
367.640136
11
307.622416
21
364.153631
0
LINE
8
Layer 1
10
307.622416
20
364.153631
11
310.621029
21
362.385508
0
LINE
8
Layer 1
10
310.621029
20
362.385508
11
310.710282
21
310.662256
0
LINE
8
Layer 1
10
310.710282
20
310.662256
11
310.687660
21
272.532422
0
LINE
8
Layer 1
10
310.687660
20
272.532422
11
310.599206
21
262.420184
0
LINE
8
Layer 1
10
310.599206
20
262.420184
11
310.462632
21
258.939004
0
LINE
8
Layer 1
10
310.462632
20
258.939004
11
307.646625
21
260.257115
0
LINE
8
Layer 1
10
307.646625
20
260.257115
11
303.212691
21
262.729604
0
LINE
8
Layer 1
10
303.212691
20
262.729604
11
295.693933
21
267.054309
0
LINE
8
Layer 1
10
295.693933
20
267.054309
11
293.158518
21
268.513752
0
LINE
8
Layer 1
10
293.158518
20
268.513752
11
289.101571
21
270.767298
0
LINE
8
Layer 1
10
289.101571
20
270.767298
11
286.455736
21
272.324812
0
LINE
8
Layer 1
10
286.455736
20
272.324812
11
284.935263
21
273.350250
0
LINE
8
Layer 1
10
284.935263
20
273.350250
11
282.982989
21
274.278850
0
LINE
8
Layer 1
10
282.982989
20
274.278850
11
280.689932
21
275.505459
0
LINE
8
Layer 1
10
280.689932
20
275.505459
11
277.459897
21
277.446796
0
LINE
8
Layer 1
10
277.459897
20
277.446796
11
275.153787
21
278.892480
0
LINE
8
Layer 1
10
275.153787
20
278.892480
11
273.352856
21
279.899309
0
LINE
8
Layer 1
10
273.352856
20
279.899309
11
269.162206
21
282.205771
0
LINE
8
Layer 1
10
269.162206
20
282.205771
11
265.917706
21
283.986242
0
LINE
8
Layer 1
10
265.917706
20
283.986242
11
263.172388
21
285.573743
0
LINE
8
Layer 1
10
263.172388
20
285.573743
11
260.416486
21
287.161244
0
LINE
8
Layer 1
10
260.416486
20
287.161244
11
259.251261
21
287.809650
0
LINE
8
Layer 1
10
259.251261
20
287.809650
11
256.116828
21
289.645154
0
LINE
8
Layer 1
10
256.116828
20
289.645154
11
252.412659
21
291.772052
0
LINE
8
Layer 1
10
252.412659
20
291.772052
11
248.708490
21
293.862615
0
LINE
8
Layer 1
10
248.708490
20
293.862615
11
246.239044
21
295.274432
0
LINE
8
Layer 1
10
246.239044
20
295.274432
11
244.122376
21
296.509861
0
LINE
8
Layer 1
10
244.122376
20
296.509861
11
242.005708
21
297.745995
0
LINE
8
Layer 1
10
242.005708
20
297.745995
11
239.359873
21
299.248124
0
LINE
8
Layer 1
10
239.359873
20
299.248124
11
234.958262
21
301.762725
0
LINE
8
Layer 1
10
234.958262
20
301.762725
11
232.745638
21
303.036254
0
LINE
8
Layer 1
10
232.745638
20
303.036254
11
228.151763
21
305.576256
0
LINE
8
Layer 1
10
228.151763
20
305.576256
11
222.161946
21
308.972449
0
LINE
8
Layer 1
10
222.161946
20
308.972449
11
220.486250
21
309.828994
0
LINE
8
Layer 1
10
220.486250
20
309.828994
11
220.486250
21
361.642205
0
LINE
8
Layer 1
10
220.486250
20
361.642205
11
220.486250
21
413.455768
0
LINE
8
Layer 1
10
220.486250
20
413.455768
11
221.569278
21
413.455768
0
LINE
8
Layer 1
10
221.569278
20
413.455768
11
222.766210
21
413.166490
0
LINE
8
Layer 1
10
222.766210
20
413.166490
11
224.126919
21
412.461287
0
LINE
8
Layer 1
10
318.161306
20
244.665606
11
318.092161
21
193.790080
0
LINE
8
Layer 1
10
318.092161
20
193.790080
11
317.957400
21
132.820869
0
LINE
8
Layer 1
10
317.957400
20
132.820869
11
317.754200
21
122.590307
0
LINE
8
Layer 1
10
317.754200
20
122.590307
11
310.130668
21
118.200338
0
LINE
8
Layer 1
10
310.130668
20
118.200338
11
212.638703
21
61.790077
0
LINE
8
Layer 1
10
212.638703
20
61.790077
11
214.464137
21
60.590511
0
LINE
8
Layer 1
10
214.464137
20
60.590511
11
219.628779
21
57.518288
0
LINE
8
Layer 1
10
219.628779
20
57.518288
11
236.803996
21
47.616163
0
LINE
8
Layer 1
10
236.803996
20
47.616163
11
289.723871
21
17.433535
0
LINE
8
Layer 1
10
289.723871
20
17.433535
11
318.215281
21
1.162356
0
LINE
8
Layer 1
10
318.215281
20
1.162356
11
370.807072
21
31.202108
0
LINE
8
Layer 1
10
370.807072
20
31.202108
11
423.398864
21
61.241860
0
LINE
8
Layer 1
10
423.398864
20
61.241860
11
423.350533
21
122.253051
0
LINE
8
Layer 1
10
423.350533
20
122.253051
11
423.243245
21
165.409222
0
LINE
8
Layer 1
10
423.243245
20
165.409222
11
423.053141
21
183.492137
0
LINE
8
Layer 1
10
423.053141
20
183.492137
11
412.397482
21
189.799455
0
LINE
8
Layer 1
10
412.397482
20
189.799455
11
330.729375
21
237.594877
0
LINE
8
Layer 1
10
330.729375
20
237.594877
11
319.939351
21
243.890509
0
LINE
8
Layer 1
10
319.939351
20
243.890509
11
318.489296
21
244.649979
0
LINE
8
Layer 1
10
318.489296
20
244.649979
11
318.161306
21
244.665606
0
LINE
8
Layer 1
10
322.167100
20
112.344223
11
329.401166
21
108.050209
0
LINE
8
Layer 1
10
329.401166
20
108.050209
11
331.440575
21
106.891686
0
LINE
8
Layer 1
10
331.440575
20
106.891686
11
335.338772
21
104.686824
0
LINE
8
Layer 1
10
335.338772
20
104.686824
11
340.530959
21
101.647288
0
LINE
8
Layer 1
10
340.530959
20
101.647288
11
351.014110
21
95.583034
0
LINE
8
Layer 1
10
351.014110
20
95.583034
11
353.836334
21
93.972956
0
LINE
8
Layer 1
10
353.836334
20
93.972956
11
356.972530
21
92.113463
0
LINE
8
Layer 1
10
356.972530
20
92.113463
11
362.479395
21
88.866847
0
LINE
8
Layer 1
10
362.479395
20
88.866847
11
368.300232
21
85.510164
0
LINE
8
Layer 1
10
368.300232
20
85.510164
11
371.298845
21
83.762502
0
LINE
8
Layer 1
10
371.298845
20
83.762502
11
376.362620
21
80.834797
0
LINE
8
Layer 1
10
376.362620
20
80.834797
11
382.007068
21
77.535970
0
LINE
8
Layer 1
10
382.007068
20
77.535970
11
384.880798
21
75.965050
0
LINE
8
Layer 1
10
384.880798
20
75.965050
11
387.810267
21
74.171879
0
LINE
8
Layer 1
10
387.810267
20
74.171879
11
390.279713
21
72.673984
0
LINE
8
Layer 1
10
390.279713
20
72.673984
11
394.229415
21
70.404210
0
LINE
8
Layer 1
10
394.229415
20
70.404210
11
398.991918
21
67.652189
0
LINE
8
Layer 1
10
398.991918
20
67.652189
11
401.637753
21
66.131363
0
LINE
8
Layer 1
10
401.637753
20
66.131363
11
404.636366
21
64.404515
0
LINE
8
Layer 1
10
404.636366
20
64.404515
11
407.008682
21
63.048739
0
LINE
8
Layer 1
10
407.008682
20
63.048739
11
407.588281
21
62.516313
0
LINE
8
Layer 1
10
407.588281
20
62.516313
11
407.758936
21
62.015458
0
LINE
8
Layer 1
10
407.758936
20
62.015458
11
407.517222
21
61.497125
0
LINE
8
Layer 1
10
407.517222
20
61.497125
11
406.859711
21
60.912261
0
LINE
8
Layer 1
10
406.859711
20
60.912261
11
404.283588
21
59.346737
0
LINE
8
Layer 1
10
404.283588
20
59.346737
11
399.873863
21
56.797210
0
LINE
8
Layer 1
10
399.873863
20
56.797210
11
395.464138
21
54.240628
0
LINE
8
Layer 1
10
395.464138
20
54.240628
11
391.054413
21
51.677343
0
LINE
8
Layer 1
10
391.054413
20
51.677343
11
386.644688
21
49.126052
0
LINE
8
Layer 1
10
386.644688
20
49.126052
11
379.765517
21
45.159769
0
LINE
8
Layer 1
10
379.765517
20
45.159769
11
370.769678
21
39.951355
0
LINE
8
Layer 1
10
370.769678
20
39.951355
11
365.478008
21
36.869486
0
LINE
8
Layer 1
10
365.478008
20
36.869486
11
361.950228
21
34.838896
0
LINE
8
Layer 1
10
361.950228
20
34.838896
11
357.187725
21
32.096047
0
LINE
8
Layer 1
10
357.187725
20
32.096047
11
341.136326
21
22.759425
0
LINE
8
Layer 1
10
341.136326
20
22.759425
11
322.338550
21
11.879751
0
LINE
8
Layer 1
10
322.338550
20
11.879751
11
319.737386
21
10.465861
0
LINE
8
Layer 1
10
319.737386
20
10.465861
11
318.331345
21
9.877736
0
LINE
8
Layer 1
10
318.331345
20
9.877736
11
316.784987
21
10.539592
0
LINE
8
Layer 1
10
316.784987
20
10.539592
11
313.846125
21
12.130929
0
LINE
8
Layer 1
10
313.846125
20
12.130929
11
308.505419
21
15.172228
0
LINE
8
Layer 1
10
308.505419
20
15.172228
11
306.252932
21
16.623204
0
LINE
8
Layer 1
10
306.252932
20
16.623204
11
305.542437
21
17.091693
0
LINE
8
Layer 1
10
305.542437
20
17.091693
11
305.017150
21
17.287132
0
LINE
8
Layer 1
10
305.017150
20
17.287132
11
302.507135
21
18.580064
0
LINE
8
Layer 1
10
302.507135
20
18.580064
11
296.862687
21
21.878185
0
LINE
8
Layer 1
10
296.862687
20
21.878185
11
291.041850
21
25.224637
0
LINE
8
Layer 1
10
291.041850
20
25.224637
11
286.455736
21
27.869414
0
LINE
8
Layer 1
10
286.455736
20
27.869414
11
281.869622
21
30.515249
0
LINE
8
Layer 1
10
281.869622
20
30.515249
11
277.283508
21
33.158262
0
LINE
8
Layer 1
10
277.283508
20
33.158262
11
261.055720
21
42.505115
0
LINE
8
Layer 1
10
261.055720
20
42.505115
11
249.943213
21
48.865349
0
LINE
8
Layer 1
10
249.943213
20
48.865349
11
239.536262
21
54.846700
0
LINE
8
Layer 1
10
239.536262
20
54.846700
11
234.838317
21
57.533810
0
LINE
8
Layer 1
10
234.838317
20
57.533810
11
230.887871
21
59.871929
0
LINE
8
Layer 1
10
230.887871
20
59.871929
11
229.682753
21
60.723999
0
LINE
8
Layer 1
10
229.682753
20
60.723999
11
228.942471
21
61.424467
0
LINE
8
Layer 1
10
228.942471
20
61.424467
11
228.630599
21
62.018125
0
LINE
8
Layer 1
10
228.630599
20
62.018125
11
228.710712
21
62.549768
0
LINE
8
Layer 1
10
228.710712
20
62.549768
11
229.146384
21
63.064188
0
LINE
8
Layer 1
10
229.146384
20
63.064188
11
229.901189
21
63.606178
0
LINE
8
Layer 1
10
229.901189
20
63.606178
11
241.652930
21
70.465946
0
LINE
8
Layer 1
10
241.652930
20
70.465946
11
243.623195
21
71.642814
0
LINE
8
Layer 1
10
243.623195
20
71.642814
11
250.295991
21
75.432355
0
LINE
8
Layer 1
10
250.295991
20
75.432355
11
253.437479
21
77.325715
0
LINE
8
Layer 1
10
253.437479
20
77.325715
11
255.852597
21
78.669446
0
LINE
8
Layer 1
10
255.852597
20
78.669446
11
257.175868
21
79.375355
0
LINE
8
Layer 1
10
257.175868
20
79.375355
11
260.228808
21
81.263775
0
LINE
8
Layer 1
10
260.228808
20
81.263775
11
274.637673
21
89.599214
0
LINE
8
Layer 1
10
274.637673
20
89.599214
11
278.871009
21
92.003749
0
LINE
8
Layer 1
10
278.871009
20
92.003749
11
281.403955
21
93.543978
0
LINE
8
Layer 1
10
281.403955
20
93.543978
11
283.086001
21
94.544456
0
LINE
8
Layer 1
10
283.086001
20
94.544456
11
285.616124
21
95.955568
0
LINE
8
Layer 1
10
285.616124
20
95.955568
11
288.069695
21
97.366680
0
LINE
8
Layer 1
10
288.069695
20
97.366680
11
290.767741
21
98.905498
0
LINE
8
Layer 1
10
290.767741
20
98.905498
11
295.980742
21
101.961613
0
LINE
8
Layer 1
10
295.980742
20
101.961613
11
300.245122
21
104.479743
0
LINE
8
Layer 1
10
300.245122
20
104.479743
11
302.130721
21
105.480574
0
LINE
8
Layer 1
10
302.130721
20
105.480574
11
303.440233
21
106.222466
0
LINE
8
Layer 1
10
303.440233
20
106.222466
11
306.845952
21
108.286217
0
LINE
8
Layer 1
10
306.845952
20
108.286217
11
313.615761
21
112.130087
0
LINE
8
Layer 1
10
313.615761
20
112.130087
11
318.106625
21
114.652802
0
LINE
8
Layer 1
10
318.106625
20
114.652802
11
322.167100
21
112.344223
0
LINE
8
Layer 1
10
140.405644
20
206.375082
11
140.405644
21
168.627836
0
LINE
8
Layer 1
10
140.405644
20
168.627836
11
158.485516
21
168.633128
0
LINE
8
Layer 1
10
158.485516
20
168.633128
11
170.795727
21
168.700607
0
LINE
8
Layer 1
10
170.795727
20
168.700607
11
179.434709
21
168.913410
0
LINE
8
Layer 1
10
179.434709
20
168.913410
11
185.073579
21
169.299779
0
LINE
8
Layer 1
10
185.073579
20
169.299779
11
188.383452
21
169.887959
0
LINE
8
Layer 1
10
188.383452
20
169.887959
11
191.581727
21
171.124304
0
LINE
8
Layer 1
10
191.581727
20
171.124304
11
194.462572
21
172.830227
0
LINE
8
Layer 1
10
194.462572
20
172.830227
11
196.992389
21
174.959367
0
LINE
8
Layer 1
10
196.992389
20
174.959367
11
199.137581
21
177.465366
0
LINE
8
Layer 1
10
199.137581
20
177.465366
11
200.864548
21
180.301862
0
LINE
8
Layer 1
10
200.864548
20
180.301862
11
202.139694
21
183.422496
0
LINE
8
Layer 1
10
202.139694
20
183.422496
11
202.929420
21
186.780909
0
LINE
8
Layer 1
10
202.929420
20
186.780909
11
203.200128
21
190.330739
0
LINE
8
Layer 1
10
203.200128
20
190.330739
11
202.928219
21
194.067595
0
LINE
8
Layer 1
10
202.928219
20
194.067595
11
202.584184
21
195.771266
0
LINE
8
Layer 1
10
202.584184
20
195.771266
11
202.097741
21
197.375362
0
LINE
8
Layer 1
10
202.097741
20
197.375362
11
201.466124
21
198.887583
0
LINE
8
Layer 1
10
201.466124
20
198.887583
11
200.686568
21
200.315624
0
LINE
8
Layer 1
10
200.686568
20
200.315624
11
199.756307
21
201.667184
0
LINE
8
Layer 1
10
199.756307
20
201.667184
11
198.672575
21
202.949960
0
LINE
8
Layer 1
10
198.672575
20
202.949960
11
197.002585
21
204.522088
0
LINE
8
Layer 1
10
197.002585
20
204.522088
11
195.078693
21
205.962552
0
LINE
8
Layer 1
10
195.078693
20
205.962552
11
193.079462
21
207.151728
0
LINE
8
Layer 1
10
193.079462
20
207.151728
11
191.183451
21
207.969991
0
LINE
8
Layer 1
10
191.183451
20
207.969991
11
189.953446
21
208.448138
0
LINE
8
Layer 1
10
189.953446
20
208.448138
11
189.441786
21
208.785261
0
LINE
8
Layer 1
10
189.441786
20
208.785261
11
189.911289
21
209.201583
0
LINE
8
Layer 1
10
189.911289
20
209.201583
11
191.039870
21
209.870054
0
LINE
8
Layer 1
10
191.039870
20
209.870054
11
192.380065
21
210.730091
0
LINE
8
Layer 1
10
192.380065
20
210.730091
11
193.702413
21
211.858333
0
LINE
8
Layer 1
10
193.702413
20
211.858333
11
194.971571
21
213.205021
0
LINE
8
Layer 1
10
194.971571
20
213.205021
11
196.152197
21
214.720398
0
LINE
8
Layer 1
10
196.152197
20
214.720398
11
197.208948
21
216.354706
0
LINE
8
Layer 1
10
197.208948
20
216.354706
11
198.106482
21
218.058185
0
LINE
8
Layer 1
10
198.106482
20
218.058185
11
198.809456
21
219.781079
0
LINE
8
Layer 1
10
198.809456
20
219.781079
11
199.282528
21
221.473628
0
LINE
8
Layer 1
10
199.282528
20
221.473628
11
199.559312
21
223.248842
0
LINE
8
Layer 1
10
199.559312
20
223.248842
11
199.652801
21
225.012941
0
LINE
8
Layer 1
10
199.652801
20
225.012941
11
199.569547
21
226.755827
0
LINE
8
Layer 1
10
199.569547
20
226.755827
11
199.316103
21
228.467402
0
LINE
8
Layer 1
10
199.316103
20
228.467402
11
198.899020
21
230.137567
0
LINE
8
Layer 1
10
198.899020
20
230.137567
11
198.324850
21
231.756225
0
LINE
8
Layer 1
10
198.324850
20
231.756225
11
197.600145
21
233.313277
0
LINE
8
Layer 1
10
197.600145
20
233.313277
11
196.731458
21
234.798626
0
LINE
8
Layer 1
10
196.731458
20
234.798626
11
195.725341
21
236.202173
0
LINE
8
Layer 1
10
195.725341
20
236.202173
11
194.588345
21
237.513820
0
LINE
8
Layer 1
10
194.588345
20
237.513820
11
193.327023
21
238.723469
0
LINE
8
Layer 1
10
193.327023
20
238.723469
11
191.947926
21
239.821022
0
LINE
8
Layer 1
10
191.947926
20
239.821022
11
190.457608
21
240.796380
0
LINE
8
Layer 1
10
190.457608
20
240.796380
11
188.862619
21
241.639447
0
LINE
8
Layer 1
10
188.862619
20
241.639447
11
187.169512
21
242.340123
0
LINE
8
Layer 1
10
187.169512
20
242.340123
11
185.384839
21
242.888311
0
LINE
8
Layer 1
10
185.384839
20
242.888311
11
181.905323
21
243.457132
0
LINE
8
Layer 1
10
181.905323
20
243.457132
11
176.350812
21
243.836313
0
LINE
8
Layer 1
10
176.350812
20
243.836313
11
168.191608
21
244.048675
0
LINE
8
Layer 1
10
168.191608
20
244.048675
11
156.898015
21
244.117036
0
LINE
8
Layer 1
10
156.898015
20
244.117036
11
140.405644
21
244.122328
0
LINE
8
Layer 1
10
140.405644
20
244.122328
11
140.405644
21
206.375082
0
LINE
8
Layer 1
10
175.049855
20
201.434073
11
178.785548
21
201.049600
0
LINE
8
Layer 1
10
178.785548
20
201.049600
11
181.479807
21
200.452469
0
LINE
8
Layer 1
10
181.479807
20
200.452469
11
183.475367
21
199.531751
0
LINE
8
Layer 1
10
183.475367
20
199.531751
11
185.114964
21
198.176521
0
LINE
8
Layer 1
10
185.114964
20
198.176521
11
186.376718
21
196.675164
0
LINE
8
Layer 1
10
186.376718
20
196.675164
11
187.193708
21
195.130812
0
LINE
8
Layer 1
10
187.193708
20
195.130812
11
187.633137
21
193.366592
0
LINE
8
Layer 1
10
187.633137
20
193.366592
11
187.762210
21
191.205628
0
LINE
8
Layer 1
10
187.762210
20
191.205628
11
187.610174
21
188.923998
0
LINE
8
Layer 1
10
187.610174
20
188.923998
11
187.119007
21
187.077111
0
LINE
8
Layer 1
10
187.119007
20
187.077111
11
186.223425
21
185.503870
0
LINE
8
Layer 1
10
186.223425
20
185.503870
11
184.858141
21
184.043176
0
LINE
8
Layer 1
10
184.858141
20
184.043176
11
183.932544
21
183.242284
0
LINE
8
Layer 1
10
183.932544
20
183.242284
11
183.048908
21
182.634550
0
LINE
8
Layer 1
10
183.048908
20
182.634550
11
182.019206
21
182.189825
0
LINE
8
Layer 1
10
182.019206
20
182.189825
11
180.655409
21
181.877957
0
LINE
8
Layer 1
10
180.655409
20
181.877957
11
176.173420
21
181.532196
0
LINE
8
Layer 1
10
176.173420
20
181.532196
11
168.098717
21
181.356066
0
LINE
8
Layer 1
10
168.098717
20
181.356066
11
155.581095
21
181.263286
0
LINE
8
Layer 1
10
155.581095
20
181.263286
11
155.404800
21
184.367396
0
LINE
8
Layer 1
10
155.404800
20
184.367396
11
155.279602
21
191.083699
0
LINE
8
Layer 1
10
155.279602
20
191.083699
11
155.246678
21
197.887249
0
LINE
8
Layer 1
10
155.246678
20
197.887249
11
155.347203
21
201.253098
0
LINE
8
Layer 1
10
155.347203
20
201.253098
11
155.722047
21
201.529015
0
LINE
8
Layer 1
10
155.722047
20
201.529015
11
156.843644
21
201.691425
0
LINE
8
Layer 1
10
156.843644
20
201.691425
11
162.884305
21
201.785793
0
LINE
8
Layer 1
10
162.884305
20
201.785793
11
169.481960
21
201.681238
0
LINE
8
Layer 1
10
169.481960
20
201.681238
11
175.049855
21
201.434073
0
LINE
8
Layer 1
10
179.315294
20
230.955595
11
180.588226
21
230.457176
0
LINE
8
Layer 1
10
180.588226
20
230.457176
11
181.711334
21
229.813972
0
LINE
8
Layer 1
10
181.711334
20
229.813972
11
182.678892
21
229.033664
0
LINE
8
Layer 1
10
182.678892
20
229.033664
11
183.485174
21
228.123934
0
LINE
8
Layer 1
10
183.485174
20
228.123934
11
184.124453
21
227.092462
0
LINE
8
Layer 1
10
184.124453
20
227.092462
11
184.591006
21
225.946930
0
LINE
8
Layer 1
10
184.591006
20
225.946930
11
184.879105
21
224.695019
0
LINE
8
Layer 1
10
184.879105
20
224.695019
11
184.983025
21
223.344409
0
LINE
8
Layer 1
10
184.983025
20
223.344409
11
184.909373
21
221.952390
0
LINE
8
Layer 1
10
184.909373
20
221.952390
11
184.669179
21
220.659978
0
LINE
8
Layer 1
10
184.669179
20
220.659978
11
184.264141
21
219.469878
0
LINE
8
Layer 1
10
184.264141
20
219.469878
11
183.695958
21
218.384792
0
LINE
8
Layer 1
10
183.695958
20
218.384792
11
182.966330
21
217.407424
0
LINE
8
Layer 1
10
182.966330
20
217.407424
11
182.076955
21
216.540479
0
LINE
8
Layer 1
10
182.076955
20
216.540479
11
181.029533
21
215.786660
0
LINE
8
Layer 1
10
181.029533
20
215.786660
11
179.825763
21
215.148671
0
LINE
8
Layer 1
10
179.825763
20
215.148671
11
178.558502
21
214.671969
0
LINE
8
Layer 1
10
178.558502
20
214.671969
11
176.696755
21
214.410042
0
LINE
8
Layer 1
10
176.696755
20
214.410042
11
166.599411
21
214.202167
0
LINE
8
Layer 1
10
166.599411
20
214.202167
11
155.222320
21
214.092101
0
LINE
8
Layer 1
10
155.222320
20
214.092101
11
155.222320
21
221.296886
0
LINE
8
Layer 1
10
155.222320
20
221.296886
11
155.290230
21
226.880259
0
LINE
8
Layer 1
10
155.290230
20
226.880259
11
155.453390
21
230.186891
0
LINE
8
Layer 1
10
155.453390
20
230.186891
11
155.684459
21
231.872465
0
LINE
8
Layer 1
10
155.684459
20
231.872465
11
166.654091
21
231.680201
0
LINE
8
Layer 1
10
166.654091
20
231.680201
11
175.636480
21
231.415000
0
LINE
8
Layer 1
10
175.636480
20
231.415000
11
177.968756
21
231.219329
0
LINE
8
Layer 1
10
177.968756
20
231.219329
11
179.315294
21
230.955595
0
LINE
8
Layer 1
10
221.191806
20
206.375082
11
221.191806
21
168.627836
0
LINE
8
Layer 1
10
221.191806
20
168.627836
11
228.600144
21
168.627836
0
LINE
8
Layer 1
10
228.600144
20
168.627836
11
236.008482
21
168.627836
0
LINE
8
Layer 1
10
236.008482
20
168.627836
11
236.024004
21
180.004927
0
LINE
8
Layer 1
10
236.024004
20
180.004927
11
236.039526
21
191.382017
0
LINE
8
Layer 1
10
236.039526
20
191.382017
11
242.238541
21
197.715088
0
LINE
8
Layer 1
10
242.238541
20
197.715088
11
247.606676
21
203.024000
0
LINE
8
Layer 1
10
247.606676
20
203.024000
11
248.516711
21
203.593058
0
LINE
8
Layer 1
10
248.516711
20
203.593058
11
248.757242
21
203.549072
0
LINE
8
Layer 1
10
248.757242
20
203.549072
11
248.942029
21
203.359536
0
LINE
8
Layer 1
10
248.942029
20
203.359536
11
259.396605
21
185.649375
0
LINE
8
Layer 1
10
259.396605
20
185.649375
11
269.346003
21
168.628189
0
LINE
8
Layer 1
10
269.346003
20
168.628189
11
278.959204
21
168.627836
0
LINE
8
Layer 1
10
278.959204
20
168.627836
11
288.572404
21
168.795758
0
LINE
8
Layer 1
10
288.572404
20
168.795758
11
273.774072
21
191.781714
0
LINE
8
Layer 1
10
273.774072
20
191.781714
11
258.975741
21
214.600101
0
LINE
8
Layer 1
10
258.975741
20
214.600101
11
261.162259
21
216.950308
0
LINE
8
Layer 1
10
261.162259
20
216.950308
11
275.268087
21
231.623051
0
LINE
8
Layer 1
10
275.268087
20
231.623051
11
287.187045
21
243.945939
0
LINE
8
Layer 1
10
287.187045
20
243.945939
11
277.190375
21
244.039425
0
LINE
8
Layer 1
10
277.190375
20
244.039425
11
267.194057
21
244.132911
0
LINE
8
Layer 1
10
267.194057
20
244.132911
11
251.865853
21
227.396065
0
LINE
8
Layer 1
10
251.865853
20
227.396065
11
236.273065
21
210.633818
0
LINE
8
Layer 1
10
236.273065
20
210.633818
11
236.086270
21
215.538182
0
LINE
8
Layer 1
10
236.086270
20
215.538182
11
236.008482
21
227.365373
0
LINE
8
Layer 1
10
236.008482
20
227.365373
11
236.008482
21
244.122328
0
LINE
8
Layer 1
10
236.008482
20
244.122328
11
228.600144
21
244.122328
0
LINE
8
Layer 1
10
228.600144
20
244.122328
11
221.191806
21
244.122328
0
LINE
8
Layer 1
10
221.191806
20
244.122328
11
221.191806
21
206.375082
0
LINE
8
Layer 1
10
259.997386
20
139.523651
11
259.997386
21
124.883364
0
LINE
8
Layer 1
10
259.997386
20
124.883364
11
262.643221
21
124.883364
0
LINE
8
Layer 1
10
262.643221
20
124.883364
11
265.289056
21
124.883364
0
LINE
8
Layer 1
10
265.289056
20
124.883364
11
265.313045
21
136.260455
0
LINE
8
Layer 1
10
265.313045
20
136.260455
11
265.415483
21
144.444463
0
LINE
8
Layer 1
10
265.415483
20
144.444463
11
265.521256
21
146.457370
0
LINE
8
Layer 1
10
265.521256
20
146.457370
11
265.586145
21
146.894101
0
LINE
8
Layer 1
10
265.586145
20
146.894101
11
265.658415
21
146.931989
0
LINE
8
Layer 1
10
265.658415
20
146.931989
11
268.121511
21
137.406983
0
LINE
8
Layer 1
10
268.121511
20
137.406983
11
270.799801
21
126.735449
0
LINE
8
Layer 1
10
270.799801
20
126.735449
11
271.336376
21
124.883364
0
LINE
8
Layer 1
10
271.336376
20
124.883364
11
274.133553
21
124.883364
0
LINE
8
Layer 1
10
274.133553
20
124.883364
11
276.930730
21
125.000134
0
LINE
8
Layer 1
10
276.930730
20
125.000134
11
279.644739
21
135.926109
0
LINE
8
Layer 1
10
279.644739
20
135.926109
11
282.552953
21
146.931989
0
LINE
8
Layer 1
10
282.552953
20
146.931989
11
282.627577
21
146.901842
0
LINE
8
Layer 1
10
282.627577
20
146.901842
11
282.694070
21
146.479347
0
LINE
8
Layer 1
10
282.694070
20
146.479347
11
282.801353
21
144.496983
0
LINE
8
Layer 1
10
282.801353
20
144.496983
11
282.903967
21
136.260455
0
LINE
8
Layer 1
10
282.903967
20
136.260455
11
282.927956
21
124.883364
0
LINE
8
Layer 1
10
282.927956
20
124.883364
11
285.573791
21
124.883364
0
LINE
8
Layer 1
10
285.573791
20
124.883364
11
288.219626
21
124.883364
0
LINE
8
Layer 1
10
288.219626
20
124.883364
11
288.219626
21
139.523651
0
LINE
8
Layer 1
10
288.219626
20
139.523651
11
288.219626
21
154.163938
0
LINE
8
Layer 1
10
288.219626
20
154.163938
11
283.823659
21
154.163938
0
LINE
8
Layer 1
10
283.823659
20
154.163938
11
279.427340
21
154.163938
0
LINE
8
Layer 1
10
279.427340
20
154.163938
11
279.087262
21
152.841021
0
LINE
8
Layer 1
10
279.087262
20
152.841021
11
275.312802
21
138.296910
0
LINE
8
Layer 1
10
275.312802
20
138.296910
11
274.158248
21
134.338520
0
LINE
8
Layer 1
10
274.158248
20
134.338520
11
273.230442
21
137.112546
0
LINE
8
Layer 1
10
273.230442
20
137.112546
11
271.317326
21
144.128109
0
LINE
8
Layer 1
10
271.317326
20
144.128109
11
268.702536
21
154.163938
0
LINE
8
Layer 1
10
268.702536
20
154.163938
11
264.349961
21
154.163938
0
LINE
8
Layer 1
10
264.349961
20
154.163938
11
259.997386
21
154.163938
0
LINE
8
Layer 1
10
259.997386
20
154.163938
11
259.997386
21
139.523651
0
LINE
8
Layer 1
10
167.569550
20
141.692177
11
167.503007
21
132.246767
0
LINE
8
Layer 1
10
167.503007
20
132.246767
11
167.343067
21
127.051890
0
LINE
8
Layer 1
10
167.343067
20
127.051890
11
167.116230
21
124.883364
0
LINE
8
Layer 1
10
167.116230
20
124.883364
11
170.165291
21
124.883364
0
LINE
8
Layer 1
10
170.165291
20
124.883364
11
173.213998
21
124.883364
0
LINE
8
Layer 1
10
173.213998
20
124.883364
11
173.213998
21
130.302034
0
LINE
8
Layer 1
10
173.213998
20
130.302034
11
173.213998
21
135.720704
0
LINE
8
Layer 1
10
173.213998
20
135.720704
11
178.169118
21
135.898857
0
LINE
8
Layer 1
10
178.169118
20
135.898857
11
182.676210
21
136.206524
0
LINE
8
Layer 1
10
182.676210
20
136.206524
11
183.906842
21
136.537677
0
LINE
8
Layer 1
10
183.906842
20
136.537677
11
185.136483
21
137.105005
0
LINE
8
Layer 1
10
185.136483
20
137.105005
11
186.168177
21
137.690220
0
LINE
8
Layer 1
10
186.168177
20
137.690220
11
186.961448
21
138.298982
0
LINE
8
Layer 1
10
186.961448
20
138.298982
11
187.620377
21
139.027072
0
LINE
8
Layer 1
10
187.620377
20
139.027072
11
188.249044
21
139.970268
0
LINE
8
Layer 1
10
188.249044
20
139.970268
11
189.049074
21
141.649130
0
LINE
8
Layer 1
10
189.049074
20
141.649130
11
189.516299
21
143.410294
0
LINE
8
Layer 1
10
189.516299
20
143.410294
11
189.660915
21
145.198777
0
LINE
8
Layer 1
10
189.660915
20
145.198777
11
189.493115
21
146.959594
0
LINE
8
Layer 1
10
189.493115
20
146.959594
11
189.023095
21
148.637762
0
LINE
8
Layer 1
10
189.023095
20
148.637762
11
188.261049
21
150.178296
0
LINE
8
Layer 1
10
188.261049
20
150.178296
11
187.217172
21
151.526214
0
LINE
8
Layer 1
10
187.217172
20
151.526214
11
185.901659
21
152.626531
0
LINE
8
Layer 1
10
185.901659
20
152.626531
11
184.326814
21
153.339727
0
LINE
8
Layer 1
10
184.326814
20
153.339727
11
181.929908
21
153.799518
0
LINE
8
Layer 1
10
181.929908
20
153.799518
11
178.324913
21
154.051611
0
LINE
8
Layer 1
10
178.324913
20
154.051611
11
173.125803
21
154.141713
0
LINE
8
Layer 1
10
173.125803
20
154.141713
11
167.569550
21
154.163938
0
LINE
8
Layer 1
10
167.569550
20
154.163938
11
167.569550
21
141.692177
0
LINE
8
Layer 1
10
181.074597
20
148.744562
11
182.248753
21
148.099761
0
LINE
8
Layer 1
10
182.248753
20
148.099761
11
183.037807
21
147.294027
0
LINE
8
Layer 1
10
183.037807
20
147.294027
11
183.481844
21
146.267763
0
LINE
8
Layer 1
10
183.481844
20
146.267763
11
183.620949
21
144.961371
0
LINE
8
Layer 1
10
183.620949
20
144.961371
11
183.579575
21
144.030302
0
LINE
8
Layer 1
10
183.579575
20
144.030302
11
183.414574
21
143.342914
0
LINE
8
Layer 1
10
183.414574
20
143.342914
11
183.064629
21
142.746410
0
LINE
8
Layer 1
10
183.064629
20
142.746410
11
182.468423
21
142.087994
0
LINE
8
Layer 1
10
182.468423
20
142.087994
11
181.738823
21
141.420571
0
LINE
8
Layer 1
10
181.738823
20
141.420571
11
180.951213
21
141.065026
0
LINE
8
Layer 1
10
180.951213
20
141.065026
11
179.621339
21
140.903024
0
LINE
8
Layer 1
10
179.621339
20
140.903024
11
177.264948
21
140.816230
0
LINE
8
Layer 1
10
177.264948
20
140.816230
11
173.213998
21
140.697696
0
LINE
8
Layer 1
10
173.213998
20
140.697696
11
173.213998
21
144.961371
0
LINE
8
Layer 1
10
173.213998
20
144.961371
11
173.213998
21
149.225046
0
LINE
8
Layer 1
10
173.213998
20
149.225046
11
176.576678
21
149.225046
0
LINE
8
Layer 1
10
176.576678
20
149.225046
11
179.334035
21
149.094474
0
LINE
8
Layer 1
10
179.334035
20
149.094474
11
181.074597
21
148.744562
0
LINE
8
Layer 1
10
200.730682
20
139.537762
11
200.730682
21
124.883364
0
LINE
8
Layer 1
10
200.730682
20
124.883364
11
203.762103
21
124.883364
0
LINE
8
Layer 1
10
203.762103
20
124.883364
11
206.793877
21
124.883364
0
LINE
8
Layer 1
10
206.793877
20
124.883364
11
206.542700
21
128.233344
0
LINE
8
Layer 1
10
206.542700
20
128.233344
11
206.438674
21
131.480577
0
LINE
8
Layer 1
10
206.438674
20
131.480577
11
206.541288
21
134.583348
0
LINE
8
Layer 1
10
206.541288
20
134.583348
11
206.791408
21
137.583372
0
LINE
8
Layer 1
10
206.791408
20
137.583372
11
212.580495
21
137.583372
0
LINE
8
Layer 1
10
212.580495
20
137.583372
11
218.369582
21
137.583372
0
LINE
8
Layer 1
10
218.369582
20
137.583372
11
218.369582
21
131.233368
0
LINE
8
Layer 1
10
218.369582
20
131.233368
11
218.369582
21
124.883364
0
LINE
8
Layer 1
10
218.369582
20
124.883364
11
221.191806
21
124.883364
0
LINE
8
Layer 1
10
221.191806
20
124.883364
11
224.014030
21
124.883364
0
LINE
8
Layer 1
10
224.014030
20
124.883364
11
224.014030
21
139.523651
0
LINE
8
Layer 1
10
224.014030
20
139.523651
11
224.014030
21
154.163938
0
LINE
8
Layer 1
10
224.014030
20
154.163938
11
221.191806
21
154.163938
0
LINE
8
Layer 1
10
221.191806
20
154.163938
11
218.369582
21
154.163938
0
LINE
8
Layer 1
10
218.369582
20
154.163938
11
218.369582
21
148.343101
0
LINE
8
Layer 1
10
218.369582
20
148.343101
11
218.369582
21
142.522264
0
LINE
8
Layer 1
10
218.369582
20
142.522264
11
212.572381
21
142.522264
0
LINE
8
Layer 1
10
212.572381
20
142.522264
11
207.527479
21
142.625804
0
LINE
8
Layer 1
10
207.527479
20
142.625804
11
206.783460
21
142.853853
0
LINE
8
Layer 1
10
206.783460
20
142.853853
11
206.532822
21
143.287087
0
LINE
8
Layer 1
10
206.532822
20
143.287087
11
206.399736
21
145.286368
0
LINE
8
Layer 1
10
206.399736
20
145.286368
11
206.420638
21
149.019729
0
LINE
8
Layer 1
10
206.420638
20
149.019729
11
206.551519
21
153.987549
0
LINE
8
Layer 1
10
206.551519
20
153.987549
11
203.641100
21
154.089855
0
LINE
8
Layer 1
10
203.641100
20
154.089855
11
200.730682
21
154.192513
0
LINE
8
Layer 1
10
200.730682
20
154.192513
11
200.730682
21
139.537762
0
LINE
8
Layer 1
10
238.698061
20
153.959327
11
236.870077
21
153.230335
0
LINE
8
Layer 1
10
236.870077
20
153.230335
11
235.229427
21
152.271168
0
LINE
8
Layer 1
10
235.229427
20
152.271168
11
233.780814
21
151.087990
0
LINE
8
Layer 1
10
233.780814
20
151.087990
11
232.528944
21
149.686965
0
LINE
8
Layer 1
10
232.528944
20
149.686965
11
231.478522
21
148.074256
0
LINE
8
Layer 1
10
231.478522
20
148.074256
11
230.634251
21
146.256028
0
LINE
8
Layer 1
10
230.634251
20
146.256028
11
230.000837
21
144.238444
0
LINE
8
Layer 1
10
230.000837
20
144.238444
11
229.582984
21
142.027669
0
LINE
8
Layer 1
10
229.582984
20
142.027669
11
229.381012
21
139.211458
0
LINE
8
Layer 1
10
229.381012
20
139.211458
11
229.538771
21
136.550322
0
LINE
8
Layer 1
10
229.538771
20
136.550322
11
230.044084
21
134.070451
0
LINE
8
Layer 1
10
230.044084
20
134.070451
11
230.884778
21
131.798033
0
LINE
8
Layer 1
10
230.884778
20
131.798033
11
232.048678
21
129.759260
0
LINE
8
Layer 1
10
232.048678
20
129.759260
11
233.523607
21
127.980319
0
LINE
8
Layer 1
10
233.523607
20
127.980319
11
235.297392
21
126.487402
0
LINE
8
Layer 1
10
235.297392
20
126.487402
11
237.357858
21
125.306698
0
LINE
8
Layer 1
10
237.357858
20
125.306698
11
238.512919
21
124.828959
0
LINE
8
Layer 1
10
238.512919
20
124.828959
11
239.602761
21
124.546814
0
LINE
8
Layer 1
10
239.602761
20
124.546814
11
242.711264
21
124.373247
0
LINE
8
Layer 1
10
242.711264
20
124.373247
11
244.553278
21
124.401122
0
LINE
8
Layer 1
10
244.553278
20
124.401122
11
245.869465
21
124.537509
0
LINE
8
Layer 1
10
245.869465
20
124.537509
11
246.996673
21
124.843296
0
LINE
8
Layer 1
10
246.996673
20
124.843296
11
248.271751
21
125.379370
0
LINE
8
Layer 1
10
248.271751
20
125.379370
11
250.211368
21
126.506363
0
LINE
8
Layer 1
10
250.211368
20
126.506363
11
251.750142
21
127.799780
0
LINE
8
Layer 1
10
251.750142
20
127.799780
11
252.688796
21
129.071754
0
LINE
8
Layer 1
10
252.688796
20
129.071754
11
253.651792
21
130.715666
0
LINE
8
Layer 1
10
253.651792
20
130.715666
11
254.402856
21
132.288141
0
LINE
8
Layer 1
10
254.402856
20
132.288141
11
254.705716
21
133.345803
0
LINE
8
Layer 1
10
254.705716
20
133.345803
11
254.035901
21
133.756166
0
LINE
8
Layer 1
10
254.035901
20
133.756166
11
252.493357
21
134.349059
0
LINE
8
Layer 1
10
252.493357
20
134.349059
11
250.778437
21
134.882355
0
LINE
8
Layer 1
10
250.778437
20
134.882355
11
249.591493
21
135.113926
0
LINE
8
Layer 1
10
249.591493
20
135.113926
11
249.201806
21
134.828881
0
LINE
8
Layer 1
10
249.201806
20
134.828881
11
248.901812
21
134.143787
0
LINE
8
Layer 1
10
248.901812
20
134.143787
11
248.368609
21
132.703278
0
LINE
8
Layer 1
10
248.368609
20
132.703278
11
247.552359
21
131.477711
0
LINE
8
Layer 1
10
247.552359
20
131.477711
11
246.503359
21
130.489806
0
LINE
8
Layer 1
10
246.503359
20
130.489806
11
245.271903
21
129.762284
0
LINE
8
Layer 1
10
245.271903
20
129.762284
11
243.908288
21
129.317866
0
LINE
8
Layer 1
10
243.908288
20
129.317866
11
242.462809
21
129.179274
0
LINE
8
Layer 1
10
242.462809
20
129.179274
11
240.985762
21
129.369228
0
LINE
8
Layer 1
10
240.985762
20
129.369228
11
239.527443
21
129.910451
0
LINE
8
Layer 1
10
239.527443
20
129.910451
11
238.436148
21
130.595432
0
LINE
8
Layer 1
10
238.436148
20
130.595432
11
237.513075
21
131.464085
0
LINE
8
Layer 1
10
237.513075
20
131.464085
11
236.756218
21
132.521716
0
LINE
8
Layer 1
10
236.756218
20
132.521716
11
236.163572
21
133.773634
0
LINE
8
Layer 1
10
236.163572
20
133.773634
11
235.733133
21
135.225148
0
LINE
8
Layer 1
10
235.733133
20
135.225148
11
235.462894
21
136.881564
0
LINE
8
Layer 1
10
235.462894
20
136.881564
11
235.350852
21
138.748193
0
LINE
8
Layer 1
10
235.350852
20
138.748193
11
235.395001
21
140.830341
0
LINE
8
Layer 1
10
235.395001
20
140.830341
11
235.691120
21
143.311765
0
LINE
8
Layer 1
10
235.691120
20
143.311765
11
236.298686
21
145.332449
0
LINE
8
Layer 1
10
236.298686
20
145.332449
11
237.252129
21
146.973126
0
LINE
8
Layer 1
10
237.252129
20
146.973126
11
238.585878
21
148.314526
0
LINE
8
Layer 1
10
238.585878
20
148.314526
11
239.363489
21
148.866690
0
LINE
8
Layer 1
10
239.363489
20
148.866690
11
240.114112
21
149.207054
0
LINE
8
Layer 1
10
240.114112
20
149.207054
11
242.290047
21
149.493157
0
LINE
8
Layer 1
10
242.290047
20
149.493157
11
244.323410
21
149.397075
0
LINE
8
Layer 1
10
244.323410
20
149.397075
11
245.963568
21
148.868961
0
LINE
8
Layer 1
10
245.963568
20
148.868961
11
247.283383
21
147.871277
0
LINE
8
Layer 1
10
247.283383
20
147.871277
11
248.355712
21
146.366486
0
LINE
8
Layer 1
10
248.355712
20
146.366486
11
249.237657
21
144.761346
0
LINE
8
Layer 1
10
249.237657
20
144.761346
11
251.879964
21
145.431624
0
LINE
8
Layer 1
10
251.879964
20
145.431624
11
254.643274
21
146.222905
0
LINE
8
Layer 1
10
254.643274
20
146.222905
11
254.061191
21
147.934937
0
LINE
8
Layer 1
10
254.061191
20
147.934937
11
253.088934
21
149.626513
0
LINE
8
Layer 1
10
253.088934
20
149.626513
11
251.767693
21
151.205409
0
LINE
8
Layer 1
10
251.767693
20
151.205409
11
250.230948
21
152.535664
0
LINE
8
Layer 1
10
250.230948
20
152.535664
11
248.612182
21
153.481313
0
LINE
8
Layer 1
10
248.612182
20
153.481313
11
246.411878
21
154.112471
0
LINE
8
Layer 1
10
246.411878
20
154.112471
11
243.712404
21
154.417629
0
LINE
8
Layer 1
10
243.712404
20
154.417629
11
240.984289
21
154.374133
0
LINE
8
Layer 1
10
240.984289
20
154.374133
11
238.698061
21
153.959327
0
LINE
8
Layer 1
10
140.405644
20
151.694492
11
140.405644
21
149.225046
0
LINE
8
Layer 1
10
140.405644
20
149.225046
11
144.638980
21
149.225046
0
LINE
8
Layer 1
10
144.638980
20
149.225046
11
148.872316
21
149.225046
0
LINE
8
Layer 1
10
148.872316
20
149.225046
11
148.872316
21
137.054205
0
LINE
8
Layer 1
10
148.872316
20
137.054205
11
148.872316
21
124.883364
0
LINE
8
Layer 1
10
148.872316
20
124.883364
11
151.689954
21
124.883364
0
LINE
8
Layer 1
10
151.689954
20
124.883364
11
154.507592
21
124.883364
0
LINE
8
Layer 1
10
154.507592
20
124.883364
11
154.600372
21
136.966011
0
LINE
8
Layer 1
10
154.600372
20
136.966011
11
154.693153
21
149.048657
0
LINE
8
Layer 1
10
154.693153
20
149.048657
11
159.014683
21
149.147788
0
LINE
8
Layer 1
10
159.014683
20
149.147788
11
163.336214
21
149.246918
0
LINE
8
Layer 1
10
163.336214
20
149.246918
11
163.336214
21
151.705428
0
LINE
8
Layer 1
10
163.336214
20
151.705428
11
163.336214
21
154.163938
0
LINE
8
Layer 1
10
163.336214
20
154.163938
11
151.870929
21
154.163938
0
LINE
8
Layer 1
10
151.870929
20
154.163938
11
140.405644
21
154.163938
0
LINE
8
Layer 1
10
140.405644
20
154.163938
11
140.405644
21
151.694492
0
LINE
8
Layer 1
10
189.441786
20
127.529199
11
189.441786
21
124.883364
0
LINE
8
Layer 1
10
189.441786
20
124.883364
11
192.087621
21
124.883364
0
LINE
8
Layer 1
10
192.087621
20
124.883364
11
194.733456
21
124.883364
0
LINE
8
Layer 1
10
194.733456
20
124.883364
11
194.733456
21
127.529199
0
LINE
8
Layer 1
10
194.733456
20
127.529199
11
194.733456
21
130.175034
0
LINE
8
Layer 1
10
194.733456
20
130.175034
11
192.087621
21
130.175034
0
LINE
8
Layer 1
10
192.087621
20
130.175034
11
189.441786
21
130.175034
0
LINE
8
Layer 1
10
189.441786
20
130.175034
11
189.441786
21
127.529199
 0 
ENDSEC
 0 
EOF